<svg height="500" id="raphael-paper-3" selected_area="90,119,1417,307" style="overflow: hidden; -webkit-tap-highlight-color: rgba(0, 0, 0, 0); user-select: none; cursor: default; vertical-align: middle; position: relative;" transform_matrix='{"a":1,"b":0,"c":0,"d":1,"e":391,"f":247}' version="1.1" viewBox="0 0 1448 500" width="1448" xmlns="http://www.w3.org/2000/svg"><desc></desc><g class="raphael-group-4-parentgroup"><g class="raphael-group-5-chart-tropo"><rect fill="rgb(255, 255, 255)" height="500" opacity="1" real_height="500" real_width="1448" real_x="391" real_y="247" stroke="none" stroke-opacity="1" stroke-width="1px" transform="matrix(1,0,0,1,0,0)" transform_matrix='{"a":1,"b":0,"c":0,"d":1,"e":391,"f":247}' width="1448" x="0" y="0"></rect><g class="raphael-group-74-canvas-tropo" transform="matrix(1,0,0,1,101.4123,86.482)"><rect fill="rgb(255, 255, 255)" fill-opacity="1" height="213.51800000000003" opacity="1" real_height="213.51800537109375" real_width="1303.147705078125" real_x="494.41229248046875" real_y="333.48199462890625" stroke="none" stroke-opacity="1" stroke-width="0px" transform_matrix='{"a":1,"b":0,"c":0,"d":1,"e":492.4123001098633,"f":333.4820022583008}' width="1303.147734375" x="2" y="0"></rect><path d="M1,0H1305.147734375" fill="rgb(0, 0, 0)" my_fill="rgb(0, 0, 0)" my_fill_opacity="1" my_font_size="16px" my_stoke="rgb(214, 214, 214)" my_stoke_opacity="1" my_stoke_width="0px" opacity="1" stroke="#d6d6d6" stroke-opacity="1" stroke-width="0" style='font-family: basefontRegular, "Helvetica Neue", Arial, sans-serif;'></path></g><g class="raphael-group-386-timenav-tropo" transform="matrix(1,0,0,1,99.4123,344.8)"><g class="raphael-group-443-canvas-tropo"><rect fill="rgb(255, 255, 255)" fill-opacity="1" height="60" opacity="1" real_height="60" real_width="1301.147705078125" real_x="492.41229248046875" real_y="607" stroke="none" stroke-opacity="1" stroke-width="0px" transform_matrix='{"a":1,"b":0,"c":0,"d":1,"e":490.4123001098633,"f":591.7999877929688}' width="1301.147734375" x="2" y="15.2"></rect><path d="M1,14.2V73.2" fill="rgb(0, 0, 0)" my_fill="rgb(0, 0, 0)" my_fill_opacity="1" my_font_size="16px" my_stoke="rgb(214, 214, 214)" my_stoke_opacity="1" my_stoke_width="2px" opacity="1" stroke="#d6d6d6" stroke-opacity="1" stroke-width="2" style='font-family: basefontRegular, "Helvetica Neue", Arial, sans-serif;'></path><path d="M1,14.2H1304.147734375" fill="rgb(0, 0, 0)" my_fill="rgb(0, 0, 0)" my_fill_opacity="1" my_font_size="16px" my_stoke="rgb(214, 214, 214)" my_stoke_opacity="1" my_stoke_width="2px" opacity="1" stroke="#d6d6d6" stroke-opacity="1" stroke-width="2" style='font-family: basefontRegular, "Helvetica Neue", Arial, sans-serif;'></path><path d="M1304.147734375,14.2V73.2" fill="rgb(0, 0, 0)" my_fill="rgb(0, 0, 0)" my_fill_opacity="1" my_font_size="16px" my_stoke="rgb(214, 214, 214)" my_stoke_opacity="1" my_stoke_width="2px" opacity="1" stroke="#d6d6d6" stroke-opacity="1" stroke-width="2" style='font-family: basefontRegular, "Helvetica Neue", Arial, sans-serif;'></path><path d="M 2, 73.2 
          L 6.862388851288275, 73.2M 6.862388851288275, 73.2 
          L 16.911325810617377, 73.2M 16.911325810617377, 73.2 
          L 25.987784999688824, 73.2M 25.987784999688824, 73.2 
          L 36.036721959017925, 73.2M 36.036721959017925, 73.2 
          L 45.76149966159447, 73.2M 45.76149966159447, 73.2 
          L 55.810436620923575, 73.2M 55.810436620923575, 73.2 
          L 65.53521432350013, 73.2M 65.53521432350013, 73.2 
          L 75.58415128282923, 73.2M 75.58415128282923, 73.2 
          L 85.63308824215832, 73.2M 85.63308824215832, 73.2 
          L 95.35786594473488, 73.2M 95.35786594473488, 73.2 
          L 105.40680290406398, 73.2M 105.40680290406398, 73.2 
          L 115.13158060664054, 73.2M 115.13158060664054, 73.2 
          L 125.18051756596962, 73.2M 125.18051756596962, 73.2 
          L 135.22945452529873, 73.2M 135.22945452529873, 73.2 
          L 144.30591371437018, 73.2M 144.30591371437018, 73.2 
          L 154.35485067369927, 73.2M 154.35485067369927, 73.2 
          L 164.07962837627582, 73.2M 164.07962837627582, 73.2 
          L 174.12856533560492, 73.2M 174.12856533560492, 73.2 
          L 183.85334303818146, 73.2M 183.85334303818146, 73.2 
          L 193.9022799975106, 73.2M 193.9022799975106, 73.2 
          L 203.9512169568397, 73.2M 203.9512169568397, 73.2 
          L 213.67599465941626, 73.2M 213.67599465941626, 73.2 
          L 223.72493161874533, 73.2M 223.72493161874533, 73.2 
          L 233.44970932132188, 73.2M 233.44970932132188, 73.2 
          L 243.49864628065097, 73.2M 243.49864628065097, 73.2 
          L 253.5475832399801, 73.2M 253.5475832399801, 73.2 
          L 262.94820168580407, 73.2M 262.94820168580407, 73.2 
          L 272.9971386451332, 73.2M 272.9971386451332, 73.2 
          L 282.72191634770974, 73.2M 282.72191634770974, 73.2 
          L 292.77085330703886, 73.2M 292.77085330703886, 73.2 
          L 302.4956310096154, 73.2M 302.4956310096154, 73.2 
          L 312.5445679689445, 73.2M 312.5445679689445, 73.2 
          L 322.5935049282736, 73.2M 322.5935049282736, 73.2 
          L 332.3182826308502, 73.2M 332.3182826308502, 73.2 
          L 342.3672195901792, 73.2M 342.3672195901792, 73.2 
          L 352.09199729275576, 73.2M 352.09199729275576, 73.2 
          L 362.1409342520849, 73.2M 362.1409342520849, 73.2 
          L 372.189871211414, 73.2M 372.189871211414, 73.2 
          L 381.2663304004854, 73.2M 381.2663304004854, 73.2 
          L 391.3152673598145, 73.2M 391.3152673598145, 73.2 
          L 401.0400450623911, 73.2M 401.0400450623911, 73.2 
          L 411.0889820217202, 73.2M 411.0889820217202, 73.2 
          L 420.81375972429674, 73.2M 420.81375972429674, 73.2 
          L 430.86269668362587, 73.2M 430.86269668362587, 73.2 
          L 440.91163364295494, 73.2M 440.91163364295494, 73.2 
          L 450.63641134553154, 73.2M 450.63641134553154, 73.2 
          L 460.6853483048606, 73.2M 460.6853483048606, 73.2 
          L 470.41012600743716, 73.2M 470.41012600743716, 73.2 
          L 480.4590629667663, 73.2M 480.4590629667663, 73.2 
          L 490.50799992609535, 73.2M 490.50799992609535, 73.2 
          L 499.58445911516685, 73.2M 499.58445911516685, 73.2 
          L 509.6333960744959, 73.2M 509.6333960744959, 73.2 
          L 519.3581737770725, 73.2M 519.3581737770725, 73.2 
          L 529.4071107364015, 73.2M 529.4071107364015, 73.2 
          L 539.1318884389781, 73.2M 539.1318884389781, 73.2 
          L 549.1808253983072, 73.2M 549.1808253983072, 73.2 
          L 559.2297623576363, 73.2M 559.2297623576363, 73.2 
          L 568.9545400602128, 73.2M 568.9545400602128, 73.2 
          L 579.003477019542, 73.2M 579.003477019542, 73.2 
          L 588.7282547221185, 73.2M 588.7282547221185, 73.2 
          L 598.7771916814477, 73.2M 598.7771916814477, 73.2 
          L 608.8261286407767, 73.2M 608.8261286407767, 73.2 
          L 617.9025878298481, 73.2M 617.9025878298481, 73.2 
          L 627.9515247891773, 73.2M 627.9515247891773, 73.2 
          L 637.6763024917539, 73.2M 637.6763024917539, 73.2 
          L 647.725239451083, 73.2M 647.725239451083, 73.2 
          L 657.4500171536594, 73.2M 657.4500171536594, 73.2 
          L 667.4989541129886, 73.2M 667.4989541129886, 73.2 
          L 677.5478910723176, 73.2M 677.5478910723176, 73.2 
          L 687.2726687748942, 73.2M 687.2726687748942, 73.2 
          L 697.3216057342233, 73.2M 697.3216057342233, 73.2 
          L 707.0463834367999, 73.2M 707.0463834367999, 73.2 
          L 717.095320396129, 73.2M 717.095320396129, 73.2 
          L 727.1442573554582, 73.2M 727.1442573554582, 73.2 
          L 736.544875801282, 73.2M 736.544875801282, 73.2 
          L 746.5938127606111, 73.2M 746.5938127606111, 73.2 
          L 756.3185904631878, 73.2M 756.3185904631878, 73.2 
          L 766.3675274225168, 73.2M 766.3675274225168, 73.2 
          L 776.0923051250934, 73.2M 776.0923051250934, 73.2 
          L 786.1412420844224, 73.2M 786.1412420844224, 73.2 
          L 796.1901790437516, 73.2M 796.1901790437516, 73.2 
          L 805.9149567463281, 73.2M 805.9149567463281, 73.2 
          L 815.9638937056573, 73.2M 815.9638937056573, 73.2 
          L 825.6886714082337, 73.2M 825.6886714082337, 73.2 
          L 835.7376083675629, 73.2M 835.7376083675629, 73.2 
          L 845.786545326892, 73.2M 845.786545326892, 73.2 
          L 854.8630045159634, 73.2M 854.8630045159634, 73.2 
          L 864.9119414752925, 73.2M 864.9119414752925, 73.2 
          L 874.6367191778692, 73.2M 874.6367191778692, 73.2 
          L 884.6856561371982, 73.2M 884.6856561371982, 73.2 
          L 894.4104338397748, 73.2M 894.4104338397748, 73.2 
          L 904.4593707991038, 73.2M 904.4593707991038, 73.2 
          L 914.5083077584329, 73.2M 914.5083077584329, 73.2 
          L 924.2330854610095, 73.2M 924.2330854610095, 73.2 
          L 934.2820224203385, 73.2M 934.2820224203385, 73.2 
          L 944.0068001229151, 73.2M 944.0068001229151, 73.2 
          L 954.0557370822441, 73.2M 954.0557370822441, 73.2 
          L 964.1046740415734, 73.2M 964.1046740415734, 73.2 
          L 973.1811332306447, 73.2M 973.1811332306447, 73.2 
          L 983.230070189974, 73.2M 983.230070189974, 73.2 
          L 992.9548478925504, 73.2M 992.9548478925504, 73.2 
          L 1003.0037848518796, 73.2M 1003.0037848518796, 73.2 
          L 1012.7285625544561, 73.2M 1012.7285625544561, 73.2 
          L 1022.7774995137852, 73.2M 1022.7774995137852, 73.2 
          L 1032.8264364731142, 73.2M 1032.8264364731142, 73.2 
          L 1042.5512141756908, 73.2M 1042.5512141756908, 73.2 
          L 1052.60015113502, 73.2M 1052.60015113502, 73.2 
          L 1062.3249288375966, 73.2M 1062.3249288375966, 73.2 
          L 1072.3738657969257, 73.2M 1072.3738657969257, 73.2 
          L 1082.4228027562547, 73.2M 1082.4228027562547, 73.2 
          L 1091.4992619453262, 73.2M 1091.4992619453262, 73.2 
          L 1101.5481989046552, 73.2M 1101.5481989046552, 73.2 
          L 1111.2729766072318, 73.2M 1111.2729766072318, 73.2 
          L 1121.3219135665609, 73.2M 1121.3219135665609, 73.2 
          L 1131.0466912691375, 73.2M 1131.0466912691375, 73.2 
          L 1141.0956282284665, 73.2M 1141.0956282284665, 73.2 
          L 1151.1445651877957, 73.2M 1151.1445651877957, 73.2 
          L 1160.869342890372, 73.2M 1160.869342890372, 73.2 
          L 1170.9182798497013, 73.2M 1170.9182798497013, 73.2 
          L 1180.643057552278, 73.2M 1180.643057552278, 73.2 
          L 1190.691994511607, 73.2M 1190.691994511607, 73.2 
          L 1200.740931470936, 73.2M 1200.740931470936, 73.2 
          L 1210.1415499167601, 73.2M 1210.1415499167601, 73.2 
          L 1220.1904868760892, 73.2M 1220.1904868760892, 73.2 
          L 1229.9152645786658, 73.2M 1229.9152645786658, 73.2 
          L 1239.9642015379948, 73.2M 1239.9642015379948, 73.2 
          L 1249.6889792405714, 73.2M 1249.6889792405714, 73.2 
          L 1259.7379161999004, 73.2M 1259.7379161999004, 73.2 
          L 1269.7868531592294, 73.2M 1269.7868531592294, 73.2 
          L 1279.5116308618062, 73.2M 1279.5116308618062, 73.2 
          L 1289.5605678211352, 73.2M 1289.5605678211352, 73.2 
          L 1299.2853455237118, 73.2M 1299.2853455237118, 73.2 
          L 1304.147734375, 73.2" fill="rgb(0, 0, 0)" my_fill="rgb(0, 0, 0)" my_fill_opacity="1" my_font_size="16px" my_stoke="rgb(214, 214, 214)" my_stoke_opacity="1" my_stoke_width="0px" opacity="1" stroke="#d6d6d6" stroke-opacity="1" stroke-width="0" style='font-family: basefontRegular, "Helvetica Neue", Arial, sans-serif;'></path></g></g></g><g class="raphael-group-6-chart-strato"><g class="raphael-group-15-caption-strato" transform="matrix(1,0,0,1,99.4123,16)"><text content="Unemployment in San Jose &amp; SJ Metro Area" fill="rgb(95, 95, 95)" font-family="Helvetica, Arial, sans-serif" font-size="16px" font-style="normal" font-weight="bold" my_fill="rgb(95, 95, 95)" my_fill_opacity="1" my_font_size="16px" opacity="1" stroke="none" style="font-size: 16px; font-style: normal; font-weight: bold; font-family: Helvetica, Arial, sans-serif; text-anchor: start;" text-anchor="start" text_bbox='{"x":0,"y":-1,"w":336.984375,"h":18.5}' x="0" y="14">Unemployment in San Jose &amp; SJ Metro Area</text><text content="From January 2006 - December 2016" fill="rgb(177, 177, 177)" font-family="Helvetica, Arial, sans-serif" font-size="12px" font-style="normal" font-weight="normal" my_fill="rgb(177, 177, 177)" my_fill_opacity="1" my_font_size="12px" opacity="1" stroke="none" style="font-size: 12px; font-style: normal; font-weight: normal; font-family: Helvetica, Arial, sans-serif; text-anchor: start;" text-anchor="start" text_bbox='{"x":0,"y":21,"w":200.109375,"h":14}' x="0" y="32">From January 2006 - December 2016</text></g><g class="raphael-group-75-canvas-strato" transform="matrix(1,0,0,1,101.4123,92.482)"><g class="raphael-group-356-grid-line-group"></g><g class="raphael-group-361-time-marker-full-group" clip-path="url('#rr-979ED63A-8888-4475-B390-DEE478B8D8BC')"></g></g><g class="raphael-group-387-timenav-strato" transform="matrix(1,0,0,1,99.4123,344.8)"><g class="raphael-group-391-time-axis-group"></g><g class="raphael-group-444-canvas-strato"><g class="raphael-group-471-grid-line-group"><path d="M7.158014038288234,75.2V15.2" fill="rgb(0, 0, 0)" my_fill="rgb(0, 0, 0)" my_fill_opacity="1" my_font_size="16px" my_stoke="rgb(241, 241, 241)" my_stoke_opacity="1" my_stoke_width="1px" opacity="1" stroke="#f1f1f1" stroke-opacity="1" stroke-width="1" style='font-family: basefontRegular, "Helvetica Neue", Arial, sans-serif;'></path><path d="M125.33046771246045,75.2V15.2" fill="rgb(0, 0, 0)" my_fill="rgb(0, 0, 0)" my_fill_opacity="1" my_font_size="16px" my_stoke="rgb(241, 241, 241)" my_stoke_opacity="1" my_stoke_width="1px" opacity="1" stroke="#f1f1f1" stroke-opacity="1" stroke-width="1" style='font-family: basefontRegular, "Helvetica Neue", Arial, sans-serif;'></path><path d="M243.50292138663266,75.2V15.2" fill="rgb(0, 0, 0)" my_fill="rgb(0, 0, 0)" my_fill_opacity="1" my_font_size="16px" my_stoke="rgb(241, 241, 241)" my_stoke_opacity="1" my_stoke_width="1px" opacity="1" stroke="#f1f1f1" stroke-opacity="1" stroke-width="1" style='font-family: basefontRegular, "Helvetica Neue", Arial, sans-serif;'></path><path d="M361.9991352078574,75.2V15.2" fill="rgb(0, 0, 0)" my_fill="rgb(0, 0, 0)" my_fill_opacity="1" my_font_size="16px" my_stoke="rgb(241, 241, 241)" my_stoke_opacity="1" my_stoke_width="1px" opacity="1" stroke="#f1f1f1" stroke-opacity="1" stroke-width="1" style='font-family: basefontRegular, "Helvetica Neue", Arial, sans-serif;'></path><path d="M480.1715888820296,75.2V15.2" fill="rgb(0, 0, 0)" my_fill="rgb(0, 0, 0)" my_fill_opacity="1" my_font_size="16px" my_stoke="rgb(241, 241, 241)" my_stoke_opacity="1" my_stoke_width="1px" opacity="1" stroke="#f1f1f1" stroke-opacity="1" stroke-width="1" style='font-family: basefontRegular, "Helvetica Neue", Arial, sans-serif;'></path><path d="M598.3440425562018,75.2V15.2" fill="rgb(0, 0, 0)" my_fill="rgb(0, 0, 0)" my_fill_opacity="1" my_font_size="16px" my_stoke="rgb(241, 241, 241)" my_stoke_opacity="1" my_stoke_width="1px" opacity="1" stroke="#f1f1f1" stroke-opacity="1" stroke-width="1" style='font-family: basefontRegular, "Helvetica Neue", Arial, sans-serif;'></path><path d="M716.5164962303741,75.2V15.2" fill="rgb(0, 0, 0)" my_fill="rgb(0, 0, 0)" my_fill_opacity="1" my_font_size="16px" my_stoke="rgb(241, 241, 241)" my_stoke_opacity="1" my_stoke_width="1px" opacity="1" stroke="#f1f1f1" stroke-opacity="1" stroke-width="1" style='font-family: basefontRegular, "Helvetica Neue", Arial, sans-serif;'></path><path d="M835.0127100515988,75.2V15.2" fill="rgb(0, 0, 0)" my_fill="rgb(0, 0, 0)" my_fill_opacity="1" my_font_size="16px" my_stoke="rgb(241, 241, 241)" my_stoke_opacity="1" my_stoke_width="1px" opacity="1" stroke="#f1f1f1" stroke-opacity="1" stroke-width="1" style='font-family: basefontRegular, "Helvetica Neue", Arial, sans-serif;'></path><path d="M953.185163725771,75.2V15.2" fill="rgb(0, 0, 0)" my_fill="rgb(0, 0, 0)" my_fill_opacity="1" my_font_size="16px" my_stoke="rgb(241, 241, 241)" my_stoke_opacity="1" my_stoke_width="1px" opacity="1" stroke="#f1f1f1" stroke-opacity="1" stroke-width="1" style='font-family: basefontRegular, "Helvetica Neue", Arial, sans-serif;'></path><path d="M1071.3576173999431,75.2V15.2" fill="rgb(0, 0, 0)" my_fill="rgb(0, 0, 0)" my_fill_opacity="1" my_font_size="16px" my_stoke="rgb(241, 241, 241)" my_stoke_opacity="1" my_stoke_width="1px" opacity="1" stroke="#f1f1f1" stroke-opacity="1" stroke-width="1" style='font-family: basefontRegular, "Helvetica Neue", Arial, sans-serif;'></path><path d="M1189.5300710741153,75.2V15.2" fill="rgb(0, 0, 0)" my_fill="rgb(0, 0, 0)" my_fill_opacity="1" my_font_size="16px" my_stoke="rgb(241, 241, 241)" my_stoke_opacity="1" my_stoke_width="1px" opacity="1" stroke="#f1f1f1" stroke-opacity="1" stroke-width="1" style='font-family: basefontRegular, "Helvetica Neue", Arial, sans-serif;'></path></g></g></g></g><g class="raphael-group-7-chart-meso"><g class="raphael-group-27-meso-axis" transform="matrix(1,0,0,1,101.4123,302)"><g class="raphael-group-28-axis-bottom"><g class="raphael-group-29-tick" transform="matrix(1,0,0,1,6.8624,0)"></g><g class="raphael-group-32-tick" transform="matrix(1,0,0,1,125.1805,0)"></g><g class="raphael-group-35-tick" transform="matrix(1,0,0,1,243.4986,0)"></g><g class="raphael-group-38-tick" transform="matrix(1,0,0,1,362.1409,0)"></g><g class="raphael-group-41-tick" transform="matrix(1,0,0,1,480.4591,0)"></g><g class="raphael-group-44-tick" transform="matrix(1,0,0,1,598.7772,0)"></g><g class="raphael-group-47-tick" transform="matrix(1,0,0,1,717.0953,0)"></g><g class="raphael-group-50-tick" transform="matrix(1,0,0,1,835.7376,0)"></g><g class="raphael-group-53-tick" transform="matrix(1,0,0,1,954.0557,0)"></g><g class="raphael-group-56-tick" transform="matrix(1,0,0,1,1072.3739,0)"></g><g class="raphael-group-59-tick" transform="matrix(1,0,0,1,1190.692,0)"></g></g></g><g class="raphael-group-62-meso-axis" transform="matrix(1,0,0,1,43.44,92.482)"><g class="raphael-group-63-axis-left"><text content="Unemployment Count" fill="rgb(95, 95, 95)" font-family="Helvetica, Arial, sans-serif" font-size="12px" font-style="normal" font-weight="normal" my_fill="rgb(95, 95, 95)" my_fill_opacity="1" my_font_size="12px" opacity="1" stroke="none" style="font-size: 12px; font-weight: normal; font-style: normal; font-family: Helvetica, Arial, sans-serif; text-anchor: middle;" text-anchor="middle" text_bbox='{"x":-50.84375,"y":96,"w":116.078125,"h":14}' transform="matrix(0,-1,1,0,-96.559,110.959)" x="7.199999999999999" y="107">Unemployment Count</text><g class="raphael-group-65-tick" transform="matrix(1,0,0,1,0,207.518)"></g><g class="raphael-group-68-tick" transform="matrix(1,0,0,1,0,134.8576)"></g><g class="raphael-group-71-tick" transform="matrix(1,0,0,1,0,62.1973)"></g></g></g><g class="raphael-group-76-canvas-meso" clip-path="url('#rr-8DE301C1-E0F5-4E9F-92B6-9A7F9844F1A4')" transform="matrix(1,0,0,1,101.4123,92.482)"><g class="raphael-group-84-dataset-meso"><g class="raphael-group-86-column-plot-meso" fill="#5d62b5" fill-opacity="1" stroke="#5d62b5" stroke-opacity="1" stroke-width="1"></g><g class="raphael-group-87-column-predictive-plot-meso" fill="#5d62b5" fill-opacity="1" stroke="#5d62b5" stroke-opacity="1" stroke-width="1"></g></g><g class="raphael-group-220-dataset-meso"><g class="raphael-group-222-column-plot-meso" fill="#29c3be" fill-opacity="1" stroke="#29c3be" stroke-opacity="1" stroke-width="1"></g><g class="raphael-group-223-column-predictive-plot-meso" fill="#29c3be" fill-opacity="1" stroke="#29c3be" stroke-opacity="1" stroke-width="1"></g></g></g><g class="raphael-group-388-timenav-meso" transform="matrix(1,0,0,1,99.4123,344.8)"><g class="raphael-group-393-meso-axis" transform="matrix(1,0,0,1,0,13.2)"><g class="raphael-group-394-axis-bottom"><g class="raphael-group-395-tick" transform="matrix(1,0,0,1,7.158,0)"><path d="M 0 0 V 0" fill="rgb(0, 0, 0)" my_fill="rgb(0, 0, 0)" my_fill_opacity="1" my_font_size="16px" my_stoke="rgb(170, 170, 170)" my_stoke_opacity="1" my_stoke_width="1px" opacity="1" stroke="#aaaaaa" stroke-width="1px" style='font-family: basefontRegular, "Helvetica Neue", Arial, sans-serif;' transform_matrix='{"a":1,"b":0,"c":0,"d":1,"e":497.5703001022339,"f":604.9999876022339}'></path><text content="2006" fill="rgb(95, 95, 95)" font-family="Helvetica, Arial, sans-serif" font-size="11px" font-style="normal" font-weight="normal" my_fill="rgb(95, 95, 95)" my_fill_opacity="1" my_font_size="11px" opacity="1" stroke="none" style="font-size: 11px; font-weight: normal; font-style: normal; font-family: Helvetica, Arial, sans-serif; text-anchor: start;" text-anchor="start" text_bbox='{"x":2,"y":3,"w":24.484375,"h":12.5}' x="2" y="13">2006</text></g><g class="raphael-group-398-tick" transform="matrix(1,0,0,1,125.3305,0)"><path d="M 0 0 V 0" fill="rgb(0, 0, 0)" my_fill="rgb(0, 0, 0)" my_fill_opacity="1" my_font_size="16px" my_stoke="rgb(170, 170, 170)" my_stoke_opacity="1" my_stoke_width="1px" opacity="1" stroke="#aaaaaa" stroke-width="1px" style='font-family: basefontRegular, "Helvetica Neue", Arial, sans-serif;' transform_matrix='{"a":1,"b":0,"c":0,"d":1,"e":615.7427978515625,"f":604.9999876022339}'></path><text content="2007" fill="rgb(95, 95, 95)" font-family="Helvetica, Arial, sans-serif" font-size="11px" font-style="normal" font-weight="normal" my_fill="rgb(95, 95, 95)" my_fill_opacity="1" my_font_size="11px" opacity="1" stroke="none" style="font-size: 11px; font-weight: normal; font-style: normal; font-family: Helvetica, Arial, sans-serif; text-anchor: start;" text-anchor="start" text_bbox='{"x":2,"y":3,"w":24.484375,"h":12.5}' x="2" y="13">2007</text></g><g class="raphael-group-401-tick" transform="matrix(1,0,0,1,243.5029,0)"><path d="M 0 0 V 0" fill="rgb(0, 0, 0)" my_fill="rgb(0, 0, 0)" my_fill_opacity="1" my_font_size="16px" my_stoke="rgb(170, 170, 170)" my_stoke_opacity="1" my_stoke_width="1px" opacity="1" stroke="#aaaaaa" stroke-width="1px" style='font-family: basefontRegular, "Helvetica Neue", Arial, sans-serif;' transform_matrix='{"a":1,"b":0,"c":0,"d":1,"e":733.9151992797852,"f":604.9999876022339}'></path><text content="2008" fill="rgb(95, 95, 95)" font-family="Helvetica, Arial, sans-serif" font-size="11px" font-style="normal" font-weight="normal" my_fill="rgb(95, 95, 95)" my_fill_opacity="1" my_font_size="11px" opacity="1" stroke="none" style="font-size: 11px; font-weight: normal; font-style: normal; font-family: Helvetica, Arial, sans-serif; text-anchor: start;" text-anchor="start" text_bbox='{"x":2,"y":3,"w":24.484375,"h":12.5}' x="2" y="13">2008</text></g><g class="raphael-group-404-tick" transform="matrix(1,0,0,1,361.9991,0)"><path d="M 0 0 V 0" fill="rgb(0, 0, 0)" my_fill="rgb(0, 0, 0)" my_fill_opacity="1" my_font_size="16px" my_stoke="rgb(170, 170, 170)" my_stoke_opacity="1" my_stoke_width="1px" opacity="1" stroke="#aaaaaa" stroke-width="1px" style='font-family: basefontRegular, "Helvetica Neue", Arial, sans-serif;' transform_matrix='{"a":1,"b":0,"c":0,"d":1,"e":852.4114151000977,"f":604.9999876022339}'></path><text content="2009" fill="rgb(95, 95, 95)" font-family="Helvetica, Arial, sans-serif" font-size="11px" font-style="normal" font-weight="normal" my_fill="rgb(95, 95, 95)" my_fill_opacity="1" my_font_size="11px" opacity="1" stroke="none" style="font-size: 11px; font-weight: normal; font-style: normal; font-family: Helvetica, Arial, sans-serif; text-anchor: start;" text-anchor="start" text_bbox='{"x":2,"y":3,"w":24.484375,"h":12.5}' x="2" y="13">2009</text></g><g class="raphael-group-407-tick" transform="matrix(1,0,0,1,480.1716,0)"><path d="M 0 0 V 0" fill="rgb(0, 0, 0)" my_fill="rgb(0, 0, 0)" my_fill_opacity="1" my_font_size="16px" my_stoke="rgb(170, 170, 170)" my_stoke_opacity="1" my_stoke_width="1px" opacity="1" stroke="#aaaaaa" stroke-width="1px" style='font-family: basefontRegular, "Helvetica Neue", Arial, sans-serif;' transform_matrix='{"a":1,"b":0,"c":0,"d":1,"e":970.5839004516602,"f":604.9999876022339}'></path><text content="2010" fill="rgb(95, 95, 95)" font-family="Helvetica, Arial, sans-serif" font-size="11px" font-style="normal" font-weight="normal" my_fill="rgb(95, 95, 95)" my_fill_opacity="1" my_font_size="11px" opacity="1" stroke="none" style="font-size: 11px; font-weight: normal; font-style: normal; font-family: Helvetica, Arial, sans-serif; text-anchor: start;" text-anchor="start" text_bbox='{"x":2,"y":3,"w":24.484375,"h":12.5}' x="2" y="13">2010</text></g><g class="raphael-group-410-tick" transform="matrix(1,0,0,1,598.344,0)"><path d="M 0 0 V 0" fill="rgb(0, 0, 0)" my_fill="rgb(0, 0, 0)" my_fill_opacity="1" my_font_size="16px" my_stoke="rgb(170, 170, 170)" my_stoke_opacity="1" my_stoke_width="1px" opacity="1" stroke="#aaaaaa" stroke-width="1px" style='font-family: basefontRegular, "Helvetica Neue", Arial, sans-serif;' transform_matrix='{"a":1,"b":0,"c":0,"d":1,"e":1088.7562942504883,"f":604.9999876022339}'></path><text content="2011" fill="rgb(95, 95, 95)" font-family="Helvetica, Arial, sans-serif" font-size="11px" font-style="normal" font-weight="normal" my_fill="rgb(95, 95, 95)" my_fill_opacity="1" my_font_size="11px" opacity="1" stroke="none" style="font-size: 11px; font-weight: normal; font-style: normal; font-family: Helvetica, Arial, sans-serif; text-anchor: start;" text-anchor="start" text_bbox='{"x":2,"y":3,"w":23.671875,"h":12.5}' x="2" y="13">2011</text></g><g class="raphael-group-413-tick" transform="matrix(1,0,0,1,716.5165,0)"><path d="M 0 0 V 0" fill="rgb(0, 0, 0)" my_fill="rgb(0, 0, 0)" my_fill_opacity="1" my_font_size="16px" my_stoke="rgb(170, 170, 170)" my_stoke_opacity="1" my_stoke_width="1px" opacity="1" stroke="#aaaaaa" stroke-width="1px" style='font-family: basefontRegular, "Helvetica Neue", Arial, sans-serif;' transform_matrix='{"a":1,"b":0,"c":0,"d":1,"e":1206.9287796020508,"f":604.9999876022339}'></path><text content="2012" fill="rgb(95, 95, 95)" font-family="Helvetica, Arial, sans-serif" font-size="11px" font-style="normal" font-weight="normal" my_fill="rgb(95, 95, 95)" my_fill_opacity="1" my_font_size="11px" opacity="1" stroke="none" style="font-size: 11px; font-weight: normal; font-style: normal; font-family: Helvetica, Arial, sans-serif; text-anchor: start;" text-anchor="start" text_bbox='{"x":2,"y":3,"w":24.484375,"h":12.5}' x="2" y="13">2012</text></g><g class="raphael-group-416-tick" transform="matrix(1,0,0,1,835.0127,0)"><path d="M 0 0 V 0" fill="rgb(0, 0, 0)" my_fill="rgb(0, 0, 0)" my_fill_opacity="1" my_font_size="16px" my_stoke="rgb(170, 170, 170)" my_stoke_opacity="1" my_stoke_width="1px" opacity="1" stroke="#aaaaaa" stroke-width="1px" style='font-family: basefontRegular, "Helvetica Neue", Arial, sans-serif;' transform_matrix='{"a":1,"b":0,"c":0,"d":1,"e":1325.4249954223633,"f":604.9999876022339}'></path><text content="2013" fill="rgb(95, 95, 95)" font-family="Helvetica, Arial, sans-serif" font-size="11px" font-style="normal" font-weight="normal" my_fill="rgb(95, 95, 95)" my_fill_opacity="1" my_font_size="11px" opacity="1" stroke="none" style="font-size: 11px; font-weight: normal; font-style: normal; font-family: Helvetica, Arial, sans-serif; text-anchor: start;" text-anchor="start" text_bbox='{"x":2,"y":3,"w":24.484375,"h":12.5}' x="2" y="13">2013</text></g><g class="raphael-group-419-tick" transform="matrix(1,0,0,1,953.1852,0)"><path d="M 0 0 V 0" fill="rgb(0, 0, 0)" my_fill="rgb(0, 0, 0)" my_fill_opacity="1" my_font_size="16px" my_stoke="rgb(170, 170, 170)" my_stoke_opacity="1" my_stoke_width="1px" opacity="1" stroke="#aaaaaa" stroke-width="1px" style='font-family: basefontRegular, "Helvetica Neue", Arial, sans-serif;' transform_matrix='{"a":1,"b":0,"c":0,"d":1,"e":1443.5974807739258,"f":604.9999876022339}'></path><text content="2014" fill="rgb(95, 95, 95)" font-family="Helvetica, Arial, sans-serif" font-size="11px" font-style="normal" font-weight="normal" my_fill="rgb(95, 95, 95)" my_fill_opacity="1" my_font_size="11px" opacity="1" stroke="none" style="font-size: 11px; font-weight: normal; font-style: normal; font-family: Helvetica, Arial, sans-serif; text-anchor: start;" text-anchor="start" text_bbox='{"x":2,"y":3,"w":24.484375,"h":12.5}' x="2" y="13">2014</text></g><g class="raphael-group-422-tick" transform="matrix(1,0,0,1,1071.3576,0)"><path d="M 0 0 V 0" fill="rgb(0, 0, 0)" my_fill="rgb(0, 0, 0)" my_fill_opacity="1" my_font_size="16px" my_stoke="rgb(170, 170, 170)" my_stoke_opacity="1" my_stoke_width="1px" opacity="1" stroke="#aaaaaa" stroke-width="1px" style='font-family: basefontRegular, "Helvetica Neue", Arial, sans-serif;' transform_matrix='{"a":1,"b":0,"c":0,"d":1,"e":1561.7698440551758,"f":604.9999876022339}'></path><text content="2015" fill="rgb(95, 95, 95)" font-family="Helvetica, Arial, sans-serif" font-size="11px" font-style="normal" font-weight="normal" my_fill="rgb(95, 95, 95)" my_fill_opacity="1" my_font_size="11px" opacity="1" stroke="none" style="font-size: 11px; font-weight: normal; font-style: normal; font-family: Helvetica, Arial, sans-serif; text-anchor: start;" text-anchor="start" text_bbox='{"x":2,"y":3,"w":24.484375,"h":12.5}' x="2" y="13">2015</text></g><g class="raphael-group-425-tick" transform="matrix(1,0,0,1,1189.5301,0)"><path d="M 0 0 V 0" fill="rgb(0, 0, 0)" my_fill="rgb(0, 0, 0)" my_fill_opacity="1" my_font_size="16px" my_stoke="rgb(170, 170, 170)" my_stoke_opacity="1" my_stoke_width="1px" opacity="1" stroke="#aaaaaa" stroke-width="1px" style='font-family: basefontRegular, "Helvetica Neue", Arial, sans-serif;' transform_matrix='{"a":1,"b":0,"c":0,"d":1,"e":1679.9424514770508,"f":604.9999876022339}'></path><text content="2016" fill="rgb(95, 95, 95)" font-family="Helvetica, Arial, sans-serif" font-size="11px" font-style="normal" font-weight="normal" my_fill="rgb(95, 95, 95)" my_fill_opacity="1" my_font_size="11px" opacity="1" stroke="none" style="font-size: 11px; font-weight: normal; font-style: normal; font-family: Helvetica, Arial, sans-serif; text-anchor: start;" text-anchor="start" text_bbox='{"x":2,"y":3,"w":24.484375,"h":12.5}' x="2" y="13">2016</text></g></g></g><g class="raphael-group-445-canvas-meso" clip-path="url('#rr-D010F701-C625-4702-88B0-4C7FB84CA29B')"><g class="raphael-group-453-dataset-meso"><g class="raphael-group-455-line-common-meso"><g class="raphael-group-457-line-plot-meso"><path clip-path="url('#rr-2CD2FC08-EFA5-4D30-8D72-C057CA42A820')" d="M7.158014038288234,72.2L17.194578596916557,72.2L26.259862714387303,72.2L36.29642727301563,72.2L46.00923168459143,72.2L56.045796243219755,72.2L65.75860065479554,72.2L75.79516521342387,72.2L85.8317297720522,72.2L95.54453418362799,72.2L105.58109874225633,72.2L115.29390315383212,72.2L125.33046771246045,72.2L135.36703227108876,72.2L144.4323163885595,72.2L154.46888094718784,72.2L164.18168535876362,72.2L174.21824991739194,72.2L183.93105432896775,72.2L193.96761888759607,72.2L204.0041834462244,72.2L213.7169878578002,72.2L223.75355241642853,72.2L233.46635682800434,72.2L243.50292138663266,72.2L253.53948594526096,72.2L262.92853020978424,72.2L272.9650947684126,72.2L282.67789917998834,72.2L292.7144637386167,72.2L302.4272681501925,72.2L312.4638327088208,72.2L322.50039726744916,72.2L332.2132016790249,72.2L342.24976623765326,72.2L351.962570649229,72.2L361.9991352078574,72.2L372.0356997664857,72.2L381.1009838839564,72.2L391.13754844258483,72.2L400.8503528541606,72.2L410.88691741278893,72.2L420.5997218243647,72.2L430.63628638299303,72.2L440.67285094162133,72.2L450.3856553531972,72.2L460.4222199118255,72.2L470.1350243234013,72.2L480.1715888820296,72.2L490.2081534406579,72.2L499.2734375581287,72.2L509.310002116757,72.2L519.0228065283328,72.2L529.0593710869612,72.2L538.772175498537,72.2L548.8087400571652,72.2L558.8453046157936,72.2L568.5581090273694,72.2L578.5946735859977,72.2L588.3074779975735,72.2L598.3440425562018,72.2L608.3806071148301,72.2L617.4458912323009,72.2L627.4824557909292,72.2L637.195260202505,72.2L647.2318247611333,72.2L656.944629172709,72.2L666.9811937313375,72.2L677.0177582899659,72.2L686.7305627015417,72.2L696.7671272601699,72.2L706.4799316717458,72.2L716.5164962303741,72.2L726.5530607890023,72.2L735.9421050535256,72.2L745.978669612154,72.2L755.6914740237297,72.2L765.7280385823582,72.2L775.4408429939338,72.2L785.4774075525622,72.2L795.5139721111906,72.2L805.2267765227664,72.2L815.2633410813946,72.2L824.9761454929703,72.2L835.0127100515988,72.2L845.0492746102271,72.2L854.1145587276978,72.2L864.1511232863261,72.2L873.863927697902,72.2L883.9004922565302,72.2L893.613296668106,72.2L903.6498612267344,72.2L913.6864257853626,72.2L923.3992301969384,72.2L933.4357947555668,72.2L943.1485991671426,72.2L953.185163725771,72.2L963.2217282843992,72.2L972.2870124018701,72.2L982.3235769604984,72.2L992.0363813720742,72.2L1002.0729459307025,72.2L1011.7857503422783,72.2L1021.8223149009067,72.2L1031.858879459535,72.2L1041.5716838711107,72.2L1051.608248429739,72.2L1061.321052841315,72.2L1071.3576173999431,72.2L1081.3941819585714,72.2L1090.4594660760422,72.2L1100.4960306346704,72.2L1110.2088350462463,72.2L1120.2453996048746,72.2L1129.9582040164505,72.2L1139.9947685750788,72.2L1150.031333133707,72.2L1159.744137545283,72.2L1169.7807021039112,72.2L1179.493506515487,72.2L1189.5300710741153,72.2L1199.5666356327438,72.2L1208.955679897267,72.2L1218.9922444558952,72.2L1228.705048867471,72.2L1238.7416134260993,72.2L1248.4544178376752,72.2L1258.4909823963035,72.2L1268.5275469549317,72.2L1278.2403513665076,72.2L1288.2769159251359,72.2L1297.9897203367118,72.2L1297.9897203367118,64.55644257703082L1288.2769159251359,64.14327731092438L1278.2403513665076,63.523529411764706L1268.5275469549317,63.523529411764706L1258.4909823963035,62.90378151260504L1248.4544178376752,62.490616246498604L1238.7416134260993,62.90378151260504L1228.705048867471,64.55644257703082L1218.9922444558952,63.93669467787115L1208.955679897267,63.523529411764706L1199.5666356327438,63.523529411764706L1189.5300710741153,63.523529411764706L1179.493506515487,63.523529411764706L1169.7807021039112,63.11036414565827L1159.744137545283,62.90378151260504L1150.031333133707,63.31694677871149L1139.9947685750788,62.69719887955183L1129.9582040164505,62.07745098039216L1120.2453996048746,62.69719887955183L1110.2088350462463,62.90378151260504L1100.4960306346704,62.90378151260504L1090.4594660760422,62.07745098039216L1081.3941819585714,61.87086834733894L1071.3576173999431,61.25112044817928L1061.321052841315,62.28403361344538L1051.608248429739,61.25112044817928L1041.5716838711107,61.044537815126056L1031.858879459535,61.044537815126056L1021.8223149009067,60.01162464985995L1011.7857503422783,59.391876750700284L1002.0729459307025,60.424789915966386L992.0363813720742,60.631372549019616L982.3235769604984,60.83795518207283L972.2870124018701,58.978711484593845L963.2217282843992,58.978711484593845L953.185163725771,58.978711484593845L943.1485991671426,59.59845938375351L933.4357947555668,58.5655462184874L923.3992301969384,57.945798319327736L913.6864257853626,57.945798319327736L903.6498612267344,57.32605042016807L893.613296668106,56.49971988795519L883.9004922565302,56.70630252100841L873.863927697902,57.73921568627451L864.1511232863261,57.73921568627451L854.1145587276978,56.49971988795519L845.0492746102271,56.08655462184875L835.0127100515988,55.05364145658264L824.9761454929703,56.08655462184875L815.2633410813946,55.6733893557423L805.2267765227664,55.260224089635855L795.5139721111906,55.260224089635855L785.4774075525622,53.81414565826331L775.4408429939338,52.98781512605042L765.7280385823582,53.40098039215687L755.6914740237297,54.22731092436975L745.978669612154,54.22731092436975L735.9421050535256,52.98781512605042L726.5530607890023,52.57464985994398L716.5164962303741,52.36806722689076L706.4799316717458,52.781232492997205L696.7671272601699,52.16148459383754L686.7305627015417,51.54173669467788L677.0177582899659,51.12857142857143L666.9811937313375,50.71540616246499L656.944629172709,50.095658263305324L647.2318247611333,50.095658263305324L637.195260202505,51.33515406162465L627.4824557909292,50.92198879551821L617.4458912323009,50.095658263305324L608.3806071148301,49.88907563025211L598.3440425562018,49.269327731092446L588.3074779975735,50.095658263305324L578.5946735859977,48.856162464986L568.5581090273694,49.269327731092446L558.8453046157936,49.06274509803922L548.8087400571652,48.23641456582634L538.772175498537,47.82324929971989L529.0593710869612,48.23641456582634L519.0228065283328,48.856162464986L509.310002116757,48.23641456582634L499.2734375581287,46.99691876750701L490.2081534406579,47.20350140056023L480.1715888820296,46.79033613445378L470.1350243234013,47.616666666666674L460.4222199118255,46.99691876750701L450.3856553531972,46.583753501400565L440.67285094162133,46.583753501400565L430.63628638299303,46.37717086834735L420.5997218243647,46.37717086834735L410.88691741278893,46.583753501400565L400.8503528541606,48.23641456582634L391.13754844258483,49.06274509803922L381.1009838839564,48.649579831932776L372.0356997664857,50.095658263305324L361.9991352078574,51.54173669467788L351.962570649229,54.84705882352941L342.24976623765326,55.87997198879552L332.2132016790249,56.70630252100841L322.50039726744916,57.53263305322129L312.4638327088208,57.32605042016807L302.4272681501925,57.53263305322129L292.7144637386167,58.358963585434175L282.67789917998834,59.80504201680672L272.9650947684126,60.83795518207283L262.92853020978424,60.01162464985995L253.53948594526096,60.631372549019616L243.50292138663266,60.424789915966386L233.46635682800434,61.25112044817928L223.75355241642853,61.044537815126056L213.7169878578002,61.044537815126056L204.0041834462244,61.044537815126056L193.96761888759607,60.83795518207283L183.93105432896775,60.631372549019616L174.21824991739194,61.25112044817928L164.18168535876362,62.490616246498604L154.46888094718784,62.07745098039216L144.4323163885595,61.66428571428572L135.36703227108876,61.66428571428572L125.33046771246045,61.25112044817928L115.29390315383212,62.90378151260504L105.58109874225633,62.07745098039216L95.54453418362799,62.490616246498604L85.8317297720522,62.07745098039216L75.79516521342387,61.66428571428572L65.75860065479554,61.044537815126056L56.045796243219755,61.66428571428572L46.00923168459143,62.69719887955183L36.29642727301563,62.07745098039216L26.259862714387303,61.25112044817928L17.194578596916557,61.044537815126056L7.158014038288234,61.044537815126056Z" fill="rgb(93, 98, 181)" fill-opacity="0.6" my_fill="rgb(93, 98, 181)" my_fill_opacity="0.6" my_font_size="16px" my_stoke="rgb(93, 98, 181)" my_stoke_opacity="1" my_stoke_width="0px" opacity="1" stroke="#5d62b5" stroke-opacity="1" stroke-width="0" style='font-family: basefontRegular, "Helvetica Neue", Arial, sans-serif;'></path></g></g></g><g class="raphael-group-462-dataset-meso"><g class="raphael-group-464-line-common-meso"><g class="raphael-group-466-line-plot-meso"><path clip-path="url('#rr-4180C49B-9484-4C77-A9E3-C5C8DEDA83E0')" d="M7.158014038288234,61.044537815126056L17.194578596916557,61.044537815126056L26.259862714387303,61.25112044817928L36.29642727301563,62.07745098039216L46.00923168459143,62.69719887955183L56.045796243219755,61.66428571428572L65.75860065479554,61.044537815126056L75.79516521342387,61.66428571428572L85.8317297720522,62.07745098039216L95.54453418362799,62.490616246498604L105.58109874225633,62.07745098039216L115.29390315383212,62.90378151260504L125.33046771246045,61.25112044817928L135.36703227108876,61.66428571428572L144.4323163885595,61.66428571428572L154.46888094718784,62.07745098039216L164.18168535876362,62.490616246498604L174.21824991739194,61.25112044817928L183.93105432896775,60.631372549019616L193.96761888759607,60.83795518207283L204.0041834462244,61.044537815126056L213.7169878578002,61.044537815126056L223.75355241642853,61.044537815126056L233.46635682800434,61.25112044817928L243.50292138663266,60.424789915966386L253.53948594526096,60.631372549019616L262.92853020978424,60.01162464985995L272.9650947684126,60.83795518207283L282.67789917998834,59.80504201680672L292.7144637386167,58.358963585434175L302.4272681501925,57.53263305322129L312.4638327088208,57.32605042016807L322.50039726744916,57.53263305322129L332.2132016790249,56.70630252100841L342.24976623765326,55.87997198879552L351.962570649229,54.84705882352941L361.9991352078574,51.54173669467788L372.0356997664857,50.095658263305324L381.1009838839564,48.649579831932776L391.13754844258483,49.06274509803922L400.8503528541606,48.23641456582634L410.88691741278893,46.583753501400565L420.5997218243647,46.37717086834735L430.63628638299303,46.37717086834735L440.67285094162133,46.583753501400565L450.3856553531972,46.583753501400565L460.4222199118255,46.99691876750701L470.1350243234013,47.616666666666674L480.1715888820296,46.79033613445378L490.2081534406579,47.20350140056023L499.2734375581287,46.99691876750701L509.310002116757,48.23641456582634L519.0228065283328,48.856162464986L529.0593710869612,48.23641456582634L538.772175498537,47.82324929971989L548.8087400571652,48.23641456582634L558.8453046157936,49.06274509803922L568.5581090273694,49.269327731092446L578.5946735859977,48.856162464986L588.3074779975735,50.095658263305324L598.3440425562018,49.269327731092446L608.3806071148301,49.88907563025211L617.4458912323009,50.095658263305324L627.4824557909292,50.92198879551821L637.195260202505,51.33515406162465L647.2318247611333,50.095658263305324L656.944629172709,50.095658263305324L666.9811937313375,50.71540616246499L677.0177582899659,51.12857142857143L686.7305627015417,51.54173669467788L696.7671272601699,52.16148459383754L706.4799316717458,52.781232492997205L716.5164962303741,52.36806722689076L726.5530607890023,52.57464985994398L735.9421050535256,52.98781512605042L745.978669612154,54.22731092436975L755.6914740237297,54.22731092436975L765.7280385823582,53.40098039215687L775.4408429939338,52.98781512605042L785.4774075525622,53.81414565826331L795.5139721111906,55.260224089635855L805.2267765227664,55.260224089635855L815.2633410813946,55.6733893557423L824.9761454929703,56.08655462184875L835.0127100515988,55.05364145658264L845.0492746102271,56.08655462184875L854.1145587276978,56.49971988795519L864.1511232863261,57.73921568627451L873.863927697902,57.73921568627451L883.9004922565302,56.70630252100841L893.613296668106,56.49971988795519L903.6498612267344,57.32605042016807L913.6864257853626,57.945798319327736L923.3992301969384,57.945798319327736L933.4357947555668,58.5655462184874L943.1485991671426,59.59845938375351L953.185163725771,58.978711484593845L963.2217282843992,58.978711484593845L972.2870124018701,58.978711484593845L982.3235769604984,60.83795518207283L992.0363813720742,60.631372549019616L1002.0729459307025,60.424789915966386L1011.7857503422783,59.391876750700284L1021.8223149009067,60.01162464985995L1031.858879459535,61.044537815126056L1041.5716838711107,61.044537815126056L1051.608248429739,61.25112044817928L1061.321052841315,62.28403361344538L1071.3576173999431,61.25112044817928L1081.3941819585714,61.87086834733894L1090.4594660760422,62.07745098039216L1100.4960306346704,62.90378151260504L1110.2088350462463,62.90378151260504L1120.2453996048746,62.69719887955183L1129.9582040164505,62.07745098039216L1139.9947685750788,62.69719887955183L1150.031333133707,63.31694677871149L1159.744137545283,62.90378151260504L1169.7807021039112,63.11036414565827L1179.493506515487,63.523529411764706L1189.5300710741153,63.523529411764706L1199.5666356327438,63.523529411764706L1208.955679897267,63.523529411764706L1218.9922444558952,63.93669467787115L1228.705048867471,64.55644257703082L1238.7416134260993,62.90378151260504L1248.4544178376752,62.490616246498604L1258.4909823963035,62.90378151260504L1268.5275469549317,63.523529411764706L1278.2403513665076,63.523529411764706L1288.2769159251359,64.14327731092438L1297.9897203367118,64.55644257703082L1297.9897203367118,57.53263305322129L1288.2769159251359,56.91288515406163L1278.2403513665076,55.6733893557423L1268.5275469549317,55.6733893557423L1258.4909823963035,54.64047619047619L1248.4544178376752,53.81414565826331L1238.7416134260993,54.43389355742298L1228.705048867471,57.53263305322129L1218.9922444558952,56.293137254901964L1208.955679897267,55.46680672268908L1199.5666356327438,55.6733893557423L1189.5300710741153,55.46680672268908L1179.493506515487,55.46680672268908L1169.7807021039112,54.64047619047619L1159.744137545283,54.43389355742298L1150.031333133707,55.260224089635855L1139.9947685750788,54.02072829131653L1129.9582040164505,52.781232492997205L1120.2453996048746,54.02072829131653L1110.2088350462463,54.22731092436975L1100.4960306346704,54.43389355742298L1090.4594660760422,52.781232492997205L1081.3941819585714,52.36806722689076L1071.3576173999431,51.12857142857143L1061.321052841315,53.19439775910365L1051.608248429739,51.12857142857143L1041.5716838711107,50.92198879551821L1031.858879459535,50.92198879551821L1021.8223149009067,48.856162464986L1011.7857503422783,47.82324929971989L1002.0729459307025,49.682492997198885L992.0363813720742,50.095658263305324L982.3235769604984,50.50882352941177L972.2870124018701,46.79033613445378L963.2217282843992,46.79033613445378L953.185163725771,46.79033613445378L943.1485991671426,48.02983193277312L933.4357947555668,46.170588235294126L923.3992301969384,44.931092436974794L913.6864257853626,44.931092436974794L903.6498612267344,43.69159663865547L893.613296668106,42.24551820728291L883.9004922565302,42.65868347338936L873.863927697902,44.51792717086835L864.1511232863261,44.51792717086835L854.1145587276978,42.0389355742297L845.0492746102271,41.21260504201682L835.0127100515988,39.35336134453782L824.9761454929703,41.419187675070035L815.2633410813946,40.59285714285714L805.2267765227664,39.76652661064426L795.5139721111906,39.973109243697486L785.4774075525622,37.08095238095238L775.4408429939338,35.42829131652661L765.7280385823582,36.254621848739504L755.6914740237297,37.70070028011205L745.978669612154,37.70070028011205L735.9421050535256,35.2217086834734L726.5530607890023,34.60196078431373L716.5164962303741,34.18879551820729L706.4799316717458,35.01512605042017L696.7671272601699,33.77563025210084L686.7305627015417,32.74271708683474L677.0177582899659,31.91638655462186L666.9811937313375,31.090056022408973L656.944629172709,29.850560224089648L647.2318247611333,29.850560224089648L637.195260202505,32.122969187675075L627.4824557909292,31.503221288515412L617.4458912323009,29.850560224089648L608.3806071148301,29.23081232492998L598.3440425562018,28.197899159663883L588.3074779975735,29.850560224089648L578.5946735859977,27.578151260504207L568.5581090273694,28.404481792717093L558.8453046157936,27.991316526610653L548.8087400571652,26.545238095238098L538.772175498537,25.718907563025212L529.0593710869612,26.33865546218488L519.0228065283328,27.578151260504207L509.310002116757,26.33865546218488L499.2734375581287,24.066246498599448L490.2081534406579,24.27282913165267L480.1715888820296,23.653081232493L470.1350243234013,24.892577030812333L460.4222199118255,24.066246498599448L450.3856553531972,23.446498599439785L440.67285094162133,23.446498599439785L430.63628638299303,23.03333333333334L420.5997218243647,23.03333333333334L410.88691741278893,23.446498599439785L400.8503528541606,26.545238095238098L391.13754844258483,27.991316526610653L381.1009838839564,27.164985994397767L372.0356997664857,30.057142857142864L361.9991352078574,32.74271708683474L351.962570649229,38.94019607843138L342.24976623765326,41.00602240896359L332.2132016790249,42.65868347338936L322.50039726744916,44.31134453781513L312.4638327088208,43.898179271708685L302.4272681501925,44.31134453781513L292.7144637386167,45.9640056022409L282.67789917998834,48.649579831932776L272.9650947684126,50.30224089635855L262.92853020978424,48.856162464986L253.53948594526096,49.88907563025211L243.50292138663266,49.682492997198885L233.46635682800434,51.12857142857143L223.75355241642853,50.92198879551821L213.7169878578002,51.12857142857143L204.0041834462244,51.12857142857143L193.96761888759607,50.71540616246499L183.93105432896775,50.095658263305324L174.21824991739194,51.33515406162465L164.18168535876362,53.607563025210084L154.46888094718784,52.781232492997205L144.4323163885595,52.16148459383754L135.36703227108876,51.95490196078431L125.33046771246045,51.33515406162465L115.29390315383212,54.43389355742298L105.58109874225633,52.98781512605042L95.54453418362799,53.81414565826331L85.8317297720522,52.98781512605042L75.79516521342387,52.16148459383754L65.75860065479554,51.12857142857143L56.045796243219755,52.16148459383754L46.00923168459143,54.02072829131653L36.29642727301563,52.781232492997205L26.259862714387303,51.33515406162465L17.194578596916557,50.92198879551821L7.158014038288234,50.92198879551821Z" fill="rgb(41, 195, 190)" fill-opacity="0.6" my_fill="rgb(41, 195, 190)" my_fill_opacity="0.6" my_font_size="16px" my_stoke="rgb(41, 195, 190)" my_stoke_opacity="1" my_stoke_width="0px" opacity="1" stroke="#29c3be" stroke-opacity="1" stroke-width="0" style='font-family: basefontRegular, "Helvetica Neue", Arial, sans-serif;'></path></g></g></g></g></g></g><g class="raphael-group-8-chart-thermo"><g class="raphael-group-77-canvas-thermo" transform="matrix(1,0,0,1,101.4123,92.482)"><g class="raphael-group-85-dataset-thermo" clip-path="url('#rr-DF648C59-C9C1-4EFA-A942-07D694E2CD19')"></g><g class="raphael-group-221-dataset-thermo" clip-path="url('#rr-1AA83556-68E1-44DD-BE74-1EF42BABF692')"></g><g class="raphael-group-360-time-marker-min-group" clip-path="url('#rr-F0173D19-CEAB-42FC-A1D3-1B793EFE8843')"></g><g class="raphael-group-362-time-marker-hover-elem-group"></g><g class="raphael-group-363-time-marker-group"></g></g><g class="raphael-group-389-timenav-thermo" transform="matrix(1,0,0,1,99.4123,344.8)"><g class="raphael-group-392-scrollbar-group"><g class="raphael-group-428-scrollContainer"><rect fill="rgb(248, 248, 248)" height="17" opacity="1" real_height="17" real_width="1339" real_x="473.91229248046875" real_y="665.2999877929688" rx="0" ry="0" stroke="none" stroke-opacity="1" stroke-width="1px" transform_matrix='{"a":1,"b":0,"c":0,"d":1,"e":490.4123001098633,"f":591.7999877929688}' width="1339" x="-16.5" y="73.5"></rect><rect fill="rgb(227, 227, 227)" height="17" opacity="1" real_height="17" real_width="1304.147705078125" real_x="490.91229248046875" real_y="665.5" rx="0" ry="0" stroke="none" stroke-opacity="1" stroke-width="1px" transform_matrix='{"a":1,"b":0,"c":0,"d":1,"e":490.4123001098633,"f":591.7999877929688}' width="1304.147734375" x="0.5" y="73.7"></rect><path d="M649.5738671875,77.10000000000001v10.2m3,-10.2v10.2m3,-10.2v10.2" fill="rgb(0, 0, 0)" my_fill="rgb(0, 0, 0)" my_fill_opacity="1" my_font_size="16px" my_stoke="rgb(136, 136, 136)" my_stoke_opacity="1" my_stoke_width="2px" opacity="1" stroke="#888888" stroke-linecap="round" stroke-width="2" style='font-family: basefontRegular, "Helvetica Neue", Arial, sans-serif;'></path><rect fill="rgb(227, 227, 227)" height="17" opacity="1" real_height="17" real_width="17" real_x="473.41229248046875" real_y="665.5" stroke="none" stroke-opacity="1" stroke-width="1px" transform_matrix='{"a":1,"b":0,"c":0,"d":1,"e":490.4123001098633,"f":591.7999877929688}' width="17" x="-17" y="73.7"></rect><path d="M-12.75,82.2L-6.375000000000003,85.88060796608387L-6.374999999999995,78.51939203391615Z" fill="rgb(136, 136, 136)" my_fill="rgb(136, 136, 136)" my_fill_opacity="1" my_font_size="16px" my_stoke="none" my_stoke_opacity="1" my_stoke_width="1px" opacity="1" stroke="none" style='font-family: basefontRegular, "Helvetica Neue", Arial, sans-serif;'></path><rect fill="rgb(227, 227, 227)" height="17" opacity="1" real_height="17" real_width="17" real_x="1795.56005859375" real_y="665.5" stroke="none" stroke-opacity="1" stroke-width="1px" transform_matrix='{"a":1,"b":0,"c":0,"d":1,"e":490.4123001098633,"f":591.7999877929688}' width="17" x="1305.147734375" y="73.7"></rect><path d="M1317.897734375,82.2L1311.522734375,78.51939203391613L1311.522734375,85.88060796608387Z" fill="rgb(136, 136, 136)" my_fill="rgb(136, 136, 136)" my_fill_opacity="1" my_font_size="16px" my_stoke="none" my_stoke_opacity="1" my_stoke_width="1px" opacity="1" stroke="none" style='font-family: basefontRegular, "Helvetica Neue", Arial, sans-serif;'></path></g></g><g class="raphael-group-446-canvas-thermo"><g class="raphael-group-454-dataset-thermo" clip-path="url('#rr-B27418A4-F8AA-421C-8027-30331F92AB5F')"><g class="raphael-group-456-line-common-thermo"><g class="raphael-group-458-line-plot-thermo"><path clip-path="url('#rr-5EC30098-C7D8-4C61-82CF-3B530B8CBD0F')" d="M7.158014038288234,61.044537815126056L17.194578596916557,61.044537815126056L26.259862714387303,61.25112044817928L36.29642727301563,62.07745098039216L46.00923168459143,62.69719887955183L56.045796243219755,61.66428571428572L65.75860065479554,61.044537815126056L75.79516521342387,61.66428571428572L85.8317297720522,62.07745098039216L95.54453418362799,62.490616246498604L105.58109874225633,62.07745098039216L115.29390315383212,62.90378151260504L125.33046771246045,61.25112044817928L135.36703227108876,61.66428571428572L144.4323163885595,61.66428571428572L154.46888094718784,62.07745098039216L164.18168535876362,62.490616246498604L174.21824991739194,61.25112044817928L183.93105432896775,60.631372549019616L193.96761888759607,60.83795518207283L204.0041834462244,61.044537815126056L213.7169878578002,61.044537815126056L223.75355241642853,61.044537815126056L233.46635682800434,61.25112044817928L243.50292138663266,60.424789915966386L253.53948594526096,60.631372549019616L262.92853020978424,60.01162464985995L272.9650947684126,60.83795518207283L282.67789917998834,59.80504201680672L292.7144637386167,58.358963585434175L302.4272681501925,57.53263305322129L312.4638327088208,57.32605042016807L322.50039726744916,57.53263305322129L332.2132016790249,56.70630252100841L342.24976623765326,55.87997198879552L351.962570649229,54.84705882352941L361.9991352078574,51.54173669467788L372.0356997664857,50.095658263305324L381.1009838839564,48.649579831932776L391.13754844258483,49.06274509803922L400.8503528541606,48.23641456582634L410.88691741278893,46.583753501400565L420.5997218243647,46.37717086834735L430.63628638299303,46.37717086834735L440.67285094162133,46.583753501400565L450.3856553531972,46.583753501400565L460.4222199118255,46.99691876750701L470.1350243234013,47.616666666666674L480.1715888820296,46.79033613445378L490.2081534406579,47.20350140056023L499.2734375581287,46.99691876750701L509.310002116757,48.23641456582634L519.0228065283328,48.856162464986L529.0593710869612,48.23641456582634L538.772175498537,47.82324929971989L548.8087400571652,48.23641456582634L558.8453046157936,49.06274509803922L568.5581090273694,49.269327731092446L578.5946735859977,48.856162464986L588.3074779975735,50.095658263305324L598.3440425562018,49.269327731092446L608.3806071148301,49.88907563025211L617.4458912323009,50.095658263305324L627.4824557909292,50.92198879551821L637.195260202505,51.33515406162465L647.2318247611333,50.095658263305324L656.944629172709,50.095658263305324L666.9811937313375,50.71540616246499L677.0177582899659,51.12857142857143L686.7305627015417,51.54173669467788L696.7671272601699,52.16148459383754L706.4799316717458,52.781232492997205L716.5164962303741,52.36806722689076L726.5530607890023,52.57464985994398L735.9421050535256,52.98781512605042L745.978669612154,54.22731092436975L755.6914740237297,54.22731092436975L765.7280385823582,53.40098039215687L775.4408429939338,52.98781512605042L785.4774075525622,53.81414565826331L795.5139721111906,55.260224089635855L805.2267765227664,55.260224089635855L815.2633410813946,55.6733893557423L824.9761454929703,56.08655462184875L835.0127100515988,55.05364145658264L845.0492746102271,56.08655462184875L854.1145587276978,56.49971988795519L864.1511232863261,57.73921568627451L873.863927697902,57.73921568627451L883.9004922565302,56.70630252100841L893.613296668106,56.49971988795519L903.6498612267344,57.32605042016807L913.6864257853626,57.945798319327736L923.3992301969384,57.945798319327736L933.4357947555668,58.5655462184874L943.1485991671426,59.59845938375351L953.185163725771,58.978711484593845L963.2217282843992,58.978711484593845L972.2870124018701,58.978711484593845L982.3235769604984,60.83795518207283L992.0363813720742,60.631372549019616L1002.0729459307025,60.424789915966386L1011.7857503422783,59.391876750700284L1021.8223149009067,60.01162464985995L1031.858879459535,61.044537815126056L1041.5716838711107,61.044537815126056L1051.608248429739,61.25112044817928L1061.321052841315,62.28403361344538L1071.3576173999431,61.25112044817928L1081.3941819585714,61.87086834733894L1090.4594660760422,62.07745098039216L1100.4960306346704,62.90378151260504L1110.2088350462463,62.90378151260504L1120.2453996048746,62.69719887955183L1129.9582040164505,62.07745098039216L1139.9947685750788,62.69719887955183L1150.031333133707,63.31694677871149L1159.744137545283,62.90378151260504L1169.7807021039112,63.11036414565827L1179.493506515487,63.523529411764706L1189.5300710741153,63.523529411764706L1199.5666356327438,63.523529411764706L1208.955679897267,63.523529411764706L1218.9922444558952,63.93669467787115L1228.705048867471,64.55644257703082L1238.7416134260993,62.90378151260504L1248.4544178376752,62.490616246498604L1258.4909823963035,62.90378151260504L1268.5275469549317,63.523529411764706L1278.2403513665076,63.523529411764706L1288.2769159251359,64.14327731092438L1297.9897203367118,64.55644257703082" fill="none" my_fill="none" my_fill_opacity="1" my_font_size="16px" my_stoke="rgb(93, 98, 181)" my_stoke_opacity="1" my_stoke_width="2px" opacity="1" stroke="#5d62b5" stroke-dasharray="none" stroke-linecap="round" stroke-opacity="1" stroke-width="2" style='font-family: basefontRegular, "Helvetica Neue", Arial, sans-serif;'></path></g><g class="raphael-group-459-line-anchor-thermo"></g></g></g><g class="raphael-group-463-dataset-thermo" clip-path="url('#rr-CB81BEB8-F09B-421A-AC42-6C11218D9D3E')"><g class="raphael-group-465-line-common-thermo"><g class="raphael-group-467-line-plot-thermo"><path clip-path="url('#rr-CFE6CE12-47FE-4111-8030-7F2C418B21A2')" d="M7.158014038288234,50.92198879551821L17.194578596916557,50.92198879551821L26.259862714387303,51.33515406162465L36.29642727301563,52.781232492997205L46.00923168459143,54.02072829131653L56.045796243219755,52.16148459383754L65.75860065479554,51.12857142857143L75.79516521342387,52.16148459383754L85.8317297720522,52.98781512605042L95.54453418362799,53.81414565826331L105.58109874225633,52.98781512605042L115.29390315383212,54.43389355742298L125.33046771246045,51.33515406162465L135.36703227108876,51.95490196078431L144.4323163885595,52.16148459383754L154.46888094718784,52.781232492997205L164.18168535876362,53.607563025210084L174.21824991739194,51.33515406162465L183.93105432896775,50.095658263305324L193.96761888759607,50.71540616246499L204.0041834462244,51.12857142857143L213.7169878578002,51.12857142857143L223.75355241642853,50.92198879551821L233.46635682800434,51.12857142857143L243.50292138663266,49.682492997198885L253.53948594526096,49.88907563025211L262.92853020978424,48.856162464986L272.9650947684126,50.30224089635855L282.67789917998834,48.649579831932776L292.7144637386167,45.9640056022409L302.4272681501925,44.31134453781513L312.4638327088208,43.898179271708685L322.50039726744916,44.31134453781513L332.2132016790249,42.65868347338936L342.24976623765326,41.00602240896359L351.962570649229,38.94019607843138L361.9991352078574,32.74271708683474L372.0356997664857,30.057142857142864L381.1009838839564,27.164985994397767L391.13754844258483,27.991316526610653L400.8503528541606,26.545238095238098L410.88691741278893,23.446498599439785L420.5997218243647,23.03333333333334L430.63628638299303,23.03333333333334L440.67285094162133,23.446498599439785L450.3856553531972,23.446498599439785L460.4222199118255,24.066246498599448L470.1350243234013,24.892577030812333L480.1715888820296,23.653081232493L490.2081534406579,24.27282913165267L499.2734375581287,24.066246498599448L509.310002116757,26.33865546218488L519.0228065283328,27.578151260504207L529.0593710869612,26.33865546218488L538.772175498537,25.718907563025212L548.8087400571652,26.545238095238098L558.8453046157936,27.991316526610653L568.5581090273694,28.404481792717093L578.5946735859977,27.578151260504207L588.3074779975735,29.850560224089648L598.3440425562018,28.197899159663883L608.3806071148301,29.23081232492998L617.4458912323009,29.850560224089648L627.4824557909292,31.503221288515412L637.195260202505,32.122969187675075L647.2318247611333,29.850560224089648L656.944629172709,29.850560224089648L666.9811937313375,31.090056022408973L677.0177582899659,31.91638655462186L686.7305627015417,32.74271708683474L696.7671272601699,33.77563025210084L706.4799316717458,35.01512605042017L716.5164962303741,34.18879551820729L726.5530607890023,34.60196078431373L735.9421050535256,35.2217086834734L745.978669612154,37.70070028011205L755.6914740237297,37.70070028011205L765.7280385823582,36.254621848739504L775.4408429939338,35.42829131652661L785.4774075525622,37.08095238095238L795.5139721111906,39.973109243697486L805.2267765227664,39.76652661064426L815.2633410813946,40.59285714285714L824.9761454929703,41.419187675070035L835.0127100515988,39.35336134453782L845.0492746102271,41.21260504201682L854.1145587276978,42.0389355742297L864.1511232863261,44.51792717086835L873.863927697902,44.51792717086835L883.9004922565302,42.65868347338936L893.613296668106,42.24551820728291L903.6498612267344,43.69159663865547L913.6864257853626,44.931092436974794L923.3992301969384,44.931092436974794L933.4357947555668,46.170588235294126L943.1485991671426,48.02983193277312L953.185163725771,46.79033613445378L963.2217282843992,46.79033613445378L972.2870124018701,46.79033613445378L982.3235769604984,50.50882352941177L992.0363813720742,50.095658263305324L1002.0729459307025,49.682492997198885L1011.7857503422783,47.82324929971989L1021.8223149009067,48.856162464986L1031.858879459535,50.92198879551821L1041.5716838711107,50.92198879551821L1051.608248429739,51.12857142857143L1061.321052841315,53.19439775910365L1071.3576173999431,51.12857142857143L1081.3941819585714,52.36806722689076L1090.4594660760422,52.781232492997205L1100.4960306346704,54.43389355742298L1110.2088350462463,54.22731092436975L1120.2453996048746,54.02072829131653L1129.9582040164505,52.781232492997205L1139.9947685750788,54.02072829131653L1150.031333133707,55.260224089635855L1159.744137545283,54.43389355742298L1169.7807021039112,54.64047619047619L1179.493506515487,55.46680672268908L1189.5300710741153,55.46680672268908L1199.5666356327438,55.6733893557423L1208.955679897267,55.46680672268908L1218.9922444558952,56.293137254901964L1228.705048867471,57.53263305322129L1238.7416134260993,54.43389355742298L1248.4544178376752,53.81414565826331L1258.4909823963035,54.64047619047619L1268.5275469549317,55.6733893557423L1278.2403513665076,55.6733893557423L1288.2769159251359,56.91288515406163L1297.9897203367118,57.53263305322129" fill="none" my_fill="none" my_fill_opacity="1" my_font_size="16px" my_stoke="rgb(41, 195, 190)" my_stoke_opacity="1" my_stoke_width="2px" opacity="1" stroke="#29c3be" stroke-dasharray="none" stroke-linecap="round" stroke-opacity="1" stroke-width="2" style='font-family: basefontRegular, "Helvetica Neue", Arial, sans-serif;'></path></g><g class="raphael-group-468-line-anchor-thermo"></g></g></g></g></g></g><g class="raphael-group-9-chart-exo"><g class="raphael-group-10-toolbar-master"><g class="raphael-group-12-toolbar"><rect fill="rgb(238, 238, 238)" fill-opacity="0" height="0" opacity="1" real_height="0" real_width="0" real_x="391" real_y="247" stroke="rgb(238, 238, 238)" stroke-opacity="0" stroke-width="1px" transform_matrix='{"a":1,"b":0,"c":0,"d":1,"e":391,"f":247}' width="0"></rect></g><g class="raphael-group-364-toolbar"><rect fill="rgb(238, 238, 238)" fill-opacity="0" height="24.4" opacity="1" real_height="24.399993896484375" real_width="1305.147705078125" real_x="490.4122619628906" real_y="309.0820007324219" stroke="rgb(238, 238, 238)" stroke-opacity="0" stroke-width="1px" transform_matrix='{"a":1,"b":0,"c":0,"d":1,"e":391,"f":247}' width="1305.147734375" x="99.412265625" y="62.081999999999994"></rect><path d="M150.4415625,66.282v16" fill="rgb(0, 0, 0)" my_fill="rgb(0, 0, 0)" my_fill_opacity="1" my_font_size="16px" my_stoke="rgb(223, 223, 223)" my_stoke_opacity="1" my_stoke_width="1px" opacity="1" stroke="#dfdfdf" stroke-linecap="round" stroke-width="1" style='font-family: basefontRegular, "Helvetica Neue", Arial, sans-serif;'></path><g class="raphael-group-381-range-selector-text" transform="matrix(1,0,0,1,1249.56,79.282)"><g class="raphael-group-382-range-selector-icon-group" transform="matrix(1,0,0,1,-21,-12)"><path d="M15.604605,2.6231875 C15.3617479,2.39715625 15.0736134,2.284125 14.7409412,2.284125 L13.5126723,2.284125 L13.5126723,1.4275625 C13.5126723,1.0350625 13.3621849,0.69896875 13.0615126,0.41940625 C12.7606723,0.13984375 12.3993613,0 11.9769748,0 L11.3629244,0 C10.9405714,0 10.5791261,0.13984375 10.2784202,0.4194375 C9.97761345,0.69896875 9.8272605,1.03509375 9.8272605,1.42759375 L9.8272605,2.28415625 L6.14221849,2.28415625 L6.14221849,1.42759375 C6.14221849,1.03509375 5.99179832,0.699 5.69105882,0.4194375 C5.39038655,0.13984375 5.02890756,0 4.60655462,0 L3.99240336,0 C3.57015126,0 3.20863866,0.13984375 2.90789916,0.4194375 C2.60722689,0.69896875 2.45677311,1.03509375 2.45677311,1.42759375 L2.45677311,2.28415625 L1.22847059,2.28415625 C0.895697479,2.28415625 0.607831933,2.3971875 0.364705882,2.62321875 C0.121579832,2.84921875 0,3.11696875 0,3.42625 L0,14.8466563 C0,15.1557188 0.121579832,15.4234063 0.364705882,15.6495625 C0.607798319,15.8755312 0.895663866,15.9885937 1.22847059,15.9885937 L14.7407059,15.9885937 C15.0733782,15.9885937 15.3615462,15.8755625 15.6043697,15.6495625 C15.8475294,15.4235 15.9691429,15.1556875 15.9691429,14.8466563 L15.9691429,3.42621875 C15.9691092,3.11684375 15.8476303,2.84921875 15.604605,2.6231875 Z M11.0558319,1.4276875 C11.0558319,1.34434375 11.0843697,1.275875 11.1418824,1.22246875 C11.199395,1.169 11.2730084,1.14221875 11.3627227,1.14221875 L11.9767731,1.14221875 C12.066521,1.14221875 12.1398992,1.16890625 12.1976134,1.22246875 C12.2551597,1.27596875 12.2838992,1.3444375 12.2838992,1.4276875 L12.2838992,3.9971875 C12.2838992,4.0805 12.2551597,4.14884375 12.1976134,4.20240625 C12.1398655,4.2558125 12.066521,4.28265625 11.9767731,4.28265625 L11.3627227,4.28265625 C11.2730084,4.28265625 11.199395,4.2559375 11.1418824,4.20240625 C11.0843697,4.1488125 11.0558319,4.0805 11.0558319,3.9971875 L11.0558319,1.4276875 Z M3.68534454,1.4276875 C3.68534454,1.34434375 3.71408403,1.275875 3.77166387,1.22246875 C3.82927731,1.169 3.90278992,1.14221875 3.99240336,1.14221875 L4.60655462,1.14221875 C4.69620168,1.14221875 4.76984874,1.16890625 4.82729412,1.22246875 C4.88480672,1.27596875 4.91368067,1.3444375 4.91368067,1.4276875 L4.91368067,3.9971875 C4.91368067,4.0805 4.88494118,4.1489375 4.82729412,4.20240625 C4.76971429,4.2558125 4.69620168,4.28265625 4.60655462,4.28265625 L3.99240336,4.28265625 C3.90278992,4.28265625 3.82917647,4.2559375 3.77166387,4.20240625 C3.71421849,4.1488125 3.68534454,4.0805 3.68534454,3.9971875 L3.68534454,1.4276875 Z M14.7407059,14.8465 L1.22847059,14.8465 L1.22847059,5.71025 L14.7407059,5.71025 L14.7407059,14.8465 Z" fill="rgb(86, 72, 212)" my_fill="rgb(86, 72, 212)" my_fill_opacity="1" my_font_size="16px" my_stoke="none" my_stoke_opacity="1" my_stoke_width="1px" opacity="1" stroke="none" style='font-family: basefontRegular, "Helvetica Neue", Arial, sans-serif;' transform="matrix(1,0,0,1,0,0)"></path></g><text content="Jan 01, 2006 - Dec 01, 2016" fill="rgb(86, 72, 212)" font-family="Helvetica, Arial, sans-serif" font-size="12px" font-style="normal" font-weight="600" my_fill="rgb(86, 72, 212)" my_fill_opacity="1" my_font_size="12px" opacity="1" stroke="none" style="font-size: 12px; font-style: normal; font-weight: 600; text-anchor: start; font-family: Helvetica, Arial, sans-serif;" text-anchor="start" text_bbox='{"x":0,"y":-11,"w":153.453125,"h":14}'>Jan 01, 2006 - Dec 01, 2016</text><rect class="fc__crs__str" fill="rgb(192, 192, 192)" fill-opacity="0.000001" height="24.4" opacity="1" real_height="24.399993896484375" real_width="179" real_x="1614.56005859375" real_y="314.0820007324219" stroke="none" stroke-opacity="1" stroke-width="1px" style="cursor: pointer;" transform_matrix='{"a":1,"b":0,"c":0,"d":1,"e":1640.56005859375,"f":326.28199768066406}' width="179" x="-26" y="-12.2"></rect></g></g></g><g class="raphael-group-11-legend-group"><g class="raphael-group-18-legendGroup" transform="matrix(1,0,0,1,93,436)"><rect fill="rgb(255, 255, 255)" fill-opacity="0" filter='url("#rr-drop-shadow-non-layered-1_1_3_rgb_64_64_64_chartobject-1")' height="27" opacity="1" real_height="27" real_width="196" real_x="484" real_y="683" rx="0" ry="0" stroke="rgb(84, 84, 84)" stroke-opacity="1" stroke-width="0px" style="cursor: default;" transform_matrix='{"a":1,"b":0,"c":0,"d":1,"e":484,"f":683}' width="196" x="0" y="0"></rect><g class="raphael-group-20-item" transform="matrix(1,0,0,1,0,0)"><text content="San Jose" fill="rgb(95, 95, 95)" fill-opacity="1" font-family="Helvetica, Arial, sans-serif" font-size="12px" font-style="normal" font-weight="normal" my_fill="rgb(95, 95, 95)" my_fill_opacity="1" my_font_size="12px" opacity="1" stroke="none" style="font-family: Helvetica, Arial, sans-serif; cursor: pointer; font-size: 12px; text-anchor: start; font-weight: normal; font-style: normal;" text-anchor="start" text_bbox='{"x":25,"y":6,"w":50.046875,"h":14}' x="25" y="17">San Jose</text><path d="M18.09619407771256,8.903805922287441L8.903805922287441,8.90380592228744L8.90380592228744,18.09619407771256L18.096194077712557,18.09619407771256Z" fill="rgb(93, 98, 181)" fill-opacity="1" my_fill="rgb(93, 98, 181)" my_fill_opacity="1" my_font_size="16px" my_stoke="rgb(93, 98, 181)" my_stoke_opacity="1" my_stoke_width="1px" opacity="1" stroke="#5d62b5" stroke-opacity="1" stroke-width="1" style='cursor: pointer; font-family: basefontRegular, "Helvetica Neue", Arial, sans-serif;'></path><rect fill="rgb(192, 192, 192)" fill-opacity="0.000001" height="19" opacity="1" real_height="19" real_width="74.033203125" real_x="488" real_y="687" rx="0" ry="0" stroke="none" stroke-opacity="1" stroke-width="1px" style="cursor: pointer;" transform_matrix='{"a":1,"b":0,"c":0,"d":1,"e":484,"f":683}' width="74.033203125" x="4" y="4"></rect><text content="SJ metro area" fill="rgb(95, 95, 95)" fill-opacity="1" font-family="Helvetica, Arial, sans-serif" font-size="12px" font-style="normal" font-weight="normal" my_fill="rgb(95, 95, 95)" my_fill_opacity="1" my_font_size="12px" opacity="1" stroke="none" style="font-family: Helvetica, Arial, sans-serif; cursor: pointer; font-size: 12px; text-anchor: start; font-weight: normal; font-style: normal;" text-anchor="start" text_bbox='{"x":109.96875,"y":6,"w":75.390625,"h":14}' x="109.983203125" y="17">SJ metro area</text><path d="M103.07939720271256,8.903805922287441L93.88700904728745,8.90380592228744L93.88700904728745,18.09619407771256L103.07939720271256,18.09619407771256Z" fill="rgb(41, 195, 190)" fill-opacity="1" my_fill="rgb(41, 195, 190)" my_fill_opacity="1" my_font_size="16px" my_stoke="rgb(41, 195, 190)" my_stoke_opacity="1" my_stoke_width="1px" opacity="1" stroke="#29c3be" stroke-opacity="1" stroke-width="1" style='cursor: pointer; font-family: basefontRegular, "Helvetica Neue", Arial, sans-serif;'></path><rect fill="rgb(192, 192, 192)" fill-opacity="0.000001" height="19" opacity="1" real_height="19" real_width="99.36328125" real_x="572.9832153320312" real_y="687" rx="0" ry="0" stroke="none" stroke-opacity="1" stroke-width="1px" style="cursor: pointer;" transform_matrix='{"a":1,"b":0,"c":0,"d":1,"e":484,"f":683}' width="99.36328125" x="88.983203125" y="4"></rect></g></g></g><g class="raphael-group-78-canvas-exo" transform="matrix(1,0,0,1,101.4123,92.482)"></g><g class="raphael-group-390-timenav-exo" transform="matrix(1,0,0,1,99.4123,344.8)"><g class="raphael-group-436-brush-group"><rect fill='url("#rr-3-270-rgba_253_253_253_0.5__0-rgba_247_255_254_0.5__100")' fill-opacity="0.5" height="60" opacity="1" real_height="60" real_width="1303.147705078125" real_x="491.41229248046875" real_y="605" stroke="none" stroke-opacity="1" stroke-width="1px" style="cursor: move;" transform_matrix='{"a":1,"b":0,"c":0,"d":1,"e":490.4123001098633,"f":591.7999877929688}' width="1303.147734375" x="1" y="13.2"></rect><path d="M1,13.2v60h1303.147734375v-60" fill="none" fill-opacity="0.5" my_fill="none" my_fill_opacity="0.5" my_font_size="16px" my_stoke="rgb(227, 227, 227)" my_stoke_opacity="1" my_stoke_width="1px" opacity="1" stroke="#e3e3e3" stroke-width="1" style='cursor: move; font-family: basefontRegular, "Helvetica Neue", Arial, sans-serif;'></path><rect fill="rgb(223, 223, 223)" height="20" opacity="1" real_height="20" real_width="12" real_x="479.41229248046875" real_y="625" stroke="none" stroke-opacity="1" stroke-width="1px" style="cursor: ew-resize;" transform_matrix='{"a":1,"b":0,"c":0,"d":1,"e":490.4123001098633,"f":591.7999877929688}' width="12" x="-11" y="33.2"></rect><path d="M -7.5,39.2 v 8
               M -4.5,39.2 v 8" fill="rgb(0, 0, 0)" my_fill="rgb(0, 0, 0)" my_fill_opacity="1" my_font_size="16px" my_stoke="rgb(128, 128, 128)" my_stoke_opacity="1" my_stoke_width="1px" opacity="1" stroke="#808080" stroke-linecap="round" stroke-width="1" style='cursor: ew-resize; font-family: basefontRegular, "Helvetica Neue", Arial, sans-serif;'></path><rect fill="rgb(223, 223, 223)" height="20" opacity="1" real_height="20" real_width="12" real_x="1794.56005859375" real_y="625" stroke="none" stroke-opacity="1" stroke-width="1px" style="cursor: ew-resize;" transform_matrix='{"a":1,"b":0,"c":0,"d":1,"e":490.4123001098633,"f":591.7999877929688}' width="12" x="1304.147734375" y="33.2"></rect><path d="M 1307.647734375,39.2 v 8
               M 1310.647734375,39.2 v 8" fill="rgb(0, 0, 0)" my_fill="rgb(0, 0, 0)" my_fill_opacity="1" my_font_size="16px" my_stoke="rgb(128, 128, 128)" my_stoke_opacity="1" my_stoke_width="1px" opacity="1" stroke="#808080" stroke-linecap="round" stroke-width="1" style='cursor: ew-resize; font-family: basefontRegular, "Helvetica Neue", Arial, sans-serif;'></path></g><g class="raphael-group-447-canvas-exo"></g></g></g></g><g class="raphael-group-sCyZnkmn"><g cursor="pointer" fill="#b1b2b7" pointer-events="bounding-box" style="transition:0.5s;" transform="translate(18,472.68)"><path d="M23,11.46V1.87h5.8V3.31h-4.1V6h3.48V7.46H24.71v4Zm7-2.68V4.26h1.69v4.3c0,1.19.34,1.63,1.12,1.63.63,0,1-.3,1.59-1V4.26h1.69v7.2H34.67l-.13-1.05h0a3,3,0,0,1-2.32,1.23C30.64,11.64,30,10.6,30,8.78Zm7.51,1.86.8-1.08a3.23,3.23,0,0,0,2,.8c.78,0,1.14-.36,1.14-.86s-.77-.87-1.54-1.16c-1-.35-2-.9-2-2.1s1-2.15,2.63-2.15A3.94,3.94,0,0,1,42.86,5l-.78,1a2.66,2.66,0,0,0-1.58-.62c-.72,0-1.06.34-1.06.79s.72.8,1.5,1.07c1,.37,2.06.84,2.06,2.19s-1,2.23-2.8,2.23A4.6,4.6,0,0,1,37.47,10.64ZM45.36,3a1,1,0,1,1,1-1A1,1,0,0,1,45.36,3Zm-.85,8.46V4.26H46.2v7.2Zm3.38-3.59a3.44,3.44,0,1,1,6.85,0,3.44,3.44,0,1,1-6.85,0Zm1.73,0c0,1.44.63,2.39,1.69,2.39S53,9.31,53,7.87s-.65-2.41-1.7-2.41S49.62,6.42,49.62,7.87Zm6.79,3.59V4.26H57.8l.12,1H58a3.34,3.34,0,0,1,2.36-1.14c1.54,0,2.21,1,2.21,2.86v4.51H60.87V7.17c0-1.19-.34-1.63-1.13-1.63a2.29,2.29,0,0,0-1.64.89v5ZM64.24,6.7c0-3.14,2-5,4.43-5A3.79,3.79,0,0,1,71.4,2.91L70.46,4a2.42,2.42,0,0,0-1.77-.79C67.12,3.18,66,4.5,66,6.65s1,3.51,2.64,3.51a2.57,2.57,0,0,0,2-1l.94,1.05a3.84,3.84,0,0,1-3,1.39C66.16,11.64,64.24,9.88,64.24,6.7ZM73,11.46V1.11h1.68V3.78l0,1.39A3.3,3.3,0,0,1,77,4.09c1.54,0,2.21,1,2.21,2.86v4.51H77.49V7.17c0-1.19-.34-1.63-1.13-1.63a2.33,2.33,0,0,0-1.65.89v5ZM80.9,9.53c0-1.54,1.29-2.35,4.24-2.67,0-.77-.33-1.41-1.3-1.41a4,4,0,0,0-2,.7L81.2,5a5.64,5.64,0,0,1,3-.93c1.8,0,2.68,1.1,2.68,3.1v4.27H85.45l-.13-.79h0a3.49,3.49,0,0,1-2.22,1A2,2,0,0,1,80.9,9.53Zm1.65-.14c0,.65.42.93,1,.93a2.25,2.25,0,0,0,1.57-.79V7.91C83.19,8.16,82.55,8.68,82.55,9.39Zm6.33,2.07V4.26h1.4l.11,1.28h.06a2.45,2.45,0,0,1,2-1.45,1.86,1.86,0,0,1,.82.14L93,5.7a2.46,2.46,0,0,0-.75-.12c-.57,0-1.26.4-1.7,1.48v4.4ZM94.6,9V5.6h-1V4.33l1.11-.07.21-2h1.4v2h1.84V5.6H96.3V9c0,.85.33,1.26,1,1.26a2,2,0,0,0,.74-.16l.3,1.24a4.43,4.43,0,0,1-1.47.27C95.22,11.64,94.6,10.58,94.6,9Zm4.33,1.61.79-1.08a3.26,3.26,0,0,0,2,.8c.77,0,1.14-.36,1.14-.86s-.78-.87-1.54-1.16c-.95-.35-2-.9-2-2.1s1-2.15,2.62-2.15a3.89,3.89,0,0,1,2.39.86l-.77,1A2.69,2.69,0,0,0,102,5.36c-.72,0-1,.34-1,.79s.71.8,1.49,1.07c1,.37,2.07.84,2.07,2.19s-1,2.23-2.8,2.23A4.58,4.58,0,0,1,98.93,10.64Z" fill="rgb(177, 178, 183)" my_fill="rgb(177, 178, 183)" my_fill_opacity="1" my_font_size="16px" my_stoke="none" my_stoke_opacity="1" my_stoke_width="1px" opacity="1" stroke="" stroke-linecap="" style='font-family: basefontRegular, "Helvetica Neue", Arial, sans-serif;'></path><rect fill="rgb(177, 178, 183)" height="9.76" opacity="1" real_height="9.760009765625" real_width="3.329986572265625" real_x="409" real_y="721.3099975585938" stroke="none" stroke-linecap="" stroke-opacity="1" stroke-width="1px" transform_matrix='{"a":1,"b":0,"c":0,"d":1,"e":409,"f":719.6799926757812}' width="3.33" x="0" y="1.63"></rect><rect fill="rgb(177, 178, 183)" height="4.96" opacity="1" real_height="4.96002197265625" real_width="3.410003662109375" real_x="413.79998779296875" real_y="726.1099853515625" stroke="none" stroke-linecap="" stroke-opacity="1" stroke-width="1px" transform_matrix='{"a":1,"b":0,"c":0,"d":1,"e":409,"f":719.6799926757812}' width="3.41" x="4.8" y="6.43"></rect><path d="M9.76,0L12.93,0L12.93,11.39,L9.76,11.39L9.76,0" fill="rgb(177, 178, 183)" my_fill="rgb(177, 178, 183)" my_fill_opacity="1" my_font_size="16px" my_stoke="none" my_stoke_opacity="1" my_stoke_width="1px" opacity="1" stroke="" stroke-linecap="" style='font-family: basefontRegular, "Helvetica Neue", Arial, sans-serif;'></path><path d="M9.76,12.86L12.93,12.86L12.93,16.19L9.76,16.19L9.76,12.86" fill="rgb(177, 178, 183)" my_fill="rgb(177, 178, 183)" my_fill_opacity="1" my_font_size="16px" my_stoke="none" my_stoke_opacity="1" my_stoke_width="1px" opacity="1" stroke="" stroke-linecap="" style='font-family: basefontRegular, "Helvetica Neue", Arial, sans-serif;'></path><path d="M111.54,4.59h-2.39V3.32h6.28V4.59H113v7h-1.5Z" fill="rgb(177, 178, 183)" my_fill="rgb(177, 178, 183)" my_fill_opacity="1" my_font_size="16px" my_stoke="none" my_stoke_opacity="1" my_stoke_width="1px" opacity="1" stroke="" stroke-linecap="" style='font-family: basefontRegular, "Helvetica Neue", Arial, sans-serif;'></path><path d="M116.11,5.38h1.24l.11,1.11h0a2.15,2.15,0,0,1,1.77-1.27,1.7,1.7,0,0,1,.71.13l-.3,1.28a2.1,2.1,0,0,0-.6-.07c-.49,0-1.09.33-1.46,1.28v3.78h-1.51Z" fill="rgb(177, 178, 183)" my_fill="rgb(177, 178, 183)" my_fill_opacity="1" my_font_size="16px" my_stoke="none" my_stoke_opacity="1" my_stoke_width="1px" opacity="1" stroke="" stroke-linecap="" style='font-family: basefontRegular, "Helvetica Neue", Arial, sans-serif;'></path><path d="M120.75,3.46a.9.9,0,0,1,1.8,0,.9.9,0,0,1-1.8,0Zm.13,1.92h1.51v6.24h-1.51Z" fill="rgb(177, 178, 183)" my_fill="rgb(177, 178, 183)" my_fill_opacity="1" my_font_size="16px" my_stoke="none" my_stoke_opacity="1" my_stoke_width="1px" opacity="1" stroke="" stroke-linecap="" style='font-family: basefontRegular, "Helvetica Neue", Arial, sans-serif;'></path><path d="M123.89,9.94c0-1.37,1.09-2,3.65-2.33,0-.64-.27-1.17-1.11-1.17a3.6,3.6,0,0,0-1.75.58l-.53-1a4.78,4.78,0,0,1,2.56-.82c1.55,0,2.33,1,2.33,2.71v3.69h-1.22l-.12-.69h0a2.93,2.93,0,0,1-1.91.84A1.75,1.75,0,0,1,123.89,9.94Zm3.65,0V8.62c-1.69.21-2.2.59-2.2,1.22s.35.74.86.74A1.85,1.85,0,0,0,127.54,9.94Z" fill="rgb(177, 178, 183)" my_fill="rgb(177, 178, 183)" my_fill_opacity="1" my_font_size="16px" my_stoke="none" my_stoke_opacity="1" my_stoke_width="1px" opacity="1" stroke="" stroke-linecap="" style='font-family: basefontRegular, "Helvetica Neue", Arial, sans-serif;'></path><path d="M130.77,10V2.66h1.51v7.4c0,.36.16.49.31.49a1,1,0,0,0,.23,0l.18,1.1a1.77,1.77,0,0,1-.79.14C131.16,11.77,130.77,11.08,130.77,10Z" fill="rgb(177, 178, 183)" my_fill="rgb(177, 178, 183)" my_fill_opacity="1" my_font_size="16px" my_stoke="none" my_stoke_opacity="1" my_stoke_width="1px" opacity="1" stroke="" stroke-linecap="" style='font-family: basefontRegular, "Helvetica Neue", Arial, sans-serif;'></path></g></g><g class="raphael-group-366-toolbar"><rect fill="rgb(238, 238, 238)" fill-opacity="0" height="19.4" opacity="1" real_height="19.399993896484375" real_width="42.029266357421875" real_x="492.9122619628906" real_y="311.5820007324219" stroke="rgb(238, 238, 238)" stroke-opacity="0" stroke-width="1px" transform_matrix='{"a":1,"b":0,"c":0,"d":1,"e":391,"f":247}' width="42.029296875" x="101.912265625" y="64.582"></rect><g class="raphael-group-368-srs-tool"><rect fill="none" fill-opacity="1" height="18.4" opacity="1" real_height="18.399993896484375" real_width="25.351531982421875" real_x="490.9122619628906" real_y="312.0820007324219" rx="2px" ry="2px" stroke="none" stroke-dasharray="none" stroke-opacity="1" stroke-width="1px" style="cursor: pointer;" transform_matrix='{"a":1,"b":0,"c":0,"d":1,"e":391,"f":247}' width="25.3515625" x="99.912265625" y="65.082"></rect><text content="10Y" fill="rgb(158, 158, 158)" fill-opacity="1" font-family="Helvetica, Arial, sans-serif" font-size="12px" font-weight="400" my_fill="rgb(158, 158, 158)" my_fill_opacity="1" my_font_size="12px" opacity="1" stroke="none" stroke-opacity="1" stroke-width="2" style="cursor: pointer; font-weight: 400; font-size: 12px; text-anchor: middle; font-family: Helvetica, Arial, sans-serif;" text-anchor="middle" text_bbox='{"x":101.90625,"y":67,"w":21.359375,"h":14}' x="112.588046875" y="78">10Y</text></g><g class="raphael-group-371-srs-tool"><rect fill="none" fill-opacity="1" height="18.4" opacity="1" real_height="18.399993896484375" real_width="18.677734375" real_x="518.2637939453125" real_y="312.0820007324219" rx="2px" ry="2px" stroke="none" stroke-dasharray="none" stroke-opacity="1" stroke-width="1px" style="cursor: pointer;" transform_matrix='{"a":1,"b":0,"c":0,"d":1,"e":391,"f":247}' width="18.677734375" x="127.263828125" y="65.082"></rect><text content="5Y" fill="rgb(158, 158, 158)" fill-opacity="1" font-family="Helvetica, Arial, sans-serif" font-size="12px" font-weight="400" my_fill="rgb(158, 158, 158)" my_fill_opacity="1" my_font_size="12px" opacity="1" stroke="none" stroke-opacity="1" stroke-width="2" style="cursor: pointer; font-weight: 400; font-size: 12px; text-anchor: middle; font-family: Helvetica, Arial, sans-serif;" text-anchor="middle" text_bbox='{"x":129.25,"y":67,"w":14.703125,"h":14}' x="136.6026953125" y="78">5Y</text></g></g><g class="raphael-group-375-toolbar"><rect fill="rgb(238, 238, 238)" fill-opacity="0" height="19.4" opacity="1" real_height="19.399993896484375" real_width="13.3359375" real_x="547.9415283203125" real_y="311.5820007324219" stroke="rgb(238, 238, 238)" stroke-opacity="0" stroke-width="1px" transform_matrix='{"a":1,"b":0,"c":0,"d":1,"e":391,"f":247}' width="13.3359375" x="156.9415625" y="64.582"></rect><g class="raphael-group-377-srs-tool"><rect fill="none" fill-opacity="1" height="18.4" opacity="1" real_height="18.399993896484375" real_width="17.3359375" real_x="545.9415283203125" real_y="312.0820007324219" rx="2px" ry="2px" stroke="none" stroke-dasharray="none" stroke-opacity="1" stroke-width="1px" style="cursor: pointer;" transform_matrix='{"a":1,"b":0,"c":0,"d":1,"e":391,"f":247}' width="17.3359375" x="154.9415625" y="65.082"></rect><text content="All" fill="rgb(86, 72, 212)" fill-opacity="1" font-family="Helvetica, Arial, sans-serif" font-size="12px" font-weight="400" my_fill="rgb(86, 72, 212)" my_fill_opacity="1" my_font_size="12px" opacity="1" stroke="none" stroke-opacity="1" stroke-width="2" style="cursor: pointer; font-weight: 400; font-size: 12px; text-anchor: middle; font-family: Helvetica, Arial, sans-serif;" text-anchor="middle" text_bbox='{"x":156.9375,"y":67,"w":13.34375,"h":14}' x="163.60953125" y="78">All</text><path d="M155.9415625, 82.982 h 14.3359375" fill="rgb(0, 0, 0)" my_fill="rgb(0, 0, 0)" my_fill_opacity="1" my_font_size="16px" my_stoke="rgb(86, 72, 212)" my_stoke_opacity="1" my_stoke_width="1px" opacity="1" stroke="#5648d4" stroke-linecap="round" stroke-opacity="1" style='font-family: basefontRegular, "Helvetica Neue", Arial, sans-serif;'></path></g></g><rect fill="rgb(0, 0, 0)" height="30" opacity="1" real_height="0" real_width="0" real_x="0" real_y="0" stroke="none" stroke-opacity="1" stroke-width="1px" style="display: none;" transform_matrix='{"a":1,"b":0,"c":0,"d":1,"e":391,"f":247}' width="10" x="0" y="0"></rect></svg>