<svg font-family="sans-serif" font-size="10" height="935" text-anchor="middle" transform_matrix='{"a":1.0032188841201717,"b":0,"c":0,"d":1.0032188841201717,"e":8,"f":147.875}' viewBox="0,0,932,932" width="935" xmlns="http://www.w3.org/2000/svg"><g transform="translate(413.7901922770225,464.219088319618)"><title>flare/analytics/cluster/AgglomerativeCluster
3,938</title></g><g transform="translate(461.44540259522637,464.219088319618)"><title>flare/analytics/cluster/CommunityStructure
3,812</title></g><g transform="translate(438.03671780957876,513.5103930263028)"><title>flare/analytics/cluster/HierarchicalCluster
6,714</title></g><g transform="translate(437.8859783133436,438.51592161550354)"><title>flare/analytics/cluster/MergeEdge
743</title></g><g transform="translate(411.1345643585577,417.46570069746747)"><title>flare/analytics/graph/BetweennessCentrality
3,534</title></g><g transform="translate(467.9664091341652,412.30624796556964)"><title>flare/analytics/graph/LinkDistance
5,731</title></g><g transform="translate(374.28481640914475,505.7394907344189)"><title>flare/analytics/graph/MaxFlowMinCut
7,840</title></g><g transform="translate(497.14864593197274,503.05387460127594)"><title>flare/analytics/graph/ShortestPaths
5,914</title></g><g transform="translate(431.1290308464438,376.842652773089)"><title>flare/analytics/graph/SpanningTree
3,416</title></g><g transform="translate(362.3628356981003,441.83721646035997)"><title>flare/analytics/optimization/AspectRatioBanker
7,074</title></g><g transform="translate(540.3624142454171,438.72348564120017)"><title>flare/animate/Easing
17,010</title></g><g transform="translate(478.1818394950561,557.9136121345136)"><title>flare/animate/FunctionSequence
5,842</title></g><g transform="translate(403.4195126143536,547.2889855673075)"><title>flare/animate/interpolate/ArrayInterpolator
1,983</title></g><g transform="translate(377.53337680889604,394.8193309044066)"><title>flare/animate/interpolate/ColorInterpolator
2,047</title></g><g transform="translate(395.09695557527175,367.51895097850036)"><title>flare/animate/interpolate/DateInterpolator
1,375</title></g><g transform="translate(309.7718576117397,483.0212731134383)"><title>flare/animate/interpolate/Interpolator
8,746</title></g><g transform="translate(504.352091700423,382.58292216106486)"><title>flare/animate/interpolate/MatrixInterpolator
2,202</title></g><g transform="translate(467.51178943441977,368.8385274929477)"><title>flare/animate/interpolate/NumberInterpolator
1,382</title></g><g transform="translate(433.4725560615521,561.832168382579)"><title>flare/animate/interpolate/ObjectInterpolator
1,629</title></g><g transform="translate(542.4020433418931,503.22715020206465)"><title>flare/animate/interpolate/PointInterpolator
1,675</title></g><g transform="translate(369.52239048958785,556.4998335540608)"><title>flare/animate/interpolate/RectangleInterpolator
2,042</title></g><g transform="translate(516.3807475657662,540.5412989008057)"><title>flare/animate/ISchedulable
1,041</title></g><g transform="translate(332.6891264607141,390.814114850281)"><title>flare/animate/Parallel
5,176</title></g><g transform="translate(489.4911062188762,359.6314082634726)"><title>flare/animate/Pause
449</title></g><g transform="translate(402.0675864458383,593.058832929706)"><title>flare/animate/Scheduler
5,593</title></g><g transform="translate(449.6950202832022,329.70638993284604)"><title>flare/animate/Sequence
5,534</title></g><g transform="translate(460.3155485355369,620.3041187307201)"><title>flare/animate/Transition
9,201</title></g><g transform="translate(578.2554752772742,561.5557817996439)"><title>flare/animate/Transitioner
19,975</title></g><g transform="translate(410.5648492937456,343.94272077151015)"><title>flare/animate/TransitionEvent
1,116</title></g><g transform="translate(359.81605922452707,341.08874824252223)"><title>flare/animate/Tween
6,006</title></g><g transform="translate(333.2968812361581,522.7479427624959)"><title>flare/data/converters/Converters
721</title></g><g transform="translate(326.86715456099216,558.2553453955129)"><title>flare/data/converters/DelimitedTextConverter
4,294</title></g><g transform="translate(275.1482129311288,419.70861547406395)"><title>flare/data/converters/GraphMLConverter
9,800</title></g><g transform="translate(359.678609060818,587.0978890964444)"><title>flare/data/converters/IDataConverter
1,314</title></g><g transform="translate(539.4651072471195,371.96343389545825)"><title>flare/data/converters/JSONConverter
2,220</title></g><g transform="translate(513.9116279389644,586.0038789539562)"><title>flare/data/DataField
1,759</title></g><g transform="translate(581.3753252607821,491.13951727588943)"><title>flare/data/DataSchema
2,165</title></g><g transform="translate(486.4023081690567,340.72426493392845)"><title>flare/data/DataSet
586</title></g><g transform="translate(518.528028327848,337.21231888122605)"><title>flare/data/DataSource
3,331</title></g><g transform="translate(396.5274968808933,323.43939706092317)"><title>flare/data/DataTable
772</title></g><g transform="translate(285.80637145784135,535.0258681685489)"><title>flare/data/DataUtil
3,322</title></g><g transform="translate(411.3073016530535,279.16823474671855)"><title>flare/display/DirtySprite
8,833</title></g><g transform="translate(512.6511490668697,618.8860735079651)"><title>flare/display/LineSprite
1,732</title></g><g transform="translate(580.2533981183832,379.41405056691804)"><title>flare/display/RectSprite
3,623</title></g><g transform="translate(319.7342810150236,620.4049403425745)"><title>flare/display/TextSprite
10,066</title></g><g transform="translate(492.2527467244575,298.593438525652)"><title>flare/flex/FlareVis
4,116</title></g><g transform="translate(596.70901630307,463.7188492948073)"><title>flare/physics/DragForce
1,082</title></g><g transform="translate(317.26748405634385,351.86502489221124)"><title>flare/physics/GravityForce
1,336</title></g><g transform="translate(368.8577718583958,607.4175754208034)"><title>flare/physics/IForce
319</title></g><g transform="translate(397.2525567433652,659.5451687179028)"><title>flare/physics/NBodyForce
10,498</title></g><g transform="translate(561.1915776633467,339.6764694499914)"><title>flare/physics/Particle
2,822</title></g><g transform="translate(265.64829683552273,345.85156125628134)"><title>flare/physics/Simulation
9,983</title></g><g transform="translate(257.43129317448177,472.2168031328564)"><title>flare/physics/Spring
2,213</title></g><g transform="translate(362.59508850259726,295.6789169599536)"><title>flare/physics/SpringForce
1,681</title></g><g transform="translate(599.415361130882,413.34866006495395)"><title>flare/query/AggregateExpression
1,616</title></g><g transform="translate(608.9523417633872,440.55668116809625)"><title>flare/query/And
1,027</title></g><g transform="translate(550.5385396527366,632.5309771300057)"><title>flare/query/Arithmetic
3,891</title></g><g transform="translate(593.1425473692758,346.6134739566754)"><title>flare/query/Average
891</title></g><g transform="translate(619.0730371353875,500.9131796571097)"><title>flare/query/BinaryExpression
2,893</title></g><g transform="translate(240.92965910659575,514.6054532830051)"><title>flare/query/Comparison
5,103</title></g><g transform="translate(338.5851545095246,678.2042372710837)"><title>flare/query/CompositeExpression
3,677</title></g><g transform="translate(620.9200820489677,468.71719340413983)"><title>flare/query/Count
781</title></g><g transform="translate(466.7503269559279,256.6352058727674)"><title>flare/query/DateUtil
4,141</title></g><g transform="translate(291.0858613305417,569.1926991880096)"><title>flare/query/Distinct
933</title></g><g transform="translate(315.99977946622005,305.3738750295442)"><title>flare/query/Expression
5,130</title></g><g transform="translate(539.8184189673135,297.268604547674)"><title>flare/query/ExpressionIterator
3,617</title></g><g transform="translate(584.2807217402312,304.05653545268325)"><title>flare/query/Fn
3,240</title></g><g transform="translate(268.83073990263813,593.0666254245488)"><title>flare/query/If
2,732</title></g><g transform="translate(503.7465911801944,651.7662417087522)"><title>flare/query/IsA
2,039</title></g><g transform="translate(634.93966669653,447.5083031754141)"><title>flare/query/Literal
1,214</title></g><g transform="translate(626.4852922569119,384.8003543907261)"><title>flare/query/Match
3,748</title></g><g transform="translate(342.2256257913714,276.417567060008)"><title>flare/query/Maximum
843</title></g><g transform="translate(623.7145931065619,422.76135451232744)"><title>flare/query/methods/add
593</title></g><g transform="translate(242.42860436902424,450.6212083148953)"><title>flare/query/methods/and
330</title></g><g transform="translate(272.6678525753283,561.6294720362141)"><title>flare/query/methods/average
287</title></g><g transform="translate(442.9625511627355,660.0371892117498)"><title>flare/query/methods/count
277</title></g><g transform="translate(627.7683978454246,527.8829492195016)"><title>flare/query/methods/distinct
292</title></g><g transform="translate(642.3217000686938,414.48754610062406)"><title>flare/query/methods/div
595</title></g><g transform="translate(256.4238707027555,548.5566921449653)"><title>flare/query/methods/eq
594</title></g><g transform="translate(651.5358816025707,431.46585136158836)"><title>flare/query/methods/fn
460</title></g><g transform="translate(640.3803018139279,478.35872143955106)"><title>flare/query/methods/gt
603</title></g><g transform="translate(366.69097954247593,269.4157575873661)"><title>flare/query/methods/gte
625</title></g><g transform="translate(530.9214919523831,661.6725410274003)"><title>flare/query/methods/iff
748</title></g><g transform="translate(516.4025733275845,275.1577213669393)"><title>flare/query/methods/isa
461</title></g><g transform="translate(478.1805429366946,662.8710364011423)"><title>flare/query/methods/lt
597</title></g><g transform="translate(614.7100399207899,353.0938135317255)"><title>flare/query/methods/lte
619</title></g><g transform="translate(258.38195693270023,566.0914662537109)"><title>flare/query/methods/max
283</title></g><g transform="translate(245.9007176484659,386.1316869720836)"><title>flare/query/methods/min
283</title></g><g transform="translate(243.74682888371936,575.9063772277839)"><title>flare/query/methods/mod
591</title></g><g transform="translate(605.6879459563737,328.05205750398864)"><title>flare/query/methods/mul
603</title></g><g transform="translate(229.67612483487534,478.9842636813274)"><title>flare/query/methods/neq
599</title></g><g transform="translate(458.1421668555157,664.6902283115654)"><title>flare/query/methods/not
386</title></g><g transform="translate(650.1959273593626,463.12256109951386)"><title>flare/query/methods/or
323</title></g><g transform="translate(580.1603738781833,621.5598205199401)"><title>flare/query/methods/orderby
307</title></g><g transform="translate(229.55004705818533,436.16966040197764)"><title>flare/query/methods/range
772</title></g><g transform="translate(231.05596617943226,461.2194844338622)"><title>flare/query/methods/select
296</title></g><g transform="translate(498.1333176490683,266.34465180111)"><title>flare/query/methods/stddev
363</title></g><g transform="translate(468.0029403410204,680.5855774152637)"><title>flare/query/methods/sub
600</title></g><g transform="translate(440.43296002371574,674.6468291908902)"><title>flare/query/methods/sum
280</title></g><g transform="translate(634.816005752642,541.4306807124066)"><title>flare/query/methods/update
307</title></g><g transform="translate(640.9414030151609,519.6148462208162)"><title>flare/query/methods/variance
335</title></g><g transform="translate(512.1929006152297,258.9272734295697)"><title>flare/query/methods/where
299</title></g><g transform="translate(647.4942490470728,495.35802084693717)"><title>flare/query/methods/xor
354</title></g><g transform="translate(351.8209073763354,259.8835968952668)"><title>flare/query/methods/_
264</title></g><g transform="translate(449.04012652161117,691.9115687747073)"><title>flare/query/Minimum
843</title></g><g transform="translate(433.84138810985905,233.566769305656)"><title>flare/query/Not
1,554</title></g><g transform="translate(225.9996977348876,412.40000604774366)"><title>flare/query/Or
970</title></g><g transform="translate(190.8406918677132,564.9383941418877)"><title>flare/query/Query
13,896</title></g><g transform="translate(222.73556044432593,384.18099891775347)"><title>flare/query/Range
1,594</title></g><g transform="translate(500.15989743620025,693.8377829234225)"><title>flare/query/StringUtil
4,130</title></g><g transform="translate(213.83258020876164,452.88629926352303)"><title>flare/query/Sum
791</title></g><g transform="translate(276.3809189021654,296.11809760318744)"><title>flare/query/Variable
1,124</title></g><g transform="translate(536.7764395225099,257.30952733415086)"><title>flare/query/Variance
1,876</title></g><g transform="translate(374.788533954626,247.07423791270233)"><title>flare/query/Xor
1,101</title></g><g transform="translate(633.5868128887007,332.0152395542109)"><title>flare/scale/IScaleMap
2,105</title></g><g transform="translate(662.2619689967901,512.5324660840326)"><title>flare/scale/LinearScale
1,316</title></g><g transform="translate(262.24078627049573,634.4019794914368)"><title>flare/scale/LogScale
3,151</title></g><g transform="translate(664.7228275453991,550.4459439482314)"><title>flare/scale/OrdinalScale
3,770</title></g><g transform="translate(572.1797756348607,264.79093993656727)"><title>flare/scale/QuantileScale
2,435</title></g><g transform="translate(194.20656054238333,488.3371526092476)"><title>flare/scale/QuantitativeScale
4,839</title></g><g transform="translate(643.2385127455098,584.2112565077538)"><title>flare/scale/RootScale
1,756</title></g><g transform="translate(203.36217405445507,348.3610703060516)"><title>flare/scale/Scale
4,268</title></g><g transform="translate(317.82347015711247,261.430521418435)"><title>flare/scale/ScaleType
1,821</title></g><g transform="translate(614.5234361212288,634.2483337949651)"><title>flare/scale/TimeScale
5,833</title></g><g transform="translate(173.5468101001357,431.36301659722164)"><title>flare/util/Arrays
8,258</title></g><g transform="translate(508.51047370173063,210.78646797316156)"><title>flare/util/Colors
10,001</title></g><g transform="translate(690.2320484154759,450.6439373836235)"><title>flare/util/Dates
8,217</title></g><g transform="translate(686.5969085563078,359.4768666213)"><title>flare/util/Displays
12,555</title></g><g transform="translate(424.2180972242175,709.8594622012153)"><title>flare/util/Filter
2,324</title></g><g transform="translate(718.4962366536629,518.2052996643904)"><title>flare/util/Geometry
10,993</title></g><g transform="translate(746.8782285668893,409.00146849336863)"><title>flare/util/heap/FibonacciHeap
9,354</title></g><g transform="translate(578.6840798100268,657.9525105764238)"><title>flare/util/heap/HeapNode
1,233</title></g><g transform="translate(530.0287111500434,680.9016773816751)"><title>flare/util/IEvaluable
335</title></g><g transform="translate(550.3689549850902,664.8570154265158)"><title>flare/util/IPredicate
383</title></g><g transform="translate(195.7039938036723,390.8306220404841)"><title>flare/util/IValueProxy
874</title></g><g transform="translate(398.61047939721686,221.39740887639124)"><title>flare/util/math/DenseMatrix
3,165</title></g><g transform="translate(343.85263209130005,233.28006545305098)"><title>flare/util/math/IMatrix
2,815</title></g><g transform="translate(626.9116882501526,292.3384486545739)"><title>flare/util/math/SparseMatrix
3,366</title></g><g transform="translate(278.67128650542725,208.15429035684173)"><title>flare/util/Maths
17,705</title></g><g transform="translate(653.9008677880682,614.1576046210935)"><title>flare/util/Orientation
1,486</title></g><g transform="translate(285.25045485247324,680.782037970157)"><title>flare/util/palette/ColorPalette
6,367</title></g><g transform="translate(235.64946983634812,601.6114716089304)"><title>flare/util/palette/Palette
1,229</title></g><g transform="translate(367.62567676657585,707.1422450307618)"><title>flare/util/palette/ShapePalette
2,059</title></g><g transform="translate(255.20331585259066,271.96113447404923)"><title>flare/util/palette/SizePalette
2,291</title></g><g transform="translate(445.7576698930461,191.34957312419039)"><title>flare/util/Property
5,559</title></g><g transform="translate(469.57240655393963,763.1603791728878)"><title>flare/util/Shapes
19,118</title></g><g transform="translate(565.8776781423359,701.458827680698)"><title>flare/util/Sort
6,887</title></g><g transform="translate(141.21700907854876,509.44296395155436)"><title>flare/util/Stats
6,557</title></g><g transform="translate(572.8659317894615,787.3458973643205)"><title>flare/util/Strings
22,026</title></g><g transform="translate(239.58698507138547,301.08538880021274)"><title>flare/vis/axis/Axes
1,302</title></g><g transform="translate(189.5701854280016,666.7027155445355)"><title>flare/vis/axis/Axis
24,593</title></g><g transform="translate(601.0867797928559,271.94839170367106)"><title>flare/vis/axis/AxisGridLine
652</title></g><g transform="translate(395.17079450111936,713.351104550361)"><title>flare/vis/axis/AxisLabel
636</title></g><g transform="translate(360.8996432577702,184.77418009533346)"><title>flare/vis/axis/CartesianAxes
6,703</title></g><g transform="translate(560.8114550192211,229.32935943211842)"><title>flare/vis/controls/AnchorControl
2,138</title></g><g transform="translate(407.445514543601,156.27402334161388)"><title>flare/vis/controls/ClickControl
3,824</title></g><g transform="translate(674.2245872344033,587.4202845536836)"><title>flare/vis/controls/Control
1,353</title></g><g transform="translate(199.3301567869081,297.5741885273759)"><title>flare/vis/controls/ControlList
4,665</title></g><g transform="translate(613.7214684615107,683.1030504649307)"><title>flare/vis/controls/DragControl
2,649</title></g><g transform="translate(166.87188647943964,375.5605419901633)"><title>flare/vis/controls/ExpandControl
2,832</title></g><g transform="translate(675.8240991676174,291.9501920879933)"><title>flare/vis/controls/HoverControl
4,896</title></g><g transform="translate(339.07911310361055,712.8014522203475)"><title>flare/vis/controls/IControl
763</title></g><g transform="translate(306.73315800076716,734.2100923003054)"><title>flare/vis/controls/PanZoomControl
5,222</title></g><g transform="translate(612.2176391159385,229.43440400275918)"><title>flare/vis/controls/SelectionControl
7,862</title></g><g transform="translate(384.09192218133643,756.9422966921957)"><title>flare/vis/controls/TooltipControl
8,435</title></g><g transform="translate(717.3018662673177,639.6393580957517)"><title>flare/vis/data/Data
20,544</title></g><g transform="translate(234.35968424651398,767.1519850334971)"><title>flare/vis/data/DataList
19,788</title></g><g transform="translate(104.25376072390702,451.6205884017026)"><title>flare/vis/data/DataSprite
10,349</title></g><g transform="translate(331.26817479057945,777.2442397443521)"><title>flare/vis/data/EdgeSprite
3,301</title></g><g transform="translate(696.1264363819971,216.46322676971062)"><title>flare/vis/data/NodeSprite
19,382</title></g><g transform="translate(144.06843229003005,397.2824902591464)"><title>flare/vis/data/render/ArrowType
698</title></g><g transform="translate(659.8469232768584,697.199526720625)"><title>flare/vis/data/render/EdgeRenderer
5,569</title></g><g transform="translate(689.3807872950953,570.3557559007311)"><title>flare/vis/data/render/IRenderer
353</title></g><g transform="translate(739.840699546337,571.7636487734565)"><title>flare/vis/data/render/ShapeRenderer
2,247</title></g><g transform="translate(192.98852214440723,232.2155797878945)"><title>flare/vis/data/ScaleBinding
11,275</title></g><g transform="translate(570.3201904296899,179.4707338775296)"><title>flare/vis/data/Tree
7,147</title></g><g transform="translate(318.61182146042495,131.2664534293698)"><title>flare/vis/data/TreeBuilder
9,930</title></g><g transform="translate(741.0640318953724,464.88033769353893)"><title>flare/vis/events/DataEvent
2,313</title></g><g transform="translate(481.47974947760446,163.51585998516333)"><title>flare/vis/events/SelectionEvent
1,880</title></g><g transform="translate(163.26406389426404,338.90353787018273)"><title>flare/vis/events/TooltipEvent
1,701</title></g><g transform="translate(161.64537012107246,309.2453122964357)"><title>flare/vis/events/VisualizationEvent
1,117</title></g><g transform="translate(680.601296186021,776.2425822878592)"><title>flare/vis/legend/Legend
20,859</title></g><g transform="translate(785.1244134236343,457.9512139315469)"><title>flare/vis/legend/LegendItem
4,614</title></g><g transform="translate(740.3060772420247,299.99559457402466)"><title>flare/vis/legend/LegendRange
10,530</title></g><g transform="translate(121.57030997215747,561.925499004745)"><title>flare/vis/operator/distortion/BifocalDistortion
4,461</title></g><g transform="translate(116.8842303605561,617.2209557514702)"><title>flare/vis/operator/distortion/Distortion
6,314</title></g><g transform="translate(523.0199243206966,152.59274888215134)"><title>flare/vis/operator/distortion/FisheyeDistortion
3,444</title></g><g transform="translate(488.13511542852376,125.35479267664755)"><title>flare/vis/operator/encoder/ColorEncoder
3,179</title></g><g transform="translate(442.12173236166916,123.0297139150315)"><title>flare/vis/operator/encoder/Encoder
4,060</title></g><g transform="translate(772.7348768319932,353.94820215134826)"><title>flare/vis/operator/encoder/PropertyEncoder
4,138</title></g><g transform="translate(116.98332772116731,398.8703144127042)"><title>flare/vis/operator/encoder/ShapeEncoder
1,690</title></g><g transform="translate(134.98076414699636,356.0473700450034)"><title>flare/vis/operator/encoder/SizeEncoder
1,830</title></g><g transform="translate(91.37644740998445,363.53192780282706)"><title>flare/vis/operator/filter/FisheyeTreeFilter
5,219</title></g><g transform="translate(410.8408223199766,806.3227569057415)"><title>flare/vis/operator/filter/GraphDistanceFilter
3,165</title></g><g transform="translate(779.2418559432479,506.21057947483706)"><title>flare/vis/operator/filter/VisibilityFilter
3,509</title></g><g transform="translate(372.6065296834348,141.09695634675415)"><title>flare/vis/operator/IOperator
1,286</title></g><g transform="translate(634.1489910551212,152.71701958393794)"><title>flare/vis/operator/label/Labeler
9,956</title></g><g transform="translate(146.2142590145097,275.2431414025853)"><title>flare/vis/operator/label/RadialLabeler
3,899</title></g><g transform="translate(773.99287780654,550.4310507168807)"><title>flare/vis/operator/label/StackedAreaLabeler
3,202</title></g><g transform="translate(100.74838264559037,305.914203673639)"><title>flare/vis/operator/layout/AxisLayout
6,725</title></g><g transform="translate(87.26023170773982,510.6723878300007)"><title>flare/vis/operator/layout/BundledEdgeRouter
3,727</title></g><g transform="translate(781.2536019952496,237.69963150203685)"><title>flare/vis/operator/layout/CircleLayout
9,317</title></g><g transform="translate(55.38977027697649,566.4821821314496)"><title>flare/vis/operator/layout/CirclePackingLayout
12,003</title></g><g transform="translate(298.24797649094705,812.9043841230377)"><title>flare/vis/operator/layout/DendrogramLayout
4,853</title></g><g transform="translate(379.1582514835632,92.77513021624708)"><title>flare/vis/operator/layout/ForceDirectedLayout
8,411</title></g><g transform="translate(362.91381998308816,814.1670862651479)"><title>flare/vis/operator/layout/IcicleTreeLayout
4,864</title></g><g transform="translate(559.170521376181,127.08635510311035)"><title>flare/vis/operator/layout/IndentedTreeLayout
3,174</title></g><g transform="translate(210.49287348187852,161.30202625813325)"><title>flare/vis/operator/layout/Layout
7,881</title></g><g transform="translate(499.97826816903404,851.5675067795052)"><title>flare/vis/operator/layout/NodeLinkTreeLayout
12,870</title></g><g transform="translate(432.201170443492,79.57158753953536)"><title>flare/vis/operator/layout/PieLayout
2,728</title></g><g transform="translate(805.3328879115447,605.3407570862421)"><title>flare/vis/operator/layout/RadialTreeLayout
12,348</title></g><g transform="translate(699.8355148263034,702.3198283897532)"><title>flare/vis/operator/layout/RandomLayout
870</title></g><g transform="translate(401.59305249832687,863.0530680162058)"><title>flare/vis/operator/layout/StackedAreaLayout
9,121</title></g><g transform="translate(45.244551289720675,406.97813288547866)"><title>flare/vis/operator/layout/TreeMapLayout
9,191</title></g><g transform="translate(262.82289433077136,141.28770274862694)"><title>flare/vis/operator/Operator
2,490</title></g><g transform="translate(451.61449136835927,901.8607213210518)"><title>flare/vis/operator/OperatorList
5,248</title></g><g transform="translate(524.3916240888643,96.3404039170573)"><title>flare/vis/operator/OperatorSequence
4,190</title></g><g transform="translate(802.4165939647457,415.78066652535045)"><title>flare/vis/operator/OperatorSwitch
2,581</title></g><g transform="translate(806.8656159125801,378.7366110400171)"><title>flare/vis/operator/SortOperator
2,023</title></g><g transform="translate(603.2518524466611,73.43928939325843)"><title>flare/vis/Visualization
16,540</title></g></svg>