<svg height="500" transform_matrix='{"a":1,"b":0,"c":0,"d":1,"e":0,"f":0}' version="1.1" viewBox="0 0 960 500" width="960" xmlns="http://www.w3.org/2000/svg" xmlns:xlink="http://www.w3.org/1999/xlink"><g transform="translate(20,20)"><g class="layer" style="fill: rgb(31, 119, 180);"></g><g class="layer" style="fill: rgb(255, 127, 14);"></g><g class="layer" style="fill: rgb(44, 160, 44);"></g><g class="axis axis--x" transform="translate(0,450)"><g class="tick" style="opacity: 1;" transform="translate(19.5,0)"></g><g class="tick" style="opacity: 1;" transform="translate(56.5,0)"></g><g class="tick" style="opacity: 1;" transform="translate(93.5,0)"></g><g class="tick" style="opacity: 1;" transform="translate(130.5,0)"></g><g class="tick" style="opacity: 1;" transform="translate(167.5,0)"></g><g class="tick" style="opacity: 1;" transform="translate(204.5,0)"></g><g class="tick" style="opacity: 1;" transform="translate(241.5,0)"></g><g class="tick" style="opacity: 1;" transform="translate(278.5,0)"></g><g class="tick" style="opacity: 1;" transform="translate(315.5,0)"></g><g class="tick" style="opacity: 1;" transform="translate(352.5,0)"></g><g class="tick" style="opacity: 1;" transform="translate(389.5,0)"></g><g class="tick" style="opacity: 1;" transform="translate(426.5,0)"></g><g class="tick" style="opacity: 1;" transform="translate(463.5,0)"></g><g class="tick" style="opacity: 1;" transform="translate(500.5,0)"></g><g class="tick" style="opacity: 1;" transform="translate(537.5,0)"></g><g class="tick" style="opacity: 1;" transform="translate(574.5,0)"></g><g class="tick" style="opacity: 1;" transform="translate(611.5,0)"></g><g class="tick" style="opacity: 1;" transform="translate(648.5,0)"></g><g class="tick" style="opacity: 1;" transform="translate(685.5,0)"></g><g class="tick" style="opacity: 1;" transform="translate(722.5,0)"></g><g class="tick" style="opacity: 1;" transform="translate(759.5,0)"></g><g class="tick" style="opacity: 1;" transform="translate(796.5,0)"></g><g class="tick" style="opacity: 1;" transform="translate(833.5,0)"></g><g class="tick" style="opacity: 1;" transform="translate(870.5,0)"></g></g><g class="axis axis--y" transform="translate(890,0)"><g class="tick" style="opacity: 1;" transform="translate(0,450)"></g><g class="tick" style="opacity: 1;" transform="translate(0,386)"></g><g class="tick" style="opacity: 1;" transform="translate(0,321)"></g><g class="tick" style="opacity: 1;" transform="translate(0,257)"></g><g class="tick" style="opacity: 1;" transform="translate(0,193)"></g><g class="tick" style="opacity: 1;" transform="translate(0,129)"></g><g class="tick" style="opacity: 1;" transform="translate(0,64)"></g><g class="tick" style="opacity: 1;" transform="translate(0,0)"></g></g></g></svg>