<svg baseProfile="full" height="773" style="user-select: none; position: absolute; left: 0px; top: 0px;" transform_matrix='{"a":1,"b":0,"c":0,"d":1,"e":0,"f":0}' version="1.1" width="910" xmlns="http://www.w3.org/2000/svg" xmlns:xlink="http://www.w3.org/1999/xlink"><g><path d="M 65.3293 730.5 L 873.6 730.5" fill="none" my_fill="none" my_fill_opacity="1" my_font_size="16px" my_stoke="rgb(224, 230, 241)" my_stoke_opacity="1" my_stoke_width="1px" opacity="1" paint-order="fill" stroke="#E0E6F1" stroke-dasharray="" stroke-linecap="butt" stroke-miterlimit="10" stroke-opacity="1" stroke-width="1"></path><path d="M 65.3293 596.5 L 873.6 596.5" fill="none" my_fill="none" my_fill_opacity="1" my_font_size="16px" my_stoke="rgb(224, 230, 241)" my_stoke_opacity="1" my_stoke_width="1px" opacity="1" paint-order="fill" stroke="#E0E6F1" stroke-dasharray="" stroke-linecap="butt" stroke-miterlimit="10" stroke-opacity="1" stroke-width="1"></path><path d="M 65.3293 462.5 L 873.6 462.5" fill="none" my_fill="none" my_fill_opacity="1" my_font_size="16px" my_stoke="rgb(224, 230, 241)" my_stoke_opacity="1" my_stoke_width="1px" opacity="1" paint-order="fill" stroke="#E0E6F1" stroke-dasharray="" stroke-linecap="butt" stroke-miterlimit="10" stroke-opacity="1" stroke-width="1"></path><path d="M 65.3293 328.5 L 873.6 328.5" fill="none" my_fill="none" my_fill_opacity="1" my_font_size="16px" my_stoke="rgb(224, 230, 241)" my_stoke_opacity="1" my_stoke_width="1px" opacity="1" paint-order="fill" stroke="#E0E6F1" stroke-dasharray="" stroke-linecap="butt" stroke-miterlimit="10" stroke-opacity="1" stroke-width="1"></path><path d="M 65.3293 194.5 L 873.6 194.5" fill="none" my_fill="none" my_fill_opacity="1" my_font_size="16px" my_stoke="rgb(224, 230, 241)" my_stoke_opacity="1" my_stoke_width="1px" opacity="1" paint-order="fill" stroke="#E0E6F1" stroke-dasharray="" stroke-linecap="butt" stroke-miterlimit="10" stroke-opacity="1" stroke-width="1"></path><path d="M 65.3293 60.5 L 873.6 60.5" fill="none" my_fill="none" my_fill_opacity="1" my_font_size="16px" my_stoke="rgb(224, 230, 241)" my_stoke_opacity="1" my_stoke_width="1px" opacity="1" paint-order="fill" stroke="#E0E6F1" stroke-dasharray="" stroke-linecap="butt" stroke-miterlimit="10" stroke-opacity="1" stroke-width="1"></path><path d="M 65.3293 730.5 L 873.6 730.5" fill="none" my_fill="none" my_fill_opacity="1" my_font_size="16px" my_stoke="rgb(110, 112, 121)" my_stoke_opacity="1" my_stoke_width="1px" opacity="1" paint-order="fill" stroke="#6E7079" stroke-dasharray="" stroke-linecap="round" stroke-miterlimit="10" stroke-opacity="1" stroke-width="1"></path><path d="M 65.5 729.81 L 65.5 734.81" fill="none" my_fill="none" my_fill_opacity="1" my_font_size="16px" my_stoke="rgb(110, 112, 121)" my_stoke_opacity="1" my_stoke_width="1px" opacity="1" paint-order="fill" stroke="#6E7079" stroke-dasharray="" stroke-linecap="butt" stroke-miterlimit="10" stroke-opacity="1" stroke-width="1"></path><path d="M 200.5 729.81 L 200.5 734.81" fill="none" my_fill="none" my_fill_opacity="1" my_font_size="16px" my_stoke="rgb(110, 112, 121)" my_stoke_opacity="1" my_stoke_width="1px" opacity="1" paint-order="fill" stroke="#6E7079" stroke-dasharray="" stroke-linecap="butt" stroke-miterlimit="10" stroke-opacity="1" stroke-width="1"></path><path d="M 335.5 729.81 L 335.5 734.81" fill="none" my_fill="none" my_fill_opacity="1" my_font_size="16px" my_stoke="rgb(110, 112, 121)" my_stoke_opacity="1" my_stoke_width="1px" opacity="1" paint-order="fill" stroke="#6E7079" stroke-dasharray="" stroke-linecap="butt" stroke-miterlimit="10" stroke-opacity="1" stroke-width="1"></path><path d="M 469.5 729.81 L 469.5 734.81" fill="none" my_fill="none" my_fill_opacity="1" my_font_size="16px" my_stoke="rgb(110, 112, 121)" my_stoke_opacity="1" my_stoke_width="1px" opacity="1" paint-order="fill" stroke="#6E7079" stroke-dasharray="" stroke-linecap="butt" stroke-miterlimit="10" stroke-opacity="1" stroke-width="1"></path><path d="M 604.5 729.81 L 604.5 734.81" fill="none" my_fill="none" my_fill_opacity="1" my_font_size="16px" my_stoke="rgb(110, 112, 121)" my_stoke_opacity="1" my_stoke_width="1px" opacity="1" paint-order="fill" stroke="#6E7079" stroke-dasharray="" stroke-linecap="butt" stroke-miterlimit="10" stroke-opacity="1" stroke-width="1"></path><path d="M 739.5 729.81 L 739.5 734.81" fill="none" my_fill="none" my_fill_opacity="1" my_font_size="16px" my_stoke="rgb(110, 112, 121)" my_stoke_opacity="1" my_stoke_width="1px" opacity="1" paint-order="fill" stroke="#6E7079" stroke-dasharray="" stroke-linecap="butt" stroke-miterlimit="10" stroke-opacity="1" stroke-width="1"></path><path d="M 873.5 729.81 L 873.5 734.81" fill="none" my_fill="none" my_fill_opacity="1" my_font_size="16px" my_stoke="rgb(110, 112, 121)" my_stoke_opacity="1" my_stoke_width="1px" opacity="1" paint-order="fill" stroke="#6E7079" stroke-dasharray="" stroke-linecap="butt" stroke-miterlimit="10" stroke-opacity="1" stroke-width="1"></path><text clip-path="none" content="周一" dominant-baseline="central" fill="rgb(110, 112, 121)" fill-opacity="1" font-family='"Microsoft YaHei"' my_fill="rgb(110, 112, 121)" my_fill_opacity="1" my_font_size="12px" my_stoke="none" my_stoke_opacity="1" my_stoke_width="1px" opacity="1" stroke="none" stroke-opacity="1" stroke-width="1px" style='font: 12px "Microsoft YaHei"; fill: rgb(110, 112, 121);' text-anchor="middle" text_bbox='{"x":-13,"y":-2,"w":26,"h":16}' transform="matrix(1,0,0,1,65.3293,737.81)" x="0" xml:space="preserve" y="6">周一</text><text clip-path="none" content="周二" dominant-baseline="central" fill="rgb(110, 112, 121)" fill-opacity="1" font-family='"Microsoft YaHei"' my_fill="rgb(110, 112, 121)" my_fill_opacity="1" my_font_size="12px" my_stoke="none" my_stoke_opacity="1" my_stoke_width="1px" opacity="1" stroke="none" stroke-opacity="1" stroke-width="1px" style='font: 12px "Microsoft YaHei"; fill: rgb(110, 112, 121);' text-anchor="middle" text_bbox='{"x":-13,"y":-2,"w":25,"h":16}' transform="matrix(1,0,0,1,200.0411,737.81)" x="0" xml:space="preserve" y="6">周二</text><text clip-path="none" content="周三" dominant-baseline="central" fill="rgb(110, 112, 121)" fill-opacity="1" font-family='"Microsoft YaHei"' my_fill="rgb(110, 112, 121)" my_fill_opacity="1" my_font_size="12px" my_stoke="none" my_stoke_opacity="1" my_stoke_width="1px" opacity="1" stroke="none" stroke-opacity="1" stroke-width="1px" style='font: 12px "Microsoft YaHei"; fill: rgb(110, 112, 121);' text-anchor="middle" text_bbox='{"x":-13,"y":-2,"w":25,"h":16}' transform="matrix(1,0,0,1,334.7529,737.81)" x="0" xml:space="preserve" y="6">周三</text><text clip-path="none" content="周四" dominant-baseline="central" fill="rgb(110, 112, 121)" fill-opacity="1" font-family='"Microsoft YaHei"' my_fill="rgb(110, 112, 121)" my_fill_opacity="1" my_font_size="12px" my_stoke="none" my_stoke_opacity="1" my_stoke_width="1px" opacity="1" stroke="none" stroke-opacity="1" stroke-width="1px" style='font: 12px "Microsoft YaHei"; fill: rgb(110, 112, 121);' text-anchor="middle" text_bbox='{"x":-13,"y":-2,"w":25,"h":16}' transform="matrix(1,0,0,1,469.4646,737.81)" x="0" xml:space="preserve" y="6">周四</text><text clip-path="none" content="周五" dominant-baseline="central" fill="rgb(110, 112, 121)" fill-opacity="1" font-family='"Microsoft YaHei"' my_fill="rgb(110, 112, 121)" my_fill_opacity="1" my_font_size="12px" my_stoke="none" my_stoke_opacity="1" my_stoke_width="1px" opacity="1" stroke="none" stroke-opacity="1" stroke-width="1px" style='font: 12px "Microsoft YaHei"; fill: rgb(110, 112, 121);' text-anchor="middle" text_bbox='{"x":-13,"y":-2,"w":25,"h":16}' transform="matrix(1,0,0,1,604.1764,737.81)" x="0" xml:space="preserve" y="6">周五</text><text clip-path="none" content="周六" dominant-baseline="central" fill="rgb(110, 112, 121)" fill-opacity="1" font-family='"Microsoft YaHei"' my_fill="rgb(110, 112, 121)" my_fill_opacity="1" my_font_size="12px" my_stoke="none" my_stoke_opacity="1" my_stoke_width="1px" opacity="1" stroke="none" stroke-opacity="1" stroke-width="1px" style='font: 12px "Microsoft YaHei"; fill: rgb(110, 112, 121);' text-anchor="middle" text_bbox='{"x":-13,"y":-2,"w":26,"h":16}' transform="matrix(1,0,0,1,738.8882,737.81)" x="0" xml:space="preserve" y="6">周六</text><text clip-path="none" content="周日" dominant-baseline="central" fill="rgb(110, 112, 121)" fill-opacity="1" font-family='"Microsoft YaHei"' my_fill="rgb(110, 112, 121)" my_fill_opacity="1" my_font_size="12px" my_stoke="none" my_stoke_opacity="1" my_stoke_width="1px" opacity="1" stroke="none" stroke-opacity="1" stroke-width="1px" style='font: 12px "Microsoft YaHei"; fill: rgb(110, 112, 121);' text-anchor="middle" text_bbox='{"x":-13,"y":-2,"w":25,"h":16}' transform="matrix(1,0,0,1,873.6,737.81)" x="0" xml:space="preserve" y="6">周日</text><g clip-path="url(#zr2454-clip-0)"><path d="M 65.3293 667.2944 C 65.3293 667.2944 134.0964 626.2127 200.0411 626.2127 C 268.8082 626.2127 268.8011 684.7095 334.7529 684.7095 C 403.5129 684.7095 402.6314 611.9235 469.4647 611.9235 C 537.3432 611.9235 540.7835 689.6214 604.1765 689.6214 C 675.4953 689.6214 664.194 577.9864 738.8882 577.9864 C 798.9057 577.9864 873.6 618.175 873.6 618.175 L 873.6 729.81 L 738.8882 729.81 L 604.1765 729.81 L 469.4647 729.81 L 334.7529 729.81 L 200.0411 729.81 L 65.3293 729.81 Z" fill='url("#zr2454-gradient-0")' fill-opacity="0.8" my_fill='url("#zr2454-gradient-0")' my_fill_opacity="0.8" my_font_size="16px" my_stoke="none" my_stoke_opacity="1" my_stoke_width="1px" opacity="1" stroke="none"></path></g><g clip-path="url(#zr2454-clip-1)"><path d="M 65.3293 613.7096 C 65.3293 613.7096 135.3506 500.2885 200.0411 500.2885 C 270.0623 500.2885 266.5044 635.1435 334.7529 635.1435 C 401.2161 635.1435 396.8475 507.4331 469.4647 507.4331 C 531.5593 507.4331 546.6819 591.3826 604.1765 591.3826 C 681.3936 591.3826 658.7064 426.1628 738.8882 426.1628 C 793.4182 426.1628 873.6 479.7476 873.6 479.7476 L 873.6 618.175 C 873.6 618.175 798.9057 577.9864 738.8882 577.9864 C 664.194 577.9864 675.4953 689.6214 604.1765 689.6214 C 540.7835 689.6214 537.3432 611.9235 469.4647 611.9235 C 402.6314 611.9235 403.5129 684.7095 334.7529 684.7095 C 268.8011 684.7095 268.8082 626.2127 200.0411 626.2127 C 134.0964 626.2127 65.3293 667.2944 65.3293 667.2944 Z" fill='url("#zr2454-gradient-1")' fill-opacity="0.8" my_fill='url("#zr2454-gradient-1")' my_fill_opacity="0.8" my_font_size="16px" my_stoke="none" my_stoke_opacity="1" my_stoke_width="1px" opacity="1" stroke="none"></path></g><g clip-path="url(#zr2454-clip-2)"><path d="M 65.3293 470.8168 C 65.3293 470.8168 139.7495 441.3452 200.0411 441.3452 C 274.4613 441.3452 277.538 545.389 334.7529 545.389 C 412.2497 545.389 397.3819 358.2887 469.4647 358.2887 C 532.0937 358.2887 535.5953 506.54 604.1765 506.54 C 670.3071 506.54 659.6862 368.1126 738.8882 368.1126 C 794.398 368.1126 873.6 381.5088 873.6 381.5088 L 873.6 479.7476 C 873.6 479.7476 793.4182 426.1628 738.8882 426.1628 C 658.7064 426.1628 681.3936 591.3826 604.1765 591.3826 C 546.6819 591.3826 531.5593 507.4331 469.4647 507.4331 C 396.8475 507.4331 401.2161 635.1435 334.7529 635.1435 C 266.5044 635.1435 270.0623 500.2885 200.0411 500.2885 C 135.3506 500.2885 65.3293 613.7096 65.3293 613.7096 Z" fill='url("#zr2454-gradient-2")' fill-opacity="0.8" my_fill='url("#zr2454-gradient-2")' my_fill_opacity="0.8" my_font_size="16px" my_stoke="none" my_stoke_opacity="1" my_stoke_width="1px" opacity="1" stroke="none"></path></g><g clip-path="url(#zr2454-clip-3)"><path d="M 65.3293 372.578 C 65.3293 372.578 141.2428 261.8361 200.0411 261.8361 C 275.9546 261.8361 262.9111 442.2383 334.7529 442.2383 C 397.6229 442.2383 399.5451 298.4524 469.4647 298.4524 C 534.2568 298.4524 540.9338 421.6974 604.1765 421.6974 C 675.6456 421.6974 660.5566 265.4084 738.8882 265.4084 C 795.2683 265.4084 873.6 327.924 873.6 327.924 L 873.6 381.5088 C 873.6 381.5088 794.398 368.1126 738.8882 368.1126 C 659.6862 368.1126 670.3071 506.54 604.1765 506.54 C 535.5953 506.54 532.0937 358.2887 469.4647 358.2887 C 397.3819 358.2887 412.2497 545.389 334.7529 545.389 C 277.538 545.389 274.4613 441.3452 200.0411 441.3452 C 139.7495 441.3452 65.3293 470.8168 65.3293 470.8168 Z" fill='url("#zr2454-gradient-3")' fill-opacity="0.8" my_fill='url("#zr2454-gradient-3")' my_fill_opacity="0.8" my_font_size="16px" my_stoke="none" my_stoke_opacity="1" my_stoke_width="1px" opacity="1" stroke="none"></path></g><g clip-path="url(#zr2454-clip-4)"><path d="M 65.3293 274.3392 C 65.3293 274.3392 142.8205 126.981 200.0411 126.981 C 277.5322 126.981 259.6982 361.4145 334.7529 361.4145 C 394.41 361.4145 397.9614 193.962 469.4647 193.962 C 532.6731 193.962 543.8924 327.924 604.1765 327.924 C 678.6042 327.924 663.3596 135.9118 738.8882 135.9118 C 798.0713 135.9118 873.6 260.943 873.6 260.943 L 873.6 327.924 C 873.6 327.924 795.2683 265.4084 738.8882 265.4084 C 660.5566 265.4084 675.6456 421.6974 604.1765 421.6974 C 540.9338 421.6974 534.2568 298.4524 469.4647 298.4524 C 399.5451 298.4524 397.6229 442.2383 334.7529 442.2383 C 262.9111 442.2383 275.9546 261.8361 200.0411 261.8361 C 141.2428 261.8361 65.3293 372.578 65.3293 372.578 Z" fill='url("#zr2454-gradient-4")' fill-opacity="0.8" my_fill='url("#zr2454-gradient-4")' my_fill_opacity="0.8" my_font_size="16px" my_stoke="none" my_stoke_opacity="1" my_stoke_width="1px" opacity="1" stroke="none"></path></g><g clip-path="url(#zr2454-clip-0)"></g><g clip-path="url(#zr2454-clip-1)"></g><g clip-path="url(#zr2454-clip-2)"></g><g clip-path="url(#zr2454-clip-3)"></g><g clip-path="url(#zr2454-clip-4)"></g><path d="M -5 -5 L 365.7129 -5 L 365.7129 18.2 L -5 18.2 L -5 -5 Z" fill="rgb(0, 0, 0)" fill-opacity="0" my_fill="rgb(0, 0, 0)" my_fill_opacity="0" my_font_size="16px" my_stoke="rgb(204, 204, 204)" my_stoke_opacity="1" my_stoke_width="0px" opacity="1" paint-order="fill" stroke="#ccc" stroke-dasharray="" stroke-linecap="butt" stroke-miterlimit="10" stroke-opacity="1" stroke-width="0" transform="matrix(1,0,0,1,274.6436,5)"></path><path d="M 0 7 L 25 7" fill="rgb(0, 0, 0)" fill-opacity="1" my_fill="rgb(0, 0, 0)" my_fill_opacity="1" my_font_size="16px" my_stoke="rgb(128, 255, 165)" my_stoke_opacity="1" my_stoke_width="0px" opacity="1" paint-order="fill" stroke="#80FFA5" stroke-dasharray="" stroke-opacity="1" stroke-width="0" transform="matrix(1,0,0,1,274.6436,4.6)"></path><path d="M 18.1 7 A 5.6 5.6 0 1 1 18.1 6.9994" fill="rgb(255, 255, 255)" fill-opacity="1" my_fill="rgb(255, 255, 255)" my_fill_opacity="1" my_font_size="16px" my_stoke="rgb(128, 255, 165)" my_stoke_opacity="1" my_stoke_width="2px" opacity="1" paint-order="fill" stroke="#80FFA5" stroke-dasharray="" stroke-opacity="1" stroke-width="2" transform="matrix(1,0,0,1,274.6436,4.6)"></path><text clip-path="none" content="Line 1" dominant-baseline="central" fill="rgb(51, 51, 51)" fill-opacity="1" font-family='"Microsoft YaHei"' my_fill="rgb(51, 51, 51)" my_fill_opacity="1" my_font_size="12px" my_stoke="none" my_stoke_opacity="1" my_stoke_width="1px" opacity="1" stroke="none" stroke-opacity="1" stroke-width="1px" style='font: 12px "Microsoft YaHei"; fill: rgb(51, 51, 51);' text-anchor="start" text_bbox='{"x":30,"y":-1,"w":34.15625,"h":16}' transform="matrix(1,0,0,1,274.6436,4.6)" x="30" xml:space="preserve" y="7">Line 1</text><path d="M 0 7 L 25 7" fill="rgb(0, 0, 0)" fill-opacity="1" my_fill="rgb(0, 0, 0)" my_fill_opacity="1" my_font_size="16px" my_stoke="rgb(0, 221, 255)" my_stoke_opacity="1" my_stoke_width="0px" opacity="1" paint-order="fill" stroke="#00DDFF" stroke-dasharray="" stroke-opacity="1" stroke-width="0" transform="matrix(1,0,0,1,348.7861,4.6)"></path><path d="M 18.1 7 A 5.6 5.6 0 1 1 18.1 6.9994" fill="rgb(255, 255, 255)" fill-opacity="1" my_fill="rgb(255, 255, 255)" my_fill_opacity="1" my_font_size="16px" my_stoke="rgb(0, 221, 255)" my_stoke_opacity="1" my_stoke_width="2px" opacity="1" paint-order="fill" stroke="#00DDFF" stroke-dasharray="" stroke-opacity="1" stroke-width="2" transform="matrix(1,0,0,1,348.7861,4.6)"></path><text clip-path="none" content="Line 2" dominant-baseline="central" fill="rgb(51, 51, 51)" fill-opacity="1" font-family='"Microsoft YaHei"' my_fill="rgb(51, 51, 51)" my_fill_opacity="1" my_font_size="12px" my_stoke="none" my_stoke_opacity="1" my_stoke_width="1px" opacity="1" stroke="none" stroke-opacity="1" stroke-width="1px" style='font: 12px "Microsoft YaHei"; fill: rgb(51, 51, 51);' text-anchor="start" text_bbox='{"x":30,"y":-1,"w":34.15625,"h":16}' transform="matrix(1,0,0,1,348.7861,4.6)" x="30" xml:space="preserve" y="7">Line 2</text><path d="M 0 7 L 25 7" fill="rgb(0, 0, 0)" fill-opacity="1" my_fill="rgb(0, 0, 0)" my_fill_opacity="1" my_font_size="16px" my_stoke="rgb(55, 162, 255)" my_stoke_opacity="1" my_stoke_width="0px" opacity="1" paint-order="fill" stroke="#37A2FF" stroke-dasharray="" stroke-opacity="1" stroke-width="0" transform="matrix(1,0,0,1,422.9287,4.6)"></path><path d="M 18.1 7 A 5.6 5.6 0 1 1 18.1 6.9994" fill="rgb(255, 255, 255)" fill-opacity="1" my_fill="rgb(255, 255, 255)" my_fill_opacity="1" my_font_size="16px" my_stoke="rgb(55, 162, 255)" my_stoke_opacity="1" my_stoke_width="2px" opacity="1" paint-order="fill" stroke="#37A2FF" stroke-dasharray="" stroke-opacity="1" stroke-width="2" transform="matrix(1,0,0,1,422.9287,4.6)"></path><text clip-path="none" content="Line 3" dominant-baseline="central" fill="rgb(51, 51, 51)" fill-opacity="1" font-family='"Microsoft YaHei"' my_fill="rgb(51, 51, 51)" my_fill_opacity="1" my_font_size="12px" my_stoke="none" my_stoke_opacity="1" my_stoke_width="1px" opacity="1" stroke="none" stroke-opacity="1" stroke-width="1px" style='font: 12px "Microsoft YaHei"; fill: rgb(51, 51, 51);' text-anchor="start" text_bbox='{"x":30,"y":-1,"w":34.15625,"h":16}' transform="matrix(1,0,0,1,422.9287,4.6)" x="30" xml:space="preserve" y="7">Line 3</text><path d="M 0 7 L 25 7" fill="rgb(0, 0, 0)" fill-opacity="1" my_fill="rgb(0, 0, 0)" my_fill_opacity="1" my_font_size="16px" my_stoke="rgb(255, 0, 135)" my_stoke_opacity="1" my_stoke_width="0px" opacity="1" paint-order="fill" stroke="#FF0087" stroke-dasharray="" stroke-opacity="1" stroke-width="0" transform="matrix(1,0,0,1,497.0713,4.6)"></path><path d="M 18.1 7 A 5.6 5.6 0 1 1 18.1 6.9994" fill="rgb(255, 255, 255)" fill-opacity="1" my_fill="rgb(255, 255, 255)" my_fill_opacity="1" my_font_size="16px" my_stoke="rgb(255, 0, 135)" my_stoke_opacity="1" my_stoke_width="2px" opacity="1" paint-order="fill" stroke="#FF0087" stroke-dasharray="" stroke-opacity="1" stroke-width="2" transform="matrix(1,0,0,1,497.0713,4.6)"></path><text clip-path="none" content="Line 4" dominant-baseline="central" fill="rgb(51, 51, 51)" fill-opacity="1" font-family='"Microsoft YaHei"' my_fill="rgb(51, 51, 51)" my_fill_opacity="1" my_font_size="12px" my_stoke="none" my_stoke_opacity="1" my_stoke_width="1px" opacity="1" stroke="none" stroke-opacity="1" stroke-width="1px" style='font: 12px "Microsoft YaHei"; fill: rgb(51, 51, 51);' text-anchor="start" text_bbox='{"x":30,"y":-1,"w":35.109375,"h":16}' transform="matrix(1,0,0,1,497.0713,4.6)" x="30" xml:space="preserve" y="7">Line 4</text><path d="M 0 7 L 25 7" fill="rgb(0, 0, 0)" fill-opacity="1" my_fill="rgb(0, 0, 0)" my_fill_opacity="1" my_font_size="16px" my_stoke="rgb(255, 191, 0)" my_stoke_opacity="1" my_stoke_width="0px" opacity="1" paint-order="fill" stroke="#FFBF00" stroke-dasharray="" stroke-opacity="1" stroke-width="0" transform="matrix(1,0,0,1,571.2139,4.6)"></path><path d="M 18.1 7 A 5.6 5.6 0 1 1 18.1 6.9994" fill="rgb(255, 255, 255)" fill-opacity="1" my_fill="rgb(255, 255, 255)" my_fill_opacity="1" my_font_size="16px" my_stoke="rgb(255, 191, 0)" my_stoke_opacity="1" my_stoke_width="2px" opacity="1" paint-order="fill" stroke="#FFBF00" stroke-dasharray="" stroke-opacity="1" stroke-width="2" transform="matrix(1,0,0,1,571.2139,4.6)"></path><text clip-path="none" content="Line 5" dominant-baseline="central" fill="rgb(51, 51, 51)" fill-opacity="1" font-family='"Microsoft YaHei"' my_fill="rgb(51, 51, 51)" my_fill_opacity="1" my_font_size="12px" my_stoke="none" my_stoke_opacity="1" my_stoke_width="1px" opacity="1" stroke="none" stroke-opacity="1" stroke-width="1px" style='font: 12px "Microsoft YaHei"; fill: rgb(51, 51, 51);' text-anchor="start" text_bbox='{"x":30,"y":-1,"w":34.15625,"h":16}' transform="matrix(1,0,0,1,571.2139,4.6)" x="30" xml:space="preserve" y="7">Line 5</text><path d="M -13.9784 -15 L 13.9784 -15 L 13.9784 15 L -13.9784 15 L -13.9784 -15 Z" fill="none" fill-opacity="1" my_fill="none" my_fill_opacity="1" my_font_size="16px" my_stoke="rgb(204, 204, 204)" my_stoke_opacity="1" my_stoke_width="0px" opacity="1" paint-order="fill" stroke="#ccc" stroke-dasharray="" stroke-linecap="butt" stroke-miterlimit="10" stroke-opacity="1" stroke-width="0" transform="matrix(1,0,0,1,896.0216,15)"></path><path d="M -5 -5 L 131 -5 L 131 23 L -5 23 L -5 -5 Z" fill="rgb(0, 0, 0)" fill-opacity="0" my_fill="rgb(0, 0, 0)" my_fill_opacity="0" my_font_size="16px" my_stoke="rgb(204, 204, 204)" my_stoke_opacity="1" my_stoke_width="0px" opacity="1" paint-order="fill" stroke="#ccc" stroke-dasharray="" stroke-linecap="butt" stroke-miterlimit="10" stroke-opacity="1" stroke-width="0" transform="matrix(1,0,0,1,5,5)"></path><text clip-path="none" content="渐变堆叠面积图" dominant-baseline="central" fill="rgb(70, 70, 70)" fill-opacity="1" font-family='"Microsoft YaHei"' my_fill="rgb(70, 70, 70)" my_fill_opacity="1" my_font_size="18px" my_stoke="none" my_stoke_opacity="1" my_stoke_width="1px" opacity="1" stroke="none" stroke-opacity="1" stroke-width="1px" style='font: bold 18px "Microsoft YaHei"; fill: rgb(70, 70, 70);' text-anchor="start" text_bbox='{"x":-1,"y":-3,"w":127,"h":24}' transform="matrix(1,0,0,1,5,5)" x="0" xml:space="preserve" y="9">渐变堆叠面积图</text></g></svg>