<svg baseProfile="full" height="773" style="user-select: none; position: absolute; left: 0px; top: 0px;" transform_matrix='{"a":1,"b":0,"c":0,"d":1,"e":0,"f":0}' version="1.1" width="910" xmlns="http://www.w3.org/2000/svg" xmlns:xlink="http://www.w3.org/1999/xlink"><g><path d="M 764.2 386.5 A 309.2 309.2 0 1 1 764.2 386.4691" fill="none" my_fill="none" my_fill_opacity="1" my_font_size="16px" my_stoke="rgb(110, 112, 121)" my_stoke_opacity="1" my_stoke_width="1px" opacity="1" paint-order="fill" stroke="#6E7079" stroke-dasharray="" stroke-linecap="butt" stroke-miterlimit="10" stroke-opacity="1" stroke-width="1"></path><path d="M 455 162.33 A 224.17 224.17 0 0 1 662.1061 300.7139 L 604.9734 324.379 A 162.33 162.33 0 0 0 455 224.17 Z" fill="rgb(84, 112, 198)" fill-opacity="1" my_fill="rgb(84, 112, 198)" my_fill_opacity="1" my_font_size="16px" my_stoke="none" my_stoke_opacity="1" my_stoke_width="1px" opacity="1" stroke="none"></path><path d="M 662.1061 300.7139 A 224.17 224.17 0 0 1 369.2139 593.6061 L 392.879 536.4734 A 162.33 162.33 0 0 0 604.9734 324.379 Z" fill="rgb(145, 204, 117)" fill-opacity="1" my_fill="rgb(145, 204, 117)" my_fill_opacity="1" my_font_size="16px" my_stoke="none" my_stoke_opacity="1" my_stoke_width="1px" opacity="1" stroke="none"></path><path d="M 756.47 386.5 A 301.47 301.47 0 1 1 153.53 386.5 L 215.37 386.5 A 239.63 239.63 0 0 0 694.63 386.5 Z" fill="rgb(145, 204, 117)" fill-opacity="1" my_fill="rgb(145, 204, 117)" my_fill_opacity="1" my_font_size="16px" my_stoke="none" my_stoke_opacity="1" my_stoke_width="1px" opacity="1" stroke="none"></path><path d="M 519.2743 359.8767 A 69.57 69.57 0 0 1 524.57 386.5 L 462.73 386.5 A 7.73 7.73 0 0 0 462.1416 383.5419 Z" fill="rgb(250, 200, 88)" fill-opacity="1" my_fill="rgb(250, 200, 88)" my_fill_opacity="1" my_font_size="16px" my_stoke="none" my_stoke_opacity="1" my_stoke_width="1px" opacity="1" stroke="none"></path><path d="M -5 -5 L 139 -5 L 139 19 L -5 19 L -5 -5 Z" fill="rgb(0, 0, 0)" fill-opacity="0" my_fill="rgb(0, 0, 0)" my_fill_opacity="0" my_font_size="16px" my_stoke="rgb(204, 204, 204)" my_stoke_opacity="1" my_stoke_width="0px" opacity="1" paint-order="fill" stroke="#ccc" stroke-dasharray="" stroke-linecap="butt" stroke-miterlimit="10" stroke-opacity="1" stroke-width="0" transform="matrix(1,0,0,1,388,5)"></path><path d="M 455.5 386.5 L 455.5 77.3" fill="none" my_fill="none" my_fill_opacity="1" my_font_size="16px" my_stoke="rgb(110, 112, 121)" my_stoke_opacity="1" my_stoke_width="1px" opacity="1" paint-order="fill" stroke="#6E7079" stroke-dasharray="" stroke-linecap="round" stroke-miterlimit="10" stroke-opacity="1" stroke-width="1"></path><path d="M 455 386.5 L 450 386.5" fill="none" my_fill="none" my_fill_opacity="1" my_font_size="16px" my_stoke="rgb(110, 112, 121)" my_stoke_opacity="1" my_stoke_width="1px" opacity="1" paint-order="fill" stroke="#6E7079" stroke-dasharray="" stroke-linecap="butt" stroke-miterlimit="10" stroke-opacity="1" stroke-width="1"></path><path d="M 455 309.5 L 450 309.5" fill="none" my_fill="none" my_fill_opacity="1" my_font_size="16px" my_stoke="rgb(110, 112, 121)" my_stoke_opacity="1" my_stoke_width="1px" opacity="1" paint-order="fill" stroke="#6E7079" stroke-dasharray="" stroke-linecap="butt" stroke-miterlimit="10" stroke-opacity="1" stroke-width="1"></path><path d="M 455 232.5 L 450 232.5" fill="none" my_fill="none" my_fill_opacity="1" my_font_size="16px" my_stoke="rgb(110, 112, 121)" my_stoke_opacity="1" my_stoke_width="1px" opacity="1" paint-order="fill" stroke="#6E7079" stroke-dasharray="" stroke-linecap="butt" stroke-miterlimit="10" stroke-opacity="1" stroke-width="1"></path><path d="M 455 154.5 L 450 154.5" fill="none" my_fill="none" my_fill_opacity="1" my_font_size="16px" my_stoke="rgb(110, 112, 121)" my_stoke_opacity="1" my_stoke_width="1px" opacity="1" paint-order="fill" stroke="#6E7079" stroke-dasharray="" stroke-linecap="butt" stroke-miterlimit="10" stroke-opacity="1" stroke-width="1"></path><path d="M 455 77.5 L 450 77.5" fill="none" my_fill="none" my_fill_opacity="1" my_font_size="16px" my_stoke="rgb(110, 112, 121)" my_stoke_opacity="1" my_stoke_width="1px" opacity="1" paint-order="fill" stroke="#6E7079" stroke-dasharray="" stroke-linecap="butt" stroke-miterlimit="10" stroke-opacity="1" stroke-width="1"></path></g></svg>