<svg baseProfile="full" height="773" style="user-select: none; position: absolute; left: 0px; top: 0px;" transform_matrix='{"a":1,"b":0,"c":0,"d":1,"e":0,"f":0}' version="1.1" width="910" xmlns="http://www.w3.org/2000/svg" xmlns:xlink="http://www.w3.org/1999/xlink"><g><path d="M 91 703.5 L 819 703.5" fill="none" my_fill="none" my_fill_opacity="1" my_font_size="16px" my_stoke="rgb(224, 230, 241)" my_stoke_opacity="1" my_stoke_width="1px" opacity="1" paint-order="fill" stroke="#E0E6F1" stroke-dasharray="" stroke-linecap="butt" stroke-miterlimit="10" stroke-opacity="1" stroke-width="1"></path><path d="M 91 574.5 L 819 574.5" fill="none" my_fill="none" my_fill_opacity="1" my_font_size="16px" my_stoke="rgb(224, 230, 241)" my_stoke_opacity="1" my_stoke_width="1px" opacity="1" paint-order="fill" stroke="#E0E6F1" stroke-dasharray="" stroke-linecap="butt" stroke-miterlimit="10" stroke-opacity="1" stroke-width="1"></path><path d="M 91 446.5 L 819 446.5" fill="none" my_fill="none" my_fill_opacity="1" my_font_size="16px" my_stoke="rgb(224, 230, 241)" my_stoke_opacity="1" my_stoke_width="1px" opacity="1" paint-order="fill" stroke="#E0E6F1" stroke-dasharray="" stroke-linecap="butt" stroke-miterlimit="10" stroke-opacity="1" stroke-width="1"></path><path d="M 91 317.5 L 819 317.5" fill="none" my_fill="none" my_fill_opacity="1" my_font_size="16px" my_stoke="rgb(224, 230, 241)" my_stoke_opacity="1" my_stoke_width="1px" opacity="1" paint-order="fill" stroke="#E0E6F1" stroke-dasharray="" stroke-linecap="butt" stroke-miterlimit="10" stroke-opacity="1" stroke-width="1"></path><path d="M 91 188.5 L 819 188.5" fill="none" my_fill="none" my_fill_opacity="1" my_font_size="16px" my_stoke="rgb(224, 230, 241)" my_stoke_opacity="1" my_stoke_width="1px" opacity="1" paint-order="fill" stroke="#E0E6F1" stroke-dasharray="" stroke-linecap="butt" stroke-miterlimit="10" stroke-opacity="1" stroke-width="1"></path><path d="M 91 60.5 L 819 60.5" fill="none" my_fill="none" my_fill_opacity="1" my_font_size="16px" my_stoke="rgb(224, 230, 241)" my_stoke_opacity="1" my_stoke_width="1px" opacity="1" paint-order="fill" stroke="#E0E6F1" stroke-dasharray="" stroke-linecap="butt" stroke-miterlimit="10" stroke-opacity="1" stroke-width="1"></path><path d="M 96.642 703 L 121.758 703 L 121.758 420.08 L 96.642 420.08 L 96.642 703 Z" fill='url("#zr2441-gradient-0")' fill-opacity="1" my_fill='url("#zr2441-gradient-0")' my_fill_opacity="1" my_font_size="16px" my_stoke="none" my_stoke_opacity="1" my_stoke_width="1px" opacity="1" stroke="none"></path><path d="M 133.042 703 L 158.158 703 L 158.158 468.948 L 133.042 468.948 L 133.042 703 Z" fill='url("#zr2441-gradient-0")' fill-opacity="1" my_fill='url("#zr2441-gradient-0")' my_fill_opacity="1" my_font_size="16px" my_stoke="none" my_stoke_opacity="1" my_stoke_width="1px" opacity="1" stroke="none"></path><path d="M 169.442 703 L 194.558 703 L 194.558 457.374 L 169.442 457.374 L 169.442 703 Z" fill='url("#zr2441-gradient-0")' fill-opacity="1" my_fill='url("#zr2441-gradient-0")' my_fill_opacity="1" my_font_size="16px" my_stoke="none" my_stoke_opacity="1" my_stoke_width="1px" opacity="1" stroke="none"></path><path d="M 205.842 703 L 230.958 703 L 230.958 402.076 L 205.842 402.076 L 205.842 703 Z" fill='url("#zr2441-gradient-0")' fill-opacity="1" my_fill='url("#zr2441-gradient-0")' my_fill_opacity="1" my_font_size="16px" my_stoke="none" my_stoke_opacity="1" my_stoke_width="1px" opacity="1" stroke="none"></path><path d="M 242.242 703 L 267.358 703 L 267.358 330.06 L 242.242 330.06 L 242.242 703 Z" fill='url("#zr2441-gradient-0")' fill-opacity="1" my_fill='url("#zr2441-gradient-0")' my_fill_opacity="1" my_font_size="16px" my_stoke="none" my_stoke_opacity="1" my_stoke_width="1px" opacity="1" stroke="none"></path><path d="M 278.642 703 L 303.758 703 L 303.758 278.62 L 278.642 278.62 L 278.642 703 Z" fill='url("#zr2441-gradient-0")' fill-opacity="1" my_fill='url("#zr2441-gradient-0")' my_fill_opacity="1" my_font_size="16px" my_stoke="none" my_stoke_opacity="1" my_stoke_width="1px" opacity="1" stroke="none"></path><path d="M 315.042 703 L 340.158 703 L 340.158 304.34 L 315.042 304.34 L 315.042 703 Z" fill='url("#zr2441-gradient-0")' fill-opacity="1" my_fill='url("#zr2441-gradient-0")' my_fill_opacity="1" my_font_size="16px" my_stoke="none" my_stoke_opacity="1" my_stoke_width="1px" opacity="1" stroke="none"></path><path d="M 351.442 703 L 376.558 703 L 376.558 544.822 L 351.442 544.822 L 351.442 703 Z" fill='url("#zr2441-gradient-0")' fill-opacity="1" my_fill='url("#zr2441-gradient-0")' my_fill_opacity="1" my_font_size="16px" my_stoke="none" my_stoke_opacity="1" my_stoke_width="1px" opacity="1" stroke="none"></path><path d="M 387.842 703 L 412.958 703 L 412.958 134.588 L 387.842 134.588 L 387.842 703 Z" fill='url("#zr2441-gradient-0")' fill-opacity="1" my_fill='url("#zr2441-gradient-0")' my_fill_opacity="1" my_font_size="16px" my_stoke="none" my_stoke_opacity="1" my_stoke_width="1px" opacity="1" stroke="none"></path><path d="M 424.242 703 L 449.358 703 L 449.358 290.194 L 424.242 290.194 L 424.242 703 Z" fill='url("#zr2441-gradient-0")' fill-opacity="1" my_fill='url("#zr2441-gradient-0")' my_fill_opacity="1" my_font_size="16px" my_stoke="none" my_stoke_opacity="1" my_stoke_width="1px" opacity="1" stroke="none"></path><path d="M 460.642 703 L 485.758 703 L 485.758 587.26 L 460.642 587.26 L 460.642 703 Z" fill='url("#zr2441-gradient-0")' fill-opacity="1" my_fill='url("#zr2441-gradient-0")' my_fill_opacity="1" my_font_size="16px" my_stoke="none" my_stoke_opacity="1" my_stoke_width="1px" opacity="1" stroke="none"></path><path d="M 497.042 703 L 522.158 703 L 522.158 511.386 L 497.042 511.386 L 497.042 703 Z" fill='url("#zr2441-gradient-0")' fill-opacity="1" my_fill='url("#zr2441-gradient-0")' my_fill_opacity="1" my_font_size="16px" my_stoke="none" my_stoke_opacity="1" my_stoke_width="1px" opacity="1" stroke="none"></path><path d="M 533.442 703 L 558.558 703 L 558.558 432.94 L 533.442 432.94 L 533.442 703 Z" fill='url("#zr2441-gradient-0")' fill-opacity="1" my_fill='url("#zr2441-gradient-0")' my_fill_opacity="1" my_font_size="16px" my_stoke="none" my_stoke_opacity="1" my_stoke_width="1px" opacity="1" stroke="none"></path><path d="M 569.842 703 L 594.958 703 L 594.958 546.108 L 569.842 546.108 L 569.842 703 Z" fill='url("#zr2441-gradient-0")' fill-opacity="1" my_fill='url("#zr2441-gradient-0")' my_fill_opacity="1" my_font_size="16px" my_stoke="none" my_stoke_opacity="1" my_stoke_width="1px" opacity="1" stroke="none"></path><path d="M 606.242 703 L 631.358 703 L 631.358 531.962 L 606.242 531.962 L 606.242 703 Z" fill='url("#zr2441-gradient-0")' fill-opacity="1" my_fill='url("#zr2441-gradient-0")' my_fill_opacity="1" my_font_size="16px" my_stoke="none" my_stoke_opacity="1" my_stoke_width="1px" opacity="1" stroke="none"></path><path d="M 642.642 703 L 667.758 703 L 667.758 273.476 L 642.642 273.476 L 642.642 703 Z" fill='url("#zr2441-gradient-0")' fill-opacity="1" my_fill='url("#zr2441-gradient-0")' my_fill_opacity="1" my_font_size="16px" my_stoke="none" my_stoke_opacity="1" my_stoke_width="1px" opacity="1" stroke="none"></path><path d="M 679.042 703 L 704.158 703 L 704.158 448.372 L 679.042 448.372 L 679.042 703 Z" fill='url("#zr2441-gradient-0")' fill-opacity="1" my_fill='url("#zr2441-gradient-0")' my_fill_opacity="1" my_font_size="16px" my_stoke="none" my_stoke_opacity="1" my_stoke_width="1px" opacity="1" stroke="none"></path><path d="M 715.442 703 L 740.558 703 L 740.558 544.822 L 715.442 544.822 L 715.442 703 Z" fill='url("#zr2441-gradient-0")' fill-opacity="1" my_fill='url("#zr2441-gradient-0")' my_fill_opacity="1" my_font_size="16px" my_stoke="none" my_stoke_opacity="1" my_stoke_width="1px" opacity="1" stroke="none"></path><path d="M 751.842 703 L 776.958 703 L 776.958 542.25 L 751.842 542.25 L 751.842 703 Z" fill='url("#zr2441-gradient-0")' fill-opacity="1" my_fill='url("#zr2441-gradient-0")' my_fill_opacity="1" my_font_size="16px" my_stoke="none" my_stoke_opacity="1" my_stoke_width="1px" opacity="1" stroke="none"></path><path d="M 788.242 703 L 813.358 703 L 813.358 420.08 L 788.242 420.08 L 788.242 703 Z" fill='url("#zr2441-gradient-0")' fill-opacity="1" my_fill='url("#zr2441-gradient-0")' my_fill_opacity="1" my_font_size="16px" my_stoke="none" my_stoke_opacity="1" my_stoke_width="1px" opacity="1" stroke="none"></path><path d="M -5 -5 L 307.8887 -5 L 307.8887 45 L -5 45 L -5 -5 Z" fill="rgb(0, 0, 0)" fill-opacity="0" my_fill="rgb(0, 0, 0)" my_fill_opacity="0" my_font_size="16px" my_stoke="rgb(204, 204, 204)" my_stoke_opacity="1" my_stoke_width="0px" opacity="1" paint-order="fill" stroke="#ccc" stroke-dasharray="" stroke-linecap="butt" stroke-miterlimit="10" stroke-opacity="1" stroke-width="0" transform="matrix(1,0,0,1,5,5)"></path><text clip-path="none" content="特性示例：渐变色 阴影 点击缩放" dominant-baseline="central" fill="rgb(70, 70, 70)" fill-opacity="1" font-family='"Microsoft YaHei"' my_fill="rgb(70, 70, 70)" my_fill_opacity="1" my_font_size="18px" my_stoke="none" my_stoke_opacity="1" my_stoke_width="1px" opacity="1" stroke="none" stroke-opacity="1" stroke-width="1px" style='font: bold 18px "Microsoft YaHei"; fill: rgb(70, 70, 70);' text-anchor="start" text_bbox='{"x":-1,"y":-3,"w":264.734375,"h":24}' transform="matrix(1,0,0,1,5,5)" x="0" xml:space="preserve" y="9">特性示例：渐变色 阴影 点击缩放</text><text clip-path="none" content="Feature Sample: Gradient Color, Shadow, Click Zoom" dominant-baseline="central" fill="rgb(110, 112, 121)" fill-opacity="1" font-family='"Microsoft YaHei"' my_fill="rgb(110, 112, 121)" my_fill_opacity="1" my_font_size="12px" my_stoke="none" my_stoke_opacity="1" my_stoke_width="1px" opacity="1" stroke="none" stroke-opacity="1" stroke-width="1px" style='font: 12px "Microsoft YaHei"; fill: rgb(110, 112, 121);' text-anchor="start" text_bbox='{"x":0,"y":26,"w":302.890625,"h":16}' transform="matrix(1,0,0,1,5,5)" x="0" xml:space="preserve" y="34">Feature Sample: Gradient Color, Shadow, Click Zoom</text></g></svg>