<svg baseProfile="full" height="773" style="user-select: none; position: absolute; left: 0px; top: 0px;" transform_matrix='{"a":1,"b":0,"c":0,"d":1,"e":0,"f":0}' version="1.1" width="910" xmlns="http://www.w3.org/2000/svg" xmlns:xlink="http://www.w3.org/1999/xlink"><g><path d="M -5 -5 L 101.0059 -5 L 101.0059 19 L -5 19 L -5 -5 Z" fill="rgb(0, 0, 0)" fill-opacity="0" my_fill="rgb(0, 0, 0)" my_fill_opacity="0" my_font_size="16px" my_stoke="rgb(204, 204, 204)" my_stoke_opacity="1" my_stoke_width="0px" opacity="1" paint-order="fill" stroke="#ccc" stroke-dasharray="" stroke-linecap="butt" stroke-miterlimit="10" stroke-opacity="1" stroke-width="0" transform="matrix(1,0,0,1,406.9971,5)"></path><g clip-path="url(#zr2806-clip-0)"><path d="M 0 0 L 20 0 L 20 140 L 0 140 Z" fill='url("#zr2806-gradient-0")' fill-opacity="1" my_fill='url("#zr2806-gradient-0")' my_fill_opacity="1" my_font_size="16px" my_stoke="none" my_stoke_opacity="1" my_stoke_width="1px" opacity="1" stroke="none" transform="matrix(1,0,0,-1,8,456.5)"></path><path d="M 0 0 L 20 0 L 20 140 L 0 140 Z" fill='url("#zr2806-gradient-1")' fill-opacity="1" my_fill='url("#zr2806-gradient-1")' my_fill_opacity="1" my_font_size="16px" my_stoke="none" my_stoke_opacity="1" my_stoke_width="1px" opacity="1" stroke="none" transform="matrix(1,0,0,-1,8,456.5)"></path></g><path d="M 3.5 0 L 21.5 0 A 3.5 3.5 0 0 1 25 3.5 L 25 10.5 A 3.5 3.5 0 0 1 21.5 14 L 3.5 14 A 3.5 3.5 0 0 1 0 10.5 L 0 3.5 A 3.5 3.5 0 0 1 3.5 0" fill="rgb(209, 74, 97)" fill-opacity="1" my_fill="rgb(209, 74, 97)" my_fill_opacity="1" my_font_size="16px" my_stoke="none" my_stoke_opacity="1" my_stoke_width="1px" opacity="1" stroke="none" transform="matrix(1,0,0,1,406.9971,5)"></path><path d="M 455.5 386.5 L 455.5 77.3" fill="none" my_fill="none" my_fill_opacity="1" my_font_size="16px" my_stoke="rgb(110, 112, 121)" my_stoke_opacity="1" my_stoke_width="1px" opacity="1" paint-order="fill" stroke="#6E7079" stroke-dasharray="" stroke-linecap="round" stroke-miterlimit="10" stroke-opacity="1" stroke-width="1"></path><path d="M 455 386.5 L 450 386.5" fill="none" my_fill="none" my_fill_opacity="1" my_font_size="16px" my_stoke="rgb(110, 112, 121)" my_stoke_opacity="1" my_stoke_width="1px" opacity="1" paint-order="fill" stroke="#6E7079" stroke-dasharray="" stroke-linecap="butt" stroke-miterlimit="10" stroke-opacity="1" stroke-width="1"></path><path d="M 455 298.5 L 450 298.5" fill="none" my_fill="none" my_fill_opacity="1" my_font_size="16px" my_stoke="rgb(110, 112, 121)" my_stoke_opacity="1" my_stoke_width="1px" opacity="1" paint-order="fill" stroke="#6E7079" stroke-dasharray="" stroke-linecap="butt" stroke-miterlimit="10" stroke-opacity="1" stroke-width="1"></path><path d="M 455 210.5 L 450 210.5" fill="none" my_fill="none" my_fill_opacity="1" my_font_size="16px" my_stoke="rgb(110, 112, 121)" my_stoke_opacity="1" my_stoke_width="1px" opacity="1" paint-order="fill" stroke="#6E7079" stroke-dasharray="" stroke-linecap="butt" stroke-miterlimit="10" stroke-opacity="1" stroke-width="1"></path><path d="M 455 121.5 L 450 121.5" fill="none" my_fill="none" my_fill_opacity="1" my_font_size="16px" my_stoke="rgb(110, 112, 121)" my_stoke_opacity="1" my_stoke_width="1px" opacity="1" paint-order="fill" stroke="#6E7079" stroke-dasharray="" stroke-linecap="butt" stroke-miterlimit="10" stroke-opacity="1" stroke-width="1"></path><path d="M 455 77.5 L 450 77.5" fill="none" my_fill="none" my_fill_opacity="1" my_font_size="16px" my_stoke="rgb(110, 112, 121)" my_stoke_opacity="1" my_stoke_width="1px" opacity="1" paint-order="fill" stroke="#6E7079" stroke-dasharray="" stroke-linecap="butt" stroke-miterlimit="10" stroke-opacity="1" stroke-width="1"></path></g></svg>