<svg baseProfile="full" height="773" style="user-select: none; position: absolute; left: 0px; top: 0px;" transform_matrix='{"a":1,"b":0,"c":0,"d":1,"e":0,"f":0}' version="1.1" width="910" xmlns="http://www.w3.org/2000/svg" xmlns:xlink="http://www.w3.org/1999/xlink"><g><g clip-path="url(#zr2639-clip-0)"><path d="M 357.2947 -3.9786 C 355.354 0.4851 353.7914 5.4351 350.3951 9.0254 C 346.3195 12.2276 341.2781 8.1489 336.8145 9.7015 C 334.0974 10.2837 330.9862 12.4304 328.4633 10.1986 C 325.066 8.5489 325.1785 4.4753 324.2081 1.3702 C 321.6842 5.7368 320.3214 10.7822 320.7086 15.9251 C 319.3045 15.9057 317.9026 15.7913 316.5131 15.6467 C 316.351 15.6302 316.1979 15.6045 316.0359 15.5871 C 315.8738 15.5696 315.7008 15.5657 315.5388 15.5473 C 315.3787 15.5289 315.2217 15.509 315.0616 15.4877 C 310.5513 14.9016 306.0979 13.8067 301.64 12.684 C 301.5391 12.6588 301.4427 12.6307 301.3418 12.6045 C 301.2263 12.5754 301.1003 12.5342 300.9839 12.5051 C 300.7743 12.4517 300.5771 12.3994 300.3675 12.346 C 293.4682 10.612 286.5402 8.9802 279.3702 9.3237 C 266.6584 10.294 254.1452 13.6908 242.3068 18.2515 C 238.7281 19.6682 235.0354 20.6697 231.2713 21.3733 C 231.0472 21.415 230.8194 21.4528 230.5952 21.4926 C 230.3701 21.5323 230.1453 21.575 229.9192 21.6119 C 229.697 21.6487 229.4663 21.6962 229.2431 21.7312 C 228.7764 21.8039 228.32 21.865 227.8513 21.93 C 217.0793 22.8033 206.689 26.1056 195.9179 26.1056 C 192.7283 26.1056 189.5395 26.1299 186.3538 26.1056 C 186.1481 26.1046 185.9431 26.0876 185.7374 26.0857 C 185.5307 26.0838 185.3277 26.0886 185.121 26.0857 C 184.9173 26.0838 184.7094 26.0886 184.5046 26.0857 C 178.9086 26.0091 173.3299 25.7417 167.7824 24.9325 C 166.5597 24.9218 165.3425 24.916 164.1237 24.8927 C 163.9268 24.8888 163.7242 24.8777 163.5272 24.8728 C 163.3293 24.8689 163.1277 24.8578 162.9307 24.8529 C 162.7512 24.848 162.5734 24.8568 162.3939 24.8529 C 153.1531 24.6268 143.9787 23.9879 134.7952 22.6061 C 130.3063 22.051 125.812 21.6746 121.3338 21.3136 C 121.1728 21.301 120.9978 21.2865 120.8367 21.2738 C 120.6747 21.2612 120.5216 21.2467 120.3595 21.2341 C 115.7746 20.8673 111.1888 20.5224 106.6397 20.0013 C 102.6525 19.8082 98.6554 19.7307 94.6498 19.7229 L 94.0533 19.7229 L 93.7749 19.7229 L 93.4568 19.7229 C 87.8209 19.7278 82.1841 19.8475 76.5754 19.9019 C 72.4029 19.8048 68.1218 21.2524 63.9492 20.3791 C 58.8063 19.7969 53.5629 19.7102 48.42 20.0013 C 47.2458 20.0702 46.0379 19.9771 44.821 19.9217 C 44.6027 19.912 44.3832 19.9096 44.1649 19.9019 C 42.1775 19.8339 40.1971 19.8985 38.3389 20.8563 C 29.7027 24.0585 24.7576 32.5023 20.6821 40.3623 C 16.9947 48.1252 17.6024 50.3742 16.7291 58.7193 C 16.6321 72.6926 15.2403 92.9576 16.3077 106.8338 C 17.181 113.5293 16.2066 120.5168 17.7592 127.1153 C 17.8892 127.8556 18.0308 129.6816 18.0376 129.8592 C 18.2452 135.368 13.9964 148.1058 13.6432 150.2202 C 13.1493 153.1759 13.1674 155.0164 13.4643 157.617 C 13.7612 160.2176 15.3341 166.1327 16.9837 170.4023 C 21.6706 163.9348 25.6396 156.4726 26.4285 148.4506 C 26.4567 148.1672 26.6285 146.193 26.4285 143.9767 C 26.2791 142.3116 25.8645 140.6757 25.7723 140.2982 C 25.7684 140.2827 25.7563 140.2529 25.7525 140.2385 C 25.2236 138.0814 24.5616 135.947 24.0822 133.7763 C 24.0706 133.722 23.4343 129.3805 23.4857 128.1889 C 23.3887 124.1134 22.7182 120.0335 22.233 115.861 C 20.3528 96.6695 21.6988 77.9301 23.4362 58.7138 C 24.6977 48.2339 27.6083 39.7448 34.4979 31.8849 C 36.6702 30.0746 40.9175 25.9252 40.62 26.8829 C 40.5386 27.1448 33.5704 32.2243 31.0507 35.5158 C 24.0298 48.035 23.9131 52.6266 22.75 63.7058 C 21.5869 74.7851 22.2761 93.4121 23.1079 101.4055 C 25.5338 111.5943 28.9305 121.6874 34.4616 130.6148 C 34.5314 130.7235 35.2506 132.0958 35.3166 132.2453 C 36.2161 134.2888 36.4997 136.5349 35.8137 138.6677 C 34.4299 143.7689 31.9035 148.4866 30.4053 153.6402 C 30.2675 154.1147 30.1459 154.5896 30.0275 155.0719 C 29.9887 155.231 29.9252 155.3889 29.8883 155.5491 C 28.8209 160.5949 26.8803 165.6419 27.4625 170.9789 C 28.2388 182.9144 25.724 194.6585 22.1336 205.9147 C 22.6188 211.8339 24.1633 217.8535 25.0366 223.8698 L 48.1416 223.8698 C 45.9098 220.0853 43.6774 216.1987 41.6396 212.3173 C 40.5722 210.1825 42.0293 208.0519 42.5145 206.0141 C 44.1641 201.7445 40.1841 197.5605 41.6396 193.3879 C 42.2742 191.6432 42.8206 189.8246 43.628 188.1585 C 44.3014 186.767 45.1556 185.476 46.3918 184.4601 C 47.1788 186.8685 48.0394 189.2894 48.937 191.6978 C 49.8122 194.0441 50.7111 196.3903 51.6213 198.7366 C 52.2035 201.8418 51.8264 205.0341 52.8938 208.0423 C 53.7672 212.603 59.5962 213.779 60.4696 218.2426 C 61.1488 220.6685 61.6323 223.1936 62.0205 225.6195 L 86.7559 225.5201 C 83.9419 220.1831 80.8347 214.927 76.9532 210.2693 C 72.8777 205.5145 72.7896 199.0137 70.8489 193.2885 C 69.8785 189.9893 68.1233 186.902 67.2499 183.5057 C 66.7647 180.0124 67.0582 176.3214 67.3493 172.8281 C 69.096 163.8037 70.9839 162.532 70.8868 153.4106 C 70.8868 151.5669 71.2781 149.6391 72.6366 148.2806 C 73.5643 147.2559 74.4539 146.2034 75.3408 145.1389 C 75.4514 145.007 75.5692 144.8742 75.6788 144.7413 C 75.7856 144.6122 75.8902 144.4717 75.997 144.3436 C 76.0002 144.3396 76.0141 144.3476 76.0169 144.3436 C 90.0775 127.0354 87.5856 134.4744 119.6437 138.2701 C 123.234 138.9494 126.8232 140.0207 130.1225 141.6703 C 135.9447 144.2902 140.7983 149.0407 147.2026 150.3992 C 150.3078 150.9815 153.423 152.4529 156.5281 151.8707 C 160.7977 149.2507 164.6676 145.5556 169.8105 145.0704 C 178.9319 144.3911 187.6794 147.3021 196.3156 149.922 C 202.623 150.8924 209.0171 149.9214 215.3245 150.6975 C 226.0354 151.0808 236.4639 153.9195 246.4227 157.7165 C 246.5693 157.7728 246.7146 157.8193 246.8602 157.8756 C 250.7701 168.4842 254.2712 179.2569 257.0208 190.2265 C 258.5734 196.1457 257.8813 202.3618 256.5237 208.281 C 260.017 211.4832 263.8523 212.9015 264.8227 217.9474 L 267.8931 224.4537 L 290.8494 224.5447 C 288.9592 221.6657 286.5287 218.2783 284.361 215.5783 L 300.1487 215.4789 C 298.0364 212.4233 295.5464 209.5647 293.1497 206.7101 C 290.051 202.9987 288.0981 198.6637 286.1506 194.3424 C 284.5024 190.4022 285.5859 184.3641 283.8441 180.5232 C 282.1742 176.5357 282.3274 169.6859 282.7107 165.2524 C 283.3261 160.379 284.2415 155.4941 285.6932 150.8168 C 289.3297 142.6167 305.4505 138.0567 309.8525 130.0726 C 313.2488 123.5712 312.9535 115.8154 316.1557 109.3139 C 321.0075 102.3273 319.5598 97.865 327.2256 96.2154 C 332.7567 94.3717 334.8847 92.4842 340.5128 91.1257 C 345.5355 90.0496 350.2303 86.8153 355.5847 86.791 C 355.7439 86.7897 355.9019 86.807 356.062 86.8109 C 356.224 86.8147 356.3762 86.8202 356.5392 86.8308 C 356.6595 86.8386 356.7957 86.839 356.917 86.8507 C 362.2472 87.5329 367.7606 87.3343 372.9035 85.9758 L 372.9234 85.9758 C 378.3575 83.3558 380.1006 77.1523 383.3028 72.4946 C 384.4672 71.039 382.8079 69.3792 382.1296 68.0207 C 377.569 61.5195 370.7872 55.985 369.6227 47.6399 C 368.6524 39.5858 367.7755 30.8598 362.1464 24.4554 C 363.4089 22.8057 365.6295 21.5548 365.7255 19.2259 C 363.2026 18.8378 360.6926 18.3391 358.1697 17.8539 C 359.2371 15.5251 360.4905 13.2012 361.0727 10.7753 C 361.9462 5.5357 360.1088 0.2911 357.2948 -3.9785 L 357.2947 -3.9786 L 357.2947 -3.9786 L 357.2947 -3.9786 Z" fill="rgb(85, 85, 85)" fill-opacity="1" my_fill="rgb(85, 85, 85)" my_fill_opacity="1" my_font_size="16px" my_stoke="rgb(0, 0, 0)" my_stoke_opacity="1" my_stoke_width="3.81769px" opacity="1" paint-order="fill" stroke="#000000" stroke-dasharray="" stroke-dashoffset="0" stroke-linecap="butt" stroke-miterlimit="4" stroke-opacity="1" stroke-width="3.81768727" transform="matrix(1.935,0,0,1.935,70.891,173.8778)"></path><path d="M 79.1875 42.625 L 50.9063 43.3438 L 34.6563 50.4063 L 15.5625 77.2813 L 9.9063 104.125 L 9.0625 209.375 L 19.0938 209.0938 L 21.2188 100.5938 L 24.5625 92.6563 L 24.4063 92.5938 C 24.5342 92.4454 24.6583 92.2595 24.7813 92.0938 L 29.4063 81.1875 C 30.567 77.8559 31.8597 74.3061 33.6563 71.0313 L 35.3438 67.0313 L 36.5625 66.7188 C 40.4577 62.096 46.3801 58.651 49.3125 57.1563 L 73.5 44.8438 L 77.0625 44.8438 L 79.1875 42.625 Z" fill="rgb(219, 159, 0)" fill-opacity="1" my_fill="rgb(219, 159, 0)" my_fill_opacity="1" my_font_size="16px" my_stoke="rgb(68, 68, 68)" my_stoke_opacity="1" my_stoke_width="0.406051px" opacity="1" paint-order="fill" stroke="#444" stroke-dasharray="" stroke-dashoffset="0" stroke-linecap="square" stroke-linejoin="bevel" stroke-miterlimit="4" stroke-opacity="1" stroke-width="0.40605083344816784" transform="matrix(1.231,0,0,1.231,91,156.9475)"></path><path d="M 440.6563 154.6563 L 437.9063 183.5938 L 431.6875 212.7813 L 417.1875 257.25 L 417.375 257.6563 L 470 217.5313 L 476.8438 198.3125 L 483.7188 179.0938 L 440.6563 154.6563 Z" fill="rgb(219, 146, 0)" fill-opacity="1" my_fill="rgb(219, 146, 0)" my_fill_opacity="1" my_font_size="16px" my_stoke="rgb(68, 68, 68)" my_stoke_opacity="1" my_stoke_width="0.406051px" opacity="1" paint-order="fill" stroke="#444" stroke-dasharray="" stroke-linecap="butt" stroke-miterlimit="10" stroke-opacity="1" stroke-width="0.40605083344816784" transform="matrix(1.231,0,0,1.231,91,156.9475)"></path><path d="M 107.5938 176.9063 L 73.125 234.8125 L 73.125 234.5625 C 72.6774 234.4891 72.2314 234.4194 71.7813 234.3438 L 73 234.8438 L 102.625 241.1563 L 117.1875 227.5625 L 130.9688 185.8125 L 128.8438 184.875 L 128.5938 187.9063 L 107.5938 176.9063 Z" fill="rgb(219, 146, 0)" fill-opacity="1" my_fill="rgb(219, 146, 0)" my_fill_opacity="1" my_font_size="16px" my_stoke="rgb(68, 68, 68)" my_stoke_opacity="1" my_stoke_width="0.406051px" opacity="1" paint-order="fill" stroke="#444" stroke-dasharray="" stroke-linecap="butt" stroke-miterlimit="10" stroke-opacity="1" stroke-width="0.40605083344816784" transform="matrix(1.231,0,0,1.231,91,156.9475)"></path><path d="M 77.125 161 L 73.125 234.8125 L 107.5938 176.9063 L 77.125 161 Z" fill="rgb(219, 159, 0)" fill-opacity="1" my_fill="rgb(219, 159, 0)" my_fill_opacity="1" my_font_size="16px" my_stoke="rgb(68, 68, 68)" my_stoke_opacity="1" my_stoke_width="0.406051px" opacity="1" paint-order="fill" stroke="#444" stroke-dasharray="" stroke-dashoffset="0" stroke-linecap="butt" stroke-miterlimit="4" stroke-opacity="1" stroke-width="0.40605083344816784" transform="matrix(1.231,0,0,1.231,91,156.9475)"></path><path d="M 24.4063 87.7813 C 25.0928 87.0947 17.5606 120.7245 16.1875 124.8438 C 14.8144 128.963 20.3125 179.7813 20.3125 179.7813 L 43.6605 232.6501 C 45.3601 232.393 44.9332 234.4323 49.6563 234.0313 L 55.2188 101.7188 L 24.4063 92.5938 C 25.3278 91.5251 26.1253 89.9841 26.875 88.1563 L 24.4063 87.7813 Z" fill="rgb(219, 120, 0)" fill-opacity="1" my_fill="rgb(219, 120, 0)" my_fill_opacity="1" my_font_size="16px" my_stoke="rgb(68, 68, 68)" my_stoke_opacity="1" my_stoke_width="0.406051px" opacity="1" paint-order="fill" stroke="#444" stroke-dasharray="" stroke-linecap="butt" stroke-miterlimit="10" stroke-opacity="1" stroke-width="0.40605083344816784" transform="matrix(1.231,0,0,1.231,91,156.9475)"></path><path d="M 161.75 194.0938 C 158.1895 204.2662 154.0871 216.0386 149.2813 225.6563 L 191.2813 236.5625 L 207.9375 247.5625 L 220.9688 251.3125 L 237.25 201.7813 C 213.9781 199.2173 164.905 193.8663 161.75 194.0938 Z" fill="rgb(219, 133, 0)" fill-opacity="1" my_fill="rgb(219, 133, 0)" my_fill_opacity="1" my_font_size="16px" my_stoke="rgb(68, 68, 68)" my_stoke_opacity="1" my_stoke_width="0.406051px" opacity="1" paint-order="fill" stroke="#444" stroke-dasharray="" stroke-dashoffset="0" stroke-linecap="butt" stroke-miterlimit="4" stroke-opacity="1" stroke-width="0.40605083344816784" transform="matrix(1.231,0,0,1.231,91,156.9475)"></path><path d="M 415.0625 28.75 L 367.6875 42.4688 L 327.9375 51.0938 L 341.8125 128.7813 L 349.4063 113.8125 L 353.9063 110.8125 C 353.9063 110.8125 353.9665 111.0832 353.9688 111.0938 L 365.9063 100.8125 L 383.4063 94.8125 L 399.4063 93.8125 L 399.4063 93.3125 L 422.4063 108.8125 L 425.9375 114.0313 L 428.8125 112.5 L 415.0625 28.75 Z" fill="rgb(219, 120, 0)" fill-opacity="1" my_fill="rgb(219, 120, 0)" my_fill_opacity="1" my_font_size="16px" my_stoke="rgb(68, 68, 68)" my_stoke_opacity="1" my_stoke_width="0.406051px" opacity="1" paint-order="fill" stroke="#444" stroke-dasharray="" stroke-dashoffset="0" stroke-linecap="butt" stroke-miterlimit="4" stroke-opacity="1" stroke-width="0.40605083344816784" transform="matrix(1.231,0,0,1.231,91,156.9475)"></path><path d="M 399.4063 93.3125 L 399.4063 93.8125 L 399.4063 94.1875 L 402.9063 178.3125 L 402.375 178.2813 L 439.4063 183.8125 L 441.4063 136.8125 L 422.4063 108.8126 L 399.4063 93.3126 Z" fill="rgb(219, 159, 0)" fill-opacity="1" my_fill="rgb(219, 159, 0)" my_fill_opacity="1" my_font_size="16px" my_stoke="rgb(68, 68, 68)" my_stoke_opacity="1" my_stoke_width="0.406051px" opacity="1" paint-order="fill" stroke="#444" stroke-dasharray="" stroke-linecap="butt" stroke-miterlimit="10" stroke-opacity="1" stroke-width="0.40605083344816784" transform="matrix(1.231,0,0,1.231,91,156.9475)"></path><path d="M 353.9063 110.8125 L 349.4063 113.8125 L 341.8125 128.7813 L 332.2813 147.625 L 330.9063 150.3125 L 332.9063 191.8125 L 353.9063 230.8125 C 353.9063 230.8125 361.4063 190.3125 361.4063 167.3125 C 361.4063 144.3125 353.9063 110.8125 353.9063 110.8125 Z" fill="rgb(219, 120, 0)" fill-opacity="1" my_fill="rgb(219, 120, 0)" my_fill_opacity="1" my_font_size="16px" my_stoke="rgb(68, 68, 68)" my_stoke_opacity="1" my_stoke_width="0.406051px" opacity="1" paint-order="fill" stroke="#444" stroke-dasharray="" stroke-linecap="butt" stroke-miterlimit="10" stroke-opacity="1" stroke-width="0.40605083344816784" transform="matrix(1.231,0,0,1.231,91,156.9475)"></path><path d="M 88.8767 54.5548 L 157.142 73.944 C 157.615 74.4521 160.4615 74.4737 159.4842 81.8904 C 158.5093 89.2881 156.4584 87.5512 155.1544 87.4958 L 85.0802 66.8436 C 85.0802 66.8436 81.5278 63.9343 83.0181 59.1059 C 84.5084 54.2776 88.8767 54.5548 88.8767 54.5548 Z" fill="rgb(208, 12, 0)" fill-opacity="1" my_fill="rgb(208, 12, 0)" my_fill_opacity="1" my_font_size="16px" my_stoke="rgb(68, 68, 68)" my_stoke_opacity="1" my_stoke_width="0.258363px" opacity="1" paint-order="fill" stroke="#444" stroke-dasharray="" stroke-dashoffset="0" stroke-linecap="butt" stroke-miterlimit="4" stroke-opacity="1" stroke-width="0.25836251156740037" transform="matrix(1.935,0,0,1.935,76.1108,176.4265)"></path><path d="M 78.2616 64.9349 C 78.2616 64.9349 90.4025 84.5601 90.9239 99.8069 C 92.418 115.9507 87.2012 121.628 81.1464 134.4319" fill="none" my_fill="none" my_fill_opacity="1" my_font_size="16px" my_stoke="rgb(0, 0, 0)" my_stoke_opacity="1" my_stoke_width="3.81769px" opacity="1" paint-order="fill" stroke="#000000" stroke-dasharray="" stroke-dashoffset="0" stroke-linecap="butt" stroke-miterlimit="4" stroke-opacity="1" stroke-width="3.81768727" transform="matrix(1.935,0,0,1.935,76.1108,176.4265)"></path><path d="M 357.2947 -3.9786 C 355.354 0.4851 353.7914 5.4351 350.3951 9.0254 C 346.3195 12.2276 341.2781 8.1489 336.8145 9.7015 C 334.0974 10.2837 330.9862 12.4304 328.4633 10.1986 C 325.066 8.5489 325.1785 4.4753 324.2081 1.3702 C 321.6842 5.7368 320.3214 10.7822 320.7086 15.9251 C 319.3045 15.9057 317.9026 15.7913 316.5131 15.6467 C 316.351 15.6302 316.1979 15.6045 316.0359 15.5871 C 315.8738 15.5696 315.7008 15.5657 315.5388 15.5473 C 315.3787 15.5289 315.2217 15.509 315.0616 15.4877 C 310.5513 14.9016 306.0979 13.8067 301.64 12.684 C 301.5391 12.6588 301.4427 12.6307 301.3418 12.6045 C 301.2263 12.5754 301.1003 12.5342 300.9839 12.5051 C 300.7743 12.4517 300.5771 12.3994 300.3675 12.346 C 293.4682 10.612 286.5402 8.9802 279.3702 9.3237 C 266.6584 10.294 254.1452 13.6908 242.3068 18.2515 C 238.7281 19.6682 235.0354 20.6697 231.2713 21.3733 C 231.0472 21.415 230.8194 21.4528 230.5952 21.4926 C 230.3701 21.5323 230.1453 21.575 229.9192 21.6119 C 229.697 21.6487 229.4663 21.6962 229.2431 21.7312 C 228.7764 21.8039 228.32 21.865 227.8513 21.93 C 217.0793 22.8033 206.689 26.1056 195.9179 26.1056 C 192.7283 26.1056 189.5395 26.1299 186.3538 26.1056 C 186.1481 26.1046 185.9431 26.0876 185.7374 26.0857 C 185.5307 26.0838 185.3277 26.0886 185.121 26.0857 C 184.9173 26.0838 184.7094 26.0886 184.5046 26.0857 C 178.9086 26.0091 173.3299 25.7417 167.7824 24.9325 C 166.5597 24.9218 165.3425 24.916 164.1237 24.8927 C 163.9268 24.8888 163.7242 24.8777 163.5272 24.8728 C 163.3293 24.8689 163.1277 24.8578 162.9307 24.8529 C 162.7512 24.848 162.5734 24.8568 162.3939 24.8529 C 153.1531 24.6268 143.9787 23.9879 134.7952 22.6061 C 130.3063 22.051 125.812 21.6746 121.3338 21.3136 C 121.1728 21.301 120.9978 21.2865 120.8367 21.2738 C 120.6747 21.2612 120.5216 21.2467 120.3595 21.2341 C 115.7746 20.8673 111.1888 20.5224 106.6397 20.0013 C 102.6525 19.8082 98.6554 19.7307 94.6498 19.7229 L 94.0533 19.7229 L 93.7749 19.7229 L 93.4568 19.7229 C 87.8209 19.7278 82.1841 19.8475 76.5754 19.9019 C 72.4029 19.8048 68.1218 21.2524 63.9492 20.3791 C 58.8063 19.7969 53.5629 19.7102 48.42 20.0013 C 47.2458 20.0702 46.0379 19.9771 44.821 19.9217 C 44.6027 19.912 44.3832 19.9096 44.1649 19.9019 C 42.1775 19.8339 40.1971 19.8985 38.3389 20.8563 C 29.7027 24.0585 24.7576 32.5023 20.6821 40.3623 C 16.9947 48.1252 17.6024 50.3742 16.7291 58.7193 C 16.6321 72.6926 15.2403 92.9576 16.3077 106.8338 C 17.181 113.5293 16.2066 120.5168 17.7592 127.1153 C 17.8892 127.8556 18.0308 129.6816 18.0376 129.8592 C 18.2452 135.368 13.9964 148.1058 13.6432 150.2202 C 13.1493 153.1759 13.1674 155.0164 13.4643 157.617 C 13.7612 160.2176 15.3341 166.1327 16.9837 170.4023 C 21.6706 163.9348 25.6396 156.4726 26.4285 148.4506 C 26.4567 148.1672 26.6285 146.193 26.4285 143.9767 C 26.2791 142.3116 25.8645 140.6757 25.7723 140.2982 C 25.7684 140.2827 25.7563 140.2529 25.7525 140.2385 C 25.2236 138.0814 24.5616 135.947 24.0822 133.7763 C 24.0706 133.722 23.4343 129.3805 23.4857 128.1889 C 23.3887 124.1134 22.7182 120.0335 22.233 115.861 C 20.3528 96.6695 21.6988 77.9301 23.4362 58.7138 C 24.6977 48.2339 27.6083 39.7448 34.4979 31.8849 C 36.6702 30.0746 40.9175 25.9252 40.62 26.8829 C 40.5386 27.1448 33.5704 32.2243 31.0507 35.5158 C 24.0298 48.035 23.9131 52.6266 22.75 63.7058 C 21.5869 74.7851 22.2761 93.4121 23.1079 101.4055 C 25.5338 111.5943 28.9305 121.6874 34.4616 130.6148 C 34.5314 130.7235 35.2506 132.0958 35.3166 132.2453 C 36.2161 134.2888 36.4997 136.5349 35.8137 138.6677 C 34.4299 143.7689 31.9035 148.4866 30.4053 153.6402 C 30.2675 154.1147 30.1459 154.5896 30.0275 155.0719 C 29.9887 155.231 29.9252 155.3889 29.8883 155.5491 C 28.8209 160.5949 26.8803 165.6419 27.4625 170.9789 C 28.2388 182.9144 25.724 194.6585 22.1336 205.9147 C 22.6188 211.8339 24.1633 217.8535 25.0366 223.8698 L 48.1416 223.8698 C 45.9098 220.0853 43.6774 216.1987 41.6396 212.3173 C 40.5722 210.1825 42.0293 208.0519 42.5145 206.0141 C 44.1641 201.7445 40.1841 197.5605 41.6396 193.3879 C 42.2742 191.6432 42.8206 189.8246 43.628 188.1585 C 44.3014 186.767 45.1556 185.476 46.3918 184.4601 C 47.1788 186.8685 48.0394 189.2894 48.937 191.6978 C 49.8122 194.0441 50.7111 196.3903 51.6213 198.7366 C 52.2035 201.8418 51.8264 205.0341 52.8938 208.0423 C 53.7672 212.603 59.5962 213.779 60.4696 218.2426 C 61.1488 220.6685 61.6323 223.1936 62.0205 225.6195 L 86.7559 225.5201 C 83.9419 220.1831 80.8347 214.927 76.9532 210.2693 C 72.8777 205.5145 72.7896 199.0137 70.8489 193.2885 C 69.8785 189.9893 68.1233 186.902 67.2499 183.5057 C 66.7647 180.0124 67.0582 176.3214 67.3493 172.8281 C 69.096 163.8037 70.9839 162.532 70.8868 153.4106 C 70.8868 151.5669 71.2781 149.6391 72.6366 148.2806 C 73.5643 147.2559 74.4539 146.2034 75.3408 145.1389 C 75.4514 145.007 75.5692 144.8742 75.6788 144.7413 C 75.7856 144.6122 75.8902 144.4717 75.997 144.3436 C 76.0002 144.3396 76.0141 144.3476 76.0169 144.3436 C 90.0775 127.0354 87.5856 134.4744 119.6437 138.2701 C 123.234 138.9494 126.8232 140.0207 130.1225 141.6703 C 135.9447 144.2902 140.7983 149.0407 147.2026 150.3992 C 150.3078 150.9815 153.423 152.4529 156.5281 151.8707 C 160.7977 149.2507 164.6676 145.5556 169.8105 145.0704 C 178.9319 144.3911 187.6794 147.3021 196.3156 149.922 C 202.623 150.8924 209.0171 149.9214 215.3245 150.6975 C 226.0354 151.0808 236.4639 153.9195 246.4227 157.7165 C 246.5693 157.7728 246.7146 157.8193 246.8602 157.8756 C 250.7701 168.4842 254.2712 179.2569 257.0208 190.2265 C 258.5734 196.1457 257.8813 202.3618 256.5237 208.281 C 260.017 211.4832 263.8523 212.9015 264.8227 217.9474 L 267.8931 224.4537 L 290.8494 224.5447 C 288.9592 221.6657 286.5287 218.2783 284.361 215.5783 L 300.1487 215.4789 C 298.0364 212.4233 295.5464 209.5647 293.1497 206.7101 C 290.051 202.9987 288.0981 198.6637 286.1506 194.3424 C 284.5024 190.4022 285.5859 184.3641 283.8441 180.5232 C 282.1742 176.5357 282.3274 169.6859 282.7107 165.2524 C 283.3261 160.379 284.2415 155.4941 285.6932 150.8168 C 289.3297 142.6167 305.4505 138.0567 309.8525 130.0726 C 313.2488 123.5712 312.9535 115.8154 316.1557 109.3139 C 321.0075 102.3273 319.5598 97.865 327.2256 96.2154 C 332.7567 94.3717 334.8847 92.4842 340.5128 91.1257 C 345.5355 90.0496 350.2303 86.8153 355.5847 86.791 C 355.7439 86.7897 355.9019 86.807 356.062 86.8109 C 356.224 86.8147 356.3762 86.8202 356.5392 86.8308 C 356.6595 86.8386 356.7957 86.839 356.917 86.8507 C 362.2472 87.5329 367.7606 87.3343 372.9035 85.9758 L 372.9234 85.9758 C 378.3575 83.3558 380.1006 77.1523 383.3028 72.4946 C 384.4672 71.039 382.8079 69.3792 382.1296 68.0207 C 377.569 61.5195 370.7872 55.985 369.6227 47.6399 C 368.6524 39.5858 367.7755 30.8598 362.1464 24.4554 C 363.4089 22.8057 365.6295 21.5548 365.7255 19.2259 C 363.2026 18.8378 360.6926 18.3391 358.1697 17.8539 C 359.2371 15.5251 360.4905 13.2012 361.0727 10.7753 C 361.9462 5.5357 360.1088 0.2911 357.2948 -3.9785 L 357.2947 -3.9786 L 357.2947 -3.9786 L 357.2947 -3.9786 Z" fill="none" my_fill="none" my_fill_opacity="1" my_font_size="16px" my_stoke="rgb(0, 0, 0)" my_stoke_opacity="1" my_stoke_width="3.81769px" opacity="1" paint-order="fill" stroke="#000000" stroke-dasharray="" stroke-dashoffset="0" stroke-linecap="butt" stroke-miterlimit="4" stroke-opacity="1" stroke-width="3.81768727" transform="matrix(1.935,0,0,1.935,70.891,173.8778)"></path></g><g clip-path="url(#zr2639-clip-1)"><path d="M 0 0 L 20 0 L 20 140 L 0 140 Z" fill='url("#zr2639-gradient-0")' fill-opacity="1" my_fill='url("#zr2639-gradient-0")' my_fill_opacity="1" my_font_size="16px" my_stoke="none" my_stoke_opacity="1" my_stoke_width="1px" opacity="1" stroke="none" transform="matrix(0,-1,1,0,398.6938,687.7)"></path><path d="M 0 0 L 20 0 L 20 140 L 0 140 Z" fill='url("#zr2639-gradient-1")' fill-opacity="1" my_fill='url("#zr2639-gradient-1")' my_fill_opacity="1" my_font_size="16px" my_stoke="none" my_stoke_opacity="1" my_stoke_width="1px" opacity="1" stroke="none" transform="matrix(0,-1,1,0,398.6938,687.7)"></path></g></g></svg>