<svg baseProfile="full" height="773" style="user-select: none; position: absolute; left: 0px; top: 0px;" transform_matrix='{"a":1,"b":0,"c":0,"d":1,"e":0,"f":0}' version="1.1" width="910" xmlns="http://www.w3.org/2000/svg" xmlns:xlink="http://www.w3.org/1999/xlink"><g><path d="M 434.4488 431.3979 L 409.867 429.979" fill="none" my_fill="none" my_fill_opacity="1" my_font_size="16px" my_stoke="rgb(170, 170, 170)" my_stoke_opacity="0.5" my_stoke_width="1px" opacity="1" paint-order="fill" stroke="#aaa" stroke-dasharray="" stroke-linecap="butt" stroke-miterlimit="10" stroke-opacity="0.5" stroke-width="1" transform="matrix(1,0,0,1,0,0)"></path><path d="M 483.442 320.4098 L 459.0043 324.1178" fill="none" my_fill="none" my_fill_opacity="1" my_font_size="16px" my_stoke="rgb(170, 170, 170)" my_stoke_opacity="0.5" my_stoke_width="1px" opacity="1" paint-order="fill" stroke="#aaa" stroke-dasharray="" stroke-linecap="butt" stroke-miterlimit="10" stroke-opacity="0.5" stroke-width="1" transform="matrix(1,0,0,1,0,0)"></path><path d="M 1 0 A 1 1 0 1 1 1 -0.0001" fill="rgb(84, 112, 198)" fill-opacity="1" my_fill="rgb(84, 112, 198)" my_fill_opacity="1" my_font_size="16px" my_stoke="none" my_stoke_opacity="1" my_stoke_width="1px" opacity="1" stroke="none" transform="matrix(10,0,0,10,455,386.5)"></path><path d="M 1 0 A 1 1 0 1 1 1 -0.0001" fill="rgb(84, 112, 198)" fill-opacity="1" my_fill="rgb(84, 112, 198)" my_fill_opacity="1" my_font_size="16px" my_stoke="none" my_stoke_opacity="1" my_stoke_width="1px" opacity="1" stroke="none" transform="matrix(5,0,0,5,434.4488,431.3979)"></path><path d="M 1 0 A 1 1 0 1 1 1 -0.0001" fill="rgb(84, 112, 198)" fill-opacity="1" my_fill="rgb(84, 112, 198)" my_fill_opacity="1" my_font_size="16px" my_stoke="none" my_stoke_opacity="1" my_stoke_width="1px" opacity="1" stroke="none" transform="matrix(5,0,0,5,510.8461,416.607)"></path><path d="M 1 0 A 1 1 0 1 1 1 -0.0001" fill="rgb(84, 112, 198)" fill-opacity="1" my_fill="rgb(84, 112, 198)" my_fill_opacity="1" my_font_size="16px" my_stoke="none" my_stoke_opacity="1" my_stoke_width="1px" opacity="1" stroke="none" transform="matrix(5,0,0,5,459.0043,324.1178)"></path><path d="M 1 0 A 1 1 0 1 1 1 -0.0001" fill="rgb(84, 112, 198)" fill-opacity="1" my_fill="rgb(84, 112, 198)" my_fill_opacity="1" my_font_size="16px" my_stoke="none" my_stoke_opacity="1" my_stoke_width="1px" opacity="1" stroke="none" transform="matrix(5,0,0,5,409.867,429.979)"></path><path d="M 1 0 A 1 1 0 1 1 1 -0.0001" fill="rgb(84, 112, 198)" fill-opacity="1" my_fill="rgb(84, 112, 198)" my_fill_opacity="1" my_font_size="16px" my_stoke="none" my_stoke_opacity="1" my_stoke_width="1px" opacity="1" stroke="none" transform="matrix(5,0,0,5,483.442,320.4098)"></path><path d="M 1 0 A 1 1 0 1 1 1 -0.0001" fill="rgb(84, 112, 198)" fill-opacity="1" my_fill="rgb(84, 112, 198)" my_fill_opacity="1" my_font_size="16px" my_stoke="none" my_stoke_opacity="1" my_stoke_width="1px" opacity="1" stroke="none" transform="matrix(5,0,0,5,587.9033,319.2768)"></path></g></svg>