<svg baseProfile="full" height="773" style="user-select: none; position: absolute; left: 0px; top: 0px;" transform_matrix='{"a":1,"b":0,"c":0,"d":1,"e":0,"f":0}' version="1.1" width="910" xmlns="http://www.w3.org/2000/svg" xmlns:xlink="http://www.w3.org/1999/xlink"><g><path d="M 91 703.5 L 819 703.5" fill="none" my_fill="none" my_fill_opacity="1" my_font_size="16px" my_stoke="rgb(224, 230, 241)" my_stoke_opacity="1" my_stoke_width="1px" opacity="1" paint-order="fill" stroke="#E0E6F1" stroke-dasharray="" stroke-linecap="butt" stroke-miterlimit="10" stroke-opacity="1" stroke-width="1"></path><path d="M 91 596.5 L 819 596.5" fill="none" my_fill="none" my_fill_opacity="1" my_font_size="16px" my_stoke="rgb(224, 230, 241)" my_stoke_opacity="1" my_stoke_width="1px" opacity="1" paint-order="fill" stroke="#E0E6F1" stroke-dasharray="" stroke-linecap="butt" stroke-miterlimit="10" stroke-opacity="1" stroke-width="1"></path><path d="M 91 488.5 L 819 488.5" fill="none" my_fill="none" my_fill_opacity="1" my_font_size="16px" my_stoke="rgb(224, 230, 241)" my_stoke_opacity="1" my_stoke_width="1px" opacity="1" paint-order="fill" stroke="#E0E6F1" stroke-dasharray="" stroke-linecap="butt" stroke-miterlimit="10" stroke-opacity="1" stroke-width="1"></path><path d="M 91 381.5 L 819 381.5" fill="none" my_fill="none" my_fill_opacity="1" my_font_size="16px" my_stoke="rgb(224, 230, 241)" my_stoke_opacity="1" my_stoke_width="1px" opacity="1" paint-order="fill" stroke="#E0E6F1" stroke-dasharray="" stroke-linecap="butt" stroke-miterlimit="10" stroke-opacity="1" stroke-width="1"></path><path d="M 91 274.5 L 819 274.5" fill="none" my_fill="none" my_fill_opacity="1" my_font_size="16px" my_stoke="rgb(224, 230, 241)" my_stoke_opacity="1" my_stoke_width="1px" opacity="1" paint-order="fill" stroke="#E0E6F1" stroke-dasharray="" stroke-linecap="butt" stroke-miterlimit="10" stroke-opacity="1" stroke-width="1"></path><path d="M 91 167.5 L 819 167.5" fill="none" my_fill="none" my_fill_opacity="1" my_font_size="16px" my_stoke="rgb(224, 230, 241)" my_stoke_opacity="1" my_stoke_width="1px" opacity="1" paint-order="fill" stroke="#E0E6F1" stroke-dasharray="" stroke-linecap="butt" stroke-miterlimit="10" stroke-opacity="1" stroke-width="1"></path><path d="M 91 60.5 L 819 60.5" fill="none" my_fill="none" my_fill_opacity="1" my_font_size="16px" my_stoke="rgb(224, 230, 241)" my_stoke_opacity="1" my_stoke_width="1px" opacity="1" paint-order="fill" stroke="#E0E6F1" stroke-dasharray="" stroke-linecap="butt" stroke-miterlimit="10" stroke-opacity="1" stroke-width="1"></path><path d="M 91 596.5 L 819 596.5" fill="none" my_fill="none" my_fill_opacity="1" my_font_size="16px" my_stoke="rgb(110, 112, 121)" my_stoke_opacity="1" my_stoke_width="1px" opacity="1" paint-order="fill" stroke="#6E7079" stroke-dasharray="" stroke-linecap="round" stroke-miterlimit="10" stroke-opacity="1" stroke-width="1"></path><path d="M 91.5 595.8333 L 91.5 600.8333" fill="none" my_fill="none" my_fill_opacity="1" my_font_size="16px" my_stoke="rgb(110, 112, 121)" my_stoke_opacity="1" my_stoke_width="1px" opacity="1" paint-order="fill" stroke="#6E7079" stroke-dasharray="" stroke-linecap="butt" stroke-miterlimit="10" stroke-opacity="1" stroke-width="1"></path><path d="M 212.5 595.8333 L 212.5 600.8333" fill="none" my_fill="none" my_fill_opacity="1" my_font_size="16px" my_stoke="rgb(110, 112, 121)" my_stoke_opacity="1" my_stoke_width="1px" opacity="1" paint-order="fill" stroke="#6E7079" stroke-dasharray="" stroke-linecap="butt" stroke-miterlimit="10" stroke-opacity="1" stroke-width="1"></path><path d="M 333.5 595.8333 L 333.5 600.8333" fill="none" my_fill="none" my_fill_opacity="1" my_font_size="16px" my_stoke="rgb(110, 112, 121)" my_stoke_opacity="1" my_stoke_width="1px" opacity="1" paint-order="fill" stroke="#6E7079" stroke-dasharray="" stroke-linecap="butt" stroke-miterlimit="10" stroke-opacity="1" stroke-width="1"></path><path d="M 455.5 595.8333 L 455.5 600.8333" fill="none" my_fill="none" my_fill_opacity="1" my_font_size="16px" my_stoke="rgb(110, 112, 121)" my_stoke_opacity="1" my_stoke_width="1px" opacity="1" paint-order="fill" stroke="#6E7079" stroke-dasharray="" stroke-linecap="butt" stroke-miterlimit="10" stroke-opacity="1" stroke-width="1"></path><path d="M 576.5 595.8333 L 576.5 600.8333" fill="none" my_fill="none" my_fill_opacity="1" my_font_size="16px" my_stoke="rgb(110, 112, 121)" my_stoke_opacity="1" my_stoke_width="1px" opacity="1" paint-order="fill" stroke="#6E7079" stroke-dasharray="" stroke-linecap="butt" stroke-miterlimit="10" stroke-opacity="1" stroke-width="1"></path><path d="M 697.5 595.8333 L 697.5 600.8333" fill="none" my_fill="none" my_fill_opacity="1" my_font_size="16px" my_stoke="rgb(110, 112, 121)" my_stoke_opacity="1" my_stoke_width="1px" opacity="1" paint-order="fill" stroke="#6E7079" stroke-dasharray="" stroke-linecap="butt" stroke-miterlimit="10" stroke-opacity="1" stroke-width="1"></path><path d="M 819.5 595.8333 L 819.5 600.8333" fill="none" my_fill="none" my_fill_opacity="1" my_font_size="16px" my_stoke="rgb(110, 112, 121)" my_stoke_opacity="1" my_stoke_width="1px" opacity="1" paint-order="fill" stroke="#6E7079" stroke-dasharray="" stroke-linecap="butt" stroke-miterlimit="10" stroke-opacity="1" stroke-width="1"></path><g clip-path="url(#zr2493-clip-0)"></g><g clip-path="url(#zr2493-clip-1)"></g><path d="M 1 0 A 1 1 0 1 1 1 -0.0001" fill="rgb(255, 255, 255)" fill-opacity="1" my_fill="rgb(255, 255, 255)" my_fill_opacity="1" my_font_size="16px" my_stoke="rgb(84, 112, 198)" my_stoke_opacity="1" my_stoke_width="1px" opacity="1" paint-order="fill" stroke="#5470c6" stroke-dasharray="" stroke-linecap="butt" stroke-miterlimit="10" stroke-opacity="1" stroke-width="1" transform="matrix(2,0,0,2,91,238.6111)"></path><path d="M 1 0 A 1 1 0 1 1 1 -0.0001" fill="rgb(255, 255, 255)" fill-opacity="1" my_fill="rgb(255, 255, 255)" my_fill_opacity="1" my_font_size="16px" my_stoke="rgb(84, 112, 198)" my_stoke_opacity="1" my_stoke_width="1px" opacity="1" paint-order="fill" stroke="#5470c6" stroke-dasharray="" stroke-linecap="butt" stroke-miterlimit="10" stroke-opacity="1" stroke-width="1" transform="matrix(2,0,0,2,212.3333,202.8889)"></path><path d="M 1 0 A 1 1 0 1 1 1 -0.0001" fill="rgb(255, 255, 255)" fill-opacity="1" my_fill="rgb(255, 255, 255)" my_fill_opacity="1" my_font_size="16px" my_stoke="rgb(84, 112, 198)" my_stoke_opacity="1" my_stoke_width="1px" opacity="1" paint-order="fill" stroke="#5470c6" stroke-dasharray="" stroke-linecap="butt" stroke-miterlimit="10" stroke-opacity="1" stroke-width="1" transform="matrix(2,0,0,2,333.6667,131.4444)"></path><path d="M 1 0 A 1 1 0 1 1 1 -0.0001" fill="rgb(255, 255, 255)" fill-opacity="1" my_fill="rgb(255, 255, 255)" my_fill_opacity="1" my_font_size="16px" my_stoke="rgb(84, 112, 198)" my_stoke_opacity="1" my_stoke_width="1px" opacity="1" paint-order="fill" stroke="#5470c6" stroke-dasharray="" stroke-linecap="butt" stroke-miterlimit="10" stroke-opacity="1" stroke-width="1" transform="matrix(2,0,0,2,455,202.8889)"></path><path d="M 1 0 A 1 1 0 1 1 1 -0.0001" fill="rgb(255, 255, 255)" fill-opacity="1" my_fill="rgb(255, 255, 255)" my_fill_opacity="1" my_font_size="16px" my_stoke="rgb(84, 112, 198)" my_stoke_opacity="1" my_stoke_width="1px" opacity="1" paint-order="fill" stroke="#5470c6" stroke-dasharray="" stroke-linecap="butt" stroke-miterlimit="10" stroke-opacity="1" stroke-width="1" transform="matrix(2,0,0,2,576.3333,167.1667)"></path><path d="M 1 0 A 1 1 0 1 1 1 -0.0001" fill="rgb(255, 255, 255)" fill-opacity="1" my_fill="rgb(255, 255, 255)" my_fill_opacity="1" my_font_size="16px" my_stoke="rgb(84, 112, 198)" my_stoke_opacity="1" my_stoke_width="1px" opacity="1" paint-order="fill" stroke="#5470c6" stroke-dasharray="" stroke-linecap="butt" stroke-miterlimit="10" stroke-opacity="1" stroke-width="1" transform="matrix(2,0,0,2,697.6667,167.1667)"></path><path d="M 1 0 A 1 1 0 1 1 1 -0.0001" fill="rgb(255, 255, 255)" fill-opacity="1" my_fill="rgb(255, 255, 255)" my_fill_opacity="1" my_font_size="16px" my_stoke="rgb(84, 112, 198)" my_stoke_opacity="1" my_stoke_width="1px" opacity="1" paint-order="fill" stroke="#5470c6" stroke-dasharray="" stroke-linecap="butt" stroke-miterlimit="10" stroke-opacity="1" stroke-width="1" transform="matrix(2,0,0,2,819,274.3333)"></path><path d="M 1 0 A 1 1 0 1 1 1 -0.0001" fill="rgb(255, 255, 255)" fill-opacity="1" my_fill="rgb(255, 255, 255)" my_fill_opacity="1" my_font_size="16px" my_stoke="rgb(145, 204, 117)" my_stoke_opacity="1" my_stoke_width="1px" opacity="1" paint-order="fill" stroke="#91cc75" stroke-dasharray="" stroke-linecap="butt" stroke-miterlimit="10" stroke-opacity="1" stroke-width="1" transform="matrix(2,0,0,2,91,560.1111)"></path><path d="M 1 0 A 1 1 0 1 1 1 -0.0001" fill="rgb(255, 255, 255)" fill-opacity="1" my_fill="rgb(255, 255, 255)" my_fill_opacity="1" my_font_size="16px" my_stoke="rgb(145, 204, 117)" my_stoke_opacity="1" my_stoke_width="1px" opacity="1" paint-order="fill" stroke="#91cc75" stroke-dasharray="" stroke-linecap="butt" stroke-miterlimit="10" stroke-opacity="1" stroke-width="1" transform="matrix(2,0,0,2,212.3333,667.2778)"></path><path d="M 1 0 A 1 1 0 1 1 1 -0.0001" fill="rgb(255, 255, 255)" fill-opacity="1" my_fill="rgb(255, 255, 255)" my_fill_opacity="1" my_font_size="16px" my_stoke="rgb(145, 204, 117)" my_stoke_opacity="1" my_stoke_width="1px" opacity="1" paint-order="fill" stroke="#91cc75" stroke-dasharray="" stroke-linecap="butt" stroke-miterlimit="10" stroke-opacity="1" stroke-width="1" transform="matrix(2,0,0,2,333.6667,524.3889)"></path><path d="M 1 0 A 1 1 0 1 1 1 -0.0001" fill="rgb(255, 255, 255)" fill-opacity="1" my_fill="rgb(255, 255, 255)" my_fill_opacity="1" my_font_size="16px" my_stoke="rgb(145, 204, 117)" my_stoke_opacity="1" my_stoke_width="1px" opacity="1" paint-order="fill" stroke="#91cc75" stroke-dasharray="" stroke-linecap="butt" stroke-miterlimit="10" stroke-opacity="1" stroke-width="1" transform="matrix(2,0,0,2,455,417.2222)"></path><path d="M 1 0 A 1 1 0 1 1 1 -0.0001" fill="rgb(255, 255, 255)" fill-opacity="1" my_fill="rgb(255, 255, 255)" my_fill_opacity="1" my_font_size="16px" my_stoke="rgb(145, 204, 117)" my_stoke_opacity="1" my_stoke_width="1px" opacity="1" paint-order="fill" stroke="#91cc75" stroke-dasharray="" stroke-linecap="butt" stroke-miterlimit="10" stroke-opacity="1" stroke-width="1" transform="matrix(2,0,0,2,576.3333,488.6667)"></path><path d="M 1 0 A 1 1 0 1 1 1 -0.0001" fill="rgb(255, 255, 255)" fill-opacity="1" my_fill="rgb(255, 255, 255)" my_fill_opacity="1" my_font_size="16px" my_stoke="rgb(145, 204, 117)" my_stoke_opacity="1" my_stoke_width="1px" opacity="1" paint-order="fill" stroke="#91cc75" stroke-dasharray="" stroke-linecap="butt" stroke-miterlimit="10" stroke-opacity="1" stroke-width="1" transform="matrix(2,0,0,2,697.6667,524.3889)"></path><path d="M 1 0 A 1 1 0 1 1 1 -0.0001" fill="rgb(255, 255, 255)" fill-opacity="1" my_fill="rgb(255, 255, 255)" my_fill_opacity="1" my_font_size="16px" my_stoke="rgb(145, 204, 117)" my_stoke_opacity="1" my_stoke_width="1px" opacity="1" paint-order="fill" stroke="#91cc75" stroke-dasharray="" stroke-linecap="butt" stroke-miterlimit="10" stroke-opacity="1" stroke-width="1" transform="matrix(2,0,0,2,819,595.8333)"></path><path d="M 0 7 L 25 7" fill="rgb(0, 0, 0)" fill-opacity="1" my_fill="rgb(0, 0, 0)" my_fill_opacity="1" my_font_size="16px" my_stoke="rgb(84, 112, 198)" my_stoke_opacity="1" my_stoke_width="2px" opacity="1" paint-order="fill" stroke="#5470c6" stroke-dasharray="" stroke-opacity="1" stroke-width="2" transform="matrix(1,0,0,1,372,4.6)"></path><path d="M 18.1 7 A 5.6 5.6 0 1 1 18.1 6.9994" fill="rgb(255, 255, 255)" fill-opacity="1" my_fill="rgb(255, 255, 255)" my_fill_opacity="1" my_font_size="16px" my_stoke="rgb(84, 112, 198)" my_stoke_opacity="1" my_stoke_width="2px" opacity="1" paint-order="fill" stroke="#5470c6" stroke-dasharray="" stroke-opacity="1" stroke-width="2" transform="matrix(1,0,0,1,372,4.6)"></path><path d="M 0 7 L 25 7" fill="rgb(0, 0, 0)" fill-opacity="1" my_fill="rgb(0, 0, 0)" my_fill_opacity="1" my_font_size="16px" my_stoke="rgb(145, 204, 117)" my_stoke_opacity="1" my_stoke_width="2px" opacity="1" paint-order="fill" stroke="#91cc75" stroke-dasharray="" stroke-opacity="1" stroke-width="2" transform="matrix(1,0,0,1,461,4.6)"></path><path d="M 18.1 7 A 5.6 5.6 0 1 1 18.1 6.9994" fill="rgb(255, 255, 255)" fill-opacity="1" my_fill="rgb(255, 255, 255)" my_fill_opacity="1" my_font_size="16px" my_stoke="rgb(145, 204, 117)" my_stoke_opacity="1" my_stoke_width="2px" opacity="1" paint-order="fill" stroke="#91cc75" stroke-dasharray="" stroke-opacity="1" stroke-width="2" transform="matrix(1,0,0,1,461,4.6)"></path><path d="M 91 198.5 L 819 198.5" fill="none" my_fill="none" my_fill_opacity="1" my_font_size="16px" my_stoke="rgb(84, 112, 198)" my_stoke_opacity="1" my_stoke_width="1px" opacity="1" paint-order="fill" stroke="#5470c6" stroke-dasharray="4,2" stroke-dashoffset="0" stroke-linecap="butt" stroke-miterlimit="10" stroke-opacity="1" stroke-width="1"></path><path d="M 4 0 A 4 4 0 1 1 4 -0.0004" fill="rgb(84, 112, 198)" fill-opacity="1" my_fill="rgb(84, 112, 198)" my_fill_opacity="1" my_font_size="16px" my_stoke="none" my_stoke_opacity="1" my_stoke_width="1px" opacity="1" stroke="none" transform="matrix(0,-1,1,0,91,197.8878)"></path><path d="M 91 539.5 L 819 539.5" fill="none" my_fill="none" my_fill_opacity="1" my_font_size="16px" my_stoke="rgb(145, 204, 117)" my_stoke_opacity="1" my_stoke_width="1px" opacity="1" paint-order="fill" stroke="#91cc75" stroke-dasharray="4,2" stroke-dashoffset="0" stroke-linecap="butt" stroke-miterlimit="10" stroke-opacity="1" stroke-width="1"></path><path d="M 4 0 A 4 4 0 1 1 4 -0.0004" fill="rgb(145, 204, 117)" fill-opacity="1" my_fill="rgb(145, 204, 117)" my_fill_opacity="1" my_font_size="16px" my_stoke="none" my_stoke_opacity="1" my_stoke_width="1px" opacity="1" stroke="none" transform="matrix(0,-1,1,0,91,539.7494)"></path><path d="M 819 417.5 L 455 417.5" fill="none" my_fill="none" my_fill_opacity="1" my_font_size="16px" my_stoke="rgb(145, 204, 117)" my_stoke_opacity="1" my_stoke_width="1px" opacity="1" paint-order="fill" stroke="#91cc75" stroke-dasharray="4,2" stroke-dashoffset="0" stroke-linecap="butt" stroke-miterlimit="10" stroke-opacity="1" stroke-width="1"></path><path d="M 4 0 A 4 4 0 1 1 4 -0.0004" fill="rgb(145, 204, 117)" fill-opacity="1" my_fill="rgb(145, 204, 117)" my_fill_opacity="1" my_font_size="16px" my_stoke="none" my_stoke_opacity="1" my_stoke_width="1px" opacity="1" stroke="none" transform="matrix(0,-1,1,0,455,417.2222)"></path><text clip-path="none" content="最大值" dominant-baseline="central" fill="rgb(51, 51, 51)" fill-opacity="1" font-family='"Microsoft YaHei"' my_fill="rgb(51, 51, 51)" my_fill_opacity="1" my_font_size="12px" my_stoke="rgb(255, 255, 255)" my_stoke_opacity="1" my_stoke_width="2px" opacity="1" paint-order="stroke" stroke="rgb(255, 255, 255)" stroke-dasharray="" stroke-linecap="butt" stroke-miterlimit="2" stroke-opacity="1" stroke-width="2px" style='font: 12px "Microsoft YaHei"; fill: rgb(51, 51, 51);' text-anchor="start" text_bbox='{"x":-1,"y":-8,"w":38,"h":16}' transform="matrix(1,0,0,1,824,417.2222)" x="0" xml:space="preserve" y="0">最大值</text><path d="M -15 -15 L 172.7419 -15 L 172.7419 15 L -15 15 L -15 -15 Z" fill="none" fill-opacity="1" my_fill="none" my_fill_opacity="1" my_font_size="16px" my_stoke="rgb(204, 204, 204)" my_stoke_opacity="1" my_stoke_width="0px" opacity="1" paint-order="fill" stroke="#ccc" stroke-dasharray="" stroke-linecap="butt" stroke-miterlimit="10" stroke-opacity="1" stroke-width="0" transform="matrix(1,0,0,1,737.2581,15)"></path><path d="M -5 -5 L 149 -5 L 149 45 L -5 45 L -5 -5 Z" fill="rgb(0, 0, 0)" fill-opacity="0" my_fill="rgb(0, 0, 0)" my_fill_opacity="0" my_font_size="16px" my_stoke="rgb(204, 204, 204)" my_stoke_opacity="1" my_stoke_width="0px" opacity="1" paint-order="fill" stroke="#ccc" stroke-dasharray="" stroke-linecap="butt" stroke-miterlimit="10" stroke-opacity="1" stroke-width="0" transform="matrix(1,0,0,1,5,5)"></path><text clip-path="none" content="未来一周气温变化" dominant-baseline="central" fill="rgb(70, 70, 70)" fill-opacity="1" font-family='"Microsoft YaHei"' my_fill="rgb(70, 70, 70)" my_fill_opacity="1" my_font_size="18px" my_stoke="none" my_stoke_opacity="1" my_stoke_width="1px" opacity="1" stroke="none" stroke-opacity="1" stroke-width="1px" style='font: bold 18px "Microsoft YaHei"; fill: rgb(70, 70, 70);' text-anchor="start" text_bbox='{"x":0,"y":-3,"w":144,"h":24}' transform="matrix(1,0,0,1,5,5)" x="0" xml:space="preserve" y="9">未来一周气温变化</text><text clip-path="none" content="纯属虚构" dominant-baseline="central" fill="rgb(110, 112, 121)" fill-opacity="1" font-family='"Microsoft YaHei"' my_fill="rgb(110, 112, 121)" my_fill_opacity="1" my_font_size="12px" my_stoke="none" my_stoke_opacity="1" my_stoke_width="1px" opacity="1" stroke="none" stroke-opacity="1" stroke-width="1px" style='font: 12px "Microsoft YaHei"; fill: rgb(110, 112, 121);' text-anchor="start" text_bbox='{"x":-1,"y":26,"w":49,"h":16}' transform="matrix(1,0,0,1,5,5)" x="0" xml:space="preserve" y="34">纯属虚构</text></g></svg>