<svg baseProfile="full" height="773" style="user-select: none; position: absolute; left: 0px; top: 0px;" transform_matrix='{"a":1,"b":0,"c":0,"d":1,"e":0,"f":0}' version="1.1" width="910" xmlns="http://www.w3.org/2000/svg" xmlns:xlink="http://www.w3.org/1999/xlink"><g><path d="M 65.3293 730.5 L 873.6 730.5" fill="none" my_fill="none" my_fill_opacity="1" my_font_size="16px" my_stoke="rgb(224, 230, 241)" my_stoke_opacity="1" my_stoke_width="1px" opacity="1" paint-order="fill" stroke="#E0E6F1" stroke-dasharray="" stroke-linecap="butt" stroke-miterlimit="10" stroke-opacity="1" stroke-width="1"></path><path d="M 65.3293 618.5 L 873.6 618.5" fill="none" my_fill="none" my_fill_opacity="1" my_font_size="16px" my_stoke="rgb(224, 230, 241)" my_stoke_opacity="1" my_stoke_width="1px" opacity="1" paint-order="fill" stroke="#E0E6F1" stroke-dasharray="" stroke-linecap="butt" stroke-miterlimit="10" stroke-opacity="1" stroke-width="1"></path><path d="M 65.3293 506.5 L 873.6 506.5" fill="none" my_fill="none" my_fill_opacity="1" my_font_size="16px" my_stoke="rgb(224, 230, 241)" my_stoke_opacity="1" my_stoke_width="1px" opacity="1" paint-order="fill" stroke="#E0E6F1" stroke-dasharray="" stroke-linecap="butt" stroke-miterlimit="10" stroke-opacity="1" stroke-width="1"></path><path d="M 65.3293 395.5 L 873.6 395.5" fill="none" my_fill="none" my_fill_opacity="1" my_font_size="16px" my_stoke="rgb(224, 230, 241)" my_stoke_opacity="1" my_stoke_width="1px" opacity="1" paint-order="fill" stroke="#E0E6F1" stroke-dasharray="" stroke-linecap="butt" stroke-miterlimit="10" stroke-opacity="1" stroke-width="1"></path><path d="M 65.3293 283.5 L 873.6 283.5" fill="none" my_fill="none" my_fill_opacity="1" my_font_size="16px" my_stoke="rgb(224, 230, 241)" my_stoke_opacity="1" my_stoke_width="1px" opacity="1" paint-order="fill" stroke="#E0E6F1" stroke-dasharray="" stroke-linecap="butt" stroke-miterlimit="10" stroke-opacity="1" stroke-width="1"></path><path d="M 65.3293 171.5 L 873.6 171.5" fill="none" my_fill="none" my_fill_opacity="1" my_font_size="16px" my_stoke="rgb(224, 230, 241)" my_stoke_opacity="1" my_stoke_width="1px" opacity="1" paint-order="fill" stroke="#E0E6F1" stroke-dasharray="" stroke-linecap="butt" stroke-miterlimit="10" stroke-opacity="1" stroke-width="1"></path><path d="M 65.3293 60.5 L 873.6 60.5" fill="none" my_fill="none" my_fill_opacity="1" my_font_size="16px" my_stoke="rgb(224, 230, 241)" my_stoke_opacity="1" my_stoke_width="1px" opacity="1" paint-order="fill" stroke="#E0E6F1" stroke-dasharray="" stroke-linecap="butt" stroke-miterlimit="10" stroke-opacity="1" stroke-width="1"></path><path d="M 65.3293 730.5 L 873.6 730.5" fill="none" my_fill="none" my_fill_opacity="1" my_font_size="16px" my_stoke="rgb(110, 112, 121)" my_stoke_opacity="1" my_stoke_width="1px" opacity="1" paint-order="fill" stroke="#6E7079" stroke-dasharray="" stroke-linecap="round" stroke-miterlimit="10" stroke-opacity="1" stroke-width="1"></path><path d="M 65.5 729.81 L 65.5 734.81" fill="none" my_fill="none" my_fill_opacity="1" my_font_size="16px" my_stoke="rgb(110, 112, 121)" my_stoke_opacity="1" my_stoke_width="1px" opacity="1" paint-order="fill" stroke="#6E7079" stroke-dasharray="" stroke-linecap="butt" stroke-miterlimit="10" stroke-opacity="1" stroke-width="1"></path><path d="M 200.5 729.81 L 200.5 734.81" fill="none" my_fill="none" my_fill_opacity="1" my_font_size="16px" my_stoke="rgb(110, 112, 121)" my_stoke_opacity="1" my_stoke_width="1px" opacity="1" paint-order="fill" stroke="#6E7079" stroke-dasharray="" stroke-linecap="butt" stroke-miterlimit="10" stroke-opacity="1" stroke-width="1"></path><path d="M 335.5 729.81 L 335.5 734.81" fill="none" my_fill="none" my_fill_opacity="1" my_font_size="16px" my_stoke="rgb(110, 112, 121)" my_stoke_opacity="1" my_stoke_width="1px" opacity="1" paint-order="fill" stroke="#6E7079" stroke-dasharray="" stroke-linecap="butt" stroke-miterlimit="10" stroke-opacity="1" stroke-width="1"></path><path d="M 469.5 729.81 L 469.5 734.81" fill="none" my_fill="none" my_fill_opacity="1" my_font_size="16px" my_stoke="rgb(110, 112, 121)" my_stoke_opacity="1" my_stoke_width="1px" opacity="1" paint-order="fill" stroke="#6E7079" stroke-dasharray="" stroke-linecap="butt" stroke-miterlimit="10" stroke-opacity="1" stroke-width="1"></path><path d="M 604.5 729.81 L 604.5 734.81" fill="none" my_fill="none" my_fill_opacity="1" my_font_size="16px" my_stoke="rgb(110, 112, 121)" my_stoke_opacity="1" my_stoke_width="1px" opacity="1" paint-order="fill" stroke="#6E7079" stroke-dasharray="" stroke-linecap="butt" stroke-miterlimit="10" stroke-opacity="1" stroke-width="1"></path><path d="M 739.5 729.81 L 739.5 734.81" fill="none" my_fill="none" my_fill_opacity="1" my_font_size="16px" my_stoke="rgb(110, 112, 121)" my_stoke_opacity="1" my_stoke_width="1px" opacity="1" paint-order="fill" stroke="#6E7079" stroke-dasharray="" stroke-linecap="butt" stroke-miterlimit="10" stroke-opacity="1" stroke-width="1"></path><path d="M 873.5 729.81 L 873.5 734.81" fill="none" my_fill="none" my_fill_opacity="1" my_font_size="16px" my_stoke="rgb(110, 112, 121)" my_stoke_opacity="1" my_stoke_width="1px" opacity="1" paint-order="fill" stroke="#6E7079" stroke-dasharray="" stroke-linecap="butt" stroke-miterlimit="10" stroke-opacity="1" stroke-width="1"></path><text clip-path="none" content="周一" dominant-baseline="central" fill="rgb(110, 112, 121)" fill-opacity="1" font-family='"Microsoft YaHei"' my_fill="rgb(110, 112, 121)" my_fill_opacity="1" my_font_size="12px" my_stoke="none" my_stoke_opacity="1" my_stoke_width="1px" opacity="1" stroke="none" stroke-opacity="1" stroke-width="1px" style='font: 12px "Microsoft YaHei"; fill: rgb(110, 112, 121);' text-anchor="middle" text_bbox='{"x":-13,"y":-2,"w":26,"h":16}' transform="matrix(1,0,0,1,65.3293,737.81)" x="0" xml:space="preserve" y="6">周一</text><text clip-path="none" content="周二" dominant-baseline="central" fill="rgb(110, 112, 121)" fill-opacity="1" font-family='"Microsoft YaHei"' my_fill="rgb(110, 112, 121)" my_fill_opacity="1" my_font_size="12px" my_stoke="none" my_stoke_opacity="1" my_stoke_width="1px" opacity="1" stroke="none" stroke-opacity="1" stroke-width="1px" style='font: 12px "Microsoft YaHei"; fill: rgb(110, 112, 121);' text-anchor="middle" text_bbox='{"x":-13,"y":-2,"w":25,"h":16}' transform="matrix(1,0,0,1,200.0411,737.81)" x="0" xml:space="preserve" y="6">周二</text><text clip-path="none" content="周三" dominant-baseline="central" fill="rgb(110, 112, 121)" fill-opacity="1" font-family='"Microsoft YaHei"' my_fill="rgb(110, 112, 121)" my_fill_opacity="1" my_font_size="12px" my_stoke="none" my_stoke_opacity="1" my_stoke_width="1px" opacity="1" stroke="none" stroke-opacity="1" stroke-width="1px" style='font: 12px "Microsoft YaHei"; fill: rgb(110, 112, 121);' text-anchor="middle" text_bbox='{"x":-13,"y":-2,"w":25,"h":16}' transform="matrix(1,0,0,1,334.7529,737.81)" x="0" xml:space="preserve" y="6">周三</text><text clip-path="none" content="周四" dominant-baseline="central" fill="rgb(110, 112, 121)" fill-opacity="1" font-family='"Microsoft YaHei"' my_fill="rgb(110, 112, 121)" my_fill_opacity="1" my_font_size="12px" my_stoke="none" my_stoke_opacity="1" my_stoke_width="1px" opacity="1" stroke="none" stroke-opacity="1" stroke-width="1px" style='font: 12px "Microsoft YaHei"; fill: rgb(110, 112, 121);' text-anchor="middle" text_bbox='{"x":-13,"y":-2,"w":25,"h":16}' transform="matrix(1,0,0,1,469.4646,737.81)" x="0" xml:space="preserve" y="6">周四</text><text clip-path="none" content="周五" dominant-baseline="central" fill="rgb(110, 112, 121)" fill-opacity="1" font-family='"Microsoft YaHei"' my_fill="rgb(110, 112, 121)" my_fill_opacity="1" my_font_size="12px" my_stoke="none" my_stoke_opacity="1" my_stoke_width="1px" opacity="1" stroke="none" stroke-opacity="1" stroke-width="1px" style='font: 12px "Microsoft YaHei"; fill: rgb(110, 112, 121);' text-anchor="middle" text_bbox='{"x":-13,"y":-2,"w":25,"h":16}' transform="matrix(1,0,0,1,604.1764,737.81)" x="0" xml:space="preserve" y="6">周五</text><text clip-path="none" content="周六" dominant-baseline="central" fill="rgb(110, 112, 121)" fill-opacity="1" font-family='"Microsoft YaHei"' my_fill="rgb(110, 112, 121)" my_fill_opacity="1" my_font_size="12px" my_stoke="none" my_stoke_opacity="1" my_stoke_width="1px" opacity="1" stroke="none" stroke-opacity="1" stroke-width="1px" style='font: 12px "Microsoft YaHei"; fill: rgb(110, 112, 121);' text-anchor="middle" text_bbox='{"x":-13,"y":-2,"w":26,"h":16}' transform="matrix(1,0,0,1,738.8882,737.81)" x="0" xml:space="preserve" y="6">周六</text><text clip-path="none" content="周日" dominant-baseline="central" fill="rgb(110, 112, 121)" fill-opacity="1" font-family='"Microsoft YaHei"' my_fill="rgb(110, 112, 121)" my_fill_opacity="1" my_font_size="12px" my_stoke="none" my_stoke_opacity="1" my_stoke_width="1px" opacity="1" stroke="none" stroke-opacity="1" stroke-width="1px" style='font: 12px "Microsoft YaHei"; fill: rgb(110, 112, 121);' text-anchor="middle" text_bbox='{"x":-13,"y":-2,"w":25,"h":16}' transform="matrix(1,0,0,1,873.6,737.81)" x="0" xml:space="preserve" y="6">周日</text><g clip-path="url(#zr2522-clip-0)"></g><g clip-path="url(#zr2522-clip-1)"></g><g clip-path="url(#zr2522-clip-2)"></g><g clip-path="url(#zr2522-clip-3)"></g><g clip-path="url(#zr2522-clip-4)"></g><path d="M 1 0 A 1 1 0 1 1 1 -0.0001" fill="rgb(255, 255, 255)" fill-opacity="1" my_fill="rgb(255, 255, 255)" my_fill_opacity="1" my_font_size="16px" my_stoke="rgb(84, 112, 198)" my_stoke_opacity="1" my_stoke_width="1px" opacity="1" paint-order="fill" stroke="#5470c6" stroke-dasharray="" stroke-linecap="butt" stroke-miterlimit="10" stroke-opacity="1" stroke-width="1" transform="matrix(2,0,0,2,65.3293,703.0176)"></path><path d="M 1 0 A 1 1 0 1 1 1 -0.0001" fill="rgb(255, 255, 255)" fill-opacity="1" my_fill="rgb(255, 255, 255)" my_fill_opacity="1" my_font_size="16px" my_stoke="rgb(84, 112, 198)" my_stoke_opacity="1" my_stoke_width="1px" opacity="1" paint-order="fill" stroke="#5470c6" stroke-dasharray="" stroke-linecap="butt" stroke-miterlimit="10" stroke-opacity="1" stroke-width="1" transform="matrix(2,0,0,2,200.0411,700.3384)"></path><path d="M 1 0 A 1 1 0 1 1 1 -0.0001" fill="rgb(255, 255, 255)" fill-opacity="1" my_fill="rgb(255, 255, 255)" my_fill_opacity="1" my_font_size="16px" my_stoke="rgb(84, 112, 198)" my_stoke_opacity="1" my_stoke_width="1px" opacity="1" paint-order="fill" stroke="#5470c6" stroke-dasharray="" stroke-linecap="butt" stroke-miterlimit="10" stroke-opacity="1" stroke-width="1" transform="matrix(2,0,0,2,334.7529,707.2597)"></path><path d="M 1 0 A 1 1 0 1 1 1 -0.0001" fill="rgb(255, 255, 255)" fill-opacity="1" my_fill="rgb(255, 255, 255)" my_fill_opacity="1" my_font_size="16px" my_stoke="rgb(84, 112, 198)" my_stoke_opacity="1" my_stoke_width="1px" opacity="1" paint-order="fill" stroke="#5470c6" stroke-dasharray="" stroke-linecap="butt" stroke-miterlimit="10" stroke-opacity="1" stroke-width="1" transform="matrix(2,0,0,2,469.4647,699.8918)"></path><path d="M 1 0 A 1 1 0 1 1 1 -0.0001" fill="rgb(255, 255, 255)" fill-opacity="1" my_fill="rgb(255, 255, 255)" my_fill_opacity="1" my_font_size="16px" my_stoke="rgb(84, 112, 198)" my_stoke_opacity="1" my_stoke_width="1px" opacity="1" paint-order="fill" stroke="#5470c6" stroke-dasharray="" stroke-linecap="butt" stroke-miterlimit="10" stroke-opacity="1" stroke-width="1" transform="matrix(2,0,0,2,604.1765,709.7157)"></path><path d="M 1 0 A 1 1 0 1 1 1 -0.0001" fill="rgb(255, 255, 255)" fill-opacity="1" my_fill="rgb(255, 255, 255)" my_fill_opacity="1" my_font_size="16px" my_stoke="rgb(84, 112, 198)" my_stoke_opacity="1" my_stoke_width="1px" opacity="1" paint-order="fill" stroke="#5470c6" stroke-dasharray="" stroke-linecap="butt" stroke-miterlimit="10" stroke-opacity="1" stroke-width="1" transform="matrix(2,0,0,2,738.8882,678.4579)"></path><path d="M 1 0 A 1 1 0 1 1 1 -0.0001" fill="rgb(255, 255, 255)" fill-opacity="1" my_fill="rgb(255, 255, 255)" my_fill_opacity="1" my_font_size="16px" my_stoke="rgb(84, 112, 198)" my_stoke_opacity="1" my_stoke_width="1px" opacity="1" paint-order="fill" stroke="#5470c6" stroke-dasharray="" stroke-linecap="butt" stroke-miterlimit="10" stroke-opacity="1" stroke-width="1" transform="matrix(2,0,0,2,873.6,682.9233)"></path><path d="M 1 0 A 1 1 0 1 1 1 -0.0001" fill="rgb(255, 255, 255)" fill-opacity="1" my_fill="rgb(255, 255, 255)" my_fill_opacity="1" my_font_size="16px" my_stoke="rgb(145, 204, 117)" my_stoke_opacity="1" my_stoke_width="1px" opacity="1" paint-order="fill" stroke="#91cc75" stroke-dasharray="" stroke-linecap="butt" stroke-miterlimit="10" stroke-opacity="1" stroke-width="1" transform="matrix(2,0,0,2,65.3293,653.8982)"></path><path d="M 1 0 A 1 1 0 1 1 1 -0.0001" fill="rgb(255, 255, 255)" fill-opacity="1" my_fill="rgb(255, 255, 255)" my_fill_opacity="1" my_font_size="16px" my_stoke="rgb(145, 204, 117)" my_stoke_opacity="1" my_stoke_width="1px" opacity="1" paint-order="fill" stroke="#91cc75" stroke-dasharray="" stroke-linecap="butt" stroke-miterlimit="10" stroke-opacity="1" stroke-width="1" transform="matrix(2,0,0,2,200.0411,659.7032)"></path><path d="M 1 0 A 1 1 0 1 1 1 -0.0001" fill="rgb(255, 255, 255)" fill-opacity="1" my_fill="rgb(255, 255, 255)" my_fill_opacity="1" my_font_size="16px" my_stoke="rgb(145, 204, 117)" my_stoke_opacity="1" my_stoke_width="1px" opacity="1" paint-order="fill" stroke="#91cc75" stroke-dasharray="" stroke-linecap="butt" stroke-miterlimit="10" stroke-opacity="1" stroke-width="1" transform="matrix(2,0,0,2,334.7529,664.6152)"></path><path d="M 1 0 A 1 1 0 1 1 1 -0.0001" fill="rgb(255, 255, 255)" fill-opacity="1" my_fill="rgb(255, 255, 255)" my_fill_opacity="1" my_font_size="16px" my_stoke="rgb(145, 204, 117)" my_stoke_opacity="1" my_stoke_width="1px" opacity="1" paint-order="fill" stroke="#91cc75" stroke-dasharray="" stroke-linecap="butt" stroke-miterlimit="10" stroke-opacity="1" stroke-width="1" transform="matrix(2,0,0,2,469.4647,647.6467)"></path><path d="M 1 0 A 1 1 0 1 1 1 -0.0001" fill="rgb(255, 255, 255)" fill-opacity="1" my_fill="rgb(255, 255, 255)" my_fill_opacity="1" my_font_size="16px" my_stoke="rgb(145, 204, 117)" my_stoke_opacity="1" my_stoke_width="1px" opacity="1" paint-order="fill" stroke="#91cc75" stroke-dasharray="" stroke-linecap="butt" stroke-miterlimit="10" stroke-opacity="1" stroke-width="1" transform="matrix(2,0,0,2,604.1765,644.9674)"></path><path d="M 1 0 A 1 1 0 1 1 1 -0.0001" fill="rgb(255, 255, 255)" fill-opacity="1" my_fill="rgb(255, 255, 255)" my_fill_opacity="1" my_font_size="16px" my_stoke="rgb(145, 204, 117)" my_stoke_opacity="1" my_stoke_width="1px" opacity="1" paint-order="fill" stroke="#91cc75" stroke-dasharray="" stroke-linecap="butt" stroke-miterlimit="10" stroke-opacity="1" stroke-width="1" transform="matrix(2,0,0,2,738.8882,604.7788)"></path><path d="M 1 0 A 1 1 0 1 1 1 -0.0001" fill="rgb(255, 255, 255)" fill-opacity="1" my_fill="rgb(255, 255, 255)" my_fill_opacity="1" my_font_size="16px" my_stoke="rgb(145, 204, 117)" my_stoke_opacity="1" my_stoke_width="1px" opacity="1" paint-order="fill" stroke="#91cc75" stroke-dasharray="" stroke-linecap="butt" stroke-miterlimit="10" stroke-opacity="1" stroke-width="1" transform="matrix(2,0,0,2,873.6,613.7096)"></path><path d="M 1 0 A 1 1 0 1 1 1 -0.0001" fill="rgb(255, 255, 255)" fill-opacity="1" my_fill="rgb(255, 255, 255)" my_fill_opacity="1" my_font_size="16px" my_stoke="rgb(250, 200, 88)" my_stoke_opacity="1" my_stoke_width="1px" opacity="1" paint-order="fill" stroke="#fac858" stroke-dasharray="" stroke-linecap="butt" stroke-miterlimit="10" stroke-opacity="1" stroke-width="1" transform="matrix(2,0,0,2,65.3293,620.4077)"></path><path d="M 1 0 A 1 1 0 1 1 1 -0.0001" fill="rgb(255, 255, 255)" fill-opacity="1" my_fill="rgb(255, 255, 255)" my_fill_opacity="1" my_font_size="16px" my_stoke="rgb(250, 200, 88)" my_stoke_opacity="1" my_stoke_width="1px" opacity="1" paint-order="fill" stroke="#fac858" stroke-dasharray="" stroke-linecap="butt" stroke-miterlimit="10" stroke-opacity="1" stroke-width="1" transform="matrix(2,0,0,2,200.0411,607.9046)"></path><path d="M 1 0 A 1 1 0 1 1 1 -0.0001" fill="rgb(255, 255, 255)" fill-opacity="1" my_fill="rgb(255, 255, 255)" my_fill_opacity="1" my_font_size="16px" my_stoke="rgb(250, 200, 88)" my_stoke_opacity="1" my_stoke_width="1px" opacity="1" paint-order="fill" stroke="#fac858" stroke-dasharray="" stroke-linecap="butt" stroke-miterlimit="10" stroke-opacity="1" stroke-width="1" transform="matrix(2,0,0,2,334.7529,619.7379)"></path><path d="M 1 0 A 1 1 0 1 1 1 -0.0001" fill="rgb(255, 255, 255)" fill-opacity="1" my_fill="rgb(255, 255, 255)" my_fill_opacity="1" my_font_size="16px" my_stoke="rgb(250, 200, 88)" my_stoke_opacity="1" my_stoke_width="1px" opacity="1" paint-order="fill" stroke="#fac858" stroke-dasharray="" stroke-linecap="butt" stroke-miterlimit="10" stroke-opacity="1" stroke-width="1" transform="matrix(2,0,0,2,469.4647,613.2631)"></path><path d="M 1 0 A 1 1 0 1 1 1 -0.0001" fill="rgb(255, 255, 255)" fill-opacity="1" my_fill="rgb(255, 255, 255)" my_fill_opacity="1" my_font_size="16px" my_stoke="rgb(250, 200, 88)" my_stoke_opacity="1" my_stoke_width="1px" opacity="1" paint-order="fill" stroke="#fac858" stroke-dasharray="" stroke-linecap="butt" stroke-miterlimit="10" stroke-opacity="1" stroke-width="1" transform="matrix(2,0,0,2,604.1765,602.5461)"></path><path d="M 1 0 A 1 1 0 1 1 1 -0.0001" fill="rgb(255, 255, 255)" fill-opacity="1" my_fill="rgb(255, 255, 255)" my_fill_opacity="1" my_font_size="16px" my_stoke="rgb(250, 200, 88)" my_stoke_opacity="1" my_stoke_width="1px" opacity="1" paint-order="fill" stroke="#fac858" stroke-dasharray="" stroke-linecap="butt" stroke-miterlimit="10" stroke-opacity="1" stroke-width="1" transform="matrix(2,0,0,2,738.8882,531.0997)"></path><path d="M 1 0 A 1 1 0 1 1 1 -0.0001" fill="rgb(255, 255, 255)" fill-opacity="1" my_fill="rgb(255, 255, 255)" my_fill_opacity="1" my_font_size="16px" my_stoke="rgb(250, 200, 88)" my_stoke_opacity="1" my_stoke_width="1px" opacity="1" paint-order="fill" stroke="#fac858" stroke-dasharray="" stroke-linecap="butt" stroke-miterlimit="10" stroke-opacity="1" stroke-width="1" transform="matrix(2,0,0,2,873.6,522.1689)"></path><path d="M 1 0 A 1 1 0 1 1 1 -0.0001" fill="rgb(255, 255, 255)" fill-opacity="1" my_fill="rgb(255, 255, 255)" my_fill_opacity="1" my_font_size="16px" my_stoke="rgb(238, 102, 102)" my_stoke_opacity="1" my_stoke_width="1px" opacity="1" paint-order="fill" stroke="#ee6666" stroke-dasharray="" stroke-linecap="butt" stroke-miterlimit="10" stroke-opacity="1" stroke-width="1" transform="matrix(2,0,0,2,65.3293,548.9613)"></path><path d="M 1 0 A 1 1 0 1 1 1 -0.0001" fill="rgb(255, 255, 255)" fill-opacity="1" my_fill="rgb(255, 255, 255)" my_fill_opacity="1" my_font_size="16px" my_stoke="rgb(238, 102, 102)" my_stoke_opacity="1" my_stoke_width="1px" opacity="1" paint-order="fill" stroke="#ee6666" stroke-dasharray="" stroke-linecap="butt" stroke-miterlimit="10" stroke-opacity="1" stroke-width="1" transform="matrix(2,0,0,2,200.0411,533.7789)"></path><path d="M 1 0 A 1 1 0 1 1 1 -0.0001" fill="rgb(255, 255, 255)" fill-opacity="1" my_fill="rgb(255, 255, 255)" my_fill_opacity="1" my_font_size="16px" my_stoke="rgb(238, 102, 102)" my_stoke_opacity="1" my_stoke_width="1px" opacity="1" paint-order="fill" stroke="#ee6666" stroke-dasharray="" stroke-linecap="butt" stroke-miterlimit="10" stroke-opacity="1" stroke-width="1" transform="matrix(2,0,0,2,334.7529,552.5336)"></path><path d="M 1 0 A 1 1 0 1 1 1 -0.0001" fill="rgb(255, 255, 255)" fill-opacity="1" my_fill="rgb(255, 255, 255)" my_fill_opacity="1" my_font_size="16px" my_stoke="rgb(238, 102, 102)" my_stoke_opacity="1" my_stoke_width="1px" opacity="1" paint-order="fill" stroke="#ee6666" stroke-dasharray="" stroke-linecap="butt" stroke-miterlimit="10" stroke-opacity="1" stroke-width="1" transform="matrix(2,0,0,2,469.4647,538.6909)"></path><path d="M 1 0 A 1 1 0 1 1 1 -0.0001" fill="rgb(255, 255, 255)" fill-opacity="1" my_fill="rgb(255, 255, 255)" my_fill_opacity="1" my_font_size="16px" my_stoke="rgb(238, 102, 102)" my_stoke_opacity="1" my_stoke_width="1px" opacity="1" paint-order="fill" stroke="#ee6666" stroke-dasharray="" stroke-linecap="butt" stroke-miterlimit="10" stroke-opacity="1" stroke-width="1" transform="matrix(2,0,0,2,604.1765,515.4708)"></path><path d="M 1 0 A 1 1 0 1 1 1 -0.0001" fill="rgb(255, 255, 255)" fill-opacity="1" my_fill="rgb(255, 255, 255)" my_fill_opacity="1" my_font_size="16px" my_stoke="rgb(238, 102, 102)" my_stoke_opacity="1" my_stoke_width="1px" opacity="1" paint-order="fill" stroke="#ee6666" stroke-dasharray="" stroke-linecap="butt" stroke-miterlimit="10" stroke-opacity="1" stroke-width="1" transform="matrix(2,0,0,2,738.8882,457.4206)"></path><path d="M 1 0 A 1 1 0 1 1 1 -0.0001" fill="rgb(255, 255, 255)" fill-opacity="1" my_fill="rgb(255, 255, 255)" my_fill_opacity="1" my_font_size="16px" my_stoke="rgb(238, 102, 102)" my_stoke_opacity="1" my_stoke_width="1px" opacity="1" paint-order="fill" stroke="#ee6666" stroke-dasharray="" stroke-linecap="butt" stroke-miterlimit="10" stroke-opacity="1" stroke-width="1" transform="matrix(2,0,0,2,873.6,450.7225)"></path><path d="M 1 0 A 1 1 0 1 1 1 -0.0001" fill="rgb(255, 255, 255)" fill-opacity="1" my_fill="rgb(255, 255, 255)" my_fill_opacity="1" my_font_size="16px" my_stoke="rgb(115, 192, 222)" my_stoke_opacity="1" my_stoke_width="1px" opacity="1" paint-order="fill" stroke="#73c0de" stroke-dasharray="" stroke-linecap="butt" stroke-miterlimit="10" stroke-opacity="1" stroke-width="1" transform="matrix(2,0,0,2,65.3293,365.8799)"></path><path d="M 1 0 A 1 1 0 1 1 1 -0.0001" fill="rgb(255, 255, 255)" fill-opacity="1" my_fill="rgb(255, 255, 255)" my_fill_opacity="1" my_font_size="16px" my_stoke="rgb(115, 192, 222)" my_stoke_opacity="1" my_stoke_width="1px" opacity="1" paint-order="fill" stroke="#73c0de" stroke-dasharray="" stroke-linecap="butt" stroke-miterlimit="10" stroke-opacity="1" stroke-width="1" transform="matrix(2,0,0,2,200.0411,325.6913)"></path><path d="M 1 0 A 1 1 0 1 1 1 -0.0001" fill="rgb(255, 255, 255)" fill-opacity="1" my_fill="rgb(255, 255, 255)" my_fill_opacity="1" my_font_size="16px" my_stoke="rgb(115, 192, 222)" my_stoke_opacity="1" my_stoke_width="1px" opacity="1" paint-order="fill" stroke="#73c0de" stroke-dasharray="" stroke-linecap="butt" stroke-miterlimit="10" stroke-opacity="1" stroke-width="1" transform="matrix(2,0,0,2,334.7529,351.3673)"></path><path d="M 1 0 A 1 1 0 1 1 1 -0.0001" fill="rgb(255, 255, 255)" fill-opacity="1" my_fill="rgb(255, 255, 255)" my_fill_opacity="1" my_font_size="16px" my_stoke="rgb(115, 192, 222)" my_stoke_opacity="1" my_stoke_width="1px" opacity="1" paint-order="fill" stroke="#73c0de" stroke-dasharray="" stroke-linecap="butt" stroke-miterlimit="10" stroke-opacity="1" stroke-width="1" transform="matrix(2,0,0,2,469.4647,330.1567)"></path><path d="M 1 0 A 1 1 0 1 1 1 -0.0001" fill="rgb(255, 255, 255)" fill-opacity="1" my_fill="rgb(255, 255, 255)" my_fill_opacity="1" my_font_size="16px" my_stoke="rgb(115, 192, 222)" my_stoke_opacity="1" my_stoke_width="1px" opacity="1" paint-order="fill" stroke="#73c0de" stroke-dasharray="" stroke-linecap="butt" stroke-miterlimit="10" stroke-opacity="1" stroke-width="1" transform="matrix(2,0,0,2,604.1765,227.4525)"></path><path d="M 1 0 A 1 1 0 1 1 1 -0.0001" fill="rgb(255, 255, 255)" fill-opacity="1" my_fill="rgb(255, 255, 255)" my_fill_opacity="1" my_font_size="16px" my_stoke="rgb(115, 192, 222)" my_stoke_opacity="1" my_stoke_width="1px" opacity="1" paint-order="fill" stroke="#73c0de" stroke-dasharray="" stroke-linecap="butt" stroke-miterlimit="10" stroke-opacity="1" stroke-width="1" transform="matrix(2,0,0,2,738.8882,160.4715)"></path><path d="M 1 0 A 1 1 0 1 1 1 -0.0001" fill="rgb(255, 255, 255)" fill-opacity="1" my_fill="rgb(255, 255, 255)" my_fill_opacity="1" my_font_size="16px" my_stoke="rgb(115, 192, 222)" my_stoke_opacity="1" my_stoke_width="1px" opacity="1" paint-order="fill" stroke="#73c0de" stroke-dasharray="" stroke-linecap="butt" stroke-miterlimit="10" stroke-opacity="1" stroke-width="1" transform="matrix(2,0,0,2,873.6,156.0061)"></path><path d="M -5 -5 L 440 -5 L 440 18.2 L -5 18.2 L -5 -5 Z" fill="rgb(0, 0, 0)" fill-opacity="0" my_fill="rgb(0, 0, 0)" my_fill_opacity="0" my_font_size="16px" my_stoke="rgb(204, 204, 204)" my_stoke_opacity="1" my_stoke_width="0px" opacity="1" paint-order="fill" stroke="#ccc" stroke-dasharray="" stroke-linecap="butt" stroke-miterlimit="10" stroke-opacity="1" stroke-width="0" transform="matrix(1,0,0,1,237.5,5)"></path><path d="M 0 7 L 25 7" fill="rgb(0, 0, 0)" fill-opacity="1" my_fill="rgb(0, 0, 0)" my_fill_opacity="1" my_font_size="16px" my_stoke="rgb(84, 112, 198)" my_stoke_opacity="1" my_stoke_width="2px" opacity="1" paint-order="fill" stroke="#5470c6" stroke-dasharray="" stroke-opacity="1" stroke-width="2" transform="matrix(1,0,0,1,238.5,4.6)"></path><path d="M 18.1 7 A 5.6 5.6 0 1 1 18.1 6.9994" fill="rgb(255, 255, 255)" fill-opacity="1" my_fill="rgb(255, 255, 255)" my_fill_opacity="1" my_font_size="16px" my_stoke="rgb(84, 112, 198)" my_stoke_opacity="1" my_stoke_width="2px" opacity="1" paint-order="fill" stroke="#5470c6" stroke-dasharray="" stroke-opacity="1" stroke-width="2" transform="matrix(1,0,0,1,238.5,4.6)"></path><text clip-path="none" content="邮件营销" dominant-baseline="central" fill="rgb(51, 51, 51)" fill-opacity="1" font-family='"Microsoft YaHei"' my_fill="rgb(51, 51, 51)" my_fill_opacity="1" my_font_size="12px" my_stoke="none" my_stoke_opacity="1" my_stoke_width="1px" opacity="1" stroke="none" stroke-opacity="1" stroke-width="1px" style='font: 12px "Microsoft YaHei"; fill: rgb(51, 51, 51);' text-anchor="start" text_bbox='{"x":30,"y":-1,"w":48,"h":16}' transform="matrix(1,0,0,1,238.5,4.6)" x="30" xml:space="preserve" y="7">邮件营销</text><path d="M 0 7 L 25 7" fill="rgb(0, 0, 0)" fill-opacity="1" my_fill="rgb(0, 0, 0)" my_fill_opacity="1" my_font_size="16px" my_stoke="rgb(145, 204, 117)" my_stoke_opacity="1" my_stoke_width="2px" opacity="1" paint-order="fill" stroke="#91cc75" stroke-dasharray="" stroke-opacity="1" stroke-width="2" transform="matrix(1,0,0,1,327.5,4.6)"></path><path d="M 18.1 7 A 5.6 5.6 0 1 1 18.1 6.9994" fill="rgb(255, 255, 255)" fill-opacity="1" my_fill="rgb(255, 255, 255)" my_fill_opacity="1" my_font_size="16px" my_stoke="rgb(145, 204, 117)" my_stoke_opacity="1" my_stoke_width="2px" opacity="1" paint-order="fill" stroke="#91cc75" stroke-dasharray="" stroke-opacity="1" stroke-width="2" transform="matrix(1,0,0,1,327.5,4.6)"></path><text clip-path="none" content="联盟广告" dominant-baseline="central" fill="rgb(51, 51, 51)" fill-opacity="1" font-family='"Microsoft YaHei"' my_fill="rgb(51, 51, 51)" my_fill_opacity="1" my_font_size="12px" my_stoke="none" my_stoke_opacity="1" my_stoke_width="1px" opacity="1" stroke="none" stroke-opacity="1" stroke-width="1px" style='font: 12px "Microsoft YaHei"; fill: rgb(51, 51, 51);' text-anchor="start" text_bbox='{"x":29,"y":-1,"w":50,"h":16}' transform="matrix(1,0,0,1,327.5,4.6)" x="30" xml:space="preserve" y="7">联盟广告</text><path d="M 0 7 L 25 7" fill="rgb(0, 0, 0)" fill-opacity="1" my_fill="rgb(0, 0, 0)" my_fill_opacity="1" my_font_size="16px" my_stoke="rgb(250, 200, 88)" my_stoke_opacity="1" my_stoke_width="2px" opacity="1" paint-order="fill" stroke="#fac858" stroke-dasharray="" stroke-opacity="1" stroke-width="2" transform="matrix(1,0,0,1,416.5,4.6)"></path><path d="M 18.1 7 A 5.6 5.6 0 1 1 18.1 6.9994" fill="rgb(255, 255, 255)" fill-opacity="1" my_fill="rgb(255, 255, 255)" my_fill_opacity="1" my_font_size="16px" my_stoke="rgb(250, 200, 88)" my_stoke_opacity="1" my_stoke_width="2px" opacity="1" paint-order="fill" stroke="#fac858" stroke-dasharray="" stroke-opacity="1" stroke-width="2" transform="matrix(1,0,0,1,416.5,4.6)"></path><text clip-path="none" content="视频广告" dominant-baseline="central" fill="rgb(51, 51, 51)" fill-opacity="1" font-family='"Microsoft YaHei"' my_fill="rgb(51, 51, 51)" my_fill_opacity="1" my_font_size="12px" my_stoke="none" my_stoke_opacity="1" my_stoke_width="1px" opacity="1" stroke="none" stroke-opacity="1" stroke-width="1px" style='font: 12px "Microsoft YaHei"; fill: rgb(51, 51, 51);' text-anchor="start" text_bbox='{"x":29,"y":-1,"w":50,"h":16}' transform="matrix(1,0,0,1,416.5,4.6)" x="30" xml:space="preserve" y="7">视频广告</text><path d="M 0 7 L 25 7" fill="rgb(0, 0, 0)" fill-opacity="1" my_fill="rgb(0, 0, 0)" my_fill_opacity="1" my_font_size="16px" my_stoke="rgb(238, 102, 102)" my_stoke_opacity="1" my_stoke_width="2px" opacity="1" paint-order="fill" stroke="#ee6666" stroke-dasharray="" stroke-opacity="1" stroke-width="2" transform="matrix(1,0,0,1,505.5,4.6)"></path><path d="M 18.1 7 A 5.6 5.6 0 1 1 18.1 6.9994" fill="rgb(255, 255, 255)" fill-opacity="1" my_fill="rgb(255, 255, 255)" my_fill_opacity="1" my_font_size="16px" my_stoke="rgb(238, 102, 102)" my_stoke_opacity="1" my_stoke_width="2px" opacity="1" paint-order="fill" stroke="#ee6666" stroke-dasharray="" stroke-opacity="1" stroke-width="2" transform="matrix(1,0,0,1,505.5,4.6)"></path><text clip-path="none" content="直接访问" dominant-baseline="central" fill="rgb(51, 51, 51)" fill-opacity="1" font-family='"Microsoft YaHei"' my_fill="rgb(51, 51, 51)" my_fill_opacity="1" my_font_size="12px" my_stoke="none" my_stoke_opacity="1" my_stoke_width="1px" opacity="1" stroke="none" stroke-opacity="1" stroke-width="1px" style='font: 12px "Microsoft YaHei"; fill: rgb(51, 51, 51);' text-anchor="start" text_bbox='{"x":29,"y":-1,"w":49,"h":16}' transform="matrix(1,0,0,1,505.5,4.6)" x="30" xml:space="preserve" y="7">直接访问</text><path d="M 0 7 L 25 7" fill="rgb(0, 0, 0)" fill-opacity="1" my_fill="rgb(0, 0, 0)" my_fill_opacity="1" my_font_size="16px" my_stoke="rgb(115, 192, 222)" my_stoke_opacity="1" my_stoke_width="2px" opacity="1" paint-order="fill" stroke="#73c0de" stroke-dasharray="" stroke-opacity="1" stroke-width="2" transform="matrix(1,0,0,1,594.5,4.6)"></path><path d="M 18.1 7 A 5.6 5.6 0 1 1 18.1 6.9994" fill="rgb(255, 255, 255)" fill-opacity="1" my_fill="rgb(255, 255, 255)" my_fill_opacity="1" my_font_size="16px" my_stoke="rgb(115, 192, 222)" my_stoke_opacity="1" my_stoke_width="2px" opacity="1" paint-order="fill" stroke="#73c0de" stroke-dasharray="" stroke-opacity="1" stroke-width="2" transform="matrix(1,0,0,1,594.5,4.6)"></path><text clip-path="none" content="搜索引擎" dominant-baseline="central" fill="rgb(51, 51, 51)" fill-opacity="1" font-family='"Microsoft YaHei"' my_fill="rgb(51, 51, 51)" my_fill_opacity="1" my_font_size="12px" my_stoke="none" my_stoke_opacity="1" my_stoke_width="1px" opacity="1" stroke="none" stroke-opacity="1" stroke-width="1px" style='font: 12px "Microsoft YaHei"; fill: rgb(51, 51, 51);' text-anchor="start" text_bbox='{"x":29,"y":-1,"w":50,"h":16}' transform="matrix(1,0,0,1,594.5,4.6)" x="30" xml:space="preserve" y="7">搜索引擎</text><path d="M -13.9784 -15 L 13.9784 -15 L 13.9784 15 L -13.9784 15 L -13.9784 -15 Z" fill="none" fill-opacity="1" my_fill="none" my_fill_opacity="1" my_font_size="16px" my_stoke="rgb(204, 204, 204)" my_stoke_opacity="1" my_stoke_width="0px" opacity="1" paint-order="fill" stroke="#ccc" stroke-dasharray="" stroke-linecap="butt" stroke-miterlimit="10" stroke-opacity="1" stroke-width="0" transform="matrix(1,0,0,1,896.0216,15)"></path><path d="M -5 -5 L 95 -5 L 95 23 L -5 23 L -5 -5 Z" fill="rgb(0, 0, 0)" fill-opacity="0" my_fill="rgb(0, 0, 0)" my_fill_opacity="0" my_font_size="16px" my_stoke="rgb(204, 204, 204)" my_stoke_opacity="1" my_stoke_width="0px" opacity="1" paint-order="fill" stroke="#ccc" stroke-dasharray="" stroke-linecap="butt" stroke-miterlimit="10" stroke-opacity="1" stroke-width="0" transform="matrix(1,0,0,1,5,5)"></path><text clip-path="none" content="折线图堆叠" dominant-baseline="central" fill="rgb(70, 70, 70)" fill-opacity="1" font-family='"Microsoft YaHei"' my_fill="rgb(70, 70, 70)" my_fill_opacity="1" my_font_size="18px" my_stoke="none" my_stoke_opacity="1" my_stoke_width="1px" opacity="1" stroke="none" stroke-opacity="1" stroke-width="1px" style='font: bold 18px "Microsoft YaHei"; fill: rgb(70, 70, 70);' text-anchor="start" text_bbox='{"x":0,"y":-3,"w":91,"h":24}' transform="matrix(1,0,0,1,5,5)" x="0" xml:space="preserve" y="9">折线图堆叠</text></g></svg>