<svg baseProfile="full" height="773" style="user-select: none; position: absolute; left: 0px; top: 0px;" transform_matrix='{"a":1,"b":0,"c":0,"d":1,"e":0,"f":0}' version="1.1" width="910" xmlns="http://www.w3.org/2000/svg" xmlns:xlink="http://www.w3.org/1999/xlink"><g><path d="M 179.3186 313.5053 L 189.0343 313.4222 L 204.293 313.6714 L 216.064 313.6714 L 216.1262 339.9121 L 216.064 359.0945 L 230.6999 372.7131 L 244.5261 386.0826 L 255.4251 396.9609 L 263.2725 405.0159 L 277.0987 419.714 L 277.0987 421.6239 L 278.9671 424.1152 L 280.5241 428.1011 L 282.7662 430.2602 L 281.396 432.2531 L 279.5899 433.2496 L 278.2198 435.9069 L 278.6557 439.4776 L 278.3443 441.7197 L 276.0399 443.8788 L 276.7873 449.5255 L 278.3443 449.6086 L 278.9671 452.432 L 278.3443 453.7606 L 276.1022 454.3419 L 261.0304 455.7536 L 248.7612 457.0822 L 247.391 455.0892 L 247.3287 451.9337 L 246.4568 448.1969 L 244.8375 445.5396 L 241.2875 441.8858 L 236.741 438.4812 L 235.8691 439.3946 L 234.1253 438.8133 L 234.3744 437.3186 L 232.3814 434.2461 L 229.7034 434.9104 L 224.9701 432.6683 L 224.285 430.8414 L 221.1087 428.5993 L 217.4964 428.6824 L 214.507 427.6859 L 210.7079 428.1011 L 208.7149 426.1081 L 209.1509 421.8731 L 208.4658 421.2087 L 208.9017 418.2193 L 205.9123 415.9772 L 205.7877 412.9047 L 204.6667 412.7386 L 202.7983 410.0813 L 201.4904 409.5 L 200.9299 407.8392 L 196.5702 401.6112 L 194.515 399.7843 L 194.079 394.8849 L 194.9509 395.3001 L 195.7606 392.3937 L 194.1413 389.7364 L 192.1483 390.0686 L 189.5325 387.6604 L 188.5983 385.7505 L 188.7852 383.9236 L 187.4773 381.5154 L 187.4773 377.5295 L 189.5948 377.5295 L 188.7229 371.9658 L 187.7887 372.547 L 187.6018 375.2874 L 185.3598 375.8687 L 182.6817 373.7926 L 182.2457 370.2219 L 180.5019 367.3985 L 178.1975 365.6547 L 176.9519 363.6617 L 173.5888 359.7588 L 174.1493 358.5962 L 172.5923 353.5308 L 173.2774 350.7074 L 172.2809 346.4723 L 169.3537 342.3203 L 166.4888 339.9952 L 165.9283 337.2548 L 168.7932 330.6116 L 169.3537 328.3695 L 168.7932 326.6257 L 169.8519 322.0584 L 168.9177 317.9064 L 167.6721 316.9099 L 168.1704 313.5883 L 179.3186 313.5053 Z" fill="rgb(165, 0, 38)" fill-opacity="1" my_fill="rgb(165, 0, 38)" my_fill_opacity="1" my_font_size="16px" my_stoke="rgb(68, 68, 68)" my_stoke_opacity="1" my_stoke_width="0.5px" opacity="1" paint-order="fill" stroke="#444" stroke-dasharray="" stroke-linecap="butt" stroke-miterlimit="10" stroke-opacity="1" stroke-width="0.5"></path><path d="M 723.0883 346.8875 L 722.0295 348.7144 L 720.8462 349.7109 L 721.0953 352.1191 L 722.7769 354.3612 L 723.2128 358.098 L 725.6418 362.0009 L 726.7628 362.167 L 727.2611 367.3985 L 719.912 367.2324 L 718.8532 348.1331 L 720.7839 346.4723 L 723.0883 346.8875 Z" fill="rgb(51, 61, 152)" fill-opacity="1" my_fill="rgb(51, 61, 152)" my_fill_opacity="1" my_font_size="16px" my_stoke="rgb(68, 68, 68)" my_stoke_opacity="1" my_stoke_width="0.5px" opacity="1" paint-order="fill" stroke="#444" stroke-dasharray="" stroke-linecap="butt" stroke-miterlimit="10" stroke-opacity="1" stroke-width="0.5"></path><path d="M 704.6533 359.1775 L 706.0857 360.6722 L 704.591 362.25 L 703.7191 360.091 L 704.6533 359.1775 Z" fill="rgb(50, 56, 150)" fill-opacity="1" my_fill="rgb(50, 56, 150)" my_fill_opacity="1" my_font_size="16px" my_stoke="rgb(68, 68, 68)" my_stoke_opacity="1" my_stoke_width="0.5px" opacity="1" paint-order="fill" stroke="#444" stroke-dasharray="" stroke-linecap="butt" stroke-miterlimit="10" stroke-opacity="1" stroke-width="0.5"></path><path d="M 261.0304 207.4626 L 261.0304 222.9912 L 264.7049 227.2262 L 264.7672 231.3783 L 266.947 233.2051 L 269.2514 233.8695 L 269.5005 234.949 L 273.7356 239.018 L 274.2338 240.6788 L 277.2233 242.2565 L 277.3478 243.253 L 280.6487 243.17 L 279.0294 248.8167 L 278.718 252.3875 L 279.9013 254.7126 L 277.8461 256.3734 L 278.6557 257.9512 L 278.0952 259.612 L 280.5241 261.1898 L 283.3267 259.1138 L 284.4478 257.453 L 286.503 258.9477 L 286.1916 260.1933 L 287.3127 263.0997 L 289.1811 266.1722 L 290.5513 267.2517 L 290.489 270.1581 L 291.7969 271.4038 L 294.1635 271.5698 L 295.6583 276.4692 L 296.9661 277.2996 L 298.1495 275.8879 L 301.6994 275.971 L 304.3152 274.6423 L 305.8722 275.3897 L 308.5503 274.7254 L 309.1108 275.5558 L 311.4152 274.9745 L 314.031 271.819 L 315.8371 274.4763 L 317.8923 276.054 L 317.8923 313.5883 L 305.1871 313.6714 L 283.825 313.6714 L 249.8822 313.5883 L 249.8822 285.8528 L 251.3769 280.8704 L 250.4427 279.6248 L 248.2629 279.3756 L 247.4533 277.2996 L 249.7576 271.902 L 250.941 271.4038 L 252.1243 269.1617 L 251.9375 267.75 L 253.2453 265.9231 L 253.9304 263.2658 L 256.2971 258.7816 L 255.3629 256.7056 L 252.6848 255.6261 L 251.1278 253.0518 L 251.0655 250.3945 L 249.5708 247.7372 L 249.7576 246.4916 L 249.6954 226.2297 L 249.8199 207.4626 L 261.0304 207.4626 Z" fill="rgb(55, 72, 158)" fill-opacity="1" my_fill="rgb(55, 72, 158)" my_fill_opacity="1" my_font_size="16px" my_stoke="rgb(68, 68, 68)" my_stoke_opacity="1" my_stoke_width="0.5px" opacity="1" paint-order="fill" stroke="#444" stroke-dasharray="" stroke-linecap="butt" stroke-miterlimit="10" stroke-opacity="1" stroke-width="0.5"></path><path d="M 541.6656 290.8352 L 543.4095 290.8352 L 543.534 293.0773 L 545.2156 294.572 L 543.8454 296.3989 L 544.2191 299.8036 L 545.091 302.2118 L 549.1393 303.9556 L 549.9489 305.8655 L 552.4401 308.6059 L 552.7515 310.1836 L 555.305 311.6784 L 555.6164 313.5883 L 555.1804 316.4947 L 553.6857 317.4912 L 553.312 319.8163 L 549.7621 321.7263 L 545.3402 322.4736 L 544.5928 325.1309 L 546.4612 327.29 L 546.2744 329.9473 L 544.7796 331.442 L 544.4682 333.7671 L 541.2919 335.4279 L 541.1051 338.1683 L 539.8595 337.67 L 537.5551 334.5975 L 536.3718 334.6806 L 520.1789 335.0958 L 504.5465 335.2619 L 491.6545 335.0127 L 490.3466 333.0198 L 490.9694 329.1169 L 489.8484 325.7122 L 489.9107 321.8924 L 487.9177 320.5637 L 487.6063 318.4877 L 488.2914 316.6608 L 487.544 314.0035 L 485.987 313.007 L 483.9317 306.1977 L 481.8142 302.8761 L 482.8107 300.634 L 483.1844 297.6445 L 484.0563 296.565 L 482.6239 295.0703 L 482.9975 292.413 L 482.3747 291.1674 L 483.8695 290.8352 L 541.6656 290.8352 Z" fill="rgb(63, 97, 170)" fill-opacity="1" my_fill="rgb(63, 97, 170)" my_fill_opacity="1" my_font_size="16px" my_stoke="rgb(68, 68, 68)" my_stoke_opacity="1" my_stoke_width="0.5px" opacity="1" paint-order="fill" stroke="#444" stroke-dasharray="" stroke-linecap="butt" stroke-miterlimit="10" stroke-opacity="1" stroke-width="0.5"></path><path d="M 736.4785 326.6257 L 740.2776 328.7847 L 738.9075 333.1859 L 737.0391 334.1823 L 736.0426 336.5075 L 739.1566 337.67 L 739.4057 339.4139 L 738.0355 347.5518 L 734.4856 353.6138 L 732.1812 355.3577 L 730.1259 359.1775 L 729.0672 356.6863 L 725.7663 355.4407 L 721.7181 352.1191 L 721.469 349.877 L 721.4067 349.5448 L 722.0295 348.7144 L 723.0883 346.8875 L 726.14 345.6419 L 726.3268 344.4793 L 729.8145 341.9881 L 730.3751 340.6595 L 727.1365 337.587 L 727.0119 335.6771 L 725.5795 335.1788 L 725.4549 333.435 L 727.1988 330.7777 L 726.2646 329.1999 L 729.1295 326.0444 L 729.7523 324.3836 L 731.247 323.304 L 736.4785 326.6257 Z" fill="rgb(129, 183, 215)" fill-opacity="1" my_fill="rgb(129, 183, 215)" my_fill_opacity="1" my_font_size="16px" my_stoke="rgb(68, 68, 68)" my_stoke_opacity="1" my_stoke_width="0.5px" opacity="1" paint-order="fill" stroke="#444" stroke-dasharray="" stroke-linecap="butt" stroke-miterlimit="10" stroke-opacity="1" stroke-width="0.5"></path><path d="M 665.043 313.9205 L 665.043 334.2654 L 663.3614 335.0958 L 664.1711 336.7566 L 664.1088 339.0817 L 662.5518 342.7355 L 661.493 348.2992 L 657.0711 353.1986 L 655.6386 353.8629 L 654.393 352.8664 L 653.0852 355.0255 L 651.7773 354.9425 L 650.3448 357.8489 L 650.6562 359.5927 L 649.4729 361.0044 L 647.7913 358.6793 L 645.6738 362.3331 L 646.2343 364.6582 L 644.8641 365.4886 L 644.4282 367.4816 L 641.4387 367.8137 L 639.8817 365.7377 L 638.5738 365.3225 L 638.0756 362.7483 L 636.4563 363.2465 L 635.2107 364.7412 L 630.9134 363.5787 L 629.1072 364.6582 L 626.5537 362.5822 L 623.0037 362.0009 L 622.8169 360.6722 L 620.5125 357.5167 L 616.1529 357.5167 L 616.3398 336.3414 L 616.2775 318.2386 L 631.6607 317.6573 L 636.0826 319.7333 L 637.5773 320.9789 L 638.6984 319.8163 L 641.1896 322.2245 L 642.7466 322.9719 L 648.0404 320.9789 L 651.1545 321.3941 L 654.5176 318.5707 L 659.4377 315.8304 L 665.043 313.9205 Z" fill="rgb(168, 215, 232)" fill-opacity="1" my_fill="rgb(168, 215, 232)" my_fill_opacity="1" my_font_size="16px" my_stoke="rgb(68, 68, 68)" my_stoke_opacity="1" my_stoke_width="0.5px" opacity="1" paint-order="fill" stroke="#444" stroke-dasharray="" stroke-linecap="butt" stroke-miterlimit="10" stroke-opacity="1" stroke-width="0.5"></path><path d="M 422.897 396.9609 L 443.5118 396.9609 L 443.5118 426.3573 L 444.3837 426.1912 L 446.9372 429.0976 L 448.3074 428.5993 L 451.9196 428.7654 L 452.7293 431.6718 L 455.0337 431.5058 L 457.5249 432.8344 L 459.767 432.6683 L 460.7012 433.9139 L 462.1336 432.5022 L 464.3134 433.1666 L 465.2476 434.8274 L 466.8669 435.0765 L 467.7388 437.1525 L 469.7318 435.1595 L 472.4099 436.3221 L 473.4064 437.5677 L 474.7142 436.9864 L 475.6484 438.8964 L 478.5133 435.4917 L 479.323 437.2356 L 481.8142 437.2356 L 484.1809 438.3151 L 485.0528 439.6437 L 487.2949 437.3186 L 489.7238 436.5712 L 490.8449 437.4016 L 493.5229 435.9069 L 494.1457 436.7373 L 497.0729 436.8203 L 497.8203 435.4917 L 500.7474 436.9864 L 501.8685 438.7303 L 506.2281 440.3911 L 507.4114 441.8028 L 509.6535 441.0554 L 511.2728 441.7197 L 511.2728 449.7747 L 511.2728 465.3032 L 513.764 468.6248 L 513.8263 471.9465 L 516.9403 478.0915 L 517.1272 481.33 L 515.9438 485.2329 L 514.8228 486.8107 L 515.1965 488.8867 L 514.3868 490.4645 L 515.2588 493.3709 L 512.5807 498.7685 L 513.5772 500.2633 L 511.7088 500.3463 L 505.7921 502.4223 L 503.6746 501.2597 L 503.3009 498.7685 L 501.8062 500.5124 L 500.7474 500.0972 L 500.1869 502.2562 L 501.3702 503.1697 L 501.5571 505.9931 L 499.4395 508.9825 L 496.0141 512.7193 L 489.1633 516.7053 L 488.4782 516.0409 L 486.4229 517.0374 L 486.3607 516.124 L 483.5581 516.7883 L 482.2502 514.8784 L 481.4405 515.2936 L 484.43 519.1965 L 482.2502 520.4421 L 480.1949 519.6947 L 479.8835 522.4351 L 477.33 525.2584 L 474.7142 530.49 L 473.0327 535.9707 L 471.7871 535.5555 L 471.4757 537.5484 L 472.7836 537.0502 L 472.1608 541.0361 L 471.2888 541.2022 L 471.2265 543.4443 L 472.2853 544.6899 L 472.5967 549.2571 L 473.8423 550.8349 L 474.1537 553.7413 L 475.1502 556.3156 L 471.6625 557.8933 L 470.2301 555.9004 L 467.552 555.153 L 464.002 555.3191 L 460.9503 552.8279 L 458.6459 552.5788 L 456.9021 550.5858 L 454.5354 549.9215 L 452.9161 548.0115 L 451.8574 543.4443 L 449.8021 540.704 L 450.0512 538.3788 L 449.117 535.8876 L 449.4284 533.7286 L 447.996 531.3204 L 446.8126 531.0713 L 444.882 528.9122 L 444.2592 526.1719 L 442.5776 523.6807 L 440.1486 521.6047 L 438.9653 517.0374 L 437.8443 515.7918 L 436.3496 512.138 L 435.8513 509.1486 L 434.4189 506.9895 L 431.9899 505.0796 L 431.4294 503.751 L 429.1873 502.5884 L 427.4435 499.2668 L 422.461 498.5194 L 419.4716 498.6855 L 416.9181 497.5229 L 416.3576 499.1007 L 413.6172 499.5989 L 411.562 502.7545 L 410.3164 507.8199 L 409.6313 507.903 L 408.0743 510.8924 L 406.2059 510.9755 L 403.4033 508.6504 L 396.3656 504.9135 L 394.9954 502.9206 L 392.2551 501.0106 L 390.3244 496.6925 L 390.1998 492.7896 L 388.2691 489.6341 L 387.8332 486.8937 L 386.5876 485.1499 L 382.1657 482.5756 L 379.799 479.0879 L 377.8683 477.8423 L 375.8131 474.8529 L 372.9482 473.2751 L 370.9552 469.2892 L 369.2736 468.4588 L 367.9657 466.7149 L 368.2771 465.2202 L 408.6348 465.2202 L 408.6348 450.0238 L 408.8839 434.6613 L 408.9462 396.9609 L 409.3822 396.9609 L 422.897 396.9609 Z" fill="rgb(253, 183, 106)" fill-opacity="1" my_fill="rgb(253, 183, 106)" my_fill_opacity="1" my_font_size="16px" my_stoke="rgb(68, 68, 68)" my_stoke_opacity="1" my_stoke_width="0.5px" opacity="1" paint-order="fill" stroke="#444" stroke-dasharray="" stroke-linecap="butt" stroke-miterlimit="10" stroke-opacity="1" stroke-width="0.5"></path><path d="M 305.1871 313.6714 L 317.8923 313.5883 L 317.8923 328.7847 L 340.6247 328.7847 L 340.5624 357.1845 L 340.5001 370.0558 L 340.6869 371.7166 L 340.6869 389.4042 L 324.1204 389.3212 L 283.7627 389.4042 L 283.825 313.6714 L 305.1871 313.6714 Z" fill="rgb(62, 94, 168)" fill-opacity="1" my_fill="rgb(62, 94, 168)" my_fill_opacity="1" my_font_size="16px" my_stoke="rgb(68, 68, 68)" my_stoke_opacity="1" my_stoke_width="0.5px" opacity="1" paint-order="fill" stroke="#444" stroke-dasharray="" stroke-linecap="butt" stroke-miterlimit="10" stroke-opacity="1" stroke-width="0.5"></path><path d="M -95.2969 -167 L 8.7695 -167 L 8.7695 27 L -95.2969 27 L -95.2969 -167 Z" fill="rgb(0, 0, 0)" fill-opacity="0" my_fill="rgb(0, 0, 0)" my_fill_opacity="0" my_font_size="16px" my_stoke="rgb(204, 204, 204)" my_stoke_opacity="1" my_stoke_width="0px" opacity="1" paint-order="fill" stroke="#ccc" stroke-dasharray="" stroke-linecap="butt" stroke-miterlimit="10" stroke-opacity="1" stroke-width="0" transform="matrix(1,0,0,1,901.2305,746)"></path><g clip-path="url(#zr2330-clip-0)"><path d="M 0 0 L 20 0 L 20 140 L 0 140 Z" fill='url("#zr2330-gradient-0")' fill-opacity="1" my_fill='url("#zr2330-gradient-0")' my_fill_opacity="1" my_font_size="16px" my_stoke="none" my_stoke_opacity="1" my_stoke_width="1px" opacity="1" stroke="none" transform="matrix(-1,0,0,-1,901.2305,746)"></path><path d="M 0 0 L 20 0 L 20 140 L 0 140 Z" fill='url("#zr2330-gradient-1")' fill-opacity="1" my_fill='url("#zr2330-gradient-1")' my_fill_opacity="1" my_font_size="16px" my_stoke="none" my_stoke_opacity="1" my_stoke_width="1px" opacity="1" stroke="none" transform="matrix(-1,0,0,-1,901.2305,746)"></path></g></g></svg>