<svg baseProfile="full" height="773" style="user-select: none; position: absolute; left: 0px; top: 0px;" transform_matrix='{"a":1,"b":0,"c":0,"d":1,"e":0,"f":0}' version="1.1" width="910" xmlns="http://www.w3.org/2000/svg" xmlns:xlink="http://www.w3.org/1999/xlink"><g><path d="M -166.387 169.274 C -151.199 162.4673 -140.0196 142.3164 -129.994 128.5994 C -149.6071 147.8046 -166.8471 169.2188 -196.4565 179.0768 C -203.7001 179.1113 -198.282 165.1596 -193.9739 162.771 L -180.4506 159.9407 C -176.3323 158.4357 -174.7186 154.128 -173.8642 150.6418 C -158.2892 145.6231 -138.0116 122.1379 -129.8261 107.8825 C -117.0623 103.0501 -97.3835 103.1951 -87.9566 92.0531 C -79.3695 81.9189 -85.087 64.4949 -79.0848 46.7878 C -77.3323 41.5826 -74.8934 35.8736 -71.7244 30.9584 C -76.1859 31.0343 -81.5674 30.5373 -86.0289 26.7611 C -96.186 18.1664 -91.761 12.3607 -95.4996 3.8903 C -83.2031 9.0264 -77.2447 21.7286 -63.1811 21.7424 C -61.7645 20.7897 -60.2676 20.0234 -58.6977 19.4919 C -14.6595 6.0165 52.1607 18.3528 83.676 -7.6866 C 92.0733 -34.8375 74.6216 -75.6571 74.7019 -76.2922 C 74.7603 -76.7202 65.1071 -76.3198 61.5365 -78.0732 C 53.3656 -83.3957 13.8473 -103.9608 60.2951 -101.0614 C 62.5879 -101.3721 67.1809 -99.2734 70.8027 -98.0585 C 68.6924 -109.7527 64.0848 -99.0525 46.6259 -111.4924 C 46.6259 -111.4924 38.5937 -117.3948 33.7452 -125.161 C 27.6407 -132.6857 19.0682 -144.663 11.8977 -152.9884 C 0.7768 -170.0812 21.8795 -148.094 25.1581 -145.3395 C 38.0679 -133.5762 38.6229 -122.6896 48.758 -117.8435 C 50.1819 -116.4421 59.3678 -116.7113 55.5196 -121.0742 C 51.6861 -125.4372 45.5379 -129.8967 42.5587 -137.235 C 40.4192 -142.0881 32.9858 -153.2922 31.1238 -155.95 C 29.2545 -158.6009 24.1212 -167.81 18.9295 -172.1798 C 11.2843 -180.3741 16.9726 -178.4066 22.7338 -172.663 C 28.4951 -166.9056 33.9569 -160.092 34.9427 -158.6975 C 35.9285 -157.2962 46.509 -141.2942 47.5386 -142.2192 C 48.2834 -144.0072 47.283 -145.1739 46.3849 -148.1009 C 45.4721 -151.021 39.7255 -162.1285 39.3677 -162.4806 C 36.7609 -168.3622 35.2348 -175.6522 35.0011 -185.4895 C 37.9219 -201.8849 39.7328 -202.6512 39.0099 -190.3563 C 39.1121 -182.4658 39.2363 -175.0654 43.4057 -167.9411 C 49.2984 -157.6137 56.2863 -139.8859 56.8121 -137.0555 C 60.9085 -115.1305 78.017 -124.9815 73.4679 -137.9253 C 72.9713 -141.0042 72.672 -151.8287 71.3722 -157.6827 C 70.0579 -163.5437 69.7731 -169.3356 70.5471 -178.7794 C 71.029 -188.3681 72.2411 -192.9658 72.5697 -194.6502 C 74.6508 -201.7123 75.4905 -202.1611 75.5489 -193.7183 C 75.1181 -190.9638 74.5924 -182.0723 74.6362 -175.3898 C 75.1035 -170.9579 74.3222 -163.1847 75.8921 -158.2281 C 80.6676 -144.9184 75.695 -134.094 83.1941 -133.9697 C 96.3741 -136.8967 100.9232 -142.378 100.9232 -150.165 C 100.2953 -155.0249 100.0397 -155.9845 100.6969 -158.4007 C 102.3106 -162.3218 103.3183 -163.0259 102.9751 -158.9253 C 102.5735 -156.9441 103.2015 -155.2459 103.5739 -153.4441 C 105.5016 -145.1808 110.2333 -152.6571 112.9423 -158.8425 C 114.0376 -160.4855 116.878 -173.7123 116.9219 -176.2528 C 116.7539 -180.5121 119.0029 -180.7054 119.1782 -176.1837 C 119.6455 -173.2705 117.3673 -157.9174 117.6813 -160.0713 C 115.2132 -151.5111 109.6126 -136.5861 93.0079 -127.5427 C 90.1675 -126.7143 84.3478 -118.665 68.707 -112.5072 C 68.707 -112.5072 81.3321 -110.2912 91.752 -110.809 C 99.7988 -112.1206 118.8204 -110.9953 125.7353 -108.952 C 138.5284 -105.5417 136.9146 -109.3178 155.5565 -107.8198 C 172.059 -110.5811 171.285 -91.3139 144.6328 -82.4155 C 126.0201 -72.7162 121.9456 -72.233 127.8894 -61.8158 C 153.3294 -7.2379 148.8095 29.1911 143.9026 51.8548 C 161.5003 53.7256 185.7575 47.5747 197.2142 56.8598 C 200.909 59.1586 201.9459 69.7414 193.8772 76.6033 C 163.9027 95.5531 126.0931 125.0787 92.3507 129.4969 C 85.2167 128.1576 93.4899 115.5176 98.2142 113.985 L 112.0733 113.7779 C 116.4253 113.0807 118.908 109.1596 120.4852 105.915 C 143.5594 103.126 157.3236 79.8548 180.6972 72.6546 C 151.2338 67.698 110.686 100.1369 91.8907 79.9101 C 55.0669 89.7335 8.2905 92.6122 -24.174 87.5797 C -46.8466 106.129 -82.1078 115.3381 -112.6373 128.0748 C -136.522 152.3124 -150.5199 183.8953 -185.4159 199.9663 C -192.6157 200.7878 -188.9209 186.3391 -184.934 183.5018 L -171.827 179.2355 C -167.8985 177.2888 -166.8325 172.8223 -166.387 169.274 Z" fill="rgb(229, 64, 53)" fill-opacity="1" my_fill="rgb(229, 64, 53)" my_fill_opacity="1" my_font_size="16px" my_stoke="none" my_stoke_opacity="1" my_stoke_width="1px" opacity="1" stroke="none" transform="matrix(0.15,0,0,0.15,136.5,96.0786)"></path><path d="M 31.85 703 L 241.15 703 L 241.15 66.0786 L 31.85 66.0786 L 31.85 703 Z" fill="none" fill-opacity="1" my_fill="none" my_fill_opacity="1" my_font_size="16px" my_stoke="none" my_stoke_opacity="1" my_stoke_width="0px" opacity="1" paint-order="fill" stroke="none" stroke-dasharray="" stroke-linecap="butt" stroke-miterlimit="10" stroke-opacity="1" stroke-width="0"></path><path d="M 122.85 703 L 332.15 703 L 332.15 355.4286 L 122.85 355.4286 L 122.85 703 Z" fill="none" fill-opacity="1" my_fill="none" my_fill_opacity="1" my_font_size="16px" my_stoke="none" my_stoke_opacity="1" my_stoke_width="0px" opacity="1" paint-order="fill" stroke="none" stroke-dasharray="" stroke-linecap="butt" stroke-miterlimit="10" stroke-opacity="1" stroke-width="0"></path><path d="M 213.85 703 L 423.15 703 L 423.15 546.1786 L 213.85 546.1786 L 213.85 703 Z" fill="none" fill-opacity="1" my_fill="none" my_fill_opacity="1" my_font_size="16px" my_stoke="none" my_stoke_opacity="1" my_stoke_width="0px" opacity="1" paint-order="fill" stroke="none" stroke-dasharray="" stroke-linecap="butt" stroke-miterlimit="10" stroke-opacity="1" stroke-width="0"></path><path d="M 304.85 703 L 514.15 703 L 514.15 584.3286 L 304.85 584.3286 L 304.85 703 Z" fill="none" fill-opacity="1" my_fill="none" my_fill_opacity="1" my_font_size="16px" my_stoke="none" my_stoke_opacity="1" my_stoke_width="0px" opacity="1" paint-order="fill" stroke="none" stroke-dasharray="" stroke-linecap="butt" stroke-miterlimit="10" stroke-opacity="1" stroke-width="0"></path><path d="M 395.85 703 L 605.15 703 L 605.15 605.8857 L 395.85 605.8857 L 395.85 703 Z" fill="none" fill-opacity="1" my_fill="none" my_fill_opacity="1" my_font_size="16px" my_stoke="none" my_stoke_opacity="1" my_stoke_width="0px" opacity="1" paint-order="fill" stroke="none" stroke-dasharray="" stroke-linecap="butt" stroke-miterlimit="10" stroke-opacity="1" stroke-width="0"></path><path d="M 486.85 703 L 696.15 703 L 696.15 625.6643 L 486.85 625.6643 L 486.85 703 Z" fill="none" fill-opacity="1" my_fill="none" my_fill_opacity="1" my_font_size="16px" my_stoke="none" my_stoke_opacity="1" my_stoke_width="0px" opacity="1" paint-order="fill" stroke="none" stroke-dasharray="" stroke-linecap="butt" stroke-miterlimit="10" stroke-opacity="1" stroke-width="0"></path><path d="M 577.85 703 L 787.15 703 L 787.15 633.8143 L 577.85 633.8143 L 577.85 703 Z" fill="none" fill-opacity="1" my_fill="none" my_fill_opacity="1" my_font_size="16px" my_stoke="none" my_stoke_opacity="1" my_stoke_width="0px" opacity="1" paint-order="fill" stroke="none" stroke-dasharray="" stroke-linecap="butt" stroke-miterlimit="10" stroke-opacity="1" stroke-width="0"></path><path d="M 668.85 703 L 878.15 703 L 878.15 638.4071 L 668.85 638.4071 L 668.85 703 Z" fill="none" fill-opacity="1" my_fill="none" my_fill_opacity="1" my_font_size="16px" my_stoke="none" my_stoke_opacity="1" my_stoke_width="0px" opacity="1" paint-order="fill" stroke="none" stroke-dasharray="" stroke-linecap="butt" stroke-miterlimit="10" stroke-opacity="1" stroke-width="0"></path><path d="M 31.85 703 L 241.15 703 L 241.15 138.0786 L 31.85 138.0786 L 31.85 703 Z" fill="none" fill-opacity="1" my_fill="none" my_fill_opacity="1" my_font_size="16px" my_stoke="none" my_stoke_opacity="1" my_stoke_width="0px" opacity="1" paint-order="fill" stroke="none" stroke-dasharray="" stroke-linecap="butt" stroke-miterlimit="10" stroke-opacity="1" stroke-width="0"></path><path d="M 122.85 703 L 332.15 703 L 332.15 427.4286 L 122.85 427.4286 L 122.85 703 Z" fill="none" fill-opacity="1" my_fill="none" my_fill_opacity="1" my_font_size="16px" my_stoke="none" my_stoke_opacity="1" my_stoke_width="0px" opacity="1" paint-order="fill" stroke="none" stroke-dasharray="" stroke-linecap="butt" stroke-miterlimit="10" stroke-opacity="1" stroke-width="0"></path><path d="M 213.85 703 L 423.15 703 L 423.15 588.1786 L 213.85 588.1786 L 213.85 703 Z" fill="none" fill-opacity="1" my_fill="none" my_fill_opacity="1" my_font_size="16px" my_stoke="none" my_stoke_opacity="1" my_stoke_width="0px" opacity="1" paint-order="fill" stroke="none" stroke-dasharray="" stroke-linecap="butt" stroke-miterlimit="10" stroke-opacity="1" stroke-width="0"></path><path d="M 304.85 703 L 514.15 703 L 514.15 620.3286 L 304.85 620.3286 L 304.85 703 Z" fill="none" fill-opacity="1" my_fill="none" my_fill_opacity="1" my_font_size="16px" my_stoke="none" my_stoke_opacity="1" my_stoke_width="0px" opacity="1" paint-order="fill" stroke="none" stroke-dasharray="" stroke-linecap="butt" stroke-miterlimit="10" stroke-opacity="1" stroke-width="0"></path><path d="M 395.85 703 L 605.15 703 L 605.15 647.8857 L 395.85 647.8857 L 395.85 703 Z" fill="none" fill-opacity="1" my_fill="none" my_fill_opacity="1" my_font_size="16px" my_stoke="none" my_stoke_opacity="1" my_stoke_width="0px" opacity="1" paint-order="fill" stroke="none" stroke-dasharray="" stroke-linecap="butt" stroke-miterlimit="10" stroke-opacity="1" stroke-width="0"></path><path d="M 486.85 703 L 696.15 703 L 696.15 661.6643 L 486.85 661.6643 L 486.85 703 Z" fill="none" fill-opacity="1" my_fill="none" my_fill_opacity="1" my_font_size="16px" my_stoke="none" my_stoke_opacity="1" my_stoke_width="0px" opacity="1" paint-order="fill" stroke="none" stroke-dasharray="" stroke-linecap="butt" stroke-miterlimit="10" stroke-opacity="1" stroke-width="0"></path><path d="M 577.85 703 L 787.15 703 L 787.15 693.8143 L 577.85 693.8143 L 577.85 703 Z" fill="none" fill-opacity="1" my_fill="none" my_fill_opacity="1" my_font_size="16px" my_stoke="none" my_stoke_opacity="1" my_stoke_width="0px" opacity="1" paint-order="fill" stroke="none" stroke-dasharray="" stroke-linecap="butt" stroke-miterlimit="10" stroke-opacity="1" stroke-width="0"></path><path d="M 668.85 703 L 878.15 703 L 878.15 698.4071 L 668.85 698.4071 L 668.85 703 Z" fill="none" fill-opacity="1" my_fill="none" my_fill_opacity="1" my_font_size="16px" my_stoke="none" my_stoke_opacity="1" my_stoke_width="0px" opacity="1" paint-order="fill" stroke="none" stroke-dasharray="" stroke-linecap="butt" stroke-miterlimit="10" stroke-opacity="1" stroke-width="0"></path></g></svg>