<svg baseProfile="full" height="773" style="user-select: none; position: absolute; left: 0px; top: 0px;" transform_matrix='{"a":1,"b":0,"c":0,"d":1,"e":0,"f":0}' version="1.1" width="910" xmlns="http://www.w3.org/2000/svg" xmlns:xlink="http://www.w3.org/1999/xlink"><g><path d="M 101.3652 85.72 L 637.8841 85.72 L 637.8841 122.4629 L 101.3652 122.4629 L 101.3652 85.72 Z" fill="none" fill-opacity="1" my_fill="none" my_fill_opacity="1" my_font_size="16px" my_stoke="none" my_stoke_opacity="1" my_stoke_width="0px" opacity="1" paint-order="fill" stroke="none" stroke-dasharray="" stroke-linecap="butt" stroke-miterlimit="10" stroke-opacity="1" stroke-width="0"></path><path d="M 101.3652 214.32 L 203.2059 214.32 L 203.2059 251.0629 L 101.3652 251.0629 L 101.3652 214.32 Z" fill="none" fill-opacity="1" my_fill="none" my_fill_opacity="1" my_font_size="16px" my_stoke="none" my_stoke_opacity="1" my_stoke_width="0px" opacity="1" paint-order="fill" stroke="none" stroke-dasharray="" stroke-linecap="butt" stroke-miterlimit="10" stroke-opacity="1" stroke-width="0"></path><path d="M 101.3652 342.92 L 348.0986 342.92 L 348.0986 379.6629 L 101.3652 379.6629 L 101.3652 342.92 Z" fill="none" fill-opacity="1" my_fill="none" my_fill_opacity="1" my_font_size="16px" my_stoke="none" my_stoke_opacity="1" my_stoke_width="0px" opacity="1" paint-order="fill" stroke="none" stroke-dasharray="" stroke-linecap="butt" stroke-miterlimit="10" stroke-opacity="1" stroke-width="0"></path><path d="M 101.3652 471.52 L 384.3218 471.52 L 384.3218 508.2629 L 101.3652 508.2629 L 101.3652 471.52 Z" fill="none" fill-opacity="1" my_fill="none" my_fill_opacity="1" my_font_size="16px" my_stoke="none" my_stoke_opacity="1" my_stoke_width="0px" opacity="1" paint-order="fill" stroke="none" stroke-dasharray="" stroke-linecap="butt" stroke-miterlimit="10" stroke-opacity="1" stroke-width="0"></path><path d="M 101.3652 600.12 L 529.2145 600.12 L 529.2145 636.8629 L 101.3652 636.8629 L 101.3652 600.12 Z" fill="none" fill-opacity="1" my_fill="none" my_fill_opacity="1" my_font_size="16px" my_stoke="none" my_stoke_opacity="1" my_stoke_width="0px" opacity="1" paint-order="fill" stroke="none" stroke-dasharray="" stroke-linecap="butt" stroke-miterlimit="10" stroke-opacity="1" stroke-width="0"></path><path d="M 101.3652 126.1371 L 746.5536 126.1371 L 746.5536 162.88 L 101.3652 162.88 L 101.3652 126.1371 Z" fill="none" fill-opacity="1" my_fill="none" my_fill_opacity="1" my_font_size="16px" my_stoke="none" my_stoke_opacity="1" my_stoke_width="0px" opacity="1" paint-order="fill" stroke="none" stroke-dasharray="" stroke-linecap="butt" stroke-miterlimit="10" stroke-opacity="1" stroke-width="0"></path><path d="M 101.3652 254.7371 L 203.2059 254.7371 L 203.2059 291.48 L 101.3652 291.48 L 101.3652 254.7371 Z" fill="none" fill-opacity="1" my_fill="none" my_fill_opacity="1" my_font_size="16px" my_stoke="none" my_stoke_opacity="1" my_stoke_width="0px" opacity="1" paint-order="fill" stroke="none" stroke-dasharray="" stroke-linecap="butt" stroke-miterlimit="10" stroke-opacity="1" stroke-width="0"></path><path d="M 101.3652 383.3371 L 384.3218 383.3371 L 384.3218 420.08 L 101.3652 420.08 L 101.3652 383.3371 Z" fill="none" fill-opacity="1" my_fill="none" my_fill_opacity="1" my_font_size="16px" my_stoke="none" my_stoke_opacity="1" my_stoke_width="0px" opacity="1" paint-order="fill" stroke="none" stroke-dasharray="" stroke-linecap="butt" stroke-miterlimit="10" stroke-opacity="1" stroke-width="0"></path><path d="M 101.3652 511.9371 L 420.545 511.9371 L 420.545 548.68 L 101.3652 548.68 L 101.3652 511.9371 Z" fill="none" fill-opacity="1" my_fill="none" my_fill_opacity="1" my_font_size="16px" my_stoke="none" my_stoke_opacity="1" my_stoke_width="0px" opacity="1" paint-order="fill" stroke="none" stroke-dasharray="" stroke-linecap="butt" stroke-miterlimit="10" stroke-opacity="1" stroke-width="0"></path><path d="M 101.3652 640.5371 L 456.7682 640.5371 L 456.7682 677.28 L 101.3652 677.28 L 101.3652 640.5371 Z" fill="none" fill-opacity="1" my_fill="none" my_fill_opacity="1" my_font_size="16px" my_stoke="none" my_stoke_opacity="1" my_stoke_width="0px" opacity="1" paint-order="fill" stroke="none" stroke-dasharray="" stroke-linecap="butt" stroke-miterlimit="10" stroke-opacity="1" stroke-width="0"></path><path d="M -5 -5 L 120.2969 -5 L 120.2969 19 L -5 19 L -5 -5 Z" fill="rgb(0, 0, 0)" fill-opacity="0" my_fill="rgb(0, 0, 0)" my_fill_opacity="0" my_font_size="16px" my_stoke="rgb(204, 204, 204)" my_stoke_opacity="1" my_stoke_width="0px" opacity="1" paint-order="fill" stroke="#ccc" stroke-dasharray="" stroke-linecap="butt" stroke-miterlimit="10" stroke-opacity="1" stroke-width="0" transform="matrix(1,0,0,1,397.3516,5)"></path><path d="M 19.5 7 A 7 7 0 1 1 19.5 6.9993" fill="rgb(84, 112, 198)" fill-opacity="1" my_fill="rgb(84, 112, 198)" my_fill_opacity="1" my_font_size="16px" my_stoke="none" my_stoke_opacity="1" my_stoke_width="1px" opacity="1" stroke="none" transform="matrix(1,0,0,1,391.8516,5)"></path><path d="M 19.5 7 A 7 7 0 1 1 19.5 6.9993" fill="rgb(145, 204, 117)" fill-opacity="1" my_fill="rgb(145, 204, 117)" my_fill_opacity="1" my_font_size="16px" my_stoke="none" my_stoke_opacity="1" my_stoke_width="1px" opacity="1" stroke="none" transform="matrix(1,0,0,1,454.5,5)"></path><path d="M -5 -5 L 160.1885 -5 L 160.1885 23 L -5 23 L -5 -5 Z" fill="rgb(0, 0, 0)" fill-opacity="0" my_fill="rgb(0, 0, 0)" my_fill_opacity="0" my_font_size="16px" my_stoke="rgb(204, 204, 204)" my_stoke_opacity="1" my_stoke_width="0px" opacity="1" paint-order="fill" stroke="#ccc" stroke-dasharray="" stroke-linecap="butt" stroke-miterlimit="10" stroke-opacity="1" stroke-width="0" transform="matrix(1,0,0,1,5,5)"></path><text clip-path="none" content="Vehicles in X City" dominant-baseline="central" fill="rgb(70, 70, 70)" fill-opacity="1" font-family='"Microsoft YaHei"' my_fill="rgb(70, 70, 70)" my_fill_opacity="1" my_font_size="18px" my_stoke="none" my_stoke_opacity="1" my_stoke_width="1px" opacity="1" stroke="none" stroke-opacity="1" stroke-width="1px" style='font: bold 18px "Microsoft YaHei"; fill: rgb(70, 70, 70);' text-anchor="start" text_bbox='{"x":-1,"y":-3,"w":156.859375,"h":24}' transform="matrix(1,0,0,1,5,5)" x="0" xml:space="preserve" y="9">Vehicles in X City</text></g></svg>