<svg baseProfile="full" height="773" style="user-select: none; position: absolute; left: 0px; top: 0px;" transform_matrix='{"a":1,"b":0,"c":0,"d":1,"e":0,"f":0}' version="1.1" width="910" xmlns="http://www.w3.org/2000/svg" xmlns:xlink="http://www.w3.org/1999/xlink"><g><path d="M 455 77.3 A 309.2 309.2 0 0 1 762.4881 418.992 L 570.308 398.6845 A 115.95 115.95 0 0 0 455 270.55 Z" fill="rgb(84, 112, 198)" fill-opacity="1" my_fill="rgb(84, 112, 198)" my_fill_opacity="1" my_font_size="16px" my_stoke="none" my_stoke_opacity="1" my_stoke_width="1px" opacity="1" stroke="none"></path><path d="M 762.4881 418.992 A 309.2 309.2 0 0 1 496.6562 692.8811 L 470.6211 501.3929 A 115.95 115.95 0 0 0 570.308 398.6845 Z" fill="rgb(145, 204, 117)" fill-opacity="1" my_fill="rgb(145, 204, 117)" my_fill_opacity="1" my_font_size="16px" my_stoke="none" my_stoke_opacity="1" my_stoke_width="1px" opacity="1" stroke="none"></path><path d="M 496.6562 692.8811 A 309.2 309.2 0 0 1 182.2956 532.2291 L 352.7359 441.1484 A 115.95 115.95 0 0 0 470.6211 501.3929 Z" fill="rgb(250, 200, 88)" fill-opacity="1" my_fill="rgb(250, 200, 88)" my_fill_opacity="1" my_font_size="16px" my_stoke="none" my_stoke_opacity="1" my_stoke_width="1px" opacity="1" stroke="none"></path><path d="M 182.2956 532.2291 A 309.2 309.2 0 0 1 187.171 231.9935 L 354.5641 328.5601 A 115.95 115.95 0 0 0 352.7359 441.1484 Z" fill="rgb(238, 102, 102)" fill-opacity="1" my_fill="rgb(238, 102, 102)" my_fill_opacity="1" my_font_size="16px" my_stoke="none" my_stoke_opacity="1" my_stoke_width="1px" opacity="1" stroke="none"></path><path d="M 187.171 231.9935 A 309.2 309.2 0 0 1 329.1976 104.0493 L 407.8241 280.581 A 115.95 115.95 0 0 0 354.5641 328.5601 Z" fill="rgb(115, 192, 222)" fill-opacity="1" my_fill="rgb(115, 192, 222)" my_fill_opacity="1" my_font_size="16px" my_stoke="none" my_stoke_opacity="1" my_stoke_width="1px" opacity="1" stroke="none"></path><path d="M 329.1976 104.0493 A 309.2 309.2 0 0 1 455 77.3 L 455 270.55 A 115.95 115.95 0 0 0 407.8241 280.581 Z" fill="rgb(59, 162, 114)" fill-opacity="1" my_fill="rgb(59, 162, 114)" my_fill_opacity="1" my_font_size="16px" my_stoke="none" my_stoke_opacity="1" my_stoke_width="1px" opacity="1" stroke="none"></path></g></svg>