<svg baseProfile="full" height="773" style="user-select: none; position: absolute; left: 0px; top: 0px;" transform_matrix='{"a":1,"b":0,"c":0,"d":1,"e":0,"f":0}' version="1.1" width="910" xmlns="http://www.w3.org/2000/svg" xmlns:xlink="http://www.w3.org/1999/xlink"><g><path d="M 455.5 386.5 L 455.5 96.625" fill="none" my_fill="none" my_fill_opacity="1" my_font_size="16px" my_stoke="rgb(187, 187, 187)" my_stoke_opacity="1" my_stoke_width="1px" opacity="1" paint-order="fill" stroke="#bbb" stroke-dasharray="" stroke-linecap="round" stroke-miterlimit="10" stroke-opacity="1" stroke-width="1"></path><path d="M 455 386.5 L 203.9609 241.5625" fill="none" my_fill="none" my_fill_opacity="1" my_font_size="16px" my_stoke="rgb(187, 187, 187)" my_stoke_opacity="1" my_stoke_width="1px" opacity="1" paint-order="fill" stroke="#bbb" stroke-dasharray="" stroke-linecap="round" stroke-miterlimit="10" stroke-opacity="1" stroke-width="1"></path><path d="M 455 386.5 L 203.9609 531.4375" fill="none" my_fill="none" my_fill_opacity="1" my_font_size="16px" my_stoke="rgb(187, 187, 187)" my_stoke_opacity="1" my_stoke_width="1px" opacity="1" paint-order="fill" stroke="#bbb" stroke-dasharray="" stroke-linecap="round" stroke-miterlimit="10" stroke-opacity="1" stroke-width="1"></path><text clip-path="none" content="信息技术（Information Technology）" dominant-baseline="central" fill="rgb(187, 187, 187)" fill-opacity="1" font-family='"Microsoft YaHei"' my_fill="rgb(187, 187, 187)" my_fill_opacity="1" my_font_size="12px" my_stoke="none" my_stoke_opacity="1" my_stoke_width="1px" opacity="1" stroke="none" stroke-opacity="1" stroke-width="1px" style='font: 12px "Microsoft YaHei"; fill: rgb(187, 187, 187);' text-anchor="end" text_bbox='{"x":-211.375,"y":-8,"w":211.375,"h":16}' transform="matrix(1,0,0,1,190.9705,538.9375)" x="0" xml:space="preserve" y="0">信息技术（Information Technology）</text><path d="M 455.5 386.5 L 455.5 676.375" fill="none" my_fill="none" my_fill_opacity="1" my_font_size="16px" my_stoke="rgb(187, 187, 187)" my_stoke_opacity="1" my_stoke_width="1px" opacity="1" paint-order="fill" stroke="#bbb" stroke-dasharray="" stroke-linecap="round" stroke-miterlimit="10" stroke-opacity="1" stroke-width="1"></path><path d="M 455 386.5 L 706.0391 531.4375" fill="none" my_fill="none" my_fill_opacity="1" my_font_size="16px" my_stoke="rgb(187, 187, 187)" my_stoke_opacity="1" my_stoke_width="1px" opacity="1" paint-order="fill" stroke="#bbb" stroke-dasharray="" stroke-linecap="round" stroke-miterlimit="10" stroke-opacity="1" stroke-width="1"></path><path d="M 455 386.5 L 706.0391 241.5625" fill="none" my_fill="none" my_fill_opacity="1" my_font_size="16px" my_stoke="rgb(187, 187, 187)" my_stoke_opacity="1" my_stoke_width="1px" opacity="1" paint-order="fill" stroke="#bbb" stroke-dasharray="" stroke-linecap="round" stroke-miterlimit="10" stroke-opacity="1" stroke-width="1"></path><path d="M 455 199.1962 L 407.9302 359.3242 L 287.6406 483.125 L 455 653.4901 L 696.3838 525.863 L 635.7482 282.145 L 455 199.1962" fill="none" my_fill="none" my_fill_opacity="1" my_font_size="16px" my_stoke="rgb(84, 112, 198)" my_stoke_opacity="1" my_stoke_width="2px" opacity="1" paint-order="fill" stroke="#5470c6" stroke-dasharray="" stroke-linecap="butt" stroke-linejoin="round" stroke-miterlimit="10" stroke-opacity="1" stroke-width="2"></path><path d="M 455 163.5192 L 235.3408 259.6797 L 220.6968 521.775 L 455 584.8355 L 657.7624 503.5649 L 665.8729 264.7525 L 455 163.5192" fill="none" my_fill="none" my_fill_opacity="1" my_font_size="16px" my_stoke="rgb(145, 204, 117)" my_stoke_opacity="1" my_stoke_width="2px" opacity="1" paint-order="fill" stroke="#91cc75" stroke-dasharray="" stroke-linecap="butt" stroke-linejoin="round" stroke-miterlimit="10" stroke-opacity="1" stroke-width="2"></path><path d="M 1 0 A 1 1 0 1 1 1 -0.0001" fill="rgb(84, 112, 198)" fill-opacity="1" my_fill="rgb(84, 112, 198)" my_fill_opacity="1" my_font_size="16px" my_stoke="none" my_stoke_opacity="1" my_stoke_width="1px" opacity="1" stroke="none" transform="matrix(4,0,0,4,455,199.1962)"></path><path d="M 1 0 A 1 1 0 1 1 1 -0.0001" fill="rgb(84, 112, 198)" fill-opacity="1" my_fill="rgb(84, 112, 198)" my_fill_opacity="1" my_font_size="16px" my_stoke="none" my_stoke_opacity="1" my_stoke_width="1px" opacity="1" stroke="none" transform="matrix(4,0,0,4,407.9302,359.3242)"></path><path d="M 1 0 A 1 1 0 1 1 1 -0.0001" fill="rgb(84, 112, 198)" fill-opacity="1" my_fill="rgb(84, 112, 198)" my_fill_opacity="1" my_font_size="16px" my_stoke="none" my_stoke_opacity="1" my_stoke_width="1px" opacity="1" stroke="none" transform="matrix(4,0,0,4,287.6406,483.125)"></path><path d="M 1 0 A 1 1 0 1 1 1 -0.0001" fill="rgb(84, 112, 198)" fill-opacity="1" my_fill="rgb(84, 112, 198)" my_fill_opacity="1" my_font_size="16px" my_stoke="none" my_stoke_opacity="1" my_stoke_width="1px" opacity="1" stroke="none" transform="matrix(4,0,0,4,455,653.4901)"></path><path d="M 1 0 A 1 1 0 1 1 1 -0.0001" fill="rgb(84, 112, 198)" fill-opacity="1" my_fill="rgb(84, 112, 198)" my_fill_opacity="1" my_font_size="16px" my_stoke="none" my_stoke_opacity="1" my_stoke_width="1px" opacity="1" stroke="none" transform="matrix(4,0,0,4,696.3838,525.863)"></path><path d="M 1 0 A 1 1 0 1 1 1 -0.0001" fill="rgb(84, 112, 198)" fill-opacity="1" my_fill="rgb(84, 112, 198)" my_fill_opacity="1" my_font_size="16px" my_stoke="none" my_stoke_opacity="1" my_stoke_width="1px" opacity="1" stroke="none" transform="matrix(4,0,0,4,635.7482,282.145)"></path><path d="M 1 0 A 1 1 0 1 1 1 -0.0001" fill="rgb(145, 204, 117)" fill-opacity="1" my_fill="rgb(145, 204, 117)" my_fill_opacity="1" my_font_size="16px" my_stoke="none" my_stoke_opacity="1" my_stoke_width="1px" opacity="1" stroke="none" transform="matrix(4,0,0,4,455,163.5192)"></path><path d="M 1 0 A 1 1 0 1 1 1 -0.0001" fill="rgb(145, 204, 117)" fill-opacity="1" my_fill="rgb(145, 204, 117)" my_fill_opacity="1" my_font_size="16px" my_stoke="none" my_stoke_opacity="1" my_stoke_width="1px" opacity="1" stroke="none" transform="matrix(4,0,0,4,235.3408,259.6797)"></path><path d="M 1 0 A 1 1 0 1 1 1 -0.0001" fill="rgb(145, 204, 117)" fill-opacity="1" my_fill="rgb(145, 204, 117)" my_fill_opacity="1" my_font_size="16px" my_stoke="none" my_stoke_opacity="1" my_stoke_width="1px" opacity="1" stroke="none" transform="matrix(4,0,0,4,220.6968,521.775)"></path><path d="M 1 0 A 1 1 0 1 1 1 -0.0001" fill="rgb(145, 204, 117)" fill-opacity="1" my_fill="rgb(145, 204, 117)" my_fill_opacity="1" my_font_size="16px" my_stoke="none" my_stoke_opacity="1" my_stoke_width="1px" opacity="1" stroke="none" transform="matrix(4,0,0,4,455,584.8355)"></path><path d="M 1 0 A 1 1 0 1 1 1 -0.0001" fill="rgb(145, 204, 117)" fill-opacity="1" my_fill="rgb(145, 204, 117)" my_fill_opacity="1" my_font_size="16px" my_stoke="none" my_stoke_opacity="1" my_stoke_width="1px" opacity="1" stroke="none" transform="matrix(4,0,0,4,657.7624,503.5649)"></path><path d="M 1 0 A 1 1 0 1 1 1 -0.0001" fill="rgb(145, 204, 117)" fill-opacity="1" my_fill="rgb(145, 204, 117)" my_fill_opacity="1" my_font_size="16px" my_stoke="none" my_stoke_opacity="1" my_stoke_width="1px" opacity="1" stroke="none" transform="matrix(4,0,0,4,665.8729,264.7525)"></path><path d="M -5 -5 L 412.6055 -5 L 412.6055 19 L -5 19 L -5 -5 Z" fill="rgb(0, 0, 0)" fill-opacity="0" my_fill="rgb(0, 0, 0)" my_fill_opacity="0" my_font_size="16px" my_stoke="rgb(204, 204, 204)" my_stoke_opacity="1" my_stoke_width="0px" opacity="1" paint-order="fill" stroke="#ccc" stroke-dasharray="" stroke-linecap="butt" stroke-miterlimit="10" stroke-opacity="1" stroke-width="0" transform="matrix(1,0,0,1,251.1973,5)"></path><path d="M -5 -5 L 95 -5 L 95 23 L -5 23 L -5 -5 Z" fill="rgb(0, 0, 0)" fill-opacity="0" my_fill="rgb(0, 0, 0)" my_fill_opacity="0" my_font_size="16px" my_stoke="rgb(204, 204, 204)" my_stoke_opacity="1" my_stoke_width="0px" opacity="1" paint-order="fill" stroke="#ccc" stroke-dasharray="" stroke-linecap="butt" stroke-miterlimit="10" stroke-opacity="1" stroke-width="0" transform="matrix(1,0,0,1,5,5)"></path><text clip-path="none" content="基础雷达图" dominant-baseline="central" fill="rgb(70, 70, 70)" fill-opacity="1" font-family='"Microsoft YaHei"' my_fill="rgb(70, 70, 70)" my_fill_opacity="1" my_font_size="18px" my_stoke="none" my_stoke_opacity="1" my_stoke_width="1px" opacity="1" stroke="none" stroke-opacity="1" stroke-width="1px" style='font: bold 18px "Microsoft YaHei"; fill: rgb(70, 70, 70);' text-anchor="start" text_bbox='{"x":-1,"y":-3,"w":91,"h":24}' transform="matrix(1,0,0,1,5,5)" x="0" xml:space="preserve" y="9">基础雷达图</text></g></svg>