<svg baseProfile="full" height="773" style="user-select: none; position: absolute; left: 0px; top: 0px;" transform_matrix='{"a":1,"b":0,"c":0,"d":1,"e":0,"f":0}' version="1.1" width="910" xmlns="http://www.w3.org/2000/svg" xmlns:xlink="http://www.w3.org/1999/xlink"><g><path d="M 455 212.575 A 173.925 173.925 0 1 1 416.298 556.0643 L 435.649 471.2822 A 86.9625 86.9625 0 1 0 455 299.5375 Z" fill="rgb(158, 210, 134)" fill-opacity="1" my_fill="rgb(158, 210, 134)" my_fill_opacity="1" my_font_size="16px" my_stoke="rgb(255, 255, 255)" my_stoke_opacity="1" my_stoke_width="1px" opacity="1" paint-order="fill" stroke="white" stroke-dasharray="" stroke-linecap="butt" stroke-linejoin="bevel" stroke-miterlimit="10" stroke-opacity="1" stroke-width="1"></path><path d="M 455 125.6125 A 260.8875 260.8875 0 0 1 690.0515 273.3052 L 611.701 311.0368 A 173.925 173.925 0 0 0 455 212.575 Z" fill="rgb(172, 216, 151)" fill-opacity="1" my_fill="rgb(172, 216, 151)" my_fill_opacity="1" my_font_size="16px" my_stoke="rgb(255, 255, 255)" my_stoke_opacity="1" my_stoke_width="1px" opacity="1" paint-order="fill" stroke="white" stroke-dasharray="" stroke-linecap="butt" stroke-linejoin="bevel" stroke-miterlimit="10" stroke-opacity="1" stroke-width="1"></path><path d="M 455 38.65 A 347.85 347.85 0 0 1 605.9265 73.098 L 568.1948 151.4485 A 260.8875 260.8875 0 0 0 455 125.6125 Z" fill="rgb(186, 223, 168)" fill-opacity="1" my_fill="rgb(186, 223, 168)" my_fill_opacity="1" my_font_size="16px" my_stoke="rgb(255, 255, 255)" my_stoke_opacity="1" my_stoke_width="1px" opacity="1" paint-order="fill" stroke="white" stroke-dasharray="" stroke-linecap="butt" stroke-linejoin="bevel" stroke-miterlimit="10" stroke-opacity="1" stroke-width="1"></path><path d="M 690.0515 273.3052 A 260.8875 260.8875 0 0 1 690.0515 499.6948 L 611.701 461.9632 A 173.925 173.925 0 0 0 611.701 311.0368 Z" fill="rgb(172, 216, 151)" fill-opacity="1" my_fill="rgb(172, 216, 151)" my_fill_opacity="1" my_font_size="16px" my_stoke="rgb(255, 255, 255)" my_stoke_opacity="1" my_stoke_width="1px" opacity="1" paint-order="fill" stroke="white" stroke-dasharray="" stroke-linecap="butt" stroke-linejoin="bevel" stroke-miterlimit="10" stroke-opacity="1" stroke-width="1"></path><path d="M 396.9471 640.8465 A 260.8875 260.8875 0 0 1 200.6535 444.5529 L 285.4357 425.202 A 173.925 173.925 0 0 0 416.298 556.0643 Z" fill="rgb(172, 216, 151)" fill-opacity="1" my_fill="rgb(172, 216, 151)" my_fill_opacity="1" my_font_size="16px" my_stoke="rgb(255, 255, 255)" my_stoke_opacity="1" my_stoke_width="1px" opacity="1" paint-order="fill" stroke="white" stroke-dasharray="" stroke-linecap="butt" stroke-linejoin="bevel" stroke-miterlimit="10" stroke-opacity="1" stroke-width="1"></path><path d="M 346.5595 250.52 A 173.925 173.925 0 0 1 455 212.575 L 455 299.5375 A 86.9625 86.9625 0 0 0 400.7798 318.51 Z" fill="rgb(250, 206, 108)" fill-opacity="1" my_fill="rgb(250, 206, 108)" my_fill_opacity="1" my_font_size="16px" my_stoke="rgb(255, 255, 255)" my_stoke_opacity="1" my_stoke_width="1px" opacity="1" paint-order="fill" stroke="white" stroke-dasharray="" stroke-linecap="butt" stroke-linejoin="bevel" stroke-miterlimit="10" stroke-opacity="1" stroke-width="1"></path><path d="M 396.9471 132.1535 A 260.8875 260.8875 0 0 1 455 125.6125 L 455 212.575 A 173.925 173.925 0 0 0 416.298 216.9357 Z" fill="rgb(251, 213, 129)" fill-opacity="1" my_fill="rgb(251, 213, 129)" my_fill_opacity="1" my_font_size="16px" my_stoke="rgb(255, 255, 255)" my_stoke_opacity="1" my_stoke_width="1px" opacity="1" paint-order="fill" stroke="white" stroke-dasharray="" stroke-linecap="butt" stroke-linejoin="bevel" stroke-miterlimit="10" stroke-opacity="1" stroke-width="1"></path><text clip-path="none" content="Cousin Mary" dominant-baseline="central" fill="rgb(51, 51, 51)" fill-opacity="1" font-family='"Microsoft YaHei"' my_fill="rgb(51, 51, 51)" my_fill_opacity="1" my_font_size="12px" my_stoke="none" my_stoke_opacity="1" my_stoke_width="1px" opacity="1" stroke="none" stroke-opacity="1" stroke-width="1px" style='font: 12px "Microsoft YaHei"; fill: rgb(51, 51, 51);' text-anchor="middle" text_bbox='{"x":-36.015625,"y":-8,"w":72.6875,"h":16}' transform="matrix(0.532,-0.847,0.847,0.532,570.6671,202.4169)" x="0" xml:space="preserve" y="0">Cousin Mary</text><text clip-path="none" content="Jackson" dominant-baseline="central" fill="rgb(51, 51, 51)" fill-opacity="1" font-family='"Microsoft YaHei"' my_fill="rgb(51, 51, 51)" my_fill_opacity="1" my_font_size="12px" my_stoke="none" my_stoke_opacity="1" my_stoke_width="1px" opacity="1" stroke="none" stroke-opacity="1" stroke-width="1px" style='font: 12px "Microsoft YaHei"; fill: rgb(51, 51, 51);' text-anchor="middle" text_bbox='{"x":-23.265625,"y":-8,"w":45.53125,"h":16}' transform="matrix(0.223,-0.975,0.975,0.223,522.7284,89.7624)" x="0" xml:space="preserve" y="0">Jackson</text><text clip-path="none" content="Cousin Ben" dominant-baseline="central" fill="rgb(51, 51, 51)" fill-opacity="1" font-family='"Microsoft YaHei"' my_fill="rgb(51, 51, 51)" my_fill_opacity="1" my_font_size="12px" my_stoke="none" my_stoke_opacity="1" my_stoke_width="1px" opacity="1" stroke="none" stroke-opacity="1" stroke-width="1px" style='font: 12px "Microsoft YaHei"; fill: rgb(51, 51, 51);' text-anchor="middle" text_bbox='{"x":-32.25,"y":-8,"w":64.5,"h":16}' transform="matrix(1,0,0,1,672.4063,386.5)" x="0" xml:space="preserve" y="0">Cousin Ben</text><text clip-path="none" content="Me" dominant-baseline="central" fill="rgb(51, 51, 51)" fill-opacity="1" font-family='"Microsoft YaHei"' my_fill="rgb(51, 51, 51)" my_fill_opacity="1" my_font_size="12px" my_stoke="none" my_stoke_opacity="1" my_stoke_width="1px" opacity="1" stroke="none" stroke-opacity="1" stroke-width="1px" style='font: 12px "Microsoft YaHei"; fill: rgb(51, 51, 51);' text-anchor="middle" text_bbox='{"x":-9.265625,"y":-8.015625,"w":18.734375,"h":16.03125}' transform="matrix(0.707,-0.707,0.707,0.707,301.2706,540.2294)" x="0" xml:space="preserve" y="0">Me</text></g></svg>