<svg baseProfile="full" height="773" style="user-select: none; position: absolute; left: 0px; top: 0px;" transform_matrix='{"a":1,"b":0,"c":0,"d":1,"e":0,"f":0}' version="1.1" width="910" xmlns="http://www.w3.org/2000/svg" xmlns:xlink="http://www.w3.org/1999/xlink"><g><path d="M 455 231.04 A 140 140 0 0 1 480.7249 233.4238 L 476.1312 257.9981 A 115 115 0 0 0 455 256.04 Z" fill="none" fill-opacity="1" my_fill="none" my_fill_opacity="1" my_font_size="16px" my_stoke="rgb(46, 39, 51)" my_stoke_opacity="1" my_stoke_width="2px" opacity="1" paint-order="fill" stroke="#2E2733" stroke-dasharray="" stroke-linecap="butt" stroke-linejoin="bevel" stroke-miterlimit="10" stroke-opacity="1" stroke-width="2" style='filter: url("#zr2528-shadow-3");'></path><path d="M 480.7249 233.4238 A 140 140 0 0 1 528.7005 252.0096 L 515.5397 273.265 A 115 115 0 0 0 476.1312 257.9981 Z" fill="none" fill-opacity="1" my_fill="none" my_fill_opacity="1" my_font_size="16px" my_stoke="rgb(46, 39, 51)" my_stoke_opacity="1" my_stoke_width="2px" opacity="1" paint-order="fill" stroke="#2E2733" stroke-dasharray="" stroke-linecap="butt" stroke-linejoin="bevel" stroke-miterlimit="10" stroke-opacity="1" stroke-width="2" style='filter: url("#zr2528-shadow-3");'></path><path d="M 528.7005 252.0096 A 140 140 0 0 1 549.3174 267.5788 L 532.475 286.054 A 115 115 0 0 0 515.5397 273.265 Z" fill="none" fill-opacity="1" my_fill="none" my_fill_opacity="1" my_font_size="16px" my_stoke="rgb(46, 39, 51)" my_stoke_opacity="1" my_stoke_width="2px" opacity="1" paint-order="fill" stroke="#2E2733" stroke-dasharray="" stroke-linecap="butt" stroke-linejoin="bevel" stroke-miterlimit="10" stroke-opacity="1" stroke-width="2" style='filter: url("#zr2528-shadow-3");'></path><path d="M 549.3174 267.5788 A 140 140 0 0 1 566.7224 286.6712 L 546.772 301.737 A 115 115 0 0 0 532.475 286.054 Z" fill="none" fill-opacity="1" my_fill="none" my_fill_opacity="1" my_font_size="16px" my_stoke="rgb(46, 39, 51)" my_stoke_opacity="1" my_stoke_width="2px" opacity="1" paint-order="fill" stroke="#2E2733" stroke-dasharray="" stroke-linecap="butt" stroke-linejoin="bevel" stroke-miterlimit="10" stroke-opacity="1" stroke-width="2" style='filter: url("#zr2528-shadow-3");'></path><path d="M 566.7224 286.6712 A 140 140 0 0 1 594.4028 358.1224 L 569.5094 360.4291 A 115 115 0 0 0 546.772 301.737 Z" fill="none" fill-opacity="1" my_fill="none" my_fill_opacity="1" my_font_size="16px" my_stoke="rgb(46, 39, 51)" my_stoke_opacity="1" my_stoke_width="2px" opacity="1" paint-order="fill" stroke="#2E2733" stroke-dasharray="" stroke-linecap="butt" stroke-linejoin="bevel" stroke-miterlimit="10" stroke-opacity="1" stroke-width="2" style='filter: url("#zr2528-shadow-3");'></path><path d="M 594.4028 358.1224 A 140 140 0 0 1 594.4028 383.9576 L 569.5094 381.6509 A 115 115 0 0 0 569.5094 360.4291 Z" fill="none" fill-opacity="1" my_fill="none" my_fill_opacity="1" my_font_size="16px" my_stoke="rgb(46, 39, 51)" my_stoke_opacity="1" my_stoke_width="2px" opacity="1" paint-order="fill" stroke="#2E2733" stroke-dasharray="" stroke-linecap="butt" stroke-linejoin="bevel" stroke-miterlimit="10" stroke-opacity="1" stroke-width="2" style='filter: url("#zr2528-shadow-3");'></path><path d="M 594.4028 383.9576 A 140 140 0 0 1 589.6556 409.3528 L 565.6099 402.5112 A 115 115 0 0 0 569.5094 381.6509 Z" fill="none" fill-opacity="1" my_fill="none" my_fill_opacity="1" my_font_size="16px" my_stoke="rgb(46, 39, 51)" my_stoke_opacity="1" my_stoke_width="2px" opacity="1" paint-order="fill" stroke="#2E2733" stroke-dasharray="" stroke-linecap="butt" stroke-linejoin="bevel" stroke-miterlimit="10" stroke-opacity="1" stroke-width="2" style='filter: url("#zr2528-shadow-3");'></path><path d="M 589.6556 409.3528 A 140 140 0 0 1 566.7224 455.4088 L 546.772 440.343 A 115 115 0 0 0 565.6099 402.5112 Z" fill="none" fill-opacity="1" my_fill="none" my_fill_opacity="1" my_font_size="16px" my_stoke="rgb(46, 39, 51)" my_stoke_opacity="1" my_stoke_width="2px" opacity="1" paint-order="fill" stroke="#2E2733" stroke-dasharray="" stroke-linecap="butt" stroke-linejoin="bevel" stroke-miterlimit="10" stroke-opacity="1" stroke-width="2" style='filter: url("#zr2528-shadow-3");'></path><path d="M 566.7224 455.4088 A 140 140 0 0 1 549.3174 474.5012 L 532.475 456.026 A 115 115 0 0 0 546.772 440.343 Z" fill="none" fill-opacity="1" my_fill="none" my_fill_opacity="1" my_font_size="16px" my_stoke="rgb(46, 39, 51)" my_stoke_opacity="1" my_stoke_width="2px" opacity="1" paint-order="fill" stroke="#2E2733" stroke-dasharray="" stroke-linecap="butt" stroke-linejoin="bevel" stroke-miterlimit="10" stroke-opacity="1" stroke-width="2" style='filter: url("#zr2528-shadow-3");'></path><path d="M 549.3174 474.5012 A 140 140 0 0 1 480.7249 508.6562 L 476.1312 484.0819 A 115 115 0 0 0 532.475 456.026 Z" fill="none" fill-opacity="1" my_fill="none" my_fill_opacity="1" my_font_size="16px" my_stoke="rgb(46, 39, 51)" my_stoke_opacity="1" my_stoke_width="2px" opacity="1" paint-order="fill" stroke="#2E2733" stroke-dasharray="" stroke-linecap="butt" stroke-linejoin="bevel" stroke-miterlimit="10" stroke-opacity="1" stroke-width="2" style='filter: url("#zr2528-shadow-3");'></path><path d="M 480.7249 508.6562 A 140 140 0 0 1 455 511.04 L 455 486.04 A 115 115 0 0 0 476.1312 484.0819 Z" fill="none" fill-opacity="1" my_fill="none" my_fill_opacity="1" my_font_size="16px" my_stoke="rgb(46, 39, 51)" my_stoke_opacity="1" my_stoke_width="2px" opacity="1" paint-order="fill" stroke="#2E2733" stroke-dasharray="" stroke-linecap="butt" stroke-linejoin="bevel" stroke-miterlimit="10" stroke-opacity="1" stroke-width="2" style='filter: url("#zr2528-shadow-3");'></path><path d="M 455 511.04 A 140 140 0 0 1 404.4262 501.5861 L 413.4572 478.2743 A 115 115 0 0 0 455 486.04 Z" fill="none" fill-opacity="1" my_fill="none" my_fill_opacity="1" my_font_size="16px" my_stoke="rgb(46, 39, 51)" my_stoke_opacity="1" my_stoke_width="2px" opacity="1" paint-order="fill" stroke="#2E2733" stroke-dasharray="" stroke-linecap="butt" stroke-linejoin="bevel" stroke-miterlimit="10" stroke-opacity="1" stroke-width="2" style='filter: url("#zr2528-shadow-3");'></path><path d="M 404.4262 501.5861 A 140 140 0 0 1 381.2995 490.0704 L 394.4603 468.815 A 115 115 0 0 0 413.4572 478.2743 Z" fill="none" fill-opacity="1" my_fill="none" my_fill_opacity="1" my_font_size="16px" my_stoke="rgb(46, 39, 51)" my_stoke_opacity="1" my_stoke_width="2px" opacity="1" paint-order="fill" stroke="#2E2733" stroke-dasharray="" stroke-linecap="butt" stroke-linejoin="bevel" stroke-miterlimit="10" stroke-opacity="1" stroke-width="2" style='filter: url("#zr2528-shadow-3");'></path><path d="M 381.2995 490.0704 A 140 140 0 0 1 360.6826 474.5012 L 377.525 456.026 A 115 115 0 0 0 394.4603 468.815 Z" fill="none" fill-opacity="1" my_fill="none" my_fill_opacity="1" my_font_size="16px" my_stoke="rgb(46, 39, 51)" my_stoke_opacity="1" my_stoke_width="2px" opacity="1" paint-order="fill" stroke="#2E2733" stroke-dasharray="" stroke-linecap="butt" stroke-linejoin="bevel" stroke-miterlimit="10" stroke-opacity="1" stroke-width="2" style='filter: url("#zr2528-shadow-3");'></path><path d="M 360.6826 474.5012 A 140 140 0 0 1 343.2776 455.4088 L 363.228 440.343 A 115 115 0 0 0 377.525 456.026 Z" fill="none" fill-opacity="1" my_fill="none" my_fill_opacity="1" my_font_size="16px" my_stoke="rgb(46, 39, 51)" my_stoke_opacity="1" my_stoke_width="2px" opacity="1" paint-order="fill" stroke="#2E2733" stroke-dasharray="" stroke-linecap="butt" stroke-linejoin="bevel" stroke-miterlimit="10" stroke-opacity="1" stroke-width="2" style='filter: url("#zr2528-shadow-3");'></path><path d="M 343.2776 455.4088 A 140 140 0 0 1 329.6771 433.4434 L 352.0562 422.2999 A 115 115 0 0 0 363.228 440.343 Z" fill="none" fill-opacity="1" my_fill="none" my_fill_opacity="1" my_font_size="16px" my_stoke="rgb(46, 39, 51)" my_stoke_opacity="1" my_stoke_width="2px" opacity="1" paint-order="fill" stroke="#2E2733" stroke-dasharray="" stroke-linecap="butt" stroke-linejoin="bevel" stroke-miterlimit="10" stroke-opacity="1" stroke-width="2" style='filter: url("#zr2528-shadow-3");'></path><path d="M 361.0079 417.8425 A 105 105 0 0 1 384.262 293.4441 L 428.0522 341.4796 A 40 40 0 0 0 419.1935 388.8695 Z" fill="rgb(255, 120, 83)" fill-opacity="1" my_fill="rgb(255, 120, 83)" my_fill_opacity="1" my_font_size="16px" my_stoke="rgb(46, 39, 51)" my_stoke_opacity="1" my_stoke_width="2px" opacity="1" paint-order="fill" stroke="#2E2733" stroke-dasharray="" stroke-linecap="butt" stroke-linejoin="bevel" stroke-miterlimit="10" stroke-opacity="1" stroke-width="2"></path><path d="M 329.6771 433.4434 A 140 140 0 0 1 315.5972 358.1224 L 340.4906 360.4291 A 115 115 0 0 0 352.0562 422.2999 Z" fill="none" fill-opacity="1" my_fill="none" my_fill_opacity="1" my_font_size="16px" my_stoke="rgb(46, 39, 51)" my_stoke_opacity="1" my_stoke_width="2px" opacity="1" paint-order="fill" stroke="#2E2733" stroke-dasharray="" stroke-linecap="butt" stroke-linejoin="bevel" stroke-miterlimit="10" stroke-opacity="1" stroke-width="2" style='filter: url("#zr2528-shadow-3");'></path><path d="M 315.5972 358.1224 A 140 140 0 0 1 343.2776 286.6712 L 363.228 301.737 A 115 115 0 0 0 340.4906 360.4291 Z" fill="none" fill-opacity="1" my_fill="none" my_fill_opacity="1" my_font_size="16px" my_stoke="rgb(46, 39, 51)" my_stoke_opacity="1" my_stoke_width="2px" opacity="1" paint-order="fill" stroke="#2E2733" stroke-dasharray="" stroke-linecap="butt" stroke-linejoin="bevel" stroke-miterlimit="10" stroke-opacity="1" stroke-width="2" style='filter: url("#zr2528-shadow-3");'></path><path d="M 343.2776 286.6712 A 140 140 0 0 1 360.6826 267.5788 L 377.525 286.054 A 115 115 0 0 0 363.228 301.737 Z" fill="none" fill-opacity="1" my_fill="none" my_fill_opacity="1" my_font_size="16px" my_stoke="rgb(46, 39, 51)" my_stoke_opacity="1" my_stoke_width="2px" opacity="1" paint-order="fill" stroke="#2E2733" stroke-dasharray="" stroke-linecap="butt" stroke-linejoin="bevel" stroke-miterlimit="10" stroke-opacity="1" stroke-width="2" style='filter: url("#zr2528-shadow-3");'></path><path d="M 360.6826 267.5788 A 140 140 0 0 1 381.2995 252.0096 L 394.4603 273.265 A 115 115 0 0 0 377.525 286.054 Z" fill="none" fill-opacity="1" my_fill="none" my_fill_opacity="1" my_font_size="16px" my_stoke="rgb(46, 39, 51)" my_stoke_opacity="1" my_stoke_width="2px" opacity="1" paint-order="fill" stroke="#2E2733" stroke-dasharray="" stroke-linecap="butt" stroke-linejoin="bevel" stroke-miterlimit="10" stroke-opacity="1" stroke-width="2" style='filter: url("#zr2528-shadow-3");'></path><path d="M 381.2995 252.0096 A 140 140 0 0 1 429.2751 233.4238 L 433.8688 257.9981 A 115 115 0 0 0 394.4603 273.265 Z" fill="none" fill-opacity="1" my_fill="none" my_fill_opacity="1" my_font_size="16px" my_stoke="rgb(46, 39, 51)" my_stoke_opacity="1" my_stoke_width="2px" opacity="1" paint-order="fill" stroke="#2E2733" stroke-dasharray="" stroke-linecap="butt" stroke-linejoin="bevel" stroke-miterlimit="10" stroke-opacity="1" stroke-width="2" style='filter: url("#zr2528-shadow-3");'></path><path d="M 429.2751 233.4238 A 140 140 0 0 1 455 231.04 L 455 256.04 A 115 115 0 0 0 433.8688 257.9981 Z" fill="none" fill-opacity="1" my_fill="none" my_fill_opacity="1" my_font_size="16px" my_stoke="rgb(46, 39, 51)" my_stoke_opacity="1" my_stoke_width="2px" opacity="1" paint-order="fill" stroke="#2E2733" stroke-dasharray="" stroke-linecap="butt" stroke-linejoin="bevel" stroke-miterlimit="10" stroke-opacity="1" stroke-width="2" style='filter: url("#zr2528-shadow-3");'></path><text clip-path="none" content="后物欲时代的来临" dominant-baseline="central" fill="rgb(255, 120, 83)" fill-opacity="1" font-family='"Microsoft YaHei"' my_fill="rgb(255, 120, 83)" my_fill_opacity="1" my_font_size="12px" my_stoke="none" my_stoke_opacity="1" my_stoke_width="1px" opacity="1" stroke="none" stroke-opacity="1" stroke-width="1px" style='font: 12px "Microsoft YaHei"; filter: url("#zr2528-shadow-0"); fill: rgb(255, 120, 83);' text-anchor="start" text_bbox='{"x":-1,"y":-8,"w":98,"h":16}' transform="matrix(0.983,-0.184,0.184,0.983,602.446,343.4776)" x="0" xml:space="preserve" y="0">后物欲时代的来临</text><text clip-path="none" content="我们时代的神经症人格" dominant-baseline="central" fill="rgb(255, 174, 87)" fill-opacity="1" font-family='"Microsoft YaHei"' my_fill="rgb(255, 174, 87)" my_fill_opacity="1" my_font_size="12px" my_stoke="none" my_stoke_opacity="1" my_stoke_width="1px" opacity="1" stroke="none" stroke-opacity="1" stroke-width="1px" style='font: 12px "Microsoft YaHei"; filter: url("#zr2528-shadow-0"); fill: rgb(255, 174, 87);' text-anchor="start" text_bbox='{"x":-1,"y":-8,"w":122,"h":16}' transform="matrix(0.983,0.184,-0.184,0.983,602.446,398.6024)" x="0" xml:space="preserve" y="0">我们时代的神经症人格</text><text clip-path="none" content="假如生活糊弄了你" dominant-baseline="central" fill="rgb(255, 120, 83)" fill-opacity="1" font-family='"Microsoft YaHei"' my_fill="rgb(255, 120, 83)" my_fill_opacity="1" my_font_size="12px" my_stoke="none" my_stoke_opacity="1" my_stoke_width="1px" opacity="1" stroke="none" stroke-opacity="1" stroke-width="1px" style='font: 12px "Microsoft YaHei"; filter: url("#zr2528-shadow-1"); fill: rgb(255, 120, 83);' text-anchor="end" text_bbox='{"x":-96.984375,"y":-8,"w":97.984375,"h":16}' transform="matrix(0.092,-0.996,0.996,0.092,441.1597,520.4001)" x="0" xml:space="preserve" y="0">假如生活糊弄了你</text><text clip-path="none" content="博物学家的神秘动物图鉴" dominant-baseline="central" fill="rgb(255, 120, 83)" fill-opacity="1" font-family='"Microsoft YaHei"' my_fill="rgb(255, 120, 83)" my_fill_opacity="1" my_font_size="12px" my_stoke="none" my_stoke_opacity="1" my_stoke_width="1px" opacity="1" stroke="none" stroke-opacity="1" stroke-width="1px" style='font: 12px "Microsoft YaHei"; filter: url("#zr2528-shadow-1"); fill: rgb(255, 120, 83);' text-anchor="end" text_bbox='{"x":-132.96875,"y":-8,"w":133.96875,"h":16}' transform="matrix(0.274,-0.962,0.962,0.274,413.9506,515.3138)" x="0" xml:space="preserve" y="0">博物学家的神秘动物图鉴</text><text clip-path="none" content="楼下的房客" dominant-baseline="central" fill="rgb(255, 174, 87)" fill-opacity="1" font-family='"Microsoft YaHei"' my_fill="rgb(255, 174, 87)" my_fill_opacity="1" my_font_size="12px" my_stoke="none" my_stoke_opacity="1" my_stoke_width="1px" opacity="1" stroke="none" stroke-opacity="1" stroke-width="1px" style='font: 12px "Microsoft YaHei"; filter: url("#zr2528-shadow-0"); fill: rgb(255, 174, 87);' text-anchor="end" text_bbox='{"x":-61,"y":-8,"w":62,"h":16}' transform="matrix(1,0,0,1,305,371.04)" x="0" xml:space="preserve" y="0">楼下的房客</text><text clip-path="none" content="纳博科夫短篇小说全集" dominant-baseline="central" fill="rgb(255, 174, 87)" fill-opacity="1" font-family='"Microsoft YaHei"' my_fill="rgb(255, 174, 87)" my_fill_opacity="1" my_font_size="12px" my_stoke="none" my_stoke_opacity="1" my_stoke_width="1px" opacity="1" stroke="none" stroke-opacity="1" stroke-width="1px" style='font: 12px "Microsoft YaHei"; filter: url("#zr2528-shadow-0"); fill: rgb(255, 174, 87);' text-anchor="end" text_bbox='{"x":-120.984375,"y":-8,"w":121.984375,"h":16}' transform="matrix(0.603,0.798,-0.798,0.603,364.6048,251.3374)" x="0" xml:space="preserve" y="0">纳博科夫短篇小说全集</text><text clip-path="none" content="比起爱你，我更需要你" dominant-baseline="central" fill="rgb(234, 81, 81)" fill-opacity="1" font-family='"Microsoft YaHei"' my_fill="rgb(234, 81, 81)" my_fill_opacity="1" my_font_size="12px" my_stoke="none" my_stoke_opacity="1" my_stoke_width="1px" opacity="1" stroke="none" stroke-opacity="1" stroke-width="1px" style='font: 12px "Microsoft YaHei"; filter: url("#zr2528-shadow-1"); fill: rgb(234, 81, 81);' text-anchor="end" text_bbox='{"x":-119.984375,"y":-8,"w":120.984375,"h":16}' transform="matrix(0.092,0.996,-0.996,0.092,441.1597,221.6799)" x="0" xml:space="preserve" y="0">比起爱你，我更需要你</text></g></svg>