<svg baseProfile="full" height="773" style="user-select: none; position: absolute; left: 0px; top: 0px;" transform_matrix='{"a":1,"b":0,"c":0,"d":1,"e":0,"f":0}' version="1.1" width="910" xmlns="http://www.w3.org/2000/svg" xmlns:xlink="http://www.w3.org/1999/xlink"><g><path d="M 455 244.7833 A 141.7167 141.7167 0 0 1 522.4497 511.1361 L 482.5931 437.4875 A 57.975 57.975 0 0 0 455 328.525 Z" fill="rgb(205, 73, 73)" fill-opacity="1" my_fill="rgb(205, 73, 73)" my_fill_opacity="1" my_font_size="16px" my_stoke="rgb(255, 255, 255)" my_stoke_opacity="1" my_stoke_width="1px" opacity="1" paint-order="fill" stroke="white" stroke-dasharray="" stroke-linecap="butt" stroke-linejoin="bevel" stroke-miterlimit="10" stroke-opacity="1" stroke-width="1"></path><path d="M 455 161.0417 A 225.4583 225.4583 0 0 1 673.5594 331.1533 L 592.3802 351.7106 A 141.7167 141.7167 0 0 0 455 244.7833 Z" fill="rgb(244, 114, 81)" fill-opacity="1" my_fill="rgb(244, 114, 81)" my_fill_opacity="1" my_font_size="16px" my_stoke="rgb(255, 255, 255)" my_stoke_opacity="1" my_stoke_width="1px" opacity="1" paint-order="fill" stroke="white" stroke-dasharray="" stroke-linecap="butt" stroke-linejoin="bevel" stroke-miterlimit="10" stroke-opacity="1" stroke-width="1"></path><path d="M 455 77.3 A 309.2 309.2 0 0 1 644.9146 142.4978 L 593.4794 208.5817 A 225.4583 225.4583 0 0 0 455 161.0417 Z" fill="rgb(255, 199, 95)" fill-opacity="1" my_fill="rgb(255, 199, 95)" my_fill_opacity="1" my_font_size="16px" my_stoke="rgb(255, 255, 255)" my_stoke_opacity="1" my_stoke_width="1px" opacity="1" paint-order="fill" stroke="white" stroke-dasharray="" stroke-linecap="butt" stroke-linejoin="bevel" stroke-miterlimit="10" stroke-opacity="1" stroke-width="1"></path><path d="M 713.8519 217.3836 A 309.2 309.2 0 0 1 754.7386 310.5959 L 673.5594 331.1533 A 225.4583 225.4583 0 0 0 643.7462 263.186 Z" fill="rgb(255, 199, 95)" fill-opacity="1" my_fill="rgb(255, 199, 95)" my_fill_opacity="1" my_font_size="16px" my_stoke="rgb(255, 255, 255)" my_stoke_opacity="1" my_stoke_width="1px" opacity="1" paint-order="fill" stroke="white" stroke-dasharray="" stroke-linecap="butt" stroke-linejoin="bevel" stroke-miterlimit="10" stroke-opacity="1" stroke-width="1"></path><path d="M 522.4497 511.1361 A 141.7167 141.7167 0 0 1 350.7357 482.4821 L 412.3464 425.7654 A 57.975 57.975 0 0 0 482.5931 437.4875 Z" fill="rgb(205, 73, 73)" fill-opacity="1" my_fill="rgb(205, 73, 73)" my_fill_opacity="1" my_font_size="16px" my_stoke="rgb(255, 255, 255)" my_stoke_opacity="1" my_stoke_width="1px" opacity="1" paint-order="fill" stroke="white" stroke-dasharray="" stroke-linecap="butt" stroke-linejoin="bevel" stroke-miterlimit="10" stroke-opacity="1" stroke-width="1"></path><path d="M 602.1629 658.4333 A 309.2 309.2 0 0 1 404.1074 691.4829 L 417.8908 608.8834 A 225.4583 225.4583 0 0 0 562.3063 584.7847 Z" fill="rgb(255, 199, 95)" fill-opacity="1" my_fill="rgb(255, 199, 95)" my_fill_opacity="1" my_font_size="16px" my_stoke="rgb(255, 255, 255)" my_stoke_opacity="1" my_stoke_width="1px" opacity="1" paint-order="fill" stroke="white" stroke-dasharray="" stroke-linecap="butt" stroke-linejoin="bevel" stroke-miterlimit="10" stroke-opacity="1" stroke-width="1"></path><path d="M 350.7357 482.4821 A 141.7167 141.7167 0 0 1 336.3596 308.9883 L 406.4653 354.7907 A 57.975 57.975 0 0 0 412.3464 425.7654 Z" fill="rgb(205, 73, 73)" fill-opacity="1" my_fill="rgb(205, 73, 73)" my_fill_opacity="1" my_font_size="16px" my_stoke="rgb(255, 255, 255)" my_stoke_opacity="1" my_stoke_width="1px" opacity="1" paint-order="fill" stroke="white" stroke-dasharray="" stroke-linecap="butt" stroke-linejoin="bevel" stroke-miterlimit="10" stroke-opacity="1" stroke-width="1"></path><path d="M 266.2538 263.186 A 225.4583 225.4583 0 0 1 316.5206 208.5817 L 367.9558 274.6656 A 141.7167 141.7167 0 0 0 336.3596 308.9883 Z" fill="rgb(244, 114, 81)" fill-opacity="1" my_fill="rgb(244, 114, 81)" my_fill_opacity="1" my_font_size="16px" my_stoke="rgb(255, 255, 255)" my_stoke_opacity="1" my_stoke_width="1px" opacity="1" paint-order="fill" stroke="white" stroke-dasharray="" stroke-linecap="butt" stroke-linejoin="bevel" stroke-miterlimit="10" stroke-opacity="1" stroke-width="1"></path><text clip-path="none" content="0" dominant-baseline="central" fill="rgb(0, 0, 0)" fill-opacity="1" font-family='"Microsoft YaHei"' my_fill="rgb(0, 0, 0)" my_fill_opacity="1" my_font_size="12px" my_stoke="rgb(255, 255, 255)" my_stoke_opacity="1" my_stoke_width="2px" opacity="1" paint-order="stroke" stroke="rgb(255, 255, 255)" stroke-dasharray="" stroke-linecap="butt" stroke-miterlimit="2" stroke-opacity="1" stroke-width="2px" style='font: 12px "Microsoft YaHei"; fill: rgb(0, 0, 0);' text-anchor="middle" text_bbox='{"x":-3.53125,"y":-8,"w":7.0625,"h":16}' transform="matrix(1,0,0,1,541.8016,133.6555)" x="0" xml:space="preserve" y="0">0</text><text clip-path="none" content="0" dominant-baseline="central" fill="rgb(0, 0, 0)" fill-opacity="1" font-family='"Microsoft YaHei"' my_fill="rgb(0, 0, 0)" my_fill_opacity="1" my_font_size="12px" my_stoke="rgb(255, 255, 255)" my_stoke_opacity="1" my_stoke_width="2px" opacity="1" paint-order="stroke" stroke="rgb(255, 255, 255)" stroke-dasharray="" stroke-linecap="butt" stroke-miterlimit="2" stroke-opacity="1" stroke-width="2px" style='font: 12px "Microsoft YaHei"; fill: rgb(0, 0, 0);' text-anchor="middle" text_bbox='{"x":-3.53125,"y":-8,"w":7.0625,"h":16}' transform="matrix(1,0,0,1,499.0009,650.1831)" x="0" xml:space="preserve" y="0">0</text><text clip-path="none" content="0" dominant-baseline="central" fill="rgb(0, 0, 0)" fill-opacity="1" font-family='"Microsoft YaHei"' my_fill="rgb(0, 0, 0)" my_fill_opacity="1" my_font_size="12px" my_stoke="rgb(255, 255, 255)" my_stoke_opacity="1" my_stoke_width="2px" opacity="1" paint-order="stroke" stroke="rgb(255, 255, 255)" stroke-dasharray="" stroke-linecap="butt" stroke-miterlimit="2" stroke-opacity="1" stroke-width="2px" style='font: 12px "Microsoft YaHei"; fill: rgb(0, 0, 0);' text-anchor="middle" text_bbox='{"x":-3.53125,"y":-8,"w":7.0625,"h":16}' transform="matrix(1,0,0,1,210.1871,493.8849)" x="0" xml:space="preserve" y="0">0</text></g></svg>