<svg baseProfile="full" height="773" style="user-select: none; position: absolute; left: 0px; top: 0px;" transform_matrix='{"a":1,"b":0,"c":0,"d":1,"e":0,"f":0}' version="1.1" width="910" xmlns="http://www.w3.org/2000/svg" xmlns:xlink="http://www.w3.org/1999/xlink"><g><path d="M 218.4 88.4741 L 436.8 88.4741" fill="none" my_fill="none" my_fill_opacity="1" my_font_size="16px" my_stoke="rgb(204, 204, 204)" my_stoke_opacity="1" my_stoke_width="2px" opacity="1" paint-order="fill" stroke="#ccc" stroke-dasharray="" stroke-linecap="butt" stroke-miterlimit="10" stroke-opacity="1" stroke-width="2" transform="matrix(1,0,0,1,72.8,77.3)"></path><path d="M 1 0 A 1 1 0 1 1 1 -0.0001" fill="rgb(255, 255, 255)" fill-opacity="1" my_fill="rgb(255, 255, 255)" my_fill_opacity="1" my_font_size="16px" my_stoke="rgb(176, 196, 222)" my_stoke_opacity="1" my_stoke_width="0.571429px" opacity="1" paint-order="fill" stroke="lightsteelblue" stroke-dasharray="" stroke-linecap="butt" stroke-miterlimit="10" stroke-opacity="1" stroke-width="0.5714285714285714" transform="matrix(3.5,0,0,3.5,72.8,321.9048)"></path><path d="M 1 0 A 1 1 0 1 1 1 -0.0001" fill="rgb(255, 255, 255)" fill-opacity="1" my_fill="rgb(255, 255, 255)" my_fill_opacity="1" my_font_size="16px" my_stoke="rgb(176, 196, 222)" my_stoke_opacity="1" my_stoke_width="0.571429px" opacity="1" paint-order="fill" stroke="lightsteelblue" stroke-dasharray="" stroke-linecap="butt" stroke-miterlimit="10" stroke-opacity="1" stroke-width="0.5714285714285714" transform="matrix(3.5,0,0,3.5,291.2,98.1174)"></path><path d="M 1 0 A 1 1 0 1 1 1 -0.0001" fill="rgb(255, 255, 255)" fill-opacity="1" my_fill="rgb(255, 255, 255)" my_fill_opacity="1" my_font_size="16px" my_stoke="rgb(176, 196, 222)" my_stoke_opacity="1" my_stoke_width="0.571429px" opacity="1" paint-order="fill" stroke="lightsteelblue" stroke-dasharray="" stroke-linecap="butt" stroke-miterlimit="10" stroke-opacity="1" stroke-width="0.5714285714285714" transform="matrix(3.5,0,0,3.5,509.6,92.9131)"></path><path d="M 1 0 A 1 1 0 1 1 1 -0.0001" fill="rgb(255, 255, 255)" fill-opacity="1" my_fill="rgb(255, 255, 255)" my_fill_opacity="1" my_font_size="16px" my_stoke="rgb(176, 196, 222)" my_stoke_opacity="1" my_stoke_width="0.571429px" opacity="1" paint-order="fill" stroke="lightsteelblue" stroke-dasharray="" stroke-linecap="butt" stroke-miterlimit="10" stroke-opacity="1" stroke-width="0.5714285714285714" transform="matrix(3.5,0,0,3.5,728,87.7087)"></path><path d="M 1 0 A 1 1 0 1 1 1 -0.0001" fill="rgb(255, 255, 255)" fill-opacity="1" my_fill="rgb(255, 255, 255)" my_fill_opacity="1" my_font_size="16px" my_stoke="rgb(176, 196, 222)" my_stoke_opacity="1" my_stoke_width="0.571429px" opacity="1" paint-order="fill" stroke="lightsteelblue" stroke-dasharray="" stroke-linecap="butt" stroke-miterlimit="10" stroke-opacity="1" stroke-width="0.5714285714285714" transform="matrix(3.5,0,0,3.5,728,98.1174)"></path><path d="M 1 0 A 1 1 0 1 1 1 -0.0001" fill="rgb(255, 255, 255)" fill-opacity="1" my_fill="rgb(255, 255, 255)" my_fill_opacity="1" my_font_size="16px" my_stoke="rgb(176, 196, 222)" my_stoke_opacity="1" my_stoke_width="0.571429px" opacity="1" paint-order="fill" stroke="lightsteelblue" stroke-dasharray="" stroke-linecap="butt" stroke-miterlimit="10" stroke-opacity="1" stroke-width="0.5714285714285714" transform="matrix(3.5,0,0,3.5,509.6,103.3218)"></path><path d="M 1 0 A 1 1 0 1 1 1 -0.0001" fill="rgb(255, 255, 255)" fill-opacity="1" my_fill="rgb(255, 255, 255)" my_fill_opacity="1" my_font_size="16px" my_stoke="rgb(176, 196, 222)" my_stoke_opacity="1" my_stoke_width="0.571429px" opacity="1" paint-order="fill" stroke="lightsteelblue" stroke-dasharray="" stroke-linecap="butt" stroke-miterlimit="10" stroke-opacity="1" stroke-width="0.5714285714285714" transform="matrix(3.5,0,0,3.5,291.2,134.5479)"></path><path d="M 1 0 A 1 1 0 1 1 1 -0.0001" fill="rgb(255, 255, 255)" fill-opacity="1" my_fill="rgb(255, 255, 255)" my_fill_opacity="1" my_font_size="16px" my_stoke="rgb(176, 196, 222)" my_stoke_opacity="1" my_stoke_width="0.571429px" opacity="1" paint-order="fill" stroke="lightsteelblue" stroke-dasharray="" stroke-linecap="butt" stroke-miterlimit="10" stroke-opacity="1" stroke-width="0.5714285714285714" transform="matrix(3.5,0,0,3.5,509.6,124.1392)"></path><path d="M 1 0 A 1 1 0 1 1 1 -0.0001" fill="rgb(255, 255, 255)" fill-opacity="1" my_fill="rgb(255, 255, 255)" my_fill_opacity="1" my_font_size="16px" my_stoke="rgb(176, 196, 222)" my_stoke_opacity="1" my_stoke_width="0.571429px" opacity="1" paint-order="fill" stroke="lightsteelblue" stroke-dasharray="" stroke-linecap="butt" stroke-miterlimit="10" stroke-opacity="1" stroke-width="0.5714285714285714" transform="matrix(3.5,0,0,3.5,509.6,134.5479)"></path><path d="M 1 0 A 1 1 0 1 1 1 -0.0001" fill="rgb(255, 255, 255)" fill-opacity="1" my_fill="rgb(255, 255, 255)" my_fill_opacity="1" my_font_size="16px" my_stoke="rgb(176, 196, 222)" my_stoke_opacity="1" my_stoke_width="0.571429px" opacity="1" paint-order="fill" stroke="lightsteelblue" stroke-dasharray="" stroke-linecap="butt" stroke-miterlimit="10" stroke-opacity="1" stroke-width="0.5714285714285714" transform="matrix(3.5,0,0,3.5,509.6,144.9566)"></path><path d="M 1 0 A 1 1 0 1 1 1 -0.0001" fill="rgb(255, 255, 255)" fill-opacity="1" my_fill="rgb(255, 255, 255)" my_fill_opacity="1" my_font_size="16px" my_stoke="rgb(176, 196, 222)" my_stoke_opacity="1" my_stoke_width="0.571429px" opacity="1" paint-order="fill" stroke="lightsteelblue" stroke-dasharray="" stroke-linecap="butt" stroke-miterlimit="10" stroke-opacity="1" stroke-width="0.5714285714285714" transform="matrix(3.5,0,0,3.5,291.2,165.7741)"></path><path d="M 1 0 A 1 1 0 1 1 1 -0.0001" fill="rgb(255, 255, 255)" fill-opacity="1" my_fill="rgb(255, 255, 255)" my_fill_opacity="1" my_font_size="16px" my_stoke="rgb(176, 196, 222)" my_stoke_opacity="1" my_stoke_width="0.571429px" opacity="1" paint-order="fill" stroke="lightsteelblue" stroke-dasharray="" stroke-linecap="butt" stroke-miterlimit="10" stroke-opacity="1" stroke-width="0.5714285714285714" transform="matrix(3.5,0,0,3.5,509.6,165.7741)"></path><path d="M 1 0 A 1 1 0 1 1 1 -0.0001" fill="rgb(255, 255, 255)" fill-opacity="1" my_fill="rgb(255, 255, 255)" my_fill_opacity="1" my_font_size="16px" my_stoke="rgb(176, 196, 222)" my_stoke_opacity="1" my_stoke_width="0.571429px" opacity="1" paint-order="fill" stroke="lightsteelblue" stroke-dasharray="" stroke-linecap="butt" stroke-miterlimit="10" stroke-opacity="1" stroke-width="0.5714285714285714" transform="matrix(3.5,0,0,3.5,291.2,332.3135)"></path><path d="M 1 0 A 1 1 0 1 1 1 -0.0001" fill="rgb(255, 255, 255)" fill-opacity="1" my_fill="rgb(255, 255, 255)" my_fill_opacity="1" my_font_size="16px" my_stoke="rgb(176, 196, 222)" my_stoke_opacity="1" my_stoke_width="0.571429px" opacity="1" paint-order="fill" stroke="lightsteelblue" stroke-dasharray="" stroke-linecap="butt" stroke-miterlimit="10" stroke-opacity="1" stroke-width="0.5714285714285714" transform="matrix(3.5,0,0,3.5,509.6,186.5915)"></path><path d="M 1 0 A 1 1 0 1 1 1 -0.0001" fill="rgb(255, 255, 255)" fill-opacity="1" my_fill="rgb(255, 255, 255)" my_fill_opacity="1" my_font_size="16px" my_stoke="rgb(176, 196, 222)" my_stoke_opacity="1" my_stoke_width="0.571429px" opacity="1" paint-order="fill" stroke="lightsteelblue" stroke-dasharray="" stroke-linecap="butt" stroke-miterlimit="10" stroke-opacity="1" stroke-width="0.5714285714285714" transform="matrix(3.5,0,0,3.5,509.6,197.0002)"></path><path d="M 1 0 A 1 1 0 1 1 1 -0.0001" fill="rgb(255, 255, 255)" fill-opacity="1" my_fill="rgb(255, 255, 255)" my_fill_opacity="1" my_font_size="16px" my_stoke="rgb(176, 196, 222)" my_stoke_opacity="1" my_stoke_width="0.571429px" opacity="1" paint-order="fill" stroke="lightsteelblue" stroke-dasharray="" stroke-linecap="butt" stroke-miterlimit="10" stroke-opacity="1" stroke-width="0.5714285714285714" transform="matrix(3.5,0,0,3.5,509.6,207.4089)"></path><path d="M 1 0 A 1 1 0 1 1 1 -0.0001" fill="rgb(255, 255, 255)" fill-opacity="1" my_fill="rgb(255, 255, 255)" my_fill_opacity="1" my_font_size="16px" my_stoke="rgb(176, 196, 222)" my_stoke_opacity="1" my_stoke_width="0.571429px" opacity="1" paint-order="fill" stroke="lightsteelblue" stroke-dasharray="" stroke-linecap="butt" stroke-miterlimit="10" stroke-opacity="1" stroke-width="0.5714285714285714" transform="matrix(3.5,0,0,3.5,509.6,217.8176)"></path><path d="M 1 0 A 1 1 0 1 1 1 -0.0001" fill="rgb(255, 255, 255)" fill-opacity="1" my_fill="rgb(255, 255, 255)" my_fill_opacity="1" my_font_size="16px" my_stoke="rgb(176, 196, 222)" my_stoke_opacity="1" my_stoke_width="0.571429px" opacity="1" paint-order="fill" stroke="lightsteelblue" stroke-dasharray="" stroke-linecap="butt" stroke-miterlimit="10" stroke-opacity="1" stroke-width="0.5714285714285714" transform="matrix(3.5,0,0,3.5,509.6,228.2263)"></path><path d="M 1 0 A 1 1 0 1 1 1 -0.0001" fill="rgb(255, 255, 255)" fill-opacity="1" my_fill="rgb(255, 255, 255)" my_fill_opacity="1" my_font_size="16px" my_stoke="rgb(176, 196, 222)" my_stoke_opacity="1" my_stoke_width="0.571429px" opacity="1" paint-order="fill" stroke="lightsteelblue" stroke-dasharray="" stroke-linecap="butt" stroke-miterlimit="10" stroke-opacity="1" stroke-width="0.5714285714285714" transform="matrix(3.5,0,0,3.5,509.6,238.635)"></path><path d="M 1 0 A 1 1 0 1 1 1 -0.0001" fill="rgb(255, 255, 255)" fill-opacity="1" my_fill="rgb(255, 255, 255)" my_fill_opacity="1" my_font_size="16px" my_stoke="rgb(176, 196, 222)" my_stoke_opacity="1" my_stoke_width="0.571429px" opacity="1" paint-order="fill" stroke="lightsteelblue" stroke-dasharray="" stroke-linecap="butt" stroke-miterlimit="10" stroke-opacity="1" stroke-width="0.5714285714285714" transform="matrix(3.5,0,0,3.5,509.6,249.0438)"></path><path d="M 1 0 A 1 1 0 1 1 1 -0.0001" fill="rgb(255, 255, 255)" fill-opacity="1" my_fill="rgb(255, 255, 255)" my_fill_opacity="1" my_font_size="16px" my_stoke="rgb(176, 196, 222)" my_stoke_opacity="1" my_stoke_width="0.571429px" opacity="1" paint-order="fill" stroke="lightsteelblue" stroke-dasharray="" stroke-linecap="butt" stroke-miterlimit="10" stroke-opacity="1" stroke-width="0.5714285714285714" transform="matrix(3.5,0,0,3.5,509.6,259.4525)"></path><path d="M 1 0 A 1 1 0 1 1 1 -0.0001" fill="rgb(255, 255, 255)" fill-opacity="1" my_fill="rgb(255, 255, 255)" my_fill_opacity="1" my_font_size="16px" my_stoke="rgb(176, 196, 222)" my_stoke_opacity="1" my_stoke_width="0.571429px" opacity="1" paint-order="fill" stroke="lightsteelblue" stroke-dasharray="" stroke-linecap="butt" stroke-miterlimit="10" stroke-opacity="1" stroke-width="0.5714285714285714" transform="matrix(3.5,0,0,3.5,509.6,269.8612)"></path><path d="M 1 0 A 1 1 0 1 1 1 -0.0001" fill="rgb(255, 255, 255)" fill-opacity="1" my_fill="rgb(255, 255, 255)" my_fill_opacity="1" my_font_size="16px" my_stoke="rgb(176, 196, 222)" my_stoke_opacity="1" my_stoke_width="0.571429px" opacity="1" paint-order="fill" stroke="lightsteelblue" stroke-dasharray="" stroke-linecap="butt" stroke-miterlimit="10" stroke-opacity="1" stroke-width="0.5714285714285714" transform="matrix(3.5,0,0,3.5,509.6,280.2699)"></path><path d="M 1 0 A 1 1 0 1 1 1 -0.0001" fill="rgb(255, 255, 255)" fill-opacity="1" my_fill="rgb(255, 255, 255)" my_fill_opacity="1" my_font_size="16px" my_stoke="rgb(176, 196, 222)" my_stoke_opacity="1" my_stoke_width="0.571429px" opacity="1" paint-order="fill" stroke="lightsteelblue" stroke-dasharray="" stroke-linecap="butt" stroke-miterlimit="10" stroke-opacity="1" stroke-width="0.5714285714285714" transform="matrix(3.5,0,0,3.5,509.6,290.6786)"></path><path d="M 1 0 A 1 1 0 1 1 1 -0.0001" fill="rgb(255, 255, 255)" fill-opacity="1" my_fill="rgb(255, 255, 255)" my_fill_opacity="1" my_font_size="16px" my_stoke="rgb(176, 196, 222)" my_stoke_opacity="1" my_stoke_width="0.571429px" opacity="1" paint-order="fill" stroke="lightsteelblue" stroke-dasharray="" stroke-linecap="butt" stroke-miterlimit="10" stroke-opacity="1" stroke-width="0.5714285714285714" transform="matrix(3.5,0,0,3.5,509.6,301.0873)"></path><path d="M 1 0 A 1 1 0 1 1 1 -0.0001" fill="rgb(255, 255, 255)" fill-opacity="1" my_fill="rgb(255, 255, 255)" my_fill_opacity="1" my_font_size="16px" my_stoke="rgb(176, 196, 222)" my_stoke_opacity="1" my_stoke_width="0.571429px" opacity="1" paint-order="fill" stroke="lightsteelblue" stroke-dasharray="" stroke-linecap="butt" stroke-miterlimit="10" stroke-opacity="1" stroke-width="0.5714285714285714" transform="matrix(3.5,0,0,3.5,509.6,311.496)"></path><path d="M 1 0 A 1 1 0 1 1 1 -0.0001" fill="rgb(255, 255, 255)" fill-opacity="1" my_fill="rgb(255, 255, 255)" my_fill_opacity="1" my_font_size="16px" my_stoke="rgb(176, 196, 222)" my_stoke_opacity="1" my_stoke_width="0.571429px" opacity="1" paint-order="fill" stroke="lightsteelblue" stroke-dasharray="" stroke-linecap="butt" stroke-miterlimit="10" stroke-opacity="1" stroke-width="0.5714285714285714" transform="matrix(3.5,0,0,3.5,509.6,321.9048)"></path><path d="M 1 0 A 1 1 0 1 1 1 -0.0001" fill="rgb(255, 255, 255)" fill-opacity="1" my_fill="rgb(255, 255, 255)" my_fill_opacity="1" my_font_size="16px" my_stoke="rgb(176, 196, 222)" my_stoke_opacity="1" my_stoke_width="0.571429px" opacity="1" paint-order="fill" stroke="lightsteelblue" stroke-dasharray="" stroke-linecap="butt" stroke-miterlimit="10" stroke-opacity="1" stroke-width="0.5714285714285714" transform="matrix(3.5,0,0,3.5,509.6,332.3135)"></path><path d="M 1 0 A 1 1 0 1 1 1 -0.0001" fill="rgb(255, 255, 255)" fill-opacity="1" my_fill="rgb(255, 255, 255)" my_fill_opacity="1" my_font_size="16px" my_stoke="rgb(176, 196, 222)" my_stoke_opacity="1" my_stoke_width="0.571429px" opacity="1" paint-order="fill" stroke="lightsteelblue" stroke-dasharray="" stroke-linecap="butt" stroke-miterlimit="10" stroke-opacity="1" stroke-width="0.5714285714285714" transform="matrix(3.5,0,0,3.5,509.6,342.7222)"></path><path d="M 1 0 A 1 1 0 1 1 1 -0.0001" fill="rgb(255, 255, 255)" fill-opacity="1" my_fill="rgb(255, 255, 255)" my_fill_opacity="1" my_font_size="16px" my_stoke="rgb(176, 196, 222)" my_stoke_opacity="1" my_stoke_width="0.571429px" opacity="1" paint-order="fill" stroke="lightsteelblue" stroke-dasharray="" stroke-linecap="butt" stroke-miterlimit="10" stroke-opacity="1" stroke-width="0.5714285714285714" transform="matrix(3.5,0,0,3.5,509.6,353.1309)"></path><path d="M 1 0 A 1 1 0 1 1 1 -0.0001" fill="rgb(255, 255, 255)" fill-opacity="1" my_fill="rgb(255, 255, 255)" my_fill_opacity="1" my_font_size="16px" my_stoke="rgb(176, 196, 222)" my_stoke_opacity="1" my_stoke_width="0.571429px" opacity="1" paint-order="fill" stroke="lightsteelblue" stroke-dasharray="" stroke-linecap="butt" stroke-miterlimit="10" stroke-opacity="1" stroke-width="0.5714285714285714" transform="matrix(3.5,0,0,3.5,509.6,363.5396)"></path><path d="M 1 0 A 1 1 0 1 1 1 -0.0001" fill="rgb(255, 255, 255)" fill-opacity="1" my_fill="rgb(255, 255, 255)" my_fill_opacity="1" my_font_size="16px" my_stoke="rgb(176, 196, 222)" my_stoke_opacity="1" my_stoke_width="0.571429px" opacity="1" paint-order="fill" stroke="lightsteelblue" stroke-dasharray="" stroke-linecap="butt" stroke-miterlimit="10" stroke-opacity="1" stroke-width="0.5714285714285714" transform="matrix(3.5,0,0,3.5,509.6,373.9483)"></path><path d="M 1 0 A 1 1 0 1 1 1 -0.0001" fill="rgb(255, 255, 255)" fill-opacity="1" my_fill="rgb(255, 255, 255)" my_fill_opacity="1" my_font_size="16px" my_stoke="rgb(176, 196, 222)" my_stoke_opacity="1" my_stoke_width="0.571429px" opacity="1" paint-order="fill" stroke="lightsteelblue" stroke-dasharray="" stroke-linecap="butt" stroke-miterlimit="10" stroke-opacity="1" stroke-width="0.5714285714285714" transform="matrix(3.5,0,0,3.5,728,212.6133)"></path><path d="M 1 0 A 1 1 0 1 1 1 -0.0001" fill="rgb(255, 255, 255)" fill-opacity="1" my_fill="rgb(255, 255, 255)" my_fill_opacity="1" my_font_size="16px" my_stoke="rgb(176, 196, 222)" my_stoke_opacity="1" my_stoke_width="0.571429px" opacity="1" paint-order="fill" stroke="lightsteelblue" stroke-dasharray="" stroke-linecap="butt" stroke-miterlimit="10" stroke-opacity="1" stroke-width="0.5714285714285714" transform="matrix(3.5,0,0,3.5,728,223.022)"></path><path d="M 1 0 A 1 1 0 1 1 1 -0.0001" fill="rgb(255, 255, 255)" fill-opacity="1" my_fill="rgb(255, 255, 255)" my_fill_opacity="1" my_font_size="16px" my_stoke="rgb(176, 196, 222)" my_stoke_opacity="1" my_stoke_width="0.571429px" opacity="1" paint-order="fill" stroke="lightsteelblue" stroke-dasharray="" stroke-linecap="butt" stroke-miterlimit="10" stroke-opacity="1" stroke-width="0.5714285714285714" transform="matrix(3.5,0,0,3.5,728,233.4307)"></path><path d="M 1 0 A 1 1 0 1 1 1 -0.0001" fill="rgb(255, 255, 255)" fill-opacity="1" my_fill="rgb(255, 255, 255)" my_fill_opacity="1" my_font_size="16px" my_stoke="rgb(176, 196, 222)" my_stoke_opacity="1" my_stoke_width="0.571429px" opacity="1" paint-order="fill" stroke="lightsteelblue" stroke-dasharray="" stroke-linecap="butt" stroke-miterlimit="10" stroke-opacity="1" stroke-width="0.5714285714285714" transform="matrix(3.5,0,0,3.5,728,243.8394)"></path><path d="M 1 0 A 1 1 0 1 1 1 -0.0001" fill="rgb(255, 255, 255)" fill-opacity="1" my_fill="rgb(255, 255, 255)" my_fill_opacity="1" my_font_size="16px" my_stoke="rgb(176, 196, 222)" my_stoke_opacity="1" my_stoke_width="0.571429px" opacity="1" paint-order="fill" stroke="lightsteelblue" stroke-dasharray="" stroke-linecap="butt" stroke-miterlimit="10" stroke-opacity="1" stroke-width="0.5714285714285714" transform="matrix(3.5,0,0,3.5,728,254.2481)"></path><path d="M 1 0 A 1 1 0 1 1 1 -0.0001" fill="rgb(255, 255, 255)" fill-opacity="1" my_fill="rgb(255, 255, 255)" my_fill_opacity="1" my_font_size="16px" my_stoke="rgb(176, 196, 222)" my_stoke_opacity="1" my_stoke_width="0.571429px" opacity="1" paint-order="fill" stroke="lightsteelblue" stroke-dasharray="" stroke-linecap="butt" stroke-miterlimit="10" stroke-opacity="1" stroke-width="0.5714285714285714" transform="matrix(3.5,0,0,3.5,728,264.6568)"></path><path d="M 1 0 A 1 1 0 1 1 1 -0.0001" fill="rgb(255, 255, 255)" fill-opacity="1" my_fill="rgb(255, 255, 255)" my_fill_opacity="1" my_font_size="16px" my_stoke="rgb(176, 196, 222)" my_stoke_opacity="1" my_stoke_width="0.571429px" opacity="1" paint-order="fill" stroke="lightsteelblue" stroke-dasharray="" stroke-linecap="butt" stroke-miterlimit="10" stroke-opacity="1" stroke-width="0.5714285714285714" transform="matrix(3.5,0,0,3.5,728,275.0655)"></path><path d="M 1 0 A 1 1 0 1 1 1 -0.0001" fill="rgb(255, 255, 255)" fill-opacity="1" my_fill="rgb(255, 255, 255)" my_fill_opacity="1" my_font_size="16px" my_stoke="rgb(176, 196, 222)" my_stoke_opacity="1" my_stoke_width="0.571429px" opacity="1" paint-order="fill" stroke="lightsteelblue" stroke-dasharray="" stroke-linecap="butt" stroke-miterlimit="10" stroke-opacity="1" stroke-width="0.5714285714285714" transform="matrix(3.5,0,0,3.5,728,285.4743)"></path><path d="M 1 0 A 1 1 0 1 1 1 -0.0001" fill="rgb(255, 255, 255)" fill-opacity="1" my_fill="rgb(255, 255, 255)" my_fill_opacity="1" my_font_size="16px" my_stoke="rgb(176, 196, 222)" my_stoke_opacity="1" my_stoke_width="0.571429px" opacity="1" paint-order="fill" stroke="lightsteelblue" stroke-dasharray="" stroke-linecap="butt" stroke-miterlimit="10" stroke-opacity="1" stroke-width="0.5714285714285714" transform="matrix(3.5,0,0,3.5,728,295.883)"></path><path d="M 1 0 A 1 1 0 1 1 1 -0.0001" fill="rgb(255, 255, 255)" fill-opacity="1" my_fill="rgb(255, 255, 255)" my_fill_opacity="1" my_font_size="16px" my_stoke="rgb(176, 196, 222)" my_stoke_opacity="1" my_stoke_width="0.571429px" opacity="1" paint-order="fill" stroke="lightsteelblue" stroke-dasharray="" stroke-linecap="butt" stroke-miterlimit="10" stroke-opacity="1" stroke-width="0.5714285714285714" transform="matrix(3.5,0,0,3.5,728,306.2917)"></path><path d="M 1 0 A 1 1 0 1 1 1 -0.0001" fill="rgb(255, 255, 255)" fill-opacity="1" my_fill="rgb(255, 255, 255)" my_fill_opacity="1" my_font_size="16px" my_stoke="rgb(176, 196, 222)" my_stoke_opacity="1" my_stoke_width="0.571429px" opacity="1" paint-order="fill" stroke="lightsteelblue" stroke-dasharray="" stroke-linecap="butt" stroke-miterlimit="10" stroke-opacity="1" stroke-width="0.5714285714285714" transform="matrix(3.5,0,0,3.5,728,316.7004)"></path><path d="M 1 0 A 1 1 0 1 1 1 -0.0001" fill="rgb(255, 255, 255)" fill-opacity="1" my_fill="rgb(255, 255, 255)" my_fill_opacity="1" my_font_size="16px" my_stoke="rgb(176, 196, 222)" my_stoke_opacity="1" my_stoke_width="0.571429px" opacity="1" paint-order="fill" stroke="lightsteelblue" stroke-dasharray="" stroke-linecap="butt" stroke-miterlimit="10" stroke-opacity="1" stroke-width="0.5714285714285714" transform="matrix(3.5,0,0,3.5,728,327.1091)"></path><path d="M 1 0 A 1 1 0 1 1 1 -0.0001" fill="rgb(255, 255, 255)" fill-opacity="1" my_fill="rgb(255, 255, 255)" my_fill_opacity="1" my_font_size="16px" my_stoke="rgb(176, 196, 222)" my_stoke_opacity="1" my_stoke_width="0.571429px" opacity="1" paint-order="fill" stroke="lightsteelblue" stroke-dasharray="" stroke-linecap="butt" stroke-miterlimit="10" stroke-opacity="1" stroke-width="0.5714285714285714" transform="matrix(3.5,0,0,3.5,728,337.5178)"></path><path d="M 1 0 A 1 1 0 1 1 1 -0.0001" fill="rgb(255, 255, 255)" fill-opacity="1" my_fill="rgb(255, 255, 255)" my_fill_opacity="1" my_font_size="16px" my_stoke="rgb(176, 196, 222)" my_stoke_opacity="1" my_stoke_width="0.571429px" opacity="1" paint-order="fill" stroke="lightsteelblue" stroke-dasharray="" stroke-linecap="butt" stroke-miterlimit="10" stroke-opacity="1" stroke-width="0.5714285714285714" transform="matrix(3.5,0,0,3.5,728,347.9265)"></path><path d="M 1 0 A 1 1 0 1 1 1 -0.0001" fill="rgb(255, 255, 255)" fill-opacity="1" my_fill="rgb(255, 255, 255)" my_fill_opacity="1" my_font_size="16px" my_stoke="rgb(176, 196, 222)" my_stoke_opacity="1" my_stoke_width="0.571429px" opacity="1" paint-order="fill" stroke="lightsteelblue" stroke-dasharray="" stroke-linecap="butt" stroke-miterlimit="10" stroke-opacity="1" stroke-width="0.5714285714285714" transform="matrix(3.5,0,0,3.5,728,358.3352)"></path><path d="M 1 0 A 1 1 0 1 1 1 -0.0001" fill="rgb(255, 255, 255)" fill-opacity="1" my_fill="rgb(255, 255, 255)" my_fill_opacity="1" my_font_size="16px" my_stoke="rgb(176, 196, 222)" my_stoke_opacity="1" my_stoke_width="0.571429px" opacity="1" paint-order="fill" stroke="lightsteelblue" stroke-dasharray="" stroke-linecap="butt" stroke-miterlimit="10" stroke-opacity="1" stroke-width="0.5714285714285714" transform="matrix(3.5,0,0,3.5,728,368.744)"></path><path d="M 1 0 A 1 1 0 1 1 1 -0.0001" fill="rgb(255, 255, 255)" fill-opacity="1" my_fill="rgb(255, 255, 255)" my_fill_opacity="1" my_font_size="16px" my_stoke="rgb(176, 196, 222)" my_stoke_opacity="1" my_stoke_width="0.571429px" opacity="1" paint-order="fill" stroke="lightsteelblue" stroke-dasharray="" stroke-linecap="butt" stroke-miterlimit="10" stroke-opacity="1" stroke-width="0.5714285714285714" transform="matrix(3.5,0,0,3.5,728,379.1527)"></path><path d="M 1 0 A 1 1 0 1 1 1 -0.0001" fill="rgb(255, 255, 255)" fill-opacity="1" my_fill="rgb(255, 255, 255)" my_fill_opacity="1" my_font_size="16px" my_stoke="rgb(176, 196, 222)" my_stoke_opacity="1" my_stoke_width="0.571429px" opacity="1" paint-order="fill" stroke="lightsteelblue" stroke-dasharray="" stroke-linecap="butt" stroke-miterlimit="10" stroke-opacity="1" stroke-width="0.5714285714285714" transform="matrix(3.5,0,0,3.5,728,389.5614)"></path><path d="M 1 0 A 1 1 0 1 1 1 -0.0001" fill="rgb(255, 255, 255)" fill-opacity="1" my_fill="rgb(255, 255, 255)" my_fill_opacity="1" my_font_size="16px" my_stoke="rgb(176, 196, 222)" my_stoke_opacity="1" my_stoke_width="0.571429px" opacity="1" paint-order="fill" stroke="lightsteelblue" stroke-dasharray="" stroke-linecap="butt" stroke-miterlimit="10" stroke-opacity="1" stroke-width="0.5714285714285714" transform="matrix(3.5,0,0,3.5,728,399.9701)"></path><path d="M 1 0 A 1 1 0 1 1 1 -0.0001" fill="rgb(255, 255, 255)" fill-opacity="1" my_fill="rgb(255, 255, 255)" my_fill_opacity="1" my_font_size="16px" my_stoke="rgb(176, 196, 222)" my_stoke_opacity="1" my_stoke_width="0.571429px" opacity="1" paint-order="fill" stroke="lightsteelblue" stroke-dasharray="" stroke-linecap="butt" stroke-miterlimit="10" stroke-opacity="1" stroke-width="0.5714285714285714" transform="matrix(3.5,0,0,3.5,728,410.3788)"></path><path d="M 1 0 A 1 1 0 1 1 1 -0.0001" fill="rgb(255, 255, 255)" fill-opacity="1" my_fill="rgb(255, 255, 255)" my_fill_opacity="1" my_font_size="16px" my_stoke="rgb(176, 196, 222)" my_stoke_opacity="1" my_stoke_width="0.571429px" opacity="1" paint-order="fill" stroke="lightsteelblue" stroke-dasharray="" stroke-linecap="butt" stroke-miterlimit="10" stroke-opacity="1" stroke-width="0.5714285714285714" transform="matrix(3.5,0,0,3.5,728,420.7875)"></path><path d="M 1 0 A 1 1 0 1 1 1 -0.0001" fill="rgb(255, 255, 255)" fill-opacity="1" my_fill="rgb(255, 255, 255)" my_fill_opacity="1" my_font_size="16px" my_stoke="rgb(176, 196, 222)" my_stoke_opacity="1" my_stoke_width="0.571429px" opacity="1" paint-order="fill" stroke="lightsteelblue" stroke-dasharray="" stroke-linecap="butt" stroke-miterlimit="10" stroke-opacity="1" stroke-width="0.5714285714285714" transform="matrix(3.5,0,0,3.5,728,431.1962)"></path><path d="M 1 0 A 1 1 0 1 1 1 -0.0001" fill="rgb(255, 255, 255)" fill-opacity="1" my_fill="rgb(255, 255, 255)" my_fill_opacity="1" my_font_size="16px" my_stoke="rgb(176, 196, 222)" my_stoke_opacity="1" my_stoke_width="0.571429px" opacity="1" paint-order="fill" stroke="lightsteelblue" stroke-dasharray="" stroke-linecap="butt" stroke-miterlimit="10" stroke-opacity="1" stroke-width="0.5714285714285714" transform="matrix(3.5,0,0,3.5,728,441.605)"></path><path d="M 1 0 A 1 1 0 1 1 1 -0.0001" fill="rgb(255, 255, 255)" fill-opacity="1" my_fill="rgb(255, 255, 255)" my_fill_opacity="1" my_font_size="16px" my_stoke="rgb(176, 196, 222)" my_stoke_opacity="1" my_stoke_width="0.571429px" opacity="1" paint-order="fill" stroke="lightsteelblue" stroke-dasharray="" stroke-linecap="butt" stroke-miterlimit="10" stroke-opacity="1" stroke-width="0.5714285714285714" transform="matrix(3.5,0,0,3.5,728,452.0137)"></path><path d="M 1 0 A 1 1 0 1 1 1 -0.0001" fill="rgb(255, 255, 255)" fill-opacity="1" my_fill="rgb(255, 255, 255)" my_fill_opacity="1" my_font_size="16px" my_stoke="rgb(176, 196, 222)" my_stoke_opacity="1" my_stoke_width="0.571429px" opacity="1" paint-order="fill" stroke="lightsteelblue" stroke-dasharray="" stroke-linecap="butt" stroke-miterlimit="10" stroke-opacity="1" stroke-width="0.5714285714285714" transform="matrix(3.5,0,0,3.5,728,462.4224)"></path><path d="M 1 0 A 1 1 0 1 1 1 -0.0001" fill="rgb(255, 255, 255)" fill-opacity="1" my_fill="rgb(255, 255, 255)" my_fill_opacity="1" my_font_size="16px" my_stoke="rgb(176, 196, 222)" my_stoke_opacity="1" my_stoke_width="0.571429px" opacity="1" paint-order="fill" stroke="lightsteelblue" stroke-dasharray="" stroke-linecap="butt" stroke-miterlimit="10" stroke-opacity="1" stroke-width="0.5714285714285714" transform="matrix(3.5,0,0,3.5,728,472.8311)"></path><path d="M 1 0 A 1 1 0 1 1 1 -0.0001" fill="rgb(255, 255, 255)" fill-opacity="1" my_fill="rgb(255, 255, 255)" my_fill_opacity="1" my_font_size="16px" my_stoke="rgb(176, 196, 222)" my_stoke_opacity="1" my_stoke_width="0.571429px" opacity="1" paint-order="fill" stroke="lightsteelblue" stroke-dasharray="" stroke-linecap="butt" stroke-miterlimit="10" stroke-opacity="1" stroke-width="0.5714285714285714" transform="matrix(3.5,0,0,3.5,728,483.2398)"></path><path d="M 1 0 A 1 1 0 1 1 1 -0.0001" fill="rgb(255, 255, 255)" fill-opacity="1" my_fill="rgb(255, 255, 255)" my_fill_opacity="1" my_font_size="16px" my_stoke="rgb(176, 196, 222)" my_stoke_opacity="1" my_stoke_width="0.571429px" opacity="1" paint-order="fill" stroke="lightsteelblue" stroke-dasharray="" stroke-linecap="butt" stroke-miterlimit="10" stroke-opacity="1" stroke-width="0.5714285714285714" transform="matrix(3.5,0,0,3.5,728,493.6485)"></path><path d="M 1 0 A 1 1 0 1 1 1 -0.0001" fill="rgb(255, 255, 255)" fill-opacity="1" my_fill="rgb(255, 255, 255)" my_fill_opacity="1" my_font_size="16px" my_stoke="rgb(176, 196, 222)" my_stoke_opacity="1" my_stoke_width="0.571429px" opacity="1" paint-order="fill" stroke="lightsteelblue" stroke-dasharray="" stroke-linecap="butt" stroke-miterlimit="10" stroke-opacity="1" stroke-width="0.5714285714285714" transform="matrix(3.5,0,0,3.5,728,504.0572)"></path><path d="M 1 0 A 1 1 0 1 1 1 -0.0001" fill="rgb(255, 255, 255)" fill-opacity="1" my_fill="rgb(255, 255, 255)" my_fill_opacity="1" my_font_size="16px" my_stoke="rgb(176, 196, 222)" my_stoke_opacity="1" my_stoke_width="0.571429px" opacity="1" paint-order="fill" stroke="lightsteelblue" stroke-dasharray="" stroke-linecap="butt" stroke-miterlimit="10" stroke-opacity="1" stroke-width="0.5714285714285714" transform="matrix(3.5,0,0,3.5,728,514.4659)"></path><path d="M 1 0 A 1 1 0 1 1 1 -0.0001" fill="rgb(255, 255, 255)" fill-opacity="1" my_fill="rgb(255, 255, 255)" my_fill_opacity="1" my_font_size="16px" my_stoke="rgb(176, 196, 222)" my_stoke_opacity="1" my_stoke_width="0.571429px" opacity="1" paint-order="fill" stroke="lightsteelblue" stroke-dasharray="" stroke-linecap="butt" stroke-miterlimit="10" stroke-opacity="1" stroke-width="0.5714285714285714" transform="matrix(3.5,0,0,3.5,728,524.8747)"></path><path d="M 1 0 A 1 1 0 1 1 1 -0.0001" fill="rgb(255, 255, 255)" fill-opacity="1" my_fill="rgb(255, 255, 255)" my_fill_opacity="1" my_font_size="16px" my_stoke="rgb(176, 196, 222)" my_stoke_opacity="1" my_stoke_width="0.571429px" opacity="1" paint-order="fill" stroke="lightsteelblue" stroke-dasharray="" stroke-linecap="butt" stroke-miterlimit="10" stroke-opacity="1" stroke-width="0.5714285714285714" transform="matrix(3.5,0,0,3.5,728,535.2834)"></path><path d="M 1 0 A 1 1 0 1 1 1 -0.0001" fill="rgb(255, 255, 255)" fill-opacity="1" my_fill="rgb(255, 255, 255)" my_fill_opacity="1" my_font_size="16px" my_stoke="rgb(176, 196, 222)" my_stoke_opacity="1" my_stoke_width="0.571429px" opacity="1" paint-order="fill" stroke="lightsteelblue" stroke-dasharray="" stroke-linecap="butt" stroke-miterlimit="10" stroke-opacity="1" stroke-width="0.5714285714285714" transform="matrix(3.5,0,0,3.5,509.6,384.357)"></path><path d="M 1 0 A 1 1 0 1 1 1 -0.0001" fill="rgb(255, 255, 255)" fill-opacity="1" my_fill="rgb(255, 255, 255)" my_fill_opacity="1" my_font_size="16px" my_stoke="rgb(176, 196, 222)" my_stoke_opacity="1" my_stoke_width="0.571429px" opacity="1" paint-order="fill" stroke="lightsteelblue" stroke-dasharray="" stroke-linecap="butt" stroke-miterlimit="10" stroke-opacity="1" stroke-width="0.5714285714285714" transform="matrix(3.5,0,0,3.5,509.6,394.7657)"></path><path d="M 1 0 A 1 1 0 1 1 1 -0.0001" fill="rgb(255, 255, 255)" fill-opacity="1" my_fill="rgb(255, 255, 255)" my_fill_opacity="1" my_font_size="16px" my_stoke="rgb(176, 196, 222)" my_stoke_opacity="1" my_stoke_width="0.571429px" opacity="1" paint-order="fill" stroke="lightsteelblue" stroke-dasharray="" stroke-linecap="butt" stroke-miterlimit="10" stroke-opacity="1" stroke-width="0.5714285714285714" transform="matrix(3.5,0,0,3.5,509.6,405.1745)"></path><path d="M 1 0 A 1 1 0 1 1 1 -0.0001" fill="rgb(255, 255, 255)" fill-opacity="1" my_fill="rgb(255, 255, 255)" my_fill_opacity="1" my_font_size="16px" my_stoke="rgb(176, 196, 222)" my_stoke_opacity="1" my_stoke_width="0.571429px" opacity="1" paint-order="fill" stroke="lightsteelblue" stroke-dasharray="" stroke-linecap="butt" stroke-miterlimit="10" stroke-opacity="1" stroke-width="0.5714285714285714" transform="matrix(3.5,0,0,3.5,509.6,415.5832)"></path><path d="M 1 0 A 1 1 0 1 1 1 -0.0001" fill="rgb(255, 255, 255)" fill-opacity="1" my_fill="rgb(255, 255, 255)" my_fill_opacity="1" my_font_size="16px" my_stoke="rgb(176, 196, 222)" my_stoke_opacity="1" my_stoke_width="0.571429px" opacity="1" paint-order="fill" stroke="lightsteelblue" stroke-dasharray="" stroke-linecap="butt" stroke-miterlimit="10" stroke-opacity="1" stroke-width="0.5714285714285714" transform="matrix(3.5,0,0,3.5,509.6,425.9919)"></path><path d="M 1 0 A 1 1 0 1 1 1 -0.0001" fill="rgb(255, 255, 255)" fill-opacity="1" my_fill="rgb(255, 255, 255)" my_fill_opacity="1" my_font_size="16px" my_stoke="rgb(176, 196, 222)" my_stoke_opacity="1" my_stoke_width="0.571429px" opacity="1" paint-order="fill" stroke="lightsteelblue" stroke-dasharray="" stroke-linecap="butt" stroke-miterlimit="10" stroke-opacity="1" stroke-width="0.5714285714285714" transform="matrix(3.5,0,0,3.5,509.6,436.4006)"></path><path d="M 1 0 A 1 1 0 1 1 1 -0.0001" fill="rgb(255, 255, 255)" fill-opacity="1" my_fill="rgb(255, 255, 255)" my_fill_opacity="1" my_font_size="16px" my_stoke="rgb(176, 196, 222)" my_stoke_opacity="1" my_stoke_width="0.571429px" opacity="1" paint-order="fill" stroke="lightsteelblue" stroke-dasharray="" stroke-linecap="butt" stroke-miterlimit="10" stroke-opacity="1" stroke-width="0.5714285714285714" transform="matrix(3.5,0,0,3.5,509.6,446.8093)"></path><path d="M 1 0 A 1 1 0 1 1 1 -0.0001" fill="rgb(255, 255, 255)" fill-opacity="1" my_fill="rgb(255, 255, 255)" my_fill_opacity="1" my_font_size="16px" my_stoke="rgb(176, 196, 222)" my_stoke_opacity="1" my_stoke_width="0.571429px" opacity="1" paint-order="fill" stroke="lightsteelblue" stroke-dasharray="" stroke-linecap="butt" stroke-miterlimit="10" stroke-opacity="1" stroke-width="0.5714285714285714" transform="matrix(3.5,0,0,3.5,509.6,457.218)"></path><path d="M 1 0 A 1 1 0 1 1 1 -0.0001" fill="rgb(255, 255, 255)" fill-opacity="1" my_fill="rgb(255, 255, 255)" my_fill_opacity="1" my_font_size="16px" my_stoke="rgb(176, 196, 222)" my_stoke_opacity="1" my_stoke_width="0.571429px" opacity="1" paint-order="fill" stroke="lightsteelblue" stroke-dasharray="" stroke-linecap="butt" stroke-miterlimit="10" stroke-opacity="1" stroke-width="0.5714285714285714" transform="matrix(3.5,0,0,3.5,509.6,467.6267)"></path><path d="M 1 0 A 1 1 0 1 1 1 -0.0001" fill="rgb(255, 255, 255)" fill-opacity="1" my_fill="rgb(255, 255, 255)" my_fill_opacity="1" my_font_size="16px" my_stoke="rgb(176, 196, 222)" my_stoke_opacity="1" my_stoke_width="0.571429px" opacity="1" paint-order="fill" stroke="lightsteelblue" stroke-dasharray="" stroke-linecap="butt" stroke-miterlimit="10" stroke-opacity="1" stroke-width="0.5714285714285714" transform="matrix(3.5,0,0,3.5,509.6,478.0354)"></path><path d="M 1 0 A 1 1 0 1 1 1 -0.0001" fill="rgb(255, 255, 255)" fill-opacity="1" my_fill="rgb(255, 255, 255)" my_fill_opacity="1" my_font_size="16px" my_stoke="rgb(176, 196, 222)" my_stoke_opacity="1" my_stoke_width="0.571429px" opacity="1" paint-order="fill" stroke="lightsteelblue" stroke-dasharray="" stroke-linecap="butt" stroke-miterlimit="10" stroke-opacity="1" stroke-width="0.5714285714285714" transform="matrix(3.5,0,0,3.5,291.2,545.6921)"></path><path d="M 1 0 A 1 1 0 1 1 1 -0.0001" fill="rgb(255, 255, 255)" fill-opacity="1" my_fill="rgb(255, 255, 255)" my_fill_opacity="1" my_font_size="16px" my_stoke="rgb(176, 196, 222)" my_stoke_opacity="1" my_stoke_width="0.571429px" opacity="1" paint-order="fill" stroke="lightsteelblue" stroke-dasharray="" stroke-linecap="butt" stroke-miterlimit="10" stroke-opacity="1" stroke-width="0.5714285714285714" transform="matrix(3.5,0,0,3.5,509.6,498.8529)"></path><path d="M 1 0 A 1 1 0 1 1 1 -0.0001" fill="rgb(255, 255, 255)" fill-opacity="1" my_fill="rgb(255, 255, 255)" my_fill_opacity="1" my_font_size="16px" my_stoke="rgb(176, 196, 222)" my_stoke_opacity="1" my_stoke_width="0.571429px" opacity="1" paint-order="fill" stroke="lightsteelblue" stroke-dasharray="" stroke-linecap="butt" stroke-miterlimit="10" stroke-opacity="1" stroke-width="0.5714285714285714" transform="matrix(3.5,0,0,3.5,509.6,509.2616)"></path><path d="M 1 0 A 1 1 0 1 1 1 -0.0001" fill="rgb(255, 255, 255)" fill-opacity="1" my_fill="rgb(255, 255, 255)" my_fill_opacity="1" my_font_size="16px" my_stoke="rgb(176, 196, 222)" my_stoke_opacity="1" my_stoke_width="0.571429px" opacity="1" paint-order="fill" stroke="lightsteelblue" stroke-dasharray="" stroke-linecap="butt" stroke-miterlimit="10" stroke-opacity="1" stroke-width="0.5714285714285714" transform="matrix(3.5,0,0,3.5,509.6,519.6703)"></path><path d="M 1 0 A 1 1 0 1 1 1 -0.0001" fill="rgb(255, 255, 255)" fill-opacity="1" my_fill="rgb(255, 255, 255)" my_fill_opacity="1" my_font_size="16px" my_stoke="rgb(176, 196, 222)" my_stoke_opacity="1" my_stoke_width="0.571429px" opacity="1" paint-order="fill" stroke="lightsteelblue" stroke-dasharray="" stroke-linecap="butt" stroke-miterlimit="10" stroke-opacity="1" stroke-width="0.5714285714285714" transform="matrix(3.5,0,0,3.5,509.6,530.079)"></path><path d="M 1 0 A 1 1 0 1 1 1 -0.0001" fill="rgb(255, 255, 255)" fill-opacity="1" my_fill="rgb(255, 255, 255)" my_fill_opacity="1" my_font_size="16px" my_stoke="rgb(176, 196, 222)" my_stoke_opacity="1" my_stoke_width="0.571429px" opacity="1" paint-order="fill" stroke="lightsteelblue" stroke-dasharray="" stroke-linecap="butt" stroke-miterlimit="10" stroke-opacity="1" stroke-width="0.5714285714285714" transform="matrix(3.5,0,0,3.5,509.6,540.4877)"></path><path d="M 1 0 A 1 1 0 1 1 1 -0.0001" fill="rgb(255, 255, 255)" fill-opacity="1" my_fill="rgb(255, 255, 255)" my_fill_opacity="1" my_font_size="16px" my_stoke="rgb(176, 196, 222)" my_stoke_opacity="1" my_stoke_width="0.571429px" opacity="1" paint-order="fill" stroke="lightsteelblue" stroke-dasharray="" stroke-linecap="butt" stroke-miterlimit="10" stroke-opacity="1" stroke-width="0.5714285714285714" transform="matrix(3.5,0,0,3.5,509.6,550.8964)"></path><path d="M 1 0 A 1 1 0 1 1 1 -0.0001" fill="rgb(255, 255, 255)" fill-opacity="1" my_fill="rgb(255, 255, 255)" my_fill_opacity="1" my_font_size="16px" my_stoke="rgb(176, 196, 222)" my_stoke_opacity="1" my_stoke_width="0.571429px" opacity="1" paint-order="fill" stroke="lightsteelblue" stroke-dasharray="" stroke-linecap="butt" stroke-miterlimit="10" stroke-opacity="1" stroke-width="0.5714285714285714" transform="matrix(3.5,0,0,3.5,509.6,561.3051)"></path><path d="M 1 0 A 1 1 0 1 1 1 -0.0001" fill="rgb(255, 255, 255)" fill-opacity="1" my_fill="rgb(255, 255, 255)" my_fill_opacity="1" my_font_size="16px" my_stoke="rgb(176, 196, 222)" my_stoke_opacity="1" my_stoke_width="0.571429px" opacity="1" paint-order="fill" stroke="lightsteelblue" stroke-dasharray="" stroke-linecap="butt" stroke-miterlimit="10" stroke-opacity="1" stroke-width="0.5714285714285714" transform="matrix(3.5,0,0,3.5,509.6,571.7139)"></path><path d="M 1 0 A 1 1 0 1 1 1 -0.0001" fill="rgb(255, 255, 255)" fill-opacity="1" my_fill="rgb(255, 255, 255)" my_fill_opacity="1" my_font_size="16px" my_stoke="rgb(176, 196, 222)" my_stoke_opacity="1" my_stoke_width="0.571429px" opacity="1" paint-order="fill" stroke="lightsteelblue" stroke-dasharray="" stroke-linecap="butt" stroke-miterlimit="10" stroke-opacity="1" stroke-width="0.5714285714285714" transform="matrix(3.5,0,0,3.5,509.6,582.1226)"></path><path d="M 1 0 A 1 1 0 1 1 1 -0.0001" fill="rgb(255, 255, 255)" fill-opacity="1" my_fill="rgb(255, 255, 255)" my_fill_opacity="1" my_font_size="16px" my_stoke="rgb(176, 196, 222)" my_stoke_opacity="1" my_stoke_width="0.571429px" opacity="1" paint-order="fill" stroke="lightsteelblue" stroke-dasharray="" stroke-linecap="butt" stroke-miterlimit="10" stroke-opacity="1" stroke-width="0.5714285714285714" transform="matrix(3.5,0,0,3.5,509.6,592.5313)"></path></g></svg>