<svg baseProfile="full" height="773" style="user-select: none; position: absolute; left: 0px; top: 0px;" transform_matrix='{"a":1,"b":0,"c":0,"d":1,"e":0,"f":0}' version="1.1" width="910" xmlns="http://www.w3.org/2000/svg" xmlns:xlink="http://www.w3.org/1999/xlink"><g><path d="M 91 648.5 L 819 648.5" fill="none" my_fill="none" my_fill_opacity="1" my_font_size="16px" my_stoke="rgb(221, 221, 221)" my_stoke_opacity="1" my_stoke_width="1px" opacity="1" paint-order="fill" stroke="#ddd" stroke-dasharray="" stroke-linecap="butt" stroke-miterlimit="10" stroke-opacity="1" stroke-width="1"></path><path d="M 91 566.5 L 819 566.5" fill="none" my_fill="none" my_fill_opacity="1" my_font_size="16px" my_stoke="rgb(221, 221, 221)" my_stoke_opacity="1" my_stoke_width="1px" opacity="1" paint-order="fill" stroke="#ddd" stroke-dasharray="" stroke-linecap="butt" stroke-miterlimit="10" stroke-opacity="1" stroke-width="1"></path><path d="M 91 485.5 L 819 485.5" fill="none" my_fill="none" my_fill_opacity="1" my_font_size="16px" my_stoke="rgb(221, 221, 221)" my_stoke_opacity="1" my_stoke_width="1px" opacity="1" paint-order="fill" stroke="#ddd" stroke-dasharray="" stroke-linecap="butt" stroke-miterlimit="10" stroke-opacity="1" stroke-width="1"></path><path d="M 91 404.5 L 819 404.5" fill="none" my_fill="none" my_fill_opacity="1" my_font_size="16px" my_stoke="rgb(221, 221, 221)" my_stoke_opacity="1" my_stoke_width="1px" opacity="1" paint-order="fill" stroke="#ddd" stroke-dasharray="" stroke-linecap="butt" stroke-miterlimit="10" stroke-opacity="1" stroke-width="1"></path><path d="M 91 322.5 L 819 322.5" fill="none" my_fill="none" my_fill_opacity="1" my_font_size="16px" my_stoke="rgb(221, 221, 221)" my_stoke_opacity="1" my_stoke_width="1px" opacity="1" paint-order="fill" stroke="#ddd" stroke-dasharray="" stroke-linecap="butt" stroke-miterlimit="10" stroke-opacity="1" stroke-width="1"></path><path d="M 91 241.5 L 819 241.5" fill="none" my_fill="none" my_fill_opacity="1" my_font_size="16px" my_stoke="rgb(221, 221, 221)" my_stoke_opacity="1" my_stoke_width="1px" opacity="1" paint-order="fill" stroke="#ddd" stroke-dasharray="" stroke-linecap="butt" stroke-miterlimit="10" stroke-opacity="1" stroke-width="1"></path><path d="M 91 160.5 L 819 160.5" fill="none" my_fill="none" my_fill_opacity="1" my_font_size="16px" my_stoke="rgb(221, 221, 221)" my_stoke_opacity="1" my_stoke_width="1px" opacity="1" paint-order="fill" stroke="#ddd" stroke-dasharray="" stroke-linecap="butt" stroke-miterlimit="10" stroke-opacity="1" stroke-width="1"></path><text clip-path="none" content="风速（节）" dominant-baseline="central" fill="rgb(102, 102, 102)" fill-opacity="1" font-family='"Microsoft YaHei"' my_fill="rgb(102, 102, 102)" my_fill_opacity="1" my_font_size="12px" my_stoke="none" my_stoke_opacity="1" my_stoke_width="1px" opacity="1" stroke="none" stroke-opacity="1" stroke-width="1px" style='font: 12px "Microsoft YaHei"; fill: rgb(102, 102, 102);' text-anchor="middle" text_bbox='{"x":-31,"y":-14,"w":61,"h":16}' transform="matrix(0,-1,1,0,56,404)" x="0" xml:space="preserve" y="-6">风速（节）</text><text clip-path="none" content="浪高（米）" dominant-baseline="central" fill="rgb(1, 93, 213)" fill-opacity="1" font-family='"Microsoft YaHei"' my_fill="rgb(1, 93, 213)" my_fill_opacity="1" my_font_size="12px" my_stoke="none" my_stoke_opacity="1" my_stoke_width="1px" opacity="1" stroke="none" stroke-opacity="1" stroke-width="1px" style='font: 12px "Microsoft YaHei"; fill: rgb(1, 93, 213);' text-anchor="middle" text_bbox='{"x":-31,"y":-2,"w":61,"h":16}' transform="matrix(0,-1,1,0,854,404)" x="0" xml:space="preserve" y="6">浪高（米）</text><path d="M 91 648.5 L 819 648.5" fill="none" my_fill="none" my_fill_opacity="1" my_font_size="16px" my_stoke="rgb(110, 112, 121)" my_stoke_opacity="1" my_stoke_width="1px" opacity="1" paint-order="fill" stroke="#6E7079" stroke-dasharray="" stroke-linecap="round" stroke-miterlimit="10" stroke-opacity="1" stroke-width="1"></path><path d="M 111.5 648 L 111.5 653" fill="none" my_fill="none" my_fill_opacity="1" my_font_size="16px" my_stoke="rgb(110, 112, 121)" my_stoke_opacity="1" my_stoke_width="1px" opacity="1" paint-order="fill" stroke="#6E7079" stroke-dasharray="" stroke-linecap="butt" stroke-miterlimit="10" stroke-opacity="1" stroke-width="1"></path><path d="M 210.5 648 L 210.5 653" fill="none" my_fill="none" my_fill_opacity="1" my_font_size="16px" my_stoke="rgb(110, 112, 121)" my_stoke_opacity="1" my_stoke_width="1px" opacity="1" paint-order="fill" stroke="#6E7079" stroke-dasharray="" stroke-linecap="butt" stroke-miterlimit="10" stroke-opacity="1" stroke-width="1"></path><path d="M 309.5 648 L 309.5 653" fill="none" my_fill="none" my_fill_opacity="1" my_font_size="16px" my_stoke="rgb(110, 112, 121)" my_stoke_opacity="1" my_stoke_width="1px" opacity="1" paint-order="fill" stroke="#6E7079" stroke-dasharray="" stroke-linecap="butt" stroke-miterlimit="10" stroke-opacity="1" stroke-width="1"></path><path d="M 407.5 648 L 407.5 653" fill="none" my_fill="none" my_fill_opacity="1" my_font_size="16px" my_stoke="rgb(110, 112, 121)" my_stoke_opacity="1" my_stoke_width="1px" opacity="1" paint-order="fill" stroke="#6E7079" stroke-dasharray="" stroke-linecap="butt" stroke-miterlimit="10" stroke-opacity="1" stroke-width="1"></path><path d="M 506.5 648 L 506.5 653" fill="none" my_fill="none" my_fill_opacity="1" my_font_size="16px" my_stoke="rgb(110, 112, 121)" my_stoke_opacity="1" my_stoke_width="1px" opacity="1" paint-order="fill" stroke="#6E7079" stroke-dasharray="" stroke-linecap="butt" stroke-miterlimit="10" stroke-opacity="1" stroke-width="1"></path><path d="M 605.5 648 L 605.5 653" fill="none" my_fill="none" my_fill_opacity="1" my_font_size="16px" my_stoke="rgb(110, 112, 121)" my_stoke_opacity="1" my_stoke_width="1px" opacity="1" paint-order="fill" stroke="#6E7079" stroke-dasharray="" stroke-linecap="butt" stroke-miterlimit="10" stroke-opacity="1" stroke-width="1"></path><path d="M 704.5 648 L 704.5 653" fill="none" my_fill="none" my_fill_opacity="1" my_font_size="16px" my_stoke="rgb(110, 112, 121)" my_stoke_opacity="1" my_stoke_width="1px" opacity="1" paint-order="fill" stroke="#6E7079" stroke-dasharray="" stroke-linecap="butt" stroke-miterlimit="10" stroke-opacity="1" stroke-width="1"></path><path d="M 802.5 648 L 802.5 653" fill="none" my_fill="none" my_fill_opacity="1" my_font_size="16px" my_stoke="rgb(110, 112, 121)" my_stoke_opacity="1" my_stoke_width="1px" opacity="1" paint-order="fill" stroke="#6E7079" stroke-dasharray="" stroke-linecap="butt" stroke-miterlimit="10" stroke-opacity="1" stroke-width="1"></path><g clip-path="url(#zr2738-clip-0)"></g><g clip-path="url(#zr2738-clip-1)"><path d="M 91 433.28 L 97.1695 438.9733 L 103.339 445.48 L 109.5085 449.5467 L 115.678 454.4267 L 121.8475 457.68 L 128.017 460.9333 L 134.1864 464.1867 L 140.3559 467.44 L 146.5254 470.6933 L 152.6949 474.76 L 158.8644 478.0133 L 165.0339 482.08 L 171.2034 484.52 L 177.3729 486.1467 L 183.5424 485.3333 L 189.7119 484.52 L 195.8814 480.4533 L 202.0508 475.5733 L 208.2203 469.88 L 214.3898 463.3733 L 220.5593 458.4933 L 226.7288 453.6133 L 232.8983 450.36 L 239.0678 447.92 L 245.2373 446.2933 L 251.4068 445.48 L 257.5763 442.2267 L 263.7458 438.16 L 269.9153 412.9467 L 276.0847 386.92 L 282.2542 356.8267 L 288.4237 327.5467 L 294.5932 316.16 L 300.7627 304.7733 L 306.9322 302.3333 L 313.1017 299.8933 L 319.2712 292.5733 L 325.4407 286.0667 L 331.6102 286.0667 L 337.7797 286.0667 L 343.9492 296.64 L 350.1187 306.4 L 356.2881 321.8533 L 362.4576 337.3067 L 368.6271 350.32 L 374.7966 362.52 L 380.9661 373.9067 L 387.1356 386.1067 L 393.3051 396.68 L 399.4746 407.2533 L 405.6441 417.8267 L 411.8136 428.4 L 417.9831 438.16 L 424.1526 448.7333 L 430.322 458.4933 L 436.4915 468.2533 L 442.661 474.76 L 448.8305 481.2667 L 455 483.7067 L 461.1695 485.3333 L 467.339 485.3333 L 473.5085 486.1467 L 479.678 486.96 L 485.8474 488.5867 L 492.0169 490.2133 L 498.1864 491.0267 L 504.3559 491.0267 L 510.5254 491.0267 L 516.6949 490.2133 L 522.8644 488.5867 L 529.0339 487.7733 L 535.2034 487.7733 L 541.3729 488.5867 L 547.5424 490.2133 L 553.7119 492.6533 L 559.8813 495.0933 L 566.0508 498.3467 L 572.2203 501.6 L 578.3898 503.2267 L 584.5593 504.8533 L 590.7288 504.8533 L 596.8983 504.04 L 603.0678 500.7867 L 609.2373 497.5333 L 615.4068 496.72 L 621.5763 495.9067 L 627.7458 495.0933 L 633.9153 493.4667 L 640.0847 492.6533 L 646.2542 491.0267 L 652.4237 488.5867 L 658.5932 486.1467 L 664.7627 482.8933 L 670.9322 478.8267 L 677.1017 475.5733 L 683.2712 472.32 L 689.4407 467.44 L 695.6102 463.3733 L 701.7797 458.4933 L 707.9492 453.6133 L 714.1187 449.5467 L 720.2881 445.48 L 726.4576 445.48 L 732.6271 445.48 L 738.7966 447.1067 L 744.9661 449.5467 L 751.1356 444.6667 L 757.3051 439.7867 L 763.4745 429.2133 L 769.644 417.8267 L 775.8135 408.88 L 781.983 399.12 L 788.1525 399.12 L 794.322 399.12 L 800.4915 400.7467 L 806.661 401.56 L 812.8305 404 L 819 406.44 L 819 648 L 812.8305 648 L 806.661 648 L 800.4915 648 L 794.322 648 L 788.1525 648 L 781.983 648 L 775.8135 648 L 769.644 648 L 763.4745 648 L 757.3051 648 L 751.1356 648 L 744.9661 648 L 738.7966 648 L 732.6271 648 L 726.4576 648 L 720.2881 648 L 714.1187 648 L 707.9492 648 L 701.7797 648 L 695.6102 648 L 689.4407 648 L 683.2712 648 L 677.1017 648 L 670.9322 648 L 664.7627 648 L 658.5932 648 L 652.4237 648 L 646.2542 648 L 640.0847 648 L 633.9153 648 L 627.7458 648 L 621.5763 648 L 615.4068 648 L 609.2373 648 L 603.0678 648 L 596.8983 648 L 590.7288 648 L 584.5593 648 L 578.3898 648 L 572.2203 648 L 566.0508 648 L 559.8813 648 L 553.7119 648 L 547.5424 648 L 541.3729 648 L 535.2034 648 L 529.0339 648 L 522.8644 648 L 516.6949 648 L 510.5254 648 L 504.3559 648 L 498.1864 648 L 492.0169 648 L 485.8474 648 L 479.678 648 L 473.5085 648 L 467.339 648 L 461.1695 648 L 455 648 L 448.8305 648 L 442.661 648 L 436.4915 648 L 430.322 648 L 424.1526 648 L 417.9831 648 L 411.8136 648 L 405.6441 648 L 399.4746 648 L 393.3051 648 L 387.1356 648 L 380.9661 648 L 374.7966 648 L 368.6271 648 L 362.4576 648 L 356.2881 648 L 350.1187 648 L 343.9492 648 L 337.7797 648 L 331.6102 648 L 325.4407 648 L 319.2712 648 L 313.1017 648 L 306.9322 648 L 300.7627 648 L 294.5932 648 L 288.4237 648 L 282.2542 648 L 276.0847 648 L 269.9153 648 L 263.7458 648 L 257.5763 648 L 251.4068 648 L 245.2373 648 L 239.0678 648 L 232.8983 648 L 226.7288 648 L 220.5593 648 L 214.3898 648 L 208.2203 648 L 202.0508 648 L 195.8814 648 L 189.7119 648 L 183.5424 648 L 177.3729 648 L 171.2034 648 L 165.0339 648 L 158.8644 648 L 152.6949 648 L 146.5254 648 L 140.3559 648 L 134.1864 648 L 128.017 648 L 121.8475 648 L 115.678 648 L 109.5085 648 L 103.339 648 L 97.1695 648 L 91 648 Z" fill='url("#zr2738-gradient-0")' fill-opacity="0.7" my_fill='url("#zr2738-gradient-0")' my_fill_opacity="0.7" my_font_size="16px" my_stoke="none" my_stoke_opacity="1" my_stoke_width="1px" opacity="1" stroke="none"></path></g><g clip-path="url(#zr2738-clip-2)"></g><g clip-path="url(#zr2738-clip-3)"></g><g clip-path="url(#zr2738-clip-4)"></g><g clip-path="url(#zr2738-clip-2)"></g><g clip-path="url(#zr2738-clip-3)"></g><g clip-path="url(#zr2738-clip-4)"></g><path d="M -5 -5 L 423.3027 -5 L 423.3027 19 L -5 19 L -5 -5 Z" fill="rgb(0, 0, 0)" fill-opacity="0" my_fill="rgb(0, 0, 0)" my_fill_opacity="0" my_font_size="16px" my_stoke="rgb(204, 204, 204)" my_stoke_opacity="1" my_stoke_width="0px" opacity="1" paint-order="fill" stroke="#ccc" stroke-dasharray="" stroke-linecap="butt" stroke-miterlimit="10" stroke-opacity="1" stroke-width="0" transform="matrix(1,0,0,1,245.8486,744)"></path><path d="M 0 0 L 728 0 L 728 30 L 0 30 L 0 0 Z" fill="none" fill-opacity="1" my_fill="none" my_fill_opacity="1" my_font_size="16px" my_stoke="none" my_stoke_opacity="1" my_stoke_width="1px" opacity="1" stroke="none" transform="matrix(1,0,0,-1,93.8,729.5)"></path><path d="M -109.5635 -5 L 109.5635 -5 L 109.5635 45 L -109.5635 45 L -109.5635 -5 Z" fill="rgb(0, 0, 0)" fill-opacity="0" my_fill="rgb(0, 0, 0)" my_fill_opacity="0" my_font_size="16px" my_stoke="rgb(204, 204, 204)" my_stoke_opacity="1" my_stoke_width="0px" opacity="1" paint-order="fill" stroke="#ccc" stroke-dasharray="" stroke-linecap="butt" stroke-miterlimit="10" stroke-opacity="1" stroke-width="0" transform="matrix(1,0,0,1,455,5)"></path><text clip-path="none" content="天气 风向 风速 海浪 预报" dominant-baseline="central" fill="rgb(70, 70, 70)" fill-opacity="1" font-family='"Microsoft YaHei"' my_fill="rgb(70, 70, 70)" my_fill_opacity="1" my_font_size="18px" my_stoke="none" my_stoke_opacity="1" my_stoke_width="1px" opacity="1" stroke="none" stroke-opacity="1" stroke-width="1px" style='font: bold 18px "Microsoft YaHei"; fill: rgb(70, 70, 70);' text-anchor="middle" text_bbox='{"x":-100.734375,"y":-3,"w":202.46875,"h":24}' transform="matrix(1,0,0,1,455,5)" x="0" xml:space="preserve" y="9">天气 风向 风速 海浪 预报</text><text clip-path="none" content="示例数据源于 www.seabreeze.com.au" dominant-baseline="central" fill="rgb(110, 112, 121)" fill-opacity="1" font-family='"Microsoft YaHei"' my_fill="rgb(110, 112, 121)" my_fill_opacity="1" my_font_size="12px" my_stoke="none" my_stoke_opacity="1" my_stoke_width="1px" opacity="1" stroke="none" stroke-opacity="1" stroke-width="1px" style='font: 12px "Microsoft YaHei"; fill: rgb(110, 112, 121);' text-anchor="middle" text_bbox='{"x":-105.578125,"y":26,"w":210.15625,"h":16}' transform="matrix(1,0,0,1,455,5)" x="0" xml:space="preserve" y="34">示例数据源于 www.seabreeze.com.au</text><image height="45" style="opacity: 1;" transform="matrix(1,0,0,1,160.9209,110)" width="45" x="-22.5" xlink:href="https://echarts.apache.org/examples/data/asset/img/weather/cloudy_128.png" y="-22.5"/><text clip-path="none" content="4 - 13°" dominant-baseline="central" fill="rgb(0, 0, 0)" fill-opacity="1" font-family='"Microsoft YaHei"' my_fill="rgb(0, 0, 0)" my_fill_opacity="1" my_font_size="14px" my_stoke="none" my_stoke_opacity="1" my_stoke_width="1px" opacity="1" stroke="none" stroke-opacity="1" stroke-width="1px" style='font: 14px "Microsoft YaHei"; fill: rgb(0, 0, 0);' text-anchor="middle" text_bbox='{"x":-23.34375,"y":-16.5,"w":45.984375,"h":19}' transform="matrix(1,0,0,1,160.9209,80)" x="0" xml:space="preserve" y="-7">4 - 13°</text><image height="45" style="opacity: 1;" transform="matrix(1,0,0,1,259.6328,110)" width="45" x="-22.5" xlink:href="https://echarts.apache.org/examples/data/asset/img/weather/showers_128.png" y="-22.5"/><text clip-path="none" content="5 - 11°" dominant-baseline="central" fill="rgb(0, 0, 0)" fill-opacity="1" font-family='"Microsoft YaHei"' my_fill="rgb(0, 0, 0)" my_fill_opacity="1" my_font_size="14px" my_stoke="none" my_stoke_opacity="1" my_stoke_width="1px" opacity="1" stroke="none" stroke-opacity="1" stroke-width="1px" style='font: 14px "Microsoft YaHei"; fill: rgb(0, 0, 0);' text-anchor="middle" text_bbox='{"x":-22.34375,"y":-16.5,"w":44.984375,"h":19}' transform="matrix(1,0,0,1,259.6328,80)" x="0" xml:space="preserve" y="-7">5 - 11°</text><image height="45" style="opacity: 1;" transform="matrix(1,0,0,1,358.3446,110)" width="45" x="-22.5" xlink:href="https://echarts.apache.org/examples/data/asset/img/weather/showers_128.png" y="-22.5"/><text clip-path="none" content="3 - 11°" dominant-baseline="central" fill="rgb(0, 0, 0)" fill-opacity="1" font-family='"Microsoft YaHei"' my_fill="rgb(0, 0, 0)" my_fill_opacity="1" my_font_size="14px" my_stoke="none" my_stoke_opacity="1" my_stoke_width="1px" opacity="1" stroke="none" stroke-opacity="1" stroke-width="1px" style='font: 14px "Microsoft YaHei"; fill: rgb(0, 0, 0);' text-anchor="middle" text_bbox='{"x":-22.34375,"y":-16.5,"w":44.984375,"h":19}' transform="matrix(1,0,0,1,358.3446,80)" x="0" xml:space="preserve" y="-7">3 - 11°</text><image height="45" style="opacity: 1;" transform="matrix(1,0,0,1,457.0565,110)" width="45" x="-22.5" xlink:href="https://echarts.apache.org/examples/data/asset/img/weather/sunny_128.png" y="-22.5"/><text clip-path="none" content="1 - 11°" dominant-baseline="central" fill="rgb(0, 0, 0)" fill-opacity="1" font-family='"Microsoft YaHei"' my_fill="rgb(0, 0, 0)" my_fill_opacity="1" my_font_size="14px" my_stoke="none" my_stoke_opacity="1" my_stoke_width="1px" opacity="1" stroke="none" stroke-opacity="1" stroke-width="1px" style='font: 14px "Microsoft YaHei"; fill: rgb(0, 0, 0);' text-anchor="middle" text_bbox='{"x":-22.34375,"y":-16.5,"w":44.984375,"h":19}' transform="matrix(1,0,0,1,457.0565,80)" x="0" xml:space="preserve" y="-7">1 - 11°</text><image height="45" style="opacity: 1;" transform="matrix(1,0,0,1,555.7684,110)" width="45" x="-22.5" xlink:href="https://echarts.apache.org/examples/data/asset/img/weather/sunny_128.png" y="-22.5"/><text clip-path="none" content="2 - 13°" dominant-baseline="central" fill="rgb(0, 0, 0)" fill-opacity="1" font-family='"Microsoft YaHei"' my_fill="rgb(0, 0, 0)" my_fill_opacity="1" my_font_size="14px" my_stoke="none" my_stoke_opacity="1" my_stoke_width="1px" opacity="1" stroke="none" stroke-opacity="1" stroke-width="1px" style='font: 14px "Microsoft YaHei"; fill: rgb(0, 0, 0);' text-anchor="middle" text_bbox='{"x":-22.34375,"y":-16.5,"w":44.984375,"h":19}' transform="matrix(1,0,0,1,555.7684,80)" x="0" xml:space="preserve" y="-7">2 - 13°</text><image height="45" style="opacity: 1;" transform="matrix(1,0,0,1,654.4802,110)" width="45" x="-22.5" xlink:href="https://echarts.apache.org/examples/data/asset/img/weather/sunny_128.png" y="-22.5"/><text clip-path="none" content="3 - 12°" dominant-baseline="central" fill="rgb(0, 0, 0)" fill-opacity="1" font-family='"Microsoft YaHei"' my_fill="rgb(0, 0, 0)" my_fill_opacity="1" my_font_size="14px" my_stoke="none" my_stoke_opacity="1" my_stoke_width="1px" opacity="1" stroke="none" stroke-opacity="1" stroke-width="1px" style='font: 14px "Microsoft YaHei"; fill: rgb(0, 0, 0);' text-anchor="middle" text_bbox='{"x":-22.34375,"y":-16.5,"w":44.984375,"h":19}' transform="matrix(1,0,0,1,654.4802,80)" x="0" xml:space="preserve" y="-7">3 - 12°</text><image height="45" style="opacity: 1;" transform="matrix(1,0,0,1,753.1921,110)" width="45" x="-22.5" xlink:href="https://echarts.apache.org/examples/data/asset/img/weather/showers_128.png" y="-22.5"/><text clip-path="none" content="5 - 12°" dominant-baseline="central" fill="rgb(0, 0, 0)" fill-opacity="1" font-family='"Microsoft YaHei"' my_fill="rgb(0, 0, 0)" my_fill_opacity="1" my_font_size="14px" my_stoke="none" my_stoke_opacity="1" my_stoke_width="1px" opacity="1" stroke="none" stroke-opacity="1" stroke-width="1px" style='font: 14px "Microsoft YaHei"; fill: rgb(0, 0, 0);' text-anchor="middle" text_bbox='{"x":-22.34375,"y":-16.5,"w":44.984375,"h":19}' transform="matrix(1,0,0,1,753.1921,80)" x="0" xml:space="preserve" y="-7">5 - 12°</text></g></svg>