<svg xmlns="http://www.w3.org/2000/svg" xmlns:xlink="http://www.w3.org/1999/xlink" version="1.1" baseProfile="full" width="910" height="773" style="user-select: none; position: absolute; left: 0px; top: 0px;" transform_matrix="{&quot;a&quot;:1,&quot;b&quot;:0,&quot;c&quot;:0,&quot;d&quot;:1,&quot;e&quot;:0,&quot;f&quot;:0}"><g><path d="M 91 657.5 L 819 657.5" fill="none" stroke="#E0E6F1" stroke-width="1" paint-order="fill" stroke-opacity="1" stroke-dasharray="" stroke-linecap="butt" stroke-miterlimit="10" transform_matrix="{&quot;a&quot;:1,&quot;b&quot;:0,&quot;c&quot;:0,&quot;d&quot;:1,&quot;e&quot;:0,&quot;f&quot;:0}" my_stoke="rgb(224, 230, 241)" my_stoke_width="1px" my_stoke_opacity="1" my_fill="none" my_fill_opacity="1" my_font_size="16px" opacity="1"/><path d="M 91 556.5 L 819 556.5" fill="none" stroke="#E0E6F1" stroke-width="1" paint-order="fill" stroke-opacity="1" stroke-dasharray="" stroke-linecap="butt" stroke-miterlimit="10" transform_matrix="{&quot;a&quot;:1,&quot;b&quot;:0,&quot;c&quot;:0,&quot;d&quot;:1,&quot;e&quot;:0,&quot;f&quot;:0}" my_stoke="rgb(224, 230, 241)" my_stoke_width="1px" my_stoke_opacity="1" my_fill="none" my_fill_opacity="1" my_font_size="16px" opacity="1"/><path d="M 91 456.5 L 819 456.5" fill="none" stroke="#E0E6F1" stroke-width="1" paint-order="fill" stroke-opacity="1" stroke-dasharray="" stroke-linecap="butt" stroke-miterlimit="10" transform_matrix="{&quot;a&quot;:1,&quot;b&quot;:0,&quot;c&quot;:0,&quot;d&quot;:1,&quot;e&quot;:0,&quot;f&quot;:0}" my_stoke="rgb(224, 230, 241)" my_stoke_width="1px" my_stoke_opacity="1" my_fill="none" my_fill_opacity="1" my_font_size="16px" opacity="1"/><path d="M 91 355.5 L 819 355.5" fill="none" stroke="#E0E6F1" stroke-width="1" paint-order="fill" stroke-opacity="1" stroke-dasharray="" stroke-linecap="butt" stroke-miterlimit="10" transform_matrix="{&quot;a&quot;:1,&quot;b&quot;:0,&quot;c&quot;:0,&quot;d&quot;:1,&quot;e&quot;:0,&quot;f&quot;:0}" my_stoke="rgb(224, 230, 241)" my_stoke_width="1px" my_stoke_opacity="1" my_fill="none" my_fill_opacity="1" my_font_size="16px" opacity="1"/><path d="M 91 255.5 L 819 255.5" fill="none" stroke="#E0E6F1" stroke-width="1" paint-order="fill" stroke-opacity="1" stroke-dasharray="" stroke-linecap="butt" stroke-miterlimit="10" transform_matrix="{&quot;a&quot;:1,&quot;b&quot;:0,&quot;c&quot;:0,&quot;d&quot;:1,&quot;e&quot;:0,&quot;f&quot;:0}" my_stoke="rgb(224, 230, 241)" my_stoke_width="1px" my_stoke_opacity="1" my_fill="none" my_fill_opacity="1" my_font_size="16px" opacity="1"/><path d="M 91 154.5 L 819 154.5" fill="none" stroke="#E0E6F1" stroke-width="1" paint-order="fill" stroke-opacity="1" stroke-dasharray="" stroke-linecap="butt" stroke-miterlimit="10" transform_matrix="{&quot;a&quot;:1,&quot;b&quot;:0,&quot;c&quot;:0,&quot;d&quot;:1,&quot;e&quot;:0,&quot;f&quot;:0}" my_stoke="rgb(224, 230, 241)" my_stoke_width="1px" my_stoke_opacity="1" my_fill="none" my_fill_opacity="1" my_font_size="16px" opacity="1"/><path d="M 91 154.6 L 273 154.6 L 273 657.05 L 91 657.05 L 91 154.6 Z" fill="rgb(250, 250, 250)" fill-opacity="0.2" stroke="none" transform_matrix="{&quot;a&quot;:1,&quot;b&quot;:0,&quot;c&quot;:0,&quot;d&quot;:1,&quot;e&quot;:0,&quot;f&quot;:0}" my_stoke="none" my_stoke_width="1px" my_stoke_opacity="1" my_fill="rgb(250, 250, 250)" my_fill_opacity="0.2" my_font_size="16px" opacity="1"/><path d="M 273 154.6 L 455 154.6 L 455 657.05 L 273 657.05 L 273 154.6 Z" fill="rgb(210, 219, 238)" fill-opacity="0.2" stroke="none" transform_matrix="{&quot;a&quot;:1,&quot;b&quot;:0,&quot;c&quot;:0,&quot;d&quot;:1,&quot;e&quot;:0,&quot;f&quot;:0}" my_stoke="none" my_stoke_width="1px" my_stoke_opacity="1" my_fill="rgb(210, 219, 238)" my_fill_opacity="0.2" my_font_size="16px" opacity="1"/><path d="M 455 154.6 L 637 154.6 L 637 657.05 L 455 657.05 L 455 154.6 Z" fill="rgb(250, 250, 250)" fill-opacity="0.2" stroke="none" transform_matrix="{&quot;a&quot;:1,&quot;b&quot;:0,&quot;c&quot;:0,&quot;d&quot;:1,&quot;e&quot;:0,&quot;f&quot;:0}" my_stoke="none" my_stoke_width="1px" my_stoke_opacity="1" my_fill="rgb(250, 250, 250)" my_fill_opacity="0.2" my_font_size="16px" opacity="1"/><path d="M 637 154.6 L 819 154.6 L 819 657.05 L 637 657.05 L 637 154.6 Z" fill="rgb(210, 219, 238)" fill-opacity="0.2" stroke="none" transform_matrix="{&quot;a&quot;:1,&quot;b&quot;:0,&quot;c&quot;:0,&quot;d&quot;:1,&quot;e&quot;:0,&quot;f&quot;:0}" my_stoke="none" my_stoke_width="1px" my_stoke_opacity="1" my_fill="rgb(210, 219, 238)" my_fill_opacity="0.2" my_font_size="16px" opacity="1"/><text xml:space="preserve" fill="rgb(110, 112, 121)" fill-opacity="1" stroke="none" transform="matrix(1,0,0,1,91,139.6)" dominant-baseline="central" text-anchor="middle" x="0" y="-6" style="font: 12px &quot;Microsoft YaHei&quot;; fill: rgb(110, 112, 121);" transform_matrix="{&quot;a&quot;:1,&quot;b&quot;:0,&quot;c&quot;:0,&quot;d&quot;:1,&quot;e&quot;:91,&quot;f&quot;:139.60000610351562}" text_bbox="{&quot;x&quot;:-17.078125,&quot;y&quot;:-14,&quot;w&quot;:33.34375,&quot;h&quot;:16}" opacity="1" stroke-width="1px" stroke-opacity="1" font-family="&quot;Microsoft YaHei&quot;" my_stoke="none" my_stoke_width="1px" my_stoke_opacity="1" my_fill="rgb(110, 112, 121)" my_fill_opacity="1" my_font_size="12px" clip-path="none" content="Value">Value</text><path d="M 91 456.5 L 819 456.5" fill="none" stroke="#6E7079" stroke-width="1" paint-order="fill" stroke-opacity="1" stroke-dasharray="" stroke-linecap="round" stroke-miterlimit="10" transform_matrix="{&quot;a&quot;:1,&quot;b&quot;:0,&quot;c&quot;:0,&quot;d&quot;:1,&quot;e&quot;:0,&quot;f&quot;:0}" my_stoke="rgb(110, 112, 121)" my_stoke_width="1px" my_stoke_opacity="1" my_fill="none" my_fill_opacity="1" my_font_size="16px" opacity="1"/><path d="M 91.5 456.07 L 91.5 461.07" fill="none" stroke="#6E7079" stroke-width="1" paint-order="fill" stroke-opacity="1" stroke-dasharray="" stroke-linecap="butt" stroke-miterlimit="10" transform_matrix="{&quot;a&quot;:1,&quot;b&quot;:0,&quot;c&quot;:0,&quot;d&quot;:1,&quot;e&quot;:0,&quot;f&quot;:0}" my_stoke="rgb(110, 112, 121)" my_stoke_width="1px" my_stoke_opacity="1" my_fill="none" my_fill_opacity="1" my_font_size="16px" opacity="1"/><path d="M 273.5 456.07 L 273.5 461.07" fill="none" stroke="#6E7079" stroke-width="1" paint-order="fill" stroke-opacity="1" stroke-dasharray="" stroke-linecap="butt" stroke-miterlimit="10" transform_matrix="{&quot;a&quot;:1,&quot;b&quot;:0,&quot;c&quot;:0,&quot;d&quot;:1,&quot;e&quot;:0,&quot;f&quot;:0}" my_stoke="rgb(110, 112, 121)" my_stoke_width="1px" my_stoke_opacity="1" my_fill="none" my_fill_opacity="1" my_font_size="16px" opacity="1"/><path d="M 455.5 456.07 L 455.5 461.07" fill="none" stroke="#6E7079" stroke-width="1" paint-order="fill" stroke-opacity="1" stroke-dasharray="" stroke-linecap="butt" stroke-miterlimit="10" transform_matrix="{&quot;a&quot;:1,&quot;b&quot;:0,&quot;c&quot;:0,&quot;d&quot;:1,&quot;e&quot;:0,&quot;f&quot;:0}" my_stoke="rgb(110, 112, 121)" my_stoke_width="1px" my_stoke_opacity="1" my_fill="none" my_fill_opacity="1" my_font_size="16px" opacity="1"/><path d="M 637.5 456.07 L 637.5 461.07" fill="none" stroke="#6E7079" stroke-width="1" paint-order="fill" stroke-opacity="1" stroke-dasharray="" stroke-linecap="butt" stroke-miterlimit="10" transform_matrix="{&quot;a&quot;:1,&quot;b&quot;:0,&quot;c&quot;:0,&quot;d&quot;:1,&quot;e&quot;:0,&quot;f&quot;:0}" my_stoke="rgb(110, 112, 121)" my_stoke_width="1px" my_stoke_opacity="1" my_fill="none" my_fill_opacity="1" my_font_size="16px" opacity="1"/><path d="M 819.5 456.07 L 819.5 461.07" fill="none" stroke="#6E7079" stroke-width="1" paint-order="fill" stroke-opacity="1" stroke-dasharray="" stroke-linecap="butt" stroke-miterlimit="10" transform_matrix="{&quot;a&quot;:1,&quot;b&quot;:0,&quot;c&quot;:0,&quot;d&quot;:1,&quot;e&quot;:0,&quot;f&quot;:0}" my_stoke="rgb(110, 112, 121)" my_stoke_width="1px" my_stoke_opacity="1" my_fill="none" my_fill_opacity="1" my_font_size="16px" opacity="1"/><text xml:space="preserve" fill="rgb(110, 112, 121)" fill-opacity="1" stroke="none" transform="matrix(1,0,0,1,83,657.05)" dominant-baseline="central" text-anchor="end" x="0" y="0" style="font: 12px &quot;Microsoft YaHei&quot;; fill: rgb(110, 112, 121);" transform_matrix="{&quot;a&quot;:1,&quot;b&quot;:0,&quot;c&quot;:0,&quot;d&quot;:1,&quot;e&quot;:83,&quot;f&quot;:657.0499877929688}" text_bbox="{&quot;x&quot;:-26.3125,&quot;y&quot;:-8,&quot;w&quot;:26.3125,&quot;h&quot;:16}" opacity="1" stroke-width="1px" stroke-opacity="1" font-family="&quot;Microsoft YaHei&quot;" my_stoke="none" my_stoke_width="1px" my_stoke_opacity="1" my_fill="rgb(110, 112, 121)" my_fill_opacity="1" my_font_size="12px" clip-path="none" content="-400">-400</text><text xml:space="preserve" fill="rgb(110, 112, 121)" fill-opacity="1" stroke="none" transform="matrix(1,0,0,1,83,556.56)" dominant-baseline="central" text-anchor="end" x="0" y="0" style="font: 12px &quot;Microsoft YaHei&quot;; fill: rgb(110, 112, 121);" transform_matrix="{&quot;a&quot;:1,&quot;b&quot;:0,&quot;c&quot;:0,&quot;d&quot;:1,&quot;e&quot;:83,&quot;f&quot;:556.5599975585938}" text_bbox="{&quot;x&quot;:-26.3125,&quot;y&quot;:-8,&quot;w&quot;:26.3125,&quot;h&quot;:16}" opacity="1" stroke-width="1px" stroke-opacity="1" font-family="&quot;Microsoft YaHei&quot;" my_stoke="none" my_stoke_width="1px" my_stoke_opacity="1" my_fill="rgb(110, 112, 121)" my_fill_opacity="1" my_font_size="12px" clip-path="none" content="-200">-200</text><text xml:space="preserve" fill="rgb(110, 112, 121)" fill-opacity="1" stroke="none" transform="matrix(1,0,0,1,83,456.07)" dominant-baseline="central" text-anchor="end" x="0" y="0" style="font: 12px &quot;Microsoft YaHei&quot;; fill: rgb(110, 112, 121);" transform_matrix="{&quot;a&quot;:1,&quot;b&quot;:0,&quot;c&quot;:0,&quot;d&quot;:1,&quot;e&quot;:83,&quot;f&quot;:456.07000732421875}" text_bbox="{&quot;x&quot;:-7.046875,&quot;y&quot;:-8,&quot;w&quot;:7.046875,&quot;h&quot;:16}" opacity="1" stroke-width="1px" stroke-opacity="1" font-family="&quot;Microsoft YaHei&quot;" my_stoke="none" my_stoke_width="1px" my_stoke_opacity="1" my_fill="rgb(110, 112, 121)" my_fill_opacity="1" my_font_size="12px" clip-path="none" content="0">0</text><text xml:space="preserve" fill="rgb(110, 112, 121)" fill-opacity="1" stroke="none" transform="matrix(1,0,0,1,83,355.58)" dominant-baseline="central" text-anchor="end" x="0" y="0" style="font: 12px &quot;Microsoft YaHei&quot;; fill: rgb(110, 112, 121);" transform_matrix="{&quot;a&quot;:1,&quot;b&quot;:0,&quot;c&quot;:0,&quot;d&quot;:1,&quot;e&quot;:83,&quot;f&quot;:355.5799865722656}" text_bbox="{&quot;x&quot;:-21.125,&quot;y&quot;:-8,&quot;w&quot;:21.125,&quot;h&quot;:16}" opacity="1" stroke-width="1px" stroke-opacity="1" font-family="&quot;Microsoft YaHei&quot;" my_stoke="none" my_stoke_width="1px" my_stoke_opacity="1" my_fill="rgb(110, 112, 121)" my_fill_opacity="1" my_font_size="12px" clip-path="none" content="200">200</text><text xml:space="preserve" fill="rgb(110, 112, 121)" fill-opacity="1" stroke="none" transform="matrix(1,0,0,1,83,255.09)" dominant-baseline="central" text-anchor="end" x="0" y="0" style="font: 12px &quot;Microsoft YaHei&quot;; fill: rgb(110, 112, 121);" transform_matrix="{&quot;a&quot;:1,&quot;b&quot;:0,&quot;c&quot;:0,&quot;d&quot;:1,&quot;e&quot;:83,&quot;f&quot;:255.08999633789062}" text_bbox="{&quot;x&quot;:-22.125,&quot;y&quot;:-8,&quot;w&quot;:22.125,&quot;h&quot;:16}" opacity="1" stroke-width="1px" stroke-opacity="1" font-family="&quot;Microsoft YaHei&quot;" my_stoke="none" my_stoke_width="1px" my_stoke_opacity="1" my_fill="rgb(110, 112, 121)" my_fill_opacity="1" my_font_size="12px" clip-path="none" content="400">400</text><text xml:space="preserve" fill="rgb(110, 112, 121)" fill-opacity="1" stroke="none" transform="matrix(1,0,0,1,83,154.6)" dominant-baseline="central" text-anchor="end" x="0" y="0" style="font: 12px &quot;Microsoft YaHei&quot;; fill: rgb(110, 112, 121);" transform_matrix="{&quot;a&quot;:1,&quot;b&quot;:0,&quot;c&quot;:0,&quot;d&quot;:1,&quot;e&quot;:83,&quot;f&quot;:154.60000610351562}" text_bbox="{&quot;x&quot;:-21.125,&quot;y&quot;:-8,&quot;w&quot;:21.125,&quot;h&quot;:16}" opacity="1" stroke-width="1px" stroke-opacity="1" font-family="&quot;Microsoft YaHei&quot;" my_stoke="none" my_stoke_width="1px" my_stoke_opacity="1" my_fill="rgb(110, 112, 121)" my_fill_opacity="1" my_font_size="12px" clip-path="none" content="600">600</text><text xml:space="preserve" fill="rgb(110, 112, 121)" fill-opacity="1" stroke="none" transform="matrix(1,0,0,1,182,665.05)" dominant-baseline="central" text-anchor="middle" x="0" y="6" style="font: 12px &quot;Microsoft YaHei&quot;; fill: rgb(110, 112, 121);" transform_matrix="{&quot;a&quot;:1,&quot;b&quot;:0,&quot;c&quot;:0,&quot;d&quot;:1,&quot;e&quot;:182,&quot;f&quot;:665.0499877929688}" text_bbox="{&quot;x&quot;:-3.53125,&quot;y&quot;:-2,&quot;w&quot;:7.0625,&quot;h&quot;:16}" opacity="1" stroke-width="1px" stroke-opacity="1" font-family="&quot;Microsoft YaHei&quot;" my_stoke="none" my_stoke_width="1px" my_stoke_opacity="1" my_fill="rgb(110, 112, 121)" my_fill_opacity="1" my_font_size="12px" clip-path="none" content="0">0</text><text xml:space="preserve" fill="rgb(110, 112, 121)" fill-opacity="1" stroke="none" transform="matrix(1,0,0,1,364,665.05)" dominant-baseline="central" text-anchor="middle" x="0" y="6" style="font: 12px &quot;Microsoft YaHei&quot;; fill: rgb(110, 112, 121);" transform_matrix="{&quot;a&quot;:1,&quot;b&quot;:0,&quot;c&quot;:0,&quot;d&quot;:1,&quot;e&quot;:364,&quot;f&quot;:665.0499877929688}" text_bbox="{&quot;x&quot;:-3.53125,&quot;y&quot;:-2,&quot;w&quot;:7.0625,&quot;h&quot;:16}" opacity="1" stroke-width="1px" stroke-opacity="1" font-family="&quot;Microsoft YaHei&quot;" my_stoke="none" my_stoke_width="1px" my_stoke_opacity="1" my_fill="rgb(110, 112, 121)" my_fill_opacity="1" my_font_size="12px" clip-path="none" content="1">1</text><text xml:space="preserve" fill="rgb(110, 112, 121)" fill-opacity="1" stroke="none" transform="matrix(1,0,0,1,546,665.05)" dominant-baseline="central" text-anchor="middle" x="0" y="6" style="font: 12px &quot;Microsoft YaHei&quot;; fill: rgb(110, 112, 121);" transform_matrix="{&quot;a&quot;:1,&quot;b&quot;:0,&quot;c&quot;:0,&quot;d&quot;:1,&quot;e&quot;:546,&quot;f&quot;:665.0499877929688}" text_bbox="{&quot;x&quot;:-3.53125,&quot;y&quot;:-2,&quot;w&quot;:7.0625,&quot;h&quot;:16}" opacity="1" stroke-width="1px" stroke-opacity="1" font-family="&quot;Microsoft YaHei&quot;" my_stoke="none" my_stoke_width="1px" my_stoke_opacity="1" my_fill="rgb(110, 112, 121)" my_fill_opacity="1" my_font_size="12px" clip-path="none" content="2">2</text><text xml:space="preserve" fill="rgb(110, 112, 121)" fill-opacity="1" stroke="none" transform="matrix(1,0,0,1,728,665.05)" dominant-baseline="central" text-anchor="middle" x="0" y="6" style="font: 12px &quot;Microsoft YaHei&quot;; fill: rgb(110, 112, 121);" transform_matrix="{&quot;a&quot;:1,&quot;b&quot;:0,&quot;c&quot;:0,&quot;d&quot;:1,&quot;e&quot;:728,&quot;f&quot;:665.0499877929688}" text_bbox="{&quot;x&quot;:-3.53125,&quot;y&quot;:-2,&quot;w&quot;:7.0625,&quot;h&quot;:16}" opacity="1" stroke-width="1px" stroke-opacity="1" font-family="&quot;Microsoft YaHei&quot;" my_stoke="none" my_stoke_width="1px" my_stoke_opacity="1" my_fill="rgb(110, 112, 121)" my_fill_opacity="1" my_font_size="12px" clip-path="none" content="3">3</text><path d="M 110.2 430.8598 L 148.4933 430.8598 L 148.4933 385.4987 L 110.2 385.4987 Z M 129.3467 454.385 L 129.3467 430.8598 M 129.3467 358.2986 L 129.3467 385.4987 M 110.2 454.385 L 148.4933 454.385 M 110.2 358.2986 L 148.4933 358.2986 M 110.2 406.5277 L 148.4933 406.5277" fill="rgb(255, 255, 255)" fill-opacity="1" stroke="#5470c6" stroke-width="1" paint-order="fill" stroke-opacity="1" stroke-dasharray="" stroke-linecap="butt" stroke-miterlimit="10" transform_matrix="{&quot;a&quot;:1,&quot;b&quot;:0,&quot;c&quot;:0,&quot;d&quot;:1,&quot;e&quot;:0,&quot;f&quot;:0}" my_stoke="rgb(84, 112, 198)" my_stoke_width="1px" my_stoke_opacity="1" my_fill="rgb(255, 255, 255)" my_fill_opacity="1" my_font_size="16px" opacity="1"/><path d="M 292.2 431.8671 L 330.4933 431.8671 L 330.4933 383.5633 L 292.2 383.5633 Z M 311.3467 455.8529 L 311.3467 431.8671 M 311.3467 357.3827 L 311.3467 383.5633 M 292.2 455.8529 L 330.4933 455.8529 M 292.2 357.3827 L 330.4933 357.3827 M 292.2 412.2692 L 330.4933 412.2692" fill="rgb(255, 255, 255)" fill-opacity="1" stroke="#5470c6" stroke-width="1" paint-order="fill" stroke-opacity="1" stroke-dasharray="" stroke-linecap="butt" stroke-miterlimit="10" transform_matrix="{&quot;a&quot;:1,&quot;b&quot;:0,&quot;c&quot;:0,&quot;d&quot;:1,&quot;e&quot;:0,&quot;f&quot;:0}" my_stoke="rgb(84, 112, 198)" my_stoke_width="1px" my_stoke_opacity="1" my_fill="rgb(255, 255, 255)" my_fill_opacity="1" my_font_size="16px" opacity="1"/><path d="M 474.2 432.7526 L 512.4933 432.7526 L 512.4933 388.5948 L 474.2 388.5948 Z M 493.3467 455.6666 L 493.3467 432.7526 M 493.3467 356.81 L 493.3467 388.5948 M 474.2 455.6666 L 512.4933 455.6666 M 474.2 356.81 L 512.4933 356.81 M 474.2 411.1003 L 512.4933 411.1003" fill="rgb(255, 255, 255)" fill-opacity="1" stroke="#5470c6" stroke-width="1" paint-order="fill" stroke-opacity="1" stroke-dasharray="" stroke-linecap="butt" stroke-miterlimit="10" transform_matrix="{&quot;a&quot;:1,&quot;b&quot;:0,&quot;c&quot;:0,&quot;d&quot;:1,&quot;e&quot;:0,&quot;f&quot;:0}" my_stoke="rgb(84, 112, 198)" my_stoke_width="1px" my_stoke_opacity="1" my_fill="rgb(255, 255, 255)" my_fill_opacity="1" my_font_size="16px" opacity="1"/><path d="M 656.2 422.1373 L 694.4933 422.1373 L 694.4933 378.0447 L 656.2 378.0447 Z M 675.3467 454.6521 L 675.3467 422.1373 M 675.3467 355.7493 L 675.3467 378.0447 M 656.2 454.6521 L 694.4933 454.6521 M 656.2 355.7493 L 694.4933 355.7493 M 656.2 400.1553 L 694.4933 400.1553" fill="rgb(255, 255, 255)" fill-opacity="1" stroke="#5470c6" stroke-width="1" paint-order="fill" stroke-opacity="1" stroke-dasharray="" stroke-linecap="butt" stroke-miterlimit="10" transform_matrix="{&quot;a&quot;:1,&quot;b&quot;:0,&quot;c&quot;:0,&quot;d&quot;:1,&quot;e&quot;:0,&quot;f&quot;:0}" my_stoke="rgb(84, 112, 198)" my_stoke_width="1px" my_stoke_opacity="1" my_fill="rgb(255, 255, 255)" my_fill_opacity="1" my_font_size="16px" opacity="1"/><path d="M 162.8533 435.6294 L 201.1467 435.6294 L 201.1467 386.318 L 162.8533 386.318 Z M 182 455.9889 L 182 435.6294 M 182 357.4762 L 182 386.318 M 162.8533 455.9889 L 201.1467 455.9889 M 162.8533 357.4762 L 201.1467 357.4762 M 162.8533 409.1376 L 201.1467 409.1376" fill="rgb(255, 255, 255)" fill-opacity="1" stroke="#91cc75" stroke-width="1" paint-order="fill" stroke-opacity="1" stroke-dasharray="" stroke-linecap="butt" stroke-miterlimit="10" transform_matrix="{&quot;a&quot;:1,&quot;b&quot;:0,&quot;c&quot;:0,&quot;d&quot;:1,&quot;e&quot;:0,&quot;f&quot;:0}" my_stoke="rgb(145, 204, 117)" my_stoke_width="1px" my_stoke_opacity="1" my_fill="rgb(255, 255, 255)" my_fill_opacity="1" my_font_size="16px" opacity="1"/><path d="M 344.8533 432.4741 L 383.1467 432.4741 L 383.1467 381.6995 L 344.8533 381.6995 Z M 364 455.7604 L 364 432.4741 M 364 358.4244 L 364 381.6995 M 344.8533 455.7604 L 383.1467 455.7604 M 344.8533 358.4244 L 383.1467 358.4244 M 344.8533 405.0118 L 383.1467 405.0118" fill="rgb(255, 255, 255)" fill-opacity="1" stroke="#91cc75" stroke-width="1" paint-order="fill" stroke-opacity="1" stroke-dasharray="" stroke-linecap="butt" stroke-miterlimit="10" transform_matrix="{&quot;a&quot;:1,&quot;b&quot;:0,&quot;c&quot;:0,&quot;d&quot;:1,&quot;e&quot;:0,&quot;f&quot;:0}" my_stoke="rgb(145, 204, 117)" my_stoke_width="1px" my_stoke_opacity="1" my_fill="rgb(255, 255, 255)" my_fill_opacity="1" my_font_size="16px" opacity="1"/><path d="M 526.8533 432.5861 L 565.1467 432.5861 L 565.1467 387.2698 L 526.8533 387.2698 Z M 546 455.1715 L 546 432.5861 M 546 355.7791 L 546 387.2698 M 526.8533 455.1715 L 565.1467 455.1715 M 526.8533 355.7791 L 565.1467 355.7791 M 526.8533 408.6384 L 565.1467 408.6384" fill="rgb(255, 255, 255)" fill-opacity="1" stroke="#91cc75" stroke-width="1" paint-order="fill" stroke-opacity="1" stroke-dasharray="" stroke-linecap="butt" stroke-miterlimit="10" transform_matrix="{&quot;a&quot;:1,&quot;b&quot;:0,&quot;c&quot;:0,&quot;d&quot;:1,&quot;e&quot;:0,&quot;f&quot;:0}" my_stoke="rgb(145, 204, 117)" my_stoke_width="1px" my_stoke_opacity="1" my_fill="rgb(255, 255, 255)" my_fill_opacity="1" my_font_size="16px" opacity="1"/><path d="M 708.8533 422.386 L 747.1467 422.386 L 747.1467 382.4864 L 708.8533 382.4864 Z M 728 455.402 L 728 422.386 M 728 355.8358 L 728 382.4864 M 708.8533 455.402 L 747.1467 455.402 M 708.8533 355.8358 L 747.1467 355.8358 M 708.8533 402.6505 L 747.1467 402.6505" fill="rgb(255, 255, 255)" fill-opacity="1" stroke="#91cc75" stroke-width="1" paint-order="fill" stroke-opacity="1" stroke-dasharray="" stroke-linecap="butt" stroke-miterlimit="10" transform_matrix="{&quot;a&quot;:1,&quot;b&quot;:0,&quot;c&quot;:0,&quot;d&quot;:1,&quot;e&quot;:0,&quot;f&quot;:0}" my_stoke="rgb(145, 204, 117)" my_stoke_width="1px" my_stoke_opacity="1" my_fill="rgb(255, 255, 255)" my_fill_opacity="1" my_font_size="16px" opacity="1"/><path d="M 215.5067 430.9179 L 253.8 430.9179 L 253.8 387.8922 L 215.5067 387.8922 Z M 234.6533 455.1981 L 234.6533 430.9179 M 234.6533 356.231 L 234.6533 387.8922 M 215.5067 455.1981 L 253.8 455.1981 M 215.5067 356.231 L 253.8 356.231 M 215.5067 403.9511 L 253.8 403.9511" fill="rgb(255, 255, 255)" fill-opacity="1" stroke="#fac858" stroke-width="1" paint-order="fill" stroke-opacity="1" stroke-dasharray="" stroke-linecap="butt" stroke-miterlimit="10" transform_matrix="{&quot;a&quot;:1,&quot;b&quot;:0,&quot;c&quot;:0,&quot;d&quot;:1,&quot;e&quot;:0,&quot;f&quot;:0}" my_stoke="rgb(250, 200, 88)" my_stoke_width="1px" my_stoke_opacity="1" my_fill="rgb(255, 255, 255)" my_fill_opacity="1" my_font_size="16px" opacity="1"/><path d="M 397.5067 427.0204 L 435.8 427.0204 L 435.8 382.3359 L 397.5067 382.3359 Z M 416.6533 455.405 L 416.6533 427.0204 M 416.6533 356.0187 L 416.6533 382.3359 M 397.5067 455.405 L 435.8 455.405 M 397.5067 356.0187 L 435.8 356.0187 M 397.5067 406.6076 L 435.8 406.6076" fill="rgb(255, 255, 255)" fill-opacity="1" stroke="#fac858" stroke-width="1" paint-order="fill" stroke-opacity="1" stroke-dasharray="" stroke-linecap="butt" stroke-miterlimit="10" transform_matrix="{&quot;a&quot;:1,&quot;b&quot;:0,&quot;c&quot;:0,&quot;d&quot;:1,&quot;e&quot;:0,&quot;f&quot;:0}" my_stoke="rgb(250, 200, 88)" my_stoke_width="1px" my_stoke_opacity="1" my_fill="rgb(255, 255, 255)" my_fill_opacity="1" my_font_size="16px" opacity="1"/><path d="M 579.5067 423.9582 L 617.8 423.9582 L 617.8 372.5341 L 579.5067 372.5341 Z M 598.6533 455.8048 L 598.6533 423.9582 M 598.6533 356.4687 L 598.6533 372.5341 M 579.5067 455.8048 L 617.8 455.8048 M 579.5067 356.4687 L 617.8 356.4687 M 579.5067 396.1577 L 617.8 396.1577" fill="rgb(255, 255, 255)" fill-opacity="1" stroke="#fac858" stroke-width="1" paint-order="fill" stroke-opacity="1" stroke-dasharray="" stroke-linecap="butt" stroke-miterlimit="10" transform_matrix="{&quot;a&quot;:1,&quot;b&quot;:0,&quot;c&quot;:0,&quot;d&quot;:1,&quot;e&quot;:0,&quot;f&quot;:0}" my_stoke="rgb(250, 200, 88)" my_stoke_width="1px" my_stoke_opacity="1" my_fill="rgb(255, 255, 255)" my_fill_opacity="1" my_font_size="16px" opacity="1"/><path d="M 761.5067 425.8355 L 799.8 425.8355 L 799.8 387.0635 L 761.5067 387.0635 Z M 780.6533 453.9137 L 780.6533 425.8355 M 780.6533 358.8326 L 780.6533 387.0635 M 761.5067 453.9137 L 799.8 453.9137 M 761.5067 358.8326 L 799.8 358.8326 M 761.5067 405.7668 L 799.8 405.7668" fill="rgb(255, 255, 255)" fill-opacity="1" stroke="#fac858" stroke-width="1" paint-order="fill" stroke-opacity="1" stroke-dasharray="" stroke-linecap="butt" stroke-miterlimit="10" transform_matrix="{&quot;a&quot;:1,&quot;b&quot;:0,&quot;c&quot;:0,&quot;d&quot;:1,&quot;e&quot;:0,&quot;f&quot;:0}" my_stoke="rgb(250, 200, 88)" my_stoke_width="1px" my_stoke_opacity="1" my_fill="rgb(255, 255, 255)" my_fill_opacity="1" my_font_size="16px" opacity="1"/><path d="M 0 0 L 728 0 L 728 30 L 0 30 L 0 0 Z" fill="rgb(47, 69, 84)" fill-opacity="0" stroke="none" transform="matrix(1,0,0,-1,93.8,732.2)" transform_matrix="{&quot;a&quot;:1,&quot;b&quot;:0,&quot;c&quot;:0,&quot;d&quot;:-1,&quot;e&quot;:93.80000305175781,&quot;f&quot;:732.2000122070312}" my_stoke="none" my_stoke_width="1px" my_stoke_opacity="1" my_fill="rgb(47, 69, 84)" my_fill_opacity="0" my_font_size="16px" opacity="1"/><path d="M -5 -5 L 289.6152 -5 L 289.6152 21 L -5 21 L -5 -5 Z" fill="rgb(0, 0, 0)" fill-opacity="0" stroke="#ccc" stroke-width="0" paint-order="fill" stroke-opacity="1" stroke-dasharray="" stroke-linecap="butt" stroke-miterlimit="10" transform="matrix(1,0,0,1,312.6924,82.3)" transform_matrix="{&quot;a&quot;:1,&quot;b&quot;:0,&quot;c&quot;:0,&quot;d&quot;:1,&quot;e&quot;:312.6924133300781,&quot;f&quot;:82.30000305175781}" my_stoke="rgb(204, 204, 204)" my_stoke_width="0px" my_stoke_opacity="1" my_fill="rgb(0, 0, 0)" my_fill_opacity="0" my_font_size="16px" opacity="1"/><path d="M 3.5 0 L 21.5 0 A 3.5 3.5 0 0 1 25 3.5 L 25 10.5 A 3.5 3.5 0 0 1 21.5 14 L 3.5 14 A 3.5 3.5 0 0 1 0 10.5 L 0 3.5 A 3.5 3.5 0 0 1 3.5 0" fill="rgb(84, 112, 198)" fill-opacity="1" stroke="#5470c6" stroke-width="2" paint-order="fill" stroke-opacity="1" stroke-dasharray="" transform="matrix(1,0,0,1,313.6924,83.3)" transform_matrix="{&quot;a&quot;:1,&quot;b&quot;:0,&quot;c&quot;:0,&quot;d&quot;:1,&quot;e&quot;:313.6924133300781,&quot;f&quot;:83.30000305175781}" my_stoke="rgb(84, 112, 198)" my_stoke_width="2px" my_stoke_opacity="1" my_fill="rgb(84, 112, 198)" my_fill_opacity="1" my_font_size="16px" opacity="1"/><text xml:space="preserve" fill="rgb(51, 51, 51)" fill-opacity="1" stroke="none" transform="matrix(1,0,0,1,313.6924,83.3)" dominant-baseline="central" text-anchor="start" x="30" y="7" style="font: 12px &quot;Microsoft YaHei&quot;; fill: rgb(51, 51, 51);" transform_matrix="{&quot;a&quot;:1,&quot;b&quot;:0,&quot;c&quot;:0,&quot;d&quot;:1,&quot;e&quot;:313.6924133300781,&quot;f&quot;:83.30000305175781}" text_bbox="{&quot;x&quot;:30,&quot;y&quot;:-1,&quot;w&quot;:57.21875,&quot;h&quot;:16}" opacity="1" stroke-width="1px" stroke-opacity="1" font-family="&quot;Microsoft YaHei&quot;" my_stoke="none" my_stoke_width="1px" my_stoke_opacity="1" my_fill="rgb(51, 51, 51)" my_fill_opacity="1" my_font_size="12px" clip-path="none" content="category0">category0</text><path d="M 3.5 0 L 21.5 0 A 3.5 3.5 0 0 1 25 3.5 L 25 10.5 A 3.5 3.5 0 0 1 21.5 14 L 3.5 14 A 3.5 3.5 0 0 1 0 10.5 L 0 3.5 A 3.5 3.5 0 0 1 3.5 0" fill="rgb(145, 204, 117)" fill-opacity="1" stroke="#91cc75" stroke-width="2" paint-order="fill" stroke-opacity="1" stroke-dasharray="" transform="matrix(1,0,0,1,411.8975,83.3)" transform_matrix="{&quot;a&quot;:1,&quot;b&quot;:0,&quot;c&quot;:0,&quot;d&quot;:1,&quot;e&quot;:411.8974914550781,&quot;f&quot;:83.30000305175781}" my_stoke="rgb(145, 204, 117)" my_stoke_width="2px" my_stoke_opacity="1" my_fill="rgb(145, 204, 117)" my_fill_opacity="1" my_font_size="16px" opacity="1"/><text xml:space="preserve" fill="rgb(51, 51, 51)" fill-opacity="1" stroke="none" transform="matrix(1,0,0,1,411.8975,83.3)" dominant-baseline="central" text-anchor="start" x="30" y="7" style="font: 12px &quot;Microsoft YaHei&quot;; fill: rgb(51, 51, 51);" transform_matrix="{&quot;a&quot;:1,&quot;b&quot;:0,&quot;c&quot;:0,&quot;d&quot;:1,&quot;e&quot;:411.8974914550781,&quot;f&quot;:83.30000305175781}" text_bbox="{&quot;x&quot;:30,&quot;y&quot;:-1,&quot;w&quot;:57.21875,&quot;h&quot;:16}" opacity="1" stroke-width="1px" stroke-opacity="1" font-family="&quot;Microsoft YaHei&quot;" my_stoke="none" my_stoke_width="1px" my_stoke_opacity="1" my_fill="rgb(51, 51, 51)" my_fill_opacity="1" my_font_size="12px" clip-path="none" content="category1">category1</text><path d="M 3.5 0 L 21.5 0 A 3.5 3.5 0 0 1 25 3.5 L 25 10.5 A 3.5 3.5 0 0 1 21.5 14 L 3.5 14 A 3.5 3.5 0 0 1 0 10.5 L 0 3.5 A 3.5 3.5 0 0 1 3.5 0" fill="rgb(250, 200, 88)" fill-opacity="1" stroke="#fac858" stroke-width="2" paint-order="fill" stroke-opacity="1" stroke-dasharray="" transform="matrix(1,0,0,1,510.1025,83.3)" transform_matrix="{&quot;a&quot;:1,&quot;b&quot;:0,&quot;c&quot;:0,&quot;d&quot;:1,&quot;e&quot;:510.1025085449219,&quot;f&quot;:83.30000305175781}" my_stoke="rgb(250, 200, 88)" my_stoke_width="2px" my_stoke_opacity="1" my_fill="rgb(250, 200, 88)" my_fill_opacity="1" my_font_size="16px" opacity="1"/><text xml:space="preserve" fill="rgb(51, 51, 51)" fill-opacity="1" stroke="none" transform="matrix(1,0,0,1,510.1025,83.3)" dominant-baseline="central" text-anchor="start" x="30" y="7" style="font: 12px &quot;Microsoft YaHei&quot;; fill: rgb(51, 51, 51);" transform_matrix="{&quot;a&quot;:1,&quot;b&quot;:0,&quot;c&quot;:0,&quot;d&quot;:1,&quot;e&quot;:510.1025085449219,&quot;f&quot;:83.30000305175781}" text_bbox="{&quot;x&quot;:30,&quot;y&quot;:-1,&quot;w&quot;:57.21875,&quot;h&quot;:16}" opacity="1" stroke-width="1px" stroke-opacity="1" font-family="&quot;Microsoft YaHei&quot;" my_stoke="none" my_stoke_width="1px" my_stoke_opacity="1" my_fill="rgb(51, 51, 51)" my_fill_opacity="1" my_font_size="12px" clip-path="none" content="category2">category2</text><path d="M 0 0 L 728 0 L 728 30 L 0 30 L 0 0 Z" fill="none" fill-opacity="1" stroke="none" transform="matrix(1,0,0,-1,93.8,732.2)" transform_matrix="{&quot;a&quot;:1,&quot;b&quot;:0,&quot;c&quot;:0,&quot;d&quot;:-1,&quot;e&quot;:93.80000305175781,&quot;f&quot;:732.2000122070312}" my_stoke="none" my_stoke_width="1px" my_stoke_opacity="1" my_fill="none" my_fill_opacity="1" my_font_size="16px" opacity="1"/><path d="M 0 0 L 145.6 0 L 145.6 30 L 0 30 L 0 0 Z" fill="rgb(135, 175, 255)" fill-opacity="0.2" stroke="none" transform="matrix(1,0,0,-1,93.8,732.2)" transform_matrix="{&quot;a&quot;:1,&quot;b&quot;:0,&quot;c&quot;:0,&quot;d&quot;:-1,&quot;e&quot;:93.80000305175781,&quot;f&quot;:732.2000122070312}" my_stoke="none" my_stoke_width="1px" my_stoke_opacity="1" my_fill="rgb(135, 175, 255)" my_fill_opacity="0.2" my_font_size="16px" opacity="1"/><path d="M 3.5 0.5 L 724.5 0.5 A 3 3 0 0 1 727.5 3.5 L 727.5 26.5 A 3 3 0 0 1 724.5 29.5 L 3.5 29.5 A 3 3 0 0 1 0.5 26.5 L 0.5 3.5 A 3 3 0 0 1 3.5 0.5" fill="rgb(0, 0, 0)" fill-opacity="0" stroke="#d2dbee" stroke-width="1" paint-order="fill" stroke-opacity="1" stroke-dasharray="" stroke-linecap="butt" stroke-miterlimit="10" transform="matrix(1,0,0,-1,93.8,732.2)" transform_matrix="{&quot;a&quot;:1,&quot;b&quot;:0,&quot;c&quot;:0,&quot;d&quot;:-1,&quot;e&quot;:93.80000305175781,&quot;f&quot;:732.2000122070312}" my_stoke="rgb(210, 219, 238)" my_stoke_width="1px" my_stoke_opacity="1" my_fill="rgb(0, 0, 0)" my_fill_opacity="0" my_font_size="16px" opacity="1"/><path d="M 0 29.5 L 145.6 29.5 L 145.6 34.5 A 2 2 0 0 1 143.6 36.5 L 2 36.5 A 2 2 0 0 1 0 34.5 L 0 29.5" fill="rgb(210, 219, 238)" fill-opacity="0.7" stroke="none" transform="matrix(1,0,0,-1,93.8,732.2)" transform_matrix="{&quot;a&quot;:1,&quot;b&quot;:0,&quot;c&quot;:0,&quot;d&quot;:-1,&quot;e&quot;:93.80000305175781,&quot;f&quot;:732.2000122070312}" my_stoke="none" my_stoke_width="1px" my_stoke_opacity="1" my_fill="rgb(210, 219, 238)" my_fill_opacity="0.7" my_font_size="16px" opacity="1"/><path d="M -2.2408 -1.6796 C -1.8674 -1.6796 -1.6817 -1.4939 -1.6817 -1.1204 L -1.6817 1.1204 C -1.6817 1.4939 -1.8674 1.6796 -2.2408 1.6796 C -2.6143 1.6796 -2.8 1.4939 -2.8 1.1204 L -2.8 -1.1204 C -2.8 -1.4939 -2.6143 -1.6796 -2.2408 -1.6796 Z M 0 -1.6796 C 0.3735 -1.6796 0.5592 -1.4939 0.5592 -1.1204 L 0.5592 1.1204 C 0.5592 1.4939 0.3735 1.6796 0 1.6796 C -0.3735 1.6796 -0.5592 1.4939 -0.5592 1.1204 L -0.5592 -1.1204 C -0.5592 -1.4939 -0.3735 -1.6796 0 -1.6796 Z M 2.2408 -1.6796 C 2.6143 -1.6796 2.8 -1.4939 2.8 -1.1204 L 2.8 1.1204 C 2.8 1.4939 2.6143 1.6796 2.2408 1.6796 C 1.8674 1.6796 1.6817 1.4939 1.6817 1.1204 L 1.6817 -1.1204 C 1.6796 -1.4939 1.8674 -1.6796 2.2408 -1.6796 Z" fill="rgb(255, 255, 255)" fill-opacity="1" stroke="none" transform="matrix(1,0,0,-1,166.6,699.2)" transform_matrix="{&quot;a&quot;:1,&quot;b&quot;:0,&quot;c&quot;:0,&quot;d&quot;:-1,&quot;e&quot;:166.60000610351562,&quot;f&quot;:699.2000122070312}" my_stoke="none" my_stoke_width="1px" my_stoke_opacity="1" my_fill="rgb(255, 255, 255)" my_fill_opacity="1" my_font_size="16px" opacity="1"/><path d="M 0 1.628 L 0 2 M 0 0 L 0 0.375 M -0.1 0.375 L 0.1 0.375 A 0.1 0.1 0 0 1 0.2 0.475 L 0.2 1.525 A 0.1 0.1 0 0 1 0.1 1.625 L -0.1 1.625 A 0.1 0.1 0 0 1 -0.2 1.525 L -0.2 0.475 A 0.1 0.1 0 0 1 -0.1 0.375 Z" fill="rgb(255, 255, 255)" fill-opacity="1" stroke="#ACB8D1" stroke-width="0.06666666666666667" paint-order="fill" stroke-opacity="1" stroke-dasharray="" stroke-linecap="butt" stroke-miterlimit="10" transform="matrix(15,0,0,-15,94.8,732.2)" transform_matrix="{&quot;a&quot;:15,&quot;b&quot;:0,&quot;c&quot;:0,&quot;d&quot;:-15,&quot;e&quot;:94.80000305175781,&quot;f&quot;:732.2000122070312}" my_stoke="rgb(172, 184, 209)" my_stoke_width="0.0666667px" my_stoke_opacity="1" my_fill="rgb(255, 255, 255)" my_fill_opacity="1" my_font_size="16px" opacity="1"/><path d="M 0 1.628 L 0 2 M 0 0 L 0 0.375 M -0.1 0.375 L 0.1 0.375 A 0.1 0.1 0 0 1 0.2 0.475 L 0.2 1.525 A 0.1 0.1 0 0 1 0.1 1.625 L -0.1 1.625 A 0.1 0.1 0 0 1 -0.2 1.525 L -0.2 0.475 A 0.1 0.1 0 0 1 -0.1 0.375 Z" fill="rgb(255, 255, 255)" fill-opacity="1" stroke="#ACB8D1" stroke-width="0.06666666666666667" paint-order="fill" stroke-opacity="1" stroke-dasharray="" stroke-linecap="butt" stroke-miterlimit="10" transform="matrix(15,0,0,-15,238.4,732.2)" transform_matrix="{&quot;a&quot;:15,&quot;b&quot;:0,&quot;c&quot;:0,&quot;d&quot;:-15,&quot;e&quot;:238.39999389648438,&quot;f&quot;:732.2000122070312}" my_stoke="rgb(172, 184, 209)" my_stoke_width="0.0666667px" my_stoke_opacity="1" my_fill="rgb(255, 255, 255)" my_fill_opacity="1" my_font_size="16px" opacity="1"/><path d="M -93.9937 -5 L 93.9937 -5 L 93.9937 23 L -93.9937 23 L -93.9937 -5 Z" fill="rgb(0, 0, 0)" fill-opacity="0" stroke="#ccc" stroke-width="0" paint-order="fill" stroke-opacity="1" stroke-dasharray="" stroke-linecap="butt" stroke-miterlimit="10" transform="matrix(1,0,0,1,455,5)" transform_matrix="{&quot;a&quot;:1,&quot;b&quot;:0,&quot;c&quot;:0,&quot;d&quot;:1,&quot;e&quot;:455,&quot;f&quot;:5}" my_stoke="rgb(204, 204, 204)" my_stoke_width="0px" my_stoke_opacity="1" my_fill="rgb(0, 0, 0)" my_fill_opacity="0" my_font_size="16px" opacity="1"/><text xml:space="preserve" fill="rgb(70, 70, 70)" fill-opacity="1" stroke="none" transform="matrix(1,0,0,1,455,5)" dominant-baseline="central" text-anchor="middle" x="0" y="9" style="font: bold 18px &quot;Microsoft YaHei&quot;; fill: rgb(70, 70, 70);" transform_matrix="{&quot;a&quot;:1,&quot;b&quot;:0,&quot;c&quot;:0,&quot;d&quot;:1,&quot;e&quot;:455,&quot;f&quot;:5}" text_bbox="{&quot;x&quot;:-89,&quot;y&quot;:-3,&quot;w&quot;:178.109375,&quot;h&quot;:24}" opacity="1" stroke-width="1px" stroke-opacity="1" font-family="&quot;Microsoft YaHei&quot;" my_stoke="none" my_stoke_width="1px" my_stoke_opacity="1" my_fill="rgb(70, 70, 70)" my_fill_opacity="1" my_font_size="18px" clip-path="none" content="Multiple Categories">Multiple Categories</text></g></svg>