<svg xmlns="http://www.w3.org/2000/svg" xmlns:xlink="http://www.w3.org/1999/xlink" version="1.1" baseProfile="full" width="910" height="773" style="user-select: none; position: absolute; left: 0px; top: 0px;" transform_matrix="{&quot;a&quot;:1,&quot;b&quot;:0,&quot;c&quot;:0,&quot;d&quot;:1,&quot;e&quot;:0,&quot;f&quot;:0}"><g><defs/><path d="M 69.9875 730.5 L 873.6 730.5" fill="none" stroke="#E0E6F1" stroke-width="1" paint-order="fill" stroke-opacity="1" stroke-dasharray="" stroke-linecap="butt" stroke-miterlimit="10" transform_matrix="{&quot;a&quot;:1,&quot;b&quot;:0,&quot;c&quot;:0,&quot;d&quot;:1,&quot;e&quot;:0,&quot;f&quot;:0}" my_stoke="rgb(224, 230, 241)" my_stoke_width="1px" my_stoke_opacity="1" my_fill="none" my_fill_opacity="1" my_font_size="16px" opacity="1"/><path d="M 69.9875 562.5 L 873.6 562.5" fill="none" stroke="#E0E6F1" stroke-width="1" paint-order="fill" stroke-opacity="1" stroke-dasharray="" stroke-linecap="butt" stroke-miterlimit="10" transform_matrix="{&quot;a&quot;:1,&quot;b&quot;:0,&quot;c&quot;:0,&quot;d&quot;:1,&quot;e&quot;:0,&quot;f&quot;:0}" my_stoke="rgb(224, 230, 241)" my_stoke_width="1px" my_stoke_opacity="1" my_fill="none" my_fill_opacity="1" my_font_size="16px" opacity="1"/><path d="M 69.9875 395.5 L 873.6 395.5" fill="none" stroke="#E0E6F1" stroke-width="1" paint-order="fill" stroke-opacity="1" stroke-dasharray="" stroke-linecap="butt" stroke-miterlimit="10" transform_matrix="{&quot;a&quot;:1,&quot;b&quot;:0,&quot;c&quot;:0,&quot;d&quot;:1,&quot;e&quot;:0,&quot;f&quot;:0}" my_stoke="rgb(224, 230, 241)" my_stoke_width="1px" my_stoke_opacity="1" my_fill="none" my_fill_opacity="1" my_font_size="16px" opacity="1"/><path d="M 69.9875 227.5 L 873.6 227.5" fill="none" stroke="#E0E6F1" stroke-width="1" paint-order="fill" stroke-opacity="1" stroke-dasharray="" stroke-linecap="butt" stroke-miterlimit="10" transform_matrix="{&quot;a&quot;:1,&quot;b&quot;:0,&quot;c&quot;:0,&quot;d&quot;:1,&quot;e&quot;:0,&quot;f&quot;:0}" my_stoke="rgb(224, 230, 241)" my_stoke_width="1px" my_stoke_opacity="1" my_fill="none" my_fill_opacity="1" my_font_size="16px" opacity="1"/><path d="M 69.9875 60.5 L 873.6 60.5" fill="none" stroke="#E0E6F1" stroke-width="1" paint-order="fill" stroke-opacity="1" stroke-dasharray="" stroke-linecap="butt" stroke-miterlimit="10" transform_matrix="{&quot;a&quot;:1,&quot;b&quot;:0,&quot;c&quot;:0,&quot;d&quot;:1,&quot;e&quot;:0,&quot;f&quot;:0}" my_stoke="rgb(224, 230, 241)" my_stoke_width="1px" my_stoke_opacity="1" my_fill="none" my_fill_opacity="1" my_font_size="16px" opacity="1"/><path d="M 69.9875 730.5 L 873.6 730.5" fill="none" stroke="#6E7079" stroke-width="1" paint-order="fill" stroke-opacity="1" stroke-dasharray="" stroke-linecap="round" stroke-miterlimit="10" transform_matrix="{&quot;a&quot;:1,&quot;b&quot;:0,&quot;c&quot;:0,&quot;d&quot;:1,&quot;e&quot;:0,&quot;f&quot;:0}" my_stoke="rgb(110, 112, 121)" my_stoke_width="1px" my_stoke_opacity="1" my_fill="none" my_fill_opacity="1" my_font_size="16px" opacity="1"/><path d="M 70.5 729.81 L 70.5 734.81" fill="none" stroke="#6E7079" stroke-width="1" paint-order="fill" stroke-opacity="1" stroke-dasharray="" stroke-linecap="butt" stroke-miterlimit="10" transform_matrix="{&quot;a&quot;:1,&quot;b&quot;:0,&quot;c&quot;:0,&quot;d&quot;:1,&quot;e&quot;:0,&quot;f&quot;:0}" my_stoke="rgb(110, 112, 121)" my_stoke_width="1px" my_stoke_opacity="1" my_fill="none" my_fill_opacity="1" my_font_size="16px" opacity="1"/><path d="M 159.5 729.81 L 159.5 734.81" fill="none" stroke="#6E7079" stroke-width="1" paint-order="fill" stroke-opacity="1" stroke-dasharray="" stroke-linecap="butt" stroke-miterlimit="10" transform_matrix="{&quot;a&quot;:1,&quot;b&quot;:0,&quot;c&quot;:0,&quot;d&quot;:1,&quot;e&quot;:0,&quot;f&quot;:0}" my_stoke="rgb(110, 112, 121)" my_stoke_width="1px" my_stoke_opacity="1" my_fill="none" my_fill_opacity="1" my_font_size="16px" opacity="1"/><path d="M 248.5 729.81 L 248.5 734.81" fill="none" stroke="#6E7079" stroke-width="1" paint-order="fill" stroke-opacity="1" stroke-dasharray="" stroke-linecap="butt" stroke-miterlimit="10" transform_matrix="{&quot;a&quot;:1,&quot;b&quot;:0,&quot;c&quot;:0,&quot;d&quot;:1,&quot;e&quot;:0,&quot;f&quot;:0}" my_stoke="rgb(110, 112, 121)" my_stoke_width="1px" my_stoke_opacity="1" my_fill="none" my_fill_opacity="1" my_font_size="16px" opacity="1"/><path d="M 338.5 729.81 L 338.5 734.81" fill="none" stroke="#6E7079" stroke-width="1" paint-order="fill" stroke-opacity="1" stroke-dasharray="" stroke-linecap="butt" stroke-miterlimit="10" transform_matrix="{&quot;a&quot;:1,&quot;b&quot;:0,&quot;c&quot;:0,&quot;d&quot;:1,&quot;e&quot;:0,&quot;f&quot;:0}" my_stoke="rgb(110, 112, 121)" my_stoke_width="1px" my_stoke_opacity="1" my_fill="none" my_fill_opacity="1" my_font_size="16px" opacity="1"/><path d="M 427.5 729.81 L 427.5 734.81" fill="none" stroke="#6E7079" stroke-width="1" paint-order="fill" stroke-opacity="1" stroke-dasharray="" stroke-linecap="butt" stroke-miterlimit="10" transform_matrix="{&quot;a&quot;:1,&quot;b&quot;:0,&quot;c&quot;:0,&quot;d&quot;:1,&quot;e&quot;:0,&quot;f&quot;:0}" my_stoke="rgb(110, 112, 121)" my_stoke_width="1px" my_stoke_opacity="1" my_fill="none" my_fill_opacity="1" my_font_size="16px" opacity="1"/><path d="M 516.5 729.81 L 516.5 734.81" fill="none" stroke="#6E7079" stroke-width="1" paint-order="fill" stroke-opacity="1" stroke-dasharray="" stroke-linecap="butt" stroke-miterlimit="10" transform_matrix="{&quot;a&quot;:1,&quot;b&quot;:0,&quot;c&quot;:0,&quot;d&quot;:1,&quot;e&quot;:0,&quot;f&quot;:0}" my_stoke="rgb(110, 112, 121)" my_stoke_width="1px" my_stoke_opacity="1" my_fill="none" my_fill_opacity="1" my_font_size="16px" opacity="1"/><path d="M 605.5 729.81 L 605.5 734.81" fill="none" stroke="#6E7079" stroke-width="1" paint-order="fill" stroke-opacity="1" stroke-dasharray="" stroke-linecap="butt" stroke-miterlimit="10" transform_matrix="{&quot;a&quot;:1,&quot;b&quot;:0,&quot;c&quot;:0,&quot;d&quot;:1,&quot;e&quot;:0,&quot;f&quot;:0}" my_stoke="rgb(110, 112, 121)" my_stoke_width="1px" my_stoke_opacity="1" my_fill="none" my_fill_opacity="1" my_font_size="16px" opacity="1"/><path d="M 695.5 729.81 L 695.5 734.81" fill="none" stroke="#6E7079" stroke-width="1" paint-order="fill" stroke-opacity="1" stroke-dasharray="" stroke-linecap="butt" stroke-miterlimit="10" transform_matrix="{&quot;a&quot;:1,&quot;b&quot;:0,&quot;c&quot;:0,&quot;d&quot;:1,&quot;e&quot;:0,&quot;f&quot;:0}" my_stoke="rgb(110, 112, 121)" my_stoke_width="1px" my_stoke_opacity="1" my_fill="none" my_fill_opacity="1" my_font_size="16px" opacity="1"/><path d="M 784.5 729.81 L 784.5 734.81" fill="none" stroke="#6E7079" stroke-width="1" paint-order="fill" stroke-opacity="1" stroke-dasharray="" stroke-linecap="butt" stroke-miterlimit="10" transform_matrix="{&quot;a&quot;:1,&quot;b&quot;:0,&quot;c&quot;:0,&quot;d&quot;:1,&quot;e&quot;:0,&quot;f&quot;:0}" my_stoke="rgb(110, 112, 121)" my_stoke_width="1px" my_stoke_opacity="1" my_fill="none" my_fill_opacity="1" my_font_size="16px" opacity="1"/><path d="M 873.5 729.81 L 873.5 734.81" fill="none" stroke="#6E7079" stroke-width="1" paint-order="fill" stroke-opacity="1" stroke-dasharray="" stroke-linecap="butt" stroke-miterlimit="10" transform_matrix="{&quot;a&quot;:1,&quot;b&quot;:0,&quot;c&quot;:0,&quot;d&quot;:1,&quot;e&quot;:0,&quot;f&quot;:0}" my_stoke="rgb(110, 112, 121)" my_stoke_width="1px" my_stoke_opacity="1" my_fill="none" my_fill_opacity="1" my_font_size="16px" opacity="1"/><text xml:space="preserve" fill="rgb(110, 112, 121)" fill-opacity="1" stroke="none" transform="matrix(1,0,0,1,61.9875,729.81)" dominant-baseline="central" text-anchor="end" x="0" y="0" style="font: 12px &quot;Microsoft YaHei&quot;; fill: rgb(110, 112, 121);" transform_matrix="{&quot;a&quot;:1,&quot;b&quot;:0,&quot;c&quot;:0,&quot;d&quot;:1,&quot;e&quot;:61.98749923706055,&quot;f&quot;:729.8099975585938}" text_bbox="{&quot;x&quot;:-36.984375,&quot;y&quot;:-8,&quot;w&quot;:37.3125,&quot;h&quot;:16}" opacity="1" stroke-width="1px" stroke-opacity="1" font-family="&quot;Microsoft YaHei&quot;" my_stoke="none" my_stoke_width="1px" my_stoke_opacity="1" my_fill="rgb(110, 112, 121)" my_fill_opacity="1" my_font_size="12px" clip-path="none" content="-300%">-300%</text><text xml:space="preserve" fill="rgb(110, 112, 121)" fill-opacity="1" stroke="none" transform="matrix(1,0,0,1,61.9875,562.3575)" dominant-baseline="central" text-anchor="end" x="0" y="0" style="font: 12px &quot;Microsoft YaHei&quot;; fill: rgb(110, 112, 121);" transform_matrix="{&quot;a&quot;:1,&quot;b&quot;:0,&quot;c&quot;:0,&quot;d&quot;:1,&quot;e&quot;:61.98749923706055,&quot;f&quot;:562.3574829101562}" text_bbox="{&quot;x&quot;:-36.984375,&quot;y&quot;:-8,&quot;w&quot;:37.3125,&quot;h&quot;:16}" opacity="1" stroke-width="1px" stroke-opacity="1" font-family="&quot;Microsoft YaHei&quot;" my_stoke="none" my_stoke_width="1px" my_stoke_opacity="1" my_fill="rgb(110, 112, 121)" my_fill_opacity="1" my_font_size="12px" clip-path="none" content="-200%">-200%</text><text xml:space="preserve" fill="rgb(110, 112, 121)" fill-opacity="1" stroke="none" transform="matrix(1,0,0,1,61.9875,394.905)" dominant-baseline="central" text-anchor="end" x="0" y="0" style="font: 12px &quot;Microsoft YaHei&quot;; fill: rgb(110, 112, 121);" transform_matrix="{&quot;a&quot;:1,&quot;b&quot;:0,&quot;c&quot;:0,&quot;d&quot;:1,&quot;e&quot;:61.98749923706055,&quot;f&quot;:394.9049987792969}" text_bbox="{&quot;x&quot;:-36.984375,&quot;y&quot;:-8,&quot;w&quot;:37.3125,&quot;h&quot;:16}" opacity="1" stroke-width="1px" stroke-opacity="1" font-family="&quot;Microsoft YaHei&quot;" my_stoke="none" my_stoke_width="1px" my_stoke_opacity="1" my_fill="rgb(110, 112, 121)" my_fill_opacity="1" my_font_size="12px" clip-path="none" content="-100%">-100%</text><text xml:space="preserve" fill="rgb(110, 112, 121)" fill-opacity="1" stroke="none" transform="matrix(1,0,0,1,61.9875,227.4525)" dominant-baseline="central" text-anchor="end" x="0" y="0" style="font: 12px &quot;Microsoft YaHei&quot;; fill: rgb(110, 112, 121);" transform_matrix="{&quot;a&quot;:1,&quot;b&quot;:0,&quot;c&quot;:0,&quot;d&quot;:1,&quot;e&quot;:61.98749923706055,&quot;f&quot;:227.45249938964844}" text_bbox="{&quot;x&quot;:-17.71875,&quot;y&quot;:-8,&quot;w&quot;:18.046875,&quot;h&quot;:16}" opacity="1" stroke-width="1px" stroke-opacity="1" font-family="&quot;Microsoft YaHei&quot;" my_stoke="none" my_stoke_width="1px" my_stoke_opacity="1" my_fill="rgb(110, 112, 121)" my_fill_opacity="1" my_font_size="12px" clip-path="none" content="0%">0%</text><text xml:space="preserve" fill="rgb(110, 112, 121)" fill-opacity="1" stroke="none" transform="matrix(1,0,0,1,61.9875,60)" dominant-baseline="central" text-anchor="end" x="0" y="0" style="font: 12px &quot;Microsoft YaHei&quot;; fill: rgb(110, 112, 121);" transform_matrix="{&quot;a&quot;:1,&quot;b&quot;:0,&quot;c&quot;:0,&quot;d&quot;:1,&quot;e&quot;:61.98749923706055,&quot;f&quot;:60}" text_bbox="{&quot;x&quot;:-31.796875,&quot;y&quot;:-8,&quot;w&quot;:32.125,&quot;h&quot;:16}" opacity="1" stroke-width="1px" stroke-opacity="1" font-family="&quot;Microsoft YaHei&quot;" my_stoke="none" my_stoke_width="1px" my_stoke_opacity="1" my_fill="rgb(110, 112, 121)" my_fill_opacity="1" my_font_size="12px" clip-path="none" content="100%">100%</text><text xml:space="preserve" fill="rgb(110, 112, 121)" fill-opacity="1" stroke="none" transform="matrix(1,0,0,1,69.9875,737.81)" dominant-baseline="central" text-anchor="middle" x="0" y="6" style="font: 12px &quot;Microsoft YaHei&quot;; fill: rgb(110, 112, 121);" transform_matrix="{&quot;a&quot;:1,&quot;b&quot;:0,&quot;c&quot;:0,&quot;d&quot;:1,&quot;e&quot;:69.98750305175781,&quot;f&quot;:737.8099975585938}" text_bbox="{&quot;x&quot;:-33.34375,&quot;y&quot;:-2,&quot;w&quot;:66.6875,&quot;h&quot;:16}" opacity="1" stroke-width="1px" stroke-opacity="1" font-family="&quot;Microsoft YaHei&quot;" my_stoke="none" my_stoke_width="1px" my_stoke_opacity="1" my_fill="rgb(110, 112, 121)" my_fill_opacity="1" my_font_size="12px" clip-path="none" content="2012-08-28">2012-08-28</text><text xml:space="preserve" fill="rgb(110, 112, 121)" fill-opacity="1" stroke="none" transform="matrix(1,0,0,1,159.2778,737.81)" dominant-baseline="central" text-anchor="middle" x="0" y="6" style="font: 12px &quot;Microsoft YaHei&quot;; fill: rgb(110, 112, 121);" transform_matrix="{&quot;a&quot;:1,&quot;b&quot;:0,&quot;c&quot;:0,&quot;d&quot;:1,&quot;e&quot;:159.27780151367188,&quot;f&quot;:737.8099975585938}" text_bbox="{&quot;x&quot;:-9.640625,&quot;y&quot;:-2,&quot;w&quot;:19.28125,&quot;h&quot;:16}" opacity="1" stroke-width="1px" stroke-opacity="1" font-family="&quot;Microsoft YaHei&quot;" my_stoke="none" my_stoke_width="1px" my_stoke_opacity="1" my_fill="rgb(110, 112, 121)" my_fill_opacity="1" my_font_size="12px" clip-path="none" content="9-7">9-7</text><text xml:space="preserve" fill="rgb(110, 112, 121)" fill-opacity="1" stroke="none" transform="matrix(1,0,0,1,248.5681,737.81)" dominant-baseline="central" text-anchor="middle" x="0" y="6" style="font: 12px &quot;Microsoft YaHei&quot;; fill: rgb(110, 112, 121);" transform_matrix="{&quot;a&quot;:1,&quot;b&quot;:0,&quot;c&quot;:0,&quot;d&quot;:1,&quot;e&quot;:248.56809997558594,&quot;f&quot;:737.8099975585938}" text_bbox="{&quot;x&quot;:-13.15625,&quot;y&quot;:-2,&quot;w&quot;:26.3125,&quot;h&quot;:16}" opacity="1" stroke-width="1px" stroke-opacity="1" font-family="&quot;Microsoft YaHei&quot;" my_stoke="none" my_stoke_width="1px" my_stoke_opacity="1" my_fill="rgb(110, 112, 121)" my_fill_opacity="1" my_font_size="12px" clip-path="none" content="9-17">9-17</text><text xml:space="preserve" fill="rgb(110, 112, 121)" fill-opacity="1" stroke="none" transform="matrix(1,0,0,1,337.8583,737.81)" dominant-baseline="central" text-anchor="middle" x="0" y="6" style="font: 12px &quot;Microsoft YaHei&quot;; fill: rgb(110, 112, 121);" transform_matrix="{&quot;a&quot;:1,&quot;b&quot;:0,&quot;c&quot;:0,&quot;d&quot;:1,&quot;e&quot;:337.8583068847656,&quot;f&quot;:737.8099975585938}" text_bbox="{&quot;x&quot;:-13.15625,&quot;y&quot;:-2,&quot;w&quot;:26.3125,&quot;h&quot;:16}" opacity="1" stroke-width="1px" stroke-opacity="1" font-family="&quot;Microsoft YaHei&quot;" my_stoke="none" my_stoke_width="1px" my_stoke_opacity="1" my_fill="rgb(110, 112, 121)" my_fill_opacity="1" my_font_size="12px" clip-path="none" content="9-27">9-27</text><text xml:space="preserve" fill="rgb(110, 112, 121)" fill-opacity="1" stroke="none" transform="matrix(1,0,0,1,427.1486,737.81)" dominant-baseline="central" text-anchor="middle" x="0" y="6" style="font: 12px &quot;Microsoft YaHei&quot;; fill: rgb(110, 112, 121);" transform_matrix="{&quot;a&quot;:1,&quot;b&quot;:0,&quot;c&quot;:0,&quot;d&quot;:1,&quot;e&quot;:427.1485900878906,&quot;f&quot;:737.8099975585938}" text_bbox="{&quot;x&quot;:-13.15625,&quot;y&quot;:-2,&quot;w&quot;:26.3125,&quot;h&quot;:16}" opacity="1" stroke-width="1px" stroke-opacity="1" font-family="&quot;Microsoft YaHei&quot;" my_stoke="none" my_stoke_width="1px" my_stoke_opacity="1" my_fill="rgb(110, 112, 121)" my_fill_opacity="1" my_font_size="12px" clip-path="none" content="10-7">10-7</text><text xml:space="preserve" fill="rgb(110, 112, 121)" fill-opacity="1" stroke="none" transform="matrix(1,0,0,1,516.4389,737.81)" dominant-baseline="central" text-anchor="middle" x="0" y="6" style="font: 12px &quot;Microsoft YaHei&quot;; fill: rgb(110, 112, 121);" transform_matrix="{&quot;a&quot;:1,&quot;b&quot;:0,&quot;c&quot;:0,&quot;d&quot;:1,&quot;e&quot;:516.4389038085938,&quot;f&quot;:737.8099975585938}" text_bbox="{&quot;x&quot;:-16.671875,&quot;y&quot;:-2,&quot;w&quot;:33.34375,&quot;h&quot;:16}" opacity="1" stroke-width="1px" stroke-opacity="1" font-family="&quot;Microsoft YaHei&quot;" my_stoke="none" my_stoke_width="1px" my_stoke_opacity="1" my_fill="rgb(110, 112, 121)" my_fill_opacity="1" my_font_size="12px" clip-path="none" content="10-17">10-17</text><text xml:space="preserve" fill="rgb(110, 112, 121)" fill-opacity="1" stroke="none" transform="matrix(1,0,0,1,605.7292,737.81)" dominant-baseline="central" text-anchor="middle" x="0" y="6" style="font: 12px &quot;Microsoft YaHei&quot;; fill: rgb(110, 112, 121);" transform_matrix="{&quot;a&quot;:1,&quot;b&quot;:0,&quot;c&quot;:0,&quot;d&quot;:1,&quot;e&quot;:605.7291870117188,&quot;f&quot;:737.8099975585938}" text_bbox="{&quot;x&quot;:-16.671875,&quot;y&quot;:-2,&quot;w&quot;:33.34375,&quot;h&quot;:16}" opacity="1" stroke-width="1px" stroke-opacity="1" font-family="&quot;Microsoft YaHei&quot;" my_stoke="none" my_stoke_width="1px" my_stoke_opacity="1" my_fill="rgb(110, 112, 121)" my_fill_opacity="1" my_font_size="12px" clip-path="none" content="10-27">10-27</text><text xml:space="preserve" fill="rgb(110, 112, 121)" fill-opacity="1" stroke="none" transform="matrix(1,0,0,1,695.0194,737.81)" dominant-baseline="central" text-anchor="middle" x="0" y="6" style="font: 12px &quot;Microsoft YaHei&quot;; fill: rgb(110, 112, 121);" transform_matrix="{&quot;a&quot;:1,&quot;b&quot;:0,&quot;c&quot;:0,&quot;d&quot;:1,&quot;e&quot;:695.0194091796875,&quot;f&quot;:737.8099975585938}" text_bbox="{&quot;x&quot;:-13.15625,&quot;y&quot;:-2,&quot;w&quot;:26.3125,&quot;h&quot;:16}" opacity="1" stroke-width="1px" stroke-opacity="1" font-family="&quot;Microsoft YaHei&quot;" my_stoke="none" my_stoke_width="1px" my_stoke_opacity="1" my_fill="rgb(110, 112, 121)" my_fill_opacity="1" my_font_size="12px" clip-path="none" content="11-6">11-6</text><text xml:space="preserve" fill="rgb(110, 112, 121)" fill-opacity="1" stroke="none" transform="matrix(1,0,0,1,784.3097,737.81)" dominant-baseline="central" text-anchor="middle" x="0" y="6" style="font: 12px &quot;Microsoft YaHei&quot;; fill: rgb(110, 112, 121);" transform_matrix="{&quot;a&quot;:1,&quot;b&quot;:0,&quot;c&quot;:0,&quot;d&quot;:1,&quot;e&quot;:784.3096923828125,&quot;f&quot;:737.8099975585938}" text_bbox="{&quot;x&quot;:-16.671875,&quot;y&quot;:-2,&quot;w&quot;:33.34375,&quot;h&quot;:16}" opacity="1" stroke-width="1px" stroke-opacity="1" font-family="&quot;Microsoft YaHei&quot;" my_stoke="none" my_stoke_width="1px" my_stoke_opacity="1" my_fill="rgb(110, 112, 121)" my_fill_opacity="1" my_font_size="12px" clip-path="none" content="11-16">11-16</text><text xml:space="preserve" fill="rgb(110, 112, 121)" fill-opacity="1" stroke="none" transform="matrix(1,0,0,1,873.6,737.81)" dominant-baseline="central" text-anchor="middle" x="0" y="6" style="font: 12px &quot;Microsoft YaHei&quot;; fill: rgb(110, 112, 121);" transform_matrix="{&quot;a&quot;:1,&quot;b&quot;:0,&quot;c&quot;:0,&quot;d&quot;:1,&quot;e&quot;:873.5999755859375,&quot;f&quot;:737.8099975585938}" text_bbox="{&quot;x&quot;:-16.671875,&quot;y&quot;:-2,&quot;w&quot;:33.34375,&quot;h&quot;:16}" opacity="1" stroke-width="1px" stroke-opacity="1" font-family="&quot;Microsoft YaHei&quot;" my_stoke="none" my_stoke_width="1px" my_stoke_opacity="1" my_fill="rgb(110, 112, 121)" my_fill_opacity="1" my_font_size="12px" clip-path="none" content="12-31">12-31</text><g clip-path="url(#zr2410-clip-0)"><path d="M 69.9875 178.0587 L 78.9165 205.2803 L 87.8456 211.4371 L 96.7746 215.4441 L 105.7036 217.5027 L 114.6326 220.4327 L 123.5617 217.0075 L 132.4907 222.2134 L 141.4197 222.3994 L 150.3488 227.9519 L 159.2778 221.1055 L 168.2068 223.4383 L 177.1358 223.1073 L 186.0649 226.1487 L 194.9939 225.1434 L 203.9229 218.8448 L 212.8519 224.0655 L 221.781 222.8742 L 230.71 224.6821 L 239.639 223.5599 L 248.5681 225.4974 L 257.4971 225.2803 L 266.4261 226.5085 L 275.3551 232.6716 L 284.2842 225.0892 L 293.2132 191.6058 L 302.1422 209.0113 L 311.0713 226.9054 L 320.0003 224.7021 L 328.9293 224.2153 L 337.8583 225.8711 L 346.7874 230.7445 L 355.7164 217.226 L 364.6454 221.656 L 373.5744 224.8922 L 382.5035 242.2933 L 391.4325 245.4061 L 400.3615 238.2333 L 409.2906 210.6929 L 418.2196 214.8743 L 427.1486 212.6923 L 436.0776 212.8526 L 445.0067 186.3412 L 453.9357 167.4377 L 462.8647 163.6169 L 471.7938 226.8272 L 480.7228 231.1999 L 489.6518 236.4077 L 498.5808 238.2866 L 507.5099 237.5426 L 516.4389 237.1334 L 525.3679 235.8586 L 534.2969 229.6651 L 543.226 223.5947 L 552.155 227.163 L 561.084 224.5508 L 570.0131 218.2772 L 578.9421 218.0659 L 587.8711 220.3271 L 596.8001 220.8066 L 605.7292 221.7583 L 614.6582 220.8504 L 623.5872 220.1059 L 632.5162 219.7497 L 641.4453 221.8458 L 650.3743 222.7594 L 659.3033 221.9806 L 668.2324 222.5141 L 677.1614 222.4802 L 686.0904 223.8676 L 695.0195 221.5053 L 703.9485 220.5903 L 712.8775 221.1917 L 721.8065 224.1885 L 730.7355 221.0331 L 739.6646 222.3269 L 748.5936 223.6468 L 757.5226 224.1613 L 766.4517 224.2402 L 775.3807 224.331 L 784.3097 221.2519 L 793.2388 224.1339 L 802.1678 219.7027 L 811.0968 225.5595 L 820.0258 219.9411 L 828.9548 219.8569 L 837.8839 218.1031 L 846.8129 218.2394 L 855.7419 217.8954 L 864.671 218.0504 L 873.6 168.853 L 873.6 201.702 L 864.671 242.643 L 855.7419 242.6092 L 846.8129 242.4339 L 837.8839 242.5225 L 828.9548 240.9718 L 820.0258 242.2157 L 811.0968 245.6449 L 802.1678 241.4398 L 793.2388 237.3696 L 784.3097 240.2979 L 775.3807 237.3176 L 766.4517 237.4611 L 757.5226 237.801 L 748.5936 238.466 L 739.6646 239.9351 L 730.7355 241.1762 L 721.8065 237.8972 L 712.8775 240.8934 L 703.9485 241.6211 L 695.0195 240.7343 L 686.0904 238.5627 L 677.1614 240.0219 L 668.2324 240.0803 L 659.3033 241.1908 L 650.3743 239.844 L 641.4453 240.9664 L 632.5162 243.1556 L 623.5872 242.9164 L 614.6582 242.3009 L 605.7292 241.5404 L 596.8001 242.6373 L 587.8711 243.2033 L 578.9421 245.8219 L 570.0131 245.4845 L 561.084 246.2122 L 552.155 245.4344 L 543.226 245.6989 L 534.2969 245.9371 L 525.3679 240.5638 L 516.4389 253.7262 L 507.5099 254.318 L 498.5808 253.5711 L 489.6518 246.9056 L 480.7228 241.9806 L 471.7938 237.9428 L 462.8647 193.0251 L 453.9357 201.4328 L 445.0067 216.7985 L 436.0776 254.0917 L 427.1486 254.5579 L 418.2196 252.6119 L 409.2906 257.0978 L 400.3615 256.4536 L 391.4325 258.9549 L 382.5035 256.2225 L 373.5744 239.2938 L 364.6454 236.8083 L 355.7164 233.4279 L 346.7874 247.0413 L 337.8583 242.7636 L 328.9293 241.5721 L 320.0003 242.6103 L 311.0713 245.4416 L 302.1422 228.5991 L 293.2132 221.8649 L 284.2842 245.828 L 275.3551 253.7622 L 266.4261 248.9447 L 257.4971 248.7067 L 248.5681 249.8865 L 239.639 249.0869 L 230.71 251.5431 L 221.781 251.069 L 212.8519 253.7424 L 203.9229 250.3282 L 194.9939 258.2179 L 186.0649 261.6471 L 177.1358 261.2859 L 168.2068 264.7337 L 159.2778 265.8903 L 150.3488 277.092 L 141.4197 276.8818 L 132.4907 283.3802 L 123.5617 286.797 L 114.6326 301.7056 L 105.7036 314.9076 L 96.7746 336.9971 L 87.8456 373.3408 L 78.9165 447.9366 L 69.9875 663.1192 Z" fill="rgb(204, 204, 204)" fill-opacity="0.7" stroke="none" transform_matrix="{&quot;a&quot;:1,&quot;b&quot;:0,&quot;c&quot;:0,&quot;d&quot;:1,&quot;e&quot;:0,&quot;f&quot;:0}" my_stoke="none" my_stoke_width="1px" my_stoke_opacity="1" my_fill="rgb(204, 204, 204)" my_fill_opacity="0.7" my_font_size="16px" opacity="1"/></g><g clip-path="url(#zr2410-clip-1)"><path d="M 69.9875 663.1192 L 78.9165 447.9366 L 87.8456 373.3408 L 96.7746 336.9971 L 105.7036 314.9076 L 114.6326 301.7056 L 123.5617 286.797 L 132.4907 283.3802 L 141.4197 276.8818 L 150.3488 277.092 L 159.2778 265.8903 L 168.2068 264.7337 L 177.1358 261.2859 L 186.0649 261.6471 L 194.9939 258.2179 L 203.9229 250.3282 L 212.8519 253.7424 L 221.781 251.069 L 230.71 251.5431 L 239.639 249.0869 L 248.5681 249.8865 L 257.4971 248.7067 L 266.4261 248.9447 L 275.3551 253.7622 L 284.2842 245.828 L 293.2132 221.8649 L 302.1422 228.5991 L 311.0713 245.4416 L 320.0003 242.6103 L 328.9293 241.5721 L 337.8583 242.7636 L 346.7874 247.0413 L 355.7164 233.4279 L 364.6454 236.8083 L 373.5744 239.2938 L 382.5035 256.2225 L 391.4325 258.9549 L 400.3615 256.4536 L 409.2906 257.0978 L 418.2196 252.6119 L 427.1486 254.5579 L 436.0776 254.0917 L 445.0067 216.7985 L 453.9357 201.4328 L 462.8647 193.0251 L 471.7938 237.9428 L 480.7228 241.9806 L 489.6518 246.9056 L 498.5808 253.5711 L 507.5099 254.318 L 516.4389 253.7262 L 525.3679 240.5638 L 534.2969 245.9371 L 543.226 245.6989 L 552.155 245.4344 L 561.084 246.2122 L 570.0131 245.4845 L 578.9421 245.8219 L 587.8711 243.2033 L 596.8001 242.6373 L 605.7292 241.5404 L 614.6582 242.3009 L 623.5872 242.9164 L 632.5162 243.1556 L 641.4453 240.9664 L 650.3743 239.844 L 659.3033 241.1908 L 668.2324 240.0803 L 677.1614 240.0219 L 686.0904 238.5627 L 695.0195 240.7343 L 703.9485 241.6211 L 712.8775 240.8934 L 721.8065 237.8972 L 730.7355 241.1762 L 739.6646 239.9351 L 748.5936 238.466 L 757.5226 237.801 L 766.4517 237.4611 L 775.3807 237.3176 L 784.3097 240.2979 L 793.2388 237.3696 L 802.1678 241.4398 L 811.0968 245.6449 L 820.0258 242.2157 L 828.9548 240.9718 L 837.8839 242.5225 L 846.8129 242.4339 L 855.7419 242.6092 L 864.671 242.643 L 873.6 201.702" fill="none" stroke="#5470c6" stroke-width="2" paint-order="fill" stroke-opacity="0" stroke-dasharray="" stroke-linecap="butt" stroke-linejoin="bevel" stroke-miterlimit="10" transform_matrix="{&quot;a&quot;:1,&quot;b&quot;:0,&quot;c&quot;:0,&quot;d&quot;:1,&quot;e&quot;:0,&quot;f&quot;:0}" my_stoke="rgb(84, 112, 198)" my_stoke_width="2px" my_stoke_opacity="0" my_fill="none" my_fill_opacity="1" my_font_size="16px" opacity="1"/></g><g clip-path="url(#zr2410-clip-0)"><path d="M 69.9875 178.0587 L 78.9165 205.2803 L 87.8456 211.4371 L 96.7746 215.4441 L 105.7036 217.5027 L 114.6326 220.4327 L 123.5617 217.0075 L 132.4907 222.2134 L 141.4197 222.3994 L 150.3488 227.9519 L 159.2778 221.1055 L 168.2068 223.4383 L 177.1358 223.1073 L 186.0649 226.1487 L 194.9939 225.1434 L 203.9229 218.8448 L 212.8519 224.0655 L 221.781 222.8742 L 230.71 224.6821 L 239.639 223.5599 L 248.5681 225.4974 L 257.4971 225.2803 L 266.4261 226.5085 L 275.3551 232.6716 L 284.2842 225.0892 L 293.2132 191.6058 L 302.1422 209.0113 L 311.0713 226.9054 L 320.0003 224.7021 L 328.9293 224.2153 L 337.8583 225.8711 L 346.7874 230.7445 L 355.7164 217.226 L 364.6454 221.656 L 373.5744 224.8922 L 382.5035 242.2933 L 391.4325 245.4061 L 400.3615 238.2333 L 409.2906 210.6929 L 418.2196 214.8743 L 427.1486 212.6923 L 436.0776 212.8526 L 445.0067 186.3412 L 453.9357 167.4377 L 462.8647 163.6169 L 471.7938 226.8272 L 480.7228 231.1999 L 489.6518 236.4077 L 498.5808 238.2866 L 507.5099 237.5426 L 516.4389 237.1334 L 525.3679 235.8586 L 534.2969 229.6651 L 543.226 223.5947 L 552.155 227.163 L 561.084 224.5508 L 570.0131 218.2772 L 578.9421 218.0659 L 587.8711 220.3271 L 596.8001 220.8066 L 605.7292 221.7583 L 614.6582 220.8504 L 623.5872 220.1059 L 632.5162 219.7497 L 641.4453 221.8458 L 650.3743 222.7594 L 659.3033 221.9806 L 668.2324 222.5141 L 677.1614 222.4802 L 686.0904 223.8676 L 695.0195 221.5053 L 703.9485 220.5903 L 712.8775 221.1917 L 721.8065 224.1885 L 730.7355 221.0331 L 739.6646 222.3269 L 748.5936 223.6468 L 757.5226 224.1613 L 766.4517 224.2402 L 775.3807 224.331 L 784.3097 221.2519 L 793.2388 224.1339 L 802.1678 219.7027 L 811.0968 225.5595 L 820.0258 219.9411 L 828.9548 219.8569 L 837.8839 218.1031 L 846.8129 218.2394 L 855.7419 217.8954 L 864.671 218.0504 L 873.6 168.853" fill="none" stroke="#91cc75" stroke-width="2" paint-order="fill" stroke-opacity="0" stroke-dasharray="" stroke-linecap="butt" stroke-linejoin="bevel" stroke-miterlimit="10" transform_matrix="{&quot;a&quot;:1,&quot;b&quot;:0,&quot;c&quot;:0,&quot;d&quot;:1,&quot;e&quot;:0,&quot;f&quot;:0}" my_stoke="rgb(145, 204, 117)" my_stoke_width="2px" my_stoke_opacity="0" my_fill="none" my_fill_opacity="1" my_font_size="16px" opacity="1"/></g><g clip-path="url(#zr2410-clip-2)"><path d="M 69.9875 422.006 L 78.9165 325.0479 L 87.8456 290.9299 L 96.7746 274.2207 L 105.7036 268.6653 L 114.6326 261.2336 L 123.5617 251.8583 L 132.4907 227.8897 L 141.4197 228.8037 L 150.3488 232.4173 L 159.2778 227.2319 L 168.2068 229.4226 L 177.1358 226.4579 L 186.0649 229.3877 L 194.9939 226.7629 L 203.9229 221.5321 L 212.8519 226.2796 L 221.781 227.5237 L 230.71 228.0463 L 239.639 226.1467 L 248.5681 227.0271 L 257.4971 228.3429 L 266.4261 228.7225 L 275.3551 234.0064 L 284.2842 226.1894 L 293.2132 196.469 L 302.1422 214.6207 L 311.0713 232.7154 L 320.0003 231.3476 L 328.9293 230.749 L 337.8583 232.6468 L 346.7874 240.1579 L 355.7164 223.5345 L 364.6454 225.5982 L 373.5744 227.8033 L 382.5035 245.5994 L 391.4325 245.8431 L 400.3615 242.0706 L 409.2906 240.2122 L 418.2196 234.4295 L 427.1486 234.3202 L 436.0776 231.0408 L 445.0067 186.7468 L 453.9357 169.2992 L 462.8647 171.1762 L 471.7938 235.2164 L 480.7228 241.9708 L 489.6518 249.0316 L 498.5808 252.1422 L 507.5099 252.6106 L 516.4389 247.6098 L 525.3679 238.3222 L 534.2969 230.0523 L 543.226 228.4658 L 552.155 227.3997 L 561.084 228.5078 L 570.0131 228.1717 L 578.9421 228.3467 L 587.8711 226.2794 L 596.8001 226.0773 L 605.7292 225.0843 L 614.6582 226.7557 L 623.5872 227.6805 L 632.5162 228.3257 L 641.4453 226.1312 L 650.3743 225.7847 L 659.3033 227.4333 L 668.2324 226.6559 L 677.1614 226.4135 L 686.0904 225.5229 L 695.0195 227.999 L 703.9485 229.2775 L 712.8775 229.0059 L 721.8065 225.8454 L 730.7355 229.3248 L 739.6646 227.8472 L 748.5936 226.0423 L 757.5226 225.6533 L 766.4517 225.8688 L 775.3807 226.9301 L 784.3097 229.3804 L 793.2388 226.4755 L 802.1678 231.3982 L 811.0968 235.4868 L 820.0258 231.106 L 828.9548 228.6475 L 837.8839 229.9972 L 846.8129 229.0899 L 855.7419 229.0547 L 864.671 228.0246 L 873.6 172.227" fill="none" stroke="#333" stroke-width="2" paint-order="fill" stroke-opacity="1" stroke-dasharray="" stroke-linecap="butt" stroke-linejoin="bevel" stroke-miterlimit="10" transform_matrix="{&quot;a&quot;:1,&quot;b&quot;:0,&quot;c&quot;:0,&quot;d&quot;:1,&quot;e&quot;:0,&quot;f&quot;:0}" my_stoke="rgb(51, 51, 51)" my_stoke_width="2px" my_stoke_opacity="1" my_fill="none" my_fill_opacity="1" my_font_size="16px" opacity="1"/></g><path d="M -89.9346 -5 L 89.9346 -5 L 89.9346 45 L -89.9346 45 L -89.9346 -5 Z" fill="rgb(0, 0, 0)" fill-opacity="0" stroke="#ccc" stroke-width="0" paint-order="fill" stroke-opacity="1" stroke-dasharray="" stroke-linecap="butt" stroke-miterlimit="10" transform="matrix(1,0,0,1,455,5)" transform_matrix="{&quot;a&quot;:1,&quot;b&quot;:0,&quot;c&quot;:0,&quot;d&quot;:1,&quot;e&quot;:455,&quot;f&quot;:5}" my_stoke="rgb(204, 204, 204)" my_stoke_width="0px" my_stoke_opacity="1" my_fill="rgb(0, 0, 0)" my_fill_opacity="0" my_font_size="16px" opacity="1"/><text xml:space="preserve" fill="rgb(70, 70, 70)" fill-opacity="1" stroke="none" transform="matrix(1,0,0,1,455,5)" dominant-baseline="central" text-anchor="middle" x="0" y="9" style="font: bold 18px &quot;Microsoft YaHei&quot;; fill: rgb(70, 70, 70);" transform_matrix="{&quot;a&quot;:1,&quot;b&quot;:0,&quot;c&quot;:0,&quot;d&quot;:1,&quot;e&quot;:455,&quot;f&quot;:5}" text_bbox="{&quot;x&quot;:-76.90625,&quot;y&quot;:-3,&quot;w&quot;:153.8125,&quot;h&quot;:24}" opacity="1" stroke-width="1px" stroke-opacity="1" font-family="&quot;Microsoft YaHei&quot;" my_stoke="none" my_stoke_width="1px" my_stoke_opacity="1" my_fill="rgb(70, 70, 70)" my_fill_opacity="1" my_font_size="18px" clip-path="none" content="Confidence Band">Confidence Band</text><text xml:space="preserve" fill="rgb(110, 112, 121)" fill-opacity="1" stroke="none" transform="matrix(1,0,0,1,455,5)" dominant-baseline="central" text-anchor="middle" x="0" y="34" style="font: 12px &quot;Microsoft YaHei&quot;; fill: rgb(110, 112, 121);" transform_matrix="{&quot;a&quot;:1,&quot;b&quot;:0,&quot;c&quot;:0,&quot;d&quot;:1,&quot;e&quot;:455,&quot;f&quot;:5}" text_bbox="{&quot;x&quot;:-84.9375,&quot;y&quot;:26,&quot;w&quot;:170.328125,&quot;h&quot;:16}" opacity="1" stroke-width="1px" stroke-opacity="1" font-family="&quot;Microsoft YaHei&quot;" my_stoke="none" my_stoke_width="1px" my_stoke_opacity="1" my_fill="rgb(110, 112, 121)" my_fill_opacity="1" my_font_size="12px" clip-path="none" content="Example in MetricsGraphics.js">Example in MetricsGraphics.js</text></g></svg>