<svg xmlns="http://www.w3.org/2000/svg" xmlns:xlink="http://www.w3.org/1999/xlink" version="1.1" baseProfile="full" width="910" height="773" style="user-select: none; position: absolute; left: 0px; top: 0px;" transform_matrix="{&quot;a&quot;:1,&quot;b&quot;:0,&quot;c&quot;:0,&quot;d&quot;:1,&quot;e&quot;:0,&quot;f&quot;:0}"><g><text xml:space="preserve" fill="rgb(0, 0, 0)" fill-opacity="0.2" stroke="none" dominant-baseline="central" text-anchor="middle" x="455" y="63.299999999999955" style="font: 12px &quot;Microsoft YaHei&quot;; fill: rgb(0, 0, 0);" transform_matrix="{&quot;a&quot;:1,&quot;b&quot;:0,&quot;c&quot;:0,&quot;d&quot;:1,&quot;e&quot;:0,&quot;f&quot;:0}" text_bbox="{&quot;x&quot;:439.703125,&quot;y&quot;:55.296875,&quot;w&quot;:30.046875,&quot;h&quot;:16.015625}" opacity="1" stroke-width="1px" stroke-opacity="1" font-family="&quot;Microsoft YaHei&quot;" my_stoke="none" my_stoke_width="1px" my_stoke_opacity="1" my_fill="rgb(0, 0, 0)" my_fill_opacity="0.2" my_font_size="12px" clip-path="none" content="Aries">Aries</text><text xml:space="preserve" fill="rgb(0, 0, 0)" fill-opacity="0.2" stroke="none" dominant-baseline="central" text-anchor="start" x="613.6" y="105.79674191957605" style="font: 12px &quot;Microsoft YaHei&quot;; fill: rgb(0, 0, 0);" transform_matrix="{&quot;a&quot;:1,&quot;b&quot;:0,&quot;c&quot;:0,&quot;d&quot;:1,&quot;e&quot;:0,&quot;f&quot;:0}" text_bbox="{&quot;x&quot;:612.59375,&quot;y&quot;:97.78125,&quot;w&quot;:39.890625,&quot;h&quot;:16.015625}" opacity="1" stroke-width="1px" stroke-opacity="1" font-family="&quot;Microsoft YaHei&quot;" my_stoke="none" my_stoke_width="1px" my_stoke_opacity="1" my_fill="rgb(0, 0, 0)" my_fill_opacity="0.2" my_font_size="12px" clip-path="none" content="Taurus">Taurus</text><text xml:space="preserve" fill="rgb(0, 0, 0)" fill-opacity="0.2" stroke="none" dominant-baseline="central" text-anchor="start" x="729.703258080424" y="221.9" style="font: 12px &quot;Microsoft YaHei&quot;; fill: rgb(0, 0, 0);" transform_matrix="{&quot;a&quot;:1,&quot;b&quot;:0,&quot;c&quot;:0,&quot;d&quot;:1,&quot;e&quot;:0,&quot;f&quot;:0}" text_bbox="{&quot;x&quot;:729.703125,&quot;y&quot;:213.890625,&quot;w&quot;:40.765625,&quot;h&quot;:16.015625}" opacity="1" stroke-width="1px" stroke-opacity="1" font-family="&quot;Microsoft YaHei&quot;" my_stoke="none" my_stoke_width="1px" my_stoke_opacity="1" my_fill="rgb(0, 0, 0)" my_fill_opacity="0.2" my_font_size="12px" clip-path="none" content="Gemini">Gemini</text><text xml:space="preserve" fill="rgb(0, 0, 0)" fill-opacity="0.2" stroke="none" dominant-baseline="central" text-anchor="start" x="772.2" y="386.5" style="font: 12px &quot;Microsoft YaHei&quot;; fill: rgb(0, 0, 0);" transform_matrix="{&quot;a&quot;:1,&quot;b&quot;:0,&quot;c&quot;:0,&quot;d&quot;:1,&quot;e&quot;:0,&quot;f&quot;:0}" text_bbox="{&quot;x&quot;:772.1875,&quot;y&quot;:378.5,&quot;w&quot;:39.90625,&quot;h&quot;:16}" opacity="1" stroke-width="1px" stroke-opacity="1" font-family="&quot;Microsoft YaHei&quot;" my_stoke="none" my_stoke_width="1px" my_stoke_opacity="1" my_fill="rgb(0, 0, 0)" my_fill_opacity="0.2" my_font_size="12px" clip-path="none" content="Cancer">Cancer</text><text xml:space="preserve" fill="rgb(0, 0, 0)" fill-opacity="0.2" stroke="none" dominant-baseline="central" text-anchor="start" x="729.703258080424" y="551.1" style="font: 12px &quot;Microsoft YaHei&quot;; fill: rgb(0, 0, 0);" transform_matrix="{&quot;a&quot;:1,&quot;b&quot;:0,&quot;c&quot;:0,&quot;d&quot;:1,&quot;e&quot;:0,&quot;f&quot;:0}" text_bbox="{&quot;x&quot;:729.703125,&quot;y&quot;:543.09375,&quot;w&quot;:20.96875,&quot;h&quot;:16.015625}" opacity="1" stroke-width="1px" stroke-opacity="1" font-family="&quot;Microsoft YaHei&quot;" my_stoke="none" my_stoke_width="1px" my_stoke_opacity="1" my_fill="rgb(0, 0, 0)" my_fill_opacity="0.2" my_font_size="12px" clip-path="none" content="Leo">Leo</text><text xml:space="preserve" fill="rgb(0, 0, 0)" fill-opacity="0.2" stroke="none" dominant-baseline="central" text-anchor="start" x="613.6" y="667.2032580804239" style="font: 12px &quot;Microsoft YaHei&quot;; fill: rgb(0, 0, 0);" transform_matrix="{&quot;a&quot;:1,&quot;b&quot;:0,&quot;c&quot;:0,&quot;d&quot;:1,&quot;e&quot;:0,&quot;f&quot;:0}" text_bbox="{&quot;x&quot;:612.59375,&quot;y&quot;:659.203125,&quot;w&quot;:32.578125,&quot;h&quot;:16.015625}" opacity="1" stroke-width="1px" stroke-opacity="1" font-family="&quot;Microsoft YaHei&quot;" my_stoke="none" my_stoke_width="1px" my_stoke_opacity="1" my_fill="rgb(0, 0, 0)" my_fill_opacity="0.2" my_font_size="12px" clip-path="none" content="Virgo">Virgo</text><text xml:space="preserve" fill="rgb(0, 0, 0)" fill-opacity="0.2" stroke="none" dominant-baseline="central" text-anchor="middle" x="455" y="709.7" style="font: 12px &quot;Microsoft YaHei&quot;; fill: rgb(0, 0, 0);" transform_matrix="{&quot;a&quot;:1,&quot;b&quot;:0,&quot;c&quot;:0,&quot;d&quot;:1,&quot;e&quot;:0,&quot;f&quot;:0}" text_bbox="{&quot;x&quot;:440.875,&quot;y&quot;:701.6875,&quot;w&quot;:28.609375,&quot;h&quot;:16.015625}" opacity="1" stroke-width="1px" stroke-opacity="1" font-family="&quot;Microsoft YaHei&quot;" my_stoke="none" my_stoke_width="1px" my_stoke_opacity="1" my_fill="rgb(0, 0, 0)" my_fill_opacity="0.2" my_font_size="12px" clip-path="none" content="Libra">Libra</text><text xml:space="preserve" fill="rgb(0, 0, 0)" fill-opacity="0.2" stroke="none" dominant-baseline="central" text-anchor="end" x="296.40000000000003" y="667.203258080424" style="font: 12px &quot;Microsoft YaHei&quot;; fill: rgb(0, 0, 0);" transform_matrix="{&quot;a&quot;:1,&quot;b&quot;:0,&quot;c&quot;:0,&quot;d&quot;:1,&quot;e&quot;:0,&quot;f&quot;:0}" text_bbox="{&quot;x&quot;:247.4375,&quot;y&quot;:659.203125,&quot;w&quot;:49.421875,&quot;h&quot;:16.015625}" opacity="1" stroke-width="1px" stroke-opacity="1" font-family="&quot;Microsoft YaHei&quot;" my_stoke="none" my_stoke_width="1px" my_stoke_opacity="1" my_fill="rgb(0, 0, 0)" my_fill_opacity="0.2" my_font_size="12px" clip-path="none" content="Scorpius">Scorpius</text><text xml:space="preserve" fill="rgb(0, 0, 0)" fill-opacity="0.2" stroke="none" dominant-baseline="central" text-anchor="end" x="180.296741919576" y="551.1" style="font: 12px &quot;Microsoft YaHei&quot;; fill: rgb(0, 0, 0);" transform_matrix="{&quot;a&quot;:1,&quot;b&quot;:0,&quot;c&quot;:0,&quot;d&quot;:1,&quot;e&quot;:0,&quot;f&quot;:0}" text_bbox="{&quot;x&quot;:119.5625,&quot;y&quot;:543.09375,&quot;w&quot;:61.1875,&quot;h&quot;:16.015625}" opacity="1" stroke-width="1px" stroke-opacity="1" font-family="&quot;Microsoft YaHei&quot;" my_stoke="none" my_stoke_width="1px" my_stoke_opacity="1" my_fill="rgb(0, 0, 0)" my_fill_opacity="0.2" my_font_size="12px" clip-path="none" content="Sagittarius">Sagittarius</text><text xml:space="preserve" fill="rgb(0, 0, 0)" fill-opacity="0.2" stroke="none" dominant-baseline="central" text-anchor="end" x="137.79999999999995" y="386.50000000000006" style="font: 12px &quot;Microsoft YaHei&quot;; fill: rgb(0, 0, 0);" transform_matrix="{&quot;a&quot;:1,&quot;b&quot;:0,&quot;c&quot;:0,&quot;d&quot;:1,&quot;e&quot;:0,&quot;f&quot;:0}" text_bbox="{&quot;x&quot;:69.125,&quot;y&quot;:378.5,&quot;w&quot;:69.125,&quot;h&quot;:16}" opacity="1" stroke-width="1px" stroke-opacity="1" font-family="&quot;Microsoft YaHei&quot;" my_stoke="none" my_stoke_width="1px" my_stoke_opacity="1" my_fill="rgb(0, 0, 0)" my_fill_opacity="0.2" my_font_size="12px" clip-path="none" content="Capricornus">Capricornus</text><text xml:space="preserve" fill="rgb(0, 0, 0)" fill-opacity="0.2" stroke="none" dominant-baseline="central" text-anchor="end" x="180.29674191957605" y="221.89999999999995" style="font: 12px &quot;Microsoft YaHei&quot;; fill: rgb(0, 0, 0);" transform_matrix="{&quot;a&quot;:1,&quot;b&quot;:0,&quot;c&quot;:0,&quot;d&quot;:1,&quot;e&quot;:0,&quot;f&quot;:0}" text_bbox="{&quot;x&quot;:128.421875,&quot;y&quot;:213.890625,&quot;w&quot;:52.328125,&quot;h&quot;:16.015625}" opacity="1" stroke-width="1px" stroke-opacity="1" font-family="&quot;Microsoft YaHei&quot;" my_stoke="none" my_stoke_width="1px" my_stoke_opacity="1" my_fill="rgb(0, 0, 0)" my_fill_opacity="0.2" my_font_size="12px" clip-path="none" content="Aquarius">Aquarius</text><text xml:space="preserve" fill="rgb(0, 0, 0)" fill-opacity="0.2" stroke="none" dominant-baseline="central" text-anchor="end" x="296.39999999999986" y="105.79674191957605" style="font: 12px &quot;Microsoft YaHei&quot;; fill: rgb(0, 0, 0);" transform_matrix="{&quot;a&quot;:1,&quot;b&quot;:0,&quot;c&quot;:0,&quot;d&quot;:1,&quot;e&quot;:0,&quot;f&quot;:0}" text_bbox="{&quot;x&quot;:261.921875,&quot;y&quot;:97.78125,&quot;w&quot;:34.9375,&quot;h&quot;:16.015625}" opacity="1" stroke-width="1px" stroke-opacity="1" font-family="&quot;Microsoft YaHei&quot;" my_stoke="none" my_stoke_width="1px" my_stoke_opacity="1" my_fill="rgb(0, 0, 0)" my_fill_opacity="0.2" my_font_size="12px" clip-path="none" content="Pisces">Pisces</text><path d="M 455 72.3 L 455 77.3 M 612.1 114.3948 L 609.6 118.7249 M 727.1052 229.4 L 722.7751 231.9 M 769.2 386.5 L 764.2 386.5 M 727.1052 543.6 L 722.7751 541.1 M 612.1 658.6052 L 609.6 654.2751 M 455 700.7 L 455 695.7 M 297.9 658.6052 L 300.4 654.2751 M 182.8948 543.6 L 187.2249 541.1 M 140.8 386.5 L 145.8 386.5 M 182.8948 229.4 L 187.2249 231.9 M 297.9 114.3948 L 300.4 118.7249" fill="rgb(0, 0, 0)" fill-opacity="1" stroke="rgb(0,0,0)" stroke-width="1" paint-order="fill" stroke-opacity="0.2" stroke-dasharray="" stroke-linecap="butt" stroke-miterlimit="10" transform_matrix="{&quot;a&quot;:1,&quot;b&quot;:0,&quot;c&quot;:0,&quot;d&quot;:1,&quot;e&quot;:0,&quot;f&quot;:0}" my_stoke="rgb(0, 0, 0)" my_stoke_width="1px" my_stoke_opacity="0.2" my_fill="rgb(0, 0, 0)" my_fill_opacity="1" my_font_size="16px" opacity="1"/><path d="M 455 77.3 L 455 386.5 M 609.6 118.7249 L 455 386.5 M 722.7751 231.9 L 455 386.5 M 764.2 386.5 L 455 386.5 M 722.7751 541.1 L 455 386.5 M 609.6 654.2751 L 455 386.5 M 455 695.7 L 455 386.5 M 300.4 654.2751 L 455 386.5 M 187.2249 541.1 L 455 386.5 M 145.8 386.5 L 455 386.5 M 187.2249 231.9 L 455 386.5 M 300.4 118.7249 L 455 386.5" fill="rgb(0, 0, 0)" fill-opacity="1" stroke="#E0E6F1" stroke-width="1" paint-order="fill" stroke-opacity="1" stroke-dasharray="" stroke-linecap="butt" stroke-miterlimit="10" transform_matrix="{&quot;a&quot;:1,&quot;b&quot;:0,&quot;c&quot;:0,&quot;d&quot;:1,&quot;e&quot;:0,&quot;f&quot;:0}" my_stoke="rgb(224, 230, 241)" my_stoke_width="1px" my_stoke_opacity="1" my_fill="rgb(0, 0, 0)" my_fill_opacity="1" my_font_size="16px" opacity="1"/><path d="M 455 77.3 A 309.2 309.2 0 0 1 609.6 118.7249 L 455 386.5 Z M 722.7751 231.9 A 309.2 309.2 0 0 1 764.2 386.5 L 455 386.5 Z M 722.7751 541.1 A 309.2 309.2 0 0 1 609.6 654.2751 L 455 386.5 Z M 455 695.7 A 309.2 309.2 0 0 1 300.4 654.2751 L 455 386.5 Z M 187.2249 541.1 A 309.2 309.2 0 0 1 145.8 386.5 L 455 386.5 Z M 187.2249 231.9 A 309.2 309.2 0 0 1 300.4 118.7249 L 455 386.5 Z" fill="rgb(250, 250, 250)" fill-opacity="0.2" stroke="none" transform_matrix="{&quot;a&quot;:1,&quot;b&quot;:0,&quot;c&quot;:0,&quot;d&quot;:1,&quot;e&quot;:0,&quot;f&quot;:0}" my_stoke="none" my_stoke_width="1px" my_stoke_opacity="1" my_fill="rgb(250, 250, 250)" my_fill_opacity="0.2" my_font_size="16px" opacity="1"/><path d="M 609.6 118.7249 A 309.2 309.2 0 0 1 722.7751 231.9 L 455 386.5 Z M 764.2 386.5 A 309.2 309.2 0 0 1 722.7751 541.1 L 455 386.5 Z M 609.6 654.2751 A 309.2 309.2 0 0 1 455 695.7 L 455 386.5 Z M 300.4 654.2751 A 309.2 309.2 0 0 1 187.2249 541.1 L 455 386.5 Z M 145.8 386.5 A 309.2 309.2 0 0 1 187.2249 231.9 L 455 386.5 Z M 300.4 118.7249 A 309.2 309.2 0 0 1 455 77.3 L 455 386.5 Z" fill="rgb(210, 219, 238)" fill-opacity="0.2" stroke="none" transform_matrix="{&quot;a&quot;:1,&quot;b&quot;:0,&quot;c&quot;:0,&quot;d&quot;:1,&quot;e&quot;:0,&quot;f&quot;:0}" my_stoke="none" my_stoke_width="1px" my_stoke_opacity="1" my_fill="rgb(210, 219, 238)" my_fill_opacity="0.2" my_font_size="16px" opacity="1"/><path d="M 455.5 386.5 L 455.5 77.3" fill="none" stroke="rgb(0,0,0)" stroke-width="1" paint-order="fill" stroke-opacity="0.2" stroke-dasharray="" stroke-linecap="round" stroke-miterlimit="10" transform_matrix="{&quot;a&quot;:1,&quot;b&quot;:0,&quot;c&quot;:0,&quot;d&quot;:1,&quot;e&quot;:0,&quot;f&quot;:0}" my_stoke="rgb(0, 0, 0)" my_stoke_width="1px" my_stoke_opacity="0.2" my_fill="none" my_fill_opacity="1" my_font_size="16px" opacity="1"/><path d="M 764.2 386.5 A 309.2 309.2 0 1 1 764.2 386.4691" fill="none" stroke="rgb(0,0,0)" stroke-width="1" paint-order="fill" stroke-opacity="0.2" stroke-dasharray="" stroke-linecap="butt" stroke-miterlimit="10" transform_matrix="{&quot;a&quot;:1,&quot;b&quot;:0,&quot;c&quot;:0,&quot;d&quot;:1,&quot;e&quot;:0,&quot;f&quot;:0}" my_stoke="rgb(0, 0, 0)" my_stoke_width="1px" my_stoke_opacity="0.2" my_fill="none" my_fill_opacity="1" my_font_size="16px" opacity="1"/><text xml:space="preserve" fill="rgb(0, 0, 0)" fill-opacity="0.6" stroke="none" transform="matrix(1,0,0,1,447,348.1294)" dominant-baseline="central" text-anchor="end" x="0" y="0" style="font: 12px &quot;Microsoft YaHei&quot;; fill: rgb(0, 0, 0);" transform_matrix="{&quot;a&quot;:1,&quot;b&quot;:0,&quot;c&quot;:0,&quot;d&quot;:1,&quot;e&quot;:447,&quot;f&quot;:348.12939453125}" text_bbox="{&quot;x&quot;:-9.453125,&quot;y&quot;:-8,&quot;w&quot;:10.015625,&quot;h&quot;:16}" opacity="1" stroke-width="1px" stroke-opacity="1" font-family="&quot;Microsoft YaHei&quot;" my_stoke="none" my_stoke_width="1px" my_stoke_opacity="1" my_fill="rgb(0, 0, 0)" my_fill_opacity="0.6" my_font_size="12px" clip-path="none" content="A">A</text><text xml:space="preserve" fill="rgb(0, 0, 0)" fill-opacity="0.6" stroke="none" transform="matrix(1,0,0,1,447,309.7588)" dominant-baseline="central" text-anchor="end" x="0" y="0" style="font: 12px &quot;Microsoft YaHei&quot;; fill: rgb(0, 0, 0);" transform_matrix="{&quot;a&quot;:1,&quot;b&quot;:0,&quot;c&quot;:0,&quot;d&quot;:1,&quot;e&quot;:447,&quot;f&quot;:309.7587890625}" text_bbox="{&quot;x&quot;:-7.53125,&quot;y&quot;:-8,&quot;w&quot;:8.015625,&quot;h&quot;:16}" opacity="1" stroke-width="1px" stroke-opacity="1" font-family="&quot;Microsoft YaHei&quot;" my_stoke="none" my_stoke_width="1px" my_stoke_opacity="1" my_fill="rgb(0, 0, 0)" my_fill_opacity="0.6" my_font_size="12px" clip-path="none" content="B">B</text><text xml:space="preserve" fill="rgb(0, 0, 0)" fill-opacity="0.6" stroke="none" transform="matrix(1,0,0,1,447,271.3882)" dominant-baseline="central" text-anchor="end" x="0" y="0" style="font: 12px &quot;Microsoft YaHei&quot;; fill: rgb(0, 0, 0);" transform_matrix="{&quot;a&quot;:1,&quot;b&quot;:0,&quot;c&quot;:0,&quot;d&quot;:1,&quot;e&quot;:447,&quot;f&quot;:271.3882141113281}" text_bbox="{&quot;x&quot;:-8.03125,&quot;y&quot;:-8,&quot;w&quot;:8.03125,&quot;h&quot;:16}" opacity="1" stroke-width="1px" stroke-opacity="1" font-family="&quot;Microsoft YaHei&quot;" my_stoke="none" my_stoke_width="1px" my_stoke_opacity="1" my_fill="rgb(0, 0, 0)" my_fill_opacity="0.6" my_font_size="12px" clip-path="none" content="C">C</text><path d="M 455 363.4776 L 456.7249 361.8325 L 458.6788 360.3242 L 460.8503 358.9764 L 463.2261 357.8123 L 465.7905 356.8535 L 468.5258 356.1205 L 471.4127 355.6322 L 474.4296 355.4061 L 477.5537 355.4575 L 480.7603 355.8 L 484.0238 356.445 L 487.3169 357.4017 L 490.6118 358.677 L 493.8797 360.2753 L 497.0912 362.1986 L 500.2167 364.4464 L 503.2261 367.0154 L 506.0897 369.9 L 508.7779 373.0917 L 511.2617 376.5796 L 513.5126 380.3501 L 515.5034 384.3872 L 517.2077 388.6723 L 518.6007 393.1847 L 519.6049 397.6111 L 549.8573 402.8141 L 549.0675 395.9863 L 547.7955 389.3491 L 546.0641 382.9357 L 543.8984 376.7775 L 541.3255 370.9031 L 538.3743 365.3389 L 535.0754 360.1084 L 531.4609 355.2324 L 527.5639 350.7289 L 523.4186 346.6132 L 519.0598 342.8973 L 514.5227 339.5905 L 509.843 336.6991 L 505.056 334.2265 L 500.197 332.1731 L 495.3007 330.5365 L 490.4011 329.3116 L 485.5313 328.4906 L 480.7234 328.063 L 476.0078 328.0159 L 471.4138 328.3342 L 466.9689 329.0005 L 462.6986 329.9954 L 458.6264 331.2977 L 455 332.7811 Z" fill="rgb(84, 112, 198)" fill-opacity="1" stroke="none" transform_matrix="{&quot;a&quot;:1,&quot;b&quot;:0,&quot;c&quot;:0,&quot;d&quot;:1,&quot;e&quot;:0,&quot;f&quot;:0}" my_stoke="none" my_stoke_width="1px" my_stoke_opacity="1" my_fill="rgb(84, 112, 198)" my_fill_opacity="1" my_font_size="16px" opacity="1"/><path d="M 455 325.107 L 459.4015 323.5554 L 464.0189 322.327 L 468.828 321.4443 L 473.8024 320.9281 L 478.914 320.7969 L 484.1326 321.0672 L 489.4266 321.753 L 494.763 322.866 L 500.1074 324.415 L 505.4245 326.4064 L 510.6782 328.8435 L 515.8318 331.7268 L 520.8483 335.0537 L 525.6904 338.8187 L 530.3212 343.0133 L 534.7039 347.6258 L 538.8027 352.6415 L 542.5823 358.0428 L 546.0087 363.809 L 549.0493 369.9166 L 551.6731 376.3393 L 553.8507 383.0481 L 555.555 390.0115 L 556.7611 397.1955 L 557.4466 404.5641 L 557.5917 412.079 L 557.1793 419.7001 L 556.1957 427.3857 L 554.6299 435.0928 L 552.4745 442.7769 L 549.7251 450.3929 L 546.3813 457.8949 L 542.4458 465.2365 L 537.925 472.3714 L 532.8291 479.2531 L 527.1718 485.8359 L 520.9704 492.0746 L 514.2458 497.9251 L 507.0225 503.3443 L 499.3283 508.2911 L 491.1947 512.7259 L 482.656 516.6114 L 473.7499 519.9124 L 464.5168 522.5965 L 455 524.6342 L 445.2453 525.9989 L 435.3008 526.6674 L 428.1451 526.7083 L 422.3706 556.8568 L 434.5368 557.0247 L 446.5664 556.3335 L 458.3995 554.803 L 469.9782 552.4575 L 481.2469 549.3248 L 492.1528 545.4366 L 502.6461 540.8284 L 512.68 535.5384 L 522.2109 529.6082 L 531.199 523.0819 L 539.6082 516.0061 L 547.4059 508.4296 L 554.5639 500.4027 L 561.0576 491.9774 L 566.8669 483.207 L 571.9755 474.1454 L 576.3716 464.8472 L 580.0474 455.3672 L 582.9992 445.7601 L 585.2274 436.0802 L 586.7365 426.3811 L 587.5349 416.7155 L 587.6347 407.1345 L 587.0517 397.6882 L 585.8053 388.4244 L 583.9181 379.3891 L 581.416 370.626 L 578.3276 362.1763 L 574.6844 354.0786 L 570.5203 346.3684 L 565.8715 339.0785 L 560.7761 332.2384 L 555.274 325.8744 L 549.4065 320.0093 L 543.216 314.6626 L 536.7459 309.8505 L 530.0404 305.5853 L 523.1437 301.8761 L 516.1003 298.7284 L 508.9545 296.1442 L 501.7501 294.1223 L 494.5303 292.6578 L 487.3371 291.7429 L 480.2115 291.3664 L 473.1931 291.5144 L 466.3198 292.1699 L 459.6275 293.3133 L 455 294.4105 Z" fill="rgb(145, 204, 117)" fill-opacity="1" stroke="none" transform_matrix="{&quot;a&quot;:1,&quot;b&quot;:0,&quot;c&quot;:0,&quot;d&quot;:1,&quot;e&quot;:0,&quot;f&quot;:0}" my_stoke="none" my_stoke_width="1px" my_stoke_opacity="1" my_fill="rgb(145, 204, 117)" my_fill_opacity="1" my_font_size="16px" opacity="1"/><path d="M 455 286.7364 L 462.0781 285.2782 L 469.3591 284.3298 L 476.8057 283.9122 L 484.3788 284.0439 L 492.0375 284.7403 L 499.7393 286.0139 L 507.4405 287.8738 L 515.0963 290.3258 L 522.661 293.3726 L 530.0887 297.0128 L 537.3327 301.242 L 544.3468 306.0518 L 551.0847 311.4304 L 557.5011 317.3621 L 563.5511 323.828 L 569.1912 330.8052 L 574.3793 338.2676 L 579.0749 346.1856 L 583.2396 354.5263 L 586.837 363.2536 L 589.8335 372.3284 L 592.1979 381.7089 L 593.9022 391.3506 L 594.9215 401.2063 L 595.2343 411.2271 L 594.8225 421.3617 L 593.672 431.5573 L 591.7723 441.7596 L 589.1172 451.9133 L 585.7044 461.9622 L 581.5358 471.8495 L 576.6178 481.5182 L 570.9607 490.9115 L 564.5795 499.9729 L 557.4933 508.6467 L 549.7255 516.8784 L 541.3037 524.6148 L 532.2597 531.8043 L 522.6292 538.3976 L 512.4519 544.3477 L 501.7711 549.6101 L 490.6337 554.1435 L 479.09 557.9096 L 467.1934 560.8737 L 455 563.0048 L 442.5687 564.2761 L 429.9606 564.6646 L 417.2389 564.1521 L 404.4684 562.7245 L 391.7155 560.3729 L 379.0472 557.0927 L 366.5317 552.8847 L 354.2371 547.7544 L 342.2316 541.7124 L 330.583 534.7744 L 319.3584 526.961 L 308.6234 518.2981 L 298.4423 508.8162 L 288.8775 498.551 L 279.989 487.5426 L 271.8342 475.8359 L 264.4675 463.4801 L 257.9398 450.5287 L 252.2987 437.0391 L 247.5876 423.0724 L 243.8457 408.6932 L 241.1076 393.9693 L 239.4033 378.9712 L 238.7847 365.98 L 208.2255 363.0798 L 208.8978 380.3933 L 210.7749 397.4987 L 213.8312 414.3128 L 218.0352 430.755 L 223.35 446.7478 L 229.7334 462.2168 L 237.1385 477.0914 L 245.5137 491.3049 L 254.803 504.7951 L 264.9467 517.5041 L 275.8812 529.379 L 287.54 540.3718 L 299.8537 550.4398 L 312.7504 559.5455 L 326.1564 567.6571 L 339.9961 574.7482 L 354.1932 580.7982 L 368.6702 585.7919 L 383.3494 589.7202 L 398.1534 592.5793 L 413.0049 594.3711 L 427.8278 595.1031 L 442.5472 594.7881 L 457.0898 593.4441 L 471.3843 591.0943 L 485.3617 587.7667 L 498.956 583.4941 L 512.104 578.3135 L 524.7457 572.2664 L 536.8249 565.3978 L 548.2891 557.7566 L 559.0898 549.3949 L 569.183 540.3677 L 578.5288 530.7326 L 587.0921 520.5496 L 594.8423 509.8806 L 601.7539 498.7888 L 607.8059 487.339 L 612.9824 475.5964 L 617.2724 463.627 L 620.6697 451.4967 L 623.1729 439.2713 L 624.7856 427.0157 L 625.5159 414.7942 L 625.3765 402.6696 L 624.3846 390.7031 L 622.5615 378.9539 L 619.9328 367.4791 L 616.5279 356.3334 L 612.3796 345.5685 L 607.5245 335.2333 L 602.0021 325.3734 L 595.8549 316.031 L 589.128 307.2446 L 581.8685 299.0493 L 574.1261 291.4758 L 565.9516 284.5513 L 557.3975 278.2987 L 548.5174 272.7368 L 539.3655 267.8802 L 529.9964 263.7394 L 520.465 260.3207 L 510.8259 257.6263 L 501.1331 255.6543 L 491.4399 254.3989 L 481.7985 253.8504 L 472.2598 253.9952 L 462.8729 254.8163 L 455 256.0399 Z" fill="rgb(250, 200, 88)" fill-opacity="1" stroke="none" transform_matrix="{&quot;a&quot;:1,&quot;b&quot;:0,&quot;c&quot;:0,&quot;d&quot;:1,&quot;e&quot;:0,&quot;f&quot;:0}" my_stoke="none" my_stoke_width="1px" my_stoke_opacity="1" my_fill="rgb(250, 200, 88)" my_fill_opacity="1" my_font_size="16px" opacity="1"/><text xml:space="preserve" fill="rgb(39, 71, 165)" fill-opacity="1" stroke="rgb(255, 255, 255)" stroke-width="3px" paint-order="stroke" stroke-opacity="1" stroke-dasharray="" stroke-linecap="butt" stroke-miterlimit="2" transform="matrix(1,0,0,1,532.4321,409.9382)" dominant-baseline="central" text-anchor="middle" x="-6.673828125" y="-9" style="font: 16px sans-serif; fill: rgb(39, 71, 165);" transform_matrix="{&quot;a&quot;:1,&quot;b&quot;:0,&quot;c&quot;:0,&quot;d&quot;:1,&quot;e&quot;:532.43212890625,&quot;f&quot;:409.9382019042969}" text_bbox="{&quot;x&quot;:-32.484375,&quot;y&quot;:-17.5,&quot;w&quot;:51.609375,&quot;h&quot;:17}" opacity="1" font-family="sans-serif" my_stoke="rgb(255, 255, 255)" my_stoke_width="3px" my_stoke_opacity="1" my_fill="rgb(39, 71, 165)" my_fill_opacity="1" my_font_size="16px" clip-path="none" content="Round ">Round </text><text xml:space="preserve" fill="rgb(39, 71, 165)" fill-opacity="1" stroke="rgb(255, 255, 255)" stroke-width="3px" paint-order="stroke" stroke-opacity="1" stroke-dasharray="" stroke-linecap="butt" stroke-miterlimit="2" transform="matrix(1,0,0,1,532.4321,409.9382)" dominant-baseline="central" text-anchor="middle" x="25.796875" y="-9" style="font: 24px sans-serif; fill: rgb(39, 71, 165);" transform_matrix="{&quot;a&quot;:1,&quot;b&quot;:0,&quot;c&quot;:0,&quot;d&quot;:1,&quot;e&quot;:532.43212890625,&quot;f&quot;:409.9382019042969}" text_bbox="{&quot;x&quot;:19.109375,&quot;y&quot;:-22.5,&quot;w&quot;:13.375,&quot;h&quot;:27}" opacity="1" font-family="sans-serif" my_stoke="rgb(255, 255, 255)" my_stoke_width="3px" my_stoke_opacity="1" my_fill="rgb(39, 71, 165)" my_fill_opacity="1" my_font_size="24px" clip-path="none" content="0">0</text><text xml:space="preserve" fill="rgb(39, 71, 165)" fill-opacity="1" stroke="rgb(255, 255, 255)" stroke-width="3px" paint-order="stroke" stroke-opacity="1" stroke-dasharray="" stroke-linecap="butt" stroke-miterlimit="2" transform="matrix(1,0,0,1,532.4321,409.9382)" dominant-baseline="central" text-anchor="middle" x="0" y="12" style="font: 18px sans-serif; fill: rgb(39, 71, 165);" transform_matrix="{&quot;a&quot;:1,&quot;b&quot;:0,&quot;c&quot;:0,&quot;d&quot;:1,&quot;e&quot;:532.43212890625,&quot;f&quot;:409.9382019042969}" text_bbox="{&quot;x&quot;:-25.53125,&quot;y&quot;:2,&quot;w&quot;:51.0625,&quot;h&quot;:20}" opacity="1" font-family="sans-serif" my_stoke="rgb(255, 255, 255)" my_stoke_width="3px" my_stoke_opacity="1" my_fill="rgb(39, 71, 165)" my_fill_opacity="1" my_font_size="18px" clip-path="none" content="27.7%">27.7%</text><text xml:space="preserve" fill="rgb(68, 127, 39)" fill-opacity="1" stroke="rgb(255, 255, 255)" stroke-width="3px" paint-order="stroke" stroke-opacity="1" stroke-dasharray="" stroke-linecap="butt" stroke-miterlimit="2" transform="matrix(1,0,0,1,415.5024,539.5921)" dominant-baseline="central" text-anchor="middle" x="-6.673828125" y="-9" style="font: 16px sans-serif; fill: rgb(68, 127, 39);" transform_matrix="{&quot;a&quot;:1,&quot;b&quot;:0,&quot;c&quot;:0,&quot;d&quot;:1,&quot;e&quot;:415.5024108886719,&quot;f&quot;:539.5921020507812}" text_bbox="{&quot;x&quot;:-32.484375,&quot;y&quot;:-17.5,&quot;w&quot;:51.609375,&quot;h&quot;:17}" opacity="1" font-family="sans-serif" my_stoke="rgb(255, 255, 255)" my_stoke_width="3px" my_stoke_opacity="1" my_fill="rgb(68, 127, 39)" my_fill_opacity="1" my_font_size="16px" clip-path="none" content="Round ">Round </text><text xml:space="preserve" fill="rgb(68, 127, 39)" fill-opacity="1" stroke="rgb(255, 255, 255)" stroke-width="3px" paint-order="stroke" stroke-opacity="1" stroke-dasharray="" stroke-linecap="butt" stroke-miterlimit="2" transform="matrix(1,0,0,1,415.5024,539.5921)" dominant-baseline="central" text-anchor="middle" x="25.796875" y="-9" style="font: 24px sans-serif; fill: rgb(68, 127, 39);" transform_matrix="{&quot;a&quot;:1,&quot;b&quot;:0,&quot;c&quot;:0,&quot;d&quot;:1,&quot;e&quot;:415.5024108886719,&quot;f&quot;:539.5921020507812}" text_bbox="{&quot;x&quot;:19.109375,&quot;y&quot;:-22.5,&quot;w&quot;:13.375,&quot;h&quot;:27}" opacity="1" font-family="sans-serif" my_stoke="rgb(255, 255, 255)" my_stoke_width="3px" my_stoke_opacity="1" my_fill="rgb(68, 127, 39)" my_fill_opacity="1" my_font_size="24px" clip-path="none" content="0">0</text><text xml:space="preserve" fill="rgb(68, 127, 39)" fill-opacity="1" stroke="rgb(255, 255, 255)" stroke-width="3px" paint-order="stroke" stroke-opacity="1" stroke-dasharray="" stroke-linecap="butt" stroke-miterlimit="2" transform="matrix(1,0,0,1,415.5024,539.5921)" dominant-baseline="central" text-anchor="middle" x="0" y="12" style="font: 18px sans-serif; fill: rgb(68, 127, 39);" transform_matrix="{&quot;a&quot;:1,&quot;b&quot;:0,&quot;c&quot;:0,&quot;d&quot;:1,&quot;e&quot;:415.5024108886719,&quot;f&quot;:539.5921020507812}" text_bbox="{&quot;x&quot;:-25.53125,&quot;y&quot;:2,&quot;w&quot;:51.0625,&quot;h&quot;:20}" opacity="1" font-family="sans-serif" my_stoke="rgb(255, 255, 255)" my_stoke_width="3px" my_stoke_opacity="1" my_fill="rgb(68, 127, 39)" my_fill_opacity="1" my_font_size="18px" clip-path="none" content="53.0%">53.0%</text><text xml:space="preserve" fill="rgb(160, 118, 28)" fill-opacity="1" stroke="rgb(255, 255, 255)" stroke-width="3px" paint-order="stroke" stroke-opacity="1" stroke-dasharray="" stroke-linecap="butt" stroke-miterlimit="2" transform="matrix(1,0,0,1,224.6637,354.5981)" dominant-baseline="central" text-anchor="middle" x="-6.673828125" y="-9" style="font: 16px sans-serif; fill: rgb(160, 118, 28);" transform_matrix="{&quot;a&quot;:1,&quot;b&quot;:0,&quot;c&quot;:0,&quot;d&quot;:1,&quot;e&quot;:224.6636962890625,&quot;f&quot;:354.5981140136719}" text_bbox="{&quot;x&quot;:-32.484375,&quot;y&quot;:-17.5,&quot;w&quot;:51.609375,&quot;h&quot;:17}" opacity="1" font-family="sans-serif" my_stoke="rgb(255, 255, 255)" my_stoke_width="3px" my_stoke_opacity="1" my_fill="rgb(160, 118, 28)" my_fill_opacity="1" my_font_size="16px" clip-path="none" content="Round ">Round </text><text xml:space="preserve" fill="rgb(160, 118, 28)" fill-opacity="1" stroke="rgb(255, 255, 255)" stroke-width="3px" paint-order="stroke" stroke-opacity="1" stroke-dasharray="" stroke-linecap="butt" stroke-miterlimit="2" transform="matrix(1,0,0,1,224.6637,354.5981)" dominant-baseline="central" text-anchor="middle" x="25.796875" y="-9" style="font: 24px sans-serif; fill: rgb(160, 118, 28);" transform_matrix="{&quot;a&quot;:1,&quot;b&quot;:0,&quot;c&quot;:0,&quot;d&quot;:1,&quot;e&quot;:224.6636962890625,&quot;f&quot;:354.5981140136719}" text_bbox="{&quot;x&quot;:19.109375,&quot;y&quot;:-22.5,&quot;w&quot;:13.375,&quot;h&quot;:27}" opacity="1" font-family="sans-serif" my_stoke="rgb(255, 255, 255)" my_stoke_width="3px" my_stoke_opacity="1" my_fill="rgb(160, 118, 28)" my_fill_opacity="1" my_font_size="24px" clip-path="none" content="0">0</text><text xml:space="preserve" fill="rgb(160, 118, 28)" fill-opacity="1" stroke="rgb(255, 255, 255)" stroke-width="3px" paint-order="stroke" stroke-opacity="1" stroke-dasharray="" stroke-linecap="butt" stroke-miterlimit="2" transform="matrix(1,0,0,1,224.6637,354.5981)" dominant-baseline="central" text-anchor="middle" x="0" y="12" style="font: 18px sans-serif; fill: rgb(160, 118, 28);" transform_matrix="{&quot;a&quot;:1,&quot;b&quot;:0,&quot;c&quot;:0,&quot;d&quot;:1,&quot;e&quot;:224.6636962890625,&quot;f&quot;:354.5981140136719}" text_bbox="{&quot;x&quot;:-25.53125,&quot;y&quot;:2,&quot;w&quot;:51.0625,&quot;h&quot;:20}" opacity="1" font-family="sans-serif" my_stoke="rgb(255, 255, 255)" my_stoke_width="3px" my_stoke_opacity="1" my_fill="rgb(160, 118, 28)" my_fill_opacity="1" my_font_size="18px" clip-path="none" content="76.5%">76.5%</text></g></svg>