<svg xmlns="http://www.w3.org/2000/svg" xmlns:xlink="http://www.w3.org/1999/xlink" version="1.1" baseProfile="full" width="910" height="773" style="user-select: none; position: absolute; left: 0px; top: 0px;" transform_matrix="{&quot;a&quot;:1,&quot;b&quot;:0,&quot;c&quot;:0,&quot;d&quot;:1,&quot;e&quot;:0,&quot;f&quot;:0}"><g><path d="M 91 703.5 L 819 703.5" fill="none" stroke="#6E7079" stroke-width="1" paint-order="fill" stroke-opacity="1" stroke-dasharray="" stroke-linecap="round" stroke-miterlimit="10" transform_matrix="{&quot;a&quot;:1,&quot;b&quot;:0,&quot;c&quot;:0,&quot;d&quot;:1,&quot;e&quot;:0,&quot;f&quot;:0}" my_stoke="rgb(110, 112, 121)" my_stoke_width="1px" my_stoke_opacity="1" my_fill="none" my_fill_opacity="1" my_font_size="16px" opacity="1"/><path d="M 154.5 703 L 154.5 708" fill="none" stroke="#6E7079" stroke-width="1" paint-order="fill" stroke-opacity="1" stroke-dasharray="" stroke-linecap="butt" stroke-miterlimit="10" transform_matrix="{&quot;a&quot;:1,&quot;b&quot;:0,&quot;c&quot;:0,&quot;d&quot;:1,&quot;e&quot;:0,&quot;f&quot;:0}" my_stoke="rgb(110, 112, 121)" my_stoke_width="1px" my_stoke_opacity="1" my_fill="none" my_fill_opacity="1" my_font_size="16px" opacity="1"/><path d="M 219.5 703 L 219.5 708" fill="none" stroke="#6E7079" stroke-width="1" paint-order="fill" stroke-opacity="1" stroke-dasharray="" stroke-linecap="butt" stroke-miterlimit="10" transform_matrix="{&quot;a&quot;:1,&quot;b&quot;:0,&quot;c&quot;:0,&quot;d&quot;:1,&quot;e&quot;:0,&quot;f&quot;:0}" my_stoke="rgb(110, 112, 121)" my_stoke_width="1px" my_stoke_opacity="1" my_fill="none" my_fill_opacity="1" my_font_size="16px" opacity="1"/><path d="M 286.5 703 L 286.5 708" fill="none" stroke="#6E7079" stroke-width="1" paint-order="fill" stroke-opacity="1" stroke-dasharray="" stroke-linecap="butt" stroke-miterlimit="10" transform_matrix="{&quot;a&quot;:1,&quot;b&quot;:0,&quot;c&quot;:0,&quot;d&quot;:1,&quot;e&quot;:0,&quot;f&quot;:0}" my_stoke="rgb(110, 112, 121)" my_stoke_width="1px" my_stoke_opacity="1" my_fill="none" my_fill_opacity="1" my_font_size="16px" opacity="1"/><path d="M 353.5 703 L 353.5 708" fill="none" stroke="#6E7079" stroke-width="1" paint-order="fill" stroke-opacity="1" stroke-dasharray="" stroke-linecap="butt" stroke-miterlimit="10" transform_matrix="{&quot;a&quot;:1,&quot;b&quot;:0,&quot;c&quot;:0,&quot;d&quot;:1,&quot;e&quot;:0,&quot;f&quot;:0}" my_stoke="rgb(110, 112, 121)" my_stoke_width="1px" my_stoke_opacity="1" my_fill="none" my_fill_opacity="1" my_font_size="16px" opacity="1"/><path d="M 420.5 703 L 420.5 708" fill="none" stroke="#6E7079" stroke-width="1" paint-order="fill" stroke-opacity="1" stroke-dasharray="" stroke-linecap="butt" stroke-miterlimit="10" transform_matrix="{&quot;a&quot;:1,&quot;b&quot;:0,&quot;c&quot;:0,&quot;d&quot;:1,&quot;e&quot;:0,&quot;f&quot;:0}" my_stoke="rgb(110, 112, 121)" my_stoke_width="1px" my_stoke_opacity="1" my_fill="none" my_fill_opacity="1" my_font_size="16px" opacity="1"/><path d="M 485.5 703 L 485.5 708" fill="none" stroke="#6E7079" stroke-width="1" paint-order="fill" stroke-opacity="1" stroke-dasharray="" stroke-linecap="butt" stroke-miterlimit="10" transform_matrix="{&quot;a&quot;:1,&quot;b&quot;:0,&quot;c&quot;:0,&quot;d&quot;:1,&quot;e&quot;:0,&quot;f&quot;:0}" my_stoke="rgb(110, 112, 121)" my_stoke_width="1px" my_stoke_opacity="1" my_fill="none" my_fill_opacity="1" my_font_size="16px" opacity="1"/><path d="M 552.5 703 L 552.5 708" fill="none" stroke="#6E7079" stroke-width="1" paint-order="fill" stroke-opacity="1" stroke-dasharray="" stroke-linecap="butt" stroke-miterlimit="10" transform_matrix="{&quot;a&quot;:1,&quot;b&quot;:0,&quot;c&quot;:0,&quot;d&quot;:1,&quot;e&quot;:0,&quot;f&quot;:0}" my_stoke="rgb(110, 112, 121)" my_stoke_width="1px" my_stoke_opacity="1" my_fill="none" my_fill_opacity="1" my_font_size="16px" opacity="1"/><path d="M 619.5 703 L 619.5 708" fill="none" stroke="#6E7079" stroke-width="1" paint-order="fill" stroke-opacity="1" stroke-dasharray="" stroke-linecap="butt" stroke-miterlimit="10" transform_matrix="{&quot;a&quot;:1,&quot;b&quot;:0,&quot;c&quot;:0,&quot;d&quot;:1,&quot;e&quot;:0,&quot;f&quot;:0}" my_stoke="rgb(110, 112, 121)" my_stoke_width="1px" my_stoke_opacity="1" my_fill="none" my_fill_opacity="1" my_font_size="16px" opacity="1"/><path d="M 686.5 703 L 686.5 708" fill="none" stroke="#6E7079" stroke-width="1" paint-order="fill" stroke-opacity="1" stroke-dasharray="" stroke-linecap="butt" stroke-miterlimit="10" transform_matrix="{&quot;a&quot;:1,&quot;b&quot;:0,&quot;c&quot;:0,&quot;d&quot;:1,&quot;e&quot;:0,&quot;f&quot;:0}" my_stoke="rgb(110, 112, 121)" my_stoke_width="1px" my_stoke_opacity="1" my_fill="none" my_fill_opacity="1" my_font_size="16px" opacity="1"/><path d="M 752.5 703 L 752.5 708" fill="none" stroke="#6E7079" stroke-width="1" paint-order="fill" stroke-opacity="1" stroke-dasharray="" stroke-linecap="butt" stroke-miterlimit="10" transform_matrix="{&quot;a&quot;:1,&quot;b&quot;:0,&quot;c&quot;:0,&quot;d&quot;:1,&quot;e&quot;:0,&quot;f&quot;:0}" my_stoke="rgb(110, 112, 121)" my_stoke_width="1px" my_stoke_opacity="1" my_fill="none" my_fill_opacity="1" my_font_size="16px" opacity="1"/><path d="M 817.5 703 L 817.5 708" fill="none" stroke="#6E7079" stroke-width="1" paint-order="fill" stroke-opacity="1" stroke-dasharray="" stroke-linecap="butt" stroke-miterlimit="10" transform_matrix="{&quot;a&quot;:1,&quot;b&quot;:0,&quot;c&quot;:0,&quot;d&quot;:1,&quot;e&quot;:0,&quot;f&quot;:0}" my_stoke="rgb(110, 112, 121)" my_stoke_width="1px" my_stoke_opacity="1" my_fill="none" my_fill_opacity="1" my_font_size="16px" opacity="1"/><text xml:space="preserve" fill="rgb(110, 112, 121)" fill-opacity="1" stroke="none" transform="matrix(1,0,0,1,83,703)" dominant-baseline="central" text-anchor="end" x="0" y="0" style="font: 12px &quot;Microsoft YaHei&quot;; fill: rgb(110, 112, 121);" transform_matrix="{&quot;a&quot;:1,&quot;b&quot;:0,&quot;c&quot;:0,&quot;d&quot;:1,&quot;e&quot;:83,&quot;f&quot;:703}" text_bbox="{&quot;x&quot;:-7.046875,&quot;y&quot;:-8,&quot;w&quot;:7.046875,&quot;h&quot;:16}" opacity="1" stroke-width="1px" stroke-opacity="1" font-family="&quot;Microsoft YaHei&quot;" my_stoke="none" my_stoke_width="1px" my_stoke_opacity="1" my_fill="rgb(110, 112, 121)" my_fill_opacity="1" my_font_size="12px" clip-path="none" content="0">0</text><text xml:space="preserve" fill="rgb(110, 112, 121)" fill-opacity="1" stroke="none" transform="matrix(1,0,0,1,83,611.1429)" dominant-baseline="central" text-anchor="end" x="0" y="0" style="font: 12px &quot;Microsoft YaHei&quot;; fill: rgb(110, 112, 121);" transform_matrix="{&quot;a&quot;:1,&quot;b&quot;:0,&quot;c&quot;:0,&quot;d&quot;:1,&quot;e&quot;:83,&quot;f&quot;:611.1428833007812}" text_bbox="{&quot;x&quot;:-21.125,&quot;y&quot;:-8,&quot;w&quot;:21.125,&quot;h&quot;:16}" opacity="1" stroke-width="1px" stroke-opacity="1" font-family="&quot;Microsoft YaHei&quot;" my_stoke="none" my_stoke_width="1px" my_stoke_opacity="1" my_fill="rgb(110, 112, 121)" my_fill_opacity="1" my_font_size="12px" clip-path="none" content="300">300</text><text xml:space="preserve" fill="rgb(110, 112, 121)" fill-opacity="1" stroke="none" transform="matrix(1,0,0,1,83,519.2857)" dominant-baseline="central" text-anchor="end" x="0" y="0" style="font: 12px &quot;Microsoft YaHei&quot;; fill: rgb(110, 112, 121);" transform_matrix="{&quot;a&quot;:1,&quot;b&quot;:0,&quot;c&quot;:0,&quot;d&quot;:1,&quot;e&quot;:83,&quot;f&quot;:519.2857055664062}" text_bbox="{&quot;x&quot;:-21.125,&quot;y&quot;:-8,&quot;w&quot;:21.125,&quot;h&quot;:16}" opacity="1" stroke-width="1px" stroke-opacity="1" font-family="&quot;Microsoft YaHei&quot;" my_stoke="none" my_stoke_width="1px" my_stoke_opacity="1" my_fill="rgb(110, 112, 121)" my_fill_opacity="1" my_font_size="12px" clip-path="none" content="600">600</text><text xml:space="preserve" fill="rgb(110, 112, 121)" fill-opacity="1" stroke="none" transform="matrix(1,0,0,1,83,427.4286)" dominant-baseline="central" text-anchor="end" x="0" y="0" style="font: 12px &quot;Microsoft YaHei&quot;; fill: rgb(110, 112, 121);" transform_matrix="{&quot;a&quot;:1,&quot;b&quot;:0,&quot;c&quot;:0,&quot;d&quot;:1,&quot;e&quot;:83,&quot;f&quot;:427.4285888671875}" text_bbox="{&quot;x&quot;:-21.125,&quot;y&quot;:-8,&quot;w&quot;:21.125,&quot;h&quot;:16}" opacity="1" stroke-width="1px" stroke-opacity="1" font-family="&quot;Microsoft YaHei&quot;" my_stoke="none" my_stoke_width="1px" my_stoke_opacity="1" my_fill="rgb(110, 112, 121)" my_fill_opacity="1" my_font_size="12px" clip-path="none" content="900">900</text><text xml:space="preserve" fill="rgb(110, 112, 121)" fill-opacity="1" stroke="none" transform="matrix(1,0,0,1,83,335.5714)" dominant-baseline="central" text-anchor="end" x="0" y="0" style="font: 12px &quot;Microsoft YaHei&quot;; fill: rgb(110, 112, 121);" transform_matrix="{&quot;a&quot;:1,&quot;b&quot;:0,&quot;c&quot;:0,&quot;d&quot;:1,&quot;e&quot;:83,&quot;f&quot;:335.5714111328125}" text_bbox="{&quot;x&quot;:-31.046875,&quot;y&quot;:-8,&quot;w&quot;:31.046875,&quot;h&quot;:16}" opacity="1" stroke-width="1px" stroke-opacity="1" font-family="&quot;Microsoft YaHei&quot;" my_stoke="none" my_stoke_width="1px" my_stoke_opacity="1" my_fill="rgb(110, 112, 121)" my_fill_opacity="1" my_font_size="12px" clip-path="none" content="1,200">1,200</text><text xml:space="preserve" fill="rgb(110, 112, 121)" fill-opacity="1" stroke="none" transform="matrix(1,0,0,1,83,243.7143)" dominant-baseline="central" text-anchor="end" x="0" y="0" style="font: 12px &quot;Microsoft YaHei&quot;; fill: rgb(110, 112, 121);" transform_matrix="{&quot;a&quot;:1,&quot;b&quot;:0,&quot;c&quot;:0,&quot;d&quot;:1,&quot;e&quot;:83,&quot;f&quot;:243.71429443359375}" text_bbox="{&quot;x&quot;:-31.046875,&quot;y&quot;:-8,&quot;w&quot;:31.046875,&quot;h&quot;:16}" opacity="1" stroke-width="1px" stroke-opacity="1" font-family="&quot;Microsoft YaHei&quot;" my_stoke="none" my_stoke_width="1px" my_stoke_opacity="1" my_fill="rgb(110, 112, 121)" my_fill_opacity="1" my_font_size="12px" clip-path="none" content="1,500">1,500</text><text xml:space="preserve" fill="rgb(110, 112, 121)" fill-opacity="1" stroke="none" transform="matrix(1,0,0,1,83,151.8571)" dominant-baseline="central" text-anchor="end" x="0" y="0" style="font: 12px &quot;Microsoft YaHei&quot;; fill: rgb(110, 112, 121);" transform_matrix="{&quot;a&quot;:1,&quot;b&quot;:0,&quot;c&quot;:0,&quot;d&quot;:1,&quot;e&quot;:83,&quot;f&quot;:151.8571014404297}" text_bbox="{&quot;x&quot;:-31.046875,&quot;y&quot;:-8,&quot;w&quot;:31.046875,&quot;h&quot;:16}" opacity="1" stroke-width="1px" stroke-opacity="1" font-family="&quot;Microsoft YaHei&quot;" my_stoke="none" my_stoke_width="1px" my_stoke_opacity="1" my_fill="rgb(110, 112, 121)" my_fill_opacity="1" my_font_size="12px" clip-path="none" content="1,800">1,800</text><text xml:space="preserve" fill="rgb(110, 112, 121)" fill-opacity="1" stroke="none" transform="matrix(1,0,0,1,83,60)" dominant-baseline="central" text-anchor="end" x="0" y="0" style="font: 12px &quot;Microsoft YaHei&quot;; fill: rgb(110, 112, 121);" transform_matrix="{&quot;a&quot;:1,&quot;b&quot;:0,&quot;c&quot;:0,&quot;d&quot;:1,&quot;e&quot;:83,&quot;f&quot;:60}" text_bbox="{&quot;x&quot;:-31.046875,&quot;y&quot;:-8,&quot;w&quot;:31.046875,&quot;h&quot;:16}" opacity="1" stroke-width="1px" stroke-opacity="1" font-family="&quot;Microsoft YaHei&quot;" my_stoke="none" my_stoke_width="1px" my_stoke_opacity="1" my_fill="rgb(110, 112, 121)" my_fill_opacity="1" my_font_size="12px" clip-path="none" content="2,100">2,100</text><text xml:space="preserve" fill="rgb(110, 112, 121)" fill-opacity="1" stroke="none" transform="matrix(1,0,0,1,154.1211,711)" dominant-baseline="central" text-anchor="middle" x="0" y="6" style="font: bold 12px &quot;Microsoft YaHei&quot;; fill: rgb(110, 112, 121);" transform_matrix="{&quot;a&quot;:1,&quot;b&quot;:0,&quot;c&quot;:0,&quot;d&quot;:1,&quot;e&quot;:154.12109375,&quot;f&quot;:711}" text_bbox="{&quot;x&quot;:-14.8125,&quot;y&quot;:-2,&quot;w&quot;:30.21875,&quot;h&quot;:16}" opacity="1" stroke-width="1px" stroke-opacity="1" font-family="&quot;Microsoft YaHei&quot;" my_stoke="none" my_stoke_width="1px" my_stoke_opacity="1" my_fill="rgb(110, 112, 121)" my_fill_opacity="1" my_font_size="12px" clip-path="none" content="1998">1998</text><text xml:space="preserve" fill="rgb(110, 112, 121)" fill-opacity="1" stroke="none" transform="matrix(1,0,0,1,219.7067,711)" dominant-baseline="central" text-anchor="middle" x="0" y="6" style="font: 12px &quot;Microsoft YaHei&quot;; fill: rgb(110, 112, 121);" transform_matrix="{&quot;a&quot;:1,&quot;b&quot;:0,&quot;c&quot;:0,&quot;d&quot;:1,&quot;e&quot;:219.70669555664062,&quot;f&quot;:711}" text_bbox="{&quot;x&quot;:-11.359375,&quot;y&quot;:-2,&quot;w&quot;:22.125,&quot;h&quot;:16}" opacity="1" stroke-width="1px" stroke-opacity="1" font-family="&quot;Microsoft YaHei&quot;" my_stoke="none" my_stoke_width="1px" my_stoke_opacity="1" my_fill="rgb(110, 112, 121)" my_fill_opacity="1" my_font_size="12px" clip-path="none" content="Apr">Apr</text><text xml:space="preserve" fill="rgb(110, 112, 121)" fill-opacity="1" stroke="none" transform="matrix(1,0,0,1,286.021,711)" dominant-baseline="central" text-anchor="middle" x="0" y="6" style="font: 12px &quot;Microsoft YaHei&quot;; fill: rgb(110, 112, 121);" transform_matrix="{&quot;a&quot;:1,&quot;b&quot;:0,&quot;c&quot;:0,&quot;d&quot;:1,&quot;e&quot;:286.02099609375,&quot;f&quot;:711}" text_bbox="{&quot;x&quot;:-8.671875,&quot;y&quot;:-2,&quot;w&quot;:16.34375,&quot;h&quot;:16}" opacity="1" stroke-width="1px" stroke-opacity="1" font-family="&quot;Microsoft YaHei&quot;" my_stoke="none" my_stoke_width="1px" my_stoke_opacity="1" my_fill="rgb(110, 112, 121)" my_fill_opacity="1" my_font_size="12px" clip-path="none" content="Jul">Jul</text><text xml:space="preserve" fill="rgb(110, 112, 121)" fill-opacity="1" stroke="none" transform="matrix(1,0,0,1,353.064,711)" dominant-baseline="central" text-anchor="middle" x="0" y="6" style="font: 12px &quot;Microsoft YaHei&quot;; fill: rgb(110, 112, 121);" transform_matrix="{&quot;a&quot;:1,&quot;b&quot;:0,&quot;c&quot;:0,&quot;d&quot;:1,&quot;e&quot;:353.0639953613281,&quot;f&quot;:711}" text_bbox="{&quot;x&quot;:-10.140625,&quot;y&quot;:-2,&quot;w&quot;:20.8125,&quot;h&quot;:16}" opacity="1" stroke-width="1px" stroke-opacity="1" font-family="&quot;Microsoft YaHei&quot;" my_stoke="none" my_stoke_width="1px" my_stoke_opacity="1" my_fill="rgb(110, 112, 121)" my_fill_opacity="1" my_font_size="12px" clip-path="none" content="Oct">Oct</text><text xml:space="preserve" fill="rgb(110, 112, 121)" fill-opacity="1" stroke="none" transform="matrix(1,0,0,1,420.1071,711)" dominant-baseline="central" text-anchor="middle" x="0" y="6" style="font: bold 12px &quot;Microsoft YaHei&quot;; fill: rgb(110, 112, 121);" transform_matrix="{&quot;a&quot;:1,&quot;b&quot;:0,&quot;c&quot;:0,&quot;d&quot;:1,&quot;e&quot;:420.1070861816406,&quot;f&quot;:711}" text_bbox="{&quot;x&quot;:-14.8125,&quot;y&quot;:-2,&quot;w&quot;:30.21875,&quot;h&quot;:16}" opacity="1" stroke-width="1px" stroke-opacity="1" font-family="&quot;Microsoft YaHei&quot;" my_stoke="none" my_stoke_width="1px" my_stoke_opacity="1" my_fill="rgb(110, 112, 121)" my_fill_opacity="1" my_font_size="12px" clip-path="none" content="1999">1999</text><text xml:space="preserve" fill="rgb(110, 112, 121)" fill-opacity="1" stroke="none" transform="matrix(1,0,0,1,485.6927,711)" dominant-baseline="central" text-anchor="middle" x="0" y="6" style="font: 12px &quot;Microsoft YaHei&quot;; fill: rgb(110, 112, 121);" transform_matrix="{&quot;a&quot;:1,&quot;b&quot;:0,&quot;c&quot;:0,&quot;d&quot;:1,&quot;e&quot;:485.69268798828125,&quot;f&quot;:711}" text_bbox="{&quot;x&quot;:-11.359375,&quot;y&quot;:-2,&quot;w&quot;:22.125,&quot;h&quot;:16}" opacity="1" stroke-width="1px" stroke-opacity="1" font-family="&quot;Microsoft YaHei&quot;" my_stoke="none" my_stoke_width="1px" my_stoke_opacity="1" my_fill="rgb(110, 112, 121)" my_fill_opacity="1" my_font_size="12px" clip-path="none" content="Apr">Apr</text><text xml:space="preserve" fill="rgb(110, 112, 121)" fill-opacity="1" stroke="none" transform="matrix(1,0,0,1,552.007,711)" dominant-baseline="central" text-anchor="middle" x="0" y="6" style="font: 12px &quot;Microsoft YaHei&quot;; fill: rgb(110, 112, 121);" transform_matrix="{&quot;a&quot;:1,&quot;b&quot;:0,&quot;c&quot;:0,&quot;d&quot;:1,&quot;e&quot;:552.0070190429688,&quot;f&quot;:711}" text_bbox="{&quot;x&quot;:-8.671875,&quot;y&quot;:-2,&quot;w&quot;:16.34375,&quot;h&quot;:16}" opacity="1" stroke-width="1px" stroke-opacity="1" font-family="&quot;Microsoft YaHei&quot;" my_stoke="none" my_stoke_width="1px" my_stoke_opacity="1" my_fill="rgb(110, 112, 121)" my_fill_opacity="1" my_font_size="12px" clip-path="none" content="Jul">Jul</text><text xml:space="preserve" fill="rgb(110, 112, 121)" fill-opacity="1" stroke="none" transform="matrix(1,0,0,1,619.05,711)" dominant-baseline="central" text-anchor="middle" x="0" y="6" style="font: 12px &quot;Microsoft YaHei&quot;; fill: rgb(110, 112, 121);" transform_matrix="{&quot;a&quot;:1,&quot;b&quot;:0,&quot;c&quot;:0,&quot;d&quot;:1,&quot;e&quot;:619.0499877929688,&quot;f&quot;:711}" text_bbox="{&quot;x&quot;:-10.140625,&quot;y&quot;:-2,&quot;w&quot;:20.8125,&quot;h&quot;:16}" opacity="1" stroke-width="1px" stroke-opacity="1" font-family="&quot;Microsoft YaHei&quot;" my_stoke="none" my_stoke_width="1px" my_stoke_opacity="1" my_fill="rgb(110, 112, 121)" my_fill_opacity="1" my_font_size="12px" clip-path="none" content="Oct">Oct</text><text xml:space="preserve" fill="rgb(110, 112, 121)" fill-opacity="1" stroke="none" transform="matrix(1,0,0,1,686.0931,711)" dominant-baseline="central" text-anchor="middle" x="0" y="6" style="font: bold 12px &quot;Microsoft YaHei&quot;; fill: rgb(110, 112, 121);" transform_matrix="{&quot;a&quot;:1,&quot;b&quot;:0,&quot;c&quot;:0,&quot;d&quot;:1,&quot;e&quot;:686.0930786132812,&quot;f&quot;:711}" text_bbox="{&quot;x&quot;:-14.8125,&quot;y&quot;:-2,&quot;w&quot;:30.21875,&quot;h&quot;:16}" opacity="1" stroke-width="1px" stroke-opacity="1" font-family="&quot;Microsoft YaHei&quot;" my_stoke="none" my_stoke_width="1px" my_stoke_opacity="1" my_fill="rgb(110, 112, 121)" my_fill_opacity="1" my_font_size="12px" clip-path="none" content="2000">2000</text><text xml:space="preserve" fill="rgb(110, 112, 121)" fill-opacity="1" stroke="none" transform="matrix(1,0,0,1,752.4074,711)" dominant-baseline="central" text-anchor="middle" x="0" y="6" style="font: 12px &quot;Microsoft YaHei&quot;; fill: rgb(110, 112, 121);" transform_matrix="{&quot;a&quot;:1,&quot;b&quot;:0,&quot;c&quot;:0,&quot;d&quot;:1,&quot;e&quot;:752.4074096679688,&quot;f&quot;:711}" text_bbox="{&quot;x&quot;:-11.359375,&quot;y&quot;:-2,&quot;w&quot;:22.125,&quot;h&quot;:16}" opacity="1" stroke-width="1px" stroke-opacity="1" font-family="&quot;Microsoft YaHei&quot;" my_stoke="none" my_stoke_width="1px" my_stoke_opacity="1" my_fill="rgb(110, 112, 121)" my_fill_opacity="1" my_font_size="12px" clip-path="none" content="Apr">Apr</text><text xml:space="preserve" fill="rgb(110, 112, 121)" fill-opacity="1" stroke="none" transform="matrix(1,0,0,1,816.8138,711)" dominant-baseline="central" text-anchor="middle" x="0" y="6" style="font: 12px &quot;Microsoft YaHei&quot;; fill: rgb(110, 112, 121);" transform_matrix="{&quot;a&quot;:1,&quot;b&quot;:0,&quot;c&quot;:0,&quot;d&quot;:1,&quot;e&quot;:816.8137817382812,&quot;f&quot;:711}" text_bbox="{&quot;x&quot;:-8.671875,&quot;y&quot;:-2,&quot;w&quot;:16.34375,&quot;h&quot;:16}" opacity="1" stroke-width="1px" stroke-opacity="1" font-family="&quot;Microsoft YaHei&quot;" my_stoke="none" my_stoke_width="1px" my_stoke_opacity="1" my_fill="rgb(110, 112, 121)" my_fill_opacity="1" my_font_size="12px" clip-path="none" content="Jul">Jul</text><g clip-path="url(#zr2392-clip-1)"><path d="M 92.9079 494.7905 L 93.6366 492.0348 L 94.3653 488.9729 L 95.0941 489.5852 L 95.8228 488.6667 L 96.5515 488.6667 L 97.2803 487.7481 L 98.009 488.6667 L 98.7377 490.5038 L 99.4664 488.9729 L 100.1952 490.5038 L 100.9239 490.81 L 101.6526 488.0543 L 102.3814 485.2986 L 103.1101 484.6862 L 103.8388 482.5428 L 104.5675 483.7676 L 105.2963 481.3181 L 106.025 479.7871 L 106.7537 477.95 L 107.4825 480.3995 L 108.2112 481.3181 L 108.9399 479.7871 L 109.6686 477.3376 L 110.3974 476.419 L 111.1261 474.5819 L 111.8548 473.6633 L 112.5836 476.7253 L 113.3123 476.1129 L 114.041 477.6438 L 114.7697 477.3376 L 115.4985 474.2757 L 116.2272 477.3376 L 116.9559 475.5005 L 117.6847 476.7253 L 118.4134 473.3571 L 119.1421 473.6633 L 119.8708 473.3571 L 120.5996 475.1943 L 121.3283 476.419 L 122.057 473.6633 L 122.7858 472.1324 L 123.5145 470.2952 L 124.2432 471.2138 L 124.9719 472.1324 L 125.7007 469.989 L 126.4294 471.52 L 127.1581 473.6633 L 127.8869 470.6014 L 128.6156 473.3571 L 129.3443 469.989 L 130.073 468.4581 L 130.8018 468.4581 L 131.5305 469.989 L 132.2592 468.4581 L 132.988 469.0705 L 133.7167 465.7024 L 134.4454 467.5395 L 135.1741 469.3767 L 135.9029 466.9272 L 136.6316 467.5395 L 137.3603 468.1519 L 138.0891 467.5395 L 138.8178 464.1714 L 139.5465 465.09 L 140.2753 465.09 L 141.004 463.8652 L 141.7327 461.7219 L 142.4614 461.1095 L 143.1902 463.5591 L 143.9189 460.4971 L 144.6476 459.8848 L 145.3763 457.4352 L 146.1051 459.8848 L 146.8338 460.1909 L 147.5625 462.6405 L 148.2913 459.5786 L 149.02 459.8848 L 149.7487 460.8033 L 150.4774 463.5591 L 151.2062 463.8652 L 151.9349 464.4776 L 152.6636 462.0281 L 153.3924 462.9467 L 154.1211 465.09 L 154.8498 466.0086 L 155.5786 464.1714 L 156.3073 466.6209 L 157.036 463.8652 L 157.7647 461.7219 L 158.4935 462.0281 L 159.2222 460.1909 L 159.9509 457.7414 L 160.6797 455.9043 L 161.4084 457.7414 L 162.1371 458.66 L 162.8658 457.1291 L 163.5946 455.2919 L 164.3233 455.9043 L 165.052 457.4352 L 165.7807 457.4352 L 166.5095 458.0476 L 167.2382 457.1291 L 167.9669 456.5167 L 168.6957 455.9043 L 169.4244 452.8424 L 170.1531 454.9857 L 170.8819 456.2105 L 171.6106 453.1486 L 172.3393 454.3733 L 173.068 453.761 L 173.7968 451.9238 L 174.5255 449.4743 L 175.2542 451.0052 L 175.983 452.23 L 176.7117 451.9238 L 177.4404 451.3114 L 178.1691 450.3929 L 178.8979 450.0867 L 179.6266 447.331 L 180.3553 446.4124 L 181.0841 447.9433 L 181.8128 445.1876 L 182.5415 444.8814 L 183.2702 441.8195 L 183.999 443.0443 L 184.7277 444.8814 L 185.4564 447.0247 L 186.1852 445.8 L 186.9139 448.2495 L 187.6426 447.6371 L 188.3713 449.7805 L 189.1001 446.7186 L 189.8288 449.4743 L 190.5575 446.1062 L 191.2863 443.6567 L 192.015 440.2886 L 192.7437 442.4319 L 193.4724 442.4319 L 194.2012 439.6762 L 194.9299 438.7576 L 195.6586 439.37 L 196.3874 440.9009 L 197.1161 441.5133 L 197.8448 443.6567 L 198.5735 444.8814 L 199.3023 447.0247 L 200.031 448.8619 L 200.7597 447.331 L 201.4885 445.4938 L 202.2172 443.9629 L 202.9459 443.6567 L 203.6747 440.5948 L 204.4034 442.7381 L 205.1321 443.6567 L 205.8608 441.8195 L 206.5896 444.269 L 207.3183 442.4319 L 208.047 441.8195 L 208.7757 442.7381 L 209.5045 441.2072 L 210.2332 437.8391 L 210.9619 439.37 L 211.6907 439.6762 L 212.4194 438.4514 L 213.1481 437.2267 L 213.8768 435.0833 L 214.6056 432.94 L 215.3343 434.1648 L 216.063 432.3276 L 216.7918 432.0214 L 217.5205 434.7771 L 218.2492 433.5524 L 218.978 435.6957 L 219.7067 436.9205 L 220.4354 435.0833 L 221.1641 431.7152 L 221.8929 430.7967 L 222.6216 432.94 L 223.3503 429.8781 L 224.0791 431.4091 L 224.8078 431.7152 L 225.5365 430.7967 L 226.2652 428.6533 L 226.994 429.2657 L 227.7227 428.9595 L 228.4514 429.8781 L 229.1801 432.3276 L 229.9089 432.6338 L 230.6376 433.8586 L 231.3663 436.0019 L 232.0951 434.1648 L 232.8238 436.9205 L 233.5525 436.6143 L 234.2813 435.0833 L 235.01 434.4709 L 235.7387 431.7152 L 236.4674 431.7152 L 237.1962 430.4905 L 237.9249 430.4905 L 238.6536 433.5524 L 239.3824 432.6338 L 240.1111 429.5719 L 240.8398 430.4905 L 241.5685 429.2657 L 242.2973 429.5719 L 243.026 427.7348 L 243.7547 429.8781 L 244.4835 429.2657 L 245.2122 429.8781 L 245.9409 431.4091 L 246.6696 429.2657 L 247.3984 427.7348 L 248.1271 428.041 L 248.8558 425.5914 L 249.5846 428.6533 L 250.3133 426.51 L 251.042 424.979 L 251.7707 425.5914 L 252.4995 425.2852 L 253.2282 426.8162 L 253.9569 427.1224 L 254.6857 430.1843 L 255.4144 429.5719 L 256.1431 432.3276 L 256.8718 432.6338 L 257.6006 435.0833 L 258.3293 431.7152 L 259.058 432.6338 L 259.7867 433.5524 L 260.5155 434.4709 L 261.2442 433.5524 L 261.9729 432.3276 L 262.7017 433.8586 L 263.4304 430.4905 L 264.1591 428.6533 L 264.8878 428.9595 L 265.6166 425.8976 L 266.3453 427.7348 L 267.074 428.041 L 267.8028 427.7348 L 268.5315 430.7967 L 269.2602 429.5719 L 269.989 426.8162 L 270.7177 423.7543 L 271.4464 424.3667 L 272.1751 422.2233 L 272.9039 422.8357 L 273.6326 425.2852 L 274.3613 423.7543 L 275.0901 425.5914 L 275.8188 428.041 L 276.5475 428.3471 L 277.2762 428.3471 L 278.005 429.5719 L 278.7337 431.7152 L 279.4624 432.94 L 280.1912 434.7771 L 280.9199 436.3081 L 281.6486 434.7771 L 282.3773 431.4091 L 283.1061 432.3276 L 283.8348 431.1028 L 284.5635 432.0214 L 285.2923 435.0833 L 286.021 435.0833 L 286.7497 436.0019 L 287.4784 437.2267 L 288.2072 439.6762 L 288.9359 440.9009 L 289.6646 441.2072 L 290.3933 438.7576 L 291.1221 439.37 L 291.8508 436.6143 L 292.5795 433.5524 L 293.3083 434.7771 L 294.037 435.6957 L 294.7657 432.6338 L 295.4944 432.3276 L 296.2232 430.1843 L 296.9519 428.6533 L 297.6806 426.2038 L 298.4094 423.4481 L 299.1381 421.611 L 299.8668 422.5295 L 300.5956 419.7738 L 301.3243 417.6305 L 302.053 419.7738 L 302.7817 418.549 L 303.5105 415.4872 L 304.2392 417.3243 L 304.9679 416.4057 L 305.6967 415.1809 L 306.4254 416.4057 L 307.1541 414.8748 L 307.8828 411.5067 L 308.6116 411.5067 L 309.3403 412.4252 L 310.069 415.4872 L 310.7978 417.3243 L 311.5265 418.549 L 312.2552 416.7119 L 312.9839 417.9367 L 313.7127 420.9986 L 314.4414 424.0605 L 315.1701 423.4481 L 315.8989 425.5914 L 316.6276 427.1224 L 317.3563 429.8781 L 318.0851 427.7348 L 318.8138 424.979 L 319.5425 424.3667 L 320.2712 425.8976 L 321 428.3471 L 321.7287 425.5914 L 322.4574 426.51 L 323.1862 423.7543 L 323.9149 422.2233 L 324.6436 424.6729 L 325.3723 425.8976 L 326.1011 428.041 L 326.8298 426.2038 L 327.5585 427.1224 L 328.2873 423.7543 L 329.016 421.3047 L 329.7447 418.8552 L 330.4734 418.549 L 331.2021 417.6305 L 331.9309 420.3862 L 332.6596 418.2429 L 333.3883 417.3243 L 334.1171 420.3862 L 334.8458 417.3243 L 335.5745 416.7119 L 336.3033 419.4676 L 337.032 420.6924 L 337.7607 418.2429 L 338.4894 417.9367 L 339.2182 417.6305 L 339.9469 420.08 L 340.6756 417.6305 L 341.4044 414.5686 L 342.1331 417.0181 L 342.8618 417.0181 L 343.5905 416.4057 L 344.3193 414.2624 L 345.048 417.0181 L 345.7767 417.0181 L 346.5055 419.1614 L 347.2342 418.8552 L 347.9629 415.4872 L 348.6917 417.9367 L 349.4204 420.08 L 350.1491 419.1614 L 350.8778 420.08 L 351.6066 418.2429 L 352.3353 416.0995 L 353.064 414.8748 L 353.7928 417.3243 L 354.5215 418.549 L 355.2502 415.4872 L 355.9789 412.7314 L 356.7077 411.2005 L 357.4364 408.1386 L 358.1651 405.3828 L 358.8939 405.0767 L 359.6226 402.0148 L 360.3513 398.6467 L 361.08 395.2786 L 361.8088 396.5033 L 362.5375 398.0343 L 363.2662 399.8714 L 363.995 398.3405 L 364.7237 398.9529 L 365.4524 397.1157 L 366.1812 399.8714 L 366.9099 397.1157 L 367.6386 394.9724 L 368.3673 395.5847 L 369.0961 396.1971 L 369.8248 394.9724 L 370.5535 395.891 L 371.2822 396.5033 L 372.011 398.3405 L 372.7397 397.4219 L 373.4684 399.259 L 374.1971 398.6467 L 374.9259 399.5652 L 375.6546 396.8095 L 376.3833 398.9529 L 377.1121 396.1971 L 377.8408 396.1971 L 378.5695 395.2786 L 379.2982 392.2167 L 380.027 393.1352 L 380.7557 390.0733 L 381.4844 386.7052 L 382.2132 387.0114 L 382.9419 389.1548 L 383.6706 388.8486 L 384.3994 386.399 L 385.1281 383.9495 L 385.8568 383.9495 L 386.5855 387.0114 L 387.3143 386.7052 L 388.043 385.7867 L 388.7717 386.0929 L 389.5005 385.7867 L 390.2292 386.7052 L 390.9579 384.8681 L 391.6866 386.0929 L 392.4154 387.6238 L 393.1441 387.93 L 393.8728 390.0733 L 394.6016 386.7052 L 395.3303 388.5424 L 396.059 389.1548 L 396.7878 388.8486 L 397.5165 390.3795 L 398.2452 387.6238 L 398.9739 384.8681 L 399.7027 385.4805 L 400.4314 383.6433 L 401.1601 382.7248 L 401.8889 382.4186 L 402.6176 383.6433 L 403.3463 382.4186 L 404.075 384.8681 L 404.8038 384.5619 L 405.5325 381.8062 L 406.2612 379.9691 L 406.99 378.4381 L 407.7187 375.9886 L 408.4474 375.9886 L 409.1761 372.6205 L 409.9049 373.5391 L 410.6336 375.3762 L 411.3623 373.8452 L 412.0911 374.1514 L 412.8198 371.0895 L 413.5485 369.2524 L 414.2772 366.4967 L 415.006 366.4967 L 415.7347 367.109 L 416.4634 369.2524 L 417.1921 372.3143 L 417.9209 374.1514 L 418.6496 372.0081 L 419.3783 373.5391 L 420.1071 374.7638 L 420.8358 375.6824 L 421.5645 372.9267 L 422.2932 375.07 L 423.022 375.6824 L 423.7507 377.5195 L 424.4794 379.0505 L 425.2082 378.4381 L 425.9369 375.6824 L 426.6656 377.2133 L 427.3943 379.0505 L 428.1231 378.7443 L 428.8518 377.2133 L 429.5805 374.4576 L 430.3093 377.5195 L 431.038 379.3567 L 431.7667 377.8257 L 432.4955 378.1319 L 433.2242 375.9886 L 433.9529 373.8452 L 434.6816 371.0895 L 435.4104 372.6205 L 436.1391 373.8452 L 436.8678 374.4576 L 437.5966 371.7019 L 438.3253 368.64 L 439.054 368.64 L 439.7827 368.64 L 440.5115 369.5586 L 441.2402 372.6205 L 441.9689 373.2328 L 442.6977 372.6205 L 443.4264 371.7019 L 444.1551 368.64 L 444.8839 367.109 L 445.6126 367.4153 L 446.3413 365.2719 L 447.07 364.6595 L 447.7988 365.5781 L 448.5275 367.7214 L 449.2562 368.64 L 449.985 365.5781 L 450.7137 366.4967 L 451.4424 364.6595 L 452.1711 364.9657 L 452.8999 362.5162 L 453.6286 360.9852 L 454.3573 362.21 L 455.0861 363.741 L 455.8148 363.1286 L 456.5435 366.1905 L 457.2722 366.4967 L 458.0009 365.5781 L 458.7297 364.3533 L 459.4584 363.1286 L 460.1871 360.3729 L 460.9159 360.3729 L 461.6446 359.4543 L 462.3733 360.679 L 463.1021 363.4348 L 463.8308 364.3533 L 464.5595 363.4348 L 465.2882 364.0471 L 466.017 361.2914 L 466.7457 361.5976 L 467.4744 359.1481 L 468.2032 357.6172 L 468.9319 359.1481 L 469.6606 357.3109 L 470.3893 359.1481 L 471.1181 359.4543 L 471.8468 358.8419 L 472.5755 356.0862 L 473.3043 356.0862 L 474.033 356.6986 L 474.7617 357.0048 L 475.4904 357.6172 L 476.2192 360.679 L 476.9479 358.5357 L 477.6766 356.6986 L 478.4054 354.2491 L 479.1341 355.1676 L 479.8628 356.3924 L 480.5916 358.8419 L 481.3203 361.5976 L 482.049 358.8419 L 482.7777 358.5357 L 483.5065 357.0048 L 484.2352 359.7605 L 484.9639 362.5162 L 485.6927 364.6595 L 486.4214 365.2719 L 487.1501 362.5162 L 487.8788 364.3533 L 488.6076 367.109 L 489.3363 368.0276 L 490.065 368.0276 L 490.7938 370.4771 L 491.5225 371.7019 L 492.2512 369.5586 L 492.9799 366.8029 L 493.7087 364.3533 L 494.4374 364.9657 L 495.1661 366.1905 L 495.8949 367.4153 L 496.6236 366.4967 L 497.3523 368.64 L 498.0811 368.9462 L 498.8098 369.2524 L 499.5385 369.2524 L 500.2672 366.1905 L 500.9959 366.8029 L 501.7247 369.2524 L 502.4534 372.0081 L 503.1821 374.1514 L 503.9109 370.7833 L 504.6396 368.0276 L 505.3683 367.7214 L 506.097 368.64 L 506.8258 369.5586 L 507.5545 368.0276 L 508.2832 365.2719 L 509.012 364.9657 L 509.7407 367.7214 L 510.4694 366.8029 L 511.1982 367.7214 L 511.9269 364.6595 L 512.6556 367.4153 L 513.3843 368.3338 L 514.1131 368.0276 L 514.8418 367.109 L 515.5706 364.3533 L 516.2993 361.5976 L 517.028 361.2914 L 517.7567 359.4543 L 518.4854 356.3924 L 519.2142 353.3305 L 519.9429 352.1057 L 520.6716 354.2491 L 521.4003 355.78 L 522.1291 356.0862 L 522.8578 359.1481 L 523.5865 361.2914 L 524.3152 358.2295 L 525.044 359.4543 L 525.7727 361.2914 L 526.5015 360.9852 L 527.2302 362.5162 L 527.9589 360.679 L 528.6876 362.21 L 529.4164 360.679 L 530.1451 363.4348 L 530.8738 360.3729 L 531.6025 359.1481 L 532.3313 360.0667 L 533.06 357.6172 L 533.7888 357.3109 L 534.5175 354.2491 L 535.2462 351.1871 L 535.9749 349.35 L 536.7037 348.7376 L 537.4324 349.0438 L 538.1611 347.2067 L 538.8898 346.2881 L 539.6186 346.5943 L 540.3473 347.2067 L 541.076 349.0438 L 541.8047 350.881 L 542.5335 352.4119 L 543.2622 351.4933 L 543.991 351.7995 L 544.7197 351.7995 L 545.4484 350.5748 L 546.1771 351.1871 L 546.9059 352.1057 L 547.6346 352.7181 L 548.3633 353.0243 L 549.092 355.1676 L 549.8208 356.0862 L 550.5495 356.0862 L 551.2783 357.0048 L 552.007 353.6367 L 552.7357 356.6986 L 553.4644 358.2295 L 554.1932 361.2914 L 554.9219 362.5162 L 555.6506 365.2719 L 556.3793 363.741 L 557.1081 363.1286 L 557.8368 361.2914 L 558.5656 359.1481 L 559.2943 362.21 L 560.023 361.5976 L 560.7517 359.7605 L 561.4804 358.2295 L 562.2092 355.78 L 562.9379 358.8419 L 563.6666 356.3924 L 564.3953 357.0048 L 565.1241 356.6986 L 565.8528 357.3109 L 566.5815 355.78 L 567.3102 352.4119 L 568.039 355.4738 L 568.7677 358.2295 L 569.4965 357.9233 L 570.2252 360.679 L 570.9539 357.9233 L 571.6826 360.0667 L 572.4114 359.7605 L 573.1401 360.9852 L 573.8688 361.2914 L 574.5975 360.679 L 575.3263 359.7605 L 576.055 361.9038 L 576.7838 360.9852 L 577.5125 360.9852 L 578.2412 357.9233 L 578.9699 358.5357 L 579.6987 358.2295 L 580.4274 359.1481 L 581.1561 361.9038 L 581.8848 361.2914 L 582.6136 364.0471 L 583.3423 362.8224 L 584.071 361.5976 L 584.7997 362.8224 L 585.5285 360.3729 L 586.2572 363.1286 L 586.986 363.1286 L 587.7147 360.9852 L 588.4434 363.1286 L 589.1721 361.9038 L 589.9009 359.7605 L 590.6296 362.5162 L 591.3583 359.4543 L 592.087 357.3109 L 592.8158 355.4738 L 593.5445 353.0243 L 594.2733 353.9429 L 595.002 353.0243 L 595.7307 350.881 L 596.4594 350.881 L 597.1882 353.6367 L 597.9169 350.5748 L 598.6456 349.35 L 599.3743 351.1871 L 600.1031 353.0243 L 600.8318 350.2686 L 601.5605 350.881 L 602.2892 348.1252 L 603.018 349.35 L 603.7467 350.5748 L 604.4754 349.6562 L 605.2042 346.2881 L 605.9329 348.1252 L 606.6616 346.2881 L 607.3903 346.2881 L 608.1191 345.3695 L 608.8478 347.2067 L 609.5765 350.2686 L 610.3052 351.7995 L 611.034 352.7181 L 611.7627 351.7995 L 612.4915 352.1057 L 613.2202 349.0438 L 613.9489 349.9624 L 614.6776 348.7376 L 615.4064 351.1871 L 616.1351 348.7376 L 616.8638 345.9819 L 617.5925 346.9005 L 618.3213 346.9005 L 619.05 347.5128 L 619.7787 349.9624 L 620.5074 348.4314 L 621.2362 350.881 L 621.9649 348.4314 L 622.6937 346.5943 L 623.4224 345.6757 L 624.1511 342.92 L 624.8798 340.1643 L 625.6086 337.7148 L 626.3373 335.5714 L 627.066 333.1219 L 627.7947 331.2848 L 628.5235 327.9167 L 629.2522 328.8352 L 629.981 329.4476 L 630.7097 330.3662 L 631.4384 331.5909 L 632.1671 329.4476 L 632.8959 327.3043 L 633.6246 327.6105 L 634.3533 330.3662 L 635.082 331.5909 L 635.8108 328.8352 L 636.5395 328.2229 L 637.2682 330.3662 L 637.9969 330.3662 L 638.7257 328.8352 L 639.4544 331.2848 L 640.1832 331.8972 L 640.9119 330.9786 L 641.6406 330.6724 L 642.3693 332.2033 L 643.0981 332.8157 L 643.8268 331.8972 L 644.5555 329.7538 L 645.2842 327.3043 L 646.0129 328.2229 L 646.7417 330.06 L 647.4704 332.8157 L 648.1992 330.06 L 648.9279 332.5095 L 649.6566 330.6724 L 650.3853 327.9167 L 651.1141 327.9167 L 651.8428 329.7538 L 652.5715 330.06 L 653.3002 330.9786 L 654.029 331.8972 L 654.7577 330.6724 L 655.4865 333.1219 L 656.2151 333.4281 L 656.9439 330.06 L 657.6726 332.8157 L 658.4014 330.9786 L 659.1301 329.1414 L 659.8588 329.4476 L 660.5875 328.5291 L 661.3163 328.8352 L 662.045 327.3043 L 662.7737 327.9167 L 663.5024 330.9786 L 664.2312 331.2848 L 664.9599 334.0405 L 665.6887 335.2652 L 666.4174 333.7343 L 667.1461 333.7343 L 667.8748 335.5714 L 668.6036 333.1219 L 669.3323 330.6724 L 670.061 328.8352 L 670.7897 326.6919 L 671.5185 328.5291 L 672.2472 329.4476 L 672.976 330.06 L 673.7047 330.06 L 674.4334 326.9981 L 675.1621 323.9362 L 675.8909 325.1609 L 676.6196 326.6919 L 677.3483 326.6919 L 678.077 329.4476 L 678.8058 330.6724 L 679.5345 329.4476 L 680.2632 329.4476 L 680.9919 326.6919 L 681.7207 329.4476 L 682.4494 330.3662 L 683.1782 333.1219 L 683.9069 335.8776 L 684.6356 333.4281 L 685.3643 332.5095 L 686.0931 332.8157 L 686.8218 335.2652 L 687.5505 337.4086 L 688.2792 335.5714 L 689.0079 334.3467 L 689.7367 331.2848 L 690.4654 330.3662 L 691.1942 330.3662 L 691.9229 330.3662 L 692.6516 327.3043 L 693.3803 326.9981 L 694.1091 324.5486 L 694.8378 326.0795 L 695.5665 324.5486 L 696.2952 322.7114 L 697.024 325.4671 L 697.7527 326.0795 L 698.4814 324.2424 L 699.2101 325.7733 L 699.9389 324.5486 L 700.6676 322.0991 L 701.3964 324.2424 L 702.1251 326.0795 L 702.8538 325.1609 L 703.5825 322.4052 L 704.3113 319.6495 L 705.04 321.1805 L 705.7687 321.7928 L 706.4974 324.5486 L 707.2262 323.9362 L 707.9549 321.4867 L 708.6837 321.1805 L 709.4124 322.4052 L 710.1411 325.1609 L 710.8698 326.0795 L 711.5986 328.2229 L 712.3273 330.06 L 713.056 326.9981 L 713.7847 324.2424 L 714.5135 324.2424 L 715.2422 322.7114 L 715.9709 325.1609 L 716.6996 323.63 L 717.4284 322.7114 L 718.1571 321.4867 L 718.8859 322.7114 L 719.6146 325.7733 L 720.3433 326.0795 L 721.072 323.9362 L 721.8008 320.5681 L 722.5295 322.4052 L 723.2582 325.4671 L 723.9869 322.7114 L 724.7157 323.9362 L 725.4444 326.0795 L 726.1732 326.6919 L 726.9019 325.1609 L 727.6306 326.0795 L 728.3593 328.2229 L 729.0881 328.2229 L 729.8168 325.4671 L 730.5455 326.3857 L 731.2742 328.5291 L 732.0029 330.9786 L 732.7317 327.9167 L 733.4604 329.7538 L 734.1891 328.2229 L 734.9178 330.06 L 735.6466 328.8352 L 736.3753 330.6724 L 737.1041 328.8352 L 737.8328 329.7538 L 738.5615 329.4476 L 739.2902 330.3662 L 740.019 332.2033 L 740.7477 333.4281 L 741.4764 330.9786 L 742.2051 329.4476 L 742.9339 330.06 L 743.6626 330.6724 L 744.3914 330.06 L 745.1201 327.3043 L 745.8488 326.3857 L 746.5775 324.8548 L 747.3063 326.6919 L 748.035 324.8548 L 748.7637 326.6919 L 749.4924 326.9981 L 750.2212 325.4671 L 750.9499 322.4052 L 751.6786 325.4671 L 752.4073 325.4671 L 753.1361 326.3857 L 753.8648 328.5291 L 754.5936 328.5291 L 755.3223 325.4671 L 756.051 326.3857 L 756.7797 326.6919 L 757.5085 326.3857 L 758.2372 325.1609 L 758.9659 322.7114 L 759.6946 323.9362 L 760.4234 320.5681 L 761.1521 318.731 L 761.8809 319.9557 L 762.6096 321.4867 L 763.3383 320.5681 L 764.067 319.6495 L 764.7958 319.9557 L 765.5245 318.4248 L 766.2532 320.2619 L 766.9819 318.1186 L 767.7107 319.3433 L 768.4394 321.7928 L 769.1682 324.2424 L 769.8969 324.2424 L 770.6256 325.1609 L 771.3543 324.8548 L 772.0831 326.6919 L 772.8118 326.3857 L 773.5405 325.7733 L 774.2692 324.8548 L 774.9979 327.3043 L 775.7267 326.3857 L 776.4554 326.3857 L 777.1841 328.5291 L 777.9128 327.9167 L 778.6416 328.5291 L 779.3703 329.1414 L 780.0991 332.2033 L 780.8278 330.6724 L 781.5565 328.2229 L 782.2852 325.1609 L 783.014 326.9981 L 783.7427 329.4476 L 784.4714 331.5909 L 785.2001 330.06 L 785.9289 326.9981 L 786.6576 324.5486 L 787.3864 326.3857 L 788.1151 325.1609 L 788.8438 324.8548 L 789.5725 324.8548 L 790.3013 327.3043 L 791.03 328.5291 L 791.7587 330.9786 L 792.4874 331.8972 L 793.2162 331.8972 L 793.9449 331.8972 L 794.6736 328.5291 L 795.4023 329.7538 L 796.1311 329.7538 L 796.8598 328.8352 L 797.5886 330.9786 L 798.3173 330.06 L 799.046 332.8157 L 799.7747 330.9786 L 800.5035 331.2848 L 801.2322 332.5095 L 801.9609 334.0405 L 802.6896 332.8157 L 803.4184 333.4281 L 804.1471 332.8157 L 804.8759 335.5714 L 805.6046 334.3467 L 806.3333 335.5714 L 807.062 332.8157 L 807.7908 330.3662 L 808.5195 330.3662 L 809.2482 328.2229 L 809.9769 325.1609 L 810.7057 325.7733 L 811.4344 324.2424 L 812.1631 323.9362 L 812.8918 326.0795 L 813.6206 326.3857 L 814.3493 328.8352 L 815.0781 330.6724 L 815.8068 328.5291 L 816.5355 331.2848 L 817.2642 332.5095 L 817.9929 334.6529 L 818.7217 331.8972 L 819.4504 334.0405 L 820.1791 331.5909 L 820.9078 331.8972" fill="none" stroke="#5470c6" stroke-width="2" paint-order="fill" stroke-opacity="1" stroke-dasharray="" stroke-linecap="butt" stroke-linejoin="bevel" stroke-miterlimit="10" transform_matrix="{&quot;a&quot;:1,&quot;b&quot;:0,&quot;c&quot;:0,&quot;d&quot;:1,&quot;e&quot;:0,&quot;f&quot;:0}" my_stoke="rgb(84, 112, 198)" my_stoke_width="2px" my_stoke_opacity="1" my_fill="none" my_fill_opacity="1" my_font_size="16px" opacity="1"/></g><path d="M -5 -5 L 191.4248 -5 L 191.4248 23 L -5 23 L -5 -5 Z" fill="rgb(0, 0, 0)" fill-opacity="0" stroke="#ccc" stroke-width="0" paint-order="fill" stroke-opacity="1" stroke-dasharray="" stroke-linecap="butt" stroke-miterlimit="10" transform="matrix(1,0,0,1,5,5)" transform_matrix="{&quot;a&quot;:1,&quot;b&quot;:0,&quot;c&quot;:0,&quot;d&quot;:1,&quot;e&quot;:5,&quot;f&quot;:5}" my_stoke="rgb(204, 204, 204)" my_stoke_width="0px" my_stoke_opacity="1" my_fill="rgb(0, 0, 0)" my_fill_opacity="0" my_font_size="16px" opacity="1"/><text xml:space="preserve" fill="rgb(70, 70, 70)" fill-opacity="1" stroke="none" transform="matrix(1,0,0,1,5,5)" dominant-baseline="central" text-anchor="start" x="0" y="9" style="font: bold 18px &quot;Microsoft YaHei&quot;; fill: rgb(70, 70, 70);" transform_matrix="{&quot;a&quot;:1,&quot;b&quot;:0,&quot;c&quot;:0,&quot;d&quot;:1,&quot;e&quot;:5,&quot;f&quot;:5}" text_bbox="{&quot;x&quot;:0,&quot;y&quot;:-3,&quot;w&quot;:186.4375,&quot;h&quot;:24}" opacity="1" stroke-width="1px" stroke-opacity="1" font-family="&quot;Microsoft YaHei&quot;" my_stoke="none" my_stoke_width="1px" my_stoke_opacity="1" my_fill="rgb(70, 70, 70)" my_fill_opacity="1" my_font_size="18px" clip-path="none" content="动态数据 + 时间坐标轴">动态数据 + 时间坐标轴</text><defs/></g></svg>