<svg xmlns="http://www.w3.org/2000/svg" xmlns:xlink="http://www.w3.org/1999/xlink" version="1.1" baseProfile="full" width="910" height="773" style="user-select: none; position: absolute; left: 0px; top: 0px;" transform_matrix="{&quot;a&quot;:1,&quot;b&quot;:0,&quot;c&quot;:0,&quot;d&quot;:1,&quot;e&quot;:0,&quot;f&quot;:0}"><g><path d="M 455 96.625 A 289.875 289.875 0 1 1 454.971 96.625 M 455 136.625 A 249.875 249.875 0 1 0 455.025 136.625 Z" fill="rgb(230, 235, 248)" fill-opacity="1" stroke="none" transform_matrix="{&quot;a&quot;:1,&quot;b&quot;:0,&quot;c&quot;:0,&quot;d&quot;:1,&quot;e&quot;:0,&quot;f&quot;:0}" my_stoke="none" my_stoke_width="1px" my_stoke_opacity="1" my_fill="rgb(230, 235, 248)" my_fill_opacity="1" my_font_size="16px" opacity="1"/><text xml:space="preserve" fill="rgb(70, 70, 70)" fill-opacity="1" stroke="none" dominant-baseline="central" text-anchor="middle" x="455" y="299.5375" style="font: 14px &quot;Microsoft YaHei&quot;; fill: rgb(70, 70, 70);" transform_matrix="{&quot;a&quot;:1,&quot;b&quot;:0,&quot;c&quot;:0,&quot;d&quot;:1,&quot;e&quot;:0,&quot;f&quot;:0}" text_bbox="{&quot;x&quot;:431.546875,&quot;y&quot;:290.03125,&quot;w&quot;:47.6875,&quot;h&quot;:19.015625}" opacity="1" stroke-width="1px" stroke-opacity="1" font-family="&quot;Microsoft YaHei&quot;" my_stoke="none" my_stoke_width="1px" my_stoke_opacity="1" my_fill="rgb(70, 70, 70)" my_fill_opacity="1" my_font_size="14px" clip-path="none" content="Perfect">Perfect</text><path d="M 432 316.525 L 478 316.525 A 12 12 0 0 1 490 328.525 A 12 12 0 0 1 478 340.525 L 432 340.525 A 12 12 0 0 1 420 328.525 A 12 12 0 0 1 432 316.525" fill="rgb(0, 0, 0)" fill-opacity="0" stroke="#5470c6" stroke-width="2" paint-order="stroke" stroke-opacity="1" stroke-dasharray="" stroke-linecap="butt" stroke-miterlimit="10" transform_matrix="{&quot;a&quot;:1,&quot;b&quot;:0,&quot;c&quot;:0,&quot;d&quot;:1,&quot;e&quot;:0,&quot;f&quot;:0}" my_stoke="rgb(84, 112, 198)" my_stoke_width="2px" my_stoke_opacity="1" my_fill="rgb(0, 0, 0)" my_fill_opacity="0" my_font_size="16px" opacity="1"/><text xml:space="preserve" fill="rgb(84, 112, 198)" fill-opacity="1" stroke="none" dominant-baseline="central" text-anchor="middle" x="455" y="328.525" style="font: bold 14px &quot;Microsoft YaHei&quot;; fill: rgb(84, 112, 198);" transform_matrix="{&quot;a&quot;:1,&quot;b&quot;:0,&quot;c&quot;:0,&quot;d&quot;:1,&quot;e&quot;:0,&quot;f&quot;:0}" text_bbox="{&quot;x&quot;:439.84375,&quot;y&quot;:319.015625,&quot;w&quot;:30.3125,&quot;h&quot;:19.015625}" opacity="1" stroke-width="1px" stroke-opacity="1" font-family="&quot;Microsoft YaHei&quot;" my_stoke="none" my_stoke_width="1px" my_stoke_opacity="1" my_fill="rgb(84, 112, 198)" my_fill_opacity="1" my_font_size="14px" clip-path="none" content="20%">20%</text><text xml:space="preserve" fill="rgb(70, 70, 70)" fill-opacity="1" stroke="none" dominant-baseline="central" text-anchor="middle" x="455" y="386.5" style="font: 14px &quot;Microsoft YaHei&quot;; fill: rgb(70, 70, 70);" transform_matrix="{&quot;a&quot;:1,&quot;b&quot;:0,&quot;c&quot;:0,&quot;d&quot;:1,&quot;e&quot;:0,&quot;f&quot;:0}" text_bbox="{&quot;x&quot;:436.40625,&quot;y&quot;:377,&quot;w&quot;:37.234375,&quot;h&quot;:19}" opacity="1" stroke-width="1px" stroke-opacity="1" font-family="&quot;Microsoft YaHei&quot;" my_stoke="none" my_stoke_width="1px" my_stoke_opacity="1" my_fill="rgb(70, 70, 70)" my_fill_opacity="1" my_font_size="14px" clip-path="none" content="Good">Good</text><path d="M 432 403.4875 L 478 403.4875 A 12 12 0 0 1 490 415.4875 A 12 12 0 0 1 478 427.4875 L 432 427.4875 A 12 12 0 0 1 420 415.4875 A 12 12 0 0 1 432 403.4875" fill="rgb(0, 0, 0)" fill-opacity="0" stroke="#91cc75" stroke-width="2" paint-order="stroke" stroke-opacity="1" stroke-dasharray="" stroke-linecap="butt" stroke-miterlimit="10" transform_matrix="{&quot;a&quot;:1,&quot;b&quot;:0,&quot;c&quot;:0,&quot;d&quot;:1,&quot;e&quot;:0,&quot;f&quot;:0}" my_stoke="rgb(145, 204, 117)" my_stoke_width="2px" my_stoke_opacity="1" my_fill="rgb(0, 0, 0)" my_fill_opacity="0" my_font_size="16px" opacity="1"/><text xml:space="preserve" fill="rgb(145, 204, 117)" fill-opacity="1" stroke="none" dominant-baseline="central" text-anchor="middle" x="455" y="415.4875" style="font: bold 14px &quot;Microsoft YaHei&quot;; fill: rgb(145, 204, 117);" transform_matrix="{&quot;a&quot;:1,&quot;b&quot;:0,&quot;c&quot;:0,&quot;d&quot;:1,&quot;e&quot;:0,&quot;f&quot;:0}" text_bbox="{&quot;x&quot;:438.84375,&quot;y&quot;:405.984375,&quot;w&quot;:31.3125,&quot;h&quot;:19.015625}" opacity="1" stroke-width="1px" stroke-opacity="1" font-family="&quot;Microsoft YaHei&quot;" my_stoke="none" my_stoke_width="1px" my_stoke_opacity="1" my_fill="rgb(145, 204, 117)" my_fill_opacity="1" my_font_size="14px" clip-path="none" content="40%">40%</text><text xml:space="preserve" fill="rgb(70, 70, 70)" fill-opacity="1" stroke="none" dominant-baseline="central" text-anchor="middle" x="455" y="473.4625" style="font: 14px &quot;Microsoft YaHei&quot;; fill: rgb(70, 70, 70);" transform_matrix="{&quot;a&quot;:1,&quot;b&quot;:0,&quot;c&quot;:0,&quot;d&quot;:1,&quot;e&quot;:0,&quot;f&quot;:0}" text_bbox="{&quot;x&quot;:418.40625,&quot;y&quot;:463.953125,&quot;w&quot;:73.78125,&quot;h&quot;:19.015625}" opacity="1" stroke-width="1px" stroke-opacity="1" font-family="&quot;Microsoft YaHei&quot;" my_stoke="none" my_stoke_width="1px" my_stoke_opacity="1" my_fill="rgb(70, 70, 70)" my_fill_opacity="1" my_font_size="14px" clip-path="none" content="Commonly">Commonly</text><path d="M 432 490.45 L 478 490.45 A 12 12 0 0 1 490 502.45 L 490 502.45 A 12 12 0 0 1 478 514.45 L 432 514.45 A 12 12 0 0 1 420 502.45 L 420 502.45 A 12 12 0 0 1 432 490.45" fill="rgb(0, 0, 0)" fill-opacity="0" stroke="#fac858" stroke-width="2" paint-order="stroke" stroke-opacity="1" stroke-dasharray="" stroke-linecap="butt" stroke-miterlimit="10" transform_matrix="{&quot;a&quot;:1,&quot;b&quot;:0,&quot;c&quot;:0,&quot;d&quot;:1,&quot;e&quot;:0,&quot;f&quot;:0}" my_stoke="rgb(250, 200, 88)" my_stoke_width="2px" my_stoke_opacity="1" my_fill="rgb(0, 0, 0)" my_fill_opacity="0" my_font_size="16px" opacity="1"/><text xml:space="preserve" fill="rgb(250, 200, 88)" fill-opacity="1" stroke="none" dominant-baseline="central" text-anchor="middle" x="455" y="502.45" style="font: bold 14px &quot;Microsoft YaHei&quot;; fill: rgb(250, 200, 88);" transform_matrix="{&quot;a&quot;:1,&quot;b&quot;:0,&quot;c&quot;:0,&quot;d&quot;:1,&quot;e&quot;:0,&quot;f&quot;:0}" text_bbox="{&quot;x&quot;:439.84375,&quot;y&quot;:492.9375,&quot;w&quot;:30.3125,&quot;h&quot;:19.015625}" opacity="1" stroke-width="1px" stroke-opacity="1" font-family="&quot;Microsoft YaHei&quot;" my_stoke="none" my_stoke_width="1px" my_stoke_opacity="1" my_fill="rgb(250, 200, 88)" my_fill_opacity="1" my_font_size="14px" clip-path="none" content="60%">60%</text><path d="M 455 109.9583 A 6.6667 6.6667 0 1 1 455 96.625 A 289.875 289.875 0 0 1 730.6875 296.9237 M 730.6875 296.9237 A 6.6667 6.6667 0 1 1 718.0068 301.0439 A 276.5417 276.5417 0 0 0 455 109.9583 M 455 301.0439 Z" fill="rgb(84, 112, 198)" fill-opacity="1" stroke="#464646" stroke-width="1" paint-order="fill" stroke-opacity="1" stroke-dasharray="" stroke-linecap="butt" stroke-miterlimit="10" transform_matrix="{&quot;a&quot;:1,&quot;b&quot;:0,&quot;c&quot;:0,&quot;d&quot;:1,&quot;e&quot;:0,&quot;f&quot;:0}" my_stoke="rgb(70, 70, 70)" my_stoke_width="1px" my_stoke_opacity="1" my_fill="rgb(84, 112, 198)" my_fill_opacity="1" my_font_size="16px" opacity="1"/><path d="M 455 123.2917 A 6.6667 6.6667 0 1 1 455 109.9583 A 276.5417 276.5417 0 0 1 617.5471 610.2269 M 617.5471 610.2269 A 6.6667 6.6667 0 1 1 609.71 599.44 A 263.2083 263.2083 0 0 0 455 123.2917 M 455 599.44 Z" fill="rgb(145, 204, 117)" fill-opacity="1" stroke="#464646" stroke-width="1" paint-order="fill" stroke-opacity="1" stroke-dasharray="" stroke-linecap="butt" stroke-miterlimit="10" transform_matrix="{&quot;a&quot;:1,&quot;b&quot;:0,&quot;c&quot;:0,&quot;d&quot;:1,&quot;e&quot;:0,&quot;f&quot;:0}" my_stoke="rgb(70, 70, 70)" my_stoke_width="1px" my_stoke_opacity="1" my_fill="rgb(145, 204, 117)" my_fill_opacity="1" my_font_size="16px" opacity="1"/><path d="M 455 136.625 A 6.6667 6.6667 0 1 1 455 123.2917 A 263.2083 263.2083 0 1 1 300.29 599.44 M 300.29 599.44 A 6.6667 6.6667 0 1 1 308.1272 588.6531 A 249.875 249.875 0 1 0 455 136.625 M 455 588.6531 Z" fill="rgb(250, 200, 88)" fill-opacity="1" stroke="#464646" stroke-width="1" paint-order="fill" stroke-opacity="1" stroke-dasharray="" stroke-linecap="butt" stroke-miterlimit="10" transform_matrix="{&quot;a&quot;:1,&quot;b&quot;:0,&quot;c&quot;:0,&quot;d&quot;:1,&quot;e&quot;:0,&quot;f&quot;:0}" my_stoke="rgb(70, 70, 70)" my_stoke_width="1px" my_stoke_opacity="1" my_fill="rgb(250, 200, 88)" my_fill_opacity="1" my_font_size="16px" opacity="1"/></g></svg>