<svg xmlns="http://www.w3.org/2000/svg" xmlns:xlink="http://www.w3.org/1999/xlink" version="1.1" baseProfile="full" width="910" height="773" style="user-select: none; position: absolute; left: 0px; top: 0px;" transform_matrix="{&quot;a&quot;:1,&quot;b&quot;:0,&quot;c&quot;:0,&quot;d&quot;:1,&quot;e&quot;:0,&quot;f&quot;:0}"><g><path d="M 434.4488 431.3979 L 409.867 429.979" fill="none" stroke="#aaa" stroke-width="1" paint-order="fill" stroke-opacity="0.5" stroke-dasharray="" stroke-linecap="butt" stroke-miterlimit="10" transform="matrix(1,0,0,1,0,0)" transform_matrix="{&quot;a&quot;:1,&quot;b&quot;:0,&quot;c&quot;:0,&quot;d&quot;:1,&quot;e&quot;:0,&quot;f&quot;:0}" my_stoke="rgb(170, 170, 170)" my_stoke_width="1px" my_stoke_opacity="0.5" my_fill="none" my_fill_opacity="1" my_font_size="16px" opacity="1"/><path d="M 483.442 320.4098 L 459.0043 324.1178" fill="none" stroke="#aaa" stroke-width="1" paint-order="fill" stroke-opacity="0.5" stroke-dasharray="" stroke-linecap="butt" stroke-miterlimit="10" transform="matrix(1,0,0,1,0,0)" transform_matrix="{&quot;a&quot;:1,&quot;b&quot;:0,&quot;c&quot;:0,&quot;d&quot;:1,&quot;e&quot;:0,&quot;f&quot;:0}" my_stoke="rgb(170, 170, 170)" my_stoke_width="1px" my_stoke_opacity="0.5" my_fill="none" my_fill_opacity="1" my_font_size="16px" opacity="1"/><path d="M 1 0 A 1 1 0 1 1 1 -0.0001" fill="rgb(84, 112, 198)" fill-opacity="1" stroke="none" transform="matrix(10,0,0,10,455,386.5)" transform_matrix="{&quot;a&quot;:10,&quot;b&quot;:0,&quot;c&quot;:0,&quot;d&quot;:10,&quot;e&quot;:455,&quot;f&quot;:386.5}" my_stoke="none" my_stoke_width="1px" my_stoke_opacity="1" my_fill="rgb(84, 112, 198)" my_fill_opacity="1" my_font_size="16px" opacity="1"/><path d="M 1 0 A 1 1 0 1 1 1 -0.0001" fill="rgb(84, 112, 198)" fill-opacity="1" stroke="none" transform="matrix(5,0,0,5,434.4488,431.3979)" transform_matrix="{&quot;a&quot;:5,&quot;b&quot;:0,&quot;c&quot;:0,&quot;d&quot;:5,&quot;e&quot;:434.44879150390625,&quot;f&quot;:431.39788818359375}" my_stoke="none" my_stoke_width="1px" my_stoke_opacity="1" my_fill="rgb(84, 112, 198)" my_fill_opacity="1" my_font_size="16px" opacity="1"/><path d="M 1 0 A 1 1 0 1 1 1 -0.0001" fill="rgb(84, 112, 198)" fill-opacity="1" stroke="none" transform="matrix(5,0,0,5,510.8461,416.607)" transform_matrix="{&quot;a&quot;:5,&quot;b&quot;:0,&quot;c&quot;:0,&quot;d&quot;:5,&quot;e&quot;:510.8460998535156,&quot;f&quot;:416.60699462890625}" my_stoke="none" my_stoke_width="1px" my_stoke_opacity="1" my_fill="rgb(84, 112, 198)" my_fill_opacity="1" my_font_size="16px" opacity="1"/><path d="M 1 0 A 1 1 0 1 1 1 -0.0001" fill="rgb(84, 112, 198)" fill-opacity="1" stroke="none" transform="matrix(5,0,0,5,459.0043,324.1178)" transform_matrix="{&quot;a&quot;:5,&quot;b&quot;:0,&quot;c&quot;:0,&quot;d&quot;:5,&quot;e&quot;:459.0043029785156,&quot;f&quot;:324.1177978515625}" my_stoke="none" my_stoke_width="1px" my_stoke_opacity="1" my_fill="rgb(84, 112, 198)" my_fill_opacity="1" my_font_size="16px" opacity="1"/><path d="M 1 0 A 1 1 0 1 1 1 -0.0001" fill="rgb(84, 112, 198)" fill-opacity="1" stroke="none" transform="matrix(5,0,0,5,409.867,429.979)" transform_matrix="{&quot;a&quot;:5,&quot;b&quot;:0,&quot;c&quot;:0,&quot;d&quot;:5,&quot;e&quot;:409.86700439453125,&quot;f&quot;:429.97900390625}" my_stoke="none" my_stoke_width="1px" my_stoke_opacity="1" my_fill="rgb(84, 112, 198)" my_fill_opacity="1" my_font_size="16px" opacity="1"/><path d="M 1 0 A 1 1 0 1 1 1 -0.0001" fill="rgb(84, 112, 198)" fill-opacity="1" stroke="none" transform="matrix(5,0,0,5,483.442,320.4098)" transform_matrix="{&quot;a&quot;:5,&quot;b&quot;:0,&quot;c&quot;:0,&quot;d&quot;:5,&quot;e&quot;:483.4419860839844,&quot;f&quot;:320.4097900390625}" my_stoke="none" my_stoke_width="1px" my_stoke_opacity="1" my_fill="rgb(84, 112, 198)" my_fill_opacity="1" my_font_size="16px" opacity="1"/><path d="M 1 0 A 1 1 0 1 1 1 -0.0001" fill="rgb(84, 112, 198)" fill-opacity="1" stroke="none" transform="matrix(5,0,0,5,587.9033,319.2768)" transform_matrix="{&quot;a&quot;:5,&quot;b&quot;:0,&quot;c&quot;:0,&quot;d&quot;:5,&quot;e&quot;:587.9033203125,&quot;f&quot;:319.27679443359375}" my_stoke="none" my_stoke_width="1px" my_stoke_opacity="1" my_fill="rgb(84, 112, 198)" my_fill_opacity="1" my_font_size="16px" opacity="1"/></g></svg>