<svg xmlns="http://www.w3.org/2000/svg" xmlns:xlink="http://www.w3.org/1999/xlink" version="1.1" baseProfile="full" width="910" height="773" style="user-select: none; position: absolute; left: 0px; top: 0px;" transform_matrix="{&quot;a&quot;:1,&quot;b&quot;:0,&quot;c&quot;:0,&quot;d&quot;:1,&quot;e&quot;:0,&quot;f&quot;:0}"><g><path d="M 542 418 L 539 416 L 541 418 L 540 417 L 534 419 L 530 418 L 520 419 L 513 425 L 508 434 L 495 439 L 479 450 L 474 450 L 472 453 L 469 454 L 469 455 L 466 465 L 462 467 L 460 470 L 459 475 L 455 476 L 452 481 L 450 481 L 449 484 L 446 478 L 443 480 L 445 481 L 444 482 L 443 483 L 436 482 L 433 480 L 431 482 L 431 485 L 429 489 L 430 494 L 424 500 L 425 502 L 423 502 L 424 503 L 420 505 L 423 506 L 411 508 L 404 511 L 404 504 L 401 496 L 399 496 L 398 492 L 396 489 L 392 488 L 390 484 L 382 484 L 380 486 L 379 484 L 376 484 L 373 486 L 369 484 L 364 486 L 357 487 L 357 485 L 355 482 L 350 478 L 349 475 L 347 475 L 343 472 L 342 472 L 341 468 L 332 460 L 327 461 L 317 461 L 316 457 L 315 456 L 314 456 L 313 456 L 313 457 L 311 458 L 307 455 L 302 456 L 298 455 L 295 454 L 295 452 L 290 449 L 287 448 L 285 450 L 281 448 L 278 449 L 274 444 L 269 445 L 266 442 L 264 444 L 259 443 L 261 439 L 261 437 L 257 436 L 248 429 L 247 422 L 248 413 L 246 409 L 236 408 L 235 407 L 234 408 L 235 407 L 234 407 L 232 407 L 231 406 L 220 409 L 217 407 L 213 407 L 212 407 L 213 405 L 208 406 L 209 404 L 204 406 L 202 405 L 202 408 L 201 407 L 203 406 L 200 406 L 201 406 L 201 404 L 200 406 L 196 405 L 194 407 L 194 405 L 195 406 L 195 408 L 193 408 L 193 410 L 191 411 L 188 410 L 189 411 L 188 411 L 189 410 L 188 411 L 189 412 L 188 412 L 183 411 L 184 411 L 184 412 L 182 412 L 179 411 L 181 412 L 179 413 L 174 413 L 171 410 L 168 411 L 156 409 L 149 412 L 145 410 L 142 407 L 139 407 L 128 400 L 124 397 L 120 392 L 116 385 L 109 377 L 110 373 L 108 371 L 109 368 L 106 365 L 109 362 L 107 356 L 109 355 L 112 349 L 113 341 L 111 340 L 111 335 L 108 329 L 105 329 L 102 322 L 101 322 L 100 320 L 99 321 L 96 316 L 89 311 L 88 308 L 83 304 L 81 304 L 79 301 L 78 301 L 76 297 L 73 296 L 74 294 L 72 291 L 77 287" fill="none" stroke="purple" stroke-width="1" paint-order="fill" stroke-opacity="0.6" stroke-dasharray="" stroke-linecap="butt" stroke-miterlimit="10" transform_matrix="{&quot;a&quot;:1,&quot;b&quot;:0,&quot;c&quot;:0,&quot;d&quot;:1,&quot;e&quot;:0,&quot;f&quot;:0}" my_stoke="rgb(128, 0, 128)" my_stoke_width="1px" my_stoke_opacity="0.6" my_fill="none" my_fill_opacity="1" my_font_size="16px" opacity="1"/><path d="M 452 401 L 446 407 L 443 404 L 428 387 L 414 393 L 411 397 L 409 397 L 407 396 L 404 391 L 401 390 L 401 387 L 399 386 L 396 380 L 393 384 L 386 384 L 384 385 L 384 387 L 380 388 L 374 382 L 370 382 L 367 383 L 361 380 L 360 377 L 358 379 L 358 383 L 358 377 L 359 376 L 358 376 L 357 374 L 357 369 L 354 371 L 352 370 L 343 361 L 337 359 L 336 356 L 333 360 L 321 367 L 321 365 L 330 358 L 332 354 L 327 340 L 324 341 L 327 340 L 325 330 L 326 328 L 327 328 L 327 326 L 337 313" fill="none" stroke="purple" stroke-width="1" paint-order="fill" stroke-opacity="0.6" stroke-dasharray="" stroke-linecap="butt" stroke-miterlimit="10" transform_matrix="{&quot;a&quot;:1,&quot;b&quot;:0,&quot;c&quot;:0,&quot;d&quot;:1,&quot;e&quot;:0,&quot;f&quot;:0}" my_stoke="rgb(128, 0, 128)" my_stoke_width="1px" my_stoke_opacity="0.6" my_fill="none" my_fill_opacity="1" my_font_size="16px" opacity="1"/><path d="M 501 251 L 502 268 L 504 282 L 503 286 L 506 292 L 507 303 L 508 306 L 506 302 L 509 307 L 507 305 L 507 307 L 506 305 L 508 308 L 508 309 L 511 315 L 511 316 L 510 316 L 511 322 L 515 328 L 516 337 L 516 338 L 514 338 L 512 343 L 511 343 L 511 345 L 510 345 L 510 346 L 509 346 L 508 345 L 508 347 L 505 345 L 505 349 L 504 349 L 504 350 L 503 350 L 501 352 L 501 354 L 499 353 L 498 356 L 496 354 L 497 359 L 496 359 L 496 360 L 495 360 L 496 366 L 494 361 L 495 365 L 496 366 L 496 365 L 497 366 L 499 369 L 500 369 L 501 372 L 500 371 L 504 377 L 507 379 L 510 383 L 514 385 L 517 389 L 517 388 L 521 393 L 520 389 L 520 392 L 520 390 L 520 392 L 519 390 L 520 389 L 518 392 L 519 391 L 516 392 L 513 392 L 513 391 L 513 392 L 510 392 L 506 393 L 503 398 L 505 404 L 509 402 L 509 401 L 508 399 L 509 403 L 510 403 L 512 401 L 519 403 L 521 411 L 510 419 L 509 419 L 509 417 L 507 421 L 508 423 L 508 420 L 507 419 L 509 420 L 508 418 L 510 416 L 504 418 L 504 419 L 504 420 L 505 418 L 502 417 L 501 419 L 499 420 L 501 420 L 498 423 L 497 426 L 498 426 L 496 428 L 494 428 L 492 427 L 490 427 L 485 427 L 484 426 L 482 427 L 473 426 L 470 423 L 465 422 L 466 423 L 468 422 L 466 421 L 465 422 L 468 422 L 466 423 L 466 422 L 466 423 L 467 423 L 464 424 L 461 422 L 460 420 L 461 415 L 463 411 L 461 410 L 461 407 L 459 407 L 459 405 L 453 401 L 446 407 L 438 398 L 436 398 L 436 397 L 428 387 L 414 394 L 411 397 L 407 396 L 405 394 L 406 393 L 405 394 L 401 390 L 401 387 L 399 385 L 397 381 L 395 382 L 393 384 L 392 385 L 387 384 L 383 387 L 380 388 L 373 382 L 374 383 L 365 382 L 360 379 L 359 377 L 361 373 L 363 365 L 365 363 L 362 362 L 363 359 L 362 357 L 363 354 L 367 350 L 369 345 L 368 343 L 366 342 L 364 336 L 363 333 L 364 329 L 360 330 L 352 337 L 348 338 L 345 334 L 344 333 L 329 333 L 328 331 L 328 329 L 326 328 L 327 327 L 328 324 L 327 324 L 330 322 L 333 317 L 336 314 L 335 312 L 310 328 L 307 325 L 305 325 L 302 320 L 303 316 L 301 315 L 303 312 L 303 311 L 301 311 L 301 308 L 292 311 L 287 310 L 284 308 L 285 307 L 283 306 L 280 306 L 281 308 L 280 303 L 278 303 L 279 302 L 278 302 L 278 299 L 276 299 L 278 296 L 275 296 L 277 295 L 276 295 L 277 296 L 276 294 L 274 293 L 266 285 L 269 281 L 269 279 L 270 274 L 274 271 L 278 271 L 289 274 L 299 270 L 303 266 L 306 265 L 307 264 L 306 263 L 314 263 L 317 260 L 320 258 L 330 257 L 334 252 L 338 249 L 342 241" fill="none" stroke="purple" stroke-width="1" paint-order="fill" stroke-opacity="0.6" stroke-dasharray="" stroke-linecap="butt" stroke-miterlimit="10" transform_matrix="{&quot;a&quot;:1,&quot;b&quot;:0,&quot;c&quot;:0,&quot;d&quot;:1,&quot;e&quot;:0,&quot;f&quot;:0}" my_stoke="rgb(128, 0, 128)" my_stoke_width="1px" my_stoke_opacity="0.6" my_fill="none" my_fill_opacity="1" my_font_size="16px" opacity="1"/><path d="M 714 438 L 708 435 L 705 431 L 701 431 L 700 432 L 701 440 L 700 442 L 700 445 L 698 452 L 700 459 L 703 460 L 704 468 L 697 485 L 698 487 L 701 486 L 714 488 L 721 490 L 714 488 L 705 488 L 701 486 L 698 487 L 697 490 L 693 491 L 687 502 L 682 506 L 682 511 L 681 512 L 673 523 L 674 522 L 671 525 L 670 530 L 667 534 L 666 530 L 662 524 L 661 522 L 663 518 L 662 518 L 660 519 L 659 518 L 658 519 L 655 519 L 653 521 L 653 525 L 642 527 L 637 532 L 634 533 L 630 532 L 628 537 L 625 537 L 621 540 L 620 540 L 619 544 L 617 546 L 618 546 L 616 545 L 618 543 L 617 542 L 609 545 L 608 546 L 608 545 L 605 544 L 604 542 L 602 541 L 603 543 L 603 541 L 607 545 L 603 546 L 598 550 L 596 550 L 592 546 L 586 553 L 582 555 L 582 556 L 579 556 L 576 552 L 576 548 L 579 540 L 580 534 L 576 530 L 575 523 L 569 516 L 565 509 L 573 493 L 572 491 L 591 483 L 596 479 L 615 458 L 620 454 L 623 450 L 634 442 L 638 435 L 644 430 L 644 426 L 646 425 L 648 425 L 649 423" fill="none" stroke="purple" stroke-width="1" paint-order="fill" stroke-opacity="0.6" stroke-dasharray="" stroke-linecap="butt" stroke-miterlimit="10" transform_matrix="{&quot;a&quot;:1,&quot;b&quot;:0,&quot;c&quot;:0,&quot;d&quot;:1,&quot;e&quot;:0,&quot;f&quot;:0}" my_stoke="rgb(128, 0, 128)" my_stoke_width="1px" my_stoke_opacity="0.6" my_fill="none" my_fill_opacity="1" my_font_size="16px" opacity="1"/><path d="M 731 113 L 729 113 L 729 99 L 706 95 L 669 93 L 658 103 L 620 118 L 579 128 L 578 127 L 576 117 L 572 88 L 571 85 L 538 87 L 490 81 L 487 82 L 484 81 L 446 78 L 413 79 L 379 90 L 380 88 L 293 137 L 284 140 L 275 142 L 274 144 L 265 147 L 238 154 L 218 156 L 212 159 L 150 167 L 121 173 L 114 176 L 106 181 L 85 193 L 82 196 L 39 219 L 17 229 L 14 224 L 7 226 L 6 217 L 4 213 L 2 210 L -1 209 L -2 205 L -3 204 L 6 202 L 7 201 L 11 215 L 12 216 L 13 215 L 14 216 L 18 217 L 19 218 L 17 220 L 18 221 L 17 220 L 23 215 L 20 210 L 20 205 L 24 199 L 25 198 L 32 200 L 38 203 L 40 198 L 44 196 L 47 191 L 49 192 L 48 191 L 48 190 L 50 190 L 47 182 L 47 181 L 46 182 L 49 181 L 47 179 L 44 179 L 44 181 L 39 183 L 39 185 L 42 187 L 43 191 L 42 193 L 38 195 L 37 195 L 36 192 L 33 192 L 32 184 L 30 184 L 29 185 L 27 184 L 23 184 L 22 182 L 15 185 L 13 184 L 12 187 L 9 189 L 8 191 L 9 189 L 13 187 L 12 185 L 23 182 L 24 180 L 24 170 L 23 168 L 21 168 L 18 170 L 20 177 L 19 178 L 18 178 L 18 177 L 19 178 L 19 181 L 20 177 L 20 175 L 14 175 L 14 174 L 14 166 L 16 165 L 13 165 L 12 162 L 13 162 L 12 161 L 10 157 L 9 154 L 11 150 L 10 148 L 7 147 L 4 149 L 5 149 L 5 148 L 7 148 L 9 145 L 8 144 L 8 145 L 6 144 L 7 145 L 9 144 L 9 142 L 10 141 L 10 135 L 9 137 L 10 135 L 12 121 L 14 121 L 12 120 L 13 109 L 11 109 L 9 107 L 9 108 L 9 109 L 5 109 L 6 108 L 6 109 L 13 109 L 11 103 L 12 101 L 12 102 L 12 101 L 15 99 L 16 100 L 21 100 L 23 101 L 29 102 L 38 101 L 39 99 L 43 100 L 45 103 L 52 101 L 55 99 L 54 97 L 55 95 L 53 85 L 54 83 L 60 82 L 63 80 L 68 81 L 69 79 L 71 79 L 75 77 L 77 80 L 78 79 L 83 82 L 84 81 L 83 81 L 94 77 L 97 77 L 99 82 L 101 80 L 100 80 L 99 82 L 110 112 L 112 136 L 121 157 L 125 159 L 125 160 L 126 161 L 133 159 L 134 157 L 133 154 L 136 152 L 131 153 L 132 152 L 130 151 L 131 150 L 133 150 L 134 147 L 133 146 L 132 146 L 133 146 L 132 147 L 131 144 L 135 143 L 131 146 L 129 144 L 129 146 L 128 146 L 128 144 L 129 147 L 127 145 L 130 145 L 133 147 L 131 151 L 134 154 L 134 157 L 133 160 L 125 162 L 125 163 L 128 161 L 126 163 L 124 163 L 123 164" fill="none" stroke="purple" stroke-width="1" paint-order="fill" stroke-opacity="0.6" stroke-dasharray="" stroke-linecap="butt" stroke-miterlimit="10" transform_matrix="{&quot;a&quot;:1,&quot;b&quot;:0,&quot;c&quot;:0,&quot;d&quot;:1,&quot;e&quot;:0,&quot;f&quot;:0}" my_stoke="rgb(128, 0, 128)" my_stoke_width="1px" my_stoke_opacity="0.6" my_fill="none" my_fill_opacity="1" my_font_size="16px" opacity="1"/><path d="M 455 160 L 432 152 L 433 147 L 414 139 L 414 137 L 411 139 L 407 137 L 404 136 L 405 133 L 402 132 L 400 131 L 393 136 L 385 139 L 383 143 L 380 150 L 374 156 L 365 169 L 365 174 L 364 178 L 359 180 L 354 191 L 354 195 L 353 197 L 352 203 L 348 210 L 350 218 L 354 225 L 354 229 L 353 231 L 344 237 L 338 249 L 335 251 L 331 256 L 328 256 L 325 258 L 318 257 L 312 260 L 308 264 L 290 273 L 281 271 L 273 272 L 269 277 L 268 281 L 266 284 L 274 292 L 274 294 L 271 290 L 265 289 L 263 292 L 256 298 L 249 298 L 245 314 L 241 317 L 234 319 L 235 320 L 232 326 L 231 332 L 224 338 L 222 345 L 214 353 L 210 354 L 205 357 L 201 363 L 194 368 L 194 377 L 191 380 L 191 393 L 189 396 L 187 396 L 188 396 L 186 401 L 186 407 L 190 411 L 192 415 L 193 416 L 193 422 L 191 425 L 191 431 L 186 435 L 184 440 L 179 444 L 173 453 L 170 452 L 167 452 L 163 448 L 152 448 L 142 455 L 140 462 L 135 467 L 133 472 L 133 477 L 129 487 L 131 492 L 125 498 L 123 502 L 123 505 L 126 511 L 126 515 L 123 519 L 126 533 L 128 535 L 132 535 L 135 537 L 138 537 L 139 541 L 141 543 L 142 548 L 147 553 L 148 558 L 144 569 L 149 592 L 147 597 L 145 603 L 146 610 L 140 618 L 138 630 L 135 634 L 132 643 L 124 648 L 122 651 L 128 661 L 132 666 L 137 674 L 139 676 L 141 681 L 139 689 L 141 692 L 137 694 L 136 696 L 138 705 L 136 710 L 137 713 L 137 718 L 132 725 L 132 727 L 134 732 L 134 741 L 135 744 L 136 752 L 134 761 L 137 765 L 142 765 L 146 770 L 151 773 L 152 782 L 156 790 L 156 791 L 160 794 L 164 802 L 178 814 L 180 816 L 180 820 L 189 826 L 188 830 L 190 834 L 196 837 L 205 837 L 213 842 L 220 842 L 226 843 L 233 851 L 235 855 L 241 859 L 244 863 L 249 867 L 249 870 L 240 873 L 235 878 L 235 884 L 233 886 L 233 889 L 230 888 L 228 886 L 227 885 L 227 884 L 227 886 L 228 889 L 234 895 L 235 904 L 235 909 L 236 912 L 236 915 L 234 916 L 233 916 L 232 915 L 229 915" fill="none" stroke="purple" stroke-width="1" paint-order="fill" stroke-opacity="0.6" stroke-dasharray="" stroke-linecap="butt" stroke-miterlimit="10" transform_matrix="{&quot;a&quot;:1,&quot;b&quot;:0,&quot;c&quot;:0,&quot;d&quot;:1,&quot;e&quot;:0,&quot;f&quot;:0}" my_stoke="rgb(128, 0, 128)" my_stoke_width="1px" my_stoke_opacity="0.6" my_fill="none" my_fill_opacity="1" my_font_size="16px" opacity="1"/><path d="M 521 229 L 520 231 L 522 234 L 523 234 L 528 230 L 532 222 L 533 219 L 535 217 L 541 218 L 549 215 L 552 211 L 555 207 L 555 203 L 558 199 L 559 195 L 562 193 L 560 193 L 564 189 L 572 184 L 577 183 L 576 178 L 581 172 L 585 171 L 586 172 L 588 173 L 589 174 L 591 174 L 592 179 L 594 180 L 600 177 L 606 179 L 609 175 L 611 175 L 611 173 L 620 169 L 625 171 L 621 174 L 622 178 L 623 179 L 623 181 L 623 186 L 612 193 L 595 211 L 581 217 L 581 218 L 578 218 L 577 219 L 563 233 L 554 240 L 545 244 L 535 247 L 533 243 L 521 240 L 522 235 L 520 230" fill="none" stroke="purple" stroke-width="1" paint-order="fill" stroke-opacity="0.6" stroke-dasharray="" stroke-linecap="butt" stroke-miterlimit="10" transform_matrix="{&quot;a&quot;:1,&quot;b&quot;:0,&quot;c&quot;:0,&quot;d&quot;:1,&quot;e&quot;:0,&quot;f&quot;:0}" my_stoke="rgb(128, 0, 128)" my_stoke_width="1px" my_stoke_opacity="0.6" my_fill="none" my_fill_opacity="1" my_font_size="16px" opacity="1"/><path d="M 621 491 L 626 489 L 634 482 L 651 482 L 652 489 L 654 488 L 657 490 L 660 496 L 660 493 L 658 490 L 657 494 L 660 498 L 658 507 L 658 508 L 652 516 L 654 522 L 652 525 L 641 528 L 634 533 L 631 532 L 630 533 L 628 533 L 621 540 L 617 541 L 614 544 L 612 544 L 608 546 L 605 544 L 605 543 L 602 540 L 602 541 L 599 540 L 599 541 L 601 541 L 605 537 L 608 543 L 607 546 L 611 544 L 613 544 L 617 543 L 618 544 L 620 540 L 622 540 L 622 538 L 626 535 L 626 534 L 624 534 L 623 533 L 626 529 L 626 524 L 627 525 L 628 525 L 631 522 L 632 523 L 635 519 L 638 520 L 640 522 L 643 519 L 651 515 L 650 514 L 651 507 L 650 502 L 651 500 L 651 497 L 652 492 L 651 484 L 636 483 L 628 486 L 623 491" fill="none" stroke="purple" stroke-width="1" paint-order="fill" stroke-opacity="0.6" stroke-dasharray="" stroke-linecap="butt" stroke-miterlimit="10" transform_matrix="{&quot;a&quot;:1,&quot;b&quot;:0,&quot;c&quot;:0,&quot;d&quot;:1,&quot;e&quot;:0,&quot;f&quot;:0}" my_stoke="rgb(128, 0, 128)" my_stoke_width="1px" my_stoke_opacity="0.6" my_fill="none" my_fill_opacity="1" my_font_size="16px" opacity="1"/><path d="M 701 275 L 699 270 L 701 268 L 702 264 L 705 263 L 709 264 L 711 260 L 713 259 L 714 260 L 716 256 L 722 253 L 723 247 L 713 230 L 706 220 L 704 212 L 699 208 L 694 207 L 689 201 L 684 191 L 680 177 L 668 181 L 662 182 L 650 186 L 636 204 L 616 231 L 611 236 L 609 237 L 609 241 L 602 245 L 597 253 L 589 253 L 585 256 L 578 257 L 563 257 L 557 254 L 557 245 L 558 245 L 553 240 L 534 244 L 534 242 L 529 244 L 525 241 L 521 242 L 518 241 L 520 239 L 508 239 L 506 238 L 505 236 L 506 235 L 508 236 L 509 235 L 510 231 L 517 220 L 517 217 L 517 215 L 519 212 L 520 213 L 524 206 L 526 204 L 527 199 L 531 193 L 531 192 L 532 187 L 531 191 L 533 193 L 535 194 L 537 194 L 536 196 L 538 195 L 539 192 L 545 186 L 545 187 L 545 185 L 549 184 L 551 186 L 549 189 L 547 187 L 548 188 L 546 189 L 540 187 L 544 190 L 546 188 L 548 188 L 548 194 L 545 197 L 540 200 L 540 202 L 538 202 L 541 205 L 542 208 L 537 215 L 537 214 L 537 216 L 534 219 L 530 227 L 518 242 L 525 241 L 529 243 L 528 243 L 529 245 L 528 249 L 528 248 L 534 248 L 541 244 L 554 242 L 557 244 L 557 253 L 558 255 L 562 256 L 565 255 L 577 257 L 592 254 L 596 251 L 597 252 L 598 250 L 597 252 L 597 251 L 602 244 L 608 241 L 609 239 L 616 232 L 624 220 L 651 186 L 662 182 L 667 181 L 679 176 L 681 178 L 682 184 L 685 192 L 687 194 L 687 198 L 693 198 L 698 199 L 699 200 L 721 237 L 721 239 L 725 247 L 725 255 L 719 261 L 719 262 L 713 267 L 711 270 L 710 279 L 712 289" fill="none" stroke="purple" stroke-width="1" paint-order="fill" stroke-opacity="0.6" stroke-dasharray="" stroke-linecap="butt" stroke-miterlimit="10" transform_matrix="{&quot;a&quot;:1,&quot;b&quot;:0,&quot;c&quot;:0,&quot;d&quot;:1,&quot;e&quot;:0,&quot;f&quot;:0}" my_stoke="rgb(128, 0, 128)" my_stoke_width="1px" my_stoke_opacity="0.6" my_fill="none" my_fill_opacity="1" my_font_size="16px" opacity="1"/><path d="M 646 585 L 646 579 L 650 578 L 654 574 L 654 568 L 657 566 L 651 555 L 651 552 L 641 555 L 638 560 L 640 562 L 637 568 L 637 566 L 630 560 L 627 558 L 627 554 L 625 552 L 623 553 L 629 545 L 628 544 L 629 544 L 635 539 L 635 538 L 635 539 L 639 536 L 638 534 L 638 536 L 641 534 L 640 533 L 646 526 L 653 523 L 654 521 L 658 518 L 661 518 L 663 521 L 662 524 L 666 529 L 667 534 L 670 528 L 671 523 L 672 522 L 676 524 L 683 520 L 687 521 L 689 521 L 691 524 L 691 523 L 702 528 L 686 558 L 685 555 L 685 558 L 679 562 L 674 564 L 664 573 L 663 577" fill="none" stroke="purple" stroke-width="1" paint-order="fill" stroke-opacity="0.6" stroke-dasharray="" stroke-linecap="butt" stroke-miterlimit="10" transform_matrix="{&quot;a&quot;:1,&quot;b&quot;:0,&quot;c&quot;:0,&quot;d&quot;:1,&quot;e&quot;:0,&quot;f&quot;:0}" my_stoke="rgb(128, 0, 128)" my_stoke_width="1px" my_stoke_opacity="0.6" my_fill="none" my_fill_opacity="1" my_font_size="16px" opacity="1"/><path d="M 554 140 L 555 142 L 555 143 L 555 145 L 555 146 L 555 148 L 555 149 L 555 151 L 555 152 L 555 153 L 555 155 L 555 157 L 555 158 L 556 160 L 557 161 L 557 162 L 557 164 L 557 165 L 557 167 L 557 168 L 558 169 L 559 171 L 560 172 L 561 173 L 562 174 L 563 175 L 564 176 L 565 177 L 566 178 L 568 178 L 569 179 L 570 180 L 571 181 L 572 181 L 574 182 L 573 183 L 572 184 L 570 184 L 569 185 L 568 186 L 566 186 L 565 187 L 564 188 L 563 189 L 563 190 L 562 192 L 561 193 L 560 194 L 559 195 L 558 196 L 556 197 L 556 198 L 555 199 L 555 201 L 555 203 L 554 204 L 554 205 L 554 207 L 553 208 L 553 210 L 552 211 L 551 212 L 550 213 L 549 215 L 548 216 L 547 216 L 546 216 L 544 216 L 542 216 L 541 216 L 539 216 L 538 216 L 537 216 L 535 217 L 534 218 L 533 219 L 533 221 L 532 222 L 532 224 L 531 225 L 530 226 L 529 227 L 528 228 L 527 229 L 528 231 L 526 231 L 527 230 L 526 231 L 525 232 L 523 233 L 523 234 L 522 236 L 521 237 L 521 238 L 520 239 L 522 240 L 523 240 L 525 240 L 526 241 L 527 241 L 529 241 L 530 240 L 530 239 L 531 237 L 532 235 L 530 235 L 529 234 L 528 234 L 528 231 L 528 232 L 527 233 L 526 234 L 524 234 L 524 236 L 525 237 L 525 238 L 526 239 L 527 240 L 528 240 L 530 240 L 530 238 L 531 237 L 530 238 L 528 238 L 527 237 L 525 237 L 525 239 L 524 240 L 523 239 L 521 238 L 520 239 L 519 240 L 519 241 L 520 242 L 522 242 L 523 243 L 522 244 L 522 245 L 522 246 L 523 248 L 524 249 L 525 250 L 525 252 L 525 253 L 524 254 L 523 255 L 522 256 L 522 258 L 522 259 L 523 260 L 524 262 L 524 263 L 525 265 L 526 266 L 527 267 L 527 268 L 527 270 L 527 271 L 527 273 L 527 274 L 528 275 L 529 276 L 531 275 L 532 274 L 533 273 L 535 273 L 536 273 L 538 272 L 539 272 L 540 271 L 542 271 L 542 269 L 541 268 L 541 266 L 541 265 L 540 263 L 540 262 L 539 261 L 539 259 L 538 258 L 538 256 L 538 255 L 537 253 L 537 252 L 537 250 L 536 249 L 536 247 L 535 246 L 535 245 L 533 244 L 534 242 L 535 242 L 534 242 L 532 242 L 531 242 L 532 243 L 534 242 L 535 242 L 537 241 L 538 241 L 540 241 L 541 241 L 542 240 L 544 240 L 545 240 L 547 239 L 548 239 L 550 239 L 551 238 L 553 238 L 554 237 L 555 237 L 557 236 L 558 235 L 559 234 L 560 233 L 561 232 L 562 231 L 563 230 L 564 228 L 564 227 L 565 226 L 566 225 L 567 224 L 568 222 L 569 221 L 570 220 L 571 219 L 572 219 L 574 218 L 575 217 L 576 216 L 576 214 L 577 213 L 578 212 L 580 212 L 581 211 L 583 211 L 584 211 L 586 210 L 587 209 L 588 208 L 589 208 L 590 207 L 592 207 L 593 206 L 594 205 L 595 204 L 596 203 L 597 202 L 598 201 L 599 199 L 598 198 L 597 197 L 596 196 L 597 195 L 599 195 L 600 196 L 599 197 L 597 197 L 598 199 L 599 198 L 600 197 L 602 197 L 601 195 L 600 194 L 599 193 L 597 193 L 596 192 L 595 191 L 594 190 L 593 188 L 592 187 L 591 186 L 590 185 L 590 184 L 590 182 L 589 182 L 588 180 L 588 179 L 586 180 L 585 179 L 584 180 L 585 182 L 584 183 L 583 184 L 582 185 L 581 186 L 580 185 L 579 184 L 578 183 L 577 182 L 576 181 L 576 179 L 576 178 L 577 177 L 578 175 L 579 174 L 579 173 L 579 171 L 578 170 L 578 168 L 577 167 L 577 166 L 576 164 L 576 163 L 575 161 L 576 161 L 577 159 L 577 158 L 578 156 L 578 155 L 579 154 L 579 152 L 579 151 L 580 149 L 580 148 L 581 147 L 583 146 L 584 145 L 585 144 L 586 143 L 587 141 L 588 140 L 589 139 L 590 138 L 591 137 L 592 136 L 592 135 L 593 133 L 594 132 L 594 131 L 595 129 L 596 128 L 596 126 L 596 125 L 595 125" fill="none" stroke="purple" stroke-width="1" paint-order="fill" stroke-opacity="0.6" stroke-dasharray="" stroke-linecap="butt" stroke-miterlimit="10" transform_matrix="{&quot;a&quot;:1,&quot;b&quot;:0,&quot;c&quot;:0,&quot;d&quot;:1,&quot;e&quot;:0,&quot;f&quot;:0}" my_stoke="rgb(128, 0, 128)" my_stoke_width="1px" my_stoke_opacity="0.6" my_fill="none" my_fill_opacity="1" my_font_size="16px" opacity="1"/><path d="M 701 295 L 702 294 L 699 290 L 701 294 L 699 297 L 682 313 L 681 317 L 675 322 L 669 330 L 666 337 L 665 343 L 666 343 L 664 344 L 665 347 L 667 349 L 675 349 L 677 350 L 678 351 L 680 363 L 679 369 L 678 370 L 675 371 L 668 369 L 664 371 L 664 377 L 667 385 L 670 390 L 669 392 L 671 391 L 679 391 L 680 387 L 682 379 L 686 376 L 688 374 L 685 374 L 690 369 L 694 361 L 693 356 L 692 347 L 702 342 L 706 342 L 708 343 L 714 343 L 727 339 L 765 341 L 772 339 L 787 340 L 786 339 L 789 338 L 784 339 L 782 336 L 779 325 L 780 317 L 778 297 L 777 295 L 771 295 L 752 296 L 750 304 L 738 302 L 736 299 L 736 297 L 737 303 L 736 304 L 736 310 L 736 323 L 737 331 L 736 334 L 722 334 L 723 296 L 721 294 L 715 294 L 715 292 L 712 291 L 710 285 L 710 278 L 702 277 L 699 271 L 702 264 L 705 263 L 707 264 L 707 262 L 710 260 L 716 258 L 718 255 L 722 253 L 723 250 L 723 249 L 712 225 L 707 220 L 701 209 L 697 207 L 694 207 L 691 204 L 684 190 L 680 177 L 669 181 L 663 181 L 649 187 L 639 199 L 626 217 L 616 228 L 613 235 L 607 241 L 603 243 L 595 253 L 591 255 L 583 256 L 582 255 L 581 255 L 580 250 L 581 254 L 579 256 L 577 257 L 563 257 L 558 255 L 557 252 L 556 243 L 554 241 L 548 243 L 541 241 L 533 242 L 525 240 L 522 241 L 517 239 L 507 239 L 502 235" fill="none" stroke="purple" stroke-width="1" paint-order="fill" stroke-opacity="0.6" stroke-dasharray="" stroke-linecap="butt" stroke-miterlimit="10" transform_matrix="{&quot;a&quot;:1,&quot;b&quot;:0,&quot;c&quot;:0,&quot;d&quot;:1,&quot;e&quot;:0,&quot;f&quot;:0}" my_stoke="rgb(128, 0, 128)" my_stoke_width="1px" my_stoke_opacity="0.6" my_fill="none" my_fill_opacity="1" my_font_size="16px" opacity="1"/><path d="M 437 153 L 434 151 L 434 148 L 433 147 L 418 141 L 414 138 L 413 139 L 407 137 L 402 132 L 400 132 L 388 139 L 385 142 L 382 149 L 376 156 L 375 160 L 367 169 L 368 171 L 366 176 L 361 179 L 360 181 L 357 182 L 355 188 L 354 197 L 348 209 L 350 212 L 350 216 L 349 215 L 350 217 L 352 221 L 353 228 L 351 233 L 349 233 L 344 237 L 340 246 L 336 251 L 333 256 L 321 259 L 317 263 L 310 264 L 304 266 L 301 269 L 291 274 L 276 271 L 273 272 L 270 276 L 269 282 L 271 281 L 266 285 L 265 286 L 264 286 L 263 292 L 259 297 L 252 299 L 249 298 L 245 314 L 238 319 L 236 320 L 231 327 L 231 331 L 224 340 L 223 344 L 215 352 L 205 357 L 201 363 L 194 368 L 194 376 L 191 380 L 190 389 L 190 392 L 185 402 L 186 408 L 190 411 L 193 416 L 191 431 L 186 435 L 184 440 L 173 454 L 164 449 L 154 449 L 149 450 L 141 458 L 139 463 L 136 466 L 134 472 L 134 477 L 129 487 L 131 493 L 125 499 L 124 502 L 124 505 L 126 510 L 125 516 L 123 519 L 127 531 L 128 533 L 137 536 L 140 541 L 140 545 L 137 547 L 135 551 L 127 557 L 126 559 L 128 558 L 128 560 L 124 580 L 123 582 L 114 589 L 112 594 L 114 596 L 113 595 L 111 596 L 108 601 L 104 603 L 102 607 L 100 609 L 94 608 L 92 611 L 86 614 L 80 614 L 75 604 L 65 600 L 41 583 L 37 582 L 34 576 L 30 573 L 23 569 L 21 570 L 19 568 L 15 576 L 13 577 L 11 576 L 12 575 L 4 578 L -2 574 L -7 563 L -13 560 L -23 557 L -36 560 L -40 563 L -42 572 L -47 576 L -52 589 L -56 593 L -61 593 L -67 598 L -69 601 L -83 603 L -96 600 L -106 600 L -117 597 L -118 597 L -118 600 L -114 604 L -114 609 L -117 614 L -117 620 L -121 626 L -125 632 L -126 635 L -130 644 L -137 648 L -143 648 L -146 650 L -147 649 L -151 650 L -155 654 L -155 657 L -156 659 L -161 651 L -166 651 L -167 649 L -169 648 L -174 648 L -177 645 L -176 642 L -178 640 L -179 641 L -178 640 L -179 641 L -177 640 L -178 641 L -177 639 L -177 640 L -176 639 L -181 638 L -199 640 L -201 641 L -205 650 L -209 652 L -218 656 L -222 660 L -223 663 L -232 667 L -242 674 L -243 673 L -252 677 L -257 677 L -263 679 L -264 682 L -264 680 L -274 686 L -279 693 L -282 696 L -286 698 L -296 714 L -306 716 L -314 716 L -321 712 L -329 711 L -336 714 L -343 720 L -346 719 L -351 723 L -353 723 L -355 726 L -354 727 L -354 731 L -365 746 L -367 747 L -365 751 L -361 754 L -353 755 L -350 753 L -349 750 L -345 748 L -344 742 L -343 740 L -343 736 L -342 732 L -332 729 L -331 730 L -329 724 L -327 723 L -322 723 L -315 726 L -314 730 L -310 732 L -301 735 L -294 735 L -291 739 L -289 739 L -290 738 L -288 740 L -286 739 L -284 741 L -281 742 L -271 741 L -265 739 L -257 731 L -256 727 L -252 725" fill="none" stroke="purple" stroke-width="1" paint-order="fill" stroke-opacity="0.6" stroke-dasharray="" stroke-linecap="butt" stroke-miterlimit="10" transform_matrix="{&quot;a&quot;:1,&quot;b&quot;:0,&quot;c&quot;:0,&quot;d&quot;:1,&quot;e&quot;:0,&quot;f&quot;:0}" my_stoke="rgb(128, 0, 128)" my_stoke_width="1px" my_stoke_opacity="0.6" my_fill="none" my_fill_opacity="1" my_font_size="16px" opacity="1"/><path d="M 681 176 L 668 181 L 663 181 L 655 184 L 651 186 L 647 190 L 637 203 L 627 216 L 617 229 L 615 233 L 611 236 L 607 239 L 605 237 L 601 234 L 597 230 L 596 229 L 594 228 L 593 228 L 590 228 L 583 230 L 579 231 L 573 233 L 573 235 L 575 237 L 575 239 L 573 240 L 567 243 L 562 244 L 559 245 L 556 243 L 555 242 L 552 243 L 550 243 L 548 243 L 544 244 L 540 245 L 538 246 L 536 248 L 536 251 L 538 255 L 542 269 L 546 285 L 551 301 L 553 309 L 556 321 L 559 331 L 561 341 L 564 352 L 566 358 L 567 363 L 570 375 L 573 381 L 576 387 L 579 394 L 584 402 L 588 409 L 590 416 L 593 422 L 595 423 L 596 424 L 602 422 L 606 421 L 610 423 L 615 423 L 616 421 L 620 421 L 625 420 L 629 420 L 633 419 L 638 419 L 641 419 L 643 419 L 646 420 L 649 421 L 653 421 L 655 420 L 660 420 L 660 418 L 663 417 L 664 415 L 664 412 L 665 408 L 669 402 L 670 399 L 670 398 L 670 397 L 669 395 L 669 394 L 669 393 L 669 392 L 671 390 L 671 388 L 668 388 L 668 386 L 669 383 L 667 381 L 667 379 L 665 379 L 664 375 L 664 371 L 667 369 L 668 368 L 669 368 L 674 370 L 676 371 L 680 371 L 681 370 L 683 366 L 683 363 L 681 363 L 678 357 L 678 353 L 674 353 L 672 350 L 669 349 L 666 348 L 665 345 L 666 342 L 666 338 L 668 332 L 669 331 L 670 329 L 674 324 L 677 321 L 679 319 L 682 315 L 687 310 L 691 306 L 694 303 L 698 298 L 702 294 L 701 292 L 700 290 L 697 290 L 695 290 L 693 289 L 691 287 L 692 285 L 694 281 L 696 278 L 699 278 L 701 278 L 701 277 L 701 275 L 701 274 L 699 273 L 699 272 L 699 271 L 699 270 L 699 269 L 700 269 L 700 268 L 701 268 L 701 267 L 702 266 L 702 265 L 703 264 L 704 263 L 705 263 L 706 263 L 707 264 L 709 263 L 711 262 L 715 259 L 716 257 L 718 255 L 722 253 L 723 249 L 723 245 L 720 240 L 717 235 L 714 230 L 712 227 L 708 221 L 705 215 L 704 212 L 700 208 L 699 208 L 696 207 L 694 207 L 690 203 L 688 201 L 687 197 L 687 194 L 684 190 L 683 188 L 682 182" fill="none" stroke="purple" stroke-width="1" paint-order="fill" stroke-opacity="0.6" stroke-dasharray="" stroke-linecap="butt" stroke-miterlimit="10" transform_matrix="{&quot;a&quot;:1,&quot;b&quot;:0,&quot;c&quot;:0,&quot;d&quot;:1,&quot;e&quot;:0,&quot;f&quot;:0}" my_stoke="rgb(128, 0, 128)" my_stoke_width="1px" my_stoke_opacity="0.6" my_fill="none" my_fill_opacity="1" my_font_size="16px" opacity="1"/><path d="M 204 764 L 199 758 L 199 748 L 191 729 L 185 704 L 180 696 L 181 691 L 188 678 L 186 666 L 186 657 L 187 653 L 196 643 L 206 625 L 208 620 L 208 617 L 207 614 L 210 613 L 210 612 L 212 610 L 214 601 L 218 598 L 220 599 L 227 589 L 234 584 L 234 582 L 233 583 L 233 581 L 231 579 L 235 580 L 239 575 L 243 575 L 246 574 L 247 572 L 250 571 L 253 568 L 258 559 L 257 559 L 260 556 L 263 556 L 269 559 L 269 562 L 270 570 L 269 571 L 271 577 L 272 582 L 278 586 L 283 592 L 288 599 L 288 602 L 286 605 L 285 610 L 284 611 L 278 612 L 279 619 L 277 623 L 272 627 L 275 631 L 274 636 L 267 642 L 267 643 L 266 647 L 269 651 L 268 657 L 274 664 L 276 665 L 276 667 L 277 673 L 281 681 L 285 684 L 285 692 L 287 695 L 285 696 L 285 699 L 284 698 L 285 700 L 284 703 L 280 706 L 277 710 L 278 712 L 276 714 L 274 724 L 270 734 L 264 735 L 260 739 L 257 740 L 256 739 L 256 738 L 255 738 L 255 736 L 254 737 L 253 735 L 252 735 L 247 730 L 244 729 L 243 727 L 245 725 L 245 726 L 246 725 L 246 723 L 244 721 L 243 723 L 239 722 L 239 725 L 236 726 L 236 728 L 231 729 L 230 730 L 222 732 L 218 735 L 211 737 L 201 747 L 199 754 L 200 757 L 205 765" fill="none" stroke="purple" stroke-width="1" paint-order="fill" stroke-opacity="0.6" stroke-dasharray="" stroke-linecap="butt" stroke-miterlimit="10" transform_matrix="{&quot;a&quot;:1,&quot;b&quot;:0,&quot;c&quot;:0,&quot;d&quot;:1,&quot;e&quot;:0,&quot;f&quot;:0}" my_stoke="rgb(128, 0, 128)" my_stoke_width="1px" my_stoke_opacity="0.6" my_fill="none" my_fill_opacity="1" my_font_size="16px" opacity="1"/><path d="M 411 94 L 412 94 L 414 97 L 417 97 L 422 101 L 423 100 L 426 100 L 427 101 L 425 106 L 421 112 L 415 113 L 418 119 L 415 119 L 409 122 L 402 129 L 397 132 L 396 134 L 394 133 L 394 135 L 392 134 L 392 136 L 385 139 L 384 142 L 381 144 L 379 147 L 379 145 L 378 150 L 376 155 L 372 157 L 371 156 L 370 161 L 365 169 L 364 177 L 358 180 L 355 188 L 352 196 L 352 204 L 348 210 L 353 227 L 354 232 L 352 233 L 349 233 L 344 237 L 341 243 L 293 271 L 291 274 L 289 275 L 288 271 L 274 270 L 267 285 L 271 289 L 252 299 L 247 300 L 245 311 L 239 318 L 236 320 L 234 322 L 230 332 L 223 340 L 221 345 L 212 354 L 205 358 L 202 361 L 201 364 L 194 368 L 194 375 L 193 377 L 190 380 L 191 385 L 190 385 L 191 387 L 189 389 L 191 393 L 187 397 L 185 403 L 186 407 L 189 410 L 190 410 L 193 416 L 192 427 L 188 435 L 188 436 L 183 440 L 173 455 L 180 456 L 183 455 L 184 456 L 183 456 L 187 456 L 191 458 L 200 458 L 207 468 L 208 469 L 216 468 L 217 476 L 218 477 L 217 480 L 223 482 L 224 483 L 229 483 L 231 486 L 235 489 L 237 492 L 235 496 L 235 506 L 245 509 L 248 512 L 254 514 L 259 518 L 263 518 L 265 524 L 270 533 L 271 541 L 274 545 L 276 545 L 278 547 L 279 549 L 275 552 L 269 560 L 269 572 L 271 577 L 272 582 L 273 584 L 276 584 L 281 591 L 285 593 L 287 599 L 287 603 L 281 621 L 278 625 L 275 626 L 273 629 L 276 632 L 274 637 L 271 638 L 270 642 L 268 644 L 268 648 L 269 651 L 268 656 L 270 659 L 271 660 L 271 658 L 272 659 L 274 663 L 277 672 L 283 684 L 284 688 L 286 689 L 285 691 L 286 694 L 287 694 L 287 698 L 289 699 L 290 696 L 292 696 L 305 696 L 310 699 L 312 702 L 318 703 L 317 705 L 319 705 L 320 707 L 321 705 L 333 724 L 331 730 L 331 728 L 331 730 L 339 738 L 344 744 L 344 746 L 347 752 L 346 754 L 356 757 L 363 757 L 363 761 L 361 760 L 370 762 L 371 761 L 394 759 L 401 757 L 407 753 L 406 743 L 411 725 L 408 731 L 405 723 L 401 720 L 399 718 L 399 716 L 384 699 L 384 694 L 383 690 L 382 684 L 383 684 L 382 686 L 391 672 L 392 662 L 396 655 L 396 652 L 405 645 L 431 628 L 431 625 L 429 618 L 431 612 L 430 611 L 428 609 L 428 603 L 432 600 L 435 593 L 443 584 L 450 581 L 456 573 L 460 572 L 466 567 L 465 567 L 466 565 L 472 560 L 479 557 L 479 555 L 481 553 L 487 551 L 491 552 L 494 562 L 497 563 L 497 568 L 502 572 L 501 572 L 501 574 L 501 573 L 508 578 L 510 584 L 514 584 L 515 586 L 525 582 L 525 583 L 527 582 L 528 581 L 532 580 L 533 575 L 533 569 L 537 551 L 536 540 L 534 525 L 536 528 L 535 532 L 537 542 L 535 544 L 535 546 L 538 550 L 544 549 L 549 552 L 553 553 L 555 557 L 558 555 L 560 549 L 564 546 L 571 545 L 577 547 L 581 533 L 583 533 L 584 534 L 585 533 L 584 535 L 583 540 L 586 531 L 588 529 L 591 524 L 592 524 L 590 525 L 590 527 L 591 525 L 593 524 L 593 523 L 585 531 L 583 550 L 584 553 L 586 553 L 591 546 L 597 550 L 607 545 L 608 546 L 608 542 L 604 536 L 608 544 L 607 546 L 614 545 L 615 544 L 615 542 L 616 541 L 619 539 L 621 540 L 622 538 L 626 536 L 629 533 L 636 533 L 646 527 L 653 525 L 656 523 L 654 520 L 659 518 L 662 518 L 662 520 L 666 519 L 670 514 L 672 509 L 678 508 L 681 503 L 686 503 L 689 498 L 690 494 L 689 489 L 690 487 L 693 483 L 698 481 L 702 475 L 705 471 L 705 463 L 714 456 L 721 453 L 726 453 L 729 455 L 729 456 L 731 457 L 738 457 L 736 458 L 740 459 L 748 457 L 749 456 L 757 456 L 758 454 L 758 451 L 748 443 L 749 441 L 749 437 L 745 431 L 742 430 L 740 426 L 736 424 L 730 424 L 726 423 L 725 420 L 729 416 L 728 411 L 730 404 L 734 400 L 740 394 L 742 389 L 742 387 L 739 379 L 741 377 L 741 373 L 744 367 L 748 362 L 745 358 L 746 356 L 743 344 L 744 342 L 751 341 L 343 344 L 345 344 L 344 341 L 342 343 L 342 345 L 345 346 L 343 344 L 342 345 L 347 349 L 349 348 L 354 352 L 355 354 L 354 356 L 355 358 L 358 362 L 359 366 L 356 370 L 352 370 L 355 371 L 356 375 L 358 376 L 359 378 L 365 383 L 363 387 L 356 392 L 355 396 L 350 402 L 350 408 L 346 409 L 340 415 L 339 418 L 340 418 L 339 420 L 341 420 L 340 430 L 333 445 L 334 447 L 333 457 L 330 460 L 317 461 L 308 464 L 301 470 L 298 471 L 298 469 L 296 473 L 287 478 L 285 480 L 281 480 L 274 489 L 270 499 L 268 501 L 266 501 L 264 506 L 263 513 L 263 516 L 266 520 L 265 523 L 270 532 L 272 541 L 274 545 L 277 546 L 278 548 L 280 549 L 282 549 L 284 551 L 283 558 L 287 564 L 297 569 L 300 571 L 303 572 L 317 578 L 321 577 L 330 571 L 333 571 L 335 574 L 341 570 L 340 573 L 341 572 L 348 574 L 347 577 L 346 577 L 346 579 L 347 581 L 349 582 L 351 580 L 356 580 L 353 579 L 357 577 L 360 574 L 358 575 L 365 575 L 368 577 L 371 576 L 372 573 L 372 565 L 374 562 L 377 552 L 377 547 L 379 545 L 382 540 L 385 537 L 398 529 L 399 527 L 396 524 L 396 522 L 399 518 L 403 516 L 403 511 L 410 508 L 421 506 L 425 509 L 437 507 L 436 510 L 438 509 L 438 511 L 440 513 L 445 510 L 474 505 L 483 501 L 498 500 L 507 504 L 517 515 L 520 516 L 525 520 L 526 518 L 525 517" fill="none" stroke="purple" stroke-width="1" paint-order="fill" stroke-opacity="0.6" stroke-dasharray="" stroke-linecap="butt" stroke-miterlimit="10" transform_matrix="{&quot;a&quot;:1,&quot;b&quot;:0,&quot;c&quot;:0,&quot;d&quot;:1,&quot;e&quot;:0,&quot;f&quot;:0}" my_stoke="rgb(128, 0, 128)" my_stoke_width="1px" my_stoke_opacity="0.6" my_fill="none" my_fill_opacity="1" my_font_size="16px" opacity="1"/><path d="M 747 227 L 748 227 L 744 226 L 743 226 L 742 226 L 741 226 L 740 226 L 739 226 L 738 226 L 737 226 L 736 226 L 735 226 L 734 226 L 733 227 L 732 226 L 731 226 L 730 226 L 729 226 L 728 226 L 727 227 L 726 226 L 726 227 L 725 227 L 724 227 L 721 228 L 722 227 L 721 226 L 720 226 L 719 226 L 718 226 L 717 226 L 716 226 L 715 226 L 714 225 L 713 224 L 712 223 L 712 222 L 711 221 L 712 221 L 711 221 L 711 220 L 710 219 L 710 218 L 710 217 L 709 217 L 708 217 L 708 216 L 707 216 L 707 215 L 707 214 L 706 213 L 705 212 L 705 211 L 704 210 L 704 209 L 703 209 L 703 208 L 698 207 L 697 207 L 696 207 L 695 207 L 694 207 L 694 206 L 693 206 L 693 205 L 692 205 L 692 204 L 691 204 L 691 203 L 690 203 L 689 202 L 689 201 L 688 200 L 688 199 L 688 198 L 687 198 L 687 197 L 687 196 L 687 195 L 686 194 L 686 193 L 685 193 L 685 192 L 685 191 L 685 190 L 684 190 L 684 189 L 684 188 L 683 187 L 683 186 L 682 185 L 681 181 L 681 180 L 681 179 L 681 178 L 681 177 L 680 176 L 679 176 L 678 176 L 677 177 L 676 177 L 675 177 L 674 177 L 673 178 L 672 178 L 671 179 L 670 179 L 669 180 L 668 180 L 667 181 L 666 180 L 665 181 L 664 181 L 663 181 L 662 181 L 662 182 L 661 181 L 660 182 L 659 183 L 658 183 L 654 184 L 653 185 L 652 185 L 651 186 L 650 186 L 649 186 L 649 187 L 648 187 L 648 188 L 647 189 L 647 190 L 646 190 L 646 191 L 645 192 L 644 193 L 644 194 L 643 194 L 643 195 L 642 195 L 641 196 L 641 197 L 640 198 L 639 199 L 639 200 L 638 200 L 638 201 L 638 202 L 637 202 L 637 203 L 636 203 L 633 207 L 632 208 L 632 209 L 631 209 L 631 210 L 630 211 L 629 212 L 628 213 L 628 214 L 627 214 L 627 215 L 627 216 L 626 216 L 626 217 L 625 218 L 624 219 L 624 220 L 623 220 L 623 221 L 622 221 L 622 222 L 621 223 L 620 224 L 619 225 L 619 226 L 618 227 L 618 228 L 617 228 L 617 229 L 616 230 L 615 231 L 615 232 L 614 233 L 615 232 L 616 231 L 619 227 L 619 226 L 620 225 L 620 224 L 621 224 L 621 223 L 622 222 L 622 221 L 623 220 L 624 219 L 625 218 L 625 217 L 626 217 L 626 216 L 627 216 L 627 215 L 628 214 L 629 213 L 629 212 L 630 212 L 630 211 L 631 211 L 631 210 L 632 209 L 632 208 L 633 208 L 633 207 L 634 206 L 635 205 L 635 204 L 636 204 L 636 203 L 637 203 L 637 202 L 638 201 L 639 200 L 642 196 L 643 195 L 643 194 L 644 194 L 644 193 L 645 193 L 645 192 L 645 191 L 646 191 L 646 190 L 647 189 L 648 188 L 649 187 L 649 186 L 650 186 L 651 186 L 652 186 L 652 185 L 653 185 L 654 185 L 655 184 L 656 184 L 657 184 L 657 183 L 658 183 L 659 183 L 660 182 L 661 182 L 661 181 L 662 181 L 663 181 L 664 181 L 665 181 L 666 181 L 667 181 L 668 180 L 669 180 L 674 178 L 675 178 L 676 178 L 676 177 L 677 177 L 678 176 L 679 176 L 680 176 L 681 177 L 681 178 L 681 179 L 681 180 L 681 181 L 681 182 L 682 182 L 682 183 L 682 184 L 682 185 L 683 185 L 683 186 L 683 187 L 683 188 L 684 188 L 684 189 L 684 190 L 684 191 L 685 191 L 684 192 L 685 193 L 686 193 L 686 194 L 686 195 L 687 195 L 687 196 L 687 197 L 687 198 L 688 199 L 688 200 L 690 204 L 691 204 L 692 205 L 693 206 L 694 206 L 694 207 L 695 207 L 696 207 L 697 207 L 698 207 L 699 208 L 700 208 L 701 209 L 702 209 L 702 210 L 703 210 L 703 211 L 703 212 L 704 212 L 705 212 L 706 213 L 707 213 L 707 214 L 708 215 L 708 216 L 709 216 L 709 217 L 710 218 L 710 219 L 711 220 L 712 221 L 712 222 L 713 222 L 713 223 L 714 223 L 714 224 L 714 225 L 715 225 L 715 226 L 716 226 L 717 227 L 718 227 L 719 227 L 720 227 L 721 227 L 722 227 L 723 227 L 724 227 L 725 227 L 726 227 L 727 227 L 728 227 L 729 227 L 730 227 L 731 227 L 732 227 L 733 226 L 733 227 L 734 227 L 735 226 L 736 227 L 736 226 L 737 227 L 738 226 L 739 226 L 739 227 L 740 227 L 741 227 L 742 227 L 743 227 L 744 227 L 745 227 L 745 226 L 746 227 L 747 227 L 748 227 L 749 227 L 750 227 L 751 228 L 752 227 L 753 227 L 753 228 L 754 227 L 755 226 L 756 227 L 757 227 L 758 227 L 759 227 L 760 228 L 761 228 L 762 228 L 763 227 L 764 227 L 765 227 L 766 227 L 767 227 L 768 227 L 769 226 L 770 226 L 771 226 L 772 226 L 773 226 L 774 226 L 775 225 L 776 226 L 777 226 L 778 226 L 778 225 L 779 225 L 778 225 L 779 224" fill="none" stroke="purple" stroke-width="1" paint-order="fill" stroke-opacity="0.6" stroke-dasharray="" stroke-linecap="butt" stroke-miterlimit="10" transform_matrix="{&quot;a&quot;:1,&quot;b&quot;:0,&quot;c&quot;:0,&quot;d&quot;:1,&quot;e&quot;:0,&quot;f&quot;:0}" my_stoke="rgb(128, 0, 128)" my_stoke_width="1px" my_stoke_opacity="0.6" my_fill="none" my_fill_opacity="1" my_font_size="16px" opacity="1"/><path d="M 704 311 L 703 311 L 702 312 L 702 313 L 701 314 L 700 315 L 698 316 L 698 318 L 697 319 L 696 320 L 695 321 L 694 321 L 693 323 L 692 324 L 692 326 L 691 327 L 690 328 L 690 330 L 691 334 L 691 336 L 691 337 L 691 339 L 691 340 L 692 342 L 692 343 L 692 344 L 690 345 L 688 345 L 687 346 L 685 348 L 684 348 L 683 348 L 681 348 L 680 349 L 679 349 L 677 350 L 676 350 L 673 349 L 672 348 L 670 348 L 666 348 L 667 348 L 668 349 L 671 350 L 673 349 L 674 350 L 676 351 L 676 352 L 677 353 L 677 355 L 682 354 L 679 356 L 678 357 L 679 358 L 680 361 L 680 362 L 680 364 L 680 366 L 679 369 L 679 371 L 678 372 L 677 373 L 677 374 L 675 375 L 675 376 L 674 378 L 673 379 L 672 380 L 672 381 L 671 382 L 670 383 L 669 385 L 670 387 L 670 388 L 670 389 L 669 391 L 669 392 L 669 391 L 670 392 L 671 394 L 670 395 L 669 397 L 668 400 L 667 402 L 666 403 L 665 406 L 665 407 L 664 409 L 664 411 L 663 415 L 662 416 L 661 416 L 660 418 L 659 418 L 658 419 L 658 420 L 657 420 L 654 421 L 648 421 L 647 420 L 645 420 L 643 420 L 642 419 L 640 419 L 638 420 L 636 420 L 635 420 L 633 420 L 630 420 L 629 420 L 627 421 L 624 422 L 622 422 L 621 423 L 620 424 L 618 423 L 617 424 L 614 424 L 613 424 L 611 425 L 608 425 L 606 425 L 605 425 L 603 425 L 602 426 L 598 427 L 597 427 L 595 424 L 594 422 L 593 421 L 592 419 L 591 416 L 590 414 L 589 413 L 589 411 L 587 408 L 586 406 L 585 405 L 585 404 L 583 401 L 582 399 L 581 398 L 581 396 L 579 394 L 579 392 L 578 391 L 577 390 L 577 388 L 575 385 L 574 384 L 573 382 L 573 380 L 572 379 L 572 378 L 571 376 L 570 375 L 569 370 L 568 369 L 568 367 L 567 364 L 567 362 L 566 360 L 571 358 L 565 360 L 565 359 L 565 358 L 565 357 L 564 355 L 564 352 L 563 350 L 563 348 L 562 346 L 562 344 L 561 342 L 561 340 L 560 338 L 560 336 L 559 334 L 559 332 L 558 330 L 558 329 L 558 327 L 557 325 L 556 322 L 556 320 L 556 318 L 555 317 L 555 315 L 554 313 L 554 311 L 552 303 L 550 299 L 550 296 L 549 294 L 549 293 L 548 291 L 548 289 L 548 288 L 546 286 L 546 284 L 544 278 L 544 277 L 543 276 L 543 274 L 542 272 L 541 269 L 541 267 L 540 265 L 540 263 L 539 261 L 539 259 L 539 258 L 538 254 L 537 253 L 537 250 L 536 249 L 536 247 L 535 245 L 534 245 L 533 244 L 531 243 L 530 242 L 528 242 L 526 242 L 523 242" fill="none" stroke="purple" stroke-width="1" paint-order="fill" stroke-opacity="0.6" stroke-dasharray="" stroke-linecap="butt" stroke-miterlimit="10" transform_matrix="{&quot;a&quot;:1,&quot;b&quot;:0,&quot;c&quot;:0,&quot;d&quot;:1,&quot;e&quot;:0,&quot;f&quot;:0}" my_stoke="rgb(128, 0, 128)" my_stoke_width="1px" my_stoke_opacity="0.6" my_fill="none" my_fill_opacity="1" my_font_size="16px" opacity="1"/><path d="M 594 355 L 595 355 L 596 355 L 597 355 L 597 356 L 598 357 L 599 357 L 600 358 L 601 358 L 602 358 L 602 359 L 603 359 L 604 359 L 605 359 L 606 359 L 606 360 L 607 360 L 608 360 L 609 360 L 610 359 L 611 359 L 612 358 L 613 358 L 613 357 L 614 356 L 614 355 L 615 354 L 615 353 L 615 352 L 615 351 L 616 350 L 616 349 L 616 348 L 616 347 L 616 346 L 616 345 L 616 344 L 616 343 L 616 342 L 616 341 L 616 340 L 616 339 L 616 338 L 616 337 L 616 336 L 616 335 L 616 334 L 616 333 L 616 332 L 615 331 L 615 330 L 615 329 L 615 328 L 615 327 L 615 326 L 615 325 L 615 324 L 614 323 L 614 322 L 614 321 L 613 320 L 613 319 L 613 318 L 613 317 L 613 316 L 613 315 L 612 314 L 612 313 L 612 312 L 612 311 L 612 310 L 612 309 L 612 308 L 611 307 L 611 306 L 611 305 L 611 304 L 611 303 L 611 302 L 611 301 L 611 300 L 611 299 L 611 298 L 610 297 L 610 296 L 610 295 L 610 294 L 610 293 L 610 292 L 610 291 L 609 290 L 609 289 L 609 288 L 609 287 L 610 287 L 610 286 L 610 285 L 610 284 L 610 283 L 610 282 L 610 281 L 609 280 L 609 279 L 609 278 L 609 277 L 609 276 L 609 275 L 609 274 L 609 273 L 609 272 L 609 271 L 609 270 L 608 269 L 608 268 L 608 267 L 608 266 L 608 265 L 607 264 L 606 263 L 605 263 L 604 263 L 603 262 L 602 262 L 601 262 L 600 262 L 599 262 L 598 262 L 597 262 L 596 262 L 595 262 L 594 262 L 593 262 L 592 262 L 591 262 L 590 262 L 589 262 L 588 262 L 587 262 L 586 262 L 585 262 L 584 262 L 583 262 L 582 262 L 581 262 L 580 262 L 579 262 L 578 262 L 577 262 L 576 262 L 575 261 L 574 261 L 573 261 L 572 261 L 571 261 L 570 260 L 569 260 L 568 260 L 567 260 L 566 260 L 565 259 L 564 259 L 563 259 L 562 258 L 561 258 L 560 258 L 559 258 L 559 257 L 558 257 L 557 256 L 556 256 L 555 256 L 554 255 L 553 255 L 552 255 L 551 254 L 550 254 L 549 253 L 548 253 L 547 253 L 547 252 L 546 252 L 545 252 L 545 251 L 544 251 L 543 251 L 542 251 L 542 250 L 541 250 L 542 249 L 543 249 L 544 249 L 544 248 L 545 247 L 545 246 L 545 245 L 545 244 L 544 244 L 543 244 L 542 244 L 541 244 L 540 245 L 539 245 L 538 246 L 537 246 L 536 247 L 535 246 L 535 245 L 534 244 L 534 243 L 533 244 L 533 243 L 532 243 L 531 243 L 530 243 L 529 243 L 528 243 L 527 242 L 526 242 L 525 241 L 524 241 L 523 241 L 522 241 L 521 242 L 520 242 L 520 241 L 519 241 L 518 241 L 517 240 L 516 240 L 515 240 L 514 240 L 513 240 L 512 239 L 511 239 L 511 240 L 510 240 L 509 239 L 508 239 L 507 239 L 506 239 L 506 238 L 505 238 L 504 237 L 503 237 L 502 236 L 501 235 L 500 235 L 499 235 L 498 235 L 499 236 L 498 237 L 497 238 L 496 238 L 495 238 L 494 237 L 493 237 L 493 238 L 492 237 L 493 238 L 492 238 L 492 237 L 491 237 L 490 238 L 489 238 L 488 238 L 487 238" fill="none" stroke="purple" stroke-width="1" paint-order="fill" stroke-opacity="0.6" stroke-dasharray="" stroke-linecap="butt" stroke-miterlimit="10" transform_matrix="{&quot;a&quot;:1,&quot;b&quot;:0,&quot;c&quot;:0,&quot;d&quot;:1,&quot;e&quot;:0,&quot;f&quot;:0}" my_stoke="rgb(128, 0, 128)" my_stoke_width="1px" my_stoke_opacity="0.6" my_fill="none" my_fill_opacity="1" my_font_size="16px" opacity="1"/><path d="M 610 423 L 639 418 L 646 421 L 655 421 L 659 420 L 659 419 L 662 416 L 665 406 L 670 399 L 670 398 L 670 390 L 668 387 L 668 384 L 665 380 L 665 373 L 668 369 L 675 371 L 678 371 L 680 367 L 677 352 L 670 351 L 666 346 L 666 343 L 667 333 L 672 326 L 680 319 L 687 310 L 693 304 L 701 295 L 699 290 L 693 289 L 691 287 L 691 284 L 694 281 L 696 280 L 696 278 L 700 277 L 701 276 L 698 271 L 702 265 L 704 263 L 706 264 L 707 262 L 715 258 L 716 256 L 720 255 L 722 251 L 723 248 L 717 236 L 711 227 L 702 210 L 699 207 L 694 207 L 689 202 L 681 182 L 679 180 L 680 176 L 669 180 L 661 181 L 661 180 L 649 187 L 614 232 L 593 252 L 579 255 L 566 255 L 557 253 L 557 245 L 554 242 L 543 243 L 536 247 L 535 245 L 536 251 L 536 256 L 539 257 L 538 257 L 540 267 L 539 268 L 541 270 L 543 280 L 548 291 L 566 364 L 573 383 L 581 397 L 581 400 L 594 422 L 596 424 L 605 421 L 611 423" fill="none" stroke="purple" stroke-width="1" paint-order="fill" stroke-opacity="0.6" stroke-dasharray="" stroke-linecap="butt" stroke-miterlimit="10" transform_matrix="{&quot;a&quot;:1,&quot;b&quot;:0,&quot;c&quot;:0,&quot;d&quot;:1,&quot;e&quot;:0,&quot;f&quot;:0}" my_stoke="rgb(128, 0, 128)" my_stoke_width="1px" my_stoke_opacity="0.6" my_fill="none" my_fill_opacity="1" my_font_size="16px" opacity="1"/><path d="M 691 341 L 691 343 L 690 344 L 689 345 L 688 345 L 687 344 L 684 343 L 682 342 L 680 342 L 679 341 L 680 342 L 678 344 L 676 345 L 675 345 L 673 343 L 672 343 L 670 343 L 669 343 L 668 342 L 667 341 L 665 342 L 665 344 L 665 346 L 667 348 L 668 349 L 670 349 L 672 349 L 676 349 L 676 350 L 677 352 L 678 353 L 678 355 L 678 356 L 678 357 L 679 359 L 679 360 L 680 364 L 679 366 L 679 368 L 678 370 L 678 371 L 677 373 L 675 375 L 674 375 L 673 378 L 672 379 L 672 381 L 670 382 L 669 383 L 667 385 L 668 387 L 670 388 L 670 390 L 669 391 L 669 393 L 669 395 L 669 396 L 670 398 L 670 399 L 669 400 L 668 401 L 667 403 L 667 404 L 666 405 L 664 407 L 664 408 L 663 410 L 663 411 L 663 413 L 663 415 L 662 416 L 661 417 L 659 418 L 656 418 L 654 418 L 653 419 L 651 419 L 649 419 L 648 418 L 647 418 L 644 418 L 643 417 L 641 417 L 639 418 L 637 418 L 633 419 L 631 419 L 630 420 L 627 420 L 625 420 L 622 420 L 620 421 L 618 421 L 616 422 L 614 422 L 613 422 L 612 422 L 610 421 L 609 420 L 607 420 L 605 421 L 603 421 L 601 421 L 599 422 L 596 422 L 595 423 L 595 425 L 595 426 L 595 428 L 593 429 L 592 429 L 591 430 L 590 431 L 588 432 L 587 432 L 584 434 L 583 433 L 582 434 L 580 435 L 578 436 L 577 437 L 576 438 L 575 438 L 573 439 L 571 440 L 568 441 L 566 442 L 564 443 L 562 443 L 561 443 L 560 441 L 559 439 L 557 437 L 556 436 L 555 434 L 554 433 L 554 431 L 552 430 L 552 429 L 551 428 L 549 424 L 550 426 L 549 426 L 549 425 L 549 424 L 548 423 L 547 421 L 545 419 L 544 417 L 544 415 L 543 413 L 542 411 L 541 409 L 540 408 L 539 407 L 537 405 L 537 404 L 536 403 L 535 402 L 533 401 L 532 400 L 530 399 L 528 397 L 527 396 L 526 395 L 525 394 L 523 392 L 522 392 L 521 390 L 520 389 L 518 387 L 516 386 L 515 385 L 513 383 L 512 382 L 511 381 L 510 380 L 508 378 L 505 375 L 503 374 L 502 373 L 500 374 L 499 372 L 499 371 L 498 370 L 498 368 L 497 367 L 496 365 L 496 364 L 495 363 L 495 361 L 495 359 L 495 357 L 496 356 L 498 355 L 499 353 L 500 352 L 501 350 L 503 349 L 505 347 L 506 345 L 507 345 L 508 344 L 509 343 L 510 342 L 511 341 L 513 340 L 514 339 L 515 338 L 515 335 L 515 334 L 515 333 L 514 330 L 514 329 L 513 326 L 512 325 L 512 322 L 512 320 L 511 318 L 510 316 L 510 314 L 509 311 L 509 308 L 508 307 L 508 305 L 507 303 L 507 302 L 507 300 L 506 298 L 507 296 L 506 295 L 505 292 L 505 291 L 507 290 L 507 289 L 508 288 L 508 287 L 508 285 L 508 283 L 508 281 L 508 279 L 508 278 L 507 278 L 508 276 L 509 275 L 509 273 L 508 272 L 507 272 L 506 271 L 506 269 L 506 268 L 504 267 L 503 266 L 503 264 L 503 262 L 502 260 L 502 258 L 502 256 L 502 253 L 502 252 L 502 250 L 502 249 L 502 246 L 502 245 L 503 243 L 504 242 L 504 241 L 504 240 L 503 239 L 502 237 L 499 236 L 497 235 L 490 233 L 488 233 L 485 234 L 484 235 L 483 236 L 482 238 L 480 239 L 477 242 L 475 242 L 471 242 L 469 242 L 467 242 L 465 242 L 460 243 L 459 243 L 458 244 L 457 246 L 457 247 L 456 249 L 455 250 L 455 252 L 454 254 L 454 255 L 454 257 L 453 258 L 452 260 L 451 262 L 451 263 L 450 265 L 449 267 L 449 268 L 448 270 L 448 271 L 448 272 L 446 274 L 445 276 L 445 278 L 446 281 L 446 283 L 447 286 L 448 287 L 448 288 L 449 290 L 449 292 L 450 293 L 450 295 L 450 297 L 450 299 L 451 301 L 451 303 L 451 305 L 452 306 L 452 308 L 451 310 L 451 311 L 451 313 L 451 314 L 450 316 L 450 318 L 450 319 L 450 320 L 450 322 L 450 324 L 451 325 L 450 328 L 451 331 L 451 332 L 452 334 L 452 335 L 453 337 L 454 339 L 454 340 L 455 342 L 455 343 L 453 343 L 451 342 L 448 342 L 449 343 L 448 343 L 446 342 L 442 342 L 440 343 L 438 342 L 437 341 L 436 343 L 434 344 L 434 345" fill="none" stroke="purple" stroke-width="1" paint-order="fill" stroke-opacity="0.6" stroke-dasharray="" stroke-linecap="butt" stroke-miterlimit="10" transform_matrix="{&quot;a&quot;:1,&quot;b&quot;:0,&quot;c&quot;:0,&quot;d&quot;:1,&quot;e&quot;:0,&quot;f&quot;:0}" my_stoke="rgb(128, 0, 128)" my_stoke_width="1px" my_stoke_opacity="0.6" my_fill="none" my_fill_opacity="1" my_font_size="16px" opacity="1"/><path d="M 419 340 L 417 339 L 415 339 L 413 340 L 410 339 L 406 339 L 404 338 L 403 337 L 401 336 L 400 336 L 399 337 L 399 339 L 399 341 L 399 343 L 400 344 L 400 346 L 401 348 L 401 349 L 402 351 L 402 353 L 409 392 L 409 393 L 409 396 L 408 397 L 408 398 L 408 400 L 408 402 L 407 403 L 407 404 L 408 406 L 408 408 L 408 409 L 410 412 L 411 413 L 413 415 L 414 416 L 415 417 L 418 419 L 419 420 L 421 421 L 421 422 L 423 423 L 426 426 L 424 428 L 422 429 L 421 429 L 419 430 L 417 431 L 416 432 L 415 434 L 414 435 L 412 436 L 411 438 L 410 439 L 409 440 L 408 441 L 407 442 L 406 444 L 405 445 L 403 445 L 402 444 L 400 443 L 399 442 L 398 441 L 396 440 L 395 440 L 394 440 L 392 441 L 391 442 L 390 444 L 391 445 L 391 447 L 391 448 L 389 449 L 388 450 L 387 450 L 386 451 L 385 452 L 384 453 L 383 455 L 382 456 L 379 456 L 378 457 L 377 458 L 376 459 L 376 460 L 374 461 L 373 462 L 372 463 L 372 464 L 372 465 L 370 467 L 370 468 L 369 469 L 368 470 L 368 471 L 369 473 L 369 475 L 371 476 L 372 478 L 373 478 L 373 479 L 374 481 L 373 482 L 372 483 L 370 483 L 369 484 L 368 484 L 367 485 L 366 486 L 364 487 L 364 488 L 363 490 L 361 491 L 360 493 L 358 495 L 357 496 L 353 498 L 351 499 L 350 501 L 348 502 L 345 503 L 344 504 L 342 504 L 340 504 L 339 503 L 337 503 L 335 505 L 335 510 L 335 512 L 335 514 L 336 515 L 337 516 L 337 518 L 338 521 L 338 522 L 340 524 L 340 525 L 340 527 L 341 528 L 341 529 L 342 530 L 342 531 L 342 534 L 344 537 L 343 537 L 343 539 L 342 540 L 343 542 L 343 544 L 341 546 L 341 547 L 340 547 L 339 548 L 338 549 L 338 551 L 339 552 L 339 554 L 340 555 L 340 559 L 339 562 L 339 565 L 339 566 L 339 568 L 340 572 L 339 573 L 339 575 L 338 577 L 338 579 L 339 580 L 340 581 L 341 582 L 342 583 L 343 585 L 345 586 L 347 586 L 348 588 L 350 589 L 349 591 L 348 591 L 346 591 L 345 592 L 344 594 L 345 596 L 346 597 L 347 599 L 348 600 L 349 602 L 349 604 L 349 605 L 350 608 L 352 610 L 352 611 L 354 612 L 355 614 L 356 615 L 356 616 L 358 618 L 359 619 L 360 620 L 361 622 L 362 623 L 363 624 L 365 624 L 366 625 L 368 626 L 368 628 L 368 630 L 368 631 L 369 633 L 371 635 L 372 634 L 374 635 L 376 636 L 376 639 L 376 641 L 377 642 L 377 643 L 377 645 L 376 646 L 375 647 L 375 649 L 377 653 L 379 655 L 379 658 L 379 661 L 378 663 L 378 664 L 377 666 L 377 667 L 377 671 L 378 674 L 379 675 L 379 677 L 380 678 L 381 680 L 381 682 L 382 684 L 382 686 L 382 687 L 382 689 L 382 692 L 383 693 L 383 695 L 385 697 L 386 698 L 389 700 L 390 701 L 390 704 L 390 705 L 391 707 L 391 709 L 392 711 L 395 714 L 396 716 L 398 718 L 399 720 L 400 720 L 401 721 L 402 722 L 403 724 L 403 725 L 405 726 L 405 727 L 405 728 L 406 730 L 406 731 L 406 733 L 407 735 L 408 737 L 407 738 L 406 740 L 406 743 L 406 745 L 406 747 L 406 749 L 407 752 L 408 753 L 410 753 L 411 753 L 412 755" fill="none" stroke="purple" stroke-width="1" paint-order="fill" stroke-opacity="0.6" stroke-dasharray="" stroke-linecap="butt" stroke-miterlimit="10" transform_matrix="{&quot;a&quot;:1,&quot;b&quot;:0,&quot;c&quot;:0,&quot;d&quot;:1,&quot;e&quot;:0,&quot;f&quot;:0}" my_stoke="rgb(128, 0, 128)" my_stoke_width="1px" my_stoke_opacity="0.6" my_fill="none" my_fill_opacity="1" my_font_size="16px" opacity="1"/><path d="M 750 340 L 746 343 L 745 343 L 744 343 L 742 347 L 744 350 L 745 354 L 743 357 L 742 360 L 744 364 L 744 365 L 740 373 L 740 376 L 739 380 L 741 386 L 741 393 L 742 394 L 741 396 L 742 399 L 740 399 L 738 399 L 738 400 L 737 401 L 736 399 L 735 399 L 729 403 L 729 406 L 728 411 L 729 417 L 723 419 L 729 418 L 729 419 L 727 420 L 726 421 L 723 421 L 722 422 L 721 423 L 723 424 L 726 423 L 728 423 L 731 424 L 734 424 L 736 425 L 738 426 L 740 427 L 741 428 L 741 429 L 745 430 L 746 431 L 746 433 L 749 441 L 750 442 L 750 444 L 752 446 L 753 447 L 754 448 L 757 449 L 757 450 L 757 454 L 758 455 L 755 455 L 753 454 L 750 452 L 754 454 L 756 454 L 758 454 L 759 454 L 761 454 L 763 453 L 763 454 L 764 456 L 763 458 L 762 457 L 762 455 L 761 455 L 759 455 L 760 454 L 757 455 L 755 454 L 754 455 L 755 455 L 753 456 L 750 456 L 747 457 L 746 458 L 744 458 L 741 461 L 743 459 L 741 458 L 739 459 L 737 458 L 736 458 L 731 457 L 729 454 L 727 454 L 726 453 L 723 453 L 722 453 L 719 454 L 713 456 L 711 458 L 706 462 L 706 461 L 707 461 L 705 463 L 705 465 L 705 466 L 705 467 L 705 469 L 705 470 L 705 471 L 702 474 L 701 477 L 700 477 L 699 478 L 697 481 L 693 484 L 692 484 L 690 487 L 689 489 L 690 491 L 690 494 L 689 497 L 688 498 L 689 498 L 687 502 L 686 503 L 683 503 L 682 503 L 680 505 L 679 506 L 678 508 L 676 508 L 673 509 L 672 509 L 671 511 L 670 512 L 668 516 L 666 519 L 663 521 L 662 520 L 663 518 L 662 518 L 660 519 L 660 517 L 659 518 L 658 518 L 655 520 L 653 522 L 653 523 L 653 524 L 652 525 L 651 525 L 650 525 L 649 525 L 650 525 L 648 526 L 647 526 L 645 527 L 642 529 L 641 531 L 640 531 L 639 534 L 640 531 L 641 531 L 641 529 L 642 528 L 641 527 L 640 528 L 638 530 L 637 531 L 636 532 L 633 533 L 632 533 L 631 532 L 628 533 L 626 535 L 625 537 L 622 538 L 622 539 L 621 540 L 620 539 L 617 540 L 615 541 L 615 543 L 614 543 L 614 544 L 615 544 L 613 544 L 612 544 L 610 545 L 609 545 L 608 546 L 608 545 L 608 546 L 608 545 L 607 544 L 607 545 L 606 545 L 603 546 L 600 548 L 598 549 L 597 550 L 596 549 L 596 548 L 594 547 L 594 546 L 592 545 L 590 548 L 589 549 L 588 550 L 587 551 L 582 554 L 582 555 L 582 556 L 579 555 L 576 553 L 576 551 L 576 548 L 575 546 L 573 546 L 572 545 L 571 544 L 567 544 L 564 545 L 563 547 L 561 548 L 562 551 L 561 548 L 561 549 L 560 550 L 560 551 L 560 550 L 559 551 L 558 553 L 558 555 L 555 556 L 555 555 L 554 554 L 554 553 L 553 551 L 552 551 L 552 552 L 550 551 L 549 550 L 548 550 L 546 551 L 542 550 L 537 551 L 537 549 L 536 545 L 537 543 L 536 542 L 535 540 L 535 538 L 534 536 L 534 530 L 534 528 L 534 526 L 533 524 L 532 524 L 531 524 L 529 523 L 527 522 L 526 521 L 520 517 L 507 503 L 508 504 L 509 505 L 510 506 L 510 507 L 511 506 L 510 506 L 511 507 L 509 505 L 506 503 L 504 496 L 429 428 L 428 427 L 426 427 L 417 432 L 406 437 L 404 440 L 402 441 L 400 441 L 396 439 L 390 437 L 389 438 L 388 443 L 384 447 L 372 461 L 367 468 L 367 472 L 369 476 L 373 478 L 379 480 L 379 482 L 376 482 L 365 487 L 357 497 L 354 499 L 351 501 L 343 505 L 337 505 L 335 505 L 334 506 L 334 507 L 334 508 L 334 507 L 333 508 L 332 506 L 331 506 L 331 505 L 328 508 L 328 509 L 326 512 L 324 513 L 323 513 L 321 514 L 320 514 L 320 515 L 319 515 L 318 516 L 313 518 L 310 518 L 305 520 L 302 519 L 299 520 L 297 522 L 295 522 L 291 525 L 290 526 L 289 527 L 288 528 L 286 530 L 286 531 L 283 532 L 282 532 L 280 532 L 279 534 L 279 536 L 277 538 L 276 536 L 274 538 L 273 538 L 273 537 L 272 538 L 271 537 L 270 535 L 269 531 L 267 528 L 266 526 L 265 525 L 264 523 L 265 521 L 265 519 L 263 517 L 262 515 L 262 514 L 264 510 L 264 507 L 265 504 L 266 501 L 269 500 L 271 497 L 271 495 L 271 491 L 272 489 L 276 486 L 276 485 L 280 481 L 285 480 L 286 479 L 291 475 L 294 473 L 296 472 L 297 471 L 298 469 L 298 470 L 298 471 L 300 470 L 304 468 L 309 464 L 311 463 L 313 462 L 316 462 L 317 462 L 317 461 L 320 462 L 323 463 L 326 461 L 328 459 L 329 459 L 332 459 L 332 460 L 334 462 L 335 463 L 333 461 L 333 460 L 331 459 L 331 457 L 332 456 L 333 453 L 333 448 L 333 446 L 333 443 L 334 440 L 335 439 L 336 437 L 337 434 L 338 434 L 338 433 L 338 431 L 339 428 L 340 428 L 341 427 L 341 426 L 340 424 L 340 422 L 340 421 L 338 421 L 339 419 L 340 418 L 339 418 L 339 416 L 339 415 L 343 413 L 347 409 L 348 408 L 349 407 L 349 406 L 350 403 L 353 398 L 354 397 L 354 396 L 355 393 L 358 390 L 357 384 L 359 379 L 358 376 L 357 373 L 358 372 L 357 369 L 356 371 L 355 371 L 357 370 L 357 369 L 358 368 L 358 365 L 358 361 L 357 360 L 354 357 L 354 356 L 355 353 L 355 352 L 354 350 L 353 350 L 351 348 L 349 347 L 347 348 L 345 346 L 344 346 L 343 345 L 342 345 L 342 344" fill="none" stroke="purple" stroke-width="1" paint-order="fill" stroke-opacity="0.6" stroke-dasharray="" stroke-linecap="butt" stroke-miterlimit="10" transform_matrix="{&quot;a&quot;:1,&quot;b&quot;:0,&quot;c&quot;:0,&quot;d&quot;:1,&quot;e&quot;:0,&quot;f&quot;:0}" my_stoke="rgb(128, 0, 128)" my_stoke_width="1px" my_stoke_opacity="0.6" my_fill="none" my_fill_opacity="1" my_font_size="16px" opacity="1"/><path d="M 455 162 L 455 161 L 451 159 L 445 157 L 450 159 L 455 159 L 434 152 L 432 150 L 433 148 L 433 147 L 426 143 L 425 144 L 417 141 L 413 137 L 409 139 L 406 138 L 404 136 L 405 135 L 404 135 L 405 133 L 401 131 L 399 132 L 392 137 L 386 139 L 383 143 L 380 151 L 376 153 L 368 165 L 365 170 L 364 177 L 363 178 L 359 179 L 357 183 L 354 190 L 352 201 L 350 206 L 348 209 L 350 220 L 353 225 L 353 229 L 351 232 L 346 234 L 344 237 L 339 248 L 331 255 L 320 258 L 315 263 L 307 264 L 303 265 L 299 269 L 291 272 L 276 271 L 272 272 L 269 277 L 268 281 L 266 283 L 266 286 L 264 287 L 262 292 L 255 298 L 248 299 L 245 314 L 241 318 L 235 321 L 231 327 L 230 332 L 224 338 L 221 344 L 215 350 L 213 353 L 209 355 L 207 357 L 204 358 L 201 364 L 196 366 L 193 369 L 194 375 L 191 380 L 191 385 L 190 389 L 191 391 L 185 402 L 186 408 L 189 411 L 193 417 L 191 432 L 186 436 L 183 441 L 179 445 L 173 454 L 177 457 L 182 456 L 193 459 L 199 458 L 201 460 L 205 466 L 208 468 L 216 468 L 217 476 L 218 477 L 217 480 L 220 481 L 223 483 L 228 484 L 237 491 L 234 496 L 235 500 L 234 505 L 245 509 L 248 512 L 254 515 L 258 518 L 263 520 L 270 535 L 271 541 L 274 545 L 276 546 L 277 547 L 276 550 L 271 555 L 269 560 L 269 574 L 273 584 L 276 585 L 281 591 L 285 597 L 287 599 L 288 602 L 284 610 L 279 612 L 278 613 L 279 617 L 279 619 L 272 627 L 274 630 L 274 635 L 266 642 L 265 646 L 268 652 L 268 657 L 276 664 L 275 667 L 277 673 L 281 682 L 284 685 L 284 693 L 287 697 L 288 699 L 290 697 L 294 697 L 305 698 L 312 702 L 317 704 L 322 701 L 330 702 L 339 705 L 342 710 L 349 713 L 351 713 L 353 710 L 353 707 L 354 705 L 359 700 L 370 696 L 372 694 L 374 691 L 382 690 L 381 689 L 382 682 L 374 669 L 378 661 L 378 660 L 372 656 L 377 650 L 379 639 L 379 636 L 375 631 L 376 618 L 381 605 L 388 595 L 391 588 L 395 587 L 400 582 L 405 583 L 407 577 L 416 577 L 422 575 L 428 576 L 433 576 L 441 569 L 442 565 L 444 564 L 446 561 L 453 560 L 458 555 L 466 553 L 470 551 L 472 557 L 470 560 L 467 569 L 473 572 L 481 575 L 496 572 L 513 579 L 527 582 L 529 581 L 530 579 L 532 564 L 536 551 L 544 552 L 548 550 L 551 546 L 552 547 L 555 546 L 559 548 L 561 551 L 563 560 L 578 559 L 580 557 L 583 557 L 586 559 L 588 559 L 587 559 L 589 558 L 600 559 L 617 554 L 623 542 L 623 540 L 625 539 L 625 537 L 628 536 L 627 534 L 628 533 L 630 534 L 635 532 L 638 530 L 640 528 L 641 528 L 646 523 L 649 522 L 652 520 L 662 527 L 670 531 L 675 531 L 683 520 L 685 507 L 690 502 L 693 493 L 698 489 L 703 475 L 705 471 L 704 466 L 704 464 L 704 460 L 702 453 L 702 447 L 703 445 L 708 444 L 709 442 L 705 435 L 705 429 L 708 433 L 710 434 L 716 437 L 722 437 L 721 435 L 718 435 L 716 433 L 711 422 L 713 421 L 722 422 L 730 419 L 729 417 L 730 416 L 729 413 L 730 403 L 738 399 L 743 394 L 743 391 L 737 383 L 736 378 L 738 372 L 753 359 L 750 357 L 745 353 L 743 344 L 738 342 L 741 342 L 735 341" fill="none" stroke="purple" stroke-width="1" paint-order="fill" stroke-opacity="0.6" stroke-dasharray="" stroke-linecap="butt" stroke-miterlimit="10" transform_matrix="{&quot;a&quot;:1,&quot;b&quot;:0,&quot;c&quot;:0,&quot;d&quot;:1,&quot;e&quot;:0,&quot;f&quot;:0}" my_stoke="rgb(128, 0, 128)" my_stoke_width="1px" my_stoke_opacity="0.6" my_fill="none" my_fill_opacity="1" my_font_size="16px" opacity="1"/><path d="M 684 149 L 683 149 L 684 153 L 688 168 L 685 172 L 684 174 L 682 176 L 681 184 L 682 185 L 685 193 L 686 194 L 686 193 L 691 187 L 690 190 L 690 193 L 698 201 L 697 203 L 696 206 L 700 208 L 703 211 L 714 232 L 714 228 L 714 232 L 712 228 L 720 239 L 723 246 L 723 248 L 722 253 L 717 256 L 715 258 L 710 260 L 707 262 L 707 264 L 705 263 L 701 266 L 699 270 L 699 273 L 700 274 L 701 277 L 700 279 L 695 278 L 691 287 L 691 289 L 693 290 L 699 290 L 701 294 L 692 305 L 683 314 L 680 318 L 677 319 L 673 324 L 669 330 L 666 334 L 665 347 L 668 349 L 676 350 L 678 353 L 679 357 L 677 359 L 680 365 L 680 369 L 679 370 L 675 371 L 668 368 L 664 371 L 664 377 L 666 383 L 671 391 L 669 392 L 670 400 L 665 407 L 664 419 L 664 420 L 650 422 L 649 424 L 645 425 L 644 429 L 639 433 L 635 441 L 629 446 L 623 449 L 620 454 L 613 459 L 593 482 L 576 490 L 572 491 L 573 492 L 574 490 L 573 489 L 576 485 L 574 480 L 578 476 L 577 474 L 578 473 L 574 474 L 572 473 L 572 472 L 569 471 L 567 473 L 566 475 L 567 474 L 563 473 L 566 464 L 568 463 L 567 455 L 565 454 L 560 456 L 557 459 L 552 460 L 539 451 L 531 450 L 529 449 L 526 443 L 516 429 L 510 426 L 505 425 L 500 427 L 498 426 L 495 428 L 493 426 L 490 427 L 484 426 L 481 428 L 476 426 L 474 427 L 470 424 L 467 424 L 466 423 L 467 425 L 462 425 L 462 428 L 458 434 L 451 437 L 448 444 L 447 446 L 448 445 L 449 448 L 449 452 L 447 459 L 448 464 L 445 469 L 445 475 L 446 477 L 445 478 L 445 480 L 440 481 L 444 480 L 444 482 L 442 483 L 440 482 L 439 482 L 433 480 L 431 482 L 431 485 L 430 486 L 426 486 L 422 488 L 417 488 L 416 492 L 411 497 L 410 499 L 409 501 L 408 504 L 410 505 L 408 506 L 409 508 L 403 510 L 404 506 L 401 497 L 397 495 L 393 491 L 385 494 L 374 490 L 368 490 L 359 497 L 359 496 L 359 494 L 361 491 L 360 492 L 362 492 L 364 486 L 357 488 L 357 485 L 351 478 L 350 479 L 349 476 L 347 476 L 344 473 L 342 473 L 341 468 L 338 464 L 334 462 L 333 460 L 331 460 L 331 457 L 334 454 L 335 441 L 338 436 L 341 426 L 341 420 L 339 420 L 340 418 L 339 417 L 339 415 L 347 409 L 350 409 L 351 407 L 350 403 L 354 399 L 353 398 L 355 394 L 365 385 L 373 383 L 380 388 L 388 385 L 393 386 L 396 382 L 406 382 L 407 382 L 409 381 L 416 383 L 425 381 L 428 383 L 428 387 L 441 403 L 447 407 L 452 402 L 454 394 L 462 385 L 464 380 L 466 369 L 458 360 L 457 357 L 456 345 L 453 337 L 450 322 L 451 312 L 451 302 L 449 294 L 443 279 L 448 268 L 453 249 L 455 245 L 463 242 L 473 242 L 478 239 L 480 235 L 487 232 L 497 233 L 503 237 L 516 239 L 519 241 L 522 235 L 527 232 L 531 222 L 535 218 L 541 218 L 550 215 L 553 211 L 557 198 L 562 192 L 565 187 L 570 184 L 577 183 L 577 182 L 580 187 L 582 187 L 585 183 L 585 180 L 586 180 L 587 182 L 590 182 L 593 184 L 595 183 L 600 177 L 601 173 L 602 172 L 606 169 L 607 170 L 613 165 L 617 166 L 620 165 L 626 155 L 631 154 L 632 158 L 637 158 L 642 156 L 644 153 L 649 160 L 658 156" fill="none" stroke="purple" stroke-width="1" paint-order="fill" stroke-opacity="0.6" stroke-dasharray="" stroke-linecap="butt" stroke-miterlimit="10" transform_matrix="{&quot;a&quot;:1,&quot;b&quot;:0,&quot;c&quot;:0,&quot;d&quot;:1,&quot;e&quot;:0,&quot;f&quot;:0}" my_stoke="rgb(128, 0, 128)" my_stoke_width="1px" my_stoke_opacity="0.6" my_fill="none" my_fill_opacity="1" my_font_size="16px" opacity="1"/></g></svg>