<svg xmlns="http://www.w3.org/2000/svg" xmlns:xlink="http://www.w3.org/1999/xlink" version="1.1" baseProfile="full" width="910" height="773" style="user-select: none; position: absolute; left: 0px; top: 0px;" transform_matrix="{&quot;a&quot;:1,&quot;b&quot;:0,&quot;c&quot;:0,&quot;d&quot;:1,&quot;e&quot;:0,&quot;f&quot;:0}"><g><path d="M 91 680.5 L 819 680.5" fill="none" stroke="#E0E6F1" stroke-width="1" paint-order="fill" stroke-opacity="1" stroke-dasharray="" stroke-linecap="butt" stroke-miterlimit="10" transform_matrix="{&quot;a&quot;:1,&quot;b&quot;:0,&quot;c&quot;:0,&quot;d&quot;:1,&quot;e&quot;:0,&quot;f&quot;:0}" my_stoke="rgb(224, 230, 241)" my_stoke_width="1px" my_stoke_opacity="1" my_fill="none" my_fill_opacity="1" my_font_size="16px" opacity="1"/><path d="M 91 611.5 L 819 611.5" fill="none" stroke="#E0E6F1" stroke-width="1" paint-order="fill" stroke-opacity="1" stroke-dasharray="" stroke-linecap="butt" stroke-miterlimit="10" transform_matrix="{&quot;a&quot;:1,&quot;b&quot;:0,&quot;c&quot;:0,&quot;d&quot;:1,&quot;e&quot;:0,&quot;f&quot;:0}" my_stoke="rgb(224, 230, 241)" my_stoke_width="1px" my_stoke_opacity="1" my_fill="none" my_fill_opacity="1" my_font_size="16px" opacity="1"/><path d="M 91 474.5 L 819 474.5" fill="none" stroke="#E0E6F1" stroke-width="1" paint-order="fill" stroke-opacity="1" stroke-dasharray="" stroke-linecap="butt" stroke-miterlimit="10" transform_matrix="{&quot;a&quot;:1,&quot;b&quot;:0,&quot;c&quot;:0,&quot;d&quot;:1,&quot;e&quot;:0,&quot;f&quot;:0}" my_stoke="rgb(224, 230, 241)" my_stoke_width="1px" my_stoke_opacity="1" my_fill="none" my_fill_opacity="1" my_font_size="16px" opacity="1"/><path d="M 91 336.5 L 819 336.5" fill="none" stroke="#E0E6F1" stroke-width="1" paint-order="fill" stroke-opacity="1" stroke-dasharray="" stroke-linecap="butt" stroke-miterlimit="10" transform_matrix="{&quot;a&quot;:1,&quot;b&quot;:0,&quot;c&quot;:0,&quot;d&quot;:1,&quot;e&quot;:0,&quot;f&quot;:0}" my_stoke="rgb(224, 230, 241)" my_stoke_width="1px" my_stoke_opacity="1" my_fill="none" my_fill_opacity="1" my_font_size="16px" opacity="1"/><path d="M 91 199.5 L 819 199.5" fill="none" stroke="#E0E6F1" stroke-width="1" paint-order="fill" stroke-opacity="1" stroke-dasharray="" stroke-linecap="butt" stroke-miterlimit="10" transform_matrix="{&quot;a&quot;:1,&quot;b&quot;:0,&quot;c&quot;:0,&quot;d&quot;:1,&quot;e&quot;:0,&quot;f&quot;:0}" my_stoke="rgb(224, 230, 241)" my_stoke_width="1px" my_stoke_opacity="1" my_fill="none" my_fill_opacity="1" my_font_size="16px" opacity="1"/><path d="M 91 62.5 L 819 62.5" fill="none" stroke="#E0E6F1" stroke-width="1" paint-order="fill" stroke-opacity="1" stroke-dasharray="" stroke-linecap="butt" stroke-miterlimit="10" transform_matrix="{&quot;a&quot;:1,&quot;b&quot;:0,&quot;c&quot;:0,&quot;d&quot;:1,&quot;e&quot;:0,&quot;f&quot;:0}" my_stoke="rgb(224, 230, 241)" my_stoke_width="1px" my_stoke_opacity="1" my_fill="none" my_fill_opacity="1" my_font_size="16px" opacity="1"/><path d="M 91.5 61.84 L 91.5 680.24" fill="none" stroke="#E0E6F1" stroke-width="1" paint-order="fill" stroke-opacity="1" stroke-dasharray="" stroke-linecap="butt" stroke-miterlimit="10" transform_matrix="{&quot;a&quot;:1,&quot;b&quot;:0,&quot;c&quot;:0,&quot;d&quot;:1,&quot;e&quot;:0,&quot;f&quot;:0}" my_stoke="rgb(224, 230, 241)" my_stoke_width="1px" my_stoke_opacity="1" my_fill="none" my_fill_opacity="1" my_font_size="16px" opacity="1"/><path d="M 134.5 61.84 L 134.5 680.24" fill="none" stroke="#E0E6F1" stroke-width="1" paint-order="fill" stroke-opacity="1" stroke-dasharray="" stroke-linecap="butt" stroke-miterlimit="10" transform_matrix="{&quot;a&quot;:1,&quot;b&quot;:0,&quot;c&quot;:0,&quot;d&quot;:1,&quot;e&quot;:0,&quot;f&quot;:0}" my_stoke="rgb(224, 230, 241)" my_stoke_width="1px" my_stoke_opacity="1" my_fill="none" my_fill_opacity="1" my_font_size="16px" opacity="1"/><path d="M 262.5 61.84 L 262.5 680.24" fill="none" stroke="#E0E6F1" stroke-width="1" paint-order="fill" stroke-opacity="1" stroke-dasharray="" stroke-linecap="butt" stroke-miterlimit="10" transform_matrix="{&quot;a&quot;:1,&quot;b&quot;:0,&quot;c&quot;:0,&quot;d&quot;:1,&quot;e&quot;:0,&quot;f&quot;:0}" my_stoke="rgb(224, 230, 241)" my_stoke_width="1px" my_stoke_opacity="1" my_fill="none" my_fill_opacity="1" my_font_size="16px" opacity="1"/><path d="M 391.5 61.84 L 391.5 680.24" fill="none" stroke="#E0E6F1" stroke-width="1" paint-order="fill" stroke-opacity="1" stroke-dasharray="" stroke-linecap="butt" stroke-miterlimit="10" transform_matrix="{&quot;a&quot;:1,&quot;b&quot;:0,&quot;c&quot;:0,&quot;d&quot;:1,&quot;e&quot;:0,&quot;f&quot;:0}" my_stoke="rgb(224, 230, 241)" my_stoke_width="1px" my_stoke_opacity="1" my_fill="none" my_fill_opacity="1" my_font_size="16px" opacity="1"/><path d="M 519.5 61.84 L 519.5 680.24" fill="none" stroke="#E0E6F1" stroke-width="1" paint-order="fill" stroke-opacity="1" stroke-dasharray="" stroke-linecap="butt" stroke-miterlimit="10" transform_matrix="{&quot;a&quot;:1,&quot;b&quot;:0,&quot;c&quot;:0,&quot;d&quot;:1,&quot;e&quot;:0,&quot;f&quot;:0}" my_stoke="rgb(224, 230, 241)" my_stoke_width="1px" my_stoke_opacity="1" my_fill="none" my_fill_opacity="1" my_font_size="16px" opacity="1"/><path d="M 647.5 61.84 L 647.5 680.24" fill="none" stroke="#E0E6F1" stroke-width="1" paint-order="fill" stroke-opacity="1" stroke-dasharray="" stroke-linecap="butt" stroke-miterlimit="10" transform_matrix="{&quot;a&quot;:1,&quot;b&quot;:0,&quot;c&quot;:0,&quot;d&quot;:1,&quot;e&quot;:0,&quot;f&quot;:0}" my_stoke="rgb(224, 230, 241)" my_stoke_width="1px" my_stoke_opacity="1" my_fill="none" my_fill_opacity="1" my_font_size="16px" opacity="1"/><path d="M 776.5 61.84 L 776.5 680.24" fill="none" stroke="#E0E6F1" stroke-width="1" paint-order="fill" stroke-opacity="1" stroke-dasharray="" stroke-linecap="butt" stroke-miterlimit="10" transform_matrix="{&quot;a&quot;:1,&quot;b&quot;:0,&quot;c&quot;:0,&quot;d&quot;:1,&quot;e&quot;:0,&quot;f&quot;:0}" my_stoke="rgb(224, 230, 241)" my_stoke_width="1px" my_stoke_opacity="1" my_fill="none" my_fill_opacity="1" my_font_size="16px" opacity="1"/><path d="M 819.5 61.84 L 819.5 680.24" fill="none" stroke="#E0E6F1" stroke-width="1" paint-order="fill" stroke-opacity="1" stroke-dasharray="" stroke-linecap="butt" stroke-miterlimit="10" transform_matrix="{&quot;a&quot;:1,&quot;b&quot;:0,&quot;c&quot;:0,&quot;d&quot;:1,&quot;e&quot;:0,&quot;f&quot;:0}" my_stoke="rgb(224, 230, 241)" my_stoke_width="1px" my_stoke_opacity="1" my_fill="none" my_fill_opacity="1" my_font_size="16px" opacity="1"/><path d="M 91.5 680.24 L 91.5 61.84" fill="none" stroke="#6E7079" stroke-width="1" paint-order="fill" stroke-opacity="1" stroke-dasharray="" stroke-linecap="round" stroke-miterlimit="10" transform_matrix="{&quot;a&quot;:1,&quot;b&quot;:0,&quot;c&quot;:0,&quot;d&quot;:1,&quot;e&quot;:0,&quot;f&quot;:0}" my_stoke="rgb(110, 112, 121)" my_stoke_width="1px" my_stoke_opacity="1" my_fill="none" my_fill_opacity="1" my_font_size="16px" opacity="1"/><path d="M 91 680.5 L 819 680.5" fill="none" stroke="#6E7079" stroke-width="1" paint-order="fill" stroke-opacity="1" stroke-dasharray="" stroke-linecap="round" stroke-miterlimit="10" transform_matrix="{&quot;a&quot;:1,&quot;b&quot;:0,&quot;c&quot;:0,&quot;d&quot;:1,&quot;e&quot;:0,&quot;f&quot;:0}" my_stoke="rgb(110, 112, 121)" my_stoke_width="1px" my_stoke_opacity="1" my_fill="none" my_fill_opacity="1" my_font_size="16px" opacity="1"/><path d="M 91 680.5 L 86 680.5" fill="none" stroke="#6E7079" stroke-width="1" paint-order="fill" stroke-opacity="1" stroke-dasharray="" stroke-linecap="butt" stroke-miterlimit="10" transform_matrix="{&quot;a&quot;:1,&quot;b&quot;:0,&quot;c&quot;:0,&quot;d&quot;:1,&quot;e&quot;:0,&quot;f&quot;:0}" my_stoke="rgb(110, 112, 121)" my_stoke_width="1px" my_stoke_opacity="1" my_fill="none" my_fill_opacity="1" my_font_size="16px" opacity="1"/><path d="M 91 611.5 L 86 611.5" fill="none" stroke="#6E7079" stroke-width="1" paint-order="fill" stroke-opacity="1" stroke-dasharray="" stroke-linecap="butt" stroke-miterlimit="10" transform_matrix="{&quot;a&quot;:1,&quot;b&quot;:0,&quot;c&quot;:0,&quot;d&quot;:1,&quot;e&quot;:0,&quot;f&quot;:0}" my_stoke="rgb(110, 112, 121)" my_stoke_width="1px" my_stoke_opacity="1" my_fill="none" my_fill_opacity="1" my_font_size="16px" opacity="1"/><path d="M 91 474.5 L 86 474.5" fill="none" stroke="#6E7079" stroke-width="1" paint-order="fill" stroke-opacity="1" stroke-dasharray="" stroke-linecap="butt" stroke-miterlimit="10" transform_matrix="{&quot;a&quot;:1,&quot;b&quot;:0,&quot;c&quot;:0,&quot;d&quot;:1,&quot;e&quot;:0,&quot;f&quot;:0}" my_stoke="rgb(110, 112, 121)" my_stoke_width="1px" my_stoke_opacity="1" my_fill="none" my_fill_opacity="1" my_font_size="16px" opacity="1"/><path d="M 91 336.5 L 86 336.5" fill="none" stroke="#6E7079" stroke-width="1" paint-order="fill" stroke-opacity="1" stroke-dasharray="" stroke-linecap="butt" stroke-miterlimit="10" transform_matrix="{&quot;a&quot;:1,&quot;b&quot;:0,&quot;c&quot;:0,&quot;d&quot;:1,&quot;e&quot;:0,&quot;f&quot;:0}" my_stoke="rgb(110, 112, 121)" my_stoke_width="1px" my_stoke_opacity="1" my_fill="none" my_fill_opacity="1" my_font_size="16px" opacity="1"/><path d="M 91 199.5 L 86 199.5" fill="none" stroke="#6E7079" stroke-width="1" paint-order="fill" stroke-opacity="1" stroke-dasharray="" stroke-linecap="butt" stroke-miterlimit="10" transform_matrix="{&quot;a&quot;:1,&quot;b&quot;:0,&quot;c&quot;:0,&quot;d&quot;:1,&quot;e&quot;:0,&quot;f&quot;:0}" my_stoke="rgb(110, 112, 121)" my_stoke_width="1px" my_stoke_opacity="1" my_fill="none" my_fill_opacity="1" my_font_size="16px" opacity="1"/><path d="M 91 62.5 L 86 62.5" fill="none" stroke="#6E7079" stroke-width="1" paint-order="fill" stroke-opacity="1" stroke-dasharray="" stroke-linecap="butt" stroke-miterlimit="10" transform_matrix="{&quot;a&quot;:1,&quot;b&quot;:0,&quot;c&quot;:0,&quot;d&quot;:1,&quot;e&quot;:0,&quot;f&quot;:0}" my_stoke="rgb(110, 112, 121)" my_stoke_width="1px" my_stoke_opacity="1" my_fill="none" my_fill_opacity="1" my_font_size="16px" opacity="1"/><path d="M 91.5 680.24 L 91.5 685.24" fill="none" stroke="#6E7079" stroke-width="1" paint-order="fill" stroke-opacity="1" stroke-dasharray="" stroke-linecap="butt" stroke-miterlimit="10" transform_matrix="{&quot;a&quot;:1,&quot;b&quot;:0,&quot;c&quot;:0,&quot;d&quot;:1,&quot;e&quot;:0,&quot;f&quot;:0}" my_stoke="rgb(110, 112, 121)" my_stoke_width="1px" my_stoke_opacity="1" my_fill="none" my_fill_opacity="1" my_font_size="16px" opacity="1"/><path d="M 134.5 680.24 L 134.5 685.24" fill="none" stroke="#6E7079" stroke-width="1" paint-order="fill" stroke-opacity="1" stroke-dasharray="" stroke-linecap="butt" stroke-miterlimit="10" transform_matrix="{&quot;a&quot;:1,&quot;b&quot;:0,&quot;c&quot;:0,&quot;d&quot;:1,&quot;e&quot;:0,&quot;f&quot;:0}" my_stoke="rgb(110, 112, 121)" my_stoke_width="1px" my_stoke_opacity="1" my_fill="none" my_fill_opacity="1" my_font_size="16px" opacity="1"/><path d="M 262.5 680.24 L 262.5 685.24" fill="none" stroke="#6E7079" stroke-width="1" paint-order="fill" stroke-opacity="1" stroke-dasharray="" stroke-linecap="butt" stroke-miterlimit="10" transform_matrix="{&quot;a&quot;:1,&quot;b&quot;:0,&quot;c&quot;:0,&quot;d&quot;:1,&quot;e&quot;:0,&quot;f&quot;:0}" my_stoke="rgb(110, 112, 121)" my_stoke_width="1px" my_stoke_opacity="1" my_fill="none" my_fill_opacity="1" my_font_size="16px" opacity="1"/><path d="M 391.5 680.24 L 391.5 685.24" fill="none" stroke="#6E7079" stroke-width="1" paint-order="fill" stroke-opacity="1" stroke-dasharray="" stroke-linecap="butt" stroke-miterlimit="10" transform_matrix="{&quot;a&quot;:1,&quot;b&quot;:0,&quot;c&quot;:0,&quot;d&quot;:1,&quot;e&quot;:0,&quot;f&quot;:0}" my_stoke="rgb(110, 112, 121)" my_stoke_width="1px" my_stoke_opacity="1" my_fill="none" my_fill_opacity="1" my_font_size="16px" opacity="1"/><path d="M 519.5 680.24 L 519.5 685.24" fill="none" stroke="#6E7079" stroke-width="1" paint-order="fill" stroke-opacity="1" stroke-dasharray="" stroke-linecap="butt" stroke-miterlimit="10" transform_matrix="{&quot;a&quot;:1,&quot;b&quot;:0,&quot;c&quot;:0,&quot;d&quot;:1,&quot;e&quot;:0,&quot;f&quot;:0}" my_stoke="rgb(110, 112, 121)" my_stoke_width="1px" my_stoke_opacity="1" my_fill="none" my_fill_opacity="1" my_font_size="16px" opacity="1"/><path d="M 647.5 680.24 L 647.5 685.24" fill="none" stroke="#6E7079" stroke-width="1" paint-order="fill" stroke-opacity="1" stroke-dasharray="" stroke-linecap="butt" stroke-miterlimit="10" transform_matrix="{&quot;a&quot;:1,&quot;b&quot;:0,&quot;c&quot;:0,&quot;d&quot;:1,&quot;e&quot;:0,&quot;f&quot;:0}" my_stoke="rgb(110, 112, 121)" my_stoke_width="1px" my_stoke_opacity="1" my_fill="none" my_fill_opacity="1" my_font_size="16px" opacity="1"/><path d="M 776.5 680.24 L 776.5 685.24" fill="none" stroke="#6E7079" stroke-width="1" paint-order="fill" stroke-opacity="1" stroke-dasharray="" stroke-linecap="butt" stroke-miterlimit="10" transform_matrix="{&quot;a&quot;:1,&quot;b&quot;:0,&quot;c&quot;:0,&quot;d&quot;:1,&quot;e&quot;:0,&quot;f&quot;:0}" my_stoke="rgb(110, 112, 121)" my_stoke_width="1px" my_stoke_opacity="1" my_fill="none" my_fill_opacity="1" my_font_size="16px" opacity="1"/><path d="M 819.5 680.24 L 819.5 685.24" fill="none" stroke="#6E7079" stroke-width="1" paint-order="fill" stroke-opacity="1" stroke-dasharray="" stroke-linecap="butt" stroke-miterlimit="10" transform_matrix="{&quot;a&quot;:1,&quot;b&quot;:0,&quot;c&quot;:0,&quot;d&quot;:1,&quot;e&quot;:0,&quot;f&quot;:0}" my_stoke="rgb(110, 112, 121)" my_stoke_width="1px" my_stoke_opacity="1" my_fill="none" my_fill_opacity="1" my_font_size="16px" opacity="1"/><text xml:space="preserve" fill="rgb(110, 112, 121)" fill-opacity="1" stroke="none" transform="matrix(1,0,0,1,83,680.24)" dominant-baseline="central" text-anchor="end" x="0" y="0" style="font: 12px &quot;Microsoft YaHei&quot;; fill: rgb(110, 112, 121);" transform_matrix="{&quot;a&quot;:1,&quot;b&quot;:0,&quot;c&quot;:0,&quot;d&quot;:1,&quot;e&quot;:83,&quot;f&quot;:680.239990234375}" text_bbox="{&quot;x&quot;:-19.265625,&quot;y&quot;:-8,&quot;w&quot;:19.265625,&quot;h&quot;:16}" opacity="1" stroke-width="1px" stroke-opacity="1" font-family="&quot;Microsoft YaHei&quot;" my_stoke="none" my_stoke_width="1px" my_stoke_opacity="1" my_fill="rgb(110, 112, 121)" my_fill_opacity="1" my_font_size="12px" clip-path="none" content="-30">-30</text><text xml:space="preserve" fill="rgb(110, 112, 121)" fill-opacity="1" stroke="none" transform="matrix(1,0,0,1,83,611.5289)" dominant-baseline="central" text-anchor="end" x="0" y="0" style="font: 12px &quot;Microsoft YaHei&quot;; fill: rgb(110, 112, 121);" transform_matrix="{&quot;a&quot;:1,&quot;b&quot;:0,&quot;c&quot;:0,&quot;d&quot;:1,&quot;e&quot;:83,&quot;f&quot;:611.5288696289062}" text_bbox="{&quot;x&quot;:-19.265625,&quot;y&quot;:-8,&quot;w&quot;:19.265625,&quot;h&quot;:16}" opacity="1" stroke-width="1px" stroke-opacity="1" font-family="&quot;Microsoft YaHei&quot;" my_stoke="none" my_stoke_width="1px" my_stoke_opacity="1" my_fill="rgb(110, 112, 121)" my_fill_opacity="1" my_font_size="12px" clip-path="none" content="-20">-20</text><text xml:space="preserve" fill="rgb(110, 112, 121)" fill-opacity="1" stroke="none" transform="matrix(1,0,0,1,83,474.1067)" dominant-baseline="central" text-anchor="end" x="0" y="0" style="font: 12px &quot;Microsoft YaHei&quot;; fill: rgb(110, 112, 121);" transform_matrix="{&quot;a&quot;:1,&quot;b&quot;:0,&quot;c&quot;:0,&quot;d&quot;:1,&quot;e&quot;:83,&quot;f&quot;:474.106689453125}" text_bbox="{&quot;x&quot;:-7.046875,&quot;y&quot;:-8,&quot;w&quot;:7.046875,&quot;h&quot;:16}" opacity="1" stroke-width="1px" stroke-opacity="1" font-family="&quot;Microsoft YaHei&quot;" my_stoke="none" my_stoke_width="1px" my_stoke_opacity="1" my_fill="rgb(110, 112, 121)" my_fill_opacity="1" my_font_size="12px" clip-path="none" content="0">0</text><text xml:space="preserve" fill="rgb(110, 112, 121)" fill-opacity="1" stroke="none" transform="matrix(1,0,0,1,83,336.6844)" dominant-baseline="central" text-anchor="end" x="0" y="0" style="font: 12px &quot;Microsoft YaHei&quot;; fill: rgb(110, 112, 121);" transform_matrix="{&quot;a&quot;:1,&quot;b&quot;:0,&quot;c&quot;:0,&quot;d&quot;:1,&quot;e&quot;:83,&quot;f&quot;:336.68438720703125}" text_bbox="{&quot;x&quot;:-14.078125,&quot;y&quot;:-8,&quot;w&quot;:14.078125,&quot;h&quot;:16}" opacity="1" stroke-width="1px" stroke-opacity="1" font-family="&quot;Microsoft YaHei&quot;" my_stoke="none" my_stoke_width="1px" my_stoke_opacity="1" my_fill="rgb(110, 112, 121)" my_fill_opacity="1" my_font_size="12px" clip-path="none" content="20">20</text><text xml:space="preserve" fill="rgb(110, 112, 121)" fill-opacity="1" stroke="none" transform="matrix(1,0,0,1,83,199.2622)" dominant-baseline="central" text-anchor="end" x="0" y="0" style="font: 12px &quot;Microsoft YaHei&quot;; fill: rgb(110, 112, 121);" transform_matrix="{&quot;a&quot;:1,&quot;b&quot;:0,&quot;c&quot;:0,&quot;d&quot;:1,&quot;e&quot;:83,&quot;f&quot;:199.26220703125}" text_bbox="{&quot;x&quot;:-15.078125,&quot;y&quot;:-8,&quot;w&quot;:15.078125,&quot;h&quot;:16}" opacity="1" stroke-width="1px" stroke-opacity="1" font-family="&quot;Microsoft YaHei&quot;" my_stoke="none" my_stoke_width="1px" my_stoke_opacity="1" my_fill="rgb(110, 112, 121)" my_fill_opacity="1" my_font_size="12px" clip-path="none" content="40">40</text><text xml:space="preserve" fill="rgb(110, 112, 121)" fill-opacity="1" stroke="none" transform="matrix(1,0,0,1,83,61.84)" dominant-baseline="central" text-anchor="end" x="0" y="0" style="font: 12px &quot;Microsoft YaHei&quot;; fill: rgb(110, 112, 121);" transform_matrix="{&quot;a&quot;:1,&quot;b&quot;:0,&quot;c&quot;:0,&quot;d&quot;:1,&quot;e&quot;:83,&quot;f&quot;:61.84000015258789}" text_bbox="{&quot;x&quot;:-14.078125,&quot;y&quot;:-8,&quot;w&quot;:14.078125,&quot;h&quot;:16}" opacity="1" stroke-width="1px" stroke-opacity="1" font-family="&quot;Microsoft YaHei&quot;" my_stoke="none" my_stoke_width="1px" my_stoke_opacity="1" my_fill="rgb(110, 112, 121)" my_fill_opacity="1" my_font_size="12px" clip-path="none" content="60">60</text><text xml:space="preserve" fill="rgb(110, 112, 121)" fill-opacity="1" stroke="none" transform="matrix(1,0,0,1,91,688.24)" dominant-baseline="central" text-anchor="middle" x="0" y="6" style="font: 12px &quot;Microsoft YaHei&quot;; fill: rgb(110, 112, 121);" transform_matrix="{&quot;a&quot;:1,&quot;b&quot;:0,&quot;c&quot;:0,&quot;d&quot;:1,&quot;e&quot;:91,&quot;f&quot;:688.239990234375}" text_bbox="{&quot;x&quot;:-13.15625,&quot;y&quot;:-2,&quot;w&quot;:26.3125,&quot;h&quot;:16}" opacity="1" stroke-width="1px" stroke-opacity="1" font-family="&quot;Microsoft YaHei&quot;" my_stoke="none" my_stoke_width="1px" my_stoke_opacity="1" my_fill="rgb(110, 112, 121)" my_fill_opacity="1" my_font_size="12px" clip-path="none" content="-100">-100</text><text xml:space="preserve" fill="rgb(110, 112, 121)" fill-opacity="1" stroke="none" transform="matrix(1,0,0,1,133.8235,688.24)" dominant-baseline="central" text-anchor="middle" x="0" y="6" style="font: 12px &quot;Microsoft YaHei&quot;; fill: rgb(110, 112, 121);" transform_matrix="{&quot;a&quot;:1,&quot;b&quot;:0,&quot;c&quot;:0,&quot;d&quot;:1,&quot;e&quot;:133.82350158691406,&quot;f&quot;:688.239990234375}" text_bbox="{&quot;x&quot;:-9.640625,&quot;y&quot;:-2,&quot;w&quot;:19.28125,&quot;h&quot;:16}" opacity="1" stroke-width="1px" stroke-opacity="1" font-family="&quot;Microsoft YaHei&quot;" my_stoke="none" my_stoke_width="1px" my_stoke_opacity="1" my_fill="rgb(110, 112, 121)" my_fill_opacity="1" my_font_size="12px" clip-path="none" content="-90">-90</text><text xml:space="preserve" fill="rgb(110, 112, 121)" fill-opacity="1" stroke="none" transform="matrix(1,0,0,1,262.2941,688.24)" dominant-baseline="central" text-anchor="middle" x="0" y="6" style="font: 12px &quot;Microsoft YaHei&quot;; fill: rgb(110, 112, 121);" transform_matrix="{&quot;a&quot;:1,&quot;b&quot;:0,&quot;c&quot;:0,&quot;d&quot;:1,&quot;e&quot;:262.2940979003906,&quot;f&quot;:688.239990234375}" text_bbox="{&quot;x&quot;:-9.640625,&quot;y&quot;:-2,&quot;w&quot;:19.28125,&quot;h&quot;:16}" opacity="1" stroke-width="1px" stroke-opacity="1" font-family="&quot;Microsoft YaHei&quot;" my_stoke="none" my_stoke_width="1px" my_stoke_opacity="1" my_fill="rgb(110, 112, 121)" my_fill_opacity="1" my_font_size="12px" clip-path="none" content="-60">-60</text><text xml:space="preserve" fill="rgb(110, 112, 121)" fill-opacity="1" stroke="none" transform="matrix(1,0,0,1,390.7647,688.24)" dominant-baseline="central" text-anchor="middle" x="0" y="6" style="font: 12px &quot;Microsoft YaHei&quot;; fill: rgb(110, 112, 121);" transform_matrix="{&quot;a&quot;:1,&quot;b&quot;:0,&quot;c&quot;:0,&quot;d&quot;:1,&quot;e&quot;:390.76470947265625,&quot;f&quot;:688.239990234375}" text_bbox="{&quot;x&quot;:-9.640625,&quot;y&quot;:-2,&quot;w&quot;:19.28125,&quot;h&quot;:16}" opacity="1" stroke-width="1px" stroke-opacity="1" font-family="&quot;Microsoft YaHei&quot;" my_stoke="none" my_stoke_width="1px" my_stoke_opacity="1" my_fill="rgb(110, 112, 121)" my_fill_opacity="1" my_font_size="12px" clip-path="none" content="-30">-30</text><text xml:space="preserve" fill="rgb(110, 112, 121)" fill-opacity="1" stroke="none" transform="matrix(1,0,0,1,519.2353,688.24)" dominant-baseline="central" text-anchor="middle" x="0" y="6" style="font: 12px &quot;Microsoft YaHei&quot;; fill: rgb(110, 112, 121);" transform_matrix="{&quot;a&quot;:1,&quot;b&quot;:0,&quot;c&quot;:0,&quot;d&quot;:1,&quot;e&quot;:519.2352905273438,&quot;f&quot;:688.239990234375}" text_bbox="{&quot;x&quot;:-3.53125,&quot;y&quot;:-2,&quot;w&quot;:7.0625,&quot;h&quot;:16}" opacity="1" stroke-width="1px" stroke-opacity="1" font-family="&quot;Microsoft YaHei&quot;" my_stoke="none" my_stoke_width="1px" my_stoke_opacity="1" my_fill="rgb(110, 112, 121)" my_fill_opacity="1" my_font_size="12px" clip-path="none" content="0">0</text><text xml:space="preserve" fill="rgb(110, 112, 121)" fill-opacity="1" stroke="none" transform="matrix(1,0,0,1,647.7059,688.24)" dominant-baseline="central" text-anchor="middle" x="0" y="6" style="font: 12px &quot;Microsoft YaHei&quot;; fill: rgb(110, 112, 121);" transform_matrix="{&quot;a&quot;:1,&quot;b&quot;:0,&quot;c&quot;:0,&quot;d&quot;:1,&quot;e&quot;:647.7058715820312,&quot;f&quot;:688.239990234375}" text_bbox="{&quot;x&quot;:-7.046875,&quot;y&quot;:-2,&quot;w&quot;:14.09375,&quot;h&quot;:16}" opacity="1" stroke-width="1px" stroke-opacity="1" font-family="&quot;Microsoft YaHei&quot;" my_stoke="none" my_stoke_width="1px" my_stoke_opacity="1" my_fill="rgb(110, 112, 121)" my_fill_opacity="1" my_font_size="12px" clip-path="none" content="30">30</text><text xml:space="preserve" fill="rgb(110, 112, 121)" fill-opacity="1" stroke="none" transform="matrix(1,0,0,1,776.1765,688.24)" dominant-baseline="central" text-anchor="middle" x="0" y="6" style="font: 12px &quot;Microsoft YaHei&quot;; fill: rgb(110, 112, 121);" transform_matrix="{&quot;a&quot;:1,&quot;b&quot;:0,&quot;c&quot;:0,&quot;d&quot;:1,&quot;e&quot;:776.176513671875,&quot;f&quot;:688.239990234375}" text_bbox="{&quot;x&quot;:-7.046875,&quot;y&quot;:-2,&quot;w&quot;:14.09375,&quot;h&quot;:16}" opacity="1" stroke-width="1px" stroke-opacity="1" font-family="&quot;Microsoft YaHei&quot;" my_stoke="none" my_stoke_width="1px" my_stoke_opacity="1" my_fill="rgb(110, 112, 121)" my_fill_opacity="1" my_font_size="12px" clip-path="none" content="60">60</text><text xml:space="preserve" fill="rgb(110, 112, 121)" fill-opacity="1" stroke="none" transform="matrix(1,0,0,1,819,688.24)" dominant-baseline="central" text-anchor="middle" x="0" y="6" style="font: 12px &quot;Microsoft YaHei&quot;; fill: rgb(110, 112, 121);" transform_matrix="{&quot;a&quot;:1,&quot;b&quot;:0,&quot;c&quot;:0,&quot;d&quot;:1,&quot;e&quot;:819,&quot;f&quot;:688.239990234375}" text_bbox="{&quot;x&quot;:-7.046875,&quot;y&quot;:-2,&quot;w&quot;:14.09375,&quot;h&quot;:16}" opacity="1" stroke-width="1px" stroke-opacity="1" font-family="&quot;Microsoft YaHei&quot;" my_stoke="none" my_stoke_width="1px" my_stoke_opacity="1" my_fill="rgb(110, 112, 121)" my_fill_opacity="1" my_font_size="12px" clip-path="none" content="70">70</text><g clip-path="url(#zr2596-clip-7)"><path d="M 690.5294 542.8177 C 690.5294 542.8177 524.0453 542.8177 390.7647 508.4622 C 274.5983 478.5182 191.6353 435.5461 191.6353 336.6844 C 191.6353 280.9461 196.2714 244.4198 247.3059 199.2622 C 312.7514 141.3531 424.5953 130.5511 424.5953 130.5511" fill="none" stroke="#5470c6" stroke-width="2" paint-order="fill" stroke-opacity="1" stroke-dasharray="" stroke-linecap="butt" stroke-linejoin="bevel" stroke-miterlimit="10" transform_matrix="{&quot;a&quot;:1,&quot;b&quot;:0,&quot;c&quot;:0,&quot;d&quot;:1,&quot;e&quot;:0,&quot;f&quot;:0}" my_stoke="rgb(84, 112, 198)" my_stoke_width="2px" my_stoke_opacity="1" my_fill="none" my_fill_opacity="1" my_font_size="16px" opacity="1"/></g><defs/><path d="M 1 0 A 1 1 0 1 1 1 -0.0001" fill="rgb(255, 255, 255)" fill-opacity="1" stroke="#5470c6" stroke-width="0.2" paint-order="fill" stroke-opacity="1" stroke-dasharray="" stroke-linecap="butt" stroke-miterlimit="10" transform="matrix(10,0,0,10,690.5294,542.8177)" transform_matrix="{&quot;a&quot;:10,&quot;b&quot;:0,&quot;c&quot;:0,&quot;d&quot;:10,&quot;e&quot;:690.5294189453125,&quot;f&quot;:542.8176879882812}" my_stoke="rgb(84, 112, 198)" my_stoke_width="0.2px" my_stoke_opacity="1" my_fill="rgb(255, 255, 255)" my_fill_opacity="1" my_font_size="16px" opacity="1"/><path d="M 1 0 A 1 1 0 1 1 1 -0.0001" fill="rgb(255, 255, 255)" fill-opacity="1" stroke="#5470c6" stroke-width="0.2" paint-order="fill" stroke-opacity="1" stroke-dasharray="" stroke-linecap="butt" stroke-miterlimit="10" transform="matrix(10,0,0,10,390.7647,508.4622)" transform_matrix="{&quot;a&quot;:10,&quot;b&quot;:0,&quot;c&quot;:0,&quot;d&quot;:10,&quot;e&quot;:390.76470947265625,&quot;f&quot;:508.4621887207031}" my_stoke="rgb(84, 112, 198)" my_stoke_width="0.2px" my_stoke_opacity="1" my_fill="rgb(255, 255, 255)" my_fill_opacity="1" my_font_size="16px" opacity="1"/><path d="M 1 0 A 1 1 0 1 1 1 -0.0001" fill="rgb(255, 255, 255)" fill-opacity="1" stroke="#5470c6" stroke-width="0.2" paint-order="fill" stroke-opacity="1" stroke-dasharray="" stroke-linecap="butt" stroke-miterlimit="10" transform="matrix(10,0,0,10,191.6353,336.6844)" transform_matrix="{&quot;a&quot;:10,&quot;b&quot;:0,&quot;c&quot;:0,&quot;d&quot;:10,&quot;e&quot;:191.6352996826172,&quot;f&quot;:336.68438720703125}" my_stoke="rgb(84, 112, 198)" my_stoke_width="0.2px" my_stoke_opacity="1" my_fill="rgb(255, 255, 255)" my_fill_opacity="1" my_font_size="16px" opacity="1"/><path d="M 1 0 A 1 1 0 1 1 1 -0.0001" fill="rgb(255, 255, 255)" fill-opacity="1" stroke="#5470c6" stroke-width="0.2" paint-order="fill" stroke-opacity="1" stroke-dasharray="" stroke-linecap="butt" stroke-miterlimit="10" transform="matrix(10,0,0,10,247.3059,199.2622)" transform_matrix="{&quot;a&quot;:10,&quot;b&quot;:0,&quot;c&quot;:0,&quot;d&quot;:10,&quot;e&quot;:247.30589294433594,&quot;f&quot;:199.26220703125}" my_stoke="rgb(84, 112, 198)" my_stoke_width="0.2px" my_stoke_opacity="1" my_fill="rgb(255, 255, 255)" my_fill_opacity="1" my_font_size="16px" opacity="1"/><path d="M 1 0 A 1 1 0 1 1 1 -0.0001" fill="rgb(255, 255, 255)" fill-opacity="1" stroke="#5470c6" stroke-width="0.2" paint-order="fill" stroke-opacity="1" stroke-dasharray="" stroke-linecap="butt" stroke-miterlimit="10" transform="matrix(10,0,0,10,424.5953,130.5511)" transform_matrix="{&quot;a&quot;:10,&quot;b&quot;:0,&quot;c&quot;:0,&quot;d&quot;:10,&quot;e&quot;:424.5953063964844,&quot;f&quot;:130.5511016845703}" my_stoke="rgb(84, 112, 198)" my_stoke_width="0.2px" my_stoke_opacity="1" my_fill="rgb(255, 255, 255)" my_fill_opacity="1" my_font_size="16px" opacity="1"/><path d="M 0 0 L 728 0 L 728 30 L 0 30 L 0 0 Z" fill="rgb(47, 69, 84)" fill-opacity="0" stroke="none" transform="matrix(1,0,0,-1,93.8,765.5)" transform_matrix="{&quot;a&quot;:1,&quot;b&quot;:0,&quot;c&quot;:0,&quot;d&quot;:-1,&quot;e&quot;:93.80000305175781,&quot;f&quot;:765.5}" my_stoke="none" my_stoke_width="1px" my_stoke_opacity="1" my_fill="rgb(47, 69, 84)" my_fill_opacity="0" my_font_size="16px" opacity="1"/><path d="M 0 0 L 618.4 0 L 618.4 30 L 0 30 L 0 0 Z" fill="rgb(47, 69, 84)" fill-opacity="0" stroke="none" transform="matrix(0,-1,1,0,873.5,682.74)" transform_matrix="{&quot;a&quot;:0,&quot;b&quot;:-1,&quot;c&quot;:1,&quot;d&quot;:0,&quot;e&quot;:873.5,&quot;f&quot;:682.739990234375}" my_stoke="none" my_stoke_width="1px" my_stoke_opacity="1" my_fill="rgb(47, 69, 84)" my_fill_opacity="0" my_font_size="16px" opacity="1"/><g clip-path="url(#zr2596-clip-8)"><path d="M 728 0 L 0 0 L 0 5.625 L 182 7.1875 L 364 15 L 546 21.25 L 728 24.375 Z" fill="rgb(210, 219, 238)" fill-opacity="0.2" stroke="none" transform="matrix(1,0,0,-1,93.8,765.5)" transform_matrix="{&quot;a&quot;:1,&quot;b&quot;:0,&quot;c&quot;:0,&quot;d&quot;:-1,&quot;e&quot;:93.80000305175781,&quot;f&quot;:765.5}" my_stoke="none" my_stoke_width="1px" my_stoke_opacity="1" my_fill="rgb(210, 219, 238)" my_fill_opacity="0.2" my_font_size="16px" opacity="1"/></g><g clip-path="url(#zr2596-clip-9)"><path d="M 728 0 L 0 0 L 0 5.625 L 182 7.1875 L 364 15 L 546 21.25 L 728 24.375 Z" fill="rgb(143, 176, 247)" fill-opacity="0.2" stroke="none" transform="matrix(1,0,0,-1,93.8,765.5)" transform_matrix="{&quot;a&quot;:1,&quot;b&quot;:0,&quot;c&quot;:0,&quot;d&quot;:-1,&quot;e&quot;:93.80000305175781,&quot;f&quot;:765.5}" my_stoke="none" my_stoke_width="1px" my_stoke_opacity="1" my_fill="rgb(143, 176, 247)" my_fill_opacity="0.2" my_font_size="16px" opacity="1"/></g><g clip-path="url(#zr2596-clip-10)"><path d="M 728 0 L 0 0 L 0 5.625 L 182 7.1875 L 364 15 L 546 21.25 L 728 24.375 Z" fill="rgb(210, 219, 238)" fill-opacity="0.2" stroke="none" transform="matrix(1,0,0,-1,93.8,765.5)" transform_matrix="{&quot;a&quot;:1,&quot;b&quot;:0,&quot;c&quot;:0,&quot;d&quot;:-1,&quot;e&quot;:93.80000305175781,&quot;f&quot;:765.5}" my_stoke="none" my_stoke_width="1px" my_stoke_opacity="1" my_fill="rgb(210, 219, 238)" my_fill_opacity="0.2" my_font_size="16px" opacity="1"/></g><g clip-path="url(#zr2596-clip-11)"><path d="M 618.4 0 L 0 0 L 0 24.375 L 154.6 13.1089 L 309.2 5.625 L 463.8 7.7173 L 618.4 14.3804 Z" fill="rgb(210, 219, 238)" fill-opacity="0.2" stroke="none" transform="matrix(0,-1,1,0,873.5,682.74)" transform_matrix="{&quot;a&quot;:0,&quot;b&quot;:-1,&quot;c&quot;:1,&quot;d&quot;:0,&quot;e&quot;:873.5,&quot;f&quot;:682.739990234375}" my_stoke="none" my_stoke_width="1px" my_stoke_opacity="1" my_fill="rgb(210, 219, 238)" my_fill_opacity="0.2" my_font_size="16px" opacity="1"/></g><g clip-path="url(#zr2596-clip-12)"><path d="M 618.4 0 L 0 0 L 0 24.375 L 154.6 13.1089 L 309.2 5.625 L 463.8 7.7173 L 618.4 14.3804 Z" fill="rgb(143, 176, 247)" fill-opacity="0.2" stroke="none" transform="matrix(0,-1,1,0,873.5,682.74)" transform_matrix="{&quot;a&quot;:0,&quot;b&quot;:-1,&quot;c&quot;:1,&quot;d&quot;:0,&quot;e&quot;:873.5,&quot;f&quot;:682.739990234375}" my_stoke="none" my_stoke_width="1px" my_stoke_opacity="1" my_fill="rgb(143, 176, 247)" my_fill_opacity="0.2" my_font_size="16px" opacity="1"/></g><g clip-path="url(#zr2596-clip-13)"><path d="M 618.4 0 L 0 0 L 0 24.375 L 154.6 13.1089 L 309.2 5.625 L 463.8 7.7173 L 618.4 14.3804 Z" fill="rgb(210, 219, 238)" fill-opacity="0.2" stroke="none" transform="matrix(0,-1,1,0,873.5,682.74)" transform_matrix="{&quot;a&quot;:0,&quot;b&quot;:-1,&quot;c&quot;:1,&quot;d&quot;:0,&quot;e&quot;:873.5,&quot;f&quot;:682.739990234375}" my_stoke="none" my_stoke_width="1px" my_stoke_opacity="1" my_fill="rgb(210, 219, 238)" my_fill_opacity="0.2" my_font_size="16px" opacity="1"/></g><g clip-path="url(#zr2596-clip-8)"><path d="M 0 5.625 L 182 7.1875 L 364 15 L 546 21.25 L 728 24.375" fill="none" stroke="#d2dbee" stroke-width="0.5" paint-order="fill" stroke-opacity="1" stroke-dasharray="" stroke-linecap="butt" stroke-miterlimit="10" transform="matrix(1,0,0,-1,93.8,765.5)" transform_matrix="{&quot;a&quot;:1,&quot;b&quot;:0,&quot;c&quot;:0,&quot;d&quot;:-1,&quot;e&quot;:93.80000305175781,&quot;f&quot;:765.5}" my_stoke="rgb(210, 219, 238)" my_stoke_width="0.5px" my_stoke_opacity="1" my_fill="none" my_fill_opacity="1" my_font_size="16px" opacity="1"/></g><g clip-path="url(#zr2596-clip-9)"><path d="M 0 5.625 L 182 7.1875 L 364 15 L 546 21.25 L 728 24.375" fill="none" stroke="#8fb0f7" stroke-width="0.5" paint-order="fill" stroke-opacity="1" stroke-dasharray="" stroke-linecap="butt" stroke-miterlimit="10" transform="matrix(1,0,0,-1,93.8,765.5)" transform_matrix="{&quot;a&quot;:1,&quot;b&quot;:0,&quot;c&quot;:0,&quot;d&quot;:-1,&quot;e&quot;:93.80000305175781,&quot;f&quot;:765.5}" my_stoke="rgb(143, 176, 247)" my_stoke_width="0.5px" my_stoke_opacity="1" my_fill="none" my_fill_opacity="1" my_font_size="16px" opacity="1"/></g><g clip-path="url(#zr2596-clip-10)"><path d="M 0 5.625 L 182 7.1875 L 364 15 L 546 21.25 L 728 24.375" fill="none" stroke="#d2dbee" stroke-width="0.5" paint-order="fill" stroke-opacity="1" stroke-dasharray="" stroke-linecap="butt" stroke-miterlimit="10" transform="matrix(1,0,0,-1,93.8,765.5)" transform_matrix="{&quot;a&quot;:1,&quot;b&quot;:0,&quot;c&quot;:0,&quot;d&quot;:-1,&quot;e&quot;:93.80000305175781,&quot;f&quot;:765.5}" my_stoke="rgb(210, 219, 238)" my_stoke_width="0.5px" my_stoke_opacity="1" my_fill="none" my_fill_opacity="1" my_font_size="16px" opacity="1"/></g><g clip-path="url(#zr2596-clip-11)"><path d="M 0 24.375 L 154.6 13.1089 L 309.2 5.625 L 463.8 7.7173 L 618.4 14.3804" fill="none" stroke="#d2dbee" stroke-width="0.5" paint-order="fill" stroke-opacity="1" stroke-dasharray="" stroke-linecap="butt" stroke-miterlimit="10" transform="matrix(0,-1,1,0,873.5,682.74)" transform_matrix="{&quot;a&quot;:0,&quot;b&quot;:-1,&quot;c&quot;:1,&quot;d&quot;:0,&quot;e&quot;:873.5,&quot;f&quot;:682.739990234375}" my_stoke="rgb(210, 219, 238)" my_stoke_width="0.5px" my_stoke_opacity="1" my_fill="none" my_fill_opacity="1" my_font_size="16px" opacity="1"/></g><g clip-path="url(#zr2596-clip-12)"><path d="M 0 24.375 L 154.6 13.1089 L 309.2 5.625 L 463.8 7.7173 L 618.4 14.3804" fill="none" stroke="#8fb0f7" stroke-width="0.5" paint-order="fill" stroke-opacity="1" stroke-dasharray="" stroke-linecap="butt" stroke-miterlimit="10" transform="matrix(0,-1,1,0,873.5,682.74)" transform_matrix="{&quot;a&quot;:0,&quot;b&quot;:-1,&quot;c&quot;:1,&quot;d&quot;:0,&quot;e&quot;:873.5,&quot;f&quot;:682.739990234375}" my_stoke="rgb(143, 176, 247)" my_stoke_width="0.5px" my_stoke_opacity="1" my_fill="none" my_fill_opacity="1" my_font_size="16px" opacity="1"/></g><g clip-path="url(#zr2596-clip-13)"><path d="M 0 24.375 L 154.6 13.1089 L 309.2 5.625 L 463.8 7.7173 L 618.4 14.3804" fill="none" stroke="#d2dbee" stroke-width="0.5" paint-order="fill" stroke-opacity="1" stroke-dasharray="" stroke-linecap="butt" stroke-miterlimit="10" transform="matrix(0,-1,1,0,873.5,682.74)" transform_matrix="{&quot;a&quot;:0,&quot;b&quot;:-1,&quot;c&quot;:1,&quot;d&quot;:0,&quot;e&quot;:873.5,&quot;f&quot;:682.739990234375}" my_stoke="rgb(210, 219, 238)" my_stoke_width="0.5px" my_stoke_opacity="1" my_fill="none" my_fill_opacity="1" my_font_size="16px" opacity="1"/></g><path d="M 0 0 L 728 0 L 728 30 L 0 30 L 0 0 Z" fill="none" fill-opacity="1" stroke="none" transform="matrix(1,0,0,-1,93.8,765.5)" transform_matrix="{&quot;a&quot;:1,&quot;b&quot;:0,&quot;c&quot;:0,&quot;d&quot;:-1,&quot;e&quot;:93.80000305175781,&quot;f&quot;:765.5}" my_stoke="none" my_stoke_width="1px" my_stoke_opacity="1" my_fill="none" my_fill_opacity="1" my_font_size="16px" opacity="1"/><path d="M 0 0 L 728 0 L 728 30 L 0 30 L 0 0 Z" fill="rgb(135, 175, 255)" fill-opacity="0.2" stroke="none" transform="matrix(1,0,0,-1,93.8,765.5)" transform_matrix="{&quot;a&quot;:1,&quot;b&quot;:0,&quot;c&quot;:0,&quot;d&quot;:-1,&quot;e&quot;:93.80000305175781,&quot;f&quot;:765.5}" my_stoke="none" my_stoke_width="1px" my_stoke_opacity="1" my_fill="rgb(135, 175, 255)" my_fill_opacity="0.2" my_font_size="16px" opacity="1"/><path d="M 3.5 0.5 L 724.5 0.5 A 3 3 0 0 1 727.5 3.5 L 727.5 26.5 A 3 3 0 0 1 724.5 29.5 L 3.5 29.5 A 3 3 0 0 1 0.5 26.5 L 0.5 3.5 A 3 3 0 0 1 3.5 0.5" fill="rgb(0, 0, 0)" fill-opacity="0" stroke="#d2dbee" stroke-width="1" paint-order="fill" stroke-opacity="1" stroke-dasharray="" stroke-linecap="butt" stroke-miterlimit="10" transform="matrix(1,0,0,-1,93.8,765.5)" transform_matrix="{&quot;a&quot;:1,&quot;b&quot;:0,&quot;c&quot;:0,&quot;d&quot;:-1,&quot;e&quot;:93.80000305175781,&quot;f&quot;:765.5}" my_stoke="rgb(210, 219, 238)" my_stoke_width="1px" my_stoke_opacity="1" my_fill="rgb(0, 0, 0)" my_fill_opacity="0" my_font_size="16px" opacity="1"/><path d="M 0 29.5 L 728 29.5 L 728 34.5 A 2 2 0 0 1 726 36.5 L 2 36.5 A 2 2 0 0 1 0 34.5 L 0 29.5" fill="rgb(210, 219, 238)" fill-opacity="0.7" stroke="none" transform="matrix(1,0,0,-1,93.8,765.5)" transform_matrix="{&quot;a&quot;:1,&quot;b&quot;:0,&quot;c&quot;:0,&quot;d&quot;:-1,&quot;e&quot;:93.80000305175781,&quot;f&quot;:765.5}" my_stoke="none" my_stoke_width="1px" my_stoke_opacity="1" my_fill="rgb(210, 219, 238)" my_fill_opacity="0.7" my_font_size="16px" opacity="1"/><path d="M -2.2408 -1.6796 C -1.8674 -1.6796 -1.6817 -1.4939 -1.6817 -1.1204 L -1.6817 1.1204 C -1.6817 1.4939 -1.8674 1.6796 -2.2408 1.6796 C -2.6143 1.6796 -2.8 1.4939 -2.8 1.1204 L -2.8 -1.1204 C -2.8 -1.4939 -2.6143 -1.6796 -2.2408 -1.6796 Z M 0 -1.6796 C 0.3735 -1.6796 0.5592 -1.4939 0.5592 -1.1204 L 0.5592 1.1204 C 0.5592 1.4939 0.3735 1.6796 0 1.6796 C -0.3735 1.6796 -0.5592 1.4939 -0.5592 1.1204 L -0.5592 -1.1204 C -0.5592 -1.4939 -0.3735 -1.6796 0 -1.6796 Z M 2.2408 -1.6796 C 2.6143 -1.6796 2.8 -1.4939 2.8 -1.1204 L 2.8 1.1204 C 2.8 1.4939 2.6143 1.6796 2.2408 1.6796 C 1.8674 1.6796 1.6817 1.4939 1.6817 1.1204 L 1.6817 -1.1204 C 1.6796 -1.4939 1.8674 -1.6796 2.2408 -1.6796 Z" fill="rgb(255, 255, 255)" fill-opacity="1" stroke="none" transform="matrix(1,0,0,-1,457.8,732.5)" transform_matrix="{&quot;a&quot;:1,&quot;b&quot;:0,&quot;c&quot;:0,&quot;d&quot;:-1,&quot;e&quot;:457.79998779296875,&quot;f&quot;:732.5}" my_stoke="none" my_stoke_width="1px" my_stoke_opacity="1" my_fill="rgb(255, 255, 255)" my_fill_opacity="1" my_font_size="16px" opacity="1"/><path d="M 0 0 L 618.4 0 L 618.4 30 L 0 30 L 0 0 Z" fill="none" fill-opacity="1" stroke="none" transform="matrix(0,-1,1,0,873.5,682.74)" transform_matrix="{&quot;a&quot;:0,&quot;b&quot;:-1,&quot;c&quot;:1,&quot;d&quot;:0,&quot;e&quot;:873.5,&quot;f&quot;:682.739990234375}" my_stoke="none" my_stoke_width="1px" my_stoke_opacity="1" my_fill="none" my_fill_opacity="1" my_font_size="16px" opacity="1"/><path d="M 0 0 L 618.4 0 L 618.4 30 L 0 30 L 0 0 Z" fill="rgb(135, 175, 255)" fill-opacity="0.2" stroke="none" transform="matrix(0,-1,1,0,873.5,682.74)" transform_matrix="{&quot;a&quot;:0,&quot;b&quot;:-1,&quot;c&quot;:1,&quot;d&quot;:0,&quot;e&quot;:873.5,&quot;f&quot;:682.739990234375}" my_stoke="none" my_stoke_width="1px" my_stoke_opacity="1" my_fill="rgb(135, 175, 255)" my_fill_opacity="0.2" my_font_size="16px" opacity="1"/><path d="M 3.5 0.5 L 615.5 0.5 A 3 3 0 0 1 618.5 3.5 L 618.5 26.5 A 3 3 0 0 1 615.5 29.5 L 3.5 29.5 A 3 3 0 0 1 0.5 26.5 L 0.5 3.5 A 3 3 0 0 1 3.5 0.5" fill="rgb(0, 0, 0)" fill-opacity="0" stroke="#d2dbee" stroke-width="1" paint-order="fill" stroke-opacity="1" stroke-dasharray="" stroke-linecap="butt" stroke-miterlimit="10" transform="matrix(0,-1,1,0,873.5,682.74)" transform_matrix="{&quot;a&quot;:0,&quot;b&quot;:-1,&quot;c&quot;:1,&quot;d&quot;:0,&quot;e&quot;:873.5,&quot;f&quot;:682.739990234375}" my_stoke="rgb(210, 219, 238)" my_stoke_width="1px" my_stoke_opacity="1" my_fill="rgb(0, 0, 0)" my_fill_opacity="0" my_font_size="16px" opacity="1"/><path d="M 0 29.5 L 618.4 29.5 L 618.4 34.5 A 2 2 0 0 1 616.4 36.5 L 2 36.5 A 2 2 0 0 1 0 34.5 L 0 29.5" fill="rgb(210, 219, 238)" fill-opacity="0.7" stroke="none" transform="matrix(0,-1,1,0,873.5,682.74)" transform_matrix="{&quot;a&quot;:0,&quot;b&quot;:-1,&quot;c&quot;:1,&quot;d&quot;:0,&quot;e&quot;:873.5,&quot;f&quot;:682.739990234375}" my_stoke="none" my_stoke_width="1px" my_stoke_opacity="1" my_fill="rgb(210, 219, 238)" my_fill_opacity="0.7" my_font_size="16px" opacity="1"/><path d="M -2.2408 -1.6796 C -1.8674 -1.6796 -1.6817 -1.4939 -1.6817 -1.1204 L -1.6817 1.1204 C -1.6817 1.4939 -1.8674 1.6796 -2.2408 1.6796 C -2.6143 1.6796 -2.8 1.4939 -2.8 1.1204 L -2.8 -1.1204 C -2.8 -1.4939 -2.6143 -1.6796 -2.2408 -1.6796 Z M 0 -1.6796 C 0.3735 -1.6796 0.5592 -1.4939 0.5592 -1.1204 L 0.5592 1.1204 C 0.5592 1.4939 0.3735 1.6796 0 1.6796 C -0.3735 1.6796 -0.5592 1.4939 -0.5592 1.1204 L -0.5592 -1.1204 C -0.5592 -1.4939 -0.3735 -1.6796 0 -1.6796 Z M 2.2408 -1.6796 C 2.6143 -1.6796 2.8 -1.4939 2.8 -1.1204 L 2.8 1.1204 C 2.8 1.4939 2.6143 1.6796 2.2408 1.6796 C 1.8674 1.6796 1.6817 1.4939 1.6817 1.1204 L 1.6817 -1.1204 C 1.6796 -1.4939 1.8674 -1.6796 2.2408 -1.6796 Z" fill="rgb(255, 255, 255)" fill-opacity="1" stroke="none" transform="matrix(0,-1,1,0,906.5,373.54)" transform_matrix="{&quot;a&quot;:0,&quot;b&quot;:-1,&quot;c&quot;:1,&quot;d&quot;:0,&quot;e&quot;:906.5,&quot;f&quot;:373.5400085449219}" my_stoke="none" my_stoke_width="1px" my_stoke_opacity="1" my_fill="rgb(255, 255, 255)" my_fill_opacity="1" my_font_size="16px" opacity="1"/><path d="M 0 1.628 L 0 2 M 0 0 L 0 0.375 M -0.1 0.375 L 0.1 0.375 A 0.1 0.1 0 0 1 0.2 0.475 L 0.2 1.525 A 0.1 0.1 0 0 1 0.1 1.625 L -0.1 1.625 A 0.1 0.1 0 0 1 -0.2 1.525 L -0.2 0.475 A 0.1 0.1 0 0 1 -0.1 0.375 Z" fill="rgb(255, 255, 255)" fill-opacity="1" stroke="#ACB8D1" stroke-width="0.06666666666666667" paint-order="fill" stroke-opacity="1" stroke-dasharray="" stroke-linecap="butt" stroke-miterlimit="10" transform="matrix(15,0,0,-15,94.8,765.5)" transform_matrix="{&quot;a&quot;:15,&quot;b&quot;:0,&quot;c&quot;:0,&quot;d&quot;:-15,&quot;e&quot;:94.80000305175781,&quot;f&quot;:765.5}" my_stoke="rgb(172, 184, 209)" my_stoke_width="0.0666667px" my_stoke_opacity="1" my_fill="rgb(255, 255, 255)" my_fill_opacity="1" my_font_size="16px" opacity="1"/><path d="M 0 1.628 L 0 2 M 0 0 L 0 0.375 M -0.1 0.375 L 0.1 0.375 A 0.1 0.1 0 0 1 0.2 0.475 L 0.2 1.525 A 0.1 0.1 0 0 1 0.1 1.625 L -0.1 1.625 A 0.1 0.1 0 0 1 -0.2 1.525 L -0.2 0.475 A 0.1 0.1 0 0 1 -0.1 0.375 Z" fill="rgb(255, 255, 255)" fill-opacity="1" stroke="#ACB8D1" stroke-width="0.06666666666666667" paint-order="fill" stroke-opacity="1" stroke-dasharray="" stroke-linecap="butt" stroke-miterlimit="10" transform="matrix(15,0,0,-15,820.8,765.5)" transform_matrix="{&quot;a&quot;:15,&quot;b&quot;:0,&quot;c&quot;:0,&quot;d&quot;:-15,&quot;e&quot;:820.7999877929688,&quot;f&quot;:765.5}" my_stoke="rgb(172, 184, 209)" my_stoke_width="0.0666667px" my_stoke_opacity="1" my_fill="rgb(255, 255, 255)" my_fill_opacity="1" my_font_size="16px" opacity="1"/><path d="M 0 1.628 L 0 2 M 0 0 L 0 0.375 M -0.1 0.375 L 0.1 0.375 A 0.1 0.1 0 0 1 0.2 0.475 L 0.2 1.525 A 0.1 0.1 0 0 1 0.1 1.625 L -0.1 1.625 A 0.1 0.1 0 0 1 -0.2 1.525 L -0.2 0.475 A 0.1 0.1 0 0 1 -0.1 0.375 Z" fill="rgb(255, 255, 255)" fill-opacity="1" stroke="#ACB8D1" stroke-width="0.06666666666666667" paint-order="fill" stroke-opacity="1" stroke-dasharray="" stroke-linecap="butt" stroke-miterlimit="10" transform="matrix(0,-15,15,0,873.5,681.74)" transform_matrix="{&quot;a&quot;:0,&quot;b&quot;:-15,&quot;c&quot;:15,&quot;d&quot;:0,&quot;e&quot;:873.5,&quot;f&quot;:681.739990234375}" my_stoke="rgb(172, 184, 209)" my_stoke_width="0.0666667px" my_stoke_opacity="1" my_fill="rgb(255, 255, 255)" my_fill_opacity="1" my_font_size="16px" opacity="1"/><path d="M 0 1.628 L 0 2 M 0 0 L 0 0.375 M -0.1 0.375 L 0.1 0.375 A 0.1 0.1 0 0 1 0.2 0.475 L 0.2 1.525 A 0.1 0.1 0 0 1 0.1 1.625 L -0.1 1.625 A 0.1 0.1 0 0 1 -0.2 1.525 L -0.2 0.475 A 0.1 0.1 0 0 1 -0.1 0.375 Z" fill="rgb(255, 255, 255)" fill-opacity="1" stroke="#ACB8D1" stroke-width="0.06666666666666667" paint-order="fill" stroke-opacity="1" stroke-dasharray="" stroke-linecap="butt" stroke-miterlimit="10" transform="matrix(0,-15,15,0,873.5,65.34)" transform_matrix="{&quot;a&quot;:0,&quot;b&quot;:-15,&quot;c&quot;:15,&quot;d&quot;:0,&quot;e&quot;:873.5,&quot;f&quot;:65.33999633789062}" my_stoke="rgb(172, 184, 209)" my_stoke_width="0.0666667px" my_stoke_opacity="1" my_fill="rgb(255, 255, 255)" my_fill_opacity="1" my_font_size="16px" opacity="1"/><path d="M -123.1777 -5 L 123.1777 -5 L 123.1777 23 L -123.1777 23 L -123.1777 -5 Z" fill="rgb(0, 0, 0)" fill-opacity="0" stroke="#ccc" stroke-width="0" paint-order="fill" stroke-opacity="1" stroke-dasharray="" stroke-linecap="butt" stroke-miterlimit="10" transform="matrix(1,0,0,1,455,5)" transform_matrix="{&quot;a&quot;:1,&quot;b&quot;:0,&quot;c&quot;:0,&quot;d&quot;:1,&quot;e&quot;:455,&quot;f&quot;:5}" my_stoke="rgb(204, 204, 204)" my_stoke_width="0px" my_stoke_opacity="1" my_fill="rgb(0, 0, 0)" my_fill_opacity="0" my_font_size="16px" opacity="1"/><text xml:space="preserve" fill="rgb(70, 70, 70)" fill-opacity="1" stroke="none" transform="matrix(1,0,0,1,455,5)" dominant-baseline="central" text-anchor="middle" x="0" y="9" style="font: bold 18px &quot;Microsoft YaHei&quot;; fill: rgb(70, 70, 70);" transform_matrix="{&quot;a&quot;:1,&quot;b&quot;:0,&quot;c&quot;:0,&quot;d&quot;:1,&quot;e&quot;:455,&quot;f&quot;:5}" text_bbox="{&quot;x&quot;:-118.1875,&quot;y&quot;:-3,&quot;w&quot;:236.484375,&quot;h&quot;:24}" opacity="1" stroke-width="1px" stroke-opacity="1" font-family="&quot;Microsoft YaHei&quot;" my_stoke="none" my_stoke_width="1px" my_stoke_opacity="1" my_fill="rgb(70, 70, 70)" my_fill_opacity="1" my_font_size="18px" clip-path="none" content="Try Dragging these Points">Try Dragging these Points</text></g></svg>