<svg xmlns="http://www.w3.org/2000/svg" xmlns:xlink="http://www.w3.org/1999/xlink" version="1.1" baseProfile="full" width="910" height="773" style="user-select: none; position: absolute; left: 0px; top: 0px;" transform_matrix="{&quot;a&quot;:1,&quot;b&quot;:0,&quot;c&quot;:0,&quot;d&quot;:1,&quot;e&quot;:0,&quot;f&quot;:0}"><g><defs/><path d="M 455 417.42 A 0 0 0 1 1 455 417.42 M 516.84 417.42 A 61.84 61.84 0 1 1 516.84 417.4138 M 578.68 417.42 A 123.68 123.68 0 1 1 578.68 417.4076 M 640.52 417.42 A 185.52 185.52 0 1 1 640.52 417.4014 M 702.36 417.42 A 247.36 247.36 0 1 1 702.36 417.3953 M 764.2 417.42 A 309.2 309.2 0 1 1 764.2 417.3891" fill="none" stroke="#E0E6F1" stroke-width="1" paint-order="fill" stroke-opacity="1" stroke-dasharray="" stroke-linecap="butt" stroke-miterlimit="10" transform_matrix="{&quot;a&quot;:1,&quot;b&quot;:0,&quot;c&quot;:0,&quot;d&quot;:1,&quot;e&quot;:0,&quot;f&quot;:0}" my_stoke="rgb(224, 230, 241)" my_stoke_width="1px" my_stoke_opacity="1" my_fill="none" my_fill_opacity="1" my_font_size="16px" opacity="1"/><text xml:space="preserve" fill="rgb(110, 112, 121)" fill-opacity="1" stroke="none" dominant-baseline="central" text-anchor="start" x="772.2" y="417.42" style="font: 12px &quot;Microsoft YaHei&quot;; fill: rgb(110, 112, 121);" transform_matrix="{&quot;a&quot;:1,&quot;b&quot;:0,&quot;c&quot;:0,&quot;d&quot;:1,&quot;e&quot;:0,&quot;f&quot;:0}" text_bbox="{&quot;x&quot;:772.1875,&quot;y&quot;:409.40625,&quot;w&quot;:7.0625,&quot;h&quot;:16.015625}" opacity="1" stroke-width="1px" stroke-opacity="1" font-family="&quot;Microsoft YaHei&quot;" my_stoke="none" my_stoke_width="1px" my_stoke_opacity="1" my_fill="rgb(110, 112, 121)" my_fill_opacity="1" my_font_size="12px" clip-path="none" content="0">0</text><text xml:space="preserve" fill="rgb(110, 112, 121)" fill-opacity="1" stroke="none" dominant-baseline="central" text-anchor="start" x="729.703258080424" y="582.02" style="font: 12px &quot;Microsoft YaHei&quot;; fill: rgb(110, 112, 121);" transform_matrix="{&quot;a&quot;:1,&quot;b&quot;:0,&quot;c&quot;:0,&quot;d&quot;:1,&quot;e&quot;:0,&quot;f&quot;:0}" text_bbox="{&quot;x&quot;:729.703125,&quot;y&quot;:574.015625,&quot;w&quot;:14.078125,&quot;h&quot;:16.015625}" opacity="1" stroke-width="1px" stroke-opacity="1" font-family="&quot;Microsoft YaHei&quot;" my_stoke="none" my_stoke_width="1px" my_stoke_opacity="1" my_fill="rgb(110, 112, 121)" my_fill_opacity="1" my_font_size="12px" clip-path="none" content="30">30</text><text xml:space="preserve" fill="rgb(110, 112, 121)" fill-opacity="1" stroke="none" dominant-baseline="central" text-anchor="start" x="613.6" y="698.123258080424" style="font: 12px &quot;Microsoft YaHei&quot;; fill: rgb(110, 112, 121);" transform_matrix="{&quot;a&quot;:1,&quot;b&quot;:0,&quot;c&quot;:0,&quot;d&quot;:1,&quot;e&quot;:0,&quot;f&quot;:0}" text_bbox="{&quot;x&quot;:613.59375,&quot;y&quot;:690.109375,&quot;w&quot;:14.09375,&quot;h&quot;:16.015625}" opacity="1" stroke-width="1px" stroke-opacity="1" font-family="&quot;Microsoft YaHei&quot;" my_stoke="none" my_stoke_width="1px" my_stoke_opacity="1" my_fill="rgb(110, 112, 121)" my_fill_opacity="1" my_font_size="12px" clip-path="none" content="60">60</text><text xml:space="preserve" fill="rgb(110, 112, 121)" fill-opacity="1" stroke="none" dominant-baseline="central" text-anchor="middle" x="455" y="740.6200000000001" style="font: 12px &quot;Microsoft YaHei&quot;; fill: rgb(110, 112, 121);" transform_matrix="{&quot;a&quot;:1,&quot;b&quot;:0,&quot;c&quot;:0,&quot;d&quot;:1,&quot;e&quot;:0,&quot;f&quot;:0}" text_bbox="{&quot;x&quot;:447.953125,&quot;y&quot;:732.609375,&quot;w&quot;:14.09375,&quot;h&quot;:16.015625}" opacity="1" stroke-width="1px" stroke-opacity="1" font-family="&quot;Microsoft YaHei&quot;" my_stoke="none" my_stoke_width="1px" my_stoke_opacity="1" my_fill="rgb(110, 112, 121)" my_fill_opacity="1" my_font_size="12px" clip-path="none" content="90">90</text><text xml:space="preserve" fill="rgb(110, 112, 121)" fill-opacity="1" stroke="none" dominant-baseline="central" text-anchor="end" x="296.40000000000003" y="698.123258080424" style="font: 12px &quot;Microsoft YaHei&quot;; fill: rgb(110, 112, 121);" transform_matrix="{&quot;a&quot;:1,&quot;b&quot;:0,&quot;c&quot;:0,&quot;d&quot;:1,&quot;e&quot;:0,&quot;f&quot;:0}" text_bbox="{&quot;x&quot;:275.28125,&quot;y&quot;:690.109375,&quot;w&quot;:21.125,&quot;h&quot;:16.015625}" opacity="1" stroke-width="1px" stroke-opacity="1" font-family="&quot;Microsoft YaHei&quot;" my_stoke="none" my_stoke_width="1px" my_stoke_opacity="1" my_fill="rgb(110, 112, 121)" my_fill_opacity="1" my_font_size="12px" clip-path="none" content="120">120</text><text xml:space="preserve" fill="rgb(110, 112, 121)" fill-opacity="1" stroke="none" dominant-baseline="central" text-anchor="end" x="180.296741919576" y="582.02" style="font: 12px &quot;Microsoft YaHei&quot;; fill: rgb(110, 112, 121);" transform_matrix="{&quot;a&quot;:1,&quot;b&quot;:0,&quot;c&quot;:0,&quot;d&quot;:1,&quot;e&quot;:0,&quot;f&quot;:0}" text_bbox="{&quot;x&quot;:159.171875,&quot;y&quot;:574.015625,&quot;w&quot;:21.125,&quot;h&quot;:16.015625}" opacity="1" stroke-width="1px" stroke-opacity="1" font-family="&quot;Microsoft YaHei&quot;" my_stoke="none" my_stoke_width="1px" my_stoke_opacity="1" my_fill="rgb(110, 112, 121)" my_fill_opacity="1" my_font_size="12px" clip-path="none" content="150">150</text><text xml:space="preserve" fill="rgb(110, 112, 121)" fill-opacity="1" stroke="none" dominant-baseline="central" text-anchor="end" x="137.79999999999995" y="417.4200000000001" style="font: 12px &quot;Microsoft YaHei&quot;; fill: rgb(110, 112, 121);" transform_matrix="{&quot;a&quot;:1,&quot;b&quot;:0,&quot;c&quot;:0,&quot;d&quot;:1,&quot;e&quot;:0,&quot;f&quot;:0}" text_bbox="{&quot;x&quot;:116.6875,&quot;y&quot;:409.40625,&quot;w&quot;:21.125,&quot;h&quot;:16.015625}" opacity="1" stroke-width="1px" stroke-opacity="1" font-family="&quot;Microsoft YaHei&quot;" my_stoke="none" my_stoke_width="1px" my_stoke_opacity="1" my_fill="rgb(110, 112, 121)" my_fill_opacity="1" my_font_size="12px" clip-path="none" content="180">180</text><text xml:space="preserve" fill="rgb(110, 112, 121)" fill-opacity="1" stroke="none" dominant-baseline="central" text-anchor="end" x="180.29674191957605" y="252.81999999999994" style="font: 12px &quot;Microsoft YaHei&quot;; fill: rgb(110, 112, 121);" transform_matrix="{&quot;a&quot;:1,&quot;b&quot;:0,&quot;c&quot;:0,&quot;d&quot;:1,&quot;e&quot;:0,&quot;f&quot;:0}" text_bbox="{&quot;x&quot;:159.171875,&quot;y&quot;:244.8125,&quot;w&quot;:21.125,&quot;h&quot;:16.015625}" opacity="1" stroke-width="1px" stroke-opacity="1" font-family="&quot;Microsoft YaHei&quot;" my_stoke="none" my_stoke_width="1px" my_stoke_opacity="1" my_fill="rgb(110, 112, 121)" my_fill_opacity="1" my_font_size="12px" clip-path="none" content="210">210</text><text xml:space="preserve" fill="rgb(110, 112, 121)" fill-opacity="1" stroke="none" dominant-baseline="central" text-anchor="end" x="296.39999999999986" y="136.71674191957607" style="font: 12px &quot;Microsoft YaHei&quot;; fill: rgb(110, 112, 121);" transform_matrix="{&quot;a&quot;:1,&quot;b&quot;:0,&quot;c&quot;:0,&quot;d&quot;:1,&quot;e&quot;:0,&quot;f&quot;:0}" text_bbox="{&quot;x&quot;:275.28125,&quot;y&quot;:128.703125,&quot;w&quot;:21.125,&quot;h&quot;:16.015625}" opacity="1" stroke-width="1px" stroke-opacity="1" font-family="&quot;Microsoft YaHei&quot;" my_stoke="none" my_stoke_width="1px" my_stoke_opacity="1" my_fill="rgb(110, 112, 121)" my_fill_opacity="1" my_font_size="12px" clip-path="none" content="240">240</text><text xml:space="preserve" fill="rgb(110, 112, 121)" fill-opacity="1" stroke="none" dominant-baseline="central" text-anchor="middle" x="454.99999999999994" y="94.21999999999997" style="font: 12px &quot;Microsoft YaHei&quot;; fill: rgb(110, 112, 121);" transform_matrix="{&quot;a&quot;:1,&quot;b&quot;:0,&quot;c&quot;:0,&quot;d&quot;:1,&quot;e&quot;:0,&quot;f&quot;:0}" text_bbox="{&quot;x&quot;:444.4375,&quot;y&quot;:86.21875,&quot;w&quot;:21.125,&quot;h&quot;:16.015625}" opacity="1" stroke-width="1px" stroke-opacity="1" font-family="&quot;Microsoft YaHei&quot;" my_stoke="none" my_stoke_width="1px" my_stoke_opacity="1" my_fill="rgb(110, 112, 121)" my_fill_opacity="1" my_font_size="12px" clip-path="none" content="270">270</text><text xml:space="preserve" fill="rgb(110, 112, 121)" fill-opacity="1" stroke="none" dominant-baseline="central" text-anchor="start" x="613.6" y="136.71674191957607" style="font: 12px &quot;Microsoft YaHei&quot;; fill: rgb(110, 112, 121);" transform_matrix="{&quot;a&quot;:1,&quot;b&quot;:0,&quot;c&quot;:0,&quot;d&quot;:1,&quot;e&quot;:0,&quot;f&quot;:0}" text_bbox="{&quot;x&quot;:613.59375,&quot;y&quot;:128.703125,&quot;w&quot;:21.125,&quot;h&quot;:16.015625}" opacity="1" stroke-width="1px" stroke-opacity="1" font-family="&quot;Microsoft YaHei&quot;" my_stoke="none" my_stoke_width="1px" my_stoke_opacity="1" my_fill="rgb(110, 112, 121)" my_fill_opacity="1" my_font_size="12px" clip-path="none" content="300">300</text><text xml:space="preserve" fill="rgb(110, 112, 121)" fill-opacity="1" stroke="none" dominant-baseline="central" text-anchor="start" x="729.7032580804239" y="252.81999999999982" style="font: 12px &quot;Microsoft YaHei&quot;; fill: rgb(110, 112, 121);" transform_matrix="{&quot;a&quot;:1,&quot;b&quot;:0,&quot;c&quot;:0,&quot;d&quot;:1,&quot;e&quot;:0,&quot;f&quot;:0}" text_bbox="{&quot;x&quot;:729.703125,&quot;y&quot;:244.8125,&quot;w&quot;:21.125,&quot;h&quot;:16.015625}" opacity="1" stroke-width="1px" stroke-opacity="1" font-family="&quot;Microsoft YaHei&quot;" my_stoke="none" my_stoke_width="1px" my_stoke_opacity="1" my_fill="rgb(110, 112, 121)" my_fill_opacity="1" my_font_size="12px" clip-path="none" content="330">330</text><path d="M 769.2 417.42 L 764.2 417.42 M 727.1052 574.52 L 722.7751 572.02 M 612.1 689.5252 L 609.6 685.1951 M 455 731.62 L 455 726.62 M 297.9 689.5252 L 300.4 685.1951 M 182.8948 574.52 L 187.2249 572.02 M 140.8 417.42 L 145.8 417.42 M 182.8948 260.32 L 187.2249 262.82 M 297.9 145.3148 L 300.4 149.6449 M 455 103.22 L 455 108.22 M 612.1 145.3148 L 609.6 149.6449 M 727.1052 260.32 L 722.7751 262.82" fill="rgb(0, 0, 0)" fill-opacity="1" stroke="#6E7079" stroke-width="1" paint-order="fill" stroke-opacity="1" stroke-dasharray="" stroke-linecap="butt" stroke-miterlimit="10" transform_matrix="{&quot;a&quot;:1,&quot;b&quot;:0,&quot;c&quot;:0,&quot;d&quot;:1,&quot;e&quot;:0,&quot;f&quot;:0}" my_stoke="rgb(110, 112, 121)" my_stoke_width="1px" my_stoke_opacity="1" my_fill="rgb(0, 0, 0)" my_fill_opacity="1" my_font_size="16px" opacity="1"/><path d="M 764.2 417.42 L 455 417.42 M 722.7751 572.02 L 455 417.42 M 609.6 685.1951 L 455 417.42 M 455 726.62 L 455 417.42 M 300.4 685.1951 L 455 417.42 M 187.2249 572.02 L 455 417.42 M 145.8 417.42 L 455 417.42 M 187.2249 262.82 L 455 417.42 M 300.4 149.6449 L 455 417.42 M 455 108.22 L 455 417.42 M 609.6 149.6449 L 455 417.42 M 722.7751 262.82 L 455 417.42" fill="rgb(0, 0, 0)" fill-opacity="1" stroke="#E0E6F1" stroke-width="1" paint-order="fill" stroke-opacity="1" stroke-dasharray="" stroke-linecap="butt" stroke-miterlimit="10" transform_matrix="{&quot;a&quot;:1,&quot;b&quot;:0,&quot;c&quot;:0,&quot;d&quot;:1,&quot;e&quot;:0,&quot;f&quot;:0}" my_stoke="rgb(224, 230, 241)" my_stoke_width="1px" my_stoke_opacity="1" my_fill="rgb(0, 0, 0)" my_fill_opacity="1" my_font_size="16px" opacity="1"/><path d="M 455 417.5 L 764.2 417.5" fill="none" stroke="#6E7079" stroke-width="1" paint-order="fill" stroke-opacity="1" stroke-dasharray="" stroke-linecap="round" stroke-miterlimit="10" transform_matrix="{&quot;a&quot;:1,&quot;b&quot;:0,&quot;c&quot;:0,&quot;d&quot;:1,&quot;e&quot;:0,&quot;f&quot;:0}" my_stoke="rgb(110, 112, 121)" my_stoke_width="1px" my_stoke_opacity="1" my_fill="none" my_fill_opacity="1" my_font_size="16px" opacity="1"/><path d="M 764.2 417.42 A 309.2 309.2 0 1 1 764.2 417.3891" fill="none" stroke="#6E7079" stroke-width="1" paint-order="fill" stroke-opacity="1" stroke-dasharray="" stroke-linecap="butt" stroke-miterlimit="10" transform_matrix="{&quot;a&quot;:1,&quot;b&quot;:0,&quot;c&quot;:0,&quot;d&quot;:1,&quot;e&quot;:0,&quot;f&quot;:0}" my_stoke="rgb(110, 112, 121)" my_stoke_width="1px" my_stoke_opacity="1" my_fill="none" my_fill_opacity="1" my_font_size="16px" opacity="1"/><path d="M 455.5 417.42 L 455.5 412.42" fill="none" stroke="#6E7079" stroke-width="1" paint-order="fill" stroke-opacity="1" stroke-dasharray="" stroke-linecap="butt" stroke-miterlimit="10" transform_matrix="{&quot;a&quot;:1,&quot;b&quot;:0,&quot;c&quot;:0,&quot;d&quot;:1,&quot;e&quot;:0,&quot;f&quot;:0}" my_stoke="rgb(110, 112, 121)" my_stoke_width="1px" my_stoke_opacity="1" my_fill="none" my_fill_opacity="1" my_font_size="16px" opacity="1"/><path d="M 517.5 417.42 L 517.5 412.42" fill="none" stroke="#6E7079" stroke-width="1" paint-order="fill" stroke-opacity="1" stroke-dasharray="" stroke-linecap="butt" stroke-miterlimit="10" transform_matrix="{&quot;a&quot;:1,&quot;b&quot;:0,&quot;c&quot;:0,&quot;d&quot;:1,&quot;e&quot;:0,&quot;f&quot;:0}" my_stoke="rgb(110, 112, 121)" my_stoke_width="1px" my_stoke_opacity="1" my_fill="none" my_fill_opacity="1" my_font_size="16px" opacity="1"/><path d="M 578.5 417.42 L 578.5 412.42" fill="none" stroke="#6E7079" stroke-width="1" paint-order="fill" stroke-opacity="1" stroke-dasharray="" stroke-linecap="butt" stroke-miterlimit="10" transform_matrix="{&quot;a&quot;:1,&quot;b&quot;:0,&quot;c&quot;:0,&quot;d&quot;:1,&quot;e&quot;:0,&quot;f&quot;:0}" my_stoke="rgb(110, 112, 121)" my_stoke_width="1px" my_stoke_opacity="1" my_fill="none" my_fill_opacity="1" my_font_size="16px" opacity="1"/><path d="M 640.5 417.42 L 640.5 412.42" fill="none" stroke="#6E7079" stroke-width="1" paint-order="fill" stroke-opacity="1" stroke-dasharray="" stroke-linecap="butt" stroke-miterlimit="10" transform_matrix="{&quot;a&quot;:1,&quot;b&quot;:0,&quot;c&quot;:0,&quot;d&quot;:1,&quot;e&quot;:0,&quot;f&quot;:0}" my_stoke="rgb(110, 112, 121)" my_stoke_width="1px" my_stoke_opacity="1" my_fill="none" my_fill_opacity="1" my_font_size="16px" opacity="1"/><path d="M 702.5 417.42 L 702.5 412.42" fill="none" stroke="#6E7079" stroke-width="1" paint-order="fill" stroke-opacity="1" stroke-dasharray="" stroke-linecap="butt" stroke-miterlimit="10" transform_matrix="{&quot;a&quot;:1,&quot;b&quot;:0,&quot;c&quot;:0,&quot;d&quot;:1,&quot;e&quot;:0,&quot;f&quot;:0}" my_stoke="rgb(110, 112, 121)" my_stoke_width="1px" my_stoke_opacity="1" my_fill="none" my_fill_opacity="1" my_font_size="16px" opacity="1"/><path d="M 764.5 417.42 L 764.5 412.42" fill="none" stroke="#6E7079" stroke-width="1" paint-order="fill" stroke-opacity="1" stroke-dasharray="" stroke-linecap="butt" stroke-miterlimit="10" transform_matrix="{&quot;a&quot;:1,&quot;b&quot;:0,&quot;c&quot;:0,&quot;d&quot;:1,&quot;e&quot;:0,&quot;f&quot;:0}" my_stoke="rgb(110, 112, 121)" my_stoke_width="1px" my_stoke_opacity="1" my_fill="none" my_fill_opacity="1" my_font_size="16px" opacity="1"/><text xml:space="preserve" fill="rgb(110, 112, 121)" fill-opacity="1" stroke="none" transform="matrix(1,0,0,1,455,409.42)" dominant-baseline="central" text-anchor="middle" x="0" y="-6" style="font: 12px &quot;Microsoft YaHei&quot;; fill: rgb(110, 112, 121);" transform_matrix="{&quot;a&quot;:1,&quot;b&quot;:0,&quot;c&quot;:0,&quot;d&quot;:1,&quot;e&quot;:455,&quot;f&quot;:409.4200134277344}" text_bbox="{&quot;x&quot;:-3.53125,&quot;y&quot;:-14,&quot;w&quot;:7.0625,&quot;h&quot;:16}" opacity="1" stroke-width="1px" stroke-opacity="1" font-family="&quot;Microsoft YaHei&quot;" my_stoke="none" my_stoke_width="1px" my_stoke_opacity="1" my_fill="rgb(110, 112, 121)" my_fill_opacity="1" my_font_size="12px" clip-path="none" content="0">0</text><text xml:space="preserve" fill="rgb(110, 112, 121)" fill-opacity="1" stroke="none" transform="matrix(1,0,0,1,516.84,409.42)" dominant-baseline="central" text-anchor="middle" x="0" y="-6" style="font: 12px &quot;Microsoft YaHei&quot;; fill: rgb(110, 112, 121);" transform_matrix="{&quot;a&quot;:1,&quot;b&quot;:0,&quot;c&quot;:0,&quot;d&quot;:1,&quot;e&quot;:516.8400268554688,&quot;f&quot;:409.4200134277344}" text_bbox="{&quot;x&quot;:-8.484375,&quot;y&quot;:-14,&quot;w&quot;:16.96875,&quot;h&quot;:16}" opacity="1" stroke-width="1px" stroke-opacity="1" font-family="&quot;Microsoft YaHei&quot;" my_stoke="none" my_stoke_width="1px" my_stoke_opacity="1" my_fill="rgb(110, 112, 121)" my_fill_opacity="1" my_font_size="12px" clip-path="none" content="0.1">0.1</text><text xml:space="preserve" fill="rgb(110, 112, 121)" fill-opacity="1" stroke="none" transform="matrix(1,0,0,1,578.68,409.42)" dominant-baseline="central" text-anchor="middle" x="0" y="-6" style="font: 12px &quot;Microsoft YaHei&quot;; fill: rgb(110, 112, 121);" transform_matrix="{&quot;a&quot;:1,&quot;b&quot;:0,&quot;c&quot;:0,&quot;d&quot;:1,&quot;e&quot;:578.6799926757812,&quot;f&quot;:409.4200134277344}" text_bbox="{&quot;x&quot;:-8.484375,&quot;y&quot;:-14,&quot;w&quot;:16.96875,&quot;h&quot;:16}" opacity="1" stroke-width="1px" stroke-opacity="1" font-family="&quot;Microsoft YaHei&quot;" my_stoke="none" my_stoke_width="1px" my_stoke_opacity="1" my_fill="rgb(110, 112, 121)" my_fill_opacity="1" my_font_size="12px" clip-path="none" content="0.2">0.2</text><text xml:space="preserve" fill="rgb(110, 112, 121)" fill-opacity="1" stroke="none" transform="matrix(1,0,0,1,640.52,409.42)" dominant-baseline="central" text-anchor="middle" x="0" y="-6" style="font: 12px &quot;Microsoft YaHei&quot;; fill: rgb(110, 112, 121);" transform_matrix="{&quot;a&quot;:1,&quot;b&quot;:0,&quot;c&quot;:0,&quot;d&quot;:1,&quot;e&quot;:640.52001953125,&quot;f&quot;:409.4200134277344}" text_bbox="{&quot;x&quot;:-8.484375,&quot;y&quot;:-14,&quot;w&quot;:16.96875,&quot;h&quot;:16}" opacity="1" stroke-width="1px" stroke-opacity="1" font-family="&quot;Microsoft YaHei&quot;" my_stoke="none" my_stoke_width="1px" my_stoke_opacity="1" my_fill="rgb(110, 112, 121)" my_fill_opacity="1" my_font_size="12px" clip-path="none" content="0.3">0.3</text><text xml:space="preserve" fill="rgb(110, 112, 121)" fill-opacity="1" stroke="none" transform="matrix(1,0,0,1,702.36,409.42)" dominant-baseline="central" text-anchor="middle" x="0" y="-6" style="font: 12px &quot;Microsoft YaHei&quot;; fill: rgb(110, 112, 121);" transform_matrix="{&quot;a&quot;:1,&quot;b&quot;:0,&quot;c&quot;:0,&quot;d&quot;:1,&quot;e&quot;:702.3599853515625,&quot;f&quot;:409.4200134277344}" text_bbox="{&quot;x&quot;:-8.484375,&quot;y&quot;:-14,&quot;w&quot;:17.9375,&quot;h&quot;:16}" opacity="1" stroke-width="1px" stroke-opacity="1" font-family="&quot;Microsoft YaHei&quot;" my_stoke="none" my_stoke_width="1px" my_stoke_opacity="1" my_fill="rgb(110, 112, 121)" my_fill_opacity="1" my_font_size="12px" clip-path="none" content="0.4">0.4</text><text xml:space="preserve" fill="rgb(110, 112, 121)" fill-opacity="1" stroke="none" transform="matrix(1,0,0,1,764.2,409.42)" dominant-baseline="central" text-anchor="middle" x="0" y="-6" style="font: 12px &quot;Microsoft YaHei&quot;; fill: rgb(110, 112, 121);" transform_matrix="{&quot;a&quot;:1,&quot;b&quot;:0,&quot;c&quot;:0,&quot;d&quot;:1,&quot;e&quot;:764.2000122070312,&quot;f&quot;:409.4200134277344}" text_bbox="{&quot;x&quot;:-8.484375,&quot;y&quot;:-14,&quot;w&quot;:16.96875,&quot;h&quot;:16}" opacity="1" stroke-width="1px" stroke-opacity="1" font-family="&quot;Microsoft YaHei&quot;" my_stoke="none" my_stoke_width="1px" my_stoke_opacity="1" my_fill="rgb(110, 112, 121)" my_fill_opacity="1" my_font_size="12px" clip-path="none" content="0.5">0.5</text><g clip-path="url(#zr2430-clip-0)"><path d="M 455 417.42 L 476.5654 417.7964 L 498.0061 418.9218 L 519.1982 420.7845 L 540.0195 423.3651 L 560.3502 426.637 L 580.074 430.5658 L 599.0786 435.1106 L 617.2565 440.2237 L 634.5056 445.8509 L 650.7305 451.9326 L 665.8421 458.4036 L 679.7592 465.194 L 692.4081 472.23 L 703.7241 479.4339 L 713.6508 486.7253 L 722.1415 494.0216 L 729.1584 501.2386 L 734.674 508.2916 L 738.6702 515.0955 L 741.1388 521.566 L 742.0817 527.6204 L 741.5106 533.1778 L 739.4467 538.1605 L 735.9208 542.494 L 730.973 546.1083 L 724.6521 548.9381 L 717.0153 550.9235 L 708.1281 552.0106 L 698.063 552.152 L 686.9 551.3076 L 674.7249 549.444 L 661.6294 546.5364 L 647.71 542.5674 L 633.0676 537.5281 L 617.8064 531.4183 L 602.0333 524.246 L 585.8572 516.028 L 569.3881 506.7898 L 552.7362 496.5652 L 536.0112 485.3965 L 519.3217 473.334 L 502.774 460.4359 L 486.4719 446.768 L 470.5152 432.4029 L 455 417.42 L 440.0171 401.9048 L 425.652 385.9482 L 411.9841 369.646 L 399.086 353.0983 L 387.0235 336.4088 L 375.8548 319.6838 L 365.6302 303.0319 L 356.392 286.5627 L 348.174 270.3867 L 341.0017 254.6136 L 334.8919 239.3524 L 329.8526 224.71 L 325.8836 210.7906 L 322.976 197.6951 L 321.1125 185.52 L 320.2679 174.357 L 320.4094 164.2919 L 321.4965 155.4047 L 323.4819 147.7679 L 326.3116 141.447 L 329.926 136.4991 L 334.2595 132.9733 L 339.2422 130.9094 L 344.7997 130.3383 L 350.854 131.2812 L 357.3245 133.7498 L 364.1284 137.746 L 371.1813 143.2615 L 378.3984 150.2785 L 385.6947 158.7692 L 392.9861 168.6959 L 400.19 180.0119 L 407.226 192.6609 L 414.0164 206.5779 L 420.4874 221.6895 L 426.5691 237.9144 L 432.1964 255.1635 L 437.3094 273.3414 L 441.8542 292.346 L 445.7831 312.0698 L 449.0549 332.4005 L 451.6355 353.2218 L 453.4982 374.4139 L 454.6236 395.8546 L 455 417.42 L 454.6236 438.9854 L 453.4982 460.4261 L 451.6355 481.6182 L 449.0549 502.4395 L 445.7831 522.7702 L 441.8542 542.494 L 437.3094 561.4986 L 432.1964 579.6765 L 426.5691 596.9257 L 420.4874 613.1505 L 414.0164 628.2621 L 407.226 642.1791 L 400.19 654.8281 L 392.9861 666.144 L 385.6947 676.0709 L 378.3984 684.5615 L 371.1813 691.5785 L 364.1284 697.0941 L 357.3245 701.0901 L 350.854 703.5588 L 344.7997 704.5018 L 339.2422 703.9306 L 334.2595 701.8667 L 329.926 698.3409 L 326.3116 693.3931 L 323.4819 687.0721 L 321.4965 679.4353 L 320.4094 670.548 L 320.2679 660.483 L 321.1125 649.32 L 322.976 637.1449 L 325.8836 624.0494 L 329.8526 610.1301 L 334.8919 595.4876 L 341.0017 580.2264 L 348.174 564.4533 L 356.392 548.2773 L 365.6302 531.8081 L 375.8548 515.1562 L 387.0235 498.4312 L 399.086 481.7417 L 411.9841 465.194 L 425.652 448.8918 L 440.0171 432.9352 L 455 417.42 L 470.5152 402.4371 L 486.4719 388.072 L 502.774 374.4041 L 519.3217 361.506 L 536.0112 349.4435 L 552.7362 338.2748 L 569.3881 328.0502 L 585.8572 318.812 L 602.0333 310.594 L 617.8064 303.4217 L 633.0676 297.3119 L 647.71 292.2726 L 661.6294 288.3036 L 674.7249 285.396 L 686.9 283.5325 L 698.063 282.688 L 708.1281 282.8294 L 717.0153 283.9165 L 724.6521 285.9019 L 730.973 288.7317 L 735.9208 292.346 L 739.4467 296.6795 L 741.5106 301.6622 L 742.0817 307.2196 L 741.1388 313.274 L 738.6702 319.7445 L 734.674 326.5484 L 729.1584 333.6013 L 722.1415 340.8184 L 713.6508 348.1147 L 703.7241 355.4061 L 692.4081 362.61 L 679.7592 369.646 L 665.8421 376.4365 L 650.7305 382.9074 L 634.5056 388.9891 L 617.2565 394.6163 L 599.0786 399.7294 L 580.074 404.2742 L 560.3502 408.2031 L 540.0195 411.4749 L 519.1982 414.0555 L 498.0061 415.9182 L 476.5654 417.0436 L 455 417.42 L 433.4346 417.0436 L 411.9939 415.9182 L 390.8018 414.0555 L 369.9805 411.4749 L 349.6498 408.2031 L 329.926 404.2742 L 310.9214 399.7294 L 292.7436 394.6163 L 275.4944 388.9891 L 259.2695 382.9074 L 244.1579 376.4365 L 230.2409 369.646 L 217.5919 362.61 L 206.2759 355.4061 L 196.3492 348.1147 L 187.8585 340.8184 L 180.8415 333.6013 L 175.326 326.5484 L 171.3298 319.7445 L 168.8612 313.274 L 167.9183 307.2196 L 168.4894 301.6622 L 170.5533 296.6795 L 174.0791 292.346 L 179.027 288.7317 L 185.3479 285.9019 L 192.9847 283.9165 L 201.8719 282.8294 L 211.937 282.688 L 223.1 283.5325 L 235.2751 285.396 L 248.3706 288.3036 L 262.2899 292.2726 L 276.9324 297.3119 L 292.1936 303.4217 L 307.9667 310.594 L 324.1427 318.812 L 340.6119 328.0502 L 357.2638 338.2748 L 373.9888 349.4435 L 390.6783 361.506 L 407.226 374.4041 L 423.5281 388.072 L 439.4848 402.4371 L 455 417.42 L 469.9829 432.9352 L 484.348 448.8918 L 498.0159 465.194 L 510.914 481.7417 L 522.9765 498.4312 L 534.1452 515.1562 L 544.3698 531.8081 L 553.608 548.2773 L 561.826 564.4533 L 568.9983 580.2264 L 575.1082 595.4876 L 580.1473 610.1301 L 584.1164 624.0494 L 587.024 637.1449 L 588.8875 649.32 L 589.7321 660.483 L 589.5906 670.548 L 588.5035 679.4353 L 586.5181 687.0721 L 583.6884 693.3931 L 580.074 698.3409 L 575.7405 701.8667 L 570.7578 703.9306 L 565.2004 704.5018 L 559.146 703.5588 L 552.6755 701.0901 L 545.8716 697.0941 L 538.8187 691.5785 L 531.6016 684.5615 L 524.3053 676.0709 L 517.0139 666.144 L 509.81 654.8281 L 502.774 642.1791 L 495.9836 628.2621 L 489.5126 613.1505 L 483.4309 596.9257 L 477.8036 579.6765 L 472.6906 561.4986 L 468.1458 542.494 L 464.2169 522.7702 L 460.9451 502.4395 L 458.3645 481.6182 L 456.5018 460.4261 L 455.3764 438.9854 L 455 417.42 L 455.3764 395.8546 L 456.5018 374.4139 L 458.3645 353.2218 L 460.9451 332.4005 L 464.2169 312.0698 L 468.1458 292.346 L 472.6906 273.3414 L 477.8036 255.1635 L 483.4309 237.9144 L 489.5126 221.6895 L 495.9836 206.5779 L 502.774 192.6609 L 509.81 180.0119 L 517.0139 168.6959 L 524.3053 158.7692 L 531.6016 150.2785 L 538.8187 143.2615 L 545.8716 137.746 L 552.6755 133.7498 L 559.146 131.2812 L 565.2004 130.3383 L 570.7578 130.9094 L 575.7405 132.9733 L 580.074 136.4991 L 583.6884 141.447 L 586.5181 147.7679 L 588.5035 155.4047 L 589.5906 164.2919 L 589.7321 174.357 L 588.8875 185.52 L 587.024 197.6951 L 584.1164 210.7906 L 580.1473 224.71 L 575.1082 239.3524 L 568.9983 254.6136 L 561.826 270.3867 L 553.608 286.5627 L 544.3698 303.0319 L 534.1452 319.6838 L 522.9765 336.4088 L 510.914 353.0983 L 498.0159 369.646 L 484.348 385.9482 L 469.9829 401.9048 L 455 417.42 L 439.4848 432.4029 L 423.5281 446.768 L 407.226 460.4359 L 390.6783 473.334 L 373.9888 485.3965 L 357.2638 496.5652 L 340.6119 506.7898 L 324.1427 516.028 L 307.9667 524.246 L 292.1936 531.4183 L 276.9324 537.5281 L 262.2899 542.5674 L 248.3706 546.5364 L 235.2751 549.444 L 223.1 551.3076 L 211.937 552.152 L 201.8719 552.0106 L 192.9847 550.9235 L 185.3479 548.9381 L 179.027 546.1083 L 174.0791 542.494 L 170.5533 538.1605 L 168.4894 533.1778 L 167.9183 527.6204 L 168.8612 521.566 L 171.3298 515.0955 L 175.326 508.2916 L 180.8415 501.2386 L 187.8585 494.0216 L 196.3492 486.7253 L 206.2759 479.4339 L 217.5919 472.23 L 230.2409 465.194 L 244.1579 458.4036 L 259.2695 451.9326 L 275.4944 445.8509 L 292.7436 440.2237 L 310.9214 435.1106 L 329.926 430.5658 L 349.6498 426.637 L 369.9805 423.3651 L 390.8018 420.7845 L 411.9939 418.9218 L 433.4346 417.7964 L 455 417.42" fill="none" stroke="#5470c6" stroke-width="2" paint-order="fill" stroke-opacity="1" stroke-dasharray="" stroke-linecap="butt" stroke-linejoin="bevel" stroke-miterlimit="10" transform_matrix="{&quot;a&quot;:1,&quot;b&quot;:0,&quot;c&quot;:0,&quot;d&quot;:1,&quot;e&quot;:0,&quot;f&quot;:0}" my_stoke="rgb(84, 112, 198)" my_stoke_width="2px" my_stoke_opacity="1" my_fill="none" my_fill_opacity="1" my_font_size="16px" opacity="1"/></g><path d="M -5 -5 L 56.5898 -5 L 56.5898 18.2 L -5 18.2 L -5 -5 Z" fill="rgb(0, 0, 0)" fill-opacity="0" stroke="#ccc" stroke-width="0" paint-order="fill" stroke-opacity="1" stroke-dasharray="" stroke-linecap="butt" stroke-miterlimit="10" transform="matrix(1,0,0,1,429.2051,5)" transform_matrix="{&quot;a&quot;:1,&quot;b&quot;:0,&quot;c&quot;:0,&quot;d&quot;:1,&quot;e&quot;:429.2051086425781,&quot;f&quot;:5}" my_stoke="rgb(204, 204, 204)" my_stoke_width="0px" my_stoke_opacity="1" my_fill="rgb(0, 0, 0)" my_fill_opacity="0" my_font_size="16px" opacity="1"/><path d="M 0 7 L 25 7" fill="rgb(0, 0, 0)" fill-opacity="1" stroke="#5470c6" stroke-width="2" paint-order="fill" stroke-opacity="1" stroke-dasharray="" transform="matrix(1,0,0,1,430.2051,4.6)" transform_matrix="{&quot;a&quot;:1,&quot;b&quot;:0,&quot;c&quot;:0,&quot;d&quot;:1,&quot;e&quot;:430.2051086425781,&quot;f&quot;:4.599999904632568}" my_stoke="rgb(84, 112, 198)" my_stoke_width="2px" my_stoke_opacity="1" my_fill="rgb(0, 0, 0)" my_fill_opacity="1" my_font_size="16px" opacity="1"/><path d="M 18.1 7 A 5.6 5.6 0 1 1 18.1 6.9994" fill="rgb(255, 255, 255)" fill-opacity="1" stroke="#5470c6" stroke-width="2" paint-order="fill" stroke-opacity="1" stroke-dasharray="" transform="matrix(1,0,0,1,430.2051,4.6)" transform_matrix="{&quot;a&quot;:1,&quot;b&quot;:0,&quot;c&quot;:0,&quot;d&quot;:1,&quot;e&quot;:430.2051086425781,&quot;f&quot;:4.599999904632568}" my_stoke="rgb(84, 112, 198)" my_stoke_width="2px" my_stoke_opacity="1" my_fill="rgb(255, 255, 255)" my_fill_opacity="1" my_font_size="16px" opacity="1"/><text xml:space="preserve" fill="rgb(51, 51, 51)" fill-opacity="1" stroke="none" transform="matrix(1,0,0,1,430.2051,4.6)" dominant-baseline="central" text-anchor="start" x="30" y="7" style="font: 12px &quot;Microsoft YaHei&quot;; fill: rgb(51, 51, 51);" transform_matrix="{&quot;a&quot;:1,&quot;b&quot;:0,&quot;c&quot;:0,&quot;d&quot;:1,&quot;e&quot;:430.2051086425781,&quot;f&quot;:4.599999904632568}" text_bbox="{&quot;x&quot;:30,&quot;y&quot;:-1,&quot;w&quot;:20.78125,&quot;h&quot;:16}" opacity="1" stroke-width="1px" stroke-opacity="1" font-family="&quot;Microsoft YaHei&quot;" my_stoke="none" my_stoke_width="1px" my_stoke_opacity="1" my_fill="rgb(51, 51, 51)" my_fill_opacity="1" my_font_size="12px" clip-path="none" content="line">line</text><path d="M -5 -5 L 131 -5 L 131 23 L -5 23 L -5 -5 Z" fill="rgb(0, 0, 0)" fill-opacity="0" stroke="#ccc" stroke-width="0" paint-order="fill" stroke-opacity="1" stroke-dasharray="" stroke-linecap="butt" stroke-miterlimit="10" transform="matrix(1,0,0,1,5,5)" transform_matrix="{&quot;a&quot;:1,&quot;b&quot;:0,&quot;c&quot;:0,&quot;d&quot;:1,&quot;e&quot;:5,&quot;f&quot;:5}" my_stoke="rgb(204, 204, 204)" my_stoke_width="0px" my_stoke_opacity="1" my_fill="rgb(0, 0, 0)" my_fill_opacity="0" my_font_size="16px" opacity="1"/><text xml:space="preserve" fill="rgb(70, 70, 70)" fill-opacity="1" stroke="none" transform="matrix(1,0,0,1,5,5)" dominant-baseline="central" text-anchor="start" x="0" y="9" style="font: bold 18px &quot;Microsoft YaHei&quot;; fill: rgb(70, 70, 70);" transform_matrix="{&quot;a&quot;:1,&quot;b&quot;:0,&quot;c&quot;:0,&quot;d&quot;:1,&quot;e&quot;:5,&quot;f&quot;:5}" text_bbox="{&quot;x&quot;:-1,&quot;y&quot;:-3,&quot;w&quot;:127,&quot;h&quot;:24}" opacity="1" stroke-width="1px" stroke-opacity="1" font-family="&quot;Microsoft YaHei&quot;" my_stoke="none" my_stoke_width="1px" my_stoke_opacity="1" my_fill="rgb(70, 70, 70)" my_fill_opacity="1" my_font_size="18px" clip-path="none" content="极坐标双数值轴">极坐标双数值轴</text></g></svg>