<svg xmlns="http://www.w3.org/2000/svg" xmlns:xlink="http://www.w3.org/1999/xlink" version="1.1" baseProfile="full" width="910" height="773" style="user-select: none; position: absolute; left: 0px; top: 0px;" transform_matrix="{&quot;a&quot;:1,&quot;b&quot;:0,&quot;c&quot;:0,&quot;d&quot;:1,&quot;e&quot;:0,&quot;f&quot;:0}"><g><path d="M 15 270.5 L 895 270.5" fill="none" stroke="#6E7079" stroke-width="1" paint-order="fill" stroke-opacity="1" stroke-dasharray="" stroke-linecap="round" stroke-miterlimit="10" transform_matrix="{&quot;a&quot;:1,&quot;b&quot;:0,&quot;c&quot;:0,&quot;d&quot;:1,&quot;e&quot;:0,&quot;f&quot;:0}" my_stoke="rgb(110, 112, 121)" my_stoke_width="1px" my_stoke_opacity="1" my_fill="none" my_fill_opacity="1" my_font_size="16px" opacity="1"/><path d="M 15.5 270 L 15.5 275" fill="none" stroke="#6E7079" stroke-width="1" paint-order="fill" stroke-opacity="1" stroke-dasharray="" stroke-linecap="butt" stroke-miterlimit="10" transform_matrix="{&quot;a&quot;:1,&quot;b&quot;:0,&quot;c&quot;:0,&quot;d&quot;:1,&quot;e&quot;:0,&quot;f&quot;:0}" my_stoke="rgb(110, 112, 121)" my_stoke_width="1px" my_stoke_opacity="1" my_fill="none" my_fill_opacity="1" my_font_size="16px" opacity="1"/><path d="M 125.5 270 L 125.5 275" fill="none" stroke="#6E7079" stroke-width="1" paint-order="fill" stroke-opacity="1" stroke-dasharray="" stroke-linecap="butt" stroke-miterlimit="10" transform_matrix="{&quot;a&quot;:1,&quot;b&quot;:0,&quot;c&quot;:0,&quot;d&quot;:1,&quot;e&quot;:0,&quot;f&quot;:0}" my_stoke="rgb(110, 112, 121)" my_stoke_width="1px" my_stoke_opacity="1" my_fill="none" my_fill_opacity="1" my_font_size="16px" opacity="1"/><path d="M 235.5 270 L 235.5 275" fill="none" stroke="#6E7079" stroke-width="1" paint-order="fill" stroke-opacity="1" stroke-dasharray="" stroke-linecap="butt" stroke-miterlimit="10" transform_matrix="{&quot;a&quot;:1,&quot;b&quot;:0,&quot;c&quot;:0,&quot;d&quot;:1,&quot;e&quot;:0,&quot;f&quot;:0}" my_stoke="rgb(110, 112, 121)" my_stoke_width="1px" my_stoke_opacity="1" my_fill="none" my_fill_opacity="1" my_font_size="16px" opacity="1"/><path d="M 345.5 270 L 345.5 275" fill="none" stroke="#6E7079" stroke-width="1" paint-order="fill" stroke-opacity="1" stroke-dasharray="" stroke-linecap="butt" stroke-miterlimit="10" transform_matrix="{&quot;a&quot;:1,&quot;b&quot;:0,&quot;c&quot;:0,&quot;d&quot;:1,&quot;e&quot;:0,&quot;f&quot;:0}" my_stoke="rgb(110, 112, 121)" my_stoke_width="1px" my_stoke_opacity="1" my_fill="none" my_fill_opacity="1" my_font_size="16px" opacity="1"/><path d="M 455.5 270 L 455.5 275" fill="none" stroke="#6E7079" stroke-width="1" paint-order="fill" stroke-opacity="1" stroke-dasharray="" stroke-linecap="butt" stroke-miterlimit="10" transform_matrix="{&quot;a&quot;:1,&quot;b&quot;:0,&quot;c&quot;:0,&quot;d&quot;:1,&quot;e&quot;:0,&quot;f&quot;:0}" my_stoke="rgb(110, 112, 121)" my_stoke_width="1px" my_stoke_opacity="1" my_fill="none" my_fill_opacity="1" my_font_size="16px" opacity="1"/><path d="M 565.5 270 L 565.5 275" fill="none" stroke="#6E7079" stroke-width="1" paint-order="fill" stroke-opacity="1" stroke-dasharray="" stroke-linecap="butt" stroke-miterlimit="10" transform_matrix="{&quot;a&quot;:1,&quot;b&quot;:0,&quot;c&quot;:0,&quot;d&quot;:1,&quot;e&quot;:0,&quot;f&quot;:0}" my_stoke="rgb(110, 112, 121)" my_stoke_width="1px" my_stoke_opacity="1" my_fill="none" my_fill_opacity="1" my_font_size="16px" opacity="1"/><path d="M 675.5 270 L 675.5 275" fill="none" stroke="#6E7079" stroke-width="1" paint-order="fill" stroke-opacity="1" stroke-dasharray="" stroke-linecap="butt" stroke-miterlimit="10" transform_matrix="{&quot;a&quot;:1,&quot;b&quot;:0,&quot;c&quot;:0,&quot;d&quot;:1,&quot;e&quot;:0,&quot;f&quot;:0}" my_stoke="rgb(110, 112, 121)" my_stoke_width="1px" my_stoke_opacity="1" my_fill="none" my_fill_opacity="1" my_font_size="16px" opacity="1"/><path d="M 785.5 270 L 785.5 275" fill="none" stroke="#6E7079" stroke-width="1" paint-order="fill" stroke-opacity="1" stroke-dasharray="" stroke-linecap="butt" stroke-miterlimit="10" transform_matrix="{&quot;a&quot;:1,&quot;b&quot;:0,&quot;c&quot;:0,&quot;d&quot;:1,&quot;e&quot;:0,&quot;f&quot;:0}" my_stoke="rgb(110, 112, 121)" my_stoke_width="1px" my_stoke_opacity="1" my_fill="none" my_fill_opacity="1" my_font_size="16px" opacity="1"/><text xml:space="preserve" fill="rgb(110, 112, 121)" fill-opacity="1" stroke="none" transform="matrix(1,0,0,1,15,278)" dominant-baseline="central" text-anchor="middle" x="0" y="6" style="font: 12px &quot;Microsoft YaHei&quot;; fill: rgb(110, 112, 121);" transform_matrix="{&quot;a&quot;:1,&quot;b&quot;:0,&quot;c&quot;:0,&quot;d&quot;:1,&quot;e&quot;:15,&quot;f&quot;:278}" text_bbox="{&quot;x&quot;:-4.53125,&quot;y&quot;:-2,&quot;w&quot;:9.015625,&quot;h&quot;:16}" opacity="1" stroke-width="1px" stroke-opacity="1" font-family="&quot;Microsoft YaHei&quot;" my_stoke="none" my_stoke_width="1px" my_stoke_opacity="1" my_fill="rgb(110, 112, 121)" my_fill_opacity="1" my_font_size="12px" clip-path="none" content="4">4</text><text xml:space="preserve" fill="rgb(110, 112, 121)" fill-opacity="1" stroke="none" transform="matrix(1,0,0,1,125,278)" dominant-baseline="central" text-anchor="middle" x="0" y="6" style="font: 12px &quot;Microsoft YaHei&quot;; fill: rgb(110, 112, 121);" transform_matrix="{&quot;a&quot;:1,&quot;b&quot;:0,&quot;c&quot;:0,&quot;d&quot;:1,&quot;e&quot;:125,&quot;f&quot;:278}" text_bbox="{&quot;x&quot;:-3.53125,&quot;y&quot;:-2,&quot;w&quot;:7.0625,&quot;h&quot;:16}" opacity="1" stroke-width="1px" stroke-opacity="1" font-family="&quot;Microsoft YaHei&quot;" my_stoke="none" my_stoke_width="1px" my_stoke_opacity="1" my_fill="rgb(110, 112, 121)" my_fill_opacity="1" my_font_size="12px" clip-path="none" content="5">5</text><text xml:space="preserve" fill="rgb(110, 112, 121)" fill-opacity="1" stroke="none" transform="matrix(1,0,0,1,235,278)" dominant-baseline="central" text-anchor="middle" x="0" y="6" style="font: 12px &quot;Microsoft YaHei&quot;; fill: rgb(110, 112, 121);" transform_matrix="{&quot;a&quot;:1,&quot;b&quot;:0,&quot;c&quot;:0,&quot;d&quot;:1,&quot;e&quot;:235,&quot;f&quot;:278}" text_bbox="{&quot;x&quot;:-3.53125,&quot;y&quot;:-2,&quot;w&quot;:7.0625,&quot;h&quot;:16}" opacity="1" stroke-width="1px" stroke-opacity="1" font-family="&quot;Microsoft YaHei&quot;" my_stoke="none" my_stoke_width="1px" my_stoke_opacity="1" my_fill="rgb(110, 112, 121)" my_fill_opacity="1" my_font_size="12px" clip-path="none" content="6">6</text><text xml:space="preserve" fill="rgb(110, 112, 121)" fill-opacity="1" stroke="none" transform="matrix(1,0,0,1,345,278)" dominant-baseline="central" text-anchor="middle" x="0" y="6" style="font: 12px &quot;Microsoft YaHei&quot;; fill: rgb(110, 112, 121);" transform_matrix="{&quot;a&quot;:1,&quot;b&quot;:0,&quot;c&quot;:0,&quot;d&quot;:1,&quot;e&quot;:345,&quot;f&quot;:278}" text_bbox="{&quot;x&quot;:-3.53125,&quot;y&quot;:-2,&quot;w&quot;:7.0625,&quot;h&quot;:16}" opacity="1" stroke-width="1px" stroke-opacity="1" font-family="&quot;Microsoft YaHei&quot;" my_stoke="none" my_stoke_width="1px" my_stoke_opacity="1" my_fill="rgb(110, 112, 121)" my_fill_opacity="1" my_font_size="12px" clip-path="none" content="7">7</text><text xml:space="preserve" fill="rgb(110, 112, 121)" fill-opacity="1" stroke="none" transform="matrix(1,0,0,1,455,278)" dominant-baseline="central" text-anchor="middle" x="0" y="6" style="font: 12px &quot;Microsoft YaHei&quot;; fill: rgb(110, 112, 121);" transform_matrix="{&quot;a&quot;:1,&quot;b&quot;:0,&quot;c&quot;:0,&quot;d&quot;:1,&quot;e&quot;:455,&quot;f&quot;:278}" text_bbox="{&quot;x&quot;:-3.53125,&quot;y&quot;:-2,&quot;w&quot;:7.0625,&quot;h&quot;:16}" opacity="1" stroke-width="1px" stroke-opacity="1" font-family="&quot;Microsoft YaHei&quot;" my_stoke="none" my_stoke_width="1px" my_stoke_opacity="1" my_fill="rgb(110, 112, 121)" my_fill_opacity="1" my_font_size="12px" clip-path="none" content="8">8</text><text xml:space="preserve" fill="rgb(110, 112, 121)" fill-opacity="1" stroke="none" transform="matrix(1,0,0,1,565,278)" dominant-baseline="central" text-anchor="middle" x="0" y="6" style="font: 12px &quot;Microsoft YaHei&quot;; fill: rgb(110, 112, 121);" transform_matrix="{&quot;a&quot;:1,&quot;b&quot;:0,&quot;c&quot;:0,&quot;d&quot;:1,&quot;e&quot;:565,&quot;f&quot;:278}" text_bbox="{&quot;x&quot;:-3.53125,&quot;y&quot;:-2,&quot;w&quot;:7.0625,&quot;h&quot;:16}" opacity="1" stroke-width="1px" stroke-opacity="1" font-family="&quot;Microsoft YaHei&quot;" my_stoke="none" my_stoke_width="1px" my_stoke_opacity="1" my_fill="rgb(110, 112, 121)" my_fill_opacity="1" my_font_size="12px" clip-path="none" content="9">9</text><text xml:space="preserve" fill="rgb(110, 112, 121)" fill-opacity="1" stroke="none" transform="matrix(1,0,0,1,675,278)" dominant-baseline="central" text-anchor="middle" x="0" y="6" style="font: 12px &quot;Microsoft YaHei&quot;; fill: rgb(110, 112, 121);" transform_matrix="{&quot;a&quot;:1,&quot;b&quot;:0,&quot;c&quot;:0,&quot;d&quot;:1,&quot;e&quot;:675,&quot;f&quot;:278}" text_bbox="{&quot;x&quot;:-7.046875,&quot;y&quot;:-2,&quot;w&quot;:14.09375,&quot;h&quot;:16}" opacity="1" stroke-width="1px" stroke-opacity="1" font-family="&quot;Microsoft YaHei&quot;" my_stoke="none" my_stoke_width="1px" my_stoke_opacity="1" my_fill="rgb(110, 112, 121)" my_fill_opacity="1" my_font_size="12px" clip-path="none" content="10">10</text><text xml:space="preserve" fill="rgb(110, 112, 121)" fill-opacity="1" stroke="none" transform="matrix(1,0,0,1,785,278)" dominant-baseline="central" text-anchor="middle" x="0" y="6" style="font: 12px &quot;Microsoft YaHei&quot;; fill: rgb(110, 112, 121);" transform_matrix="{&quot;a&quot;:1,&quot;b&quot;:0,&quot;c&quot;:0,&quot;d&quot;:1,&quot;e&quot;:785,&quot;f&quot;:278}" text_bbox="{&quot;x&quot;:-7.046875,&quot;y&quot;:-2,&quot;w&quot;:14.09375,&quot;h&quot;:16}" opacity="1" stroke-width="1px" stroke-opacity="1" font-family="&quot;Microsoft YaHei&quot;" my_stoke="none" my_stoke_width="1px" my_stoke_opacity="1" my_fill="rgb(110, 112, 121)" my_fill_opacity="1" my_font_size="12px" clip-path="none" content="11">11</text><g clip-path="url(#zr2454-clip-0)"><path d="M 15 133.7714 C 15 133.7714 70.0171 132.4 125 132.4 C 180.0171 132.4 179.9893 134.7997 235 136.5143 C 289.9893 138.2282 290.0152 139.2571 345 139.2571 C 400.0152 139.2571 399.9822 134.6857 455 134.6857 C 509.9822 134.6857 510.0093 135.486 565 136.9714 C 620.0093 138.4574 619.9858 140.6286 675 140.6286 C 729.9858 140.6286 730.0076 139.7143 785 139.7143 C 840.0076 139.7143 895 142.4571 895 142.4571 L 895 270 L 785 270 L 675 270 L 565 270 L 455 270 L 345 270 L 235 270 L 125 270 L 15 270 Z" fill-opacity="0.7" stroke="none" fill="url(&quot;#zr2454-gradient-0&quot;)" transform_matrix="{&quot;a&quot;:1,&quot;b&quot;:0,&quot;c&quot;:0,&quot;d&quot;:1,&quot;e&quot;:0,&quot;f&quot;:0}" my_stoke="none" my_stoke_width="1px" my_stoke_opacity="1" my_fill="url(&quot;#zr2454-gradient-0&quot;)" my_fill_opacity="0.7" my_font_size="16px" opacity="1"/></g><g clip-path="url(#zr2454-clip-1)"><path d="M 15 133.3143 C 15 133.3143 69.634 114.8299 125 114.8299 C 179.634 114.8299 180.0296 116.1231 235 118.6857 C 290.0296 121.251 289.9538 125.0857 345 125.0857 C 399.9538 125.0857 400.0339 124.6286 455 124.6286 C 510.0339 124.6286 509.9658 130.1143 565 130.1143 C 619.9658 130.1143 620.0009 130.1143 675 130.1143 C 730.0009 130.1143 729.9993 129.2 785 129.2 C 839.9993 129.2 895 129.6572 895 129.6572 L 895 142.4571 C 895 142.4571 840.0076 139.7143 785 139.7143 C 730.0076 139.7143 729.9858 140.6286 675 140.6286 C 619.9858 140.6286 620.0093 138.4574 565 136.9714 C 510.0093 135.486 509.9822 134.6857 455 134.6857 C 399.9822 134.6857 400.0152 139.2571 345 139.2571 C 290.0152 139.2571 289.9893 138.2282 235 136.5143 C 179.9893 134.7997 180.0171 132.4 125 132.4 C 70.0171 132.4 15 133.7714 15 133.7714 Z" fill-opacity="0.7" stroke="none" fill="url(&quot;#zr2454-gradient-1&quot;)" transform_matrix="{&quot;a&quot;:1,&quot;b&quot;:0,&quot;c&quot;:0,&quot;d&quot;:1,&quot;e&quot;:0,&quot;f&quot;:0}" my_stoke="none" my_stoke_width="1px" my_stoke_opacity="1" my_fill="url(&quot;#zr2454-gradient-1&quot;)" my_fill_opacity="0.7" my_font_size="16px" opacity="1"/></g><g clip-path="url(#zr2454-clip-0)"><path d="M 15 133.7714 C 15 133.7714 70.0171 132.4 125 132.4 C 180.0171 132.4 179.9893 134.7997 235 136.5143 C 289.9893 138.2282 290.0152 139.2571 345 139.2571 C 400.0152 139.2571 399.9822 134.6857 455 134.6857 C 509.9822 134.6857 510.0093 135.486 565 136.9714 C 620.0093 138.4574 619.9858 140.6286 675 140.6286 C 729.9858 140.6286 730.0076 139.7143 785 139.7143 C 840.0076 139.7143 895 142.4571 895 142.4571" fill="none" stroke="#0770FF" stroke-width="2" paint-order="fill" stroke-opacity="1" stroke-dasharray="" stroke-linecap="butt" stroke-linejoin="bevel" stroke-miterlimit="10" transform_matrix="{&quot;a&quot;:1,&quot;b&quot;:0,&quot;c&quot;:0,&quot;d&quot;:1,&quot;e&quot;:0,&quot;f&quot;:0}" my_stoke="rgb(7, 112, 255)" my_stoke_width="2px" my_stoke_opacity="1" my_fill="none" my_fill_opacity="1" my_font_size="16px" opacity="1"/></g><g clip-path="url(#zr2454-clip-1)"><path d="M 15 133.3143 C 15 133.3143 69.634 114.8299 125 114.8299 C 179.634 114.8299 180.0296 116.1231 235 118.6857 C 290.0296 121.251 289.9538 125.0857 345 125.0857 C 399.9538 125.0857 400.0339 124.6286 455 124.6286 C 510.0339 124.6286 509.9658 130.1143 565 130.1143 C 619.9658 130.1143 620.0009 130.1143 675 130.1143 C 730.0009 130.1143 729.9993 129.2 785 129.2 C 839.9993 129.2 895 129.6572 895 129.6572" fill="none" stroke="#F2597F" stroke-width="2" paint-order="fill" stroke-opacity="1" stroke-dasharray="" stroke-linecap="butt" stroke-linejoin="bevel" stroke-miterlimit="10" transform_matrix="{&quot;a&quot;:1,&quot;b&quot;:0,&quot;c&quot;:0,&quot;d&quot;:1,&quot;e&quot;:0,&quot;f&quot;:0}" my_stoke="rgb(242, 89, 127)" my_stoke_width="2px" my_stoke_opacity="1" my_fill="none" my_fill_opacity="1" my_font_size="16px" opacity="1"/></g><path d="M 1 0 A 1 1 0 1 1 1 -0.0001" fill="rgb(7, 112, 255)" fill-opacity="1" stroke="none" transform="matrix(2.5,0,0,2.5,15,133.7714)" transform_matrix="{&quot;a&quot;:2.5,&quot;b&quot;:0,&quot;c&quot;:0,&quot;d&quot;:2.5,&quot;e&quot;:15,&quot;f&quot;:133.77139282226562}" my_stoke="none" my_stoke_width="1px" my_stoke_opacity="1" my_fill="rgb(7, 112, 255)" my_fill_opacity="1" my_font_size="16px" opacity="1"/><path d="M 1 0 A 1 1 0 1 1 1 -0.0001" fill="rgb(7, 112, 255)" fill-opacity="1" stroke="none" transform="matrix(2.5,0,0,2.5,125,132.4)" transform_matrix="{&quot;a&quot;:2.5,&quot;b&quot;:0,&quot;c&quot;:0,&quot;d&quot;:2.5,&quot;e&quot;:125,&quot;f&quot;:132.39999389648438}" my_stoke="none" my_stoke_width="1px" my_stoke_opacity="1" my_fill="rgb(7, 112, 255)" my_fill_opacity="1" my_font_size="16px" opacity="1"/><path d="M 1 0 A 1 1 0 1 1 1 -0.0001" fill="rgb(7, 112, 255)" fill-opacity="1" stroke="none" transform="matrix(2.5,0,0,2.5,235,136.5143)" transform_matrix="{&quot;a&quot;:2.5,&quot;b&quot;:0,&quot;c&quot;:0,&quot;d&quot;:2.5,&quot;e&quot;:235,&quot;f&quot;:136.51429748535156}" my_stoke="none" my_stoke_width="1px" my_stoke_opacity="1" my_fill="rgb(7, 112, 255)" my_fill_opacity="1" my_font_size="16px" opacity="1"/><path d="M 1 0 A 1 1 0 1 1 1 -0.0001" fill="rgb(7, 112, 255)" fill-opacity="1" stroke="none" transform="matrix(2.5,0,0,2.5,345,139.2571)" transform_matrix="{&quot;a&quot;:2.5,&quot;b&quot;:0,&quot;c&quot;:0,&quot;d&quot;:2.5,&quot;e&quot;:345,&quot;f&quot;:139.25709533691406}" my_stoke="none" my_stoke_width="1px" my_stoke_opacity="1" my_fill="rgb(7, 112, 255)" my_fill_opacity="1" my_font_size="16px" opacity="1"/><path d="M 1 0 A 1 1 0 1 1 1 -0.0001" fill="rgb(7, 112, 255)" fill-opacity="1" stroke="none" transform="matrix(2.5,0,0,2.5,455,134.6857)" transform_matrix="{&quot;a&quot;:2.5,&quot;b&quot;:0,&quot;c&quot;:0,&quot;d&quot;:2.5,&quot;e&quot;:455,&quot;f&quot;:134.68569946289062}" my_stoke="none" my_stoke_width="1px" my_stoke_opacity="1" my_fill="rgb(7, 112, 255)" my_fill_opacity="1" my_font_size="16px" opacity="1"/><path d="M 1 0 A 1 1 0 1 1 1 -0.0001" fill="rgb(7, 112, 255)" fill-opacity="1" stroke="none" transform="matrix(2.5,0,0,2.5,565,136.9714)" transform_matrix="{&quot;a&quot;:2.5,&quot;b&quot;:0,&quot;c&quot;:0,&quot;d&quot;:2.5,&quot;e&quot;:565,&quot;f&quot;:136.97140502929688}" my_stoke="none" my_stoke_width="1px" my_stoke_opacity="1" my_fill="rgb(7, 112, 255)" my_fill_opacity="1" my_font_size="16px" opacity="1"/><path d="M 1 0 A 1 1 0 1 1 1 -0.0001" fill="rgb(7, 112, 255)" fill-opacity="1" stroke="none" transform="matrix(2.5,0,0,2.5,675,140.6286)" transform_matrix="{&quot;a&quot;:2.5,&quot;b&quot;:0,&quot;c&quot;:0,&quot;d&quot;:2.5,&quot;e&quot;:675,&quot;f&quot;:140.62860107421875}" my_stoke="none" my_stoke_width="1px" my_stoke_opacity="1" my_fill="rgb(7, 112, 255)" my_fill_opacity="1" my_font_size="16px" opacity="1"/><path d="M 1 0 A 1 1 0 1 1 1 -0.0001" fill="rgb(7, 112, 255)" fill-opacity="1" stroke="none" transform="matrix(2.5,0,0,2.5,785,139.7143)" transform_matrix="{&quot;a&quot;:2.5,&quot;b&quot;:0,&quot;c&quot;:0,&quot;d&quot;:2.5,&quot;e&quot;:785,&quot;f&quot;:139.71429443359375}" my_stoke="none" my_stoke_width="1px" my_stoke_opacity="1" my_fill="rgb(7, 112, 255)" my_fill_opacity="1" my_font_size="16px" opacity="1"/><path d="M 1 0 A 1 1 0 1 1 1 -0.0001" fill="rgb(7, 112, 255)" fill-opacity="1" stroke="none" transform="matrix(2.5,0,0,2.5,895,142.4571)" transform_matrix="{&quot;a&quot;:2.5,&quot;b&quot;:0,&quot;c&quot;:0,&quot;d&quot;:2.5,&quot;e&quot;:895,&quot;f&quot;:142.4571075439453}" my_stoke="none" my_stoke_width="1px" my_stoke_opacity="1" my_fill="rgb(7, 112, 255)" my_fill_opacity="1" my_font_size="16px" opacity="1"/><path d="M 1 0 A 1 1 0 1 1 1 -0.0001" fill="rgb(242, 89, 127)" fill-opacity="1" stroke="none" transform="matrix(2.5,0,0,2.5,15,133.3143)" transform_matrix="{&quot;a&quot;:2.5,&quot;b&quot;:0,&quot;c&quot;:0,&quot;d&quot;:2.5,&quot;e&quot;:15,&quot;f&quot;:133.31430053710938}" my_stoke="none" my_stoke_width="1px" my_stoke_opacity="1" my_fill="rgb(242, 89, 127)" my_fill_opacity="1" my_font_size="16px" opacity="1"/><path d="M 1 0 A 1 1 0 1 1 1 -0.0001" fill="rgb(242, 89, 127)" fill-opacity="1" stroke="none" transform="matrix(2.5,0,0,2.5,125,114.8299)" transform_matrix="{&quot;a&quot;:2.5,&quot;b&quot;:0,&quot;c&quot;:0,&quot;d&quot;:2.5,&quot;e&quot;:125,&quot;f&quot;:114.82990264892578}" my_stoke="none" my_stoke_width="1px" my_stoke_opacity="1" my_fill="rgb(242, 89, 127)" my_fill_opacity="1" my_font_size="16px" opacity="1"/><path d="M 1 0 A 1 1 0 1 1 1 -0.0001" fill="rgb(242, 89, 127)" fill-opacity="1" stroke="none" transform="matrix(2.5,0,0,2.5,235,118.6857)" transform_matrix="{&quot;a&quot;:2.5,&quot;b&quot;:0,&quot;c&quot;:0,&quot;d&quot;:2.5,&quot;e&quot;:235,&quot;f&quot;:118.68569946289062}" my_stoke="none" my_stoke_width="1px" my_stoke_opacity="1" my_fill="rgb(242, 89, 127)" my_fill_opacity="1" my_font_size="16px" opacity="1"/><path d="M 1 0 A 1 1 0 1 1 1 -0.0001" fill="rgb(242, 89, 127)" fill-opacity="1" stroke="none" transform="matrix(2.5,0,0,2.5,345,125.0857)" transform_matrix="{&quot;a&quot;:2.5,&quot;b&quot;:0,&quot;c&quot;:0,&quot;d&quot;:2.5,&quot;e&quot;:345,&quot;f&quot;:125.08570098876953}" my_stoke="none" my_stoke_width="1px" my_stoke_opacity="1" my_fill="rgb(242, 89, 127)" my_fill_opacity="1" my_font_size="16px" opacity="1"/><path d="M 1 0 A 1 1 0 1 1 1 -0.0001" fill="rgb(242, 89, 127)" fill-opacity="1" stroke="none" transform="matrix(2.5,0,0,2.5,455,124.6286)" transform_matrix="{&quot;a&quot;:2.5,&quot;b&quot;:0,&quot;c&quot;:0,&quot;d&quot;:2.5,&quot;e&quot;:455,&quot;f&quot;:124.62860107421875}" my_stoke="none" my_stoke_width="1px" my_stoke_opacity="1" my_fill="rgb(242, 89, 127)" my_fill_opacity="1" my_font_size="16px" opacity="1"/><path d="M 1 0 A 1 1 0 1 1 1 -0.0001" fill="rgb(242, 89, 127)" fill-opacity="1" stroke="none" transform="matrix(2.5,0,0,2.5,565,130.1143)" transform_matrix="{&quot;a&quot;:2.5,&quot;b&quot;:0,&quot;c&quot;:0,&quot;d&quot;:2.5,&quot;e&quot;:565,&quot;f&quot;:130.1143035888672}" my_stoke="none" my_stoke_width="1px" my_stoke_opacity="1" my_fill="rgb(242, 89, 127)" my_fill_opacity="1" my_font_size="16px" opacity="1"/><path d="M 1 0 A 1 1 0 1 1 1 -0.0001" fill="rgb(242, 89, 127)" fill-opacity="1" stroke="none" transform="matrix(2.5,0,0,2.5,675,130.1143)" transform_matrix="{&quot;a&quot;:2.5,&quot;b&quot;:0,&quot;c&quot;:0,&quot;d&quot;:2.5,&quot;e&quot;:675,&quot;f&quot;:130.1143035888672}" my_stoke="none" my_stoke_width="1px" my_stoke_opacity="1" my_fill="rgb(242, 89, 127)" my_fill_opacity="1" my_font_size="16px" opacity="1"/><path d="M 1 0 A 1 1 0 1 1 1 -0.0001" fill="rgb(242, 89, 127)" fill-opacity="1" stroke="none" transform="matrix(2.5,0,0,2.5,785,129.2)" transform_matrix="{&quot;a&quot;:2.5,&quot;b&quot;:0,&quot;c&quot;:0,&quot;d&quot;:2.5,&quot;e&quot;:785,&quot;f&quot;:129.1999969482422}" my_stoke="none" my_stoke_width="1px" my_stoke_opacity="1" my_fill="rgb(242, 89, 127)" my_fill_opacity="1" my_font_size="16px" opacity="1"/><path d="M 1 0 A 1 1 0 1 1 1 -0.0001" fill="rgb(242, 89, 127)" fill-opacity="1" stroke="none" transform="matrix(2.5,0,0,2.5,895,129.6572)" transform_matrix="{&quot;a&quot;:2.5,&quot;b&quot;:0,&quot;c&quot;:0,&quot;d&quot;:2.5,&quot;e&quot;:895,&quot;f&quot;:129.65719604492188}" my_stoke="none" my_stoke_width="1px" my_stoke_opacity="1" my_fill="rgb(242, 89, 127)" my_fill_opacity="1" my_font_size="16px" opacity="1"/><path d="M -5 -5 L 5 -5 L 5 5 L -5 5 L -5 -5 Z" fill="rgb(0, 0, 0)" fill-opacity="0" stroke="#ccc" stroke-width="0" paint-order="fill" stroke-opacity="1" stroke-dasharray="" stroke-linecap="butt" stroke-miterlimit="10" transform="matrix(1,0,0,1,455,768)" transform_matrix="{&quot;a&quot;:1,&quot;b&quot;:0,&quot;c&quot;:0,&quot;d&quot;:1,&quot;e&quot;:455,&quot;f&quot;:768}" my_stoke="rgb(204, 204, 204)" my_stoke_width="0px" my_stoke_opacity="1" my_fill="rgb(0, 0, 0)" my_fill_opacity="0" my_font_size="16px" opacity="1"/><path d="M -20 -20 L 90.7012 -20 L 90.7012 20 L -20 20 L -20 -20 Z" fill="none" fill-opacity="1" stroke="#ccc" stroke-width="0" paint-order="fill" stroke-opacity="1" stroke-dasharray="" stroke-linecap="butt" stroke-miterlimit="10" transform="matrix(1,0,0,1,419.6494,75)" transform_matrix="{&quot;a&quot;:1,&quot;b&quot;:0,&quot;c&quot;:0,&quot;d&quot;:1,&quot;e&quot;:419.6494140625,&quot;f&quot;:75}" my_stoke="rgb(204, 204, 204)" my_stoke_width="0px" my_stoke_opacity="1" my_fill="none" my_fill_opacity="1" my_font_size="16px" opacity="1"/><path d="M -137.9521 -5 L 137.9521 -5 L 137.9521 45 L -137.9521 45 L -137.9521 -5 Z" fill="rgb(0, 0, 0)" fill-opacity="0" stroke="#ccc" stroke-width="0" paint-order="fill" stroke-opacity="1" stroke-dasharray="" stroke-linecap="butt" stroke-miterlimit="10" transform="matrix(1,0,0,1,455,5)" transform_matrix="{&quot;a&quot;:1,&quot;b&quot;:0,&quot;c&quot;:0,&quot;d&quot;:1,&quot;e&quot;:455,&quot;f&quot;:5}" my_stoke="rgb(204, 204, 204)" my_stoke_width="0px" my_stoke_opacity="1" my_fill="rgb(0, 0, 0)" my_fill_opacity="0" my_font_size="16px" opacity="1"/><path d="M -12.5 -6.681 L -0.9052 -6.681 M -6.681 -0.9052 L -6.681 -12.5 M 1.3362 -6.681 L 12.5 -6.681 L 12.5 12.5 L -6.681 12.5 L -6.681 1.3362" fill="none" stroke="#666" stroke-width="1" paint-order="fill" stroke-opacity="1" stroke-dasharray="" stroke-linecap="butt" stroke-miterlimit="10" transform="matrix(1,0,0,1,419.6494,75)" transform_matrix="{&quot;a&quot;:1,&quot;b&quot;:0,&quot;c&quot;:0,&quot;d&quot;:1,&quot;e&quot;:419.6494140625,&quot;f&quot;:75}" my_stoke="rgb(102, 102, 102)" my_stoke_width="1px" my_stoke_opacity="1" my_fill="none" my_fill_opacity="1" my_font_size="16px" opacity="1"/><path d="M -4.5855 -12.5 L -9.9206 -7.1649 L -4.4974 -1.7416 M -9.7443 -7.1649 L 9.9206 -7.1649 L 9.9206 12.5 L -9.7443 12.5 L -9.7443 1.0362" fill="none" stroke="#666" stroke-width="1" paint-order="fill" stroke-opacity="1" stroke-dasharray="" stroke-linecap="butt" stroke-miterlimit="10" transform="matrix(1,0,0,1,455.0701,75)" transform_matrix="{&quot;a&quot;:1,&quot;b&quot;:0,&quot;c&quot;:0,&quot;d&quot;:1,&quot;e&quot;:455.0700988769531,&quot;f&quot;:75}" my_stoke="rgb(102, 102, 102)" my_stoke_width="1px" my_stoke_opacity="1" my_fill="none" my_fill_opacity="1" my_font_size="16px" opacity="1"/><path d="M -11.6657 1.5139 M 7.5694 -4.9423 L 11.9329 -4.9423 L 11.9329 -9.484 M 11.7102 -4.408 C 9.8402 -9.3504 4.6752 -13.0905 -1.4248 -12.4226 C -7.7475 -11.7102 -12.6453 -6.1445 -12.4226 0.2672 M -7.5694 4.9423 L -11.9774 4.9423 L -11.9774 9.484 M -11.7102 4.408 C -9.8402 9.3504 -4.6752 13.0905 1.4248 12.4226 C 7.7475 11.7102 12.6453 6.1445 12.4226 -0.2672" fill="none" stroke="#666" stroke-width="1" paint-order="fill" stroke-opacity="1" stroke-dasharray="" stroke-linecap="butt" stroke-miterlimit="10" transform="matrix(1,0,0,1,490.4206,75)" transform_matrix="{&quot;a&quot;:1,&quot;b&quot;:0,&quot;c&quot;:0,&quot;d&quot;:1,&quot;e&quot;:490.42059326171875,&quot;f&quot;:75}" my_stoke="rgb(102, 102, 102)" my_stoke_width="1px" my_stoke_opacity="1" my_fill="none" my_fill_opacity="1" my_font_size="16px" opacity="1"/><text xml:space="preserve" fill="rgb(70, 70, 70)" fill-opacity="1" stroke="none" transform="matrix(1,0,0,1,455,5)" dominant-baseline="central" text-anchor="middle" x="0" y="9" style="font: bold 18px &quot;Microsoft YaHei&quot;; fill: rgb(70, 70, 70);" transform_matrix="{&quot;a&quot;:1,&quot;b&quot;:0,&quot;c&quot;:0,&quot;d&quot;:1,&quot;e&quot;:455,&quot;f&quot;:5}" text_bbox="{&quot;x&quot;:-133.953125,&quot;y&quot;:-3,&quot;w&quot;:266.90625,&quot;h&quot;:24}" opacity="1" stroke-width="1px" stroke-opacity="1" font-family="&quot;Microsoft YaHei&quot;" my_stoke="none" my_stoke_width="1px" my_stoke_opacity="1" my_fill="rgb(70, 70, 70)" my_fill_opacity="1" my_font_size="18px" clip-path="none" content="触屏 tooltip 和 dataZoom 示例">触屏 tooltip 和 dataZoom 示例</text><text xml:space="preserve" fill="rgb(110, 112, 121)" fill-opacity="1" stroke="none" transform="matrix(1,0,0,1,455,5)" dominant-baseline="central" text-anchor="middle" x="0" y="34" style="font: 12px &quot;Microsoft YaHei&quot;; fill: rgb(110, 112, 121);" transform_matrix="{&quot;a&quot;:1,&quot;b&quot;:0,&quot;c&quot;:0,&quot;d&quot;:1,&quot;e&quot;:455,&quot;f&quot;:5}" text_bbox="{&quot;x&quot;:-123.171875,&quot;y&quot;:26,&quot;w&quot;:246.53125,&quot;h&quot;:16}" opacity="1" stroke-width="1px" stroke-opacity="1" font-family="&quot;Microsoft YaHei&quot;" my_stoke="none" my_stoke_width="1px" my_stoke_opacity="1" my_fill="rgb(110, 112, 121)" my_fill_opacity="1" my_font_size="12px" clip-path="none" content="&quot;tootip&quot; and &quot;dataZoom&quot; on mobile device">"tootip" and "dataZoom" on mobile device</text><text xml:space="preserve" fill="rgb(110, 112, 121)" fill-opacity="1" stroke="none" transform="matrix(1,0,0,1,23,247.1429)" dominant-baseline="central" text-anchor="start" x="0" y="-6" style="font: 12px &quot;Microsoft YaHei&quot;; fill: rgb(110, 112, 121);" transform_matrix="{&quot;a&quot;:1,&quot;b&quot;:0,&quot;c&quot;:0,&quot;d&quot;:1,&quot;e&quot;:23,&quot;f&quot;:247.1428985595703}" text_bbox="{&quot;x&quot;:0,&quot;y&quot;:-14,&quot;w&quot;:14.078125,&quot;h&quot;:16}" opacity="1" stroke-width="1px" stroke-opacity="1" font-family="&quot;Microsoft YaHei&quot;" my_stoke="none" my_stoke_width="1px" my_stoke_opacity="1" my_fill="rgb(110, 112, 121)" my_fill_opacity="1" my_font_size="12px" clip-path="none" content="50">50</text><text xml:space="preserve" fill="rgb(110, 112, 121)" fill-opacity="1" stroke="none" transform="matrix(1,0,0,1,23,224.2857)" dominant-baseline="central" text-anchor="start" x="0" y="-6" style="font: 12px &quot;Microsoft YaHei&quot;; fill: rgb(110, 112, 121);" transform_matrix="{&quot;a&quot;:1,&quot;b&quot;:0,&quot;c&quot;:0,&quot;d&quot;:1,&quot;e&quot;:23,&quot;f&quot;:224.28570556640625}" text_bbox="{&quot;x&quot;:0,&quot;y&quot;:-14,&quot;w&quot;:21.125,&quot;h&quot;:16}" opacity="1" stroke-width="1px" stroke-opacity="1" font-family="&quot;Microsoft YaHei&quot;" my_stoke="none" my_stoke_width="1px" my_stoke_opacity="1" my_fill="rgb(110, 112, 121)" my_fill_opacity="1" my_font_size="12px" clip-path="none" content="100">100</text><text xml:space="preserve" fill="rgb(110, 112, 121)" fill-opacity="1" stroke="none" transform="matrix(1,0,0,1,23,201.4286)" dominant-baseline="central" text-anchor="start" x="0" y="-6" style="font: 12px &quot;Microsoft YaHei&quot;; fill: rgb(110, 112, 121);" transform_matrix="{&quot;a&quot;:1,&quot;b&quot;:0,&quot;c&quot;:0,&quot;d&quot;:1,&quot;e&quot;:23,&quot;f&quot;:201.42860412597656}" text_bbox="{&quot;x&quot;:0,&quot;y&quot;:-14,&quot;w&quot;:21.125,&quot;h&quot;:16}" opacity="1" stroke-width="1px" stroke-opacity="1" font-family="&quot;Microsoft YaHei&quot;" my_stoke="none" my_stoke_width="1px" my_stoke_opacity="1" my_fill="rgb(110, 112, 121)" my_fill_opacity="1" my_font_size="12px" clip-path="none" content="150">150</text><text xml:space="preserve" fill="rgb(110, 112, 121)" fill-opacity="1" stroke="none" transform="matrix(1,0,0,1,23,178.5714)" dominant-baseline="central" text-anchor="start" x="0" y="-6" style="font: 12px &quot;Microsoft YaHei&quot;; fill: rgb(110, 112, 121);" transform_matrix="{&quot;a&quot;:1,&quot;b&quot;:0,&quot;c&quot;:0,&quot;d&quot;:1,&quot;e&quot;:23,&quot;f&quot;:178.57139587402344}" text_bbox="{&quot;x&quot;:0,&quot;y&quot;:-14,&quot;w&quot;:21.125,&quot;h&quot;:16}" opacity="1" stroke-width="1px" stroke-opacity="1" font-family="&quot;Microsoft YaHei&quot;" my_stoke="none" my_stoke_width="1px" my_stoke_opacity="1" my_fill="rgb(110, 112, 121)" my_fill_opacity="1" my_font_size="12px" clip-path="none" content="200">200</text><text xml:space="preserve" fill="rgb(110, 112, 121)" fill-opacity="1" stroke="none" transform="matrix(1,0,0,1,23,155.7143)" dominant-baseline="central" text-anchor="start" x="0" y="-6" style="font: 12px &quot;Microsoft YaHei&quot;; fill: rgb(110, 112, 121);" transform_matrix="{&quot;a&quot;:1,&quot;b&quot;:0,&quot;c&quot;:0,&quot;d&quot;:1,&quot;e&quot;:23,&quot;f&quot;:155.71429443359375}" text_bbox="{&quot;x&quot;:0,&quot;y&quot;:-14,&quot;w&quot;:21.125,&quot;h&quot;:16}" opacity="1" stroke-width="1px" stroke-opacity="1" font-family="&quot;Microsoft YaHei&quot;" my_stoke="none" my_stoke_width="1px" my_stoke_opacity="1" my_fill="rgb(110, 112, 121)" my_fill_opacity="1" my_font_size="12px" clip-path="none" content="250">250</text><text xml:space="preserve" fill="rgb(110, 112, 121)" fill-opacity="1" stroke="none" transform="matrix(1,0,0,1,23,132.8571)" dominant-baseline="central" text-anchor="start" x="0" y="-6" style="font: 12px &quot;Microsoft YaHei&quot;; fill: rgb(110, 112, 121);" transform_matrix="{&quot;a&quot;:1,&quot;b&quot;:0,&quot;c&quot;:0,&quot;d&quot;:1,&quot;e&quot;:23,&quot;f&quot;:132.8571014404297}" text_bbox="{&quot;x&quot;:0,&quot;y&quot;:-14,&quot;w&quot;:21.125,&quot;h&quot;:16}" opacity="1" stroke-width="1px" stroke-opacity="1" font-family="&quot;Microsoft YaHei&quot;" my_stoke="none" my_stoke_width="1px" my_stoke_opacity="1" my_fill="rgb(110, 112, 121)" my_fill_opacity="1" my_font_size="12px" clip-path="none" content="300">300</text><path d="M 345 270 L 345 110" fill="none" stroke="#7581BD" stroke-width="2" paint-order="fill" stroke-opacity="1" stroke-dasharray="8,4" stroke-dashoffset="0" stroke-linecap="butt" stroke-miterlimit="10" transform_matrix="{&quot;a&quot;:1,&quot;b&quot;:0,&quot;c&quot;:0,&quot;d&quot;:1,&quot;e&quot;:0,&quot;f&quot;:0}" my_stoke="rgb(117, 129, 189)" my_stoke_width="2px" my_stoke_opacity="1" my_fill="none" my_fill_opacity="1" my_font_size="16px" opacity="1"/><path d="M 0.0745 -0.8706 L 0.0745 -1 L -0.0648 -1 L -0.0648 -0.8706 C -0.5523 -0.8408 -0.9404 -0.4328 -0.9404 0.0647 C -0.9404 0.5622 -0.5523 0.9701 -0.0648 1 L 0.0646 1 C 0.5521 0.9701 0.9402 0.5622 0.9402 0.0647 C 0.9502 -0.4328 0.5621 -0.8408 0.0745 -0.8706 Z M 0.3332 0.3731 L -0.3235 0.3731 L -0.3235 0.2537 L 0.3332 0.2537 Z M 0.3332 0.1343 L -0.3235 0.1343 L -0.3235 0.0149 L 0.3332 0.0149 Z M 0.3332 -0.1045 L -0.3235 -0.1045 L -0.3235 -0.2239 L 0.3332 -0.2239 Z" fill="rgb(117, 129, 189)" fill-opacity="1" stroke="none" transform="matrix(22.5,0,0,22.5,345,320)" style="filter: url(&quot;#zr2454-shadow-0&quot;);" transform_matrix="{&quot;a&quot;:22.5,&quot;b&quot;:0,&quot;c&quot;:0,&quot;d&quot;:22.5,&quot;e&quot;:345,&quot;f&quot;:320}" my_stoke="none" my_stoke_width="1px" my_stoke_opacity="1" my_fill="rgb(117, 129, 189)" my_fill_opacity="1" my_font_size="16px" opacity="1"/><path d="M 3 0 L 77.6797 0 A 3 3 0 0 1 80.6797 3 L 80.6797 19 A 3 3 0 0 1 77.6797 22 L 3 22 A 3 3 0 0 1 0 19 L 0 3 A 3 3 0 0 1 3 0" fill="rgb(117, 129, 189)" fill-opacity="1" stroke="none" transform="matrix(1,0,0,1,304.6602,273)" transform_matrix="{&quot;a&quot;:1,&quot;b&quot;:0,&quot;c&quot;:0,&quot;d&quot;:1,&quot;e&quot;:304.6601867675781,&quot;f&quot;:273}" my_stoke="none" my_stoke_width="1px" my_stoke_opacity="1" my_fill="rgb(117, 129, 189)" my_fill_opacity="1" my_font_size="16px" opacity="1"/><text xml:space="preserve" fill="rgb(255, 255, 255)" fill-opacity="1" stroke="none" transform="matrix(1,0,0,1,304.6602,273)" dominant-baseline="central" text-anchor="start" x="7" y="11" style="font: 12px &quot;Microsoft YaHei&quot;; fill: rgb(255, 255, 255);" transform_matrix="{&quot;a&quot;:1,&quot;b&quot;:0,&quot;c&quot;:0,&quot;d&quot;:1,&quot;e&quot;:304.6601867675781,&quot;f&quot;:273}" text_bbox="{&quot;x&quot;:7,&quot;y&quot;:3,&quot;w&quot;:66.6875,&quot;h&quot;:16}" opacity="1" stroke-width="1px" stroke-opacity="1" font-family="&quot;Microsoft YaHei&quot;" my_stoke="none" my_stoke_width="1px" my_stoke_opacity="1" my_fill="rgb(255, 255, 255)" my_fill_opacity="1" my_font_size="12px" clip-path="none" content="2016-10-07">2016-10-07</text><defs><linearGradient id="zr2454-gradient-0" x1="0" y1="0" x2="0" y2="1" gradientUnits="objectBoundingBox"><stop offset="0%" stop-color="#3a4de9" stop-opacity="0.8"/><stop offset="100%" stop-color="#3a4de9" stop-opacity="0.3"/></linearGradient><linearGradient id="zr2454-gradient-1" x1="0" y1="0" x2="0" y2="1" gradientUnits="objectBoundingBox"><stop offset="0%" stop-color="#d54878" stop-opacity="0.8"/><stop offset="100%" stop-color="#d54878" stop-opacity="0.3"/></linearGradient><filter id="zr2454-shadow-0" x="-100%" y="-100%" width="300%" height="300%"><feDropShadow dx="0" dy="0.08888888888888889" flood-color="#aaa" flood-opacity="1" stdDeviation="0.06666666666666667 0.06666666666666667"/></filter></defs></g></svg>