<svg xmlns="http://www.w3.org/2000/svg" xmlns:xlink="http://www.w3.org/1999/xlink" version="1.1" baseProfile="full" width="910" height="773" style="user-select: none; position: absolute; left: 0px; top: 0px;" transform_matrix="{&quot;a&quot;:1,&quot;b&quot;:0,&quot;c&quot;:0,&quot;d&quot;:1,&quot;e&quot;:0,&quot;f&quot;:0}"><g><defs/><path d="M 91 313.5 L 819 313.5" fill="none" stroke="#5470c6" stroke-width="1" paint-order="fill" stroke-opacity="0.3" stroke-dasharray="4,2" stroke-dashoffset="0" stroke-linecap="butt" stroke-miterlimit="10" transform_matrix="{&quot;a&quot;:1,&quot;b&quot;:0,&quot;c&quot;:0,&quot;d&quot;:1,&quot;e&quot;:0,&quot;f&quot;:0}" my_stoke="rgb(84, 112, 198)" my_stoke_width="1px" my_stoke_opacity="0.3" my_fill="none" my_fill_opacity="1" my_font_size="16px" opacity="1"/><path d="M 91 449.5 L 819 449.5" fill="none" stroke="#5470c6" stroke-width="1" paint-order="fill" stroke-opacity="0.3" stroke-dasharray="4,2" stroke-dashoffset="0" stroke-linecap="butt" stroke-miterlimit="10" transform_matrix="{&quot;a&quot;:1,&quot;b&quot;:0,&quot;c&quot;:0,&quot;d&quot;:1,&quot;e&quot;:0,&quot;f&quot;:0}" my_stoke="rgb(84, 112, 198)" my_stoke_width="1px" my_stoke_opacity="0.3" my_fill="none" my_fill_opacity="1" my_font_size="16px" opacity="1"/><text xml:space="preserve" fill="rgb(51, 51, 51)" fill-opacity="0.3" stroke="rgb(255, 255, 255)" stroke-width="2px" paint-order="stroke" stroke-opacity="0.3" stroke-dasharray="" stroke-linecap="butt" stroke-miterlimit="2" transform="matrix(1,0,0,1,824,312.9)" dominant-baseline="central" text-anchor="start" x="0" y="0" style="font: 12px &quot;Microsoft YaHei&quot;; fill: rgb(51, 51, 51);" transform_matrix="{&quot;a&quot;:1,&quot;b&quot;:0,&quot;c&quot;:0,&quot;d&quot;:1,&quot;e&quot;:824,&quot;f&quot;:312.8999938964844}" text_bbox="{&quot;x&quot;:0,&quot;y&quot;:-8,&quot;w&quot;:51.515625,&quot;h&quot;:16}" opacity="1" font-family="&quot;Microsoft YaHei&quot;" my_stoke="rgb(255, 255, 255)" my_stoke_width="2px" my_stoke_opacity="0.3" my_fill="rgb(51, 51, 51)" my_fill_opacity="0.3" my_font_size="12px" clip-path="none" content="max: 123">max: 123</text><text xml:space="preserve" fill="rgb(51, 51, 51)" fill-opacity="0.3" stroke="rgb(255, 255, 255)" stroke-width="2px" paint-order="stroke" stroke-opacity="0.3" stroke-dasharray="" stroke-linecap="butt" stroke-miterlimit="2" transform="matrix(1,0,0,1,824,449.3667)" dominant-baseline="central" text-anchor="start" x="0" y="0" style="font: 12px &quot;Microsoft YaHei&quot;; fill: rgb(51, 51, 51);" transform_matrix="{&quot;a&quot;:1,&quot;b&quot;:0,&quot;c&quot;:0,&quot;d&quot;:1,&quot;e&quot;:824,&quot;f&quot;:449.36669921875}" text_bbox="{&quot;x&quot;:0,&quot;y&quot;:-8,&quot;w&quot;:43.3125,&quot;h&quot;:16}" opacity="1" font-family="&quot;Microsoft YaHei&quot;" my_stoke="rgb(255, 255, 255)" my_stoke_width="2px" my_stoke_opacity="0.3" my_fill="rgb(51, 51, 51)" my_fill_opacity="0.3" my_font_size="12px" clip-path="none" content="min: 34">min: 34</text><text xml:space="preserve" fill="rgb(110, 112, 121)" fill-opacity="1" stroke="none" transform="matrix(1,0,0,1,63,501.5)" dominant-baseline="central" text-anchor="end" x="0" y="0" style="font: 12px &quot;Microsoft YaHei&quot;; fill: rgb(110, 112, 121);" transform_matrix="{&quot;a&quot;:1,&quot;b&quot;:0,&quot;c&quot;:0,&quot;d&quot;:1,&quot;e&quot;:63,&quot;f&quot;:501.5}" text_bbox="{&quot;x&quot;:-7.046875,&quot;y&quot;:-8,&quot;w&quot;:7.046875,&quot;h&quot;:16}" opacity="1" stroke-width="1px" stroke-opacity="1" font-family="&quot;Microsoft YaHei&quot;" my_stoke="none" my_stoke_width="1px" my_stoke_opacity="1" my_fill="rgb(110, 112, 121)" my_fill_opacity="1" my_font_size="12px" clip-path="none" content="0">0</text><text xml:space="preserve" fill="rgb(110, 112, 121)" fill-opacity="1" stroke="none" transform="matrix(1,0,0,1,63,455.5)" dominant-baseline="central" text-anchor="end" x="0" y="0" style="font: 12px &quot;Microsoft YaHei&quot;; fill: rgb(110, 112, 121);" transform_matrix="{&quot;a&quot;:1,&quot;b&quot;:0,&quot;c&quot;:0,&quot;d&quot;:1,&quot;e&quot;:63,&quot;f&quot;:455.5}" text_bbox="{&quot;x&quot;:-14.078125,&quot;y&quot;:-8,&quot;w&quot;:14.078125,&quot;h&quot;:16}" opacity="1" stroke-width="1px" stroke-opacity="1" font-family="&quot;Microsoft YaHei&quot;" my_stoke="none" my_stoke_width="1px" my_stoke_opacity="1" my_fill="rgb(110, 112, 121)" my_fill_opacity="1" my_font_size="12px" clip-path="none" content="30">30</text><text xml:space="preserve" fill="rgb(110, 112, 121)" fill-opacity="1" stroke="none" transform="matrix(1,0,0,1,63,409.5)" dominant-baseline="central" text-anchor="end" x="0" y="0" style="font: 12px &quot;Microsoft YaHei&quot;; fill: rgb(110, 112, 121);" transform_matrix="{&quot;a&quot;:1,&quot;b&quot;:0,&quot;c&quot;:0,&quot;d&quot;:1,&quot;e&quot;:63,&quot;f&quot;:409.5}" text_bbox="{&quot;x&quot;:-14.078125,&quot;y&quot;:-8,&quot;w&quot;:14.078125,&quot;h&quot;:16}" opacity="1" stroke-width="1px" stroke-opacity="1" font-family="&quot;Microsoft YaHei&quot;" my_stoke="none" my_stoke_width="1px" my_stoke_opacity="1" my_fill="rgb(110, 112, 121)" my_fill_opacity="1" my_font_size="12px" clip-path="none" content="60">60</text><text xml:space="preserve" fill="rgb(110, 112, 121)" fill-opacity="1" stroke="none" transform="matrix(1,0,0,1,63,363.5)" dominant-baseline="central" text-anchor="end" x="0" y="0" style="font: 12px &quot;Microsoft YaHei&quot;; fill: rgb(110, 112, 121);" transform_matrix="{&quot;a&quot;:1,&quot;b&quot;:0,&quot;c&quot;:0,&quot;d&quot;:1,&quot;e&quot;:63,&quot;f&quot;:363.5}" text_bbox="{&quot;x&quot;:-14.078125,&quot;y&quot;:-8,&quot;w&quot;:14.078125,&quot;h&quot;:16}" opacity="1" stroke-width="1px" stroke-opacity="1" font-family="&quot;Microsoft YaHei&quot;" my_stoke="none" my_stoke_width="1px" my_stoke_opacity="1" my_fill="rgb(110, 112, 121)" my_fill_opacity="1" my_font_size="12px" clip-path="none" content="90">90</text><text xml:space="preserve" fill="rgb(110, 112, 121)" fill-opacity="1" stroke="none" transform="matrix(1,0,0,1,63,317.5)" dominant-baseline="central" text-anchor="end" x="0" y="0" style="font: 12px &quot;Microsoft YaHei&quot;; fill: rgb(110, 112, 121);" transform_matrix="{&quot;a&quot;:1,&quot;b&quot;:0,&quot;c&quot;:0,&quot;d&quot;:1,&quot;e&quot;:63,&quot;f&quot;:317.5}" text_bbox="{&quot;x&quot;:-21.125,&quot;y&quot;:-8,&quot;w&quot;:21.125,&quot;h&quot;:16}" opacity="1" stroke-width="1px" stroke-opacity="1" font-family="&quot;Microsoft YaHei&quot;" my_stoke="none" my_stoke_width="1px" my_stoke_opacity="1" my_fill="rgb(110, 112, 121)" my_fill_opacity="1" my_font_size="12px" clip-path="none" content="120">120</text><text xml:space="preserve" fill="rgb(110, 112, 121)" fill-opacity="1" stroke="none" transform="matrix(1,0,0,1,63,271.5)" dominant-baseline="central" text-anchor="end" x="0" y="0" style="font: 12px &quot;Microsoft YaHei&quot;; fill: rgb(110, 112, 121);" transform_matrix="{&quot;a&quot;:1,&quot;b&quot;:0,&quot;c&quot;:0,&quot;d&quot;:1,&quot;e&quot;:63,&quot;f&quot;:271.5}" text_bbox="{&quot;x&quot;:-21.125,&quot;y&quot;:-8,&quot;w&quot;:21.125,&quot;h&quot;:16}" opacity="1" stroke-width="1px" stroke-opacity="1" font-family="&quot;Microsoft YaHei&quot;" my_stoke="none" my_stoke_width="1px" my_stoke_opacity="1" my_fill="rgb(110, 112, 121)" my_fill_opacity="1" my_font_size="12px" clip-path="none" content="150">150</text><path d="M -34.1804 70.2379 C -37.0461 73.6708 -41.5039 76.9685 -42.4836 80.5501 C -46.1821 93.9168 -50.5909 107.0132 -47.2108 121.0287 C -44.884 130.6922 -54.3384 141.0585 -55.9549 151.2356 C -57.5225 161.1829 -56.4448 171.3194 -55.0977 181.3073 C -54.8038 183.5779 -48.5825 185.5917 -43.6593 188.6056 C -45.1289 189.7139 -47.3333 191.606 -49.9786 193.3089 C -52.3299 194.8227 -54.7793 196.4851 -57.8409 197.4176 C -62.0293 198.7016 -66.9279 200.1613 -71.3367 199.9855 C -74.2269 199.8774 -78.7827 197.1068 -79.0766 195.3498 C -80.1543 188.9705 -79.0766 182.4831 -80.0808 176.0904 C -82.3832 161.3856 -85.7633 146.735 -88.0167 132.0167 C -89.2168 124.1237 -92.0091 115.7847 -88.8739 108.3107 C -80.5707 88.6323 -82.0158 69.3323 -87.9922 49.654 C -94.6299 27.8131 -90.5885 5.8641 -86.6695 -16.0173 C -84.4406 -28.4785 -75.3536 -39.48 -65.7768 -50.5761 C -62.5436 -54.3199 -61.172 -59.8206 -63.6458 -63.5779 C -70.455 -73.8496 -79.7624 -83.6212 -88.0657 -93.5956 C -89.4373 -93.4604 -90.8334 -93.3118 -92.205 -93.1766 C -99.1611 -84.324 -108.6645 -75.7823 -112.5344 -66.5243 C -119.0497 -50.9005 -134.8968 -38.615 -152.0666 -26.4782 C -155.2997 -24.1941 -158.2144 -21.7478 -161.815 -19.6664 C -173.6942 -12.8006 -169.7753 -4.8266 -167.4974 3.0664 C -166.8851 5.1343 -166.2237 7.2021 -165.6114 9.27 C -166.9096 9.5673 -168.2322 9.8512 -169.5303 10.1485 C -172.1511 7.3238 -174.7719 4.4855 -177.5641 1.4446 C -193.2154 5.3776 -184.1039 14.4194 -190.3741 21.9339 C -194.3176 17.4603 -197.1588 14.2572 -200 11.0405 C -200 10.5945 -200 10.135 -200 9.689 C -182.9527 -12.0438 -164.1663 -33.4251 -149.3479 -55.6038 C -136.9053 -74.2551 -129.0429 -93.8253 -119.1721 -112.9902 C -118.2904 -114.7066 -117.3351 -116.4096 -116.7718 -118.153 C -113.4407 -128.6275 -106.5091 -131.9793 -87.6738 -132.182 C -83.3629 -132.2361 -79.0521 -132.4658 -73.5656 -132.655 C -74.9128 -137.9936 -76.5293 -142.5213 -77.1171 -147.0895 C -78.6112 -158.8073 -75.2312 -169.6467 -59.0166 -178.4316 C -53.6771 -181.3239 -48.558 -184.9461 -46.1576 -188.7709 C -40.3037 -198.0695 -17.5984 -200.9348 -4.666 -199.7454 C 9.834 -198.4074 25.0934 -189.0277 25.1179 -180.6617 C 25.1424 -167.295 12.4058 -157.3341 -4.8619 -148.6573 C -10.177 -145.9947 -17.9658 -142.2104 -17.525 -139.2776 C -16.7657 -134.1688 -7.3602 -131.6279 2.2656 -131.1143 C 6.7234 -130.871 11.3281 -130.6142 15.7124 -130.9791 C 29.4777 -132.1279 37.2665 -128.0463 42.2877 -121.8833 C 55.661 -105.5026 68.1036 -88.8922 82.1627 -72.6873 C 85.8857 -68.4029 93.2337 -64.6997 100.3123 -61.7533 C 119.0251 -53.955 138.4483 -46.6702 157.749 -39.3043 C 163.3335 -37.1689 169.1139 -34.9388 175.4087 -33.7089 C 188.0962 -31.2221 195.2238 -26.0998 199.4611 -19.5718 C 200.5633 -17.8959 199.9265 -14.5576 197.9915 -13.9224 C 195.3952 -13.0709 190.2761 -13.5575 187.1165 -14.436 C 169.8487 -19.2204 155.6671 -26.4377 140.2364 -32.6818 C 131.6637 -36.1552 120.8866 -38.0879 110.7709 -40.2504 C 87.6492 -45.197 67.3443 -51.6303 55.661 -64.6997 C 49.7091 -71.3763 40.7446 -77.2285 31.927 -84.4457 C 28.9878 -69.6058 21.003 -56.5364 34.7192 -42.2912 C 50.9338 -25.4375 49.1458 -6.8133 37.6829 11.0811 C 31.5106 20.6905 21.7623 29.6512 16.4472 39.3823 C 11.769 47.9375 11.0587 57.155 8.5359 66.0751 C 6.7724 72.3328 6.4785 78.8877 2.7555 84.7804 C -3.3433 94.4575 -13.5815 103.4722 -11.5486 114.271 C -10.5199 119.7042 -8.389 125.0698 -6.405 131.5707 C -15.5655 130.9084 -24.7015 131.0301 -32.5394 129.3271 C -35.797 128.6108 -38.4912 123.7723 -37.6095 121.2044 C -33.0537 107.7701 -28.0816 94.5926 -37.438 81.0096 C -39.4465 78.0633 -35.4296 73.86 -34.1804 70.2379 C -31.1187 58.8174 -28.0326 47.4104 -25.0934 36.5846 C -27.1263 35.8007 -27.1753 35.7872 -27.2243 35.7601 C -27.2978 35.9764 -27.3958 36.1926 -27.4447 36.4089 C -29.6981 47.6807 -31.927 58.9661 -34.1804 70.2379 Z" fill="rgb(204, 204, 204)" fill-opacity="1" stroke="none" transform="matrix(0.266,0,0,0.575,163.8,386.5)" transform_matrix="{&quot;a&quot;:0.26600000262260437,&quot;b&quot;:0,&quot;c&quot;:0,&quot;d&quot;:0.574999988079071,&quot;e&quot;:163.8000030517578,&quot;f&quot;:386.5}" my_stoke="none" my_stoke_width="1px" my_stoke_opacity="1" my_fill="rgb(204, 204, 204)" my_fill_opacity="1" my_font_size="16px" opacity="1"/><path d="M -24.0081 -199.9866 C -19.3743 -198.3645 -14.472 -196.9704 -10.1517 -195.0802 C 3.1451 -189.2622 8.2713 -178.2296 0.929 -168.5508 C -6.2566 -159.0598 -14.3377 -149.743 -23.3813 -140.8418 C -28.2388 -136.0695 -26.1794 -133.6297 -18.9266 -132.3159 C -12.3454 -131.1229 -4.6897 -129.7555 1.5558 -130.6939 C 13.89 -132.5706 20.2026 -129.045 25.4183 -123.6024 C 35.9617 -112.5831 47.1767 -101.765 56.3994 -90.3569 C 67.8605 -76.1874 85.6343 -66.7366 109.273 -60.3422 C 132.2402 -54.1354 155.0283 -47.5668 177.0776 -40.2608 C 187.6434 -36.762 197.4257 -31.7216 200 -22.874 C 193.5307 -25.4612 188.3597 -27.901 182.5844 -29.6303 C 180.3683 -30.3006 176.7643 -29.3354 171.7724 -28.96 C 159.7739 -41.4941 134.1653 -41.5611 111.9145 -45.8777 C 91.6336 -49.7921 69.5618 -52.0308 55.7726 -63.2511 C 42.3863 -74.1498 29.7834 -85.3969 16.8224 -96.4832 C 15.7927 -97.368 14.6287 -98.1857 13.1065 -99.3788 C 5.9209 -88.9896 -2.0706 -79.2706 -7.3087 -69.0423 C -9.883 -64.0018 -8.7414 -57.8219 -6.7267 -52.5134 C -4.9135 -47.7008 0.0112 -43.2368 4.1748 -38.813 C 19.24 -22.7935 9.5696 -8.128 -2.3392 6.4303 C -3.1227 7.3955 -4.2644 8.3473 -5.6075 9.0712 C -21.5233 17.6239 -38.0212 25.828 -53.1535 34.8364 C -57.8096 37.6114 -60.0929 42.4775 -61.2569 46.593 C -65.5549 61.9288 -69.7857 77.3183 -72.2928 92.7881 C -73.4121 99.7053 -69.92 106.8504 -69.4275 113.9017 C -68.9126 121.5428 -68.5545 129.2777 -69.7633 136.8652 C -72.3376 153.0992 -76.0983 169.2661 -78.9636 185.4867 C -79.3665 187.7925 -77.1728 190.2188 -76.434 192.6318 C -74.4642 199.0128 -76.9265 200.9834 -86.9774 199.5624 C -97.1179 198.1415 -106.8107 195.6212 -118.921 193.1278 C -114.4888 190.9561 -112.5637 189.3341 -110.1013 188.9453 C -97.9686 187.015 -94.4317 181.9745 -95.7972 175.2316 C -98.9087 159.9628 -102.8485 144.761 -105.2885 129.4654 C -106.4749 122.012 -104.9303 114.4111 -104.7512 106.8773 C -104.6169 100.8582 -104.7289 94.8526 -104.7289 87.1444 C -110.9743 89.1955 -116.3691 90.1875 -119.9284 92.2787 C -129.4644 97.8956 -138.7095 103.7538 -147.0368 110.0007 C -150.5065 112.6148 -151.9391 116.3817 -153.2822 119.7733 C -154.3343 122.441 -151.9391 126.5028 -154.3567 127.8836 C -159.2143 130.6719 -165.997 132.9642 -172.5558 133.7552 C -180.6369 134.7337 -189.3223 133.9964 -200 133.9964 C -185.8078 122.3471 -173.3393 112.4003 -161.4528 102.2122 C -154.0881 95.8982 -147.5069 89.2491 -140.7689 82.667 C -135.9561 77.9751 -132.3521 72.747 -126.6663 68.4975 C -114.6231 59.4756 -111.5787 49.3545 -111.6235 38.1476 C -111.6235 24.2864 -110.549 10.3581 -108.5343 -3.4897 C -106.9898 -14.013 -103.7215 -24.496 -100.2518 -34.8718 C -98.5282 -40.0061 -93.7825 -44.7785 -91.9246 -49.9127 C -87.8281 -61.1733 -96.1777 -71.3614 -101.7293 -82.0188 C -106.9674 -74.4313 -114.2873 -67.1119 -116.9511 -59.2295 C -121.3386 -46.1994 -133.3818 -35.8504 -144.3953 -24.9518 C -154.2224 -15.2329 -164.0719 -5.4871 -172.9364 4.5536 C -178.8461 11.2563 -183.0097 18.5086 -188.2254 25.895 C -199.0151 18.8169 -198.6345 11.6987 -190.3296 3.146 C -161.4976 -26.5202 -140.6346 -58.1839 -127.405 -91.5634 C -124.2711 -99.4458 -124.6292 -107.7974 -122.4131 -115.8541 C -119.7269 -125.5998 -113.1233 -128.6697 -96.9165 -128.8439 C -77.5533 -129.0316 -65.8906 -135.2383 -64.5028 -146.9547 C -63.7193 -153.6708 -64.1446 -160.5076 -65.1296 -167.2237 C -66.9651 -179.6908 -59.5557 -189.4365 -42.3639 -196.3001 C -37.7078 -198.1635 -31.6638 -198.8069 -26.2466 -200 C -25.5079 -199.9866 -24.7468 -199.9866 -24.0081 -199.9866 Z" fill="rgb(204, 204, 204)" fill-opacity="1" stroke="none" transform="matrix(0.266,0,0,0.575,309.4,386.5)" transform_matrix="{&quot;a&quot;:0.26600000262260437,&quot;b&quot;:0,&quot;c&quot;:0,&quot;d&quot;:0.574999988079071,&quot;e&quot;:309.3999938964844,&quot;f&quot;:386.5}" my_stoke="none" my_stoke_width="1px" my_stoke_opacity="1" my_fill="rgb(204, 204, 204)" my_fill_opacity="1" my_font_size="16px" opacity="1"/><path d="M -200 -24.6927 C -191.682 -37.7925 -170.9989 -42.0022 -153.1332 -48.1352 C -131.8687 -55.4382 -110.2018 -62.3109 -88.9821 -69.6543 C -85.0243 -71.0261 -81.4914 -73.4874 -79.3001 -75.9352 C -64.8555 -91.9804 -50.5897 -108.0525 -36.883 -124.3129 C -32.1203 -129.9617 -25.8147 -132.3961 -15.1937 -132.5036 C -6.9652 -132.5844 1.6211 -133.741 9.3353 -135.5298 C 20.7166 -138.1524 20.18 -142.5235 11.795 -147.6478 C 0.3466 -154.6549 -12.5552 -161.2317 -17.7875 -171.2381 C -21.611 -178.5546 -16.0434 -192.2462 -6.8981 -196.4424 C 2.3143 -200.679 21.1638 -201.607 30.4209 -196.6038 C 38.001 -192.5152 44.8208 -186.826 47.8618 -181.0562 C 52.2444 -172.7713 55.263 -163.7064 54.5475 -155.1122 C 53.5413 -142.7253 68.7462 -132.6382 89.7199 -132.2885 C 107.4739 -132.006 110.4478 -131.2394 113.6229 -120.7085 C 125.3172 -82.0682 157.0015 -48.4445 185.6448 -14.0139 C 190.005 -8.7686 195.3044 -3.6443 197.9652 1.9103 C 200.2683 6.7656 199.441 12.1453 200 17.3099 C 198.3677 17.4982 196.7578 17.6865 195.1255 17.8748 C 194.0299 15.7633 192.9342 13.6382 191.8386 11.5267 C 191.3466 11.6477 190.8547 11.7822 190.3628 11.9033 C 188.4622 8.3795 186.5616 4.8557 184.2361 0.5385 C 182.2237 3.9412 180.7703 6.4562 179.2946 8.9578 C 178.3778 8.9175 177.4387 8.8771 176.5219 8.8502 C 176.097 5.1113 175.7393 1.3723 175.2697 -2.3666 C 173.7716 -14.5249 159.5058 -22.2718 148.3481 -31.2426 C 136.7209 -40.59 125.2949 -50.1929 116.239 -60.4683 C 108.2788 -69.4795 103.7397 -79.58 96.1149 -89.1022 C 89.3622 -76.0562 76.684 -64.0055 82.0281 -49.8298 C 83.4368 -46.0908 88.0206 -42.8226 90.6814 -39.2047 C 101.2578 -24.8945 103.1136 -9.4276 106.1546 5.7972 C 108.8602 19.4215 110.3583 33.2072 110.5372 46.9391 C 110.6714 56.3806 106.8031 65.8222 106.4006 75.2906 C 106.1323 81.558 108.2565 87.9465 110.2689 94.1602 C 112.9745 102.5257 116.5521 110.7837 119.839 119.0686 C 120.5098 120.7632 121.3819 122.4444 122.5893 124.0314 C 131.3545 135.5173 140.0078 147.03 149.1531 158.3948 C 152.0599 161.9858 156.3978 165.1734 160.4897 168.9258 C 155.5928 170.0824 152.3506 171.2929 148.9295 171.5753 C 141.0364 172.2074 133.501 172.4361 130.7507 166.0476 C 126.9272 157.1978 122.2986 148.4691 117.6254 139.7673 C 116.6415 137.9516 114.0477 136.4453 110.4478 135.2886 C 110.4478 157.0364 94.0131 179.4836 124.244 199.994 C 116.3061 199.994 110.9397 200.0075 105.5509 199.994 C 88.5796 199.9537 88.423 199.2678 88.2889 189.7186 C 88.0429 171.2391 86.746 152.8671 76.5051 134.9659 C 72.6592 128.2277 75.6554 120.158 74.2467 112.7877 C 72.7486 105.0005 69.5288 97.3477 67.3598 89.6008 C 61.7251 69.5477 40.5053 54.5515 22.6173 38.3315 C 10.677 27.4912 -0.1453 16.0591 -9.2459 4.2774 C -20.8284 -10.7322 -21.5887 -26.1318 -6.4733 -40.8724 C 1.7553 -48.8883 0.5031 -57.3749 -3.8571 -65.8212 C -9.4471 -76.6211 -15.5291 -87.3403 -21.857 -98.9203 C -23.8918 -96.9836 -25.7924 -95.0738 -27.8495 -93.2178 C -39.2308 -82.9558 -50.0978 -72.4249 -62.1946 -62.4454 C -74.1349 -52.5735 -93.9907 -51.0806 -111.5658 -47.7855 C -130.5271 -44.2214 -150.0251 -41.787 -163.0611 -31.6327 C -167.1754 -28.4182 -171.1331 -25.1231 -175.1579 -21.8684 C -176.03 -22.097 -176.902 -22.3256 -177.7517 -22.5543 C -175.9405 -25.7552 -174.1293 -28.9562 -172.3182 -32.1572 C -172.7654 -32.4531 -173.1902 -32.749 -173.6374 -33.0449 C -176.4101 -31.2964 -178.8026 -29.1714 -182.0672 -27.8937 C -187.7467 -25.6611 -193.9851 -23.9396 -200 -22.0163 C -200 -22.904 -200 -23.7916 -200 -24.6927 Z" fill="rgb(204, 204, 204)" fill-opacity="1" stroke="none" transform="matrix(0.266,0,0,0.575,455,386.5)" transform_matrix="{&quot;a&quot;:0.26600000262260437,&quot;b&quot;:0,&quot;c&quot;:0,&quot;d&quot;:0.574999988079071,&quot;e&quot;:455,&quot;f&quot;:386.5}" my_stoke="none" my_stoke_width="1px" my_stoke_opacity="1" my_fill="rgb(204, 204, 204)" my_fill_opacity="1" my_font_size="16px" opacity="1"/><path d="M 54.2027 68.1138 C 54.2027 75.2171 54.4447 82.3204 54.1468 89.4237 C 53.7745 97.9803 53.0856 106.5368 52.3037 115.0934 C 50.5536 134.2166 48.4311 153.3126 46.9603 172.4359 C 46.1969 182.337 56.1762 191.8714 69.3577 195.0088 C 71.6291 195.5521 73.8819 196.1497 76.1533 197.9425 C 72.802 198.4179 69.4694 199.1785 66.0996 199.3007 C 56.0459 199.7082 45.9363 200.2514 35.9012 199.8711 C 33.2202 199.776 29.0126 196.8152 28.5471 194.7915 C 27.5045 190.1737 28.8078 185.3114 28.3051 180.5985 C 26.8715 167.4649 26.8157 154.0325 22.7197 141.3199 C 19.052 129.9247 18.661 119.4939 22.6825 108.2481 C 25.0656 101.5795 25.1773 94.0144 23.6134 87.1691 C 19.7222 69.9066 14.3975 52.7935 9.3706 35.6669 C 8.7376 33.5345 6.9503 31.1441 4.6789 29.7859 C -2.2284 25.6978 -9.0426 21.1207 -16.9552 18.4044 C -42.2943 9.6984 -52.7576 -20.8879 -33.972 -39.5357 C -23.8997 -49.5319 -24.0673 -58.3465 -32.5943 -68.6008 C -40.6559 -78.2982 -47.1163 -88.6883 -54.3959 -98.9155 C -64.3007 -87.4252 -74.1124 -74.9164 -85.5438 -63.2632 C -91.3898 -57.3279 -99.2652 -51.8137 -107.8481 -48.0923 C -117.7157 -43.814 -129.054 -40.7717 -140.2992 -38.9109 C -157.1485 -36.1267 -166.9416 -28.6023 -173.1972 -17.6146 C -173.9978 -16.1886 -175.301 -14.9119 -176.474 -13.608 C -176.7532 -13.3092 -177.4421 -13.2141 -179.8252 -12.3313 C -179.2294 -15.3193 -178.6895 -17.4109 -178.4475 -19.5297 C -178.2799 -21.078 -178.5219 -22.6535 -178.5778 -24.229 C -181.1471 -23.8759 -184.5542 -24.1611 -186.1367 -23.061 C -189.8603 -20.4668 -192.653 -17.18 -195.9484 -14.2464 C -196.8793 -13.4179 -198.2198 -12.8474 -199.5789 -12.0597 C -201.4779 -19.1086 -196.9351 -26.0082 -186.3415 -30.9384 C -161.9333 -42.2385 -137.2273 -53.1583 -112.9308 -64.5398 C -108.9838 -66.387 -105.5023 -69.4293 -103.3053 -72.4852 C -91.9111 -88.3624 -80.8893 -104.3889 -69.9978 -120.4562 C -65.8832 -126.5409 -60.484 -130.3302 -50.4862 -131.0908 C -44.4726 -131.5526 -38.8127 -134.4455 -32.073 -136.5371 C -39.9484 -143.0971 -47.5445 -148.4076 -53.465 -154.5738 C -65.2688 -166.8382 -66.5535 -184.9699 -47.619 -195.2106 C -34.7726 -202.1645 -21.9448 -201.2817 -8.8005 -194.2735 C 2.6495 -188.1616 2.6495 -179.0618 5.256 -171.0078 C 7.7136 -163.402 6.7827 -154.9269 5.4422 -147.0087 C 4.0831 -138.9954 4.9023 -136.7816 15.3097 -135.1518 C 17.0971 -134.8665 19.0147 -134.9209 20.8579 -134.8937 C 40.2578 -134.5949 43.8511 -132.286 46.7555 -117.9708 C 50.1626 -101.1972 50.6653 -83.9754 59.7695 -68.0304 C 65.8761 -57.3279 72.0015 -46.5847 79.2625 -36.2761 C 86.0767 -26.6058 94.2499 -17.4381 102.0695 -8.1617 C 107.599 -1.5881 107.8597 8.3131 100.8593 14.9274 C 97.5081 12.1431 94.4361 9.6033 91.5317 7.1858 C 91.6062 7.1314 90.6939 7.9056 88.8135 9.5083 C 81.8131 -16.9491 55.0964 -34.7957 38.9732 -57.26 C 39.8296 -52.6014 39.1408 -47.3996 41.8404 -43.4065 C 49.1944 -32.5275 45.415 -20.7656 48.4683 -9.5742 C 51.5031 1.5901 51.9499 13.1618 55.5246 24.2174 C 57.1629 29.2834 63.5675 33.5074 67.7752 38.1387 C 69.8045 40.3798 71.8711 42.6072 73.6771 44.9432 C 82.6882 56.5965 90.6008 68.7794 100.8221 79.835 C 114.3573 94.4898 129.14 108.5741 144.3695 122.3189 C 155.894 132.7362 168.7218 142.42 181.4565 152.0903 C 186.9116 156.2191 193.6327 159.4516 200 163.2274 C 187.1164 168.7823 176.411 167.7501 163.0061 160.2801 C 159.6176 158.3922 156.0057 156.4908 152.0774 155.3635 C 144.4067 153.1497 143.7551 149.1973 145.1328 144.0906 C 145.6169 142.2842 145.4493 139.4456 143.9041 138.4134 C 129.8847 129.0827 116.2564 119.3037 101.0083 111.1546 C 86.5793 103.4402 78.1826 93.2266 71.0147 81.8994 C 68.3337 77.6619 64.8522 73.6688 61.4451 69.7029 C 60.5142 68.6164 58.5221 68.0188 57.014 67.1903 C 56.0831 67.4891 55.1336 67.8015 54.2027 68.1138 Z" fill="rgb(204, 204, 204)" fill-opacity="1" stroke="none" transform="matrix(0.266,0,0,0.575,600.6,386.5)" transform_matrix="{&quot;a&quot;:0.26600000262260437,&quot;b&quot;:0,&quot;c&quot;:0,&quot;d&quot;:0.574999988079071,&quot;e&quot;:600.5999755859375,&quot;f&quot;:386.5}" my_stoke="none" my_stoke_width="1px" my_stoke_opacity="1" my_fill="rgb(204, 204, 204)" my_fill_opacity="1" my_font_size="16px" opacity="1"/><path d="M -199.9443 -14.2266 C -193.1722 -19.89 -186.6413 -25.7309 -179.5723 -31.1759 C -167.4568 -40.4967 -154.8773 -49.4763 -142.7617 -58.7834 C -139.4963 -61.2944 -136.2494 -64.2149 -134.5981 -67.3946 C -127.5477 -81.0277 -121.629 -95.002 -114.2075 -108.526 C -109.1238 -117.7922 -103.7247 -127.113 -91.2566 -133.022 C -83.5196 -136.6794 -81.757 -142.9978 -83.297 -149.3436 C -83.8536 -151.6226 -87.0449 -153.5468 -89.5125 -156.1261 C -94.2808 -148.4975 -98.0843 -142.4383 -102.8897 -134.7552 C -111.777 -143.5301 -120.9982 -149.5347 -124.5605 -157.0131 C -127.8445 -163.8911 -126.7498 -172.625 -124.4863 -180.0216 C -122.13 -187.6911 -114.7641 -193.2727 -102.1662 -193.259 C -99.2903 -193.259 -96.4145 -195.5517 -93.5201 -196.739 C -76.2651 -203.8626 -55.5406 -198.8269 -45.7813 -186.381 C -38.2485 -176.7737 -36.8013 -166.4567 -35.4469 -156.0033 C -34.2409 -146.6961 -36.0406 -145.6453 -50.7723 -144.9357 C -50.7723 -142.2473 -50.7723 -139.5316 -50.7723 -136.8158 C -35.9108 -137.0478 -35.9108 -136.229 -28.4707 -126.5534 C -24.593 -121.5178 -16.7076 -118.2289 -11.0116 -113.8756 C -6.4103 -110.3547 2.0502 -109.5905 2.4213 -102.9581 C 2.9593 -93.6919 3.2747 -93.7056 -9.5088 -87.8375 C -9.5088 -66.3028 -9.5459 -44.8637 -9.4531 -23.4246 C -9.4531 -21.746 -8.9151 -19.9992 -8.1358 -18.4162 C -5.093 -12.1523 -2.0687 -5.8748 1.3823 0.2799 C 2.848 2.9001 4.8704 5.5067 7.4308 7.5946 C 21.4203 19.0033 36.0963 29.989 49.6405 41.657 C 59.0844 49.8042 66.4317 59.2614 75.9497 67.3676 C 94.0025 82.7339 112.0738 98.1957 131.7594 112.4021 C 148.1609 124.2338 166.7888 134.4143 184.6561 145.1271 C 189.3316 147.9383 194.8235 150.0126 200 152.4418 C 192.5414 157.2727 179.7022 157.9141 169.6832 154.6526 C 160.8516 151.7731 151.8159 149.1529 142.5947 147.0649 C 132.2047 144.7177 130.3678 141.9883 134.394 134.3461 C 135.266 132.6812 134.1714 129.1603 132.3345 128.205 C 118.679 121.1769 105.1348 113.835 90.4958 108.0351 C 74.7437 101.7985 62.0159 93.9789 54.1491 82.0516 C 46.1895 69.9878 32.6267 61.7861 18.0064 54.3622 C 12.0692 51.3463 6.0764 48.3576 0.1206 45.3553 C -0.8627 45.5873 -1.8275 45.8057 -2.8109 46.0377 C -3.015 61.2811 -2.5882 76.5519 -3.6458 91.7681 C -4.1839 99.5741 -7.9688 107.2299 -9.2119 115.0359 C -12.329 134.5645 -14.8523 154.134 -17.5797 173.6898 C -18.2105 178.2479 -15.8356 181.5504 -9.9355 183.4883 C 1.3637 187.2138 12.5887 191.0759 24.593 196.1252 C 17.2457 196.6165 9.8799 197.1078 2.5326 197.599 C -6.5959 198.2132 -15.8542 198.3223 -24.8527 199.5369 C -37.7661 201.2837 -42.8127 198.1858 -40.9759 188.5921 C -37.7661 171.8339 -39.7328 155.3485 -43.5734 138.6994 C -45.5773 130.0201 -47.3213 119.5666 -42.6643 112.1291 C -32.2371 95.4937 -38.2114 80.0864 -42.6458 64.0924 C -46.4493 50.391 -49.6962 36.6077 -53.5925 22.92 C -54.1862 20.8457 -56.7837 18.9488 -58.9174 17.2838 C -65.5967 12.0571 -73.816 7.6083 -79.0482 1.7128 C -91.3122 -12.125 -83.8722 -25.0349 -72.1091 -36.6756 C -62.3313 -46.3648 -59.3998 -55.9176 -68.12 -66.6303 C -75.1519 -75.2824 -82.091 -83.9618 -89.2342 -92.5593 C -90.0877 -93.5828 -91.8503 -94.1969 -94.3736 -95.698 C -100.4407 -85.7632 -107.3241 -76.729 -111.5172 -67.067 C -118.1595 -51.7826 -133.9858 -43.7992 -151.4634 -36.6347 C -154.9144 -35.2154 -158.0871 -33.3049 -161.7236 -32.254 C -169.6832 -29.975 -173.0229 -26.9591 -170.815 -19.9583 C -169.5348 -15.9188 -173.2455 -11.0196 -174.7113 -6.5025 C -175.6389 -6.4616 -176.5481 -6.4206 -177.4758 -6.3934 C -177.8097 -9.9006 -178.1437 -13.4078 -178.7003 -19.235 C -185.1013 -13.2577 -190.0367 -8.6587 -196.011 -3.0772 C -197.9962 -5.9157 -198.9981 -7.3486 -200 -8.7815 C -199.9443 -10.5829 -199.9443 -12.4116 -199.9443 -14.2266 Z" fill="rgb(204, 204, 204)" fill-opacity="1" stroke="none" transform="matrix(0.266,0,0,0.575,746.2,386.5)" transform_matrix="{&quot;a&quot;:0.26600000262260437,&quot;b&quot;:0,&quot;c&quot;:0,&quot;d&quot;:0.574999988079071,&quot;e&quot;:746.2000122070312,&quot;f&quot;:386.5}" my_stoke="none" my_stoke_width="1px" my_stoke_opacity="1" my_fill="rgb(204, 204, 204)" my_fill_opacity="1" my_font_size="16px" opacity="1"/><path d="M 110.656 501.5 L 216.944 501.5 L 216.944 271.5 L 110.656 271.5 L 110.656 501.5 Z" fill="none" fill-opacity="1" stroke="none" stroke-width="0" paint-order="fill" stroke-opacity="1" stroke-dasharray="" stroke-linecap="butt" stroke-miterlimit="10" transform_matrix="{&quot;a&quot;:1,&quot;b&quot;:0,&quot;c&quot;:0,&quot;d&quot;:1,&quot;e&quot;:0,&quot;f&quot;:0}" my_stoke="none" my_stoke_width="0px" my_stoke_opacity="1" my_fill="none" my_fill_opacity="1" my_font_size="16px" opacity="1"/><path d="M 256.256 501.5 L 362.544 501.5 L 362.544 271.5 L 256.256 271.5 L 256.256 501.5 Z" fill="none" fill-opacity="1" stroke="none" stroke-width="0" paint-order="fill" stroke-opacity="1" stroke-dasharray="" stroke-linecap="butt" stroke-miterlimit="10" transform_matrix="{&quot;a&quot;:1,&quot;b&quot;:0,&quot;c&quot;:0,&quot;d&quot;:1,&quot;e&quot;:0,&quot;f&quot;:0}" my_stoke="none" my_stoke_width="0px" my_stoke_opacity="1" my_fill="none" my_fill_opacity="1" my_font_size="16px" opacity="1"/><path d="M 401.856 501.5 L 508.144 501.5 L 508.144 271.5 L 401.856 271.5 L 401.856 501.5 Z" fill="none" fill-opacity="1" stroke="none" stroke-width="0" paint-order="fill" stroke-opacity="1" stroke-dasharray="" stroke-linecap="butt" stroke-miterlimit="10" transform_matrix="{&quot;a&quot;:1,&quot;b&quot;:0,&quot;c&quot;:0,&quot;d&quot;:1,&quot;e&quot;:0,&quot;f&quot;:0}" my_stoke="none" my_stoke_width="0px" my_stoke_opacity="1" my_fill="none" my_fill_opacity="1" my_font_size="16px" opacity="1"/><path d="M 547.456 501.5 L 653.744 501.5 L 653.744 271.5 L 547.456 271.5 L 547.456 501.5 Z" fill="none" fill-opacity="1" stroke="none" stroke-width="0" paint-order="fill" stroke-opacity="1" stroke-dasharray="" stroke-linecap="butt" stroke-miterlimit="10" transform_matrix="{&quot;a&quot;:1,&quot;b&quot;:0,&quot;c&quot;:0,&quot;d&quot;:1,&quot;e&quot;:0,&quot;f&quot;:0}" my_stoke="none" my_stoke_width="0px" my_stoke_opacity="1" my_fill="none" my_fill_opacity="1" my_font_size="16px" opacity="1"/><path d="M 693.056 501.5 L 799.344 501.5 L 799.344 271.5 L 693.056 271.5 L 693.056 501.5 Z" fill="none" fill-opacity="1" stroke="none" stroke-width="0" paint-order="fill" stroke-opacity="1" stroke-dasharray="" stroke-linecap="butt" stroke-miterlimit="10" transform_matrix="{&quot;a&quot;:1,&quot;b&quot;:0,&quot;c&quot;:0,&quot;d&quot;:1,&quot;e&quot;:0,&quot;f&quot;:0}" my_stoke="none" my_stoke_width="0px" my_stoke_opacity="1" my_fill="none" my_fill_opacity="1" my_font_size="16px" opacity="1"/><path d="M -5 -5 L 130.5625 -5 L 130.5625 19 L -5 19 L -5 -5 Z" fill="rgb(0, 0, 0)" fill-opacity="0" stroke="#ccc" stroke-width="0" paint-order="fill" stroke-opacity="1" stroke-dasharray="" stroke-linecap="butt" stroke-miterlimit="10" transform="matrix(1,0,0,1,392.2188,5)" transform_matrix="{&quot;a&quot;:1,&quot;b&quot;:0,&quot;c&quot;:0,&quot;d&quot;:1,&quot;e&quot;:392.21881103515625,&quot;f&quot;:5}" my_stoke="rgb(204, 204, 204)" my_stoke_width="0px" my_stoke_opacity="1" my_fill="rgb(0, 0, 0)" my_fill_opacity="0" my_font_size="16px" opacity="1"/><path d="M 19.5 7 A 7 7 0 1 1 19.5 6.9993" fill="rgb(84, 112, 198)" fill-opacity="1" stroke="none" transform="matrix(1,0,0,1,386.7188,5)" transform_matrix="{&quot;a&quot;:1,&quot;b&quot;:0,&quot;c&quot;:0,&quot;d&quot;:1,&quot;e&quot;:386.71881103515625,&quot;f&quot;:5}" my_stoke="none" my_stoke_width="1px" my_stoke_opacity="1" my_fill="rgb(84, 112, 198)" my_fill_opacity="1" my_font_size="16px" opacity="1"/><text xml:space="preserve" fill="rgb(51, 51, 51)" fill-opacity="1" stroke="none" transform="matrix(1,0,0,1,386.7188,5)" dominant-baseline="central" text-anchor="start" x="30" y="7" style="font: 12px &quot;Microsoft YaHei&quot;; fill: rgb(51, 51, 51);" transform_matrix="{&quot;a&quot;:1,&quot;b&quot;:0,&quot;c&quot;:0,&quot;d&quot;:1,&quot;e&quot;:386.71881103515625,&quot;f&quot;:5}" text_bbox="{&quot;x&quot;:29,&quot;y&quot;:-1,&quot;w&quot;:35.296875,&quot;h&quot;:16}" opacity="1" stroke-width="1px" stroke-opacity="1" font-family="&quot;Microsoft YaHei&quot;" my_stoke="none" my_stoke_width="1px" my_stoke_opacity="1" my_fill="rgb(51, 51, 51)" my_fill_opacity="1" my_font_size="12px" clip-path="none" content="typeA">typeA</text><path d="M 19.5 7 A 7 7 0 1 1 19.5 6.9993" fill="rgb(204, 204, 204)" fill-opacity="1" stroke="#ccc" stroke-width="0" paint-order="fill" stroke-opacity="1" stroke-dasharray="" transform="matrix(1,0,0,1,454.957,5)" transform_matrix="{&quot;a&quot;:1,&quot;b&quot;:0,&quot;c&quot;:0,&quot;d&quot;:1,&quot;e&quot;:454.9570007324219,&quot;f&quot;:5}" my_stoke="rgb(204, 204, 204)" my_stoke_width="0px" my_stoke_opacity="1" my_fill="rgb(204, 204, 204)" my_fill_opacity="1" my_font_size="16px" opacity="1"/><text xml:space="preserve" fill="rgb(204, 204, 204)" fill-opacity="1" stroke="none" transform="matrix(1,0,0,1,454.957,5)" dominant-baseline="central" text-anchor="start" x="30" y="7" style="font: 12px &quot;Microsoft YaHei&quot;; fill: rgb(204, 204, 204);" transform_matrix="{&quot;a&quot;:1,&quot;b&quot;:0,&quot;c&quot;:0,&quot;d&quot;:1,&quot;e&quot;:454.9570007324219,&quot;f&quot;:5}" text_bbox="{&quot;x&quot;:29,&quot;y&quot;:-1,&quot;w&quot;:34.296875,&quot;h&quot;:16}" opacity="1" stroke-width="1px" stroke-opacity="1" font-family="&quot;Microsoft YaHei&quot;" my_stoke="none" my_stoke_width="1px" my_stoke_opacity="1" my_fill="rgb(204, 204, 204)" my_fill_opacity="1" my_font_size="12px" clip-path="none" content="typeB">typeB</text><g clip-path="url(#zr2429-clip-0)"><path d="M -34.1804 70.2379 C -37.0461 73.6708 -41.5039 76.9685 -42.4836 80.5501 C -46.1821 93.9168 -50.5909 107.0132 -47.2108 121.0287 C -44.884 130.6922 -54.3384 141.0585 -55.9549 151.2356 C -57.5225 161.1829 -56.4448 171.3194 -55.0977 181.3073 C -54.8038 183.5779 -48.5825 185.5917 -43.6593 188.6056 C -45.1289 189.7139 -47.3333 191.606 -49.9786 193.3089 C -52.3299 194.8227 -54.7793 196.4851 -57.8409 197.4176 C -62.0293 198.7016 -66.9279 200.1613 -71.3367 199.9855 C -74.2269 199.8774 -78.7827 197.1068 -79.0766 195.3498 C -80.1543 188.9705 -79.0766 182.4831 -80.0808 176.0904 C -82.3832 161.3856 -85.7633 146.735 -88.0167 132.0167 C -89.2168 124.1237 -92.0091 115.7847 -88.8739 108.3107 C -80.5707 88.6323 -82.0158 69.3323 -87.9922 49.654 C -94.6299 27.8131 -90.5885 5.8641 -86.6695 -16.0173 C -84.4406 -28.4785 -75.3536 -39.48 -65.7768 -50.5761 C -62.5436 -54.3199 -61.172 -59.8206 -63.6458 -63.5779 C -70.455 -73.8496 -79.7624 -83.6212 -88.0657 -93.5956 C -89.4373 -93.4604 -90.8334 -93.3118 -92.205 -93.1766 C -99.1611 -84.324 -108.6645 -75.7823 -112.5344 -66.5243 C -119.0497 -50.9005 -134.8968 -38.615 -152.0666 -26.4782 C -155.2997 -24.1941 -158.2144 -21.7478 -161.815 -19.6664 C -173.6942 -12.8006 -169.7753 -4.8266 -167.4974 3.0664 C -166.8851 5.1343 -166.2237 7.2021 -165.6114 9.27 C -166.9096 9.5673 -168.2322 9.8512 -169.5303 10.1485 C -172.1511 7.3238 -174.7719 4.4855 -177.5641 1.4446 C -193.2154 5.3776 -184.1039 14.4194 -190.3741 21.9339 C -194.3176 17.4603 -197.1588 14.2572 -200 11.0405 C -200 10.5945 -200 10.135 -200 9.689 C -182.9527 -12.0438 -164.1663 -33.4251 -149.3479 -55.6038 C -136.9053 -74.2551 -129.0429 -93.8253 -119.1721 -112.9902 C -118.2904 -114.7066 -117.3351 -116.4096 -116.7718 -118.153 C -113.4407 -128.6275 -106.5091 -131.9793 -87.6738 -132.182 C -83.3629 -132.2361 -79.0521 -132.4658 -73.5656 -132.655 C -74.9128 -137.9936 -76.5293 -142.5213 -77.1171 -147.0895 C -78.6112 -158.8073 -75.2312 -169.6467 -59.0166 -178.4316 C -53.6771 -181.3239 -48.558 -184.9461 -46.1576 -188.7709 C -40.3037 -198.0695 -17.5984 -200.9348 -4.666 -199.7454 C 9.834 -198.4074 25.0934 -189.0277 25.1179 -180.6617 C 25.1424 -167.295 12.4058 -157.3341 -4.8619 -148.6573 C -10.177 -145.9947 -17.9658 -142.2104 -17.525 -139.2776 C -16.7657 -134.1688 -7.3602 -131.6279 2.2656 -131.1143 C 6.7234 -130.871 11.3281 -130.6142 15.7124 -130.9791 C 29.4777 -132.1279 37.2665 -128.0463 42.2877 -121.8833 C 55.661 -105.5026 68.1036 -88.8922 82.1627 -72.6873 C 85.8857 -68.4029 93.2337 -64.6997 100.3123 -61.7533 C 119.0251 -53.955 138.4483 -46.6702 157.749 -39.3043 C 163.3335 -37.1689 169.1139 -34.9388 175.4087 -33.7089 C 188.0962 -31.2221 195.2238 -26.0998 199.4611 -19.5718 C 200.5633 -17.8959 199.9265 -14.5576 197.9915 -13.9224 C 195.3952 -13.0709 190.2761 -13.5575 187.1165 -14.436 C 169.8487 -19.2204 155.6671 -26.4377 140.2364 -32.6818 C 131.6637 -36.1552 120.8866 -38.0879 110.7709 -40.2504 C 87.6492 -45.197 67.3443 -51.6303 55.661 -64.6997 C 49.7091 -71.3763 40.7446 -77.2285 31.927 -84.4457 C 28.9878 -69.6058 21.003 -56.5364 34.7192 -42.2912 C 50.9338 -25.4375 49.1458 -6.8133 37.6829 11.0811 C 31.5106 20.6905 21.7623 29.6512 16.4472 39.3823 C 11.769 47.9375 11.0587 57.155 8.5359 66.0751 C 6.7724 72.3328 6.4785 78.8877 2.7555 84.7804 C -3.3433 94.4575 -13.5815 103.4722 -11.5486 114.271 C -10.5199 119.7042 -8.389 125.0698 -6.405 131.5707 C -15.5655 130.9084 -24.7015 131.0301 -32.5394 129.3271 C -35.797 128.6108 -38.4912 123.7723 -37.6095 121.2044 C -33.0537 107.7701 -28.0816 94.5926 -37.438 81.0096 C -39.4465 78.0633 -35.4296 73.86 -34.1804 70.2379 C -31.1187 58.8174 -28.0326 47.4104 -25.0934 36.5846 C -27.1263 35.8007 -27.1753 35.7872 -27.2243 35.7601 C -27.2978 35.9764 -27.3958 36.1926 -27.4447 36.4089 C -29.6981 47.6807 -31.927 58.9661 -34.1804 70.2379 Z" fill="rgb(84, 112, 198)" fill-opacity="1" stroke="none" transform="matrix(0.266,0,0,0.575,163.8,386.5)" transform_matrix="{&quot;a&quot;:0.26600000262260437,&quot;b&quot;:0,&quot;c&quot;:0,&quot;d&quot;:0.574999988079071,&quot;e&quot;:163.8000030517578,&quot;f&quot;:386.5}" my_stoke="none" my_stoke_width="1px" my_stoke_opacity="1" my_fill="rgb(84, 112, 198)" my_fill_opacity="1" my_font_size="16px" opacity="1"/></g><g clip-path="url(#zr2429-clip-1)"><path d="M -24.0081 -199.9866 C -19.3743 -198.3645 -14.472 -196.9704 -10.1517 -195.0802 C 3.1451 -189.2622 8.2713 -178.2296 0.929 -168.5508 C -6.2566 -159.0598 -14.3377 -149.743 -23.3813 -140.8418 C -28.2388 -136.0695 -26.1794 -133.6297 -18.9266 -132.3159 C -12.3454 -131.1229 -4.6897 -129.7555 1.5558 -130.6939 C 13.89 -132.5706 20.2026 -129.045 25.4183 -123.6024 C 35.9617 -112.5831 47.1767 -101.765 56.3994 -90.3569 C 67.8605 -76.1874 85.6343 -66.7366 109.273 -60.3422 C 132.2402 -54.1354 155.0283 -47.5668 177.0776 -40.2608 C 187.6434 -36.762 197.4257 -31.7216 200 -22.874 C 193.5307 -25.4612 188.3597 -27.901 182.5844 -29.6303 C 180.3683 -30.3006 176.7643 -29.3354 171.7724 -28.96 C 159.7739 -41.4941 134.1653 -41.5611 111.9145 -45.8777 C 91.6336 -49.7921 69.5618 -52.0308 55.7726 -63.2511 C 42.3863 -74.1498 29.7834 -85.3969 16.8224 -96.4832 C 15.7927 -97.368 14.6287 -98.1857 13.1065 -99.3788 C 5.9209 -88.9896 -2.0706 -79.2706 -7.3087 -69.0423 C -9.883 -64.0018 -8.7414 -57.8219 -6.7267 -52.5134 C -4.9135 -47.7008 0.0112 -43.2368 4.1748 -38.813 C 19.24 -22.7935 9.5696 -8.128 -2.3392 6.4303 C -3.1227 7.3955 -4.2644 8.3473 -5.6075 9.0712 C -21.5233 17.6239 -38.0212 25.828 -53.1535 34.8364 C -57.8096 37.6114 -60.0929 42.4775 -61.2569 46.593 C -65.5549 61.9288 -69.7857 77.3183 -72.2928 92.7881 C -73.4121 99.7053 -69.92 106.8504 -69.4275 113.9017 C -68.9126 121.5428 -68.5545 129.2777 -69.7633 136.8652 C -72.3376 153.0992 -76.0983 169.2661 -78.9636 185.4867 C -79.3665 187.7925 -77.1728 190.2188 -76.434 192.6318 C -74.4642 199.0128 -76.9265 200.9834 -86.9774 199.5624 C -97.1179 198.1415 -106.8107 195.6212 -118.921 193.1278 C -114.4888 190.9561 -112.5637 189.3341 -110.1013 188.9453 C -97.9686 187.015 -94.4317 181.9745 -95.7972 175.2316 C -98.9087 159.9628 -102.8485 144.761 -105.2885 129.4654 C -106.4749 122.012 -104.9303 114.4111 -104.7512 106.8773 C -104.6169 100.8582 -104.7289 94.8526 -104.7289 87.1444 C -110.9743 89.1955 -116.3691 90.1875 -119.9284 92.2787 C -129.4644 97.8956 -138.7095 103.7538 -147.0368 110.0007 C -150.5065 112.6148 -151.9391 116.3817 -153.2822 119.7733 C -154.3343 122.441 -151.9391 126.5028 -154.3567 127.8836 C -159.2143 130.6719 -165.997 132.9642 -172.5558 133.7552 C -180.6369 134.7337 -189.3223 133.9964 -200 133.9964 C -185.8078 122.3471 -173.3393 112.4003 -161.4528 102.2122 C -154.0881 95.8982 -147.5069 89.2491 -140.7689 82.667 C -135.9561 77.9751 -132.3521 72.747 -126.6663 68.4975 C -114.6231 59.4756 -111.5787 49.3545 -111.6235 38.1476 C -111.6235 24.2864 -110.549 10.3581 -108.5343 -3.4897 C -106.9898 -14.013 -103.7215 -24.496 -100.2518 -34.8718 C -98.5282 -40.0061 -93.7825 -44.7785 -91.9246 -49.9127 C -87.8281 -61.1733 -96.1777 -71.3614 -101.7293 -82.0188 C -106.9674 -74.4313 -114.2873 -67.1119 -116.9511 -59.2295 C -121.3386 -46.1994 -133.3818 -35.8504 -144.3953 -24.9518 C -154.2224 -15.2329 -164.0719 -5.4871 -172.9364 4.5536 C -178.8461 11.2563 -183.0097 18.5086 -188.2254 25.895 C -199.0151 18.8169 -198.6345 11.6987 -190.3296 3.146 C -161.4976 -26.5202 -140.6346 -58.1839 -127.405 -91.5634 C -124.2711 -99.4458 -124.6292 -107.7974 -122.4131 -115.8541 C -119.7269 -125.5998 -113.1233 -128.6697 -96.9165 -128.8439 C -77.5533 -129.0316 -65.8906 -135.2383 -64.5028 -146.9547 C -63.7193 -153.6708 -64.1446 -160.5076 -65.1296 -167.2237 C -66.9651 -179.6908 -59.5557 -189.4365 -42.3639 -196.3001 C -37.7078 -198.1635 -31.6638 -198.8069 -26.2466 -200 C -25.5079 -199.9866 -24.7468 -199.9866 -24.0081 -199.9866 Z" fill="rgb(84, 112, 198)" fill-opacity="1" stroke="none" transform="matrix(0.266,0,0,0.575,309.4,386.5)" transform_matrix="{&quot;a&quot;:0.26600000262260437,&quot;b&quot;:0,&quot;c&quot;:0,&quot;d&quot;:0.574999988079071,&quot;e&quot;:309.3999938964844,&quot;f&quot;:386.5}" my_stoke="none" my_stoke_width="1px" my_stoke_opacity="1" my_fill="rgb(84, 112, 198)" my_fill_opacity="1" my_font_size="16px" opacity="1"/></g><g clip-path="url(#zr2429-clip-2)"><path d="M -200 -24.6927 C -191.682 -37.7925 -170.9989 -42.0022 -153.1332 -48.1352 C -131.8687 -55.4382 -110.2018 -62.3109 -88.9821 -69.6543 C -85.0243 -71.0261 -81.4914 -73.4874 -79.3001 -75.9352 C -64.8555 -91.9804 -50.5897 -108.0525 -36.883 -124.3129 C -32.1203 -129.9617 -25.8147 -132.3961 -15.1937 -132.5036 C -6.9652 -132.5844 1.6211 -133.741 9.3353 -135.5298 C 20.7166 -138.1524 20.18 -142.5235 11.795 -147.6478 C 0.3466 -154.6549 -12.5552 -161.2317 -17.7875 -171.2381 C -21.611 -178.5546 -16.0434 -192.2462 -6.8981 -196.4424 C 2.3143 -200.679 21.1638 -201.607 30.4209 -196.6038 C 38.001 -192.5152 44.8208 -186.826 47.8618 -181.0562 C 52.2444 -172.7713 55.263 -163.7064 54.5475 -155.1122 C 53.5413 -142.7253 68.7462 -132.6382 89.7199 -132.2885 C 107.4739 -132.006 110.4478 -131.2394 113.6229 -120.7085 C 125.3172 -82.0682 157.0015 -48.4445 185.6448 -14.0139 C 190.005 -8.7686 195.3044 -3.6443 197.9652 1.9103 C 200.2683 6.7656 199.441 12.1453 200 17.3099 C 198.3677 17.4982 196.7578 17.6865 195.1255 17.8748 C 194.0299 15.7633 192.9342 13.6382 191.8386 11.5267 C 191.3466 11.6477 190.8547 11.7822 190.3628 11.9033 C 188.4622 8.3795 186.5616 4.8557 184.2361 0.5385 C 182.2237 3.9412 180.7703 6.4562 179.2946 8.9578 C 178.3778 8.9175 177.4387 8.8771 176.5219 8.8502 C 176.097 5.1113 175.7393 1.3723 175.2697 -2.3666 C 173.7716 -14.5249 159.5058 -22.2718 148.3481 -31.2426 C 136.7209 -40.59 125.2949 -50.1929 116.239 -60.4683 C 108.2788 -69.4795 103.7397 -79.58 96.1149 -89.1022 C 89.3622 -76.0562 76.684 -64.0055 82.0281 -49.8298 C 83.4368 -46.0908 88.0206 -42.8226 90.6814 -39.2047 C 101.2578 -24.8945 103.1136 -9.4276 106.1546 5.7972 C 108.8602 19.4215 110.3583 33.2072 110.5372 46.9391 C 110.6714 56.3806 106.8031 65.8222 106.4006 75.2906 C 106.1323 81.558 108.2565 87.9465 110.2689 94.1602 C 112.9745 102.5257 116.5521 110.7837 119.839 119.0686 C 120.5098 120.7632 121.3819 122.4444 122.5893 124.0314 C 131.3545 135.5173 140.0078 147.03 149.1531 158.3948 C 152.0599 161.9858 156.3978 165.1734 160.4897 168.9258 C 155.5928 170.0824 152.3506 171.2929 148.9295 171.5753 C 141.0364 172.2074 133.501 172.4361 130.7507 166.0476 C 126.9272 157.1978 122.2986 148.4691 117.6254 139.7673 C 116.6415 137.9516 114.0477 136.4453 110.4478 135.2886 C 110.4478 157.0364 94.0131 179.4836 124.244 199.994 C 116.3061 199.994 110.9397 200.0075 105.5509 199.994 C 88.5796 199.9537 88.423 199.2678 88.2889 189.7186 C 88.0429 171.2391 86.746 152.8671 76.5051 134.9659 C 72.6592 128.2277 75.6554 120.158 74.2467 112.7877 C 72.7486 105.0005 69.5288 97.3477 67.3598 89.6008 C 61.7251 69.5477 40.5053 54.5515 22.6173 38.3315 C 10.677 27.4912 -0.1453 16.0591 -9.2459 4.2774 C -20.8284 -10.7322 -21.5887 -26.1318 -6.4733 -40.8724 C 1.7553 -48.8883 0.5031 -57.3749 -3.8571 -65.8212 C -9.4471 -76.6211 -15.5291 -87.3403 -21.857 -98.9203 C -23.8918 -96.9836 -25.7924 -95.0738 -27.8495 -93.2178 C -39.2308 -82.9558 -50.0978 -72.4249 -62.1946 -62.4454 C -74.1349 -52.5735 -93.9907 -51.0806 -111.5658 -47.7855 C -130.5271 -44.2214 -150.0251 -41.787 -163.0611 -31.6327 C -167.1754 -28.4182 -171.1331 -25.1231 -175.1579 -21.8684 C -176.03 -22.097 -176.902 -22.3256 -177.7517 -22.5543 C -175.9405 -25.7552 -174.1293 -28.9562 -172.3182 -32.1572 C -172.7654 -32.4531 -173.1902 -32.749 -173.6374 -33.0449 C -176.4101 -31.2964 -178.8026 -29.1714 -182.0672 -27.8937 C -187.7467 -25.6611 -193.9851 -23.9396 -200 -22.0163 C -200 -22.904 -200 -23.7916 -200 -24.6927 Z" fill="rgb(84, 112, 198)" fill-opacity="1" stroke="none" transform="matrix(0.266,0,0,0.575,455,386.5)" transform_matrix="{&quot;a&quot;:0.26600000262260437,&quot;b&quot;:0,&quot;c&quot;:0,&quot;d&quot;:0.574999988079071,&quot;e&quot;:455,&quot;f&quot;:386.5}" my_stoke="none" my_stoke_width="1px" my_stoke_opacity="1" my_fill="rgb(84, 112, 198)" my_fill_opacity="1" my_font_size="16px" opacity="1"/></g><g clip-path="url(#zr2429-clip-3)"><path d="M 54.2027 68.1138 C 54.2027 75.2171 54.4447 82.3204 54.1468 89.4237 C 53.7745 97.9803 53.0856 106.5368 52.3037 115.0934 C 50.5536 134.2166 48.4311 153.3126 46.9603 172.4359 C 46.1969 182.337 56.1762 191.8714 69.3577 195.0088 C 71.6291 195.5521 73.8819 196.1497 76.1533 197.9425 C 72.802 198.4179 69.4694 199.1785 66.0996 199.3007 C 56.0459 199.7082 45.9363 200.2514 35.9012 199.8711 C 33.2202 199.776 29.0126 196.8152 28.5471 194.7915 C 27.5045 190.1737 28.8078 185.3114 28.3051 180.5985 C 26.8715 167.4649 26.8157 154.0325 22.7197 141.3199 C 19.052 129.9247 18.661 119.4939 22.6825 108.2481 C 25.0656 101.5795 25.1773 94.0144 23.6134 87.1691 C 19.7222 69.9066 14.3975 52.7935 9.3706 35.6669 C 8.7376 33.5345 6.9503 31.1441 4.6789 29.7859 C -2.2284 25.6978 -9.0426 21.1207 -16.9552 18.4044 C -42.2943 9.6984 -52.7576 -20.8879 -33.972 -39.5357 C -23.8997 -49.5319 -24.0673 -58.3465 -32.5943 -68.6008 C -40.6559 -78.2982 -47.1163 -88.6883 -54.3959 -98.9155 C -64.3007 -87.4252 -74.1124 -74.9164 -85.5438 -63.2632 C -91.3898 -57.3279 -99.2652 -51.8137 -107.8481 -48.0923 C -117.7157 -43.814 -129.054 -40.7717 -140.2992 -38.9109 C -157.1485 -36.1267 -166.9416 -28.6023 -173.1972 -17.6146 C -173.9978 -16.1886 -175.301 -14.9119 -176.474 -13.608 C -176.7532 -13.3092 -177.4421 -13.2141 -179.8252 -12.3313 C -179.2294 -15.3193 -178.6895 -17.4109 -178.4475 -19.5297 C -178.2799 -21.078 -178.5219 -22.6535 -178.5778 -24.229 C -181.1471 -23.8759 -184.5542 -24.1611 -186.1367 -23.061 C -189.8603 -20.4668 -192.653 -17.18 -195.9484 -14.2464 C -196.8793 -13.4179 -198.2198 -12.8474 -199.5789 -12.0597 C -201.4779 -19.1086 -196.9351 -26.0082 -186.3415 -30.9384 C -161.9333 -42.2385 -137.2273 -53.1583 -112.9308 -64.5398 C -108.9838 -66.387 -105.5023 -69.4293 -103.3053 -72.4852 C -91.9111 -88.3624 -80.8893 -104.3889 -69.9978 -120.4562 C -65.8832 -126.5409 -60.484 -130.3302 -50.4862 -131.0908 C -44.4726 -131.5526 -38.8127 -134.4455 -32.073 -136.5371 C -39.9484 -143.0971 -47.5445 -148.4076 -53.465 -154.5738 C -65.2688 -166.8382 -66.5535 -184.9699 -47.619 -195.2106 C -34.7726 -202.1645 -21.9448 -201.2817 -8.8005 -194.2735 C 2.6495 -188.1616 2.6495 -179.0618 5.256 -171.0078 C 7.7136 -163.402 6.7827 -154.9269 5.4422 -147.0087 C 4.0831 -138.9954 4.9023 -136.7816 15.3097 -135.1518 C 17.0971 -134.8665 19.0147 -134.9209 20.8579 -134.8937 C 40.2578 -134.5949 43.8511 -132.286 46.7555 -117.9708 C 50.1626 -101.1972 50.6653 -83.9754 59.7695 -68.0304 C 65.8761 -57.3279 72.0015 -46.5847 79.2625 -36.2761 C 86.0767 -26.6058 94.2499 -17.4381 102.0695 -8.1617 C 107.599 -1.5881 107.8597 8.3131 100.8593 14.9274 C 97.5081 12.1431 94.4361 9.6033 91.5317 7.1858 C 91.6062 7.1314 90.6939 7.9056 88.8135 9.5083 C 81.8131 -16.9491 55.0964 -34.7957 38.9732 -57.26 C 39.8296 -52.6014 39.1408 -47.3996 41.8404 -43.4065 C 49.1944 -32.5275 45.415 -20.7656 48.4683 -9.5742 C 51.5031 1.5901 51.9499 13.1618 55.5246 24.2174 C 57.1629 29.2834 63.5675 33.5074 67.7752 38.1387 C 69.8045 40.3798 71.8711 42.6072 73.6771 44.9432 C 82.6882 56.5965 90.6008 68.7794 100.8221 79.835 C 114.3573 94.4898 129.14 108.5741 144.3695 122.3189 C 155.894 132.7362 168.7218 142.42 181.4565 152.0903 C 186.9116 156.2191 193.6327 159.4516 200 163.2274 C 187.1164 168.7823 176.411 167.7501 163.0061 160.2801 C 159.6176 158.3922 156.0057 156.4908 152.0774 155.3635 C 144.4067 153.1497 143.7551 149.1973 145.1328 144.0906 C 145.6169 142.2842 145.4493 139.4456 143.9041 138.4134 C 129.8847 129.0827 116.2564 119.3037 101.0083 111.1546 C 86.5793 103.4402 78.1826 93.2266 71.0147 81.8994 C 68.3337 77.6619 64.8522 73.6688 61.4451 69.7029 C 60.5142 68.6164 58.5221 68.0188 57.014 67.1903 C 56.0831 67.4891 55.1336 67.8015 54.2027 68.1138 Z" fill="rgb(84, 112, 198)" fill-opacity="1" stroke="none" transform="matrix(0.266,0,0,0.575,600.6,386.5)" transform_matrix="{&quot;a&quot;:0.26600000262260437,&quot;b&quot;:0,&quot;c&quot;:0,&quot;d&quot;:0.574999988079071,&quot;e&quot;:600.5999755859375,&quot;f&quot;:386.5}" my_stoke="none" my_stoke_width="1px" my_stoke_opacity="1" my_fill="rgb(84, 112, 198)" my_fill_opacity="1" my_font_size="16px" opacity="1"/></g><g clip-path="url(#zr2429-clip-4)"><path d="M -199.9443 -14.2266 C -193.1722 -19.89 -186.6413 -25.7309 -179.5723 -31.1759 C -167.4568 -40.4967 -154.8773 -49.4763 -142.7617 -58.7834 C -139.4963 -61.2944 -136.2494 -64.2149 -134.5981 -67.3946 C -127.5477 -81.0277 -121.629 -95.002 -114.2075 -108.526 C -109.1238 -117.7922 -103.7247 -127.113 -91.2566 -133.022 C -83.5196 -136.6794 -81.757 -142.9978 -83.297 -149.3436 C -83.8536 -151.6226 -87.0449 -153.5468 -89.5125 -156.1261 C -94.2808 -148.4975 -98.0843 -142.4383 -102.8897 -134.7552 C -111.777 -143.5301 -120.9982 -149.5347 -124.5605 -157.0131 C -127.8445 -163.8911 -126.7498 -172.625 -124.4863 -180.0216 C -122.13 -187.6911 -114.7641 -193.2727 -102.1662 -193.259 C -99.2903 -193.259 -96.4145 -195.5517 -93.5201 -196.739 C -76.2651 -203.8626 -55.5406 -198.8269 -45.7813 -186.381 C -38.2485 -176.7737 -36.8013 -166.4567 -35.4469 -156.0033 C -34.2409 -146.6961 -36.0406 -145.6453 -50.7723 -144.9357 C -50.7723 -142.2473 -50.7723 -139.5316 -50.7723 -136.8158 C -35.9108 -137.0478 -35.9108 -136.229 -28.4707 -126.5534 C -24.593 -121.5178 -16.7076 -118.2289 -11.0116 -113.8756 C -6.4103 -110.3547 2.0502 -109.5905 2.4213 -102.9581 C 2.9593 -93.6919 3.2747 -93.7056 -9.5088 -87.8375 C -9.5088 -66.3028 -9.5459 -44.8637 -9.4531 -23.4246 C -9.4531 -21.746 -8.9151 -19.9992 -8.1358 -18.4162 C -5.093 -12.1523 -2.0687 -5.8748 1.3823 0.2799 C 2.848 2.9001 4.8704 5.5067 7.4308 7.5946 C 21.4203 19.0033 36.0963 29.989 49.6405 41.657 C 59.0844 49.8042 66.4317 59.2614 75.9497 67.3676 C 94.0025 82.7339 112.0738 98.1957 131.7594 112.4021 C 148.1609 124.2338 166.7888 134.4143 184.6561 145.1271 C 189.3316 147.9383 194.8235 150.0126 200 152.4418 C 192.5414 157.2727 179.7022 157.9141 169.6832 154.6526 C 160.8516 151.7731 151.8159 149.1529 142.5947 147.0649 C 132.2047 144.7177 130.3678 141.9883 134.394 134.3461 C 135.266 132.6812 134.1714 129.1603 132.3345 128.205 C 118.679 121.1769 105.1348 113.835 90.4958 108.0351 C 74.7437 101.7985 62.0159 93.9789 54.1491 82.0516 C 46.1895 69.9878 32.6267 61.7861 18.0064 54.3622 C 12.0692 51.3463 6.0764 48.3576 0.1206 45.3553 C -0.8627 45.5873 -1.8275 45.8057 -2.8109 46.0377 C -3.015 61.2811 -2.5882 76.5519 -3.6458 91.7681 C -4.1839 99.5741 -7.9688 107.2299 -9.2119 115.0359 C -12.329 134.5645 -14.8523 154.134 -17.5797 173.6898 C -18.2105 178.2479 -15.8356 181.5504 -9.9355 183.4883 C 1.3637 187.2138 12.5887 191.0759 24.593 196.1252 C 17.2457 196.6165 9.8799 197.1078 2.5326 197.599 C -6.5959 198.2132 -15.8542 198.3223 -24.8527 199.5369 C -37.7661 201.2837 -42.8127 198.1858 -40.9759 188.5921 C -37.7661 171.8339 -39.7328 155.3485 -43.5734 138.6994 C -45.5773 130.0201 -47.3213 119.5666 -42.6643 112.1291 C -32.2371 95.4937 -38.2114 80.0864 -42.6458 64.0924 C -46.4493 50.391 -49.6962 36.6077 -53.5925 22.92 C -54.1862 20.8457 -56.7837 18.9488 -58.9174 17.2838 C -65.5967 12.0571 -73.816 7.6083 -79.0482 1.7128 C -91.3122 -12.125 -83.8722 -25.0349 -72.1091 -36.6756 C -62.3313 -46.3648 -59.3998 -55.9176 -68.12 -66.6303 C -75.1519 -75.2824 -82.091 -83.9618 -89.2342 -92.5593 C -90.0877 -93.5828 -91.8503 -94.1969 -94.3736 -95.698 C -100.4407 -85.7632 -107.3241 -76.729 -111.5172 -67.067 C -118.1595 -51.7826 -133.9858 -43.7992 -151.4634 -36.6347 C -154.9144 -35.2154 -158.0871 -33.3049 -161.7236 -32.254 C -169.6832 -29.975 -173.0229 -26.9591 -170.815 -19.9583 C -169.5348 -15.9188 -173.2455 -11.0196 -174.7113 -6.5025 C -175.6389 -6.4616 -176.5481 -6.4206 -177.4758 -6.3934 C -177.8097 -9.9006 -178.1437 -13.4078 -178.7003 -19.235 C -185.1013 -13.2577 -190.0367 -8.6587 -196.011 -3.0772 C -197.9962 -5.9157 -198.9981 -7.3486 -200 -8.7815 C -199.9443 -10.5829 -199.9443 -12.4116 -199.9443 -14.2266 Z" fill="rgb(84, 112, 198)" fill-opacity="1" stroke="none" transform="matrix(0.266,0,0,0.575,746.2,386.5)" transform_matrix="{&quot;a&quot;:0.26600000262260437,&quot;b&quot;:0,&quot;c&quot;:0,&quot;d&quot;:0.574999988079071,&quot;e&quot;:746.2000122070312,&quot;f&quot;:386.5}" my_stoke="none" my_stoke_width="1px" my_stoke_opacity="1" my_fill="rgb(84, 112, 198)" my_fill_opacity="1" my_font_size="16px" opacity="1"/></g><path d="M 110.656 501.5 L 216.944 501.5 L 216.944 271.5 L 110.656 271.5 L 110.656 501.5 Z" fill="none" fill-opacity="1" stroke="none" stroke-width="0" paint-order="fill" stroke-opacity="1" stroke-dasharray="" stroke-linecap="butt" stroke-miterlimit="10" transform_matrix="{&quot;a&quot;:1,&quot;b&quot;:0,&quot;c&quot;:0,&quot;d&quot;:1,&quot;e&quot;:0,&quot;f&quot;:0}" my_stoke="none" my_stoke_width="0px" my_stoke_opacity="1" my_fill="none" my_fill_opacity="1" my_font_size="16px" opacity="1"/><path d="M 256.256 501.5 L 362.544 501.5 L 362.544 271.5 L 256.256 271.5 L 256.256 501.5 Z" fill="none" fill-opacity="1" stroke="none" stroke-width="0" paint-order="fill" stroke-opacity="1" stroke-dasharray="" stroke-linecap="butt" stroke-miterlimit="10" transform_matrix="{&quot;a&quot;:1,&quot;b&quot;:0,&quot;c&quot;:0,&quot;d&quot;:1,&quot;e&quot;:0,&quot;f&quot;:0}" my_stoke="none" my_stoke_width="0px" my_stoke_opacity="1" my_fill="none" my_fill_opacity="1" my_font_size="16px" opacity="1"/><path d="M 401.856 501.5 L 508.144 501.5 L 508.144 271.5 L 401.856 271.5 L 401.856 501.5 Z" fill="none" fill-opacity="1" stroke="none" stroke-width="0" paint-order="fill" stroke-opacity="1" stroke-dasharray="" stroke-linecap="butt" stroke-miterlimit="10" transform_matrix="{&quot;a&quot;:1,&quot;b&quot;:0,&quot;c&quot;:0,&quot;d&quot;:1,&quot;e&quot;:0,&quot;f&quot;:0}" my_stoke="none" my_stoke_width="0px" my_stoke_opacity="1" my_fill="none" my_fill_opacity="1" my_font_size="16px" opacity="1"/><path d="M 547.456 501.5 L 653.744 501.5 L 653.744 271.5 L 547.456 271.5 L 547.456 501.5 Z" fill="none" fill-opacity="1" stroke="none" stroke-width="0" paint-order="fill" stroke-opacity="1" stroke-dasharray="" stroke-linecap="butt" stroke-miterlimit="10" transform_matrix="{&quot;a&quot;:1,&quot;b&quot;:0,&quot;c&quot;:0,&quot;d&quot;:1,&quot;e&quot;:0,&quot;f&quot;:0}" my_stoke="none" my_stoke_width="0px" my_stoke_opacity="1" my_fill="none" my_fill_opacity="1" my_font_size="16px" opacity="1"/><path d="M 693.056 501.5 L 799.344 501.5 L 799.344 271.5 L 693.056 271.5 L 693.056 501.5 Z" fill="none" fill-opacity="1" stroke="none" stroke-width="0" paint-order="fill" stroke-opacity="1" stroke-dasharray="" stroke-linecap="butt" stroke-miterlimit="10" transform_matrix="{&quot;a&quot;:1,&quot;b&quot;:0,&quot;c&quot;:0,&quot;d&quot;:1,&quot;e&quot;:0,&quot;f&quot;:0}" my_stoke="none" my_stoke_width="0px" my_stoke_opacity="1" my_fill="none" my_fill_opacity="1" my_font_size="16px" opacity="1"/><text xml:space="preserve" fill="rgb(51, 51, 51)" fill-opacity="1" stroke="rgb(255, 255, 255)" stroke-width="2px" paint-order="stroke" stroke-opacity="1" stroke-dasharray="" stroke-linecap="butt" stroke-miterlimit="2" transform="matrix(1,0,0,1,163.8,246.5)" dominant-baseline="central" text-anchor="middle" x="0" y="-9" style="font: 18px Arial; fill: rgb(51, 51, 51);" transform_matrix="{&quot;a&quot;:1,&quot;b&quot;:0,&quot;c&quot;:0,&quot;d&quot;:1,&quot;e&quot;:163.8000030517578,&quot;f&quot;:246.5}" text_bbox="{&quot;x&quot;:-18.015625,&quot;y&quot;:-19,&quot;w&quot;:36.03125,&quot;h&quot;:20}" opacity="1" font-family="Arial" my_stoke="rgb(255, 255, 255)" my_stoke_width="2px" my_stoke_opacity="1" my_fill="rgb(51, 51, 51)" my_fill_opacity="1" my_font_size="18px" clip-path="none" content="82%">82%</text><text xml:space="preserve" fill="rgb(51, 51, 51)" fill-opacity="1" stroke="rgb(255, 255, 255)" stroke-width="2px" paint-order="stroke" stroke-opacity="1" stroke-dasharray="" stroke-linecap="butt" stroke-miterlimit="2" transform="matrix(1,0,0,1,309.4,246.5)" dominant-baseline="central" text-anchor="middle" x="0" y="-9" style="font: 18px Arial; fill: rgb(51, 51, 51);" transform_matrix="{&quot;a&quot;:1,&quot;b&quot;:0,&quot;c&quot;:0,&quot;d&quot;:1,&quot;e&quot;:309.3999938964844,&quot;f&quot;:246.5}" text_bbox="{&quot;x&quot;:-18.015625,&quot;y&quot;:-19,&quot;w&quot;:36.03125,&quot;h&quot;:20}" opacity="1" font-family="Arial" my_stoke="rgb(255, 255, 255)" my_stoke_width="2px" my_stoke_opacity="1" my_fill="rgb(51, 51, 51)" my_fill_opacity="1" my_font_size="18px" clip-path="none" content="23%">23%</text><text xml:space="preserve" fill="rgb(51, 51, 51)" fill-opacity="1" stroke="rgb(255, 255, 255)" stroke-width="2px" paint-order="stroke" stroke-opacity="1" stroke-dasharray="" stroke-linecap="butt" stroke-miterlimit="2" transform="matrix(1,0,0,1,455,246.5)" dominant-baseline="central" text-anchor="middle" x="0" y="-9" style="font: 18px Arial; fill: rgb(51, 51, 51);" transform_matrix="{&quot;a&quot;:1,&quot;b&quot;:0,&quot;c&quot;:0,&quot;d&quot;:1,&quot;e&quot;:455,&quot;f&quot;:246.5}" text_bbox="{&quot;x&quot;:-18.015625,&quot;y&quot;:-19,&quot;w&quot;:36.03125,&quot;h&quot;:20}" opacity="1" font-family="Arial" my_stoke="rgb(255, 255, 255)" my_stoke_width="2px" my_stoke_opacity="1" my_fill="rgb(51, 51, 51)" my_fill_opacity="1" my_font_size="18px" clip-path="none" content="67%">67%</text><text xml:space="preserve" fill="rgb(51, 51, 51)" fill-opacity="1" stroke="rgb(255, 255, 255)" stroke-width="2px" paint-order="stroke" stroke-opacity="1" stroke-dasharray="" stroke-linecap="butt" stroke-miterlimit="2" transform="matrix(1,0,0,1,600.6,246.5)" dominant-baseline="central" text-anchor="middle" x="0" y="-9" style="font: 18px Arial; fill: rgb(51, 51, 51);" transform_matrix="{&quot;a&quot;:1,&quot;b&quot;:0,&quot;c&quot;:0,&quot;d&quot;:1,&quot;e&quot;:600.5999755859375,&quot;f&quot;:246.5}" text_bbox="{&quot;x&quot;:-18.015625,&quot;y&quot;:-19,&quot;w&quot;:36.03125,&quot;h&quot;:20}" opacity="1" font-family="Arial" my_stoke="rgb(255, 255, 255)" my_stoke_width="2px" my_stoke_opacity="1" my_fill="rgb(51, 51, 51)" my_fill_opacity="1" my_font_size="18px" clip-path="none" content="59%">59%</text><text xml:space="preserve" fill="rgb(51, 51, 51)" fill-opacity="1" stroke="rgb(255, 255, 255)" stroke-width="2px" paint-order="stroke" stroke-opacity="1" stroke-dasharray="" stroke-linecap="butt" stroke-miterlimit="2" transform="matrix(1,0,0,1,746.2,246.5)" dominant-baseline="central" text-anchor="middle" x="0" y="-9" style="font: 18px Arial; fill: rgb(51, 51, 51);" transform_matrix="{&quot;a&quot;:1,&quot;b&quot;:0,&quot;c&quot;:0,&quot;d&quot;:1,&quot;e&quot;:746.2000122070312,&quot;f&quot;:246.5}" text_bbox="{&quot;x&quot;:-19.015625,&quot;y&quot;:-19,&quot;w&quot;:37.03125,&quot;h&quot;:20}" opacity="1" font-family="Arial" my_stoke="rgb(255, 255, 255)" my_stoke_width="2px" my_stoke_opacity="1" my_fill="rgb(51, 51, 51)" my_fill_opacity="1" my_font_size="18px" clip-path="none" content="48%">48%</text></g></svg>