<svg xmlns="http://www.w3.org/2000/svg" xmlns:xlink="http://www.w3.org/1999/xlink" version="1.1" baseProfile="full" width="910" height="773" style="user-select: none; position: absolute; left: 0px; top: 0px;" transform_matrix="{&quot;a&quot;:1,&quot;b&quot;:0,&quot;c&quot;:0,&quot;d&quot;:1,&quot;e&quot;:0,&quot;f&quot;:0}"><g><text xml:space="preserve" fill="rgb(229, 64, 53)" fill-opacity="1" stroke="none" transform="matrix(1,0,0,1,136.5,711)" dominant-baseline="central" text-anchor="middle" x="0" y="6" style="font: 12px &quot;Microsoft YaHei&quot;; fill: rgb(229, 64, 53);" transform_matrix="{&quot;a&quot;:1,&quot;b&quot;:0,&quot;c&quot;:0,&quot;d&quot;:1,&quot;e&quot;:136.5,&quot;f&quot;:711}" text_bbox="{&quot;x&quot;:-13,&quot;y&quot;:-2,&quot;w&quot;:26,&quot;h&quot;:16}" opacity="1" stroke-width="1px" stroke-opacity="1" font-family="&quot;Microsoft YaHei&quot;" my_stoke="none" my_stoke_width="1px" my_stoke_opacity="1" my_fill="rgb(229, 64, 53)" my_fill_opacity="1" my_font_size="12px" clip-path="none" content="驯鹿">驯鹿</text><text xml:space="preserve" fill="rgb(229, 64, 53)" fill-opacity="1" stroke="none" transform="matrix(1,0,0,1,227.5,711)" dominant-baseline="central" text-anchor="middle" x="0" y="6" style="font: 12px &quot;Microsoft YaHei&quot;; fill: rgb(229, 64, 53);" transform_matrix="{&quot;a&quot;:1,&quot;b&quot;:0,&quot;c&quot;:0,&quot;d&quot;:1,&quot;e&quot;:227.5,&quot;f&quot;:711}" text_bbox="{&quot;x&quot;:-13,&quot;y&quot;:-2,&quot;w&quot;:26,&quot;h&quot;:16}" opacity="1" stroke-width="1px" stroke-opacity="1" font-family="&quot;Microsoft YaHei&quot;" my_stoke="none" my_stoke_width="1px" my_stoke_opacity="1" my_fill="rgb(229, 64, 53)" my_fill_opacity="1" my_font_size="12px" clip-path="none" content="火箭">火箭</text><text xml:space="preserve" fill="rgb(229, 64, 53)" fill-opacity="1" stroke="none" transform="matrix(1,0,0,1,318.5,711)" dominant-baseline="central" text-anchor="middle" x="0" y="6" style="font: 12px &quot;Microsoft YaHei&quot;; fill: rgb(229, 64, 53);" transform_matrix="{&quot;a&quot;:1,&quot;b&quot;:0,&quot;c&quot;:0,&quot;d&quot;:1,&quot;e&quot;:318.5,&quot;f&quot;:711}" text_bbox="{&quot;x&quot;:-13,&quot;y&quot;:-2,&quot;w&quot;:26,&quot;h&quot;:16}" opacity="1" stroke-width="1px" stroke-opacity="1" font-family="&quot;Microsoft YaHei&quot;" my_stoke="none" my_stoke_width="1px" my_stoke_opacity="1" my_fill="rgb(229, 64, 53)" my_fill_opacity="1" my_font_size="12px" clip-path="none" content="飞机">飞机</text><text xml:space="preserve" fill="rgb(229, 64, 53)" fill-opacity="1" stroke="none" transform="matrix(1,0,0,1,409.5,711)" dominant-baseline="central" text-anchor="middle" x="0" y="6" style="font: 12px &quot;Microsoft YaHei&quot;; fill: rgb(229, 64, 53);" transform_matrix="{&quot;a&quot;:1,&quot;b&quot;:0,&quot;c&quot;:0,&quot;d&quot;:1,&quot;e&quot;:409.5,&quot;f&quot;:711}" text_bbox="{&quot;x&quot;:-13,&quot;y&quot;:-2,&quot;w&quot;:26,&quot;h&quot;:16}" opacity="1" stroke-width="1px" stroke-opacity="1" font-family="&quot;Microsoft YaHei&quot;" my_stoke="none" my_stoke_width="1px" my_stoke_opacity="1" my_fill="rgb(229, 64, 53)" my_fill_opacity="1" my_font_size="12px" clip-path="none" content="高铁">高铁</text><text xml:space="preserve" fill="rgb(229, 64, 53)" fill-opacity="1" stroke="none" transform="matrix(1,0,0,1,500.5,711)" dominant-baseline="central" text-anchor="middle" x="0" y="6" style="font: 12px &quot;Microsoft YaHei&quot;; fill: rgb(229, 64, 53);" transform_matrix="{&quot;a&quot;:1,&quot;b&quot;:0,&quot;c&quot;:0,&quot;d&quot;:1,&quot;e&quot;:500.5,&quot;f&quot;:711}" text_bbox="{&quot;x&quot;:-13,&quot;y&quot;:-2,&quot;w&quot;:26,&quot;h&quot;:16}" opacity="1" stroke-width="1px" stroke-opacity="1" font-family="&quot;Microsoft YaHei&quot;" my_stoke="none" my_stoke_width="1px" my_stoke_opacity="1" my_fill="rgb(229, 64, 53)" my_fill_opacity="1" my_font_size="12px" clip-path="none" content="轮船">轮船</text><text xml:space="preserve" fill="rgb(229, 64, 53)" fill-opacity="1" stroke="none" transform="matrix(1,0,0,1,591.5,711)" dominant-baseline="central" text-anchor="middle" x="0" y="6" style="font: 12px &quot;Microsoft YaHei&quot;; fill: rgb(229, 64, 53);" transform_matrix="{&quot;a&quot;:1,&quot;b&quot;:0,&quot;c&quot;:0,&quot;d&quot;:1,&quot;e&quot;:591.5,&quot;f&quot;:711}" text_bbox="{&quot;x&quot;:-13,&quot;y&quot;:-2,&quot;w&quot;:25,&quot;h&quot;:16}" opacity="1" stroke-width="1px" stroke-opacity="1" font-family="&quot;Microsoft YaHei&quot;" my_stoke="none" my_stoke_width="1px" my_stoke_opacity="1" my_fill="rgb(229, 64, 53)" my_fill_opacity="1" my_font_size="12px" clip-path="none" content="汽车">汽车</text><text xml:space="preserve" fill="rgb(229, 64, 53)" fill-opacity="1" stroke="none" transform="matrix(1,0,0,1,682.5,711)" dominant-baseline="central" text-anchor="middle" x="0" y="6" style="font: 12px &quot;Microsoft YaHei&quot;; fill: rgb(229, 64, 53);" transform_matrix="{&quot;a&quot;:1,&quot;b&quot;:0,&quot;c&quot;:0,&quot;d&quot;:1,&quot;e&quot;:682.5,&quot;f&quot;:711}" text_bbox="{&quot;x&quot;:-13,&quot;y&quot;:-2,&quot;w&quot;:25,&quot;h&quot;:16}" opacity="1" stroke-width="1px" stroke-opacity="1" font-family="&quot;Microsoft YaHei&quot;" my_stoke="none" my_stoke_width="1px" my_stoke_opacity="1" my_fill="rgb(229, 64, 53)" my_fill_opacity="1" my_font_size="12px" clip-path="none" content="跑步">跑步</text><text xml:space="preserve" fill="rgb(229, 64, 53)" fill-opacity="1" stroke="none" transform="matrix(1,0,0,1,773.5,711)" dominant-baseline="central" text-anchor="middle" x="0" y="6" style="font: 12px &quot;Microsoft YaHei&quot;; fill: rgb(229, 64, 53);" transform_matrix="{&quot;a&quot;:1,&quot;b&quot;:0,&quot;c&quot;:0,&quot;d&quot;:1,&quot;e&quot;:773.5,&quot;f&quot;:711}" text_bbox="{&quot;x&quot;:-12,&quot;y&quot;:-2,&quot;w&quot;:24,&quot;h&quot;:16}" opacity="1" stroke-width="1px" stroke-opacity="1" font-family="&quot;Microsoft YaHei&quot;" my_stoke="none" my_stoke_width="1px" my_stoke_opacity="1" my_fill="rgb(229, 64, 53)" my_fill_opacity="1" my_font_size="12px" clip-path="none" content="步行">步行</text><path d="M -166.387 169.274 C -151.199 162.4673 -140.0196 142.3164 -129.994 128.5994 C -149.6071 147.8046 -166.8471 169.2188 -196.4565 179.0768 C -203.7001 179.1113 -198.282 165.1596 -193.9739 162.771 L -180.4506 159.9407 C -176.3323 158.4357 -174.7186 154.128 -173.8642 150.6418 C -158.2892 145.6231 -138.0116 122.1379 -129.8261 107.8825 C -117.0623 103.0501 -97.3835 103.1951 -87.9566 92.0531 C -79.3695 81.9189 -85.087 64.4949 -79.0848 46.7878 C -77.3323 41.5826 -74.8934 35.8736 -71.7244 30.9584 C -76.1859 31.0343 -81.5674 30.5373 -86.0289 26.7611 C -96.186 18.1664 -91.761 12.3607 -95.4996 3.8903 C -83.2031 9.0264 -77.2447 21.7286 -63.1811 21.7424 C -61.7645 20.7897 -60.2676 20.0234 -58.6977 19.4919 C -14.6595 6.0165 52.1607 18.3528 83.676 -7.6866 C 92.0733 -34.8375 74.6216 -75.6571 74.7019 -76.2922 C 74.7603 -76.7202 65.1071 -76.3198 61.5365 -78.0732 C 53.3656 -83.3957 13.8473 -103.9608 60.2951 -101.0614 C 62.5879 -101.3721 67.1809 -99.2734 70.8027 -98.0585 C 68.6924 -109.7527 64.0848 -99.0525 46.6259 -111.4924 C 46.6259 -111.4924 38.5937 -117.3948 33.7452 -125.161 C 27.6407 -132.6857 19.0682 -144.663 11.8977 -152.9884 C 0.7768 -170.0812 21.8795 -148.094 25.1581 -145.3395 C 38.0679 -133.5762 38.6229 -122.6896 48.758 -117.8435 C 50.1819 -116.4421 59.3678 -116.7113 55.5196 -121.0742 C 51.6861 -125.4372 45.5379 -129.8967 42.5587 -137.235 C 40.4192 -142.0881 32.9858 -153.2922 31.1238 -155.95 C 29.2545 -158.6009 24.1212 -167.81 18.9295 -172.1798 C 11.2843 -180.3741 16.9726 -178.4066 22.7338 -172.663 C 28.4951 -166.9056 33.9569 -160.092 34.9427 -158.6975 C 35.9285 -157.2962 46.509 -141.2942 47.5386 -142.2192 C 48.2834 -144.0072 47.283 -145.1739 46.3849 -148.1009 C 45.4721 -151.021 39.7255 -162.1285 39.3677 -162.4806 C 36.7609 -168.3622 35.2348 -175.6522 35.0011 -185.4895 C 37.9219 -201.8849 39.7328 -202.6512 39.0099 -190.3563 C 39.1121 -182.4658 39.2363 -175.0654 43.4057 -167.9411 C 49.2984 -157.6137 56.2863 -139.8859 56.8121 -137.0555 C 60.9085 -115.1305 78.017 -124.9815 73.4679 -137.9253 C 72.9713 -141.0042 72.672 -151.8287 71.3722 -157.6827 C 70.0579 -163.5437 69.7731 -169.3356 70.5471 -178.7794 C 71.029 -188.3681 72.2411 -192.9658 72.5697 -194.6502 C 74.6508 -201.7123 75.4905 -202.1611 75.5489 -193.7183 C 75.1181 -190.9638 74.5924 -182.0723 74.6362 -175.3898 C 75.1035 -170.9579 74.3222 -163.1847 75.8921 -158.2281 C 80.6676 -144.9184 75.695 -134.094 83.1941 -133.9697 C 96.3741 -136.8967 100.9232 -142.378 100.9232 -150.165 C 100.2953 -155.0249 100.0397 -155.9845 100.6969 -158.4007 C 102.3106 -162.3218 103.3183 -163.0259 102.9751 -158.9253 C 102.5735 -156.9441 103.2015 -155.2459 103.5739 -153.4441 C 105.5016 -145.1808 110.2333 -152.6571 112.9423 -158.8425 C 114.0376 -160.4855 116.878 -173.7123 116.9219 -176.2528 C 116.7539 -180.5121 119.0029 -180.7054 119.1782 -176.1837 C 119.6455 -173.2705 117.3673 -157.9174 117.6813 -160.0713 C 115.2132 -151.5111 109.6126 -136.5861 93.0079 -127.5427 C 90.1675 -126.7143 84.3478 -118.665 68.707 -112.5072 C 68.707 -112.5072 81.3321 -110.2912 91.752 -110.809 C 99.7988 -112.1206 118.8204 -110.9953 125.7353 -108.952 C 138.5284 -105.5417 136.9146 -109.3178 155.5565 -107.8198 C 172.059 -110.5811 171.285 -91.3139 144.6328 -82.4155 C 126.0201 -72.7162 121.9456 -72.233 127.8894 -61.8158 C 153.3294 -7.2379 148.8095 29.1911 143.9026 51.8548 C 161.5003 53.7256 185.7575 47.5747 197.2142 56.8598 C 200.909 59.1586 201.9459 69.7414 193.8772 76.6033 C 163.9027 95.5531 126.0931 125.0787 92.3507 129.4969 C 85.2167 128.1576 93.4899 115.5176 98.2142 113.985 L 112.0733 113.7779 C 116.4253 113.0807 118.908 109.1596 120.4852 105.915 C 143.5594 103.126 157.3236 79.8548 180.6972 72.6546 C 151.2338 67.698 110.686 100.1369 91.8907 79.9101 C 55.0669 89.7335 8.2905 92.6122 -24.174 87.5797 C -46.8466 106.129 -82.1078 115.3381 -112.6373 128.0748 C -136.522 152.3124 -150.5199 183.8953 -185.4159 199.9663 C -192.6157 200.7878 -188.9209 186.3391 -184.934 183.5018 L -171.827 179.2355 C -167.8985 177.2888 -166.8325 172.8223 -166.387 169.274 Z" fill="rgb(229, 64, 53)" fill-opacity="1" stroke="none" transform="matrix(0.15,0,0,0.15,136.5,96.0786)" transform_matrix="{&quot;a&quot;:0.15000000596046448,&quot;b&quot;:0,&quot;c&quot;:0,&quot;d&quot;:0.15000000596046448,&quot;e&quot;:136.5,&quot;f&quot;:96.07859802246094}" my_stoke="none" my_stoke_width="1px" my_stoke_opacity="1" my_fill="rgb(229, 64, 53)" my_fill_opacity="1" my_font_size="16px" opacity="1"/><path d="M 122.2206 171.6847 C 122.2206 171.6847 127.7779 148.6377 93.5233 120.4797 C 126.8556 55.8364 131.4788 -3.0431 131.4788 -3.0431 C 131.4788 -3.0431 200 7.8317 200 54.5547 C 200 134.5705 122.2206 171.6847 122.2206 171.6847 Z M -66.6706 143.5974 C -66.6706 143.5974 -112.5604 41.8007 -112.5604 -0.4482 C -112.5604 -19.4457 -109.4622 -36.3515 -104.6499 -51.6926 L 104.4488 -51.6926 C 109.3084 -36.3436 112.4301 -19.4221 112.4301 -0.4325 C 112.4301 41.1716 66.6706 143.5974 66.6706 143.5974 L -66.6706 143.5974 Z M -0.1478 -28.4175 C -23.6778 -28.4175 -42.7502 -15.2388 -42.7502 1.0222 C -42.7502 17.2833 -23.6897 30.462 -0.1478 30.462 C 23.3586 30.462 42.4428 17.2833 42.4428 1.0222 C 42.4428 -15.2388 23.3586 -28.4175 -0.1478 -28.4175 Z M -9.3233 -159.9135 L -9.3233 -200 L 7.2541 -200 L 7.2541 -160.9279 C 26.2082 -151.3898 77.5016 -121.0694 100.6769 -62.6381 L -100.9253 -62.6381 C -78.5183 -119.4574 -29.7082 -149.4555 -9.3233 -159.9135 Z M -122.2325 171.6847 C -122.2325 171.6847 -200 134.5626 -200 54.5547 C -200 7.8317 -131.4907 -3.0431 -131.4907 -3.0431 C -131.4907 -3.0431 -126.8437 55.8364 -93.5233 120.4718 C -127.7779 148.6456 -122.2325 171.6847 -122.2325 171.6847 Z M 28.0528 177.59 L 14.1477 167.9969 L -0.6681 200 L -18.2506 168.0047 L -30.2996 184.6432 L -47.8937 154.5587 L 47.4917 154.5587 L 28.0528 177.59 Z" fill="rgb(229, 64, 53)" fill-opacity="1" stroke="none" transform="matrix(0.125,0,0,0.15,227.5,385.4286)" transform_matrix="{&quot;a&quot;:0.125,&quot;b&quot;:0,&quot;c&quot;:0,&quot;d&quot;:0.15000000596046448,&quot;e&quot;:227.5,&quot;f&quot;:385.4285888671875}" my_stoke="none" my_stoke_width="1px" my_stoke_opacity="1" my_fill="rgb(229, 64, 53)" my_fill_opacity="1" my_font_size="16px" opacity="1"/><path d="M -171.7146 -4.6034 L -152.5681 7.9749 L -170.9738 31.6493 L -185.1197 31.524 L -171.7146 -4.6034 Z M 62.6091 -94.3633 C 63.6182 -103.1106 65.8023 -110.1148 68.7465 -114.238 C 68.1334 -114.6242 67.4372 -114.9791 66.5495 -114.9791 C 61.5873 -115.0313 53.3425 -115.0731 47.0902 -115.0731 C 43.0476 -115.0731 39.3179 -114.3841 35.8884 -113.1942 L 49.9321 -94.3633 L 62.6091 -94.3633 Z M 74.9668 -104.0084 C 74.2579 -104.0084 72.5592 -100.6159 71.5373 -94.3633 L 78.4091 -94.3633 C 77.3745 -100.6159 75.7077 -104.0084 74.9668 -104.0084 Z M 76.2186 71.6806 C 75.1584 71.6806 71.9141 79.0396 71.9141 92.4113 C 71.9141 105.7829 75.1456 113.142 76.2186 113.142 C 77.2915 113.142 80.5102 105.7829 80.5102 92.4113 C 80.5102 79.0396 77.2915 71.6806 76.2186 71.6806 Z M 70.0174 61.4718 C 69.3915 61.0752 68.6826 60.7411 67.7949 60.7098 C 67.2712 60.7098 66.6837 60.7098 66.0833 60.6994 L 20.5674 109.4572 C 26.181 118.0271 36.0225 124.2484 48.3355 124.2484 C 54.5878 124.2484 62.8327 124.1858 67.7949 124.1441 C 68.6826 124.1441 69.3915 123.7892 70.0174 123.3925 C 65.8918 117.5992 63.1839 106.2422 63.1839 92.4217 C 63.1711 78.5908 65.8854 67.2338 70.0174 61.4718 Z M 30.1023 -94.3633 L -48.8976 -199.9583 L -78.869 -200 C -78.869 -200 -53.3234 -114.1754 -48.0418 -94.3528 L 30.1023 -94.3528 Z M 199.968 -6.5344 C 198.3842 15.428 166.0881 26.5762 148.7618 26.5762 L 74.2707 26.5762 L -87.4651 199.9582 L -117.4621 200 C -117.4621 200 -74.7561 111.4927 -66.6901 93.4551 C -59.218 76.7537 -47.4095 54.8434 -47.3584 26.5762 L -61.0126 26.5762 C -98.3028 26.5762 -149.2472 -12.9749 -178.9823 -31.7015 C -196.9792 -43.0271 -194.2842 -73.8727 -179.1803 -73.8727 L -178.9312 -73.8727 L -200 -192.5679 L -176.9004 -192.5679 C -176.9004 -192.5679 -149.1067 -133.1107 -139.5654 -114.2797 C -126.7926 -89.0605 -110.8074 -75.8873 -87.018 -73.8831 L 109.2171 -73.8831 C 123.0756 -73.8831 136.7489 -69.5303 149.145 -62.9645 C 171.4335 -50.6994 186.5885 -34.7808 195.1207 -20.929 C 198.9079 -14.7808 200.2299 -10.1774 199.968 -6.5344 Z M -37.8746 -27.0564 C -37.8746 -35.5637 -42.096 -42.453 -47.2563 -42.453 C -52.442 -42.453 -56.6507 -35.5637 -56.6507 -27.0564 C -56.6507 -18.5491 -52.4484 -11.6597 -47.2563 -11.6597 C -42.096 -11.6597 -37.8746 -18.5386 -37.8746 -27.0564 Z M -6.0001 -27.0564 C -6.0001 -35.5637 -10.1895 -42.4843 -15.3625 -42.4843 C -20.5483 -42.4843 -24.7569 -35.5741 -24.7569 -27.0564 C -24.7569 -18.5386 -20.5547 -11.6388 -15.3625 -11.6388 C -10.1895 -11.6388 -6.0001 -18.5386 -6.0001 -27.0564 Z M 25.9001 -27.0564 C 25.9001 -35.5637 21.685 -42.453 16.5184 -42.453 C 11.3582 -42.453 7.1559 -35.5637 7.1559 -27.0564 C 7.1559 -18.5491 11.3582 -11.6597 16.5184 -11.6597 C 21.7042 -11.6597 25.9001 -18.5386 25.9001 -27.0564 Z M 57.7938 -27.0564 C 57.7938 -35.5637 53.5915 -42.4843 48.4249 -42.4843 C 43.2392 -42.4843 39.0433 -35.5741 39.0433 -27.0564 C 39.0433 -18.5386 43.2328 -11.6388 48.4249 -11.6388 C 53.5787 -11.6388 57.7938 -18.5386 57.7938 -27.0564 Z M 89.662 -27.0564 C 89.662 -35.5637 85.4725 -42.4843 80.3059 -42.4843 C 75.1265 -42.4843 70.9242 -35.5741 70.9242 -27.0564 C 70.9242 -18.5386 75.1265 -11.6388 80.3059 -11.6388 C 85.4725 -11.6388 89.662 -18.5386 89.662 -27.0564 Z M 175.4953 -25.4175 C 171.0184 -29.9687 165.4814 -34.7703 158.7182 -39.4781 C 154.8033 -36.4614 148.8129 -34.5094 141.2833 -34.5094 C 131.5313 -34.5094 130.816 -10.8873 142.3307 -10.334 C 155.7613 -9.666 170.0541 -16.9833 175.4953 -25.4175 Z" fill="rgb(229, 64, 53)" fill-opacity="1" stroke="none" transform="matrix(0.163,0,0,0.088,318.5,563.6786)" transform_matrix="{&quot;a&quot;:0.16300000250339508,&quot;b&quot;:0,&quot;c&quot;:0,&quot;d&quot;:0.08800000697374344,&quot;e&quot;:318.5,&quot;f&quot;:563.6785888671875}" my_stoke="none" my_stoke_width="1px" my_stoke_opacity="1" my_fill="rgb(229, 64, 53)" my_fill_opacity="1" my_font_size="16px" opacity="1"/><path d="M 199.9898 12.1225 C 199.9797 -16.1497 194.1274 -52.6187 183.0685 -73.6703 L 136.8196 -73.6703 L 136.8196 -115.7734 L 164.1287 -115.7734 C 139.0161 -157.8765 107.187 -200 88.42 -200 L -42.1101 -200 L -42.1101 52.6391 L -42.1101 157.9172 L 152.9986 157.9172 C 173.5045 157.9172 195.9985 136.8657 199.4814 52.6391 L 199.3441 52.6391 C 199.7305 45.1744 200 37.364 200 28.9434 L 199.9898 12.1225 Z M -0.0152 -52.6187 L -15.8027 -52.6187 L -15.8027 -136.8453 L -0.0152 -136.8453 L -0.0152 -52.6187 Z M 36.8273 -52.6187 L 21.0449 -52.6187 L 21.0449 -136.8453 L 36.8273 -136.8453 L 36.8273 -52.6187 Z M 73.6698 -52.6187 L 57.8874 -52.6187 L 57.8874 -136.8453 L 73.6698 -136.8453 L 73.6698 -52.6187 Z M 110.5072 -52.6187 L 94.7248 -52.6187 L 94.7248 -136.8453 L 110.5072 -136.8453 L 110.5072 -52.6187 Z M -68.4276 157.9172 C -62.616 157.9172 -57.9026 139.0624 -57.9026 115.8141 L -57.9026 52.6798 L -57.9026 -157.8969 C -57.9026 -181.1858 -62.6211 -200 -68.4276 -200 L -189.4852 -200 C -195.2968 -200 -200 -181.1655 -200 -157.8969 L -200 52.6391 L -200 115.7938 C -200 139.0624 -195.2917 157.8969 -189.4852 157.8969 L -68.4276 157.8969 L -68.4276 157.9172 Z M -100.0076 -136.8453 L -84.2202 -136.8453 L -84.2202 -52.6187 L -100.0076 -52.6187 L -100.0076 -136.8453 Z M -136.8501 -136.8453 L -121.0627 -136.8453 L -121.0627 -52.6187 L -136.8501 -52.6187 L -136.8501 -136.8453 Z M -173.6926 -136.8453 L -157.9052 -136.8453 L -157.9052 -52.6187 L -173.6926 -52.6187 L -173.6926 -136.8453 Z M -189.4852 178.9484 L 163.1372 178.9484 L 163.1372 200 L -189.4852 200 L -189.4852 178.9484 Z" fill="rgb(229, 64, 53)" fill-opacity="1" stroke="none" transform="matrix(0.125,0,0,0.075,409.5,599.3286)" transform_matrix="{&quot;a&quot;:0.125,&quot;b&quot;:0,&quot;c&quot;:0,&quot;d&quot;:0.07500001043081284,&quot;e&quot;:409.5,&quot;f&quot;:599.32861328125}" my_stoke="none" my_stoke_width="1px" my_stoke_opacity="1" my_fill="rgb(229, 64, 53)" my_fill_opacity="1" my_font_size="16px" opacity="1"/><path d="M -88.2147 -152.2652 L -16.0494 -152.2652 L -35.8447 -94.5421 C 5.1374 -70.8358 45.8485 -40.1094 86.5377 -10.5058 C 111.3422 7.5278 137.5602 26.1082 163.7342 41.9742 L 163.7342 -18.1703 L 132.9977 -45.1474 L 132.9977 -97.0709 L 31.7875 -200 L -52.2858 -200 L -60.7371 -170.289 L -93.9343 -170.289 L -103.2058 -138.2054 L -97.4862 -134.8369 L -88.2147 -152.2652 Z M 152.8882 -8.2113 L 153.2324 4.2179 L -9.4143 -114.0695 L -3.5629 -130.9998 L 152.8882 -8.2113 Z M 31.5458 -171.6559 L 125.9378 -85.5399 L 126.1356 -78.0316 L 28.0305 -161.8922 L 31.5458 -171.6559 Z M -46.4783 -181.9566 L 25.6284 -181.9566 L 14.3576 -149.1017 L -2.3911 -163.7278 L 7.6493 -163.7278 L 12.9296 -176.9283 L -1.8858 -176.9283 L -5.9357 -166.8034 L -9.8977 -170.289 L -12.3876 -170.289 L -9.7585 -176.9674 L -24.5885 -176.9674 L -27.2323 -170.289 L -52.6667 -170.289 L -46.4783 -181.9566 Z M -36.826 -117.1939 L -36.8553 -117.1549 L -36.826 -117.1549 L -36.826 -117.1939 Z M -28.5285 -141.3982 L -43.4025 -141.3982 L -48.6681 -128.139 L -33.8088 -128.139 L -28.5285 -141.3982 Z M 85.4025 15.0947 C -8.7039 -53.3392 -103.0228 -128.1097 -200 -107.2154 C -190.7724 -21.2068 -133.503 50.9666 -139.8524 130.3163 C -143.9023 169.9766 -162.6357 138.4007 -164.0418 200 C -48.3385 200 73.0844 200 188.6999 200 L 189.1832 159.0412 L 200 88.4495 C 161.9839 69.6251 122.0784 41.7887 85.4025 15.0947 Z M -107.9002 31.9566 C -116.7835 31.9566 -123.9752 18.7464 -123.9752 2.3238 C -123.9752 -13.9328 -116.7982 -27.1334 -107.9002 -27.1334 C -98.9729 -27.1334 -91.8252 -13.9328 -91.8252 2.3238 C -91.8179 18.7756 -98.9436 31.9566 -107.9002 31.9566 Z M -36.8553 -117.1549 L -51.6487 -117.1549 L -55.9549 -103.9641 L -41.1395 -103.9641 L -36.8553 -117.1549 Z M -66.1052 -141.3982 L -71.3854 -128.139 L -56.5554 -128.139 L -51.2313 -141.3982 L -66.1052 -141.3982 Z" fill="rgb(229, 64, 53)" fill-opacity="1" stroke="none" transform="matrix(0.125,0,0,0.088,500.5,623.3857)" transform_matrix="{&quot;a&quot;:0.125,&quot;b&quot;:0,&quot;c&quot;:0,&quot;d&quot;:0.08800000697374344,&quot;e&quot;:500.5,&quot;f&quot;:623.3856811523438}" my_stoke="none" my_stoke_width="1px" my_stoke_opacity="1" my_fill="rgb(229, 64, 53)" my_fill_opacity="1" my_font_size="16px" opacity="1"/><path d="M 197.5037 153.1812 C 197.0227 157.8565 196.242 162.3865 195.071 165.8996 C 192.9651 172.1729 190.9409 172.754 182.9619 172.1729 C 172.6592 171.4729 157.8723 172.1729 142.2593 173.0709 C 142.2593 179.3575 142.4227 182.2762 142.4227 182.2762 C 143.4303 199.4321 148.7496 200 150.8737 200 L 184.4597 200 C 187.4189 200 190.1602 200 192.2752 197.9661 C 195.0075 195.3775 196.1785 187.7703 197.2042 174.4577 C 197.3585 172.5294 197.4311 170.0201 197.5037 167.0617 L 197.5037 166.9297 C 197.5037 166.0316 197.5763 164.8958 197.5763 163.6279 L 197.5763 162.3865 C 197.5763 159.3225 197.5763 155.9151 197.5037 153.1812 Z M -197.6762 153.1812 C -197.1951 157.8565 -196.4326 162.3865 -195.2435 165.8996 C -193.1557 172.1729 -191.1133 172.754 -183.1344 172.1729 C -172.8135 171.4729 -158.0629 172.1729 -142.4318 173.0709 C -142.4318 179.3575 -142.5952 182.2762 -142.5952 182.2762 C -143.6028 199.4321 -148.9221 200 -151.0371 200 L -184.6231 200 C -187.6004 200 -190.0876 200 -192.4386 197.9661 C -195.2435 195.5889 -196.3419 187.7703 -197.3494 174.4577 C -197.5128 172.5294 -197.5945 170.0201 -197.6671 167.0617 L -197.6671 166.9297 C -197.6671 166.0316 -197.7397 164.8958 -197.7397 163.6279 L -197.7397 162.3865 C -197.6762 159.3225 -197.6762 155.9151 -197.6762 153.1812 Z M 200 45.9801 C 200 11.0873 196.8774 -23.0132 195.6247 -26.7507 C 194.6807 -29.4846 188.6715 -36.6428 175.0102 -50.1667 C 161.1946 -63.9284 161.5123 -61.8813 158.9797 -70.8489 C 161.249 -71.879 163.4457 -73.8073 164.7801 -74.0318 C 167.7393 -74.4808 167.9118 -70.4131 174.0661 -70.4131 C 180.2387 -70.4131 193.6005 -72.7903 196.3328 -76.7524 C 199.065 -80.7541 199.9274 -82.1012 199.9274 -85.6275 C 199.9274 -89.167 198.5113 -96.4308 195.8698 -100.7627 C 193.2102 -105.0814 181.8817 -107.2341 175.2371 -108.4888 C 168.6198 -109.7435 167.6667 -108.4888 165.9601 -106.8907 C 163.2007 -104.3946 163.0554 -81.5465 163.0554 -81.5465 L 156.5833 -81.3088 C 152.3624 -96.444 146.5075 -126.8993 137.3667 -150.8964 C 127.3544 -177.0331 116.8883 -185.2214 112.5221 -187.2685 C 108.2195 -189.1967 104.3163 -190.557 75.0238 -194.8757 C 45.0869 -199.4189 21.2681 -200 0.0272 -200 C -21.2318 -200 -45.0597 -199.3132 -74.9875 -194.8757 C -104.2981 -190.4381 -108.2104 -189.1967 -112.504 -187.2685 C -116.7975 -185.3402 -127.3272 -177.0331 -137.3394 -150.8964 C -146.4712 -126.9125 -152.3351 -96.444 -156.5561 -81.3088 L -163.0645 -81.5598 C -163.0645 -81.5598 -163.1371 -104.3946 -165.9511 -106.9039 C -167.6667 -108.502 -168.6107 -109.8755 -175.2371 -108.502 C -181.8817 -107.1285 -193.2102 -105.0946 -195.8698 -100.7759 C -198.5295 -96.4572 -199.9274 -89.1802 -199.9274 -85.6407 C -199.9274 -82.1144 -199.0741 -80.6352 -196.3328 -76.7656 C -193.6005 -72.7903 -180.2387 -70.4263 -174.0662 -70.4263 C -167.8936 -70.4263 -167.7393 -74.5072 -164.7801 -74.045 C -163.4548 -73.8073 -161.1855 -71.8922 -158.9979 -70.8621 C -161.5667 -61.8813 -161.1764 -63.9416 -175.0102 -50.1799 C -188.6806 -36.5371 -194.7806 -29.4978 -195.6247 -26.764 C -196.8865 -23.0264 -200 11.074 -200 45.9801 C -200 80.8862 -198.2844 112.2792 -198.2844 123.373 C -198.2844 128.0483 -198.2844 136.2631 -197.5945 144.042 C -197.1134 148.7172 -196.4236 153.2473 -195.1618 156.8 C -193.0559 163.0468 -191.1042 163.6147 -183.0527 163.0468 C -172.7318 162.3733 -157.8269 163.0468 -142.4137 163.9713 C -132.1109 164.5392 -121.5631 165.1071 -112.1863 165.4241 C -88.7487 166.0977 -95.6111 160.4186 -85.608 160.6696 C -75.6048 160.8809 -36.1639 163.2581 -0.0635 163.2581 C 36.0278 163.2581 75.5685 160.8545 85.4718 160.6696 C 95.475 160.4186 88.6125 166.0977 112.0319 165.4241 C 121.4088 165.1864 131.9566 164.5392 142.2775 163.9713 C 157.6635 163.1525 172.6683 162.3733 182.9165 163.0468 C 190.959 163.6147 192.9288 163.0468 195.0075 156.8 C 196.2057 153.2473 196.9863 148.7305 197.4493 144.042 C 198.2299 136.2234 198.1573 128.0219 198.1573 123.373 C 198.2844 112.3716 200 80.873 200 45.9801 Z M -132.6646 -126.1201 C -128.9248 -138.8517 -117.669 -164.4204 -112.1863 -168.9636 C -110.8701 -170.1126 -99.2421 -175.4482 -70.0949 -178.2877 C -43.2896 -180.9027 -13.6613 -181.9328 0.0726 -181.9328 C 13.8066 -181.9328 43.4348 -180.9027 70.231 -178.2877 C 99.2874 -175.4482 111.097 -170.2182 112.3406 -168.9636 C 119.3755 -161.9243 129.0609 -138.8517 132.8189 -126.1201 C 136.5588 -113.3754 141.5785 -88.3745 140.6345 -84.9672 C 139.6905 -81.5598 141.5785 -79.8428 128.9157 -81.3352 C 116.3255 -82.6955 37.344 -84.1879 0.1543 -84.1879 C -36.9537 -84.1879 -115.9352 -82.6955 -128.598 -81.3352 C -141.2608 -79.9617 -139.3818 -81.573 -140.3168 -84.9672 C -141.4242 -88.3745 -136.4226 -113.2697 -132.6646 -126.1201 Z M -103.9259 16.1984 C -109.5448 18.2454 -112.8943 22.683 -119.9383 22.5641 C -126.9732 22.5641 -145.9629 17.9021 -150.0204 17.6643 C -154.078 17.4398 -157.6635 21.6528 -159.7876 22.4453 C -161.8754 23.2377 -166.0328 21.0717 -172.287 18.2454 C -178.5322 15.3927 -182.1994 16.1984 -184.2327 3.797 C -186.3387 -8.4855 -184.2327 -26.1036 -184.2327 -26.1036 C -170.7257 -27.0017 -157.6544 -25.1923 -133.2093 -15.1946 C -108.7641 -5.1837 -95.1663 14.0324 -95.1663 14.0324 C -95.1663 14.0324 -98.3071 14.1645 -103.9259 16.1984 Z M 79.8348 105.7681 C 68.6697 107.9341 21.8672 108.502 0.0091 108.502 C -21.8854 108.502 -68.6697 107.8284 -79.862 105.7681 C -91.2631 103.6022 -106.1045 83.7125 -95.8744 67.9301 C -82.0497 46.4423 -84.6185 47.1159 -53.202 41.2124 C -26.0246 36.1013 -5.401 35.8636 0 35.8636 C 5.3011 35.8636 26.0064 36.1938 53.1839 41.1992 C 84.6004 47.1027 82.0315 46.4291 95.838 67.9037 C 106.0863 83.7125 91.254 103.6022 79.8348 105.7681 Z M 184.2237 3.9291 C 182.1177 16.2116 178.514 15.5248 172.2598 18.3643 C 166.0146 21.217 161.8663 23.2641 159.7603 22.5773 C 157.6635 21.8774 154.0689 17.6775 150.0114 17.8096 C 145.9447 18.0473 126.9641 22.6962 119.9383 22.6962 C 112.9306 22.6962 109.5357 18.3643 103.9259 16.3436 C 98.2889 14.3098 95.1573 14.3098 95.1573 14.3098 C 95.1573 14.3098 108.6824 -5.0253 133.2002 -14.9173 C 157.6453 -24.9282 170.6985 -26.7375 184.2237 -25.8263 C 184.2237 -26.0904 186.3296 -8.4723 184.2237 3.9291 Z" fill="rgb(229, 64, 53)" fill-opacity="1" stroke="none" transform="matrix(0.1,0,0,0.075,591.5,640.6643)" transform_matrix="{&quot;a&quot;:0.10000000149011612,&quot;b&quot;:0,&quot;c&quot;:0,&quot;d&quot;:0.07500001043081284,&quot;e&quot;:591.5,&quot;f&quot;:640.664306640625}" my_stoke="none" my_stoke_width="1px" my_stoke_opacity="1" my_fill="rgb(229, 64, 53)" my_fill_opacity="1" my_font_size="16px" opacity="1"/><path d="M -185.638 -0.3555 C -173.8217 -0.6834 -161.9411 -0.4401 -150.0606 -0.4401 L -150.0606 -0.3661 C -139.4272 -0.3661 -128.7296 0.0676 -118.0963 -0.567 C -112.7346 -0.8632 -103.7213 2.8705 -103.4384 -6.3316 C -103.2584 -13.0692 -105.4442 -19.8597 -114.6633 -20.7905 C -139.3372 -23.3396 -164.2684 -23.2549 -188.9038 -20.5895 C -194.8827 -19.9337 -201.7359 -15.9144 -199.6015 -9.2826 C -197.9942 -4.0892 -193.7512 -0.1228 -185.638 -0.3555 Z M -180.0834 -42.0505 C -161.1825 -42.1245 -142.0245 -43.3409 -123.3294 -41.6803 C -100.2883 -39.6495 -83.4704 -46.0381 -68.3882 -63.9451 C -107.5272 -63.9451 -144.0175 -63.797 -180.4949 -64.0509 C -190.3696 -64.1038 -199.7172 -62.8028 -199.28 -53.4738 C -198.9329 -45.0332 -190.0996 -42.0399 -180.0834 -42.0505 Z M -57.0349 38.124 C -65.5981 30.8258 -73.2099 22.2901 -88.9606 22.8084 C -119.0606 23.8132 -149.2505 23.3478 -179.4148 22.9353 C -190.1382 22.7872 -199.9743 24.8074 -199.5886 34.2105 C -199.19 43.2433 -189.1481 45.4434 -178.5533 45.2424 C -160.2311 44.8934 -141.8831 45.1366 -123.548 45.1366 L -123.548 45.0308 C -103.4642 45.0308 -83.3546 45.1155 -63.2323 44.978 C -57.8577 44.9568 -49.8988 44.2693 -57.0349 38.124 Z M 52.976 98.403 L 52.9502 98.403 C 39.1282 106.7906 19.6615 102.0521 3.8208 109.4878 C -0.7951 111.5292 -4.7039 114.4061 -7.7383 117.9389 C -21.4704 135.1055 -34.1224 152.8539 -47.8159 170.0629 C -55.8519 180.2275 -52.7789 189.1546 -42.557 195.3951 C -31.7051 202.0375 -18.4616 201.9211 -9.7955 192.2325 C 14.7885 165.0176 38.5624 137.2633 62.4778 109.583 C 69.0481 101.8617 63.2365 99.4078 52.976 98.403 Z M 198.1784 -48.5237 C 189.3323 -65.1826 172.3086 -57.3132 158.0494 -57.9902 C 144.5874 -58.6037 130.8038 -46.0592 119.4505 -54.3411 C 109.5757 -61.5018 103.854 -73.4222 99.3667 -84.0945 C 93.5807 -97.8976 80.1444 -107.6286 69.421 -121.9923 C 107.3899 -109.9449 130.2253 -121.1778 141.3215 -135.9752 C 154.0507 -153.0043 150.5534 -175.3749 133.2597 -188.5117 C 115.7475 -201.786 89.3633 -203.7956 69.9096 -193.2926 C 45.0556 -179.8808 41.5454 -162.693 58.3505 -128.6664 C 31.375 -135.6367 9.0411 -146.161 -14.7072 -153.8717 C -24.1576 -156.9496 -33.1837 -164.6286 -44.19 -160.916 C -73.287 -151.1111 -102.3327 -140.9782 -130.6326 -129.7136 C -148.0805 -122.7538 -151.835 -112.8642 -144.4675 -101.8111 C -138.5272 -92.81 -123.3422 -89.9013 -108.3887 -95.2851 C -95.6209 -99.865 -82.7503 -104.3497 -70.4455 -109.818 C -49.886 -118.9143 -31.3065 -119.0518 -11.2484 -107.5545 C 1.8279 -100.0765 -0.0237 -95.5283 -9.667 -87.9974 C -31.538 -70.9154 -54.8748 -54.9969 -73.0942 -35.0484 C -86.492 -20.3674 -85.8619 -5.2527 -69.8155 7.3764 C -50.0402 22.9353 -29.3393 37.7221 -9.2812 53.0166 C -3.0452 57.7128 2.3807 62.4937 -12.1999 64.6937 C -31.7823 67.7082 -51.0432 72.0342 -70.5483 75.3343 C -84.8076 77.7141 -96.521 88.6509 -94.078 98.1808 C -91.2107 109.4983 -74.1742 116.7542 -59.5293 113.909 C -20.9175 106.3781 17.72 98.9636 56.6018 92.2894 C 76.5185 88.8624 85.8275 72.5208 73.8826 59.3417 C 62.7221 47.1146 50.7258 35.3634 39.9511 22.9035 C 14.6985 -6.3104 14.8785 -6.4056 46.74 -31.9811 C 64.6637 -46.3342 64.4707 -46.2707 78.0743 -27.5704 C 84.0017 -19.4366 89.0548 -9.5576 103.6611 -10.5095 C 132.4368 -12.424 160.3252 -18.4953 188.0594 -24.5877 C 198.5641 -26.8829 202.7172 -40.0091 198.1784 -48.5237 Z" fill="rgb(229, 64, 53)" fill-opacity="1" stroke="none" transform="matrix(0.1,0,0,0.125,682.5,658.8143)" transform_matrix="{&quot;a&quot;:0.10000000149011612,&quot;b&quot;:0,&quot;c&quot;:0,&quot;d&quot;:0.125,&quot;e&quot;:682.5,&quot;f&quot;:658.8142700195312}" my_stoke="none" my_stoke_width="1px" my_stoke_opacity="1" my_fill="rgb(229, 64, 53)" my_fill_opacity="1" my_font_size="16px" opacity="1"/><path d="M 34.7808 -113.3127 C 72.214 -113.3127 102.5631 -132.7111 102.5631 -156.6563 C 102.5631 -180.6016 72.214 -200 34.7808 -200 C -2.5921 -200 -32.9411 -180.6016 -32.9411 -156.6563 C -32.9411 -132.7111 -2.5921 -113.3127 34.7808 -113.3127 Z M 174.9541 -17.158 C 141.4252 -23.1733 98.4977 -37.7672 79.7207 -71.2442 C 60.9639 -104.7341 16.7082 -109.8606 -16.8207 -109.8606 C -50.3496 -109.8606 -159.6707 -59.7031 -159.6707 -59.7031 C -182.4727 -46.8095 -201.934 24.0475 -179.1319 27.4866 C -156.3299 30.9515 -153.6532 7.7405 -140.2094 -18.8711 C -126.8059 -45.4699 -63.7934 -63.5157 -63.7934 -63.5157 C -63.7934 -63.5157 -59.7482 -31.739 -71.8032 -13.7188 C -83.8584 4.3013 -94.6053 23.1973 -101.3272 66.116 C -108.0491 109.0345 -133.5278 113.3238 -177.7835 146.8266 C -222.0392 180.2908 -189.8587 195.7348 -169.7736 194.0216 C -149.608 192.3085 -51.7382 121.9153 -41.0114 103.8823 C -30.2846 85.8879 -27.5676 55.8113 -27.5676 55.8113 C -27.5676 55.8113 -27.5676 55.8113 16.6881 79.8597 C 60.9438 103.8823 63.6204 139.1111 77.0239 179.4277 C 90.4275 219.7444 123.9563 191.4584 123.9563 173.4124 C 123.9563 155.3665 129.3701 103.0192 103.831 82.423 C 78.3724 61.8138 28.7633 37.7912 28.7633 14.6059 C 28.7633 -8.5794 52.8936 -33.465 52.8936 -33.465 C 59.5753 -11.9928 120.0118 6.0145 165.5757 10.3166 C 211.1999 14.6059 208.483 -11.1427 174.9541 -17.158 Z" fill="rgb(229, 64, 53)" fill-opacity="1" stroke="none" transform="matrix(0.1,0,0,0.125,773.5,663.4071)" transform_matrix="{&quot;a&quot;:0.10000000149011612,&quot;b&quot;:0,&quot;c&quot;:0,&quot;d&quot;:0.125,&quot;e&quot;:773.5,&quot;f&quot;:663.4071044921875}" my_stoke="none" my_stoke_width="1px" my_stoke_opacity="1" my_fill="rgb(229, 64, 53)" my_fill_opacity="1" my_font_size="16px" opacity="1"/><path d="M 31.85 703 L 241.15 703 L 241.15 66.0786 L 31.85 66.0786 L 31.85 703 Z" fill="none" fill-opacity="1" stroke="none" stroke-width="0" paint-order="fill" stroke-opacity="1" stroke-dasharray="" stroke-linecap="butt" stroke-miterlimit="10" transform_matrix="{&quot;a&quot;:1,&quot;b&quot;:0,&quot;c&quot;:0,&quot;d&quot;:1,&quot;e&quot;:0,&quot;f&quot;:0}" my_stoke="none" my_stoke_width="0px" my_stoke_opacity="1" my_fill="none" my_fill_opacity="1" my_font_size="16px" opacity="1"/><path d="M 122.85 703 L 332.15 703 L 332.15 355.4286 L 122.85 355.4286 L 122.85 703 Z" fill="none" fill-opacity="1" stroke="none" stroke-width="0" paint-order="fill" stroke-opacity="1" stroke-dasharray="" stroke-linecap="butt" stroke-miterlimit="10" transform_matrix="{&quot;a&quot;:1,&quot;b&quot;:0,&quot;c&quot;:0,&quot;d&quot;:1,&quot;e&quot;:0,&quot;f&quot;:0}" my_stoke="none" my_stoke_width="0px" my_stoke_opacity="1" my_fill="none" my_fill_opacity="1" my_font_size="16px" opacity="1"/><path d="M 213.85 703 L 423.15 703 L 423.15 546.1786 L 213.85 546.1786 L 213.85 703 Z" fill="none" fill-opacity="1" stroke="none" stroke-width="0" paint-order="fill" stroke-opacity="1" stroke-dasharray="" stroke-linecap="butt" stroke-miterlimit="10" transform_matrix="{&quot;a&quot;:1,&quot;b&quot;:0,&quot;c&quot;:0,&quot;d&quot;:1,&quot;e&quot;:0,&quot;f&quot;:0}" my_stoke="none" my_stoke_width="0px" my_stoke_opacity="1" my_fill="none" my_fill_opacity="1" my_font_size="16px" opacity="1"/><path d="M 304.85 703 L 514.15 703 L 514.15 584.3286 L 304.85 584.3286 L 304.85 703 Z" fill="none" fill-opacity="1" stroke="none" stroke-width="0" paint-order="fill" stroke-opacity="1" stroke-dasharray="" stroke-linecap="butt" stroke-miterlimit="10" transform_matrix="{&quot;a&quot;:1,&quot;b&quot;:0,&quot;c&quot;:0,&quot;d&quot;:1,&quot;e&quot;:0,&quot;f&quot;:0}" my_stoke="none" my_stoke_width="0px" my_stoke_opacity="1" my_fill="none" my_fill_opacity="1" my_font_size="16px" opacity="1"/><path d="M 395.85 703 L 605.15 703 L 605.15 605.8857 L 395.85 605.8857 L 395.85 703 Z" fill="none" fill-opacity="1" stroke="none" stroke-width="0" paint-order="fill" stroke-opacity="1" stroke-dasharray="" stroke-linecap="butt" stroke-miterlimit="10" transform_matrix="{&quot;a&quot;:1,&quot;b&quot;:0,&quot;c&quot;:0,&quot;d&quot;:1,&quot;e&quot;:0,&quot;f&quot;:0}" my_stoke="none" my_stoke_width="0px" my_stoke_opacity="1" my_fill="none" my_fill_opacity="1" my_font_size="16px" opacity="1"/><path d="M 486.85 703 L 696.15 703 L 696.15 625.6643 L 486.85 625.6643 L 486.85 703 Z" fill="none" fill-opacity="1" stroke="none" stroke-width="0" paint-order="fill" stroke-opacity="1" stroke-dasharray="" stroke-linecap="butt" stroke-miterlimit="10" transform_matrix="{&quot;a&quot;:1,&quot;b&quot;:0,&quot;c&quot;:0,&quot;d&quot;:1,&quot;e&quot;:0,&quot;f&quot;:0}" my_stoke="none" my_stoke_width="0px" my_stoke_opacity="1" my_fill="none" my_fill_opacity="1" my_font_size="16px" opacity="1"/><path d="M 577.85 703 L 787.15 703 L 787.15 633.8143 L 577.85 633.8143 L 577.85 703 Z" fill="none" fill-opacity="1" stroke="none" stroke-width="0" paint-order="fill" stroke-opacity="1" stroke-dasharray="" stroke-linecap="butt" stroke-miterlimit="10" transform_matrix="{&quot;a&quot;:1,&quot;b&quot;:0,&quot;c&quot;:0,&quot;d&quot;:1,&quot;e&quot;:0,&quot;f&quot;:0}" my_stoke="none" my_stoke_width="0px" my_stoke_opacity="1" my_fill="none" my_fill_opacity="1" my_font_size="16px" opacity="1"/><path d="M 668.85 703 L 878.15 703 L 878.15 638.4071 L 668.85 638.4071 L 668.85 703 Z" fill="none" fill-opacity="1" stroke="none" stroke-width="0" paint-order="fill" stroke-opacity="1" stroke-dasharray="" stroke-linecap="butt" stroke-miterlimit="10" transform_matrix="{&quot;a&quot;:1,&quot;b&quot;:0,&quot;c&quot;:0,&quot;d&quot;:1,&quot;e&quot;:0,&quot;f&quot;:0}" my_stoke="none" my_stoke_width="0px" my_stoke_opacity="1" my_fill="none" my_fill_opacity="1" my_font_size="16px" opacity="1"/><path d="M -200 200 L 200 200 C 20 200 20 0 0 -200 C -20 0 -20 200 -200 200 Z" fill="rgb(229, 64, 53)" fill-opacity="0.5" stroke="none" transform="matrix(0.523,0,0,1.412,136.5,420.5393)" transform_matrix="{&quot;a&quot;:0.5230000019073486,&quot;b&quot;:0,&quot;c&quot;:0,&quot;d&quot;:1.4119999408721924,&quot;e&quot;:136.5,&quot;f&quot;:420.539306640625}" my_stoke="none" my_stoke_width="1px" my_stoke_opacity="1" my_fill="rgb(229, 64, 53)" my_fill_opacity="0.5" my_font_size="16px" opacity="1"/><path d="M -200 200 L 200 200 C 20 200 20 0 0 -200 C -20 0 -20 200 -200 200 Z" fill="rgb(229, 64, 53)" fill-opacity="0.5" stroke="none" transform="matrix(0.523,0,0,0.689,227.5,565.2143)" transform_matrix="{&quot;a&quot;:0.5230000019073486,&quot;b&quot;:0,&quot;c&quot;:0,&quot;d&quot;:0.6890000104904175,&quot;e&quot;:227.5,&quot;f&quot;:565.2142944335938}" my_stoke="none" my_stoke_width="1px" my_stoke_opacity="1" my_fill="rgb(229, 64, 53)" my_fill_opacity="0.5" my_font_size="16px" opacity="1"/><path d="M -200 200 L 200 200 C 20 200 20 0 0 -200 C -20 0 -20 200 -200 200 Z" fill="rgb(229, 64, 53)" fill-opacity="0.5" stroke="none" transform="matrix(0.523,0,0,0.287,318.5,645.5893)" transform_matrix="{&quot;a&quot;:0.5230000019073486,&quot;b&quot;:0,&quot;c&quot;:0,&quot;d&quot;:0.28700000047683716,&quot;e&quot;:318.5,&quot;f&quot;:645.5892944335938}" my_stoke="none" my_stoke_width="1px" my_stoke_opacity="1" my_fill="rgb(229, 64, 53)" my_fill_opacity="0.5" my_font_size="16px" opacity="1"/><path d="M -200 200 L 200 200 C 20 200 20 0 0 -200 C -20 0 -20 200 -200 200 Z" fill="rgb(229, 64, 53)" fill-opacity="0.5" stroke="none" transform="matrix(0.523,0,0,0.207,409.5,661.6643)" transform_matrix="{&quot;a&quot;:0.5230000019073486,&quot;b&quot;:0,&quot;c&quot;:0,&quot;d&quot;:0.2070000022649765,&quot;e&quot;:409.5,&quot;f&quot;:661.664306640625}" my_stoke="none" my_stoke_width="1px" my_stoke_opacity="1" my_fill="rgb(229, 64, 53)" my_fill_opacity="0.5" my_font_size="16px" opacity="1"/><path d="M -200 200 L 200 200 C 20 200 20 0 0 -200 C -20 0 -20 200 -200 200 Z" fill="rgb(229, 64, 53)" fill-opacity="0.5" stroke="none" transform="matrix(0.523,0,0,0.138,500.5,675.4429)" transform_matrix="{&quot;a&quot;:0.5230000019073486,&quot;b&quot;:0,&quot;c&quot;:0,&quot;d&quot;:0.1379999965429306,&quot;e&quot;:500.5,&quot;f&quot;:675.44287109375}" my_stoke="none" my_stoke_width="1px" my_stoke_opacity="1" my_fill="rgb(229, 64, 53)" my_fill_opacity="0.5" my_font_size="16px" opacity="1"/><path d="M -200 200 L 200 200 C 20 200 20 0 0 -200 C -20 0 -20 200 -200 200 Z" fill="rgb(229, 64, 53)" fill-opacity="0.5" stroke="none" transform="matrix(0.523,0,0,0.103,591.5,682.3321)" transform_matrix="{&quot;a&quot;:0.5230000019073486,&quot;b&quot;:0,&quot;c&quot;:0,&quot;d&quot;:0.10300000011920929,&quot;e&quot;:591.5,&quot;f&quot;:682.3320922851562}" my_stoke="none" my_stoke_width="1px" my_stoke_opacity="1" my_fill="rgb(229, 64, 53)" my_fill_opacity="0.5" my_font_size="16px" opacity="1"/><path d="M -200 200 L 200 200 C 20 200 20 0 0 -200 C -20 0 -20 200 -200 200 Z" fill="rgb(229, 64, 53)" fill-opacity="0.5" stroke="none" transform="matrix(0.523,0,0,0.023,682.5,698.4071)" transform_matrix="{&quot;a&quot;:0.5230000019073486,&quot;b&quot;:0,&quot;c&quot;:0,&quot;d&quot;:0.023000001907348633,&quot;e&quot;:682.5,&quot;f&quot;:698.4071044921875}" my_stoke="none" my_stoke_width="1px" my_stoke_opacity="1" my_fill="rgb(229, 64, 53)" my_fill_opacity="0.5" my_font_size="16px" opacity="1"/><path d="M -200 200 L 200 200 C 20 200 20 0 0 -200 C -20 0 -20 200 -200 200 Z" fill="rgb(229, 64, 53)" fill-opacity="0.5" stroke="none" transform="matrix(0.523,0,0,0.011,773.5,700.7036)" transform_matrix="{&quot;a&quot;:0.5230000019073486,&quot;b&quot;:0,&quot;c&quot;:0,&quot;d&quot;:0.01100000087171793,&quot;e&quot;:773.5,&quot;f&quot;:700.70361328125}" my_stoke="none" my_stoke_width="1px" my_stoke_opacity="1" my_fill="rgb(229, 64, 53)" my_fill_opacity="0.5" my_font_size="16px" opacity="1"/><path d="M 31.85 703 L 241.15 703 L 241.15 138.0786 L 31.85 138.0786 L 31.85 703 Z" fill="none" fill-opacity="1" stroke="none" stroke-width="0" paint-order="fill" stroke-opacity="1" stroke-dasharray="" stroke-linecap="butt" stroke-miterlimit="10" transform_matrix="{&quot;a&quot;:1,&quot;b&quot;:0,&quot;c&quot;:0,&quot;d&quot;:1,&quot;e&quot;:0,&quot;f&quot;:0}" my_stoke="none" my_stoke_width="0px" my_stoke_opacity="1" my_fill="none" my_fill_opacity="1" my_font_size="16px" opacity="1"/><path d="M 122.85 703 L 332.15 703 L 332.15 427.4286 L 122.85 427.4286 L 122.85 703 Z" fill="none" fill-opacity="1" stroke="none" stroke-width="0" paint-order="fill" stroke-opacity="1" stroke-dasharray="" stroke-linecap="butt" stroke-miterlimit="10" transform_matrix="{&quot;a&quot;:1,&quot;b&quot;:0,&quot;c&quot;:0,&quot;d&quot;:1,&quot;e&quot;:0,&quot;f&quot;:0}" my_stoke="none" my_stoke_width="0px" my_stoke_opacity="1" my_fill="none" my_fill_opacity="1" my_font_size="16px" opacity="1"/><path d="M 213.85 703 L 423.15 703 L 423.15 588.1786 L 213.85 588.1786 L 213.85 703 Z" fill="none" fill-opacity="1" stroke="none" stroke-width="0" paint-order="fill" stroke-opacity="1" stroke-dasharray="" stroke-linecap="butt" stroke-miterlimit="10" transform_matrix="{&quot;a&quot;:1,&quot;b&quot;:0,&quot;c&quot;:0,&quot;d&quot;:1,&quot;e&quot;:0,&quot;f&quot;:0}" my_stoke="none" my_stoke_width="0px" my_stoke_opacity="1" my_fill="none" my_fill_opacity="1" my_font_size="16px" opacity="1"/><path d="M 304.85 703 L 514.15 703 L 514.15 620.3286 L 304.85 620.3286 L 304.85 703 Z" fill="none" fill-opacity="1" stroke="none" stroke-width="0" paint-order="fill" stroke-opacity="1" stroke-dasharray="" stroke-linecap="butt" stroke-miterlimit="10" transform_matrix="{&quot;a&quot;:1,&quot;b&quot;:0,&quot;c&quot;:0,&quot;d&quot;:1,&quot;e&quot;:0,&quot;f&quot;:0}" my_stoke="none" my_stoke_width="0px" my_stoke_opacity="1" my_fill="none" my_fill_opacity="1" my_font_size="16px" opacity="1"/><path d="M 395.85 703 L 605.15 703 L 605.15 647.8857 L 395.85 647.8857 L 395.85 703 Z" fill="none" fill-opacity="1" stroke="none" stroke-width="0" paint-order="fill" stroke-opacity="1" stroke-dasharray="" stroke-linecap="butt" stroke-miterlimit="10" transform_matrix="{&quot;a&quot;:1,&quot;b&quot;:0,&quot;c&quot;:0,&quot;d&quot;:1,&quot;e&quot;:0,&quot;f&quot;:0}" my_stoke="none" my_stoke_width="0px" my_stoke_opacity="1" my_fill="none" my_fill_opacity="1" my_font_size="16px" opacity="1"/><path d="M 486.85 703 L 696.15 703 L 696.15 661.6643 L 486.85 661.6643 L 486.85 703 Z" fill="none" fill-opacity="1" stroke="none" stroke-width="0" paint-order="fill" stroke-opacity="1" stroke-dasharray="" stroke-linecap="butt" stroke-miterlimit="10" transform_matrix="{&quot;a&quot;:1,&quot;b&quot;:0,&quot;c&quot;:0,&quot;d&quot;:1,&quot;e&quot;:0,&quot;f&quot;:0}" my_stoke="none" my_stoke_width="0px" my_stoke_opacity="1" my_fill="none" my_fill_opacity="1" my_font_size="16px" opacity="1"/><path d="M 577.85 703 L 787.15 703 L 787.15 693.8143 L 577.85 693.8143 L 577.85 703 Z" fill="none" fill-opacity="1" stroke="none" stroke-width="0" paint-order="fill" stroke-opacity="1" stroke-dasharray="" stroke-linecap="butt" stroke-miterlimit="10" transform_matrix="{&quot;a&quot;:1,&quot;b&quot;:0,&quot;c&quot;:0,&quot;d&quot;:1,&quot;e&quot;:0,&quot;f&quot;:0}" my_stoke="none" my_stoke_width="0px" my_stoke_opacity="1" my_fill="none" my_fill_opacity="1" my_font_size="16px" opacity="1"/><path d="M 668.85 703 L 878.15 703 L 878.15 698.4071 L 668.85 698.4071 L 668.85 703 Z" fill="none" fill-opacity="1" stroke="none" stroke-width="0" paint-order="fill" stroke-opacity="1" stroke-dasharray="" stroke-linecap="butt" stroke-miterlimit="10" transform_matrix="{&quot;a&quot;:1,&quot;b&quot;:0,&quot;c&quot;:0,&quot;d&quot;:1,&quot;e&quot;:0,&quot;f&quot;:0}" my_stoke="none" my_stoke_width="0px" my_stoke_opacity="1" my_fill="none" my_fill_opacity="1" my_font_size="16px" opacity="1"/></g></svg>