<svg xmlns="http://www.w3.org/2000/svg" xmlns:xlink="http://www.w3.org/1999/xlink" version="1.1" baseProfile="full" width="910" height="773" style="user-select: none; position: absolute; left: 0px; top: 0px;" transform_matrix="{&quot;a&quot;:1,&quot;b&quot;:0,&quot;c&quot;:0,&quot;d&quot;:1,&quot;e&quot;:0,&quot;f&quot;:0}"><g><path d="M 550.6709 155.5301 L 556.4111 141.6719 L 571.4107 141.6719" fill="none" stroke="#5470c6" stroke-width="1" paint-order="fill" stroke-opacity="1" stroke-dasharray="" stroke-linecap="butt" stroke-miterlimit="10" transform_matrix="{&quot;a&quot;:1,&quot;b&quot;:0,&quot;c&quot;:0,&quot;d&quot;:1,&quot;e&quot;:0,&quot;f&quot;:0}" my_stoke="rgb(84, 112, 198)" my_stoke_width="1px" my_stoke_opacity="1" my_fill="none" my_fill_opacity="1" my_font_size="16px" opacity="1"/><path d="M 676.7311 294.656 L 699.8281 285.0889 L 714.8275 285.0889" fill="none" stroke="#91cc75" stroke-width="1" paint-order="fill" stroke-opacity="1" stroke-dasharray="" stroke-linecap="butt" stroke-miterlimit="10" transform_matrix="{&quot;a&quot;:1,&quot;b&quot;:0,&quot;c&quot;:0,&quot;d&quot;:1,&quot;e&quot;:0,&quot;f&quot;:0}" my_stoke="rgb(145, 204, 117)" my_stoke_width="1px" my_stoke_opacity="1" my_fill="none" my_fill_opacity="1" my_font_size="16px" opacity="1"/><path d="M 649.0147 466.8635 L 699.8281 487.9111 L 714.8271 487.9111" fill="none" stroke="#fac858" stroke-width="1" paint-order="fill" stroke-opacity="1" stroke-dasharray="" stroke-linecap="butt" stroke-miterlimit="10" transform_matrix="{&quot;a&quot;:1,&quot;b&quot;:0,&quot;c&quot;:0,&quot;d&quot;:1,&quot;e&quot;:0,&quot;f&quot;:0}" my_stoke="rgb(250, 200, 88)" my_stoke_width="1px" my_stoke_opacity="1" my_fill="none" my_fill_opacity="1" my_font_size="16px" opacity="1"/><path d="M 531.5367 571.2759 L 556.4111 631.3281 L 571.41 631.3281" fill="none" stroke="#ee6666" stroke-width="1" paint-order="fill" stroke-opacity="1" stroke-dasharray="" stroke-linecap="butt" stroke-miterlimit="10" transform_matrix="{&quot;a&quot;:1,&quot;b&quot;:0,&quot;c&quot;:0,&quot;d&quot;:1,&quot;e&quot;:0,&quot;f&quot;:0}" my_stoke="rgb(238, 102, 102)" my_stoke_width="1px" my_stoke_opacity="1" my_fill="none" my_fill_opacity="1" my_font_size="16px" opacity="1"/><path d="M 382.2901 562.0371 L 353.5889 631.3281 L 338.5901 631.3281" fill="none" stroke="#73c0de" stroke-width="1" paint-order="fill" stroke-opacity="1" stroke-dasharray="" stroke-linecap="butt" stroke-miterlimit="10" transform_matrix="{&quot;a&quot;:1,&quot;b&quot;:0,&quot;c&quot;:0,&quot;d&quot;:1,&quot;e&quot;:0,&quot;f&quot;:0}" my_stoke="rgb(115, 192, 222)" my_stoke_width="1px" my_stoke_opacity="1" my_fill="none" my_fill_opacity="1" my_font_size="16px" opacity="1"/><path d="M 288.7017 455.383 L 210.1719 487.9111 L 195.1733 487.9111" fill="none" stroke="#3ba272" stroke-width="1" paint-order="fill" stroke-opacity="1" stroke-dasharray="" stroke-linecap="butt" stroke-miterlimit="10" transform_matrix="{&quot;a&quot;:1,&quot;b&quot;:0,&quot;c&quot;:0,&quot;d&quot;:1,&quot;e&quot;:0,&quot;f&quot;:0}" my_stoke="rgb(59, 162, 114)" my_stoke_width="1px" my_stoke_opacity="1" my_fill="none" my_fill_opacity="1" my_font_size="16px" opacity="1"/><path d="M 307.1793 325.2707 L 210.1719 285.0889 L 195.1735 285.0889" fill="none" stroke="#fc8452" stroke-width="1" paint-order="fill" stroke-opacity="1" stroke-dasharray="" stroke-linecap="butt" stroke-miterlimit="10" transform_matrix="{&quot;a&quot;:1,&quot;b&quot;:0,&quot;c&quot;:0,&quot;d&quot;:1,&quot;e&quot;:0,&quot;f&quot;:0}" my_stoke="rgb(252, 132, 82)" my_stoke_width="1px" my_stoke_opacity="1" my_fill="none" my_fill_opacity="1" my_font_size="16px" opacity="1"/><path d="M 401.4243 257.1569 L 353.5889 141.6719 L 338.5908 141.6719" fill="none" stroke="#9a60b4" stroke-width="1" paint-order="fill" stroke-opacity="1" stroke-dasharray="" stroke-linecap="butt" stroke-miterlimit="10" transform_matrix="{&quot;a&quot;:1,&quot;b&quot;:0,&quot;c&quot;:0,&quot;d&quot;:1,&quot;e&quot;:0,&quot;f&quot;:0}" my_stoke="rgb(154, 96, 180)" my_stoke_width="1px" my_stoke_opacity="1" my_fill="none" my_fill_opacity="1" my_font_size="16px" opacity="1"/><path d="M 455 144.6323 A 8 8 0 0 1 463.2645 136.6366 A 250 250 0 0 1 625.8362 203.9761 A 8 8 0 0 1 626.0263 215.4737 L 495.6202 345.8798 A 8 8 0 0 1 485.1408 346.606 A 50 50 0 0 0 461.8966 336.9779 A 8 8 0 0 1 455 329.0544 Z" fill="rgb(84, 112, 198)" fill-opacity="1" stroke="none" transform_matrix="{&quot;a&quot;:1,&quot;b&quot;:0,&quot;c&quot;:0,&quot;d&quot;:1,&quot;e&quot;:0,&quot;f&quot;:0}" my_stoke="none" my_stoke_width="1px" my_stoke_opacity="1" my_fill="rgb(84, 112, 198)" my_fill_opacity="1" my_font_size="16px" opacity="1"/><path d="M 618.9512 222.5488 A 8 8 0 0 1 630.4566 222.7472 A 240 240 0 0 1 694.8573 378.2241 A 8 8 0 0 1 686.862 386.5 L 512.4456 386.5 A 8 8 0 0 1 504.5221 379.6034 A 50 50 0 0 0 494.894 356.3592 A 8 8 0 0 1 495.6202 345.8798 Z" fill="rgb(145, 204, 117)" fill-opacity="1" stroke="none" transform_matrix="{&quot;a&quot;:1,&quot;b&quot;:0,&quot;c&quot;:0,&quot;d&quot;:1,&quot;e&quot;:0,&quot;f&quot;:0}" my_stoke="none" my_stoke_width="1px" my_stoke_opacity="1" my_fill="rgb(145, 204, 117)" my_fill_opacity="1" my_font_size="16px" opacity="1"/><path d="M 656.8415 386.5 A 8 8 0 0 1 664.8352 394.8168 A 210 210 0 0 1 609.2568 528.995 A 8 8 0 0 1 597.7235 529.2235 L 495.6202 427.1202 A 8 8 0 0 1 494.894 416.6408 A 50 50 0 0 0 504.5221 393.3966 A 8 8 0 0 1 512.4456 386.5 Z" fill="rgb(250, 200, 88)" fill-opacity="1" stroke="none" transform_matrix="{&quot;a&quot;:1,&quot;b&quot;:0,&quot;c&quot;:0,&quot;d&quot;:1,&quot;e&quot;:0,&quot;f&quot;:0}" my_stoke="none" my_stoke_width="1px" my_stoke_opacity="1" my_fill="rgb(250, 200, 88)" my_fill_opacity="1" my_font_size="16px" opacity="1"/><path d="M 590.6466 522.1466 A 8 8 0 0 1 590.406 533.6911 A 200 200 0 0 1 463.3333 586.3263 A 8 8 0 0 1 455 578.3333 L 455 443.9456 A 8 8 0 0 1 461.8966 436.0221 A 50 50 0 0 0 485.1408 426.394 A 8 8 0 0 1 495.6202 427.1202 Z" fill="rgb(238, 102, 102)" fill-opacity="1" stroke="none" transform_matrix="{&quot;a&quot;:1,&quot;b&quot;:0,&quot;c&quot;:0,&quot;d&quot;:1,&quot;e&quot;:0,&quot;f&quot;:0}" my_stoke="none" my_stoke_width="1px" my_stoke_opacity="1" my_fill="rgb(238, 102, 102)" my_fill_opacity="1" my_font_size="16px" opacity="1"/><path d="M 455 568.3241 A 8 8 0 0 1 446.6484 576.3164 A 190 190 0 0 1 326.6851 526.6259 A 8 8 0 0 1 326.431 515.069 L 414.3798 427.1202 A 8 8 0 0 1 424.8592 426.394 A 50 50 0 0 0 448.1034 436.0221 A 8 8 0 0 1 455 443.9456 Z" fill="rgb(115, 192, 222)" fill-opacity="1" stroke="none" transform_matrix="{&quot;a&quot;:1,&quot;b&quot;:0,&quot;c&quot;:0,&quot;d&quot;:1,&quot;e&quot;:0,&quot;f&quot;:0}" my_stoke="none" my_stoke_width="1px" my_stoke_opacity="1" my_fill="rgb(115, 192, 222)" my_fill_opacity="1" my_font_size="16px" opacity="1"/><path d="M 333.5093 507.9907 A 8 8 0 0 1 321.9386 507.7215 A 180 180 0 0 1 275.1948 394.8721 A 8 8 0 0 1 283.1861 386.5 L 397.5544 386.5 A 8 8 0 0 1 405.4779 393.3966 A 50 50 0 0 0 415.106 416.6408 A 8 8 0 0 1 414.3798 427.1202 Z" fill="rgb(59, 162, 114)" fill-opacity="1" stroke="none" transform_matrix="{&quot;a&quot;:1,&quot;b&quot;:0,&quot;c&quot;:0,&quot;d&quot;:1,&quot;e&quot;:0,&quot;f&quot;:0}" my_stoke="none" my_stoke_width="1px" my_stoke_opacity="1" my_fill="rgb(59, 162, 114)" my_fill_opacity="1" my_font_size="16px" opacity="1"/><path d="M 303.2107 386.5 A 8 8 0 0 1 295.2218 378.0789 A 160 160 0 0 1 336.0651 279.4743 A 8 8 0 0 1 347.6687 279.1687 L 414.3798 345.8798 A 8 8 0 0 1 415.106 356.3592 A 50 50 0 0 0 405.4779 379.6034 A 8 8 0 0 1 397.5544 386.5 Z" fill="rgb(252, 132, 82)" fill-opacity="1" stroke="none" transform_matrix="{&quot;a&quot;:1,&quot;b&quot;:0,&quot;c&quot;:0,&quot;d&quot;:1,&quot;e&quot;:0,&quot;f&quot;:0}" my_stoke="none" my_stoke_width="1px" my_stoke_opacity="1" my_fill="rgb(252, 132, 82)" my_fill_opacity="1" my_font_size="16px" opacity="1"/><path d="M 361.8335 293.3335 A 8 8 0 0 1 362.1867 281.6873 A 140 140 0 0 1 446.5152 246.7574 A 8 8 0 0 1 455 254.7426 L 455 329.0544 A 8 8 0 0 1 448.1034 336.9779 A 50 50 0 0 0 424.8592 346.606 A 8 8 0 0 1 414.3798 345.8798 Z" fill="rgb(154, 96, 180)" fill-opacity="1" stroke="none" transform_matrix="{&quot;a&quot;:1,&quot;b&quot;:0,&quot;c&quot;:0,&quot;d&quot;:1,&quot;e&quot;:0,&quot;f&quot;:0}" my_stoke="none" my_stoke_width="1px" my_stoke_opacity="1" my_fill="rgb(154, 96, 180)" my_fill_opacity="1" my_font_size="16px" opacity="1"/><text xml:space="preserve" fill="rgb(51, 51, 51)" fill-opacity="1" stroke="rgb(255, 255, 255)" stroke-width="2px" paint-order="stroke" stroke-opacity="1" stroke-dasharray="" stroke-linecap="butt" stroke-miterlimit="2" transform="matrix(1,0,0,1,576.4111,141.6719)" dominant-baseline="central" text-anchor="start" x="0" y="0" style="font: 12px &quot;Microsoft YaHei&quot;; fill: rgb(51, 51, 51);" transform_matrix="{&quot;a&quot;:1,&quot;b&quot;:0,&quot;c&quot;:0,&quot;d&quot;:1,&quot;e&quot;:576.4110717773438,&quot;f&quot;:141.67190551757812}" text_bbox="{&quot;x&quot;:0,&quot;y&quot;:-8,&quot;w&quot;:35.171875,&quot;h&quot;:16}" opacity="1" font-family="&quot;Microsoft YaHei&quot;" my_stoke="rgb(255, 255, 255)" my_stoke_width="2px" my_stoke_opacity="1" my_fill="rgb(51, 51, 51)" my_fill_opacity="1" my_font_size="12px" clip-path="none" content="rose 1">rose 1</text><text xml:space="preserve" fill="rgb(51, 51, 51)" fill-opacity="1" stroke="rgb(255, 255, 255)" stroke-width="2px" paint-order="stroke" stroke-opacity="1" stroke-dasharray="" stroke-linecap="butt" stroke-miterlimit="2" transform="matrix(1,0,0,1,719.8281,285.0889)" dominant-baseline="central" text-anchor="start" x="0" y="0" style="font: 12px &quot;Microsoft YaHei&quot;; fill: rgb(51, 51, 51);" transform_matrix="{&quot;a&quot;:1,&quot;b&quot;:0,&quot;c&quot;:0,&quot;d&quot;:1,&quot;e&quot;:719.828125,&quot;f&quot;:285.0888977050781}" text_bbox="{&quot;x&quot;:0,&quot;y&quot;:-8,&quot;w&quot;:35.171875,&quot;h&quot;:16}" opacity="1" font-family="&quot;Microsoft YaHei&quot;" my_stoke="rgb(255, 255, 255)" my_stoke_width="2px" my_stoke_opacity="1" my_fill="rgb(51, 51, 51)" my_fill_opacity="1" my_font_size="12px" clip-path="none" content="rose 2">rose 2</text><text xml:space="preserve" fill="rgb(51, 51, 51)" fill-opacity="1" stroke="rgb(255, 255, 255)" stroke-width="2px" paint-order="stroke" stroke-opacity="1" stroke-dasharray="" stroke-linecap="butt" stroke-miterlimit="2" transform="matrix(1,0,0,1,719.8281,487.9111)" dominant-baseline="central" text-anchor="start" x="0" y="0" style="font: 12px &quot;Microsoft YaHei&quot;; fill: rgb(51, 51, 51);" transform_matrix="{&quot;a&quot;:1,&quot;b&quot;:0,&quot;c&quot;:0,&quot;d&quot;:1,&quot;e&quot;:719.828125,&quot;f&quot;:487.9111022949219}" text_bbox="{&quot;x&quot;:0,&quot;y&quot;:-8,&quot;w&quot;:35.171875,&quot;h&quot;:16}" opacity="1" font-family="&quot;Microsoft YaHei&quot;" my_stoke="rgb(255, 255, 255)" my_stoke_width="2px" my_stoke_opacity="1" my_fill="rgb(51, 51, 51)" my_fill_opacity="1" my_font_size="12px" clip-path="none" content="rose 3">rose 3</text><text xml:space="preserve" fill="rgb(51, 51, 51)" fill-opacity="1" stroke="rgb(255, 255, 255)" stroke-width="2px" paint-order="stroke" stroke-opacity="1" stroke-dasharray="" stroke-linecap="butt" stroke-miterlimit="2" transform="matrix(1,0,0,1,576.4111,631.3281)" dominant-baseline="central" text-anchor="start" x="0" y="0" style="font: 12px &quot;Microsoft YaHei&quot;; fill: rgb(51, 51, 51);" transform_matrix="{&quot;a&quot;:1,&quot;b&quot;:0,&quot;c&quot;:0,&quot;d&quot;:1,&quot;e&quot;:576.4110717773438,&quot;f&quot;:631.328125}" text_bbox="{&quot;x&quot;:0,&quot;y&quot;:-8,&quot;w&quot;:36.125,&quot;h&quot;:16}" opacity="1" font-family="&quot;Microsoft YaHei&quot;" my_stoke="rgb(255, 255, 255)" my_stoke_width="2px" my_stoke_opacity="1" my_fill="rgb(51, 51, 51)" my_fill_opacity="1" my_font_size="12px" clip-path="none" content="rose 4">rose 4</text><text xml:space="preserve" fill="rgb(51, 51, 51)" fill-opacity="1" stroke="rgb(255, 255, 255)" stroke-width="2px" paint-order="stroke" stroke-opacity="1" stroke-dasharray="" stroke-linecap="butt" stroke-miterlimit="2" transform="matrix(1,0,0,1,333.5889,631.3281)" dominant-baseline="central" text-anchor="end" x="0" y="0" style="font: 12px &quot;Microsoft YaHei&quot;; fill: rgb(51, 51, 51);" transform_matrix="{&quot;a&quot;:1,&quot;b&quot;:0,&quot;c&quot;:0,&quot;d&quot;:1,&quot;e&quot;:333.5888977050781,&quot;f&quot;:631.328125}" text_bbox="{&quot;x&quot;:-35.171875,&quot;y&quot;:-8,&quot;w&quot;:35.171875,&quot;h&quot;:16}" opacity="1" font-family="&quot;Microsoft YaHei&quot;" my_stoke="rgb(255, 255, 255)" my_stoke_width="2px" my_stoke_opacity="1" my_fill="rgb(51, 51, 51)" my_fill_opacity="1" my_font_size="12px" clip-path="none" content="rose 5">rose 5</text><text xml:space="preserve" fill="rgb(51, 51, 51)" fill-opacity="1" stroke="rgb(255, 255, 255)" stroke-width="2px" paint-order="stroke" stroke-opacity="1" stroke-dasharray="" stroke-linecap="butt" stroke-miterlimit="2" transform="matrix(1,0,0,1,190.1719,487.9111)" dominant-baseline="central" text-anchor="end" x="0" y="0" style="font: 12px &quot;Microsoft YaHei&quot;; fill: rgb(51, 51, 51);" transform_matrix="{&quot;a&quot;:1,&quot;b&quot;:0,&quot;c&quot;:0,&quot;d&quot;:1,&quot;e&quot;:190.17190551757812,&quot;f&quot;:487.9111022949219}" text_bbox="{&quot;x&quot;:-35.171875,&quot;y&quot;:-8,&quot;w&quot;:35.171875,&quot;h&quot;:16}" opacity="1" font-family="&quot;Microsoft YaHei&quot;" my_stoke="rgb(255, 255, 255)" my_stoke_width="2px" my_stoke_opacity="1" my_fill="rgb(51, 51, 51)" my_fill_opacity="1" my_font_size="12px" clip-path="none" content="rose 6">rose 6</text><text xml:space="preserve" fill="rgb(51, 51, 51)" fill-opacity="1" stroke="rgb(255, 255, 255)" stroke-width="2px" paint-order="stroke" stroke-opacity="1" stroke-dasharray="" stroke-linecap="butt" stroke-miterlimit="2" transform="matrix(1,0,0,1,190.1719,285.0889)" dominant-baseline="central" text-anchor="end" x="0" y="0" style="font: 12px &quot;Microsoft YaHei&quot;; fill: rgb(51, 51, 51);" transform_matrix="{&quot;a&quot;:1,&quot;b&quot;:0,&quot;c&quot;:0,&quot;d&quot;:1,&quot;e&quot;:190.17190551757812,&quot;f&quot;:285.0888977050781}" text_bbox="{&quot;x&quot;:-35.171875,&quot;y&quot;:-8,&quot;w&quot;:35.171875,&quot;h&quot;:16}" opacity="1" font-family="&quot;Microsoft YaHei&quot;" my_stoke="rgb(255, 255, 255)" my_stoke_width="2px" my_stoke_opacity="1" my_fill="rgb(51, 51, 51)" my_fill_opacity="1" my_font_size="12px" clip-path="none" content="rose 7">rose 7</text><text xml:space="preserve" fill="rgb(51, 51, 51)" fill-opacity="1" stroke="rgb(255, 255, 255)" stroke-width="2px" paint-order="stroke" stroke-opacity="1" stroke-dasharray="" stroke-linecap="butt" stroke-miterlimit="2" transform="matrix(1,0,0,1,333.5889,141.6719)" dominant-baseline="central" text-anchor="end" x="0" y="0" style="font: 12px &quot;Microsoft YaHei&quot;; fill: rgb(51, 51, 51);" transform_matrix="{&quot;a&quot;:1,&quot;b&quot;:0,&quot;c&quot;:0,&quot;d&quot;:1,&quot;e&quot;:333.5888977050781,&quot;f&quot;:141.67190551757812}" text_bbox="{&quot;x&quot;:-35.171875,&quot;y&quot;:-8,&quot;w&quot;:35.171875,&quot;h&quot;:16}" opacity="1" font-family="&quot;Microsoft YaHei&quot;" my_stoke="rgb(255, 255, 255)" my_stoke_width="2px" my_stoke_opacity="1" my_fill="rgb(51, 51, 51)" my_fill_opacity="1" my_font_size="12px" clip-path="none" content="rose 8">rose 8</text><path d="M -5 -5 L 596.2969 -5 L 596.2969 19 L -5 19 L -5 -5 Z" fill="rgb(0, 0, 0)" fill-opacity="0" stroke="#ccc" stroke-width="0" paint-order="fill" stroke-opacity="1" stroke-dasharray="" stroke-linecap="butt" stroke-miterlimit="10" transform="matrix(1,0,0,1,159.3516,754)" transform_matrix="{&quot;a&quot;:1,&quot;b&quot;:0,&quot;c&quot;:0,&quot;d&quot;:1,&quot;e&quot;:159.35159301757812,&quot;f&quot;:754}" my_stoke="rgb(204, 204, 204)" my_stoke_width="0px" my_stoke_opacity="1" my_fill="rgb(0, 0, 0)" my_fill_opacity="0" my_font_size="16px" opacity="1"/><path d="M 3.5 0 L 21.5 0 A 3.5 3.5 0 0 1 25 3.5 L 25 10.5 A 3.5 3.5 0 0 1 21.5 14 L 3.5 14 A 3.5 3.5 0 0 1 0 10.5 L 0 3.5 A 3.5 3.5 0 0 1 3.5 0" fill="rgb(84, 112, 198)" fill-opacity="1" stroke="none" transform="matrix(1,0,0,1,159.3516,754)" transform_matrix="{&quot;a&quot;:1,&quot;b&quot;:0,&quot;c&quot;:0,&quot;d&quot;:1,&quot;e&quot;:159.35159301757812,&quot;f&quot;:754}" my_stoke="none" my_stoke_width="1px" my_stoke_opacity="1" my_fill="rgb(84, 112, 198)" my_fill_opacity="1" my_font_size="16px" opacity="1"/><text xml:space="preserve" fill="rgb(51, 51, 51)" fill-opacity="1" stroke="none" transform="matrix(1,0,0,1,159.3516,754)" dominant-baseline="central" text-anchor="start" x="30" y="7" style="font: 12px &quot;Microsoft YaHei&quot;; fill: rgb(51, 51, 51);" transform_matrix="{&quot;a&quot;:1,&quot;b&quot;:0,&quot;c&quot;:0,&quot;d&quot;:1,&quot;e&quot;:159.35159301757812,&quot;f&quot;:754}" text_bbox="{&quot;x&quot;:30,&quot;y&quot;:-1,&quot;w&quot;:35.171875,&quot;h&quot;:16}" opacity="1" stroke-width="1px" stroke-opacity="1" font-family="&quot;Microsoft YaHei&quot;" my_stoke="none" my_stoke_width="1px" my_stoke_opacity="1" my_fill="rgb(51, 51, 51)" my_fill_opacity="1" my_font_size="12px" clip-path="none" content="rose 1">rose 1</text><path d="M 3.5 0 L 21.5 0 A 3.5 3.5 0 0 1 25 3.5 L 25 10.5 A 3.5 3.5 0 0 1 21.5 14 L 3.5 14 A 3.5 3.5 0 0 1 0 10.5 L 0 3.5 A 3.5 3.5 0 0 1 3.5 0" fill="rgb(145, 204, 117)" fill-opacity="1" stroke="none" transform="matrix(1,0,0,1,234.5137,754)" transform_matrix="{&quot;a&quot;:1,&quot;b&quot;:0,&quot;c&quot;:0,&quot;d&quot;:1,&quot;e&quot;:234.51370239257812,&quot;f&quot;:754}" my_stoke="none" my_stoke_width="1px" my_stoke_opacity="1" my_fill="rgb(145, 204, 117)" my_fill_opacity="1" my_font_size="16px" opacity="1"/><text xml:space="preserve" fill="rgb(51, 51, 51)" fill-opacity="1" stroke="none" transform="matrix(1,0,0,1,234.5137,754)" dominant-baseline="central" text-anchor="start" x="30" y="7" style="font: 12px &quot;Microsoft YaHei&quot;; fill: rgb(51, 51, 51);" transform_matrix="{&quot;a&quot;:1,&quot;b&quot;:0,&quot;c&quot;:0,&quot;d&quot;:1,&quot;e&quot;:234.51370239257812,&quot;f&quot;:754}" text_bbox="{&quot;x&quot;:30,&quot;y&quot;:-1,&quot;w&quot;:35.171875,&quot;h&quot;:16}" opacity="1" stroke-width="1px" stroke-opacity="1" font-family="&quot;Microsoft YaHei&quot;" my_stoke="none" my_stoke_width="1px" my_stoke_opacity="1" my_fill="rgb(51, 51, 51)" my_fill_opacity="1" my_font_size="12px" clip-path="none" content="rose 2">rose 2</text><path d="M 3.5 0 L 21.5 0 A 3.5 3.5 0 0 1 25 3.5 L 25 10.5 A 3.5 3.5 0 0 1 21.5 14 L 3.5 14 A 3.5 3.5 0 0 1 0 10.5 L 0 3.5 A 3.5 3.5 0 0 1 3.5 0" fill="rgb(250, 200, 88)" fill-opacity="1" stroke="none" transform="matrix(1,0,0,1,309.6758,754)" transform_matrix="{&quot;a&quot;:1,&quot;b&quot;:0,&quot;c&quot;:0,&quot;d&quot;:1,&quot;e&quot;:309.6758117675781,&quot;f&quot;:754}" my_stoke="none" my_stoke_width="1px" my_stoke_opacity="1" my_fill="rgb(250, 200, 88)" my_fill_opacity="1" my_font_size="16px" opacity="1"/><text xml:space="preserve" fill="rgb(51, 51, 51)" fill-opacity="1" stroke="none" transform="matrix(1,0,0,1,309.6758,754)" dominant-baseline="central" text-anchor="start" x="30" y="7" style="font: 12px &quot;Microsoft YaHei&quot;; fill: rgb(51, 51, 51);" transform_matrix="{&quot;a&quot;:1,&quot;b&quot;:0,&quot;c&quot;:0,&quot;d&quot;:1,&quot;e&quot;:309.6758117675781,&quot;f&quot;:754}" text_bbox="{&quot;x&quot;:30,&quot;y&quot;:-1,&quot;w&quot;:35.171875,&quot;h&quot;:16}" opacity="1" stroke-width="1px" stroke-opacity="1" font-family="&quot;Microsoft YaHei&quot;" my_stoke="none" my_stoke_width="1px" my_stoke_opacity="1" my_fill="rgb(51, 51, 51)" my_fill_opacity="1" my_font_size="12px" clip-path="none" content="rose 3">rose 3</text><path d="M 3.5 0 L 21.5 0 A 3.5 3.5 0 0 1 25 3.5 L 25 10.5 A 3.5 3.5 0 0 1 21.5 14 L 3.5 14 A 3.5 3.5 0 0 1 0 10.5 L 0 3.5 A 3.5 3.5 0 0 1 3.5 0" fill="rgb(238, 102, 102)" fill-opacity="1" stroke="none" transform="matrix(1,0,0,1,384.8379,754)" transform_matrix="{&quot;a&quot;:1,&quot;b&quot;:0,&quot;c&quot;:0,&quot;d&quot;:1,&quot;e&quot;:384.837890625,&quot;f&quot;:754}" my_stoke="none" my_stoke_width="1px" my_stoke_opacity="1" my_fill="rgb(238, 102, 102)" my_fill_opacity="1" my_font_size="16px" opacity="1"/><text xml:space="preserve" fill="rgb(51, 51, 51)" fill-opacity="1" stroke="none" transform="matrix(1,0,0,1,384.8379,754)" dominant-baseline="central" text-anchor="start" x="30" y="7" style="font: 12px &quot;Microsoft YaHei&quot;; fill: rgb(51, 51, 51);" transform_matrix="{&quot;a&quot;:1,&quot;b&quot;:0,&quot;c&quot;:0,&quot;d&quot;:1,&quot;e&quot;:384.837890625,&quot;f&quot;:754}" text_bbox="{&quot;x&quot;:30,&quot;y&quot;:-1,&quot;w&quot;:36.125,&quot;h&quot;:16}" opacity="1" stroke-width="1px" stroke-opacity="1" font-family="&quot;Microsoft YaHei&quot;" my_stoke="none" my_stoke_width="1px" my_stoke_opacity="1" my_fill="rgb(51, 51, 51)" my_fill_opacity="1" my_font_size="12px" clip-path="none" content="rose 4">rose 4</text><path d="M 3.5 0 L 21.5 0 A 3.5 3.5 0 0 1 25 3.5 L 25 10.5 A 3.5 3.5 0 0 1 21.5 14 L 3.5 14 A 3.5 3.5 0 0 1 0 10.5 L 0 3.5 A 3.5 3.5 0 0 1 3.5 0" fill="rgb(115, 192, 222)" fill-opacity="1" stroke="none" transform="matrix(1,0,0,1,460,754)" transform_matrix="{&quot;a&quot;:1,&quot;b&quot;:0,&quot;c&quot;:0,&quot;d&quot;:1,&quot;e&quot;:460,&quot;f&quot;:754}" my_stoke="none" my_stoke_width="1px" my_stoke_opacity="1" my_fill="rgb(115, 192, 222)" my_fill_opacity="1" my_font_size="16px" opacity="1"/><text xml:space="preserve" fill="rgb(51, 51, 51)" fill-opacity="1" stroke="none" transform="matrix(1,0,0,1,460,754)" dominant-baseline="central" text-anchor="start" x="30" y="7" style="font: 12px &quot;Microsoft YaHei&quot;; fill: rgb(51, 51, 51);" transform_matrix="{&quot;a&quot;:1,&quot;b&quot;:0,&quot;c&quot;:0,&quot;d&quot;:1,&quot;e&quot;:460,&quot;f&quot;:754}" text_bbox="{&quot;x&quot;:30,&quot;y&quot;:-1,&quot;w&quot;:35.171875,&quot;h&quot;:16}" opacity="1" stroke-width="1px" stroke-opacity="1" font-family="&quot;Microsoft YaHei&quot;" my_stoke="none" my_stoke_width="1px" my_stoke_opacity="1" my_fill="rgb(51, 51, 51)" my_fill_opacity="1" my_font_size="12px" clip-path="none" content="rose 5">rose 5</text><path d="M 3.5 0 L 21.5 0 A 3.5 3.5 0 0 1 25 3.5 L 25 10.5 A 3.5 3.5 0 0 1 21.5 14 L 3.5 14 A 3.5 3.5 0 0 1 0 10.5 L 0 3.5 A 3.5 3.5 0 0 1 3.5 0" fill="rgb(59, 162, 114)" fill-opacity="1" stroke="none" transform="matrix(1,0,0,1,535.1621,754)" transform_matrix="{&quot;a&quot;:1,&quot;b&quot;:0,&quot;c&quot;:0,&quot;d&quot;:1,&quot;e&quot;:535.162109375,&quot;f&quot;:754}" my_stoke="none" my_stoke_width="1px" my_stoke_opacity="1" my_fill="rgb(59, 162, 114)" my_fill_opacity="1" my_font_size="16px" opacity="1"/><text xml:space="preserve" fill="rgb(51, 51, 51)" fill-opacity="1" stroke="none" transform="matrix(1,0,0,1,535.1621,754)" dominant-baseline="central" text-anchor="start" x="30" y="7" style="font: 12px &quot;Microsoft YaHei&quot;; fill: rgb(51, 51, 51);" transform_matrix="{&quot;a&quot;:1,&quot;b&quot;:0,&quot;c&quot;:0,&quot;d&quot;:1,&quot;e&quot;:535.162109375,&quot;f&quot;:754}" text_bbox="{&quot;x&quot;:30,&quot;y&quot;:-1,&quot;w&quot;:35.171875,&quot;h&quot;:16}" opacity="1" stroke-width="1px" stroke-opacity="1" font-family="&quot;Microsoft YaHei&quot;" my_stoke="none" my_stoke_width="1px" my_stoke_opacity="1" my_fill="rgb(51, 51, 51)" my_fill_opacity="1" my_font_size="12px" clip-path="none" content="rose 6">rose 6</text><path d="M 3.5 0 L 21.5 0 A 3.5 3.5 0 0 1 25 3.5 L 25 10.5 A 3.5 3.5 0 0 1 21.5 14 L 3.5 14 A 3.5 3.5 0 0 1 0 10.5 L 0 3.5 A 3.5 3.5 0 0 1 3.5 0" fill="rgb(252, 132, 82)" fill-opacity="1" stroke="none" transform="matrix(1,0,0,1,610.3242,754)" transform_matrix="{&quot;a&quot;:1,&quot;b&quot;:0,&quot;c&quot;:0,&quot;d&quot;:1,&quot;e&quot;:610.32421875,&quot;f&quot;:754}" my_stoke="none" my_stoke_width="1px" my_stoke_opacity="1" my_fill="rgb(252, 132, 82)" my_fill_opacity="1" my_font_size="16px" opacity="1"/><text xml:space="preserve" fill="rgb(51, 51, 51)" fill-opacity="1" stroke="none" transform="matrix(1,0,0,1,610.3242,754)" dominant-baseline="central" text-anchor="start" x="30" y="7" style="font: 12px &quot;Microsoft YaHei&quot;; fill: rgb(51, 51, 51);" transform_matrix="{&quot;a&quot;:1,&quot;b&quot;:0,&quot;c&quot;:0,&quot;d&quot;:1,&quot;e&quot;:610.32421875,&quot;f&quot;:754}" text_bbox="{&quot;x&quot;:30,&quot;y&quot;:-1,&quot;w&quot;:35.171875,&quot;h&quot;:16}" opacity="1" stroke-width="1px" stroke-opacity="1" font-family="&quot;Microsoft YaHei&quot;" my_stoke="none" my_stoke_width="1px" my_stoke_opacity="1" my_fill="rgb(51, 51, 51)" my_fill_opacity="1" my_font_size="12px" clip-path="none" content="rose 7">rose 7</text><path d="M 3.5 0 L 21.5 0 A 3.5 3.5 0 0 1 25 3.5 L 25 10.5 A 3.5 3.5 0 0 1 21.5 14 L 3.5 14 A 3.5 3.5 0 0 1 0 10.5 L 0 3.5 A 3.5 3.5 0 0 1 3.5 0" fill="rgb(154, 96, 180)" fill-opacity="1" stroke="none" transform="matrix(1,0,0,1,685.4863,754)" transform_matrix="{&quot;a&quot;:1,&quot;b&quot;:0,&quot;c&quot;:0,&quot;d&quot;:1,&quot;e&quot;:685.486328125,&quot;f&quot;:754}" my_stoke="none" my_stoke_width="1px" my_stoke_opacity="1" my_fill="rgb(154, 96, 180)" my_fill_opacity="1" my_font_size="16px" opacity="1"/><text xml:space="preserve" fill="rgb(51, 51, 51)" fill-opacity="1" stroke="none" transform="matrix(1,0,0,1,685.4863,754)" dominant-baseline="central" text-anchor="start" x="30" y="7" style="font: 12px &quot;Microsoft YaHei&quot;; fill: rgb(51, 51, 51);" transform_matrix="{&quot;a&quot;:1,&quot;b&quot;:0,&quot;c&quot;:0,&quot;d&quot;:1,&quot;e&quot;:685.486328125,&quot;f&quot;:754}" text_bbox="{&quot;x&quot;:30,&quot;y&quot;:-1,&quot;w&quot;:35.171875,&quot;h&quot;:16}" opacity="1" stroke-width="1px" stroke-opacity="1" font-family="&quot;Microsoft YaHei&quot;" my_stoke="none" my_stoke_width="1px" my_stoke_opacity="1" my_fill="rgb(51, 51, 51)" my_fill_opacity="1" my_font_size="12px" clip-path="none" content="rose 8">rose 8</text><path d="M -12.7902 -15 L 66.663 -15 L 66.663 15 L -12.7902 15 L -12.7902 -15 Z" fill="none" fill-opacity="1" stroke="#ccc" stroke-width="0" paint-order="fill" stroke-opacity="1" stroke-dasharray="" stroke-linecap="butt" stroke-miterlimit="10" transform="matrix(1,0,0,1,843.337,15)" transform_matrix="{&quot;a&quot;:1,&quot;b&quot;:0,&quot;c&quot;:0,&quot;d&quot;:1,&quot;e&quot;:843.3369750976562,&quot;f&quot;:15}" my_stoke="rgb(204, 204, 204)" my_stoke_width="0px" my_stoke_opacity="1" my_fill="none" my_fill_opacity="1" my_font_size="16px" opacity="1"/><path d="M -3.683 -3.4018 L 0.4688 -3.4018 M -3.683 -3.4018 L 0.4688 -3.4018 M 3.7902 -0.1339 L -3.7098 -0.1339 M -5.2902 -7.5 L -5.2902 7.5 L 5.2902 7.5 L 5.2902 -4.0714 L 1.9152 -7.5 L -5.2902 -7.5 Z M 1.9152 -7.4464 L 1.9152 -4.0446 L 5.2902 -4.0446 M 3.7902 3.1339 L -3.7098 3.1339" fill="none" stroke="#666" stroke-width="1" paint-order="fill" stroke-opacity="1" stroke-dasharray="" stroke-linecap="butt" stroke-miterlimit="10" transform="matrix(1,0,0,1,843.337,15)" transform_matrix="{&quot;a&quot;:1,&quot;b&quot;:0,&quot;c&quot;:0,&quot;d&quot;:1,&quot;e&quot;:843.3369750976562,&quot;f&quot;:15}" my_stoke="rgb(102, 102, 102)" my_stoke_width="1px" my_stoke_opacity="1" my_fill="none" my_fill_opacity="1" my_font_size="16px" opacity="1"/><path d="M -6.9994 0.9083 M 4.5416 -2.9654 L 7.1597 -2.9654 L 7.1597 -5.6904 M 7.0261 -2.6448 C 5.9041 -5.6102 2.8051 -7.8543 -0.8549 -7.4536 C -4.6485 -7.0261 -7.5872 -3.6867 -7.4536 0.1603 M -4.5416 2.9654 L -7.1864 2.9654 L -7.1864 5.6904 M -7.0261 2.6448 C -5.9041 5.6102 -2.8051 7.8543 0.8549 7.4536 C 4.6485 7.0261 7.5872 3.6867 7.4536 -0.1603" fill="none" stroke="#666" stroke-width="1" paint-order="fill" stroke-opacity="1" stroke-dasharray="" stroke-linecap="butt" stroke-miterlimit="10" transform="matrix(1,0,0,1,869.0851,15)" transform_matrix="{&quot;a&quot;:1,&quot;b&quot;:0,&quot;c&quot;:0,&quot;d&quot;:1,&quot;e&quot;:869.0850830078125,&quot;f&quot;:15}" my_stoke="rgb(102, 102, 102)" my_stoke_width="1px" my_stoke_opacity="1" my_fill="none" my_fill_opacity="1" my_font_size="16px" opacity="1"/><path d="M -6.4526 -1.5776 L -0.0905 4.2672 L 6.4784 -1.4483 M -6.4784 3.7759 L -6.4784 7.5 L 6.2457 7.5 L 6.2457 3.7759 M -0.1164 4.1638 L -0.1164 -7.5" fill="none" stroke="#666" stroke-width="1" paint-order="fill" stroke-opacity="1" stroke-dasharray="" stroke-linecap="butt" stroke-miterlimit="10" transform="matrix(1,0,0,1,896.0216,15)" transform_matrix="{&quot;a&quot;:1,&quot;b&quot;:0,&quot;c&quot;:0,&quot;d&quot;:1,&quot;e&quot;:896.0216064453125,&quot;f&quot;:15}" my_stoke="rgb(102, 102, 102)" my_stoke_width="1px" my_stoke_opacity="1" my_fill="none" my_fill_opacity="1" my_font_size="16px" opacity="1"/></g></svg>