<svg xmlns="http://www.w3.org/2000/svg" xmlns:xlink="http://www.w3.org/1999/xlink" version="1.1" baseProfile="full" width="910" height="773" style="user-select: none; position: absolute; left: 0px; top: 0px;" transform_matrix="{&quot;a&quot;:1,&quot;b&quot;:0,&quot;c&quot;:0,&quot;d&quot;:1,&quot;e&quot;:0,&quot;f&quot;:0}"><g><path d="M 455 126.142 A 10 10 0 0 1 465.3838 116.1493 A 270.55 270.55 0 0 1 713.9794 464.7749 A 10 10 0 0 1 701.1487 471.336 L 610.3293 440.0348 A 10 10 0 0 1 603.953 427.9025 A 154.6 154.6 0 0 0 464.3925 232.1856 A 10 10 0 0 1 455 222.204 Z" fill="rgb(84, 112, 198)" fill-opacity="1" stroke="#fff" stroke-width="2" paint-order="fill" stroke-opacity="1" stroke-dasharray="" stroke-linecap="butt" stroke-linejoin="round" stroke-miterlimit="10" transform_matrix="{&quot;a&quot;:1,&quot;b&quot;:0,&quot;c&quot;:0,&quot;d&quot;:1,&quot;e&quot;:0,&quot;f&quot;:0}" my_stoke="rgb(255, 255, 255)" my_stoke_width="2px" my_stoke_opacity="1" my_fill="rgb(84, 112, 198)" my_fill_opacity="1" my_font_size="16px" opacity="1"/><path d="M 701.1487 471.336 A 10 10 0 0 1 707.2124 484.4091 A 270.55 270.55 0 0 1 439.5466 656.6083 A 10 10 0 0 1 430.1634 645.6707 L 439.3271 550.0467 A 10 10 0 0 1 449.629 541.0067 A 154.6 154.6 0 0 0 597.832 445.6622 A 10 10 0 0 1 610.3293 440.0348 Z" fill="rgb(145, 204, 117)" fill-opacity="1" stroke="#fff" stroke-width="2" paint-order="fill" stroke-opacity="1" stroke-dasharray="" stroke-linecap="butt" stroke-linejoin="round" stroke-miterlimit="10" transform_matrix="{&quot;a&quot;:1,&quot;b&quot;:0,&quot;c&quot;:0,&quot;d&quot;:1,&quot;e&quot;:0,&quot;f&quot;:0}" my_stoke="rgb(255, 255, 255)" my_stoke_width="2px" my_stoke_opacity="1" my_fill="rgb(145, 204, 117)" my_fill_opacity="1" my_font_size="16px" opacity="1"/><path d="M 430.1634 645.6707 A 10 10 0 0 1 418.8737 654.6272 A 270.55 270.55 0 0 1 212.6482 506.7618 A 10 10 0 0 1 217.5079 493.195 L 305.1334 453.8287 A 10 10 0 0 1 318.0873 458.3058 A 154.6 154.6 0 0 0 430.9297 539.2147 A 10 10 0 0 1 439.3271 550.0467 Z" fill="rgb(250, 200, 88)" fill-opacity="1" stroke="#fff" stroke-width="2" paint-order="fill" stroke-opacity="1" stroke-dasharray="" stroke-linecap="butt" stroke-linejoin="round" stroke-miterlimit="10" transform_matrix="{&quot;a&quot;:1,&quot;b&quot;:0,&quot;c&quot;:0,&quot;d&quot;:1,&quot;e&quot;:0,&quot;f&quot;:0}" my_stoke="rgb(255, 255, 255)" my_stoke_width="2px" my_stoke_opacity="1" my_fill="rgb(250, 200, 88)" my_fill_opacity="1" my_font_size="16px" opacity="1"/><path d="M 217.5079 493.195 A 10 10 0 0 1 204.1376 487.8181 A 270.55 270.55 0 0 1 207.7549 276.6494 A 10 10 0 0 1 221.3015 271.7337 L 307.5272 314.078 A 10 10 0 0 1 312.3465 326.9086 A 154.6 154.6 0 0 0 310.3892 441.1706 A 10 10 0 0 1 305.1334 453.8287 Z" fill="rgb(238, 102, 102)" fill-opacity="1" stroke="#fff" stroke-width="2" paint-order="fill" stroke-opacity="1" stroke-dasharray="" stroke-linecap="butt" stroke-linejoin="round" stroke-miterlimit="10" transform_matrix="{&quot;a&quot;:1,&quot;b&quot;:0,&quot;c&quot;:0,&quot;d&quot;:1,&quot;e&quot;:0,&quot;f&quot;:0}" my_stoke="rgb(255, 255, 255)" my_stoke_width="2px" my_stoke_opacity="1" my_fill="rgb(238, 102, 102)" my_fill_opacity="1" my_font_size="16px" opacity="1"/><path d="M 221.3015 271.7337 A 10 10 0 0 1 216.9093 258.0083 A 270.55 270.55 0 0 1 300.4483 164.439 A 10 10 0 0 1 314.5818 167.2535 L 366.3907 248.147 A 10 10 0 0 1 363.8646 261.618 A 154.6 154.6 0 0 0 320.6269 310.0472 A 10 10 0 0 1 307.5272 314.078 Z" fill="rgb(115, 192, 222)" fill-opacity="1" stroke="#fff" stroke-width="2" paint-order="fill" stroke-opacity="1" stroke-dasharray="" stroke-linecap="butt" stroke-linejoin="round" stroke-miterlimit="10" transform_matrix="{&quot;a&quot;:1,&quot;b&quot;:0,&quot;c&quot;:0,&quot;d&quot;:1,&quot;e&quot;:0,&quot;f&quot;:0}" my_stoke="rgb(255, 255, 255)" my_stoke_width="2px" my_stoke_opacity="1" my_fill="rgb(115, 192, 222)" my_fill_opacity="1" my_font_size="16px" opacity="1"/><path d="M -5 -5 L 440 -5 L 440 21 L -5 21 L -5 -5 Z" fill="rgb(0, 0, 0)" fill-opacity="0" stroke="#ccc" stroke-width="0" paint-order="fill" stroke-opacity="1" stroke-dasharray="" stroke-linecap="butt" stroke-miterlimit="10" transform="matrix(1,0,0,1,237.5,43.65)" transform_matrix="{&quot;a&quot;:1,&quot;b&quot;:0,&quot;c&quot;:0,&quot;d&quot;:1,&quot;e&quot;:237.5,&quot;f&quot;:43.650001525878906}" my_stoke="rgb(204, 204, 204)" my_stoke_width="0px" my_stoke_opacity="1" my_fill="rgb(0, 0, 0)" my_fill_opacity="0" my_font_size="16px" opacity="1"/><path d="M 3.5 0 L 21.5 0 A 3.5 3.5 0 0 1 25 3.5 L 25 10.5 A 3.5 3.5 0 0 1 21.5 14 L 3.5 14 A 3.5 3.5 0 0 1 0 10.5 L 0 3.5 A 3.5 3.5 0 0 1 3.5 0" fill="rgb(84, 112, 198)" fill-opacity="1" stroke="#fff" stroke-width="2" paint-order="fill" stroke-opacity="1" stroke-dasharray="" stroke-linejoin="round" transform="matrix(1,0,0,1,238.5,44.65)" transform_matrix="{&quot;a&quot;:1,&quot;b&quot;:0,&quot;c&quot;:0,&quot;d&quot;:1,&quot;e&quot;:238.5,&quot;f&quot;:44.650001525878906}" my_stoke="rgb(255, 255, 255)" my_stoke_width="2px" my_stoke_opacity="1" my_fill="rgb(84, 112, 198)" my_fill_opacity="1" my_font_size="16px" opacity="1"/><text xml:space="preserve" fill="rgb(51, 51, 51)" fill-opacity="1" stroke="none" transform="matrix(1,0,0,1,238.5,44.65)" dominant-baseline="central" text-anchor="start" x="30" y="7" style="font: 12px &quot;Microsoft YaHei&quot;; fill: rgb(51, 51, 51);" transform_matrix="{&quot;a&quot;:1,&quot;b&quot;:0,&quot;c&quot;:0,&quot;d&quot;:1,&quot;e&quot;:238.5,&quot;f&quot;:44.650001525878906}" text_bbox="{&quot;x&quot;:29,&quot;y&quot;:-1,&quot;w&quot;:50,&quot;h&quot;:16}" opacity="1" stroke-width="1px" stroke-opacity="1" font-family="&quot;Microsoft YaHei&quot;" my_stoke="none" my_stoke_width="1px" my_stoke_opacity="1" my_fill="rgb(51, 51, 51)" my_fill_opacity="1" my_font_size="12px" clip-path="none" content="搜索引擎">搜索引擎</text><path d="M 3.5 0 L 21.5 0 A 3.5 3.5 0 0 1 25 3.5 L 25 10.5 A 3.5 3.5 0 0 1 21.5 14 L 3.5 14 A 3.5 3.5 0 0 1 0 10.5 L 0 3.5 A 3.5 3.5 0 0 1 3.5 0" fill="rgb(145, 204, 117)" fill-opacity="1" stroke="#fff" stroke-width="2" paint-order="fill" stroke-opacity="1" stroke-dasharray="" stroke-linejoin="round" transform="matrix(1,0,0,1,327.5,44.65)" transform_matrix="{&quot;a&quot;:1,&quot;b&quot;:0,&quot;c&quot;:0,&quot;d&quot;:1,&quot;e&quot;:327.5,&quot;f&quot;:44.650001525878906}" my_stoke="rgb(255, 255, 255)" my_stoke_width="2px" my_stoke_opacity="1" my_fill="rgb(145, 204, 117)" my_fill_opacity="1" my_font_size="16px" opacity="1"/><text xml:space="preserve" fill="rgb(51, 51, 51)" fill-opacity="1" stroke="none" transform="matrix(1,0,0,1,327.5,44.65)" dominant-baseline="central" text-anchor="start" x="30" y="7" style="font: 12px &quot;Microsoft YaHei&quot;; fill: rgb(51, 51, 51);" transform_matrix="{&quot;a&quot;:1,&quot;b&quot;:0,&quot;c&quot;:0,&quot;d&quot;:1,&quot;e&quot;:327.5,&quot;f&quot;:44.650001525878906}" text_bbox="{&quot;x&quot;:29,&quot;y&quot;:-1,&quot;w&quot;:49,&quot;h&quot;:16}" opacity="1" stroke-width="1px" stroke-opacity="1" font-family="&quot;Microsoft YaHei&quot;" my_stoke="none" my_stoke_width="1px" my_stoke_opacity="1" my_fill="rgb(51, 51, 51)" my_fill_opacity="1" my_font_size="12px" clip-path="none" content="直接访问">直接访问</text><path d="M 3.5 0 L 21.5 0 A 3.5 3.5 0 0 1 25 3.5 L 25 10.5 A 3.5 3.5 0 0 1 21.5 14 L 3.5 14 A 3.5 3.5 0 0 1 0 10.5 L 0 3.5 A 3.5 3.5 0 0 1 3.5 0" fill="rgb(250, 200, 88)" fill-opacity="1" stroke="#fff" stroke-width="2" paint-order="fill" stroke-opacity="1" stroke-dasharray="" stroke-linejoin="round" transform="matrix(1,0,0,1,416.5,44.65)" transform_matrix="{&quot;a&quot;:1,&quot;b&quot;:0,&quot;c&quot;:0,&quot;d&quot;:1,&quot;e&quot;:416.5,&quot;f&quot;:44.650001525878906}" my_stoke="rgb(255, 255, 255)" my_stoke_width="2px" my_stoke_opacity="1" my_fill="rgb(250, 200, 88)" my_fill_opacity="1" my_font_size="16px" opacity="1"/><text xml:space="preserve" fill="rgb(51, 51, 51)" fill-opacity="1" stroke="none" transform="matrix(1,0,0,1,416.5,44.65)" dominant-baseline="central" text-anchor="start" x="30" y="7" style="font: 12px &quot;Microsoft YaHei&quot;; fill: rgb(51, 51, 51);" transform_matrix="{&quot;a&quot;:1,&quot;b&quot;:0,&quot;c&quot;:0,&quot;d&quot;:1,&quot;e&quot;:416.5,&quot;f&quot;:44.650001525878906}" text_bbox="{&quot;x&quot;:30,&quot;y&quot;:-1,&quot;w&quot;:48,&quot;h&quot;:16}" opacity="1" stroke-width="1px" stroke-opacity="1" font-family="&quot;Microsoft YaHei&quot;" my_stoke="none" my_stoke_width="1px" my_stoke_opacity="1" my_fill="rgb(51, 51, 51)" my_fill_opacity="1" my_font_size="12px" clip-path="none" content="邮件营销">邮件营销</text><path d="M 3.5 0 L 21.5 0 A 3.5 3.5 0 0 1 25 3.5 L 25 10.5 A 3.5 3.5 0 0 1 21.5 14 L 3.5 14 A 3.5 3.5 0 0 1 0 10.5 L 0 3.5 A 3.5 3.5 0 0 1 3.5 0" fill="rgb(238, 102, 102)" fill-opacity="1" stroke="#fff" stroke-width="2" paint-order="fill" stroke-opacity="1" stroke-dasharray="" stroke-linejoin="round" transform="matrix(1,0,0,1,505.5,44.65)" transform_matrix="{&quot;a&quot;:1,&quot;b&quot;:0,&quot;c&quot;:0,&quot;d&quot;:1,&quot;e&quot;:505.5,&quot;f&quot;:44.650001525878906}" my_stoke="rgb(255, 255, 255)" my_stoke_width="2px" my_stoke_opacity="1" my_fill="rgb(238, 102, 102)" my_fill_opacity="1" my_font_size="16px" opacity="1"/><text xml:space="preserve" fill="rgb(51, 51, 51)" fill-opacity="1" stroke="none" transform="matrix(1,0,0,1,505.5,44.65)" dominant-baseline="central" text-anchor="start" x="30" y="7" style="font: 12px &quot;Microsoft YaHei&quot;; fill: rgb(51, 51, 51);" transform_matrix="{&quot;a&quot;:1,&quot;b&quot;:0,&quot;c&quot;:0,&quot;d&quot;:1,&quot;e&quot;:505.5,&quot;f&quot;:44.650001525878906}" text_bbox="{&quot;x&quot;:29,&quot;y&quot;:-1,&quot;w&quot;:50,&quot;h&quot;:16}" opacity="1" stroke-width="1px" stroke-opacity="1" font-family="&quot;Microsoft YaHei&quot;" my_stoke="none" my_stoke_width="1px" my_stoke_opacity="1" my_fill="rgb(51, 51, 51)" my_fill_opacity="1" my_font_size="12px" clip-path="none" content="联盟广告">联盟广告</text><path d="M 3.5 0 L 21.5 0 A 3.5 3.5 0 0 1 25 3.5 L 25 10.5 A 3.5 3.5 0 0 1 21.5 14 L 3.5 14 A 3.5 3.5 0 0 1 0 10.5 L 0 3.5 A 3.5 3.5 0 0 1 3.5 0" fill="rgb(115, 192, 222)" fill-opacity="1" stroke="#fff" stroke-width="2" paint-order="fill" stroke-opacity="1" stroke-dasharray="" stroke-linejoin="round" transform="matrix(1,0,0,1,594.5,44.65)" transform_matrix="{&quot;a&quot;:1,&quot;b&quot;:0,&quot;c&quot;:0,&quot;d&quot;:1,&quot;e&quot;:594.5,&quot;f&quot;:44.650001525878906}" my_stoke="rgb(255, 255, 255)" my_stoke_width="2px" my_stoke_opacity="1" my_fill="rgb(115, 192, 222)" my_fill_opacity="1" my_font_size="16px" opacity="1"/><text xml:space="preserve" fill="rgb(51, 51, 51)" fill-opacity="1" stroke="none" transform="matrix(1,0,0,1,594.5,44.65)" dominant-baseline="central" text-anchor="start" x="30" y="7" style="font: 12px &quot;Microsoft YaHei&quot;; fill: rgb(51, 51, 51);" transform_matrix="{&quot;a&quot;:1,&quot;b&quot;:0,&quot;c&quot;:0,&quot;d&quot;:1,&quot;e&quot;:594.5,&quot;f&quot;:44.650001525878906}" text_bbox="{&quot;x&quot;:29,&quot;y&quot;:-1,&quot;w&quot;:50,&quot;h&quot;:16}" opacity="1" stroke-width="1px" stroke-opacity="1" font-family="&quot;Microsoft YaHei&quot;" my_stoke="none" my_stoke_width="1px" my_stoke_opacity="1" my_fill="rgb(51, 51, 51)" my_fill_opacity="1" my_font_size="12px" clip-path="none" content="视频广告">视频广告</text></g></svg>