<svg xmlns="http://www.w3.org/2000/svg" xmlns:xlink="http://www.w3.org/1999/xlink" version="1.1" baseProfile="full" width="910" height="773" style="user-select: none; position: absolute; left: 0px; top: 0px;" transform_matrix="{&quot;a&quot;:1,&quot;b&quot;:0,&quot;c&quot;:0,&quot;d&quot;:1,&quot;e&quot;:0,&quot;f&quot;:0}"><g><path d="M 736.0757 257.1569 L 741.8159 243.2987 L 756.8158 243.2987" fill="none" stroke="#5470c6" stroke-width="1" paint-order="fill" stroke-opacity="1" stroke-dasharray="" stroke-linecap="butt" stroke-miterlimit="10" transform_matrix="{&quot;a&quot;:1,&quot;b&quot;:0,&quot;c&quot;:0,&quot;d&quot;:1,&quot;e&quot;:0,&quot;f&quot;:0}" my_stoke="rgb(84, 112, 198)" my_stoke_width="1px" my_stoke_opacity="1" my_fill="none" my_fill_opacity="1" my_font_size="16px" opacity="1"/><path d="M 804.4521 335.9858 L 825.7013 327.1841 L 840.7012 327.1841" fill="none" stroke="#91cc75" stroke-width="1" paint-order="fill" stroke-opacity="1" stroke-dasharray="" stroke-linecap="butt" stroke-miterlimit="10" transform_matrix="{&quot;a&quot;:1,&quot;b&quot;:0,&quot;c&quot;:0,&quot;d&quot;:1,&quot;e&quot;:0,&quot;f&quot;:0}" my_stoke="rgb(145, 204, 117)" my_stoke_width="1px" my_stoke_opacity="1" my_fill="none" my_fill_opacity="1" my_font_size="16px" opacity="1"/><path d="M 797.0611 433.9527 L 825.7013 445.8159 L 840.7011 445.8159" fill="none" stroke="#fac858" stroke-width="1" paint-order="fill" stroke-opacity="1" stroke-dasharray="" stroke-linecap="butt" stroke-miterlimit="10" transform_matrix="{&quot;a&quot;:1,&quot;b&quot;:0,&quot;c&quot;:0,&quot;d&quot;:1,&quot;e&quot;:0,&quot;f&quot;:0}" my_stoke="rgb(250, 200, 88)" my_stoke_width="1px" my_stoke_opacity="1" my_fill="none" my_fill_opacity="1" my_font_size="16px" opacity="1"/><path d="M 726.8913 493.67 L 741.8159 529.7013 L 756.8157 529.7013" fill="none" stroke="#ee6666" stroke-width="1" paint-order="fill" stroke-opacity="1" stroke-dasharray="" stroke-linecap="butt" stroke-miterlimit="10" transform_matrix="{&quot;a&quot;:1,&quot;b&quot;:0,&quot;c&quot;:0,&quot;d&quot;:1,&quot;e&quot;:0,&quot;f&quot;:0}" my_stoke="rgb(238, 102, 102)" my_stoke_width="1px" my_stoke_opacity="1" my_fill="none" my_fill_opacity="1" my_font_size="16px" opacity="1"/><path d="M 641.1702 486.279 L 623.1841 529.7013 L 608.1843 529.7013" fill="none" stroke="#73c0de" stroke-width="1" paint-order="fill" stroke-opacity="1" stroke-dasharray="" stroke-linecap="butt" stroke-miterlimit="10" transform_matrix="{&quot;a&quot;:1,&quot;b&quot;:0,&quot;c&quot;:0,&quot;d&quot;:1,&quot;e&quot;:0,&quot;f&quot;:0}" my_stoke="rgb(115, 192, 222)" my_stoke_width="1px" my_stoke_opacity="1" my_fill="none" my_fill_opacity="1" my_font_size="16px" opacity="1"/><path d="M 590.112 424.7683 L 539.2987 445.8159 L 524.299 445.8159" fill="none" stroke="#3ba272" stroke-width="1" paint-order="fill" stroke-opacity="1" stroke-dasharray="" stroke-linecap="butt" stroke-miterlimit="10" transform_matrix="{&quot;a&quot;:1,&quot;b&quot;:0,&quot;c&quot;:0,&quot;d&quot;:1,&quot;e&quot;:0,&quot;f&quot;:0}" my_stoke="rgb(59, 162, 114)" my_stoke_width="1px" my_stoke_opacity="1" my_fill="none" my_fill_opacity="1" my_font_size="16px" opacity="1"/><path d="M 597.5031 351.2931 L 539.2987 327.1841 L 524.299 327.1841" fill="none" stroke="#fc8452" stroke-width="1" paint-order="fill" stroke-opacity="1" stroke-dasharray="" stroke-linecap="butt" stroke-miterlimit="10" transform_matrix="{&quot;a&quot;:1,&quot;b&quot;:0,&quot;c&quot;:0,&quot;d&quot;:1,&quot;e&quot;:0,&quot;f&quot;:0}" my_stoke="rgb(252, 132, 82)" my_stoke_width="1px" my_stoke_opacity="1" my_fill="none" my_fill_opacity="1" my_font_size="16px" opacity="1"/><path d="M 650.3546 308.8941 L 623.1841 243.2987 L 608.1844 243.2987" fill="none" stroke="#9a60b4" stroke-width="1" paint-order="fill" stroke-opacity="1" stroke-dasharray="" stroke-linecap="butt" stroke-miterlimit="10" transform_matrix="{&quot;a&quot;:1,&quot;b&quot;:0,&quot;c&quot;:0,&quot;d&quot;:1,&quot;e&quot;:0,&quot;f&quot;:0}" my_stoke="rgb(154, 96, 180)" my_stoke_width="1px" my_stoke_opacity="1" my_fill="none" my_fill_opacity="1" my_font_size="16px" opacity="1"/><path d="M 227.5 251.5926 A 5 5 0 0 1 232.6852 246.5961 A 140 140 0 0 1 364.3781 357.0995 A 5 5 0 0 1 360.3578 363.0736 L 251.6228 382.2465 A 5 5 0 0 1 246.1036 379.158 A 20 20 0 0 0 231.5 366.9041 A 5 5 0 0 1 227.5 362.0051 Z" fill="rgb(84, 112, 198)" fill-opacity="1" stroke="none" transform_matrix="{&quot;a&quot;:1,&quot;b&quot;:0,&quot;c&quot;:0,&quot;d&quot;:1,&quot;e&quot;:0,&quot;f&quot;:0}" my_stoke="none" my_stoke_width="1px" my_stoke_opacity="1" my_fill="rgb(84, 112, 198)" my_fill_opacity="1" my_font_size="16px" opacity="1"/><path d="M 339.66 366.7232 A 5 5 0 0 1 345.4857 370.9958 A 119 119 0 0 1 298.3069 482.1419 A 5 5 0 0 1 291.1866 480.9193 L 241.1974 406.8072 A 5 5 0 0 1 241.774 400.509 A 20 20 0 0 0 247.4928 387.0364 A 5 5 0 0 1 251.6228 382.2465 Z" fill="rgb(145, 204, 117)" fill-opacity="1" stroke="none" transform_matrix="{&quot;a&quot;:1,&quot;b&quot;:0,&quot;c&quot;:0,&quot;d&quot;:1,&quot;e&quot;:0,&quot;f&quot;:0}" my_stoke="none" my_stoke_width="1px" my_stoke_opacity="1" my_fill="rgb(145, 204, 117)" my_fill_opacity="1" my_font_size="16px" opacity="1"/><path d="M 282.7894 468.47 A 5 5 0 0 1 281.2273 475.547 A 104 104 0 0 1 193.4607 484.7717 A 5 5 0 0 1 190.4613 478.1741 L 218.324 409.2113 A 5 5 0 0 1 223.868 406.1674 A 20 20 0 0 0 235.1417 404.9825 A 5 5 0 0 1 241.1974 406.8072 Z" fill="rgb(250, 200, 88)" fill-opacity="1" stroke="none" transform_matrix="{&quot;a&quot;:1,&quot;b&quot;:0,&quot;c&quot;:0,&quot;d&quot;:1,&quot;e&quot;:0,&quot;f&quot;:0}" my_stoke="none" my_stoke_width="1px" my_stoke_opacity="1" my_fill="rgb(250, 200, 88)" my_fill_opacity="1" my_font_size="16px" opacity="1"/><path d="M 197.2147 461.4587 A 5 5 0 0 1 190.4232 464.0971 A 86 86 0 0 1 151.2441 426.2623 A 5 5 0 0 1 153.6439 419.3828 L 205.1228 396.463 A 5 5 0 0 1 211.2252 398.1246 A 20 20 0 0 0 216.4505 403.1706 A 5 5 0 0 1 218.324 409.2113 Z" fill="rgb(238, 102, 102)" fill-opacity="1" stroke="none" transform_matrix="{&quot;a&quot;:1,&quot;b&quot;:0,&quot;c&quot;:0,&quot;d&quot;:1,&quot;e&quot;:0,&quot;f&quot;:0}" my_stoke="none" my_stoke_width="1px" my_stoke_opacity="1" my_fill="rgb(238, 102, 102)" my_fill_opacity="1" my_font_size="16px" opacity="1"/><path d="M 159.1365 416.9374 A 5 5 0 0 1 152.4097 414.0943 A 80 80 0 0 1 149.3001 369.6248 A 5 5 0 0 1 155.5658 365.8732 L 203.954 379.7483 A 5 5 0 0 1 207.5606 384.9437 A 20 20 0 0 0 207.9713 390.8162 A 5 5 0 0 1 205.1228 396.463 Z" fill="rgb(115, 192, 222)" fill-opacity="1" stroke="none" transform_matrix="{&quot;a&quot;:1,&quot;b&quot;:0,&quot;c&quot;:0,&quot;d&quot;:1,&quot;e&quot;:0,&quot;f&quot;:0}" my_stoke="none" my_stoke_width="1px" my_stoke_opacity="1" my_fill="rgb(115, 192, 222)" my_fill_opacity="1" my_font_size="16px" opacity="1"/><path d="M 170.0249 370.0193 A 5 5 0 0 1 166.7284 363.4391 A 65 65 0 0 1 178.6078 343.6683 A 5 5 0 0 1 185.9655 343.4897 L 210.4844 368.8798 A 5 5 0 0 1 211.0102 375.1825 A 20 20 0 0 0 209.7657 377.2536 A 5 5 0 0 1 203.954 379.7483 Z" fill="rgb(59, 162, 114)" fill-opacity="1" stroke="none" transform_matrix="{&quot;a&quot;:1,&quot;b&quot;:0,&quot;c&quot;:0,&quot;d&quot;:1,&quot;e&quot;:0,&quot;f&quot;:0}" my_stoke="none" my_stoke_width="1px" my_stoke_opacity="1" my_fill="rgb(59, 162, 114)" my_fill_opacity="1" my_font_size="16px" opacity="1"/><path d="M 192.2431 349.9904 A 5 5 0 0 1 192.7359 342.5972 A 56 56 0 0 1 203.28 336.0085 A 5 5 0 0 1 210.141 338.8065 L 219.1223 363.4823 A 5 5 0 0 1 217.039 369.4539 A 20 20 0 0 0 216.7649 369.6252 A 5 5 0 0 1 210.4844 368.8798 Z" fill="rgb(252, 132, 82)" fill-opacity="1" stroke="none" transform_matrix="{&quot;a&quot;:1,&quot;b&quot;:0,&quot;c&quot;:0,&quot;d&quot;:1,&quot;e&quot;:0,&quot;f&quot;:0}" my_stoke="none" my_stoke_width="1px" my_stoke_opacity="1" my_fill="rgb(252, 132, 82)" my_fill_opacity="1" my_font_size="16px" opacity="1"/><path d="M 212.2044 344.4757 A 5 5 0 0 1 215.7254 337.9062 A 50 50 0 0 1 221.9444 336.8096 A 5 5 0 0 1 227.5 341.7786 L 227.5 362.6649 A 4.2028 4.2028 0 0 1 219.3479 364.1024 Z" fill="rgb(154, 96, 180)" fill-opacity="1" stroke="none" transform_matrix="{&quot;a&quot;:1,&quot;b&quot;:0,&quot;c&quot;:0,&quot;d&quot;:1,&quot;e&quot;:0,&quot;f&quot;:0}" my_stoke="none" my_stoke_width="1px" my_stoke_opacity="1" my_fill="rgb(154, 96, 180)" my_fill_opacity="1" my_font_size="16px" opacity="1"/><path d="M 682.5 251.5926 A 5 5 0 0 1 687.6852 246.5961 A 140 140 0 0 1 777.7605 283.9065 A 5 5 0 0 1 777.8939 291.1061 L 699.8205 369.1795 A 5 5 0 0 1 693.528 369.8152 A 20 20 0 0 0 686.5 366.9041 A 5 5 0 0 1 682.5 362.0051 Z" fill="rgb(84, 112, 198)" fill-opacity="1" stroke="none" transform_matrix="{&quot;a&quot;:1,&quot;b&quot;:0,&quot;c&quot;:0,&quot;d&quot;:1,&quot;e&quot;:0,&quot;f&quot;:0}" my_stoke="none" my_stoke_width="1px" my_stoke_opacity="1" my_fill="rgb(84, 112, 198)" my_fill_opacity="1" my_font_size="16px" opacity="1"/><path d="M 772.2329 296.7671 A 5 5 0 0 1 779.4405 296.909 A 132 132 0 0 1 814.3977 381.3031 A 5 5 0 0 1 809.4015 386.5 L 706.9949 386.5 A 5 5 0 0 1 702.0959 382.5 A 20 20 0 0 0 699.1848 375.472 A 5 5 0 0 1 699.8205 369.1795 Z" fill="rgb(145, 204, 117)" fill-opacity="1" stroke="none" transform_matrix="{&quot;a&quot;:1,&quot;b&quot;:0,&quot;c&quot;:0,&quot;d&quot;:1,&quot;e&quot;:0,&quot;f&quot;:0}" my_stoke="none" my_stoke_width="1px" my_stoke_opacity="1" my_fill="rgb(145, 204, 117)" my_fill_opacity="1" my_font_size="16px" opacity="1"/><path d="M 801.3949 386.5 A 5 5 0 0 1 806.3905 391.7101 A 124 124 0 0 1 773.7879 470.4197 A 5 5 0 0 1 766.5714 470.5714 L 699.8205 403.8205 A 5 5 0 0 1 699.1848 397.528 A 20 20 0 0 0 702.0959 390.5 A 5 5 0 0 1 706.9949 386.5 Z" fill="rgb(250, 200, 88)" fill-opacity="1" stroke="none" transform_matrix="{&quot;a&quot;:1,&quot;b&quot;:0,&quot;c&quot;:0,&quot;d&quot;:1,&quot;e&quot;:0,&quot;f&quot;:0}" my_stoke="none" my_stoke_width="1px" my_stoke_opacity="1" my_fill="rgb(250, 200, 88)" my_fill_opacity="1" my_font_size="16px" opacity="1"/><path d="M 760.9092 464.9092 A 5 5 0 0 1 760.7463 472.1359 A 116 116 0 0 1 687.7252 502.3823 A 5 5 0 0 1 682.5 497.3873 L 682.5 410.9949 A 5 5 0 0 1 686.5 406.0959 A 20 20 0 0 0 693.528 403.1848 A 5 5 0 0 1 699.8205 403.8205 Z" fill="rgb(238, 102, 102)" fill-opacity="1" stroke="none" transform_matrix="{&quot;a&quot;:1,&quot;b&quot;:0,&quot;c&quot;:0,&quot;d&quot;:1,&quot;e&quot;:0,&quot;f&quot;:0}" my_stoke="none" my_stoke_width="1px" my_stoke_opacity="1" my_fill="rgb(238, 102, 102)" my_fill_opacity="1" my_font_size="16px" opacity="1"/><path d="M 682.5 489.3786 A 5 5 0 0 1 677.2573 494.3727 A 108 108 0 0 1 609.9297 466.4847 A 5 5 0 0 1 609.7539 459.2461 L 665.1795 403.8205 A 5 5 0 0 1 671.472 403.1848 A 20 20 0 0 0 678.5 406.0959 A 5 5 0 0 1 682.5 410.9949 Z" fill="rgb(115, 192, 222)" fill-opacity="1" stroke="none" transform_matrix="{&quot;a&quot;:1,&quot;b&quot;:0,&quot;c&quot;:0,&quot;d&quot;:1,&quot;e&quot;:0,&quot;f&quot;:0}" my_stoke="none" my_stoke_width="1px" my_stoke_opacity="1" my_fill="rgb(115, 192, 222)" my_fill_opacity="1" my_font_size="16px" opacity="1"/><path d="M 615.418 453.582 A 5 5 0 0 1 608.1657 453.3911 A 100 100 0 0 1 582.6386 391.7632 A 5 5 0 0 1 587.6317 386.5 L 658.0051 386.5 A 5 5 0 0 1 662.9041 390.5 A 20 20 0 0 0 665.8152 397.528 A 5 5 0 0 1 665.1795 403.8205 Z" fill="rgb(59, 162, 114)" fill-opacity="1" stroke="none" transform_matrix="{&quot;a&quot;:1,&quot;b&quot;:0,&quot;c&quot;:0,&quot;d&quot;:1,&quot;e&quot;:0,&quot;f&quot;:0}" my_stoke="none" my_stoke_width="1px" my_stoke_opacity="1" my_fill="rgb(59, 162, 114)" my_fill_opacity="1" my_font_size="16px" opacity="1"/><path d="M 595.6438 386.5 A 5 5 0 0 1 590.6521 381.2126 A 92 92 0 0 1 613.815 325.2924 A 5 5 0 0 1 621.0834 325.0834 L 665.1795 369.1795 A 5 5 0 0 1 665.8152 375.472 A 20 20 0 0 0 662.9041 382.5 A 5 5 0 0 1 658.0051 386.5 Z" fill="rgb(252, 132, 82)" fill-opacity="1" stroke="none" transform_matrix="{&quot;a&quot;:1,&quot;b&quot;:0,&quot;c&quot;:0,&quot;d&quot;:1,&quot;e&quot;:0,&quot;f&quot;:0}" my_stoke="none" my_stoke_width="1px" my_stoke_opacity="1" my_fill="rgb(252, 132, 82)" my_fill_opacity="1" my_font_size="16px" opacity="1"/><path d="M 626.7506 330.7506 A 5 5 0 0 1 626.9814 323.4628 A 84 84 0 0 1 677.1835 302.6684 A 5 5 0 0 1 682.5 307.6584 L 682.5 362.0051 A 5 5 0 0 1 678.5 366.9041 A 20 20 0 0 0 671.472 369.8152 A 5 5 0 0 1 665.1795 369.1795 Z" fill="rgb(154, 96, 180)" fill-opacity="1" stroke="none" transform_matrix="{&quot;a&quot;:1,&quot;b&quot;:0,&quot;c&quot;:0,&quot;d&quot;:1,&quot;e&quot;:0,&quot;f&quot;:0}" my_stoke="none" my_stoke_width="1px" my_stoke_opacity="1" my_fill="rgb(154, 96, 180)" my_fill_opacity="1" my_font_size="16px" opacity="1"/><text xml:space="preserve" fill="rgb(51, 51, 51)" fill-opacity="1" stroke="rgb(255, 255, 255)" stroke-width="2px" paint-order="stroke" stroke-opacity="1" stroke-dasharray="" stroke-linecap="butt" stroke-miterlimit="2" transform="matrix(1,0,0,1,761.8159,243.2987)" dominant-baseline="central" text-anchor="start" x="0" y="0" style="font: 12px &quot;Microsoft YaHei&quot;; fill: rgb(51, 51, 51);" transform_matrix="{&quot;a&quot;:1,&quot;b&quot;:0,&quot;c&quot;:0,&quot;d&quot;:1,&quot;e&quot;:761.81591796875,&quot;f&quot;:243.2987060546875}" text_bbox="{&quot;x&quot;:0,&quot;y&quot;:-8,&quot;w&quot;:35.171875,&quot;h&quot;:16}" opacity="1" font-family="&quot;Microsoft YaHei&quot;" my_stoke="rgb(255, 255, 255)" my_stoke_width="2px" my_stoke_opacity="1" my_fill="rgb(51, 51, 51)" my_fill_opacity="1" my_font_size="12px" clip-path="none" content="rose 1">rose 1</text><text xml:space="preserve" fill="rgb(51, 51, 51)" fill-opacity="1" stroke="rgb(255, 255, 255)" stroke-width="2px" paint-order="stroke" stroke-opacity="1" stroke-dasharray="" stroke-linecap="butt" stroke-miterlimit="2" transform="matrix(1,0,0,1,845.7013,327.1841)" dominant-baseline="central" text-anchor="start" x="0" y="0" style="font: 12px &quot;Microsoft YaHei&quot;; fill: rgb(51, 51, 51);" transform_matrix="{&quot;a&quot;:1,&quot;b&quot;:0,&quot;c&quot;:0,&quot;d&quot;:1,&quot;e&quot;:845.7012939453125,&quot;f&quot;:327.1841125488281}" text_bbox="{&quot;x&quot;:0,&quot;y&quot;:-8,&quot;w&quot;:35.171875,&quot;h&quot;:16}" opacity="1" font-family="&quot;Microsoft YaHei&quot;" my_stoke="rgb(255, 255, 255)" my_stoke_width="2px" my_stoke_opacity="1" my_fill="rgb(51, 51, 51)" my_fill_opacity="1" my_font_size="12px" clip-path="none" content="rose 2">rose 2</text><text xml:space="preserve" fill="rgb(51, 51, 51)" fill-opacity="1" stroke="rgb(255, 255, 255)" stroke-width="2px" paint-order="stroke" stroke-opacity="1" stroke-dasharray="" stroke-linecap="butt" stroke-miterlimit="2" transform="matrix(1,0,0,1,845.7013,445.8159)" dominant-baseline="central" text-anchor="start" x="0" y="0" style="font: 12px &quot;Microsoft YaHei&quot;; fill: rgb(51, 51, 51);" transform_matrix="{&quot;a&quot;:1,&quot;b&quot;:0,&quot;c&quot;:0,&quot;d&quot;:1,&quot;e&quot;:845.7012939453125,&quot;f&quot;:445.8158874511719}" text_bbox="{&quot;x&quot;:0,&quot;y&quot;:-8,&quot;w&quot;:35.171875,&quot;h&quot;:16}" opacity="1" font-family="&quot;Microsoft YaHei&quot;" my_stoke="rgb(255, 255, 255)" my_stoke_width="2px" my_stoke_opacity="1" my_fill="rgb(51, 51, 51)" my_fill_opacity="1" my_font_size="12px" clip-path="none" content="rose 3">rose 3</text><text xml:space="preserve" fill="rgb(51, 51, 51)" fill-opacity="1" stroke="rgb(255, 255, 255)" stroke-width="2px" paint-order="stroke" stroke-opacity="1" stroke-dasharray="" stroke-linecap="butt" stroke-miterlimit="2" transform="matrix(1,0,0,1,761.8159,529.7013)" dominant-baseline="central" text-anchor="start" x="0" y="0" style="font: 12px &quot;Microsoft YaHei&quot;; fill: rgb(51, 51, 51);" transform_matrix="{&quot;a&quot;:1,&quot;b&quot;:0,&quot;c&quot;:0,&quot;d&quot;:1,&quot;e&quot;:761.81591796875,&quot;f&quot;:529.7012939453125}" text_bbox="{&quot;x&quot;:0,&quot;y&quot;:-8,&quot;w&quot;:36.125,&quot;h&quot;:16}" opacity="1" font-family="&quot;Microsoft YaHei&quot;" my_stoke="rgb(255, 255, 255)" my_stoke_width="2px" my_stoke_opacity="1" my_fill="rgb(51, 51, 51)" my_fill_opacity="1" my_font_size="12px" clip-path="none" content="rose 4">rose 4</text><text xml:space="preserve" fill="rgb(51, 51, 51)" fill-opacity="1" stroke="rgb(255, 255, 255)" stroke-width="2px" paint-order="stroke" stroke-opacity="1" stroke-dasharray="" stroke-linecap="butt" stroke-miterlimit="2" transform="matrix(1,0,0,1,603.1841,529.7013)" dominant-baseline="central" text-anchor="end" x="0" y="0" style="font: 12px &quot;Microsoft YaHei&quot;; fill: rgb(51, 51, 51);" transform_matrix="{&quot;a&quot;:1,&quot;b&quot;:0,&quot;c&quot;:0,&quot;d&quot;:1,&quot;e&quot;:603.18408203125,&quot;f&quot;:529.7012939453125}" text_bbox="{&quot;x&quot;:-35.171875,&quot;y&quot;:-8,&quot;w&quot;:35.171875,&quot;h&quot;:16}" opacity="1" font-family="&quot;Microsoft YaHei&quot;" my_stoke="rgb(255, 255, 255)" my_stoke_width="2px" my_stoke_opacity="1" my_fill="rgb(51, 51, 51)" my_fill_opacity="1" my_font_size="12px" clip-path="none" content="rose 5">rose 5</text><text xml:space="preserve" fill="rgb(51, 51, 51)" fill-opacity="1" stroke="rgb(255, 255, 255)" stroke-width="2px" paint-order="stroke" stroke-opacity="1" stroke-dasharray="" stroke-linecap="butt" stroke-miterlimit="2" transform="matrix(1,0,0,1,519.2987,445.8159)" dominant-baseline="central" text-anchor="end" x="0" y="0" style="font: 12px &quot;Microsoft YaHei&quot;; fill: rgb(51, 51, 51);" transform_matrix="{&quot;a&quot;:1,&quot;b&quot;:0,&quot;c&quot;:0,&quot;d&quot;:1,&quot;e&quot;:519.2987060546875,&quot;f&quot;:445.8158874511719}" text_bbox="{&quot;x&quot;:-35.171875,&quot;y&quot;:-8,&quot;w&quot;:35.171875,&quot;h&quot;:16}" opacity="1" font-family="&quot;Microsoft YaHei&quot;" my_stoke="rgb(255, 255, 255)" my_stoke_width="2px" my_stoke_opacity="1" my_fill="rgb(51, 51, 51)" my_fill_opacity="1" my_font_size="12px" clip-path="none" content="rose 6">rose 6</text><text xml:space="preserve" fill="rgb(51, 51, 51)" fill-opacity="1" stroke="rgb(255, 255, 255)" stroke-width="2px" paint-order="stroke" stroke-opacity="1" stroke-dasharray="" stroke-linecap="butt" stroke-miterlimit="2" transform="matrix(1,0,0,1,519.2987,327.1841)" dominant-baseline="central" text-anchor="end" x="0" y="0" style="font: 12px &quot;Microsoft YaHei&quot;; fill: rgb(51, 51, 51);" transform_matrix="{&quot;a&quot;:1,&quot;b&quot;:0,&quot;c&quot;:0,&quot;d&quot;:1,&quot;e&quot;:519.2987060546875,&quot;f&quot;:327.1841125488281}" text_bbox="{&quot;x&quot;:-35.171875,&quot;y&quot;:-8,&quot;w&quot;:35.171875,&quot;h&quot;:16}" opacity="1" font-family="&quot;Microsoft YaHei&quot;" my_stoke="rgb(255, 255, 255)" my_stoke_width="2px" my_stoke_opacity="1" my_fill="rgb(51, 51, 51)" my_fill_opacity="1" my_font_size="12px" clip-path="none" content="rose 7">rose 7</text><text xml:space="preserve" fill="rgb(51, 51, 51)" fill-opacity="1" stroke="rgb(255, 255, 255)" stroke-width="2px" paint-order="stroke" stroke-opacity="1" stroke-dasharray="" stroke-linecap="butt" stroke-miterlimit="2" transform="matrix(1,0,0,1,603.1841,243.2987)" dominant-baseline="central" text-anchor="end" x="0" y="0" style="font: 12px &quot;Microsoft YaHei&quot;; fill: rgb(51, 51, 51);" transform_matrix="{&quot;a&quot;:1,&quot;b&quot;:0,&quot;c&quot;:0,&quot;d&quot;:1,&quot;e&quot;:603.18408203125,&quot;f&quot;:243.2987060546875}" text_bbox="{&quot;x&quot;:-35.171875,&quot;y&quot;:-8,&quot;w&quot;:35.171875,&quot;h&quot;:16}" opacity="1" font-family="&quot;Microsoft YaHei&quot;" my_stoke="rgb(255, 255, 255)" my_stoke_width="2px" my_stoke_opacity="1" my_fill="rgb(51, 51, 51)" my_fill_opacity="1" my_font_size="12px" clip-path="none" content="rose 8">rose 8</text><path d="M -5 -5 L 5 -5 L 5 5 L -5 5 L -5 -5 Z" fill="rgb(0, 0, 0)" fill-opacity="0" stroke="#ccc" stroke-width="0" paint-order="fill" stroke-opacity="1" stroke-dasharray="" stroke-linecap="butt" stroke-miterlimit="10" transform="matrix(1,0,0,1,455,768)" transform_matrix="{&quot;a&quot;:1,&quot;b&quot;:0,&quot;c&quot;:0,&quot;d&quot;:1,&quot;e&quot;:455,&quot;f&quot;:768}" my_stoke="rgb(204, 204, 204)" my_stoke_width="0px" my_stoke_opacity="1" my_fill="rgb(0, 0, 0)" my_fill_opacity="0" my_font_size="16px" opacity="1"/><path d="M -12.7902 -15 L 66.663 -15 L 66.663 15 L -12.7902 15 L -12.7902 -15 Z" fill="none" fill-opacity="1" stroke="#ccc" stroke-width="0" paint-order="fill" stroke-opacity="1" stroke-dasharray="" stroke-linecap="butt" stroke-miterlimit="10" transform="matrix(1,0,0,1,843.337,15)" transform_matrix="{&quot;a&quot;:1,&quot;b&quot;:0,&quot;c&quot;:0,&quot;d&quot;:1,&quot;e&quot;:843.3369750976562,&quot;f&quot;:15}" my_stoke="rgb(204, 204, 204)" my_stoke_width="0px" my_stoke_opacity="1" my_fill="none" my_fill_opacity="1" my_font_size="16px" opacity="1"/><path d="M -68 -5 L 68 -5 L 68 45 L -68 45 L -68 -5 Z" fill="rgb(0, 0, 0)" fill-opacity="0" stroke="#ccc" stroke-width="0" paint-order="fill" stroke-opacity="1" stroke-dasharray="" stroke-linecap="butt" stroke-miterlimit="10" transform="matrix(1,0,0,1,455,5)" transform_matrix="{&quot;a&quot;:1,&quot;b&quot;:0,&quot;c&quot;:0,&quot;d&quot;:1,&quot;e&quot;:455,&quot;f&quot;:5}" my_stoke="rgb(204, 204, 204)" my_stoke_width="0px" my_stoke_opacity="1" my_fill="rgb(0, 0, 0)" my_fill_opacity="0" my_font_size="16px" opacity="1"/><path d="M -3.683 -3.4018 L 0.4688 -3.4018 M -3.683 -3.4018 L 0.4688 -3.4018 M 3.7902 -0.1339 L -3.7098 -0.1339 M -5.2902 -7.5 L -5.2902 7.5 L 5.2902 7.5 L 5.2902 -4.0714 L 1.9152 -7.5 L -5.2902 -7.5 Z M 1.9152 -7.4464 L 1.9152 -4.0446 L 5.2902 -4.0446 M 3.7902 3.1339 L -3.7098 3.1339" fill="none" stroke="#666" stroke-width="1" paint-order="fill" stroke-opacity="1" stroke-dasharray="" stroke-linecap="butt" stroke-miterlimit="10" transform="matrix(1,0,0,1,843.337,15)" transform_matrix="{&quot;a&quot;:1,&quot;b&quot;:0,&quot;c&quot;:0,&quot;d&quot;:1,&quot;e&quot;:843.3369750976562,&quot;f&quot;:15}" my_stoke="rgb(102, 102, 102)" my_stoke_width="1px" my_stoke_opacity="1" my_fill="none" my_fill_opacity="1" my_font_size="16px" opacity="1"/><path d="M -6.9994 0.9083 M 4.5416 -2.9654 L 7.1597 -2.9654 L 7.1597 -5.6904 M 7.0261 -2.6448 C 5.9041 -5.6102 2.8051 -7.8543 -0.8549 -7.4536 C -4.6485 -7.0261 -7.5872 -3.6867 -7.4536 0.1603 M -4.5416 2.9654 L -7.1864 2.9654 L -7.1864 5.6904 M -7.0261 2.6448 C -5.9041 5.6102 -2.8051 7.8543 0.8549 7.4536 C 4.6485 7.0261 7.5872 3.6867 7.4536 -0.1603" fill="none" stroke="#666" stroke-width="1" paint-order="fill" stroke-opacity="1" stroke-dasharray="" stroke-linecap="butt" stroke-miterlimit="10" transform="matrix(1,0,0,1,869.0851,15)" transform_matrix="{&quot;a&quot;:1,&quot;b&quot;:0,&quot;c&quot;:0,&quot;d&quot;:1,&quot;e&quot;:869.0850830078125,&quot;f&quot;:15}" my_stoke="rgb(102, 102, 102)" my_stoke_width="1px" my_stoke_opacity="1" my_fill="none" my_fill_opacity="1" my_font_size="16px" opacity="1"/><path d="M -6.4526 -1.5776 L -0.0905 4.2672 L 6.4784 -1.4483 M -6.4784 3.7759 L -6.4784 7.5 L 6.2457 7.5 L 6.2457 3.7759 M -0.1164 4.1638 L -0.1164 -7.5" fill="none" stroke="#666" stroke-width="1" paint-order="fill" stroke-opacity="1" stroke-dasharray="" stroke-linecap="butt" stroke-miterlimit="10" transform="matrix(1,0,0,1,896.0216,15)" transform_matrix="{&quot;a&quot;:1,&quot;b&quot;:0,&quot;c&quot;:0,&quot;d&quot;:1,&quot;e&quot;:896.0216064453125,&quot;f&quot;:15}" my_stoke="rgb(102, 102, 102)" my_stoke_width="1px" my_stoke_opacity="1" my_fill="none" my_fill_opacity="1" my_font_size="16px" opacity="1"/><text xml:space="preserve" fill="rgb(70, 70, 70)" fill-opacity="1" stroke="none" transform="matrix(1,0,0,1,455,5)" dominant-baseline="central" text-anchor="middle" x="0" y="9" style="font: bold 18px &quot;Microsoft YaHei&quot;; fill: rgb(70, 70, 70);" transform_matrix="{&quot;a&quot;:1,&quot;b&quot;:0,&quot;c&quot;:0,&quot;d&quot;:1,&quot;e&quot;:455,&quot;f&quot;:5}" text_bbox="{&quot;x&quot;:-63,&quot;y&quot;:-3,&quot;w&quot;:126,&quot;h&quot;:24}" opacity="1" stroke-width="1px" stroke-opacity="1" font-family="&quot;Microsoft YaHei&quot;" my_stoke="none" my_stoke_width="1px" my_stoke_opacity="1" my_fill="rgb(70, 70, 70)" my_fill_opacity="1" my_font_size="18px" clip-path="none" content="南丁格尔玫瑰图">南丁格尔玫瑰图</text><text xml:space="preserve" fill="rgb(110, 112, 121)" fill-opacity="1" stroke="none" transform="matrix(1,0,0,1,455,5)" dominant-baseline="central" text-anchor="middle" x="0" y="34" style="font: 12px &quot;Microsoft YaHei&quot;; fill: rgb(110, 112, 121);" transform_matrix="{&quot;a&quot;:1,&quot;b&quot;:0,&quot;c&quot;:0,&quot;d&quot;:1,&quot;e&quot;:455,&quot;f&quot;:5}" text_bbox="{&quot;x&quot;:-25,&quot;y&quot;:26,&quot;w&quot;:49,&quot;h&quot;:16}" opacity="1" stroke-width="1px" stroke-opacity="1" font-family="&quot;Microsoft YaHei&quot;" my_stoke="none" my_stoke_width="1px" my_stoke_opacity="1" my_fill="rgb(110, 112, 121)" my_fill_opacity="1" my_font_size="12px" clip-path="none" content="纯属虚构">纯属虚构</text></g></svg>