<svg xmlns="http://www.w3.org/2000/svg" xmlns:xlink="http://www.w3.org/1999/xlink" version="1.1" baseProfile="full" width="910" height="773" style="user-select: none; position: absolute; left: 0px; top: 0px;" transform_matrix="{&quot;a&quot;:1,&quot;b&quot;:0,&quot;c&quot;:0,&quot;d&quot;:1,&quot;e&quot;:0,&quot;f&quot;:0}"><g><path d="M 257.5 386.5 A 30 30 0 1 1 257.5 386.497 M 227.5 386.5 A 0 0 0 1 0 227.5 386.5" fill="rgb(119, 234, 223)" fill-opacity="1" stroke="none" style="filter: url(&quot;#zr2498-shadow-0&quot;);" transform_matrix="{&quot;a&quot;:1,&quot;b&quot;:0,&quot;c&quot;:0,&quot;d&quot;:1,&quot;e&quot;:0,&quot;f&quot;:0}" my_stoke="none" my_stoke_width="1px" my_stoke_opacity="1" my_fill="rgb(119, 234, 223)" my_fill_opacity="1" my_font_size="16px" opacity="1"/><path d="M 287.5 386.5 A 60 60 0 1 1 287.5 386.494 M 257.5 386.5 A 30 30 0 1 0 257.5 386.503" fill="rgb(38, 195, 190)" fill-opacity="1" stroke="none" style="filter: url(&quot;#zr2498-shadow-0&quot;);" transform_matrix="{&quot;a&quot;:1,&quot;b&quot;:0,&quot;c&quot;:0,&quot;d&quot;:1,&quot;e&quot;:0,&quot;f&quot;:0}" my_stoke="none" my_stoke_width="1px" my_stoke_opacity="1" my_fill="rgb(38, 195, 190)" my_fill_opacity="1" my_font_size="16px" opacity="1"/><path d="M 317.5 386.5 A 90 90 0 1 1 317.5 386.491 M 287.5 386.5 A 60 60 0 1 0 287.5 386.506" fill="rgb(100, 175, 233)" fill-opacity="1" stroke="none" style="filter: url(&quot;#zr2498-shadow-0&quot;);" transform_matrix="{&quot;a&quot;:1,&quot;b&quot;:0,&quot;c&quot;:0,&quot;d&quot;:1,&quot;e&quot;:0,&quot;f&quot;:0}" my_stoke="none" my_stoke_width="1px" my_stoke_opacity="1" my_fill="rgb(100, 175, 233)" my_fill_opacity="1" my_font_size="16px" opacity="1"/><path d="M 347.5 386.5 A 120 120 0 1 1 347.5 386.488 M 317.5 386.5 A 90 90 0 1 0 317.5 386.509" fill="rgb(66, 139, 212)" fill-opacity="1" stroke="none" style="filter: url(&quot;#zr2498-shadow-0&quot;);" transform_matrix="{&quot;a&quot;:1,&quot;b&quot;:0,&quot;c&quot;:0,&quot;d&quot;:1,&quot;e&quot;:0,&quot;f&quot;:0}" my_stoke="none" my_stoke_width="1px" my_stoke_opacity="1" my_fill="rgb(66, 139, 212)" my_fill_opacity="1" my_font_size="16px" opacity="1"/><path d="M 227.5 386.5 A 0 0 0 1 1 227.5 386.5 M 257.5 386.5 A 30 30 0 1 1 257.5 386.497 M 287.5 386.5 A 60 60 0 1 1 287.5 386.494 M 317.5 386.5 A 90 90 0 1 1 317.5 386.491 M 347.5 386.5 A 120 120 0 1 1 347.5 386.488" fill="none" stroke="rgb(211,253,250)" stroke-width="1" paint-order="fill" stroke-opacity="0.8" stroke-dasharray="" stroke-linecap="butt" stroke-miterlimit="10" transform_matrix="{&quot;a&quot;:1,&quot;b&quot;:0,&quot;c&quot;:0,&quot;d&quot;:1,&quot;e&quot;:0,&quot;f&quot;:0}" my_stoke="rgb(211, 253, 250)" my_stoke_width="1px" my_stoke_opacity="0.8" my_fill="none" my_fill_opacity="1" my_font_size="16px" opacity="1"/><path d="M 682.5 362.5 L 661.7154 374.5 L 661.7154 398.5 L 682.5 410.5 L 703.2846 398.5 L 703.2846 374.5 L 682.5 362.5 L 682.5 386.5 Z M 682.5 314.5 L 620.1462 350.5 L 620.1462 422.5 L 682.5 458.5 L 744.8538 422.5 L 744.8538 350.5 L 682.5 314.5 L 682.5 338.5 L 724.0692 362.5 L 724.0692 410.5 L 682.5 434.5 L 640.9308 410.5 L 640.9308 362.5 L 682.5 338.5 Z M 682.5 266.5 L 578.577 326.5 L 578.577 446.5 L 682.5 506.5 L 786.423 446.5 L 786.423 326.5 L 682.5 266.5 L 682.5 290.5 L 765.6384 338.5 L 765.6384 434.5 L 682.5 482.5 L 599.3616 434.5 L 599.3616 338.5 L 682.5 290.5 Z" fill="rgb(250, 250, 250)" fill-opacity="0.2" stroke="none" transform_matrix="{&quot;a&quot;:1,&quot;b&quot;:0,&quot;c&quot;:0,&quot;d&quot;:1,&quot;e&quot;:0,&quot;f&quot;:0}" my_stoke="none" my_stoke_width="1px" my_stoke_opacity="1" my_fill="rgb(250, 250, 250)" my_fill_opacity="0.2" my_font_size="16px" opacity="1"/><path d="M 682.5 338.5 L 640.9308 362.5 L 640.9308 410.5 L 682.5 434.5 L 724.0692 410.5 L 724.0692 362.5 L 682.5 338.5 L 682.5 362.5 L 703.2846 374.5 L 703.2846 398.5 L 682.5 410.5 L 661.7154 398.5 L 661.7154 374.5 L 682.5 362.5 Z M 682.5 290.5 L 599.3616 338.5 L 599.3616 434.5 L 682.5 482.5 L 765.6384 434.5 L 765.6384 338.5 L 682.5 290.5 L 682.5 314.5 L 744.8538 350.5 L 744.8538 422.5 L 682.5 458.5 L 620.1462 422.5 L 620.1462 350.5 L 682.5 314.5 Z" fill="rgb(210, 219, 238)" fill-opacity="0.2" stroke="none" transform_matrix="{&quot;a&quot;:1,&quot;b&quot;:0,&quot;c&quot;:0,&quot;d&quot;:1,&quot;e&quot;:0,&quot;f&quot;:0}" my_stoke="none" my_stoke_width="1px" my_stoke_opacity="1" my_fill="rgb(210, 219, 238)" my_fill_opacity="0.2" my_font_size="16px" opacity="1"/><path d="M 682.5 386.5 M 682.5 362.5 L 661.7154 374.5 L 661.7154 398.5 L 682.5 410.5 L 703.2846 398.5 L 703.2846 374.5 L 682.5 362.5 M 682.5 338.5 L 640.9308 362.5 L 640.9308 410.5 L 682.5 434.5 L 724.0692 410.5 L 724.0692 362.5 L 682.5 338.5 M 682.5 314.5 L 620.1462 350.5 L 620.1462 422.5 L 682.5 458.5 L 744.8538 422.5 L 744.8538 350.5 L 682.5 314.5 M 682.5 290.5 L 599.3616 338.5 L 599.3616 434.5 L 682.5 482.5 L 765.6384 434.5 L 765.6384 338.5 L 682.5 290.5 M 682.5 266.5 L 578.577 326.5 L 578.577 446.5 L 682.5 506.5 L 786.423 446.5 L 786.423 326.5 L 682.5 266.5" fill="none" stroke="#E0E6F1" stroke-width="1" paint-order="fill" stroke-opacity="1" stroke-dasharray="" stroke-linecap="butt" stroke-miterlimit="10" transform_matrix="{&quot;a&quot;:1,&quot;b&quot;:0,&quot;c&quot;:0,&quot;d&quot;:1,&quot;e&quot;:0,&quot;f&quot;:0}" my_stoke="rgb(224, 230, 241)" my_stoke_width="1px" my_stoke_opacity="1" my_fill="none" my_fill_opacity="1" my_font_size="16px" opacity="1"/><path d="M 227.5 386.5 L 227.5 266.5" fill="none" stroke="rgb(211,253,250)" stroke-width="1" paint-order="fill" stroke-opacity="0.8" stroke-dasharray="" stroke-linecap="round" stroke-miterlimit="10" transform_matrix="{&quot;a&quot;:1,&quot;b&quot;:0,&quot;c&quot;:0,&quot;d&quot;:1,&quot;e&quot;:0,&quot;f&quot;:0}" my_stoke="rgb(211, 253, 250)" my_stoke_width="1px" my_stoke_opacity="0.8" my_fill="none" my_fill_opacity="1" my_font_size="16px" opacity="1"/><text xml:space="preserve" fill="rgb(66, 139, 212)" fill-opacity="1" stroke="none" transform="matrix(1,0,0,1,227.5,251.5)" dominant-baseline="central" text-anchor="middle" x="0" y="-6" style="font: 12px &quot;Microsoft YaHei&quot;; fill: rgb(66, 139, 212);" transform_matrix="{&quot;a&quot;:1,&quot;b&quot;:0,&quot;c&quot;:0,&quot;d&quot;:1,&quot;e&quot;:227.5,&quot;f&quot;:251.5}" text_bbox="{&quot;x&quot;:-30,&quot;y&quot;:-14,&quot;w&quot;:60,&quot;h&quot;:16}" opacity="1" stroke-width="1px" stroke-opacity="1" font-family="&quot;Microsoft YaHei&quot;" my_stoke="none" my_stoke_width="1px" my_stoke_opacity="1" my_fill="rgb(66, 139, 212)" my_fill_opacity="1" my_font_size="12px" clip-path="none" content="【指标一】">【指标一】</text><path d="M 227.5 386.5 L 113.3732 349.418" fill="none" stroke="rgb(211,253,250)" stroke-width="1" paint-order="fill" stroke-opacity="0.8" stroke-dasharray="" stroke-linecap="round" stroke-miterlimit="10" transform_matrix="{&quot;a&quot;:1,&quot;b&quot;:0,&quot;c&quot;:0,&quot;d&quot;:1,&quot;e&quot;:0,&quot;f&quot;:0}" my_stoke="rgb(211, 253, 250)" my_stoke_width="1px" my_stoke_opacity="0.8" my_fill="none" my_fill_opacity="1" my_font_size="16px" opacity="1"/><text xml:space="preserve" fill="rgb(66, 139, 212)" fill-opacity="1" stroke="none" transform="matrix(1,0,0,1,99.1074,344.7827)" dominant-baseline="central" text-anchor="end" x="0" y="0" style="font: 12px &quot;Microsoft YaHei&quot;; fill: rgb(66, 139, 212);" transform_matrix="{&quot;a&quot;:1,&quot;b&quot;:0,&quot;c&quot;:0,&quot;d&quot;:1,&quot;e&quot;:99.1073989868164,&quot;f&quot;:344.78271484375}" text_bbox="{&quot;x&quot;:-60,&quot;y&quot;:-8,&quot;w&quot;:60,&quot;h&quot;:16}" opacity="1" stroke-width="1px" stroke-opacity="1" font-family="&quot;Microsoft YaHei&quot;" my_stoke="none" my_stoke_width="1px" my_stoke_opacity="1" my_fill="rgb(66, 139, 212)" my_fill_opacity="1" my_font_size="12px" clip-path="none" content="【指标二】">【指标二】</text><path d="M 227.5 386.5 L 156.9658 483.582" fill="none" stroke="rgb(211,253,250)" stroke-width="1" paint-order="fill" stroke-opacity="0.8" stroke-dasharray="" stroke-linecap="round" stroke-miterlimit="10" transform_matrix="{&quot;a&quot;:1,&quot;b&quot;:0,&quot;c&quot;:0,&quot;d&quot;:1,&quot;e&quot;:0,&quot;f&quot;:0}" my_stoke="rgb(211, 253, 250)" my_stoke_width="1px" my_stoke_opacity="0.8" my_fill="none" my_fill_opacity="1" my_font_size="16px" opacity="1"/><text xml:space="preserve" fill="rgb(66, 139, 212)" fill-opacity="1" stroke="none" transform="matrix(1,0,0,1,148.149,495.7173)" dominant-baseline="central" text-anchor="end" x="0" y="0" style="font: 12px &quot;Microsoft YaHei&quot;; fill: rgb(66, 139, 212);" transform_matrix="{&quot;a&quot;:1,&quot;b&quot;:0,&quot;c&quot;:0,&quot;d&quot;:1,&quot;e&quot;:148.1490020751953,&quot;f&quot;:495.71728515625}" text_bbox="{&quot;x&quot;:-60,&quot;y&quot;:-8,&quot;w&quot;:60,&quot;h&quot;:16}" opacity="1" stroke-width="1px" stroke-opacity="1" font-family="&quot;Microsoft YaHei&quot;" my_stoke="none" my_stoke_width="1px" my_stoke_opacity="1" my_fill="rgb(66, 139, 212)" my_fill_opacity="1" my_font_size="12px" clip-path="none" content="【指标三】">【指标三】</text><path d="M 227.5 386.5 L 298.0342 483.582" fill="none" stroke="rgb(211,253,250)" stroke-width="1" paint-order="fill" stroke-opacity="0.8" stroke-dasharray="" stroke-linecap="round" stroke-miterlimit="10" transform_matrix="{&quot;a&quot;:1,&quot;b&quot;:0,&quot;c&quot;:0,&quot;d&quot;:1,&quot;e&quot;:0,&quot;f&quot;:0}" my_stoke="rgb(211, 253, 250)" my_stoke_width="1px" my_stoke_opacity="0.8" my_fill="none" my_fill_opacity="1" my_font_size="16px" opacity="1"/><text xml:space="preserve" fill="rgb(66, 139, 212)" fill-opacity="1" stroke="none" transform="matrix(1,0,0,1,306.851,495.7173)" dominant-baseline="central" text-anchor="start" x="0" y="0" style="font: 12px &quot;Microsoft YaHei&quot;; fill: rgb(66, 139, 212);" transform_matrix="{&quot;a&quot;:1,&quot;b&quot;:0,&quot;c&quot;:0,&quot;d&quot;:1,&quot;e&quot;:306.85101318359375,&quot;f&quot;:495.71728515625}" text_bbox="{&quot;x&quot;:0,&quot;y&quot;:-8,&quot;w&quot;:60,&quot;h&quot;:16}" opacity="1" stroke-width="1px" stroke-opacity="1" font-family="&quot;Microsoft YaHei&quot;" my_stoke="none" my_stoke_width="1px" my_stoke_opacity="1" my_fill="rgb(66, 139, 212)" my_fill_opacity="1" my_font_size="12px" clip-path="none" content="【指标四】">【指标四】</text><path d="M 227.5 386.5 L 341.6268 349.418" fill="none" stroke="rgb(211,253,250)" stroke-width="1" paint-order="fill" stroke-opacity="0.8" stroke-dasharray="" stroke-linecap="round" stroke-miterlimit="10" transform_matrix="{&quot;a&quot;:1,&quot;b&quot;:0,&quot;c&quot;:0,&quot;d&quot;:1,&quot;e&quot;:0,&quot;f&quot;:0}" my_stoke="rgb(211, 253, 250)" my_stoke_width="1px" my_stoke_opacity="0.8" my_fill="none" my_fill_opacity="1" my_font_size="16px" opacity="1"/><text xml:space="preserve" fill="rgb(66, 139, 212)" fill-opacity="1" stroke="none" transform="matrix(1,0,0,1,355.8926,344.7827)" dominant-baseline="central" text-anchor="start" x="0" y="0" style="font: 12px &quot;Microsoft YaHei&quot;; fill: rgb(66, 139, 212);" transform_matrix="{&quot;a&quot;:1,&quot;b&quot;:0,&quot;c&quot;:0,&quot;d&quot;:1,&quot;e&quot;:355.8926086425781,&quot;f&quot;:344.78271484375}" text_bbox="{&quot;x&quot;:0,&quot;y&quot;:-8,&quot;w&quot;:60,&quot;h&quot;:16}" opacity="1" stroke-width="1px" stroke-opacity="1" font-family="&quot;Microsoft YaHei&quot;" my_stoke="none" my_stoke_width="1px" my_stoke_opacity="1" my_fill="rgb(66, 139, 212)" my_fill_opacity="1" my_font_size="12px" clip-path="none" content="【指标五】">【指标五】</text><path d="M 682.5 386.5 L 682.5 266.5" fill="none" stroke="#bbb" stroke-width="1" paint-order="fill" stroke-opacity="1" stroke-dasharray="" stroke-linecap="round" stroke-miterlimit="10" transform_matrix="{&quot;a&quot;:1,&quot;b&quot;:0,&quot;c&quot;:0,&quot;d&quot;:1,&quot;e&quot;:0,&quot;f&quot;:0}" my_stoke="rgb(187, 187, 187)" my_stoke_width="1px" my_stoke_opacity="1" my_fill="none" my_fill_opacity="1" my_font_size="16px" opacity="1"/><path d="M -14 -18 L 14 -18 A 3 3 0 0 1 17 -15 L 17 -3 A 3 3 0 0 1 14 0 L -14 0 A 3 3 0 0 1 -17 -3 L -17 -15 A 3 3 0 0 1 -14 -18" fill="rgb(102, 102, 102)" fill-opacity="1" stroke="none" transform="matrix(1,0,0,1,682.5,251.5)" transform_matrix="{&quot;a&quot;:1,&quot;b&quot;:0,&quot;c&quot;:0,&quot;d&quot;:1,&quot;e&quot;:682.5,&quot;f&quot;:251.5}" my_stoke="none" my_stoke_width="1px" my_stoke_opacity="1" my_fill="rgb(102, 102, 102)" my_fill_opacity="1" my_font_size="16px" opacity="1"/><text xml:space="preserve" fill="rgb(255, 255, 255)" fill-opacity="1" stroke="none" transform="matrix(1,0,0,1,682.5,251.5)" dominant-baseline="central" text-anchor="middle" x="0" y="-9" style="font: 12px &quot;Microsoft YaHei&quot;; fill: rgb(255, 255, 255);" transform_matrix="{&quot;a&quot;:1,&quot;b&quot;:0,&quot;c&quot;:0,&quot;d&quot;:1,&quot;e&quot;:682.5,&quot;f&quot;:251.5}" text_bbox="{&quot;x&quot;:-13,&quot;y&quot;:-17,&quot;w&quot;:26,&quot;h&quot;:16}" opacity="1" stroke-width="1px" stroke-opacity="1" font-family="&quot;Microsoft YaHei&quot;" my_stoke="none" my_stoke_width="1px" my_stoke_opacity="1" my_fill="rgb(255, 255, 255)" my_fill_opacity="1" my_font_size="12px" clip-path="none" content="语文">语文</text><path d="M 682.5 386.5 L 578.577 326.5" fill="none" stroke="#bbb" stroke-width="1" paint-order="fill" stroke-opacity="1" stroke-dasharray="" stroke-linecap="round" stroke-miterlimit="10" transform_matrix="{&quot;a&quot;:1,&quot;b&quot;:0,&quot;c&quot;:0,&quot;d&quot;:1,&quot;e&quot;:0,&quot;f&quot;:0}" my_stoke="rgb(187, 187, 187)" my_stoke_width="1px" my_stoke_opacity="1" my_fill="none" my_fill_opacity="1" my_font_size="16px" opacity="1"/><path d="M -31 -9 L -3 -9 A 3 3 0 0 1 0 -6 L 0 6 A 3 3 0 0 1 -3 9 L -31 9 A 3 3 0 0 1 -34 6 L -34 -6 A 3 3 0 0 1 -31 -9" fill="rgb(102, 102, 102)" fill-opacity="1" stroke="none" transform="matrix(1,0,0,1,565.5866,319)" transform_matrix="{&quot;a&quot;:1,&quot;b&quot;:0,&quot;c&quot;:0,&quot;d&quot;:1,&quot;e&quot;:565.5866088867188,&quot;f&quot;:319}" my_stoke="none" my_stoke_width="1px" my_stoke_opacity="1" my_fill="rgb(102, 102, 102)" my_fill_opacity="1" my_font_size="16px" opacity="1"/><text xml:space="preserve" fill="rgb(255, 255, 255)" fill-opacity="1" stroke="none" transform="matrix(1,0,0,1,565.5866,319)" dominant-baseline="central" text-anchor="end" x="-5" y="0" style="font: 12px &quot;Microsoft YaHei&quot;; fill: rgb(255, 255, 255);" transform_matrix="{&quot;a&quot;:1,&quot;b&quot;:0,&quot;c&quot;:0,&quot;d&quot;:1,&quot;e&quot;:565.5866088867188,&quot;f&quot;:319}" text_bbox="{&quot;x&quot;:-30,&quot;y&quot;:-8,&quot;w&quot;:25,&quot;h&quot;:16}" opacity="1" stroke-width="1px" stroke-opacity="1" font-family="&quot;Microsoft YaHei&quot;" my_stoke="none" my_stoke_width="1px" my_stoke_opacity="1" my_fill="rgb(255, 255, 255)" my_fill_opacity="1" my_font_size="12px" clip-path="none" content="数学">数学</text><path d="M 682.5 386.5 L 578.577 446.5" fill="none" stroke="#bbb" stroke-width="1" paint-order="fill" stroke-opacity="1" stroke-dasharray="" stroke-linecap="round" stroke-miterlimit="10" transform_matrix="{&quot;a&quot;:1,&quot;b&quot;:0,&quot;c&quot;:0,&quot;d&quot;:1,&quot;e&quot;:0,&quot;f&quot;:0}" my_stoke="rgb(187, 187, 187)" my_stoke_width="1px" my_stoke_opacity="1" my_fill="none" my_fill_opacity="1" my_font_size="16px" opacity="1"/><path d="M -31 -9 L -3 -9 A 3 3 0 0 1 0 -6 L 0 6 A 3 3 0 0 1 -3 9 L -31 9 A 3 3 0 0 1 -34 6 L -34 -6 A 3 3 0 0 1 -31 -9" fill="rgb(102, 102, 102)" fill-opacity="1" stroke="none" transform="matrix(1,0,0,1,565.5866,454)" transform_matrix="{&quot;a&quot;:1,&quot;b&quot;:0,&quot;c&quot;:0,&quot;d&quot;:1,&quot;e&quot;:565.5866088867188,&quot;f&quot;:454}" my_stoke="none" my_stoke_width="1px" my_stoke_opacity="1" my_fill="rgb(102, 102, 102)" my_fill_opacity="1" my_font_size="16px" opacity="1"/><text xml:space="preserve" fill="rgb(255, 255, 255)" fill-opacity="1" stroke="none" transform="matrix(1,0,0,1,565.5866,454)" dominant-baseline="central" text-anchor="end" x="-5" y="0" style="font: 12px &quot;Microsoft YaHei&quot;; fill: rgb(255, 255, 255);" transform_matrix="{&quot;a&quot;:1,&quot;b&quot;:0,&quot;c&quot;:0,&quot;d&quot;:1,&quot;e&quot;:565.5866088867188,&quot;f&quot;:454}" text_bbox="{&quot;x&quot;:-30,&quot;y&quot;:-8,&quot;w&quot;:26,&quot;h&quot;:16}" opacity="1" stroke-width="1px" stroke-opacity="1" font-family="&quot;Microsoft YaHei&quot;" my_stoke="none" my_stoke_width="1px" my_stoke_opacity="1" my_fill="rgb(255, 255, 255)" my_fill_opacity="1" my_font_size="12px" clip-path="none" content="英语">英语</text><path d="M 682.5 386.5 L 682.5 506.5" fill="none" stroke="#bbb" stroke-width="1" paint-order="fill" stroke-opacity="1" stroke-dasharray="" stroke-linecap="round" stroke-miterlimit="10" transform_matrix="{&quot;a&quot;:1,&quot;b&quot;:0,&quot;c&quot;:0,&quot;d&quot;:1,&quot;e&quot;:0,&quot;f&quot;:0}" my_stoke="rgb(187, 187, 187)" my_stoke_width="1px" my_stoke_opacity="1" my_fill="none" my_fill_opacity="1" my_font_size="16px" opacity="1"/><path d="M -14 0 L 14 0 A 3 3 0 0 1 17 3 L 17 15 A 3 3 0 0 1 14 18 L -14 18 A 3 3 0 0 1 -17 15 L -17 3 A 3 3 0 0 1 -14 0" fill="rgb(102, 102, 102)" fill-opacity="1" stroke="none" transform="matrix(1,0,0,1,682.5,521.5)" transform_matrix="{&quot;a&quot;:1,&quot;b&quot;:0,&quot;c&quot;:0,&quot;d&quot;:1,&quot;e&quot;:682.5,&quot;f&quot;:521.5}" my_stoke="none" my_stoke_width="1px" my_stoke_opacity="1" my_fill="rgb(102, 102, 102)" my_fill_opacity="1" my_font_size="16px" opacity="1"/><text xml:space="preserve" fill="rgb(255, 255, 255)" fill-opacity="1" stroke="none" transform="matrix(1,0,0,1,682.5,521.5)" dominant-baseline="central" text-anchor="middle" x="0" y="9" style="font: 12px &quot;Microsoft YaHei&quot;; fill: rgb(255, 255, 255);" transform_matrix="{&quot;a&quot;:1,&quot;b&quot;:0,&quot;c&quot;:0,&quot;d&quot;:1,&quot;e&quot;:682.5,&quot;f&quot;:521.5}" text_bbox="{&quot;x&quot;:-13,&quot;y&quot;:1,&quot;w&quot;:26,&quot;h&quot;:16}" opacity="1" stroke-width="1px" stroke-opacity="1" font-family="&quot;Microsoft YaHei&quot;" my_stoke="none" my_stoke_width="1px" my_stoke_opacity="1" my_fill="rgb(255, 255, 255)" my_fill_opacity="1" my_font_size="12px" clip-path="none" content="物理">物理</text><path d="M 682.5 386.5 L 786.423 446.5" fill="none" stroke="#bbb" stroke-width="1" paint-order="fill" stroke-opacity="1" stroke-dasharray="" stroke-linecap="round" stroke-miterlimit="10" transform_matrix="{&quot;a&quot;:1,&quot;b&quot;:0,&quot;c&quot;:0,&quot;d&quot;:1,&quot;e&quot;:0,&quot;f&quot;:0}" my_stoke="rgb(187, 187, 187)" my_stoke_width="1px" my_stoke_opacity="1" my_fill="none" my_fill_opacity="1" my_font_size="16px" opacity="1"/><path d="M 3 -9 L 31 -9 A 3 3 0 0 1 34 -6 L 34 6 A 3 3 0 0 1 31 9 L 3 9 A 3 3 0 0 1 0 6 L 0 -6 A 3 3 0 0 1 3 -9" fill="rgb(102, 102, 102)" fill-opacity="1" stroke="none" transform="matrix(1,0,0,1,799.4134,454)" transform_matrix="{&quot;a&quot;:1,&quot;b&quot;:0,&quot;c&quot;:0,&quot;d&quot;:1,&quot;e&quot;:799.4133911132812,&quot;f&quot;:454}" my_stoke="none" my_stoke_width="1px" my_stoke_opacity="1" my_fill="rgb(102, 102, 102)" my_fill_opacity="1" my_font_size="16px" opacity="1"/><text xml:space="preserve" fill="rgb(255, 255, 255)" fill-opacity="1" stroke="none" transform="matrix(1,0,0,1,799.4134,454)" dominant-baseline="central" text-anchor="start" x="5" y="0" style="font: 12px &quot;Microsoft YaHei&quot;; fill: rgb(255, 255, 255);" transform_matrix="{&quot;a&quot;:1,&quot;b&quot;:0,&quot;c&quot;:0,&quot;d&quot;:1,&quot;e&quot;:799.4133911132812,&quot;f&quot;:454}" text_bbox="{&quot;x&quot;:4,&quot;y&quot;:-8,&quot;w&quot;:25,&quot;h&quot;:16}" opacity="1" stroke-width="1px" stroke-opacity="1" font-family="&quot;Microsoft YaHei&quot;" my_stoke="none" my_stoke_width="1px" my_stoke_opacity="1" my_fill="rgb(255, 255, 255)" my_fill_opacity="1" my_font_size="12px" clip-path="none" content="化学">化学</text><path d="M 682.5 386.5 L 786.423 326.5" fill="none" stroke="#bbb" stroke-width="1" paint-order="fill" stroke-opacity="1" stroke-dasharray="" stroke-linecap="round" stroke-miterlimit="10" transform_matrix="{&quot;a&quot;:1,&quot;b&quot;:0,&quot;c&quot;:0,&quot;d&quot;:1,&quot;e&quot;:0,&quot;f&quot;:0}" my_stoke="rgb(187, 187, 187)" my_stoke_width="1px" my_stoke_opacity="1" my_fill="none" my_fill_opacity="1" my_font_size="16px" opacity="1"/><path d="M 3 -9 L 31 -9 A 3 3 0 0 1 34 -6 L 34 6 A 3 3 0 0 1 31 9 L 3 9 A 3 3 0 0 1 0 6 L 0 -6 A 3 3 0 0 1 3 -9" fill="rgb(102, 102, 102)" fill-opacity="1" stroke="none" transform="matrix(1,0,0,1,799.4134,319)" transform_matrix="{&quot;a&quot;:1,&quot;b&quot;:0,&quot;c&quot;:0,&quot;d&quot;:1,&quot;e&quot;:799.4133911132812,&quot;f&quot;:319}" my_stoke="none" my_stoke_width="1px" my_stoke_opacity="1" my_fill="rgb(102, 102, 102)" my_fill_opacity="1" my_font_size="16px" opacity="1"/><text xml:space="preserve" fill="rgb(255, 255, 255)" fill-opacity="1" stroke="none" transform="matrix(1,0,0,1,799.4134,319)" dominant-baseline="central" text-anchor="start" x="5" y="0" style="font: 12px &quot;Microsoft YaHei&quot;; fill: rgb(255, 255, 255);" transform_matrix="{&quot;a&quot;:1,&quot;b&quot;:0,&quot;c&quot;:0,&quot;d&quot;:1,&quot;e&quot;:799.4133911132812,&quot;f&quot;:319}" text_bbox="{&quot;x&quot;:4,&quot;y&quot;:-8,&quot;w&quot;:25,&quot;h&quot;:16}" opacity="1" stroke-width="1px" stroke-opacity="1" font-family="&quot;Microsoft YaHei&quot;" my_stoke="none" my_stoke_width="1px" my_stoke_opacity="1" my_fill="rgb(255, 255, 255)" my_fill_opacity="1" my_font_size="12px" clip-path="none" content="生物">生物</text><path d="M 227.5 286.5 L 113.3732 349.418 L 156.9658 483.582 L 251.0114 418.8607 L 341.6268 349.418 L 227.5 286.5" fill="none" stroke="#67F9D8" stroke-width="2" paint-order="fill" stroke-opacity="1" stroke-dasharray="" stroke-linecap="butt" stroke-linejoin="round" stroke-miterlimit="10" transform_matrix="{&quot;a&quot;:1,&quot;b&quot;:0,&quot;c&quot;:0,&quot;d&quot;:1,&quot;e&quot;:0,&quot;f&quot;:0}" my_stoke="rgb(103, 249, 216)" my_stoke_width="2px" my_stoke_opacity="1" my_fill="none" my_fill_opacity="1" my_font_size="16px" opacity="1"/><path d="M 227.5 326.5 L 156.1708 363.3237 L 174.5993 459.3115 L 239.2557 402.6803 L 313.0951 358.6885 L 227.5 326.5" fill="none" stroke="#FFE434" stroke-width="2" paint-order="fill" stroke-opacity="1" stroke-dasharray="" stroke-linecap="butt" stroke-linejoin="round" stroke-miterlimit="10" transform_matrix="{&quot;a&quot;:1,&quot;b&quot;:0,&quot;c&quot;:0,&quot;d&quot;:1,&quot;e&quot;:0,&quot;f&quot;:0}" my_stoke="rgb(255, 228, 52)" my_stoke_width="2px" my_stoke_opacity="1" my_fill="none" my_fill_opacity="1" my_font_size="16px" opacity="1"/><path d="M 227.5 326.5 L 156.1708 363.3237 L 174.5993 459.3115 L 239.2557 402.6803 L 313.0951 358.6885 L 227.5 326.5 Z" fill="rgb(255, 228, 52)" fill-opacity="0.42" stroke="none" transform_matrix="{&quot;a&quot;:1,&quot;b&quot;:0,&quot;c&quot;:0,&quot;d&quot;:1,&quot;e&quot;:0,&quot;f&quot;:0}" my_stoke="none" my_stoke_width="1px" my_stoke_opacity="1" my_fill="rgb(255, 228, 52)" my_fill_opacity="0.42" my_font_size="16px" opacity="1"/><path d="M 682.5 290.5 L 600.7472 339.3 L 592.4334 438.5 L 682.5 486.5 L 777.7628 441.5 L 783.5363 328.1667 L 682.5 290.5" fill="none" stroke="#56A3F1" stroke-width="2" paint-order="fill" stroke-opacity="1" stroke-dasharray="8,4" stroke-dashoffset="0" stroke-linecap="butt" stroke-linejoin="round" stroke-miterlimit="10" transform_matrix="{&quot;a&quot;:1,&quot;b&quot;:0,&quot;c&quot;:0,&quot;d&quot;:1,&quot;e&quot;:0,&quot;f&quot;:0}" my_stoke="rgb(86, 163, 241)" my_stoke_width="2px" my_stoke_opacity="1" my_fill="none" my_fill_opacity="1" my_font_size="16px" opacity="1"/><path d="M 682.5 306.5 L 618.0677 349.3 L 647.859 406.5 L 682.5 476.5 L 749.8575 425.3889 L 769.1025 336.5 L 682.5 306.5" fill="none" stroke="#FF917C" stroke-width="2" paint-order="fill" stroke-opacity="1" stroke-dasharray="" stroke-linecap="butt" stroke-linejoin="round" stroke-miterlimit="10" transform_matrix="{&quot;a&quot;:1,&quot;b&quot;:0,&quot;c&quot;:0,&quot;d&quot;:1,&quot;e&quot;:0,&quot;f&quot;:0}" my_stoke="rgb(255, 145, 124)" my_stoke_width="2px" my_stoke_opacity="1" my_fill="none" my_fill_opacity="1" my_font_size="16px" opacity="1"/><path d="M 682.5 306.5 L 618.0677 349.3 L 647.859 406.5 L 682.5 476.5 L 749.8575 425.3889 L 769.1025 336.5 L 682.5 306.5 Z" fill-opacity="0.7" stroke="none" fill="url(&quot;#zr2498-gradient-0&quot;)" transform_matrix="{&quot;a&quot;:1,&quot;b&quot;:0,&quot;c&quot;:0,&quot;d&quot;:1,&quot;e&quot;:0,&quot;f&quot;:0}" my_stoke="none" my_stoke_width="1px" my_stoke_opacity="1" my_fill="url(&quot;#zr2498-gradient-0&quot;)" my_fill_opacity="0.7" my_font_size="16px" opacity="1"/><path d="M 1 0 A 1 1 0 1 1 1 -0.0001" fill="rgb(103, 249, 216)" fill-opacity="1" stroke="none" transform="matrix(4,0,0,4,227.5,286.5)" transform_matrix="{&quot;a&quot;:4,&quot;b&quot;:0,&quot;c&quot;:0,&quot;d&quot;:4,&quot;e&quot;:227.5,&quot;f&quot;:286.5}" my_stoke="none" my_stoke_width="1px" my_stoke_opacity="1" my_fill="rgb(103, 249, 216)" my_fill_opacity="1" my_font_size="16px" opacity="1"/><path d="M 1 0 A 1 1 0 1 1 1 -0.0001" fill="rgb(103, 249, 216)" fill-opacity="1" stroke="none" transform="matrix(4,0,0,4,113.3732,349.418)" transform_matrix="{&quot;a&quot;:4,&quot;b&quot;:0,&quot;c&quot;:0,&quot;d&quot;:4,&quot;e&quot;:113.37319946289062,&quot;f&quot;:349.4179992675781}" my_stoke="none" my_stoke_width="1px" my_stoke_opacity="1" my_fill="rgb(103, 249, 216)" my_fill_opacity="1" my_font_size="16px" opacity="1"/><path d="M 1 0 A 1 1 0 1 1 1 -0.0001" fill="rgb(103, 249, 216)" fill-opacity="1" stroke="none" transform="matrix(4,0,0,4,156.9658,483.582)" transform_matrix="{&quot;a&quot;:4,&quot;b&quot;:0,&quot;c&quot;:0,&quot;d&quot;:4,&quot;e&quot;:156.96580505371094,&quot;f&quot;:483.5820007324219}" my_stoke="none" my_stoke_width="1px" my_stoke_opacity="1" my_fill="rgb(103, 249, 216)" my_fill_opacity="1" my_font_size="16px" opacity="1"/><path d="M 1 0 A 1 1 0 1 1 1 -0.0001" fill="rgb(103, 249, 216)" fill-opacity="1" stroke="none" transform="matrix(4,0,0,4,251.0114,418.8607)" transform_matrix="{&quot;a&quot;:4,&quot;b&quot;:0,&quot;c&quot;:0,&quot;d&quot;:4,&quot;e&quot;:251.0113983154297,&quot;f&quot;:418.8606872558594}" my_stoke="none" my_stoke_width="1px" my_stoke_opacity="1" my_fill="rgb(103, 249, 216)" my_fill_opacity="1" my_font_size="16px" opacity="1"/><path d="M 1 0 A 1 1 0 1 1 1 -0.0001" fill="rgb(103, 249, 216)" fill-opacity="1" stroke="none" transform="matrix(4,0,0,4,341.6268,349.418)" transform_matrix="{&quot;a&quot;:4,&quot;b&quot;:0,&quot;c&quot;:0,&quot;d&quot;:4,&quot;e&quot;:341.6268005371094,&quot;f&quot;:349.4179992675781}" my_stoke="none" my_stoke_width="1px" my_stoke_opacity="1" my_fill="rgb(103, 249, 216)" my_fill_opacity="1" my_font_size="16px" opacity="1"/><path d="M 1 0 A 1 1 0 1 1 1 -0.0001" fill="rgb(255, 228, 52)" fill-opacity="1" stroke="none" transform="matrix(4,0,0,4,227.5,326.5)" transform_matrix="{&quot;a&quot;:4,&quot;b&quot;:0,&quot;c&quot;:0,&quot;d&quot;:4,&quot;e&quot;:227.5,&quot;f&quot;:326.5}" my_stoke="none" my_stoke_width="1px" my_stoke_opacity="1" my_fill="rgb(255, 228, 52)" my_fill_opacity="1" my_font_size="16px" opacity="1"/><path d="M 1 0 A 1 1 0 1 1 1 -0.0001" fill="rgb(255, 228, 52)" fill-opacity="1" stroke="none" transform="matrix(4,0,0,4,156.1708,363.3237)" transform_matrix="{&quot;a&quot;:4,&quot;b&quot;:0,&quot;c&quot;:0,&quot;d&quot;:4,&quot;e&quot;:156.17080688476562,&quot;f&quot;:363.3236999511719}" my_stoke="none" my_stoke_width="1px" my_stoke_opacity="1" my_fill="rgb(255, 228, 52)" my_fill_opacity="1" my_font_size="16px" opacity="1"/><path d="M 1 0 A 1 1 0 1 1 1 -0.0001" fill="rgb(255, 228, 52)" fill-opacity="1" stroke="none" transform="matrix(4,0,0,4,174.5993,459.3115)" transform_matrix="{&quot;a&quot;:4,&quot;b&quot;:0,&quot;c&quot;:0,&quot;d&quot;:4,&quot;e&quot;:174.59930419921875,&quot;f&quot;:459.3114929199219}" my_stoke="none" my_stoke_width="1px" my_stoke_opacity="1" my_fill="rgb(255, 228, 52)" my_fill_opacity="1" my_font_size="16px" opacity="1"/><path d="M 1 0 A 1 1 0 1 1 1 -0.0001" fill="rgb(255, 228, 52)" fill-opacity="1" stroke="none" transform="matrix(4,0,0,4,239.2557,402.6803)" transform_matrix="{&quot;a&quot;:4,&quot;b&quot;:0,&quot;c&quot;:0,&quot;d&quot;:4,&quot;e&quot;:239.25570678710938,&quot;f&quot;:402.6802978515625}" my_stoke="none" my_stoke_width="1px" my_stoke_opacity="1" my_fill="rgb(255, 228, 52)" my_fill_opacity="1" my_font_size="16px" opacity="1"/><path d="M 1 0 A 1 1 0 1 1 1 -0.0001" fill="rgb(255, 228, 52)" fill-opacity="1" stroke="none" transform="matrix(4,0,0,4,313.0951,358.6885)" transform_matrix="{&quot;a&quot;:4,&quot;b&quot;:0,&quot;c&quot;:0,&quot;d&quot;:4,&quot;e&quot;:313.0950927734375,&quot;f&quot;:358.6885070800781}" my_stoke="none" my_stoke_width="1px" my_stoke_opacity="1" my_fill="rgb(255, 228, 52)" my_fill_opacity="1" my_font_size="16px" opacity="1"/><path d="M -1 -1 L 1 -1 L 1 1 L -1 1 L -1 -1 Z" fill="rgb(86, 163, 241)" fill-opacity="1" stroke="none" transform="matrix(6,0,0,6,682.5,290.5)" transform_matrix="{&quot;a&quot;:6,&quot;b&quot;:0,&quot;c&quot;:0,&quot;d&quot;:6,&quot;e&quot;:682.5,&quot;f&quot;:290.5}" my_stoke="none" my_stoke_width="1px" my_stoke_opacity="1" my_fill="rgb(86, 163, 241)" my_fill_opacity="1" my_font_size="16px" opacity="1"/><path d="M -1 -1 L 1 -1 L 1 1 L -1 1 L -1 -1 Z" fill="rgb(86, 163, 241)" fill-opacity="1" stroke="none" transform="matrix(6,0,0,6,600.7472,339.3)" transform_matrix="{&quot;a&quot;:6,&quot;b&quot;:0,&quot;c&quot;:0,&quot;d&quot;:6,&quot;e&quot;:600.7471923828125,&quot;f&quot;:339.29998779296875}" my_stoke="none" my_stoke_width="1px" my_stoke_opacity="1" my_fill="rgb(86, 163, 241)" my_fill_opacity="1" my_font_size="16px" opacity="1"/><path d="M -1 -1 L 1 -1 L 1 1 L -1 1 L -1 -1 Z" fill="rgb(86, 163, 241)" fill-opacity="1" stroke="none" transform="matrix(6,0,0,6,592.4334,438.5)" transform_matrix="{&quot;a&quot;:6,&quot;b&quot;:0,&quot;c&quot;:0,&quot;d&quot;:6,&quot;e&quot;:592.4334106445312,&quot;f&quot;:438.5}" my_stoke="none" my_stoke_width="1px" my_stoke_opacity="1" my_fill="rgb(86, 163, 241)" my_fill_opacity="1" my_font_size="16px" opacity="1"/><path d="M -1 -1 L 1 -1 L 1 1 L -1 1 L -1 -1 Z" fill="rgb(86, 163, 241)" fill-opacity="1" stroke="none" transform="matrix(6,0,0,6,682.5,486.5)" transform_matrix="{&quot;a&quot;:6,&quot;b&quot;:0,&quot;c&quot;:0,&quot;d&quot;:6,&quot;e&quot;:682.5,&quot;f&quot;:486.5}" my_stoke="none" my_stoke_width="1px" my_stoke_opacity="1" my_fill="rgb(86, 163, 241)" my_fill_opacity="1" my_font_size="16px" opacity="1"/><path d="M -1 -1 L 1 -1 L 1 1 L -1 1 L -1 -1 Z" fill="rgb(86, 163, 241)" fill-opacity="1" stroke="none" transform="matrix(6,0,0,6,777.7628,441.5)" transform_matrix="{&quot;a&quot;:6,&quot;b&quot;:0,&quot;c&quot;:0,&quot;d&quot;:6,&quot;e&quot;:777.7628173828125,&quot;f&quot;:441.5}" my_stoke="none" my_stoke_width="1px" my_stoke_opacity="1" my_fill="rgb(86, 163, 241)" my_fill_opacity="1" my_font_size="16px" opacity="1"/><path d="M -1 -1 L 1 -1 L 1 1 L -1 1 L -1 -1 Z" fill="rgb(86, 163, 241)" fill-opacity="1" stroke="none" transform="matrix(6,0,0,6,783.5363,328.1667)" transform_matrix="{&quot;a&quot;:6,&quot;b&quot;:0,&quot;c&quot;:0,&quot;d&quot;:6,&quot;e&quot;:783.5363159179688,&quot;f&quot;:328.16668701171875}" my_stoke="none" my_stoke_width="1px" my_stoke_opacity="1" my_fill="rgb(86, 163, 241)" my_fill_opacity="1" my_font_size="16px" opacity="1"/><path d="M 1 0 A 1 1 0 1 1 1 -0.0001" fill="rgb(255, 145, 124)" fill-opacity="1" stroke="none" transform="matrix(4,0,0,4,682.5,306.5)" transform_matrix="{&quot;a&quot;:4,&quot;b&quot;:0,&quot;c&quot;:0,&quot;d&quot;:4,&quot;e&quot;:682.5,&quot;f&quot;:306.5}" my_stoke="none" my_stoke_width="1px" my_stoke_opacity="1" my_fill="rgb(255, 145, 124)" my_fill_opacity="1" my_font_size="16px" opacity="1"/><path d="M 1 0 A 1 1 0 1 1 1 -0.0001" fill="rgb(255, 145, 124)" fill-opacity="1" stroke="none" transform="matrix(4,0,0,4,618.0677,349.3)" transform_matrix="{&quot;a&quot;:4,&quot;b&quot;:0,&quot;c&quot;:0,&quot;d&quot;:4,&quot;e&quot;:618.0676879882812,&quot;f&quot;:349.29998779296875}" my_stoke="none" my_stoke_width="1px" my_stoke_opacity="1" my_fill="rgb(255, 145, 124)" my_fill_opacity="1" my_font_size="16px" opacity="1"/><path d="M 1 0 A 1 1 0 1 1 1 -0.0001" fill="rgb(255, 145, 124)" fill-opacity="1" stroke="none" transform="matrix(4,0,0,4,647.859,406.5)" transform_matrix="{&quot;a&quot;:4,&quot;b&quot;:0,&quot;c&quot;:0,&quot;d&quot;:4,&quot;e&quot;:647.8590087890625,&quot;f&quot;:406.5}" my_stoke="none" my_stoke_width="1px" my_stoke_opacity="1" my_fill="rgb(255, 145, 124)" my_fill_opacity="1" my_font_size="16px" opacity="1"/><path d="M 1 0 A 1 1 0 1 1 1 -0.0001" fill="rgb(255, 145, 124)" fill-opacity="1" stroke="none" transform="matrix(4,0,0,4,682.5,476.5)" transform_matrix="{&quot;a&quot;:4,&quot;b&quot;:0,&quot;c&quot;:0,&quot;d&quot;:4,&quot;e&quot;:682.5,&quot;f&quot;:476.5}" my_stoke="none" my_stoke_width="1px" my_stoke_opacity="1" my_fill="rgb(255, 145, 124)" my_fill_opacity="1" my_font_size="16px" opacity="1"/><path d="M 1 0 A 1 1 0 1 1 1 -0.0001" fill="rgb(255, 145, 124)" fill-opacity="1" stroke="none" transform="matrix(4,0,0,4,749.8575,425.3889)" transform_matrix="{&quot;a&quot;:4,&quot;b&quot;:0,&quot;c&quot;:0,&quot;d&quot;:4,&quot;e&quot;:749.8574829101562,&quot;f&quot;:425.3888854980469}" my_stoke="none" my_stoke_width="1px" my_stoke_opacity="1" my_fill="rgb(255, 145, 124)" my_fill_opacity="1" my_font_size="16px" opacity="1"/><path d="M 1 0 A 1 1 0 1 1 1 -0.0001" fill="rgb(255, 145, 124)" fill-opacity="1" stroke="none" transform="matrix(4,0,0,4,769.1025,336.5)" transform_matrix="{&quot;a&quot;:4,&quot;b&quot;:0,&quot;c&quot;:0,&quot;d&quot;:4,&quot;e&quot;:769.1024780273438,&quot;f&quot;:336.5}" my_stoke="none" my_stoke_width="1px" my_stoke_opacity="1" my_fill="rgb(255, 145, 124)" my_fill_opacity="1" my_font_size="16px" opacity="1"/><text xml:space="preserve" fill="rgb(51, 51, 51)" fill-opacity="1" stroke="rgb(255, 255, 255)" stroke-width="2px" paint-order="stroke" stroke-opacity="1" stroke-dasharray="" stroke-linecap="butt" stroke-miterlimit="2" transform="matrix(1,0,0,1,682.5,279.5)" dominant-baseline="central" text-anchor="middle" x="0" y="-6" style="font: 12px &quot;Microsoft YaHei&quot;; fill: rgb(51, 51, 51);" transform_matrix="{&quot;a&quot;:1,&quot;b&quot;:0,&quot;c&quot;:0,&quot;d&quot;:1,&quot;e&quot;:682.5,&quot;f&quot;:279.5}" text_bbox="{&quot;x&quot;:-10.5625,&quot;y&quot;:-14,&quot;w&quot;:21.125,&quot;h&quot;:16}" opacity="1" font-family="&quot;Microsoft YaHei&quot;" my_stoke="rgb(255, 255, 255)" my_stoke_width="2px" my_stoke_opacity="1" my_fill="rgb(51, 51, 51)" my_fill_opacity="1" my_font_size="12px" clip-path="none" content="120">120</text><text xml:space="preserve" fill="rgb(51, 51, 51)" fill-opacity="1" stroke="rgb(255, 255, 255)" stroke-width="2px" paint-order="stroke" stroke-opacity="1" stroke-dasharray="" stroke-linecap="butt" stroke-miterlimit="2" transform="matrix(1,0,0,1,600.7472,328.3)" dominant-baseline="central" text-anchor="middle" x="0" y="-6" style="font: 12px &quot;Microsoft YaHei&quot;; fill: rgb(51, 51, 51);" transform_matrix="{&quot;a&quot;:1,&quot;b&quot;:0,&quot;c&quot;:0,&quot;d&quot;:1,&quot;e&quot;:600.7471923828125,&quot;f&quot;:328.29998779296875}" text_bbox="{&quot;x&quot;:-10.5625,&quot;y&quot;:-14,&quot;w&quot;:21.125,&quot;h&quot;:16}" opacity="1" font-family="&quot;Microsoft YaHei&quot;" my_stoke="rgb(255, 255, 255)" my_stoke_width="2px" my_stoke_opacity="1" my_fill="rgb(51, 51, 51)" my_fill_opacity="1" my_font_size="12px" clip-path="none" content="118">118</text><text xml:space="preserve" fill="rgb(51, 51, 51)" fill-opacity="1" stroke="rgb(255, 255, 255)" stroke-width="2px" paint-order="stroke" stroke-opacity="1" stroke-dasharray="" stroke-linecap="butt" stroke-miterlimit="2" transform="matrix(1,0,0,1,592.4334,427.5)" dominant-baseline="central" text-anchor="middle" x="0" y="-6" style="font: 12px &quot;Microsoft YaHei&quot;; fill: rgb(51, 51, 51);" transform_matrix="{&quot;a&quot;:1,&quot;b&quot;:0,&quot;c&quot;:0,&quot;d&quot;:1,&quot;e&quot;:592.4334106445312,&quot;f&quot;:427.5}" text_bbox="{&quot;x&quot;:-10.5625,&quot;y&quot;:-14,&quot;w&quot;:21.125,&quot;h&quot;:16}" opacity="1" font-family="&quot;Microsoft YaHei&quot;" my_stoke="rgb(255, 255, 255)" my_stoke_width="2px" my_stoke_opacity="1" my_fill="rgb(51, 51, 51)" my_fill_opacity="1" my_font_size="12px" clip-path="none" content="130">130</text><text xml:space="preserve" fill="rgb(51, 51, 51)" fill-opacity="1" stroke="rgb(255, 255, 255)" stroke-width="2px" paint-order="stroke" stroke-opacity="1" stroke-dasharray="" stroke-linecap="butt" stroke-miterlimit="2" transform="matrix(1,0,0,1,682.5,475.5)" dominant-baseline="central" text-anchor="middle" x="0" y="-6" style="font: 12px &quot;Microsoft YaHei&quot;; fill: rgb(51, 51, 51);" transform_matrix="{&quot;a&quot;:1,&quot;b&quot;:0,&quot;c&quot;:0,&quot;d&quot;:1,&quot;e&quot;:682.5,&quot;f&quot;:475.5}" text_bbox="{&quot;x&quot;:-10.5625,&quot;y&quot;:-14,&quot;w&quot;:21.125,&quot;h&quot;:16}" opacity="1" font-family="&quot;Microsoft YaHei&quot;" my_stoke="rgb(255, 255, 255)" my_stoke_width="2px" my_stoke_opacity="1" my_fill="rgb(51, 51, 51)" my_fill_opacity="1" my_font_size="12px" clip-path="none" content="100">100</text><text xml:space="preserve" fill="rgb(51, 51, 51)" fill-opacity="1" stroke="rgb(255, 255, 255)" stroke-width="2px" paint-order="stroke" stroke-opacity="1" stroke-dasharray="" stroke-linecap="butt" stroke-miterlimit="2" transform="matrix(1,0,0,1,777.7628,430.5)" dominant-baseline="central" text-anchor="middle" x="0" y="-6" style="font: 12px &quot;Microsoft YaHei&quot;; fill: rgb(51, 51, 51);" transform_matrix="{&quot;a&quot;:1,&quot;b&quot;:0,&quot;c&quot;:0,&quot;d&quot;:1,&quot;e&quot;:777.7628173828125,&quot;f&quot;:430.5}" text_bbox="{&quot;x&quot;:-7.046875,&quot;y&quot;:-14,&quot;w&quot;:14.09375,&quot;h&quot;:16}" opacity="1" font-family="&quot;Microsoft YaHei&quot;" my_stoke="rgb(255, 255, 255)" my_stoke_width="2px" my_stoke_opacity="1" my_fill="rgb(51, 51, 51)" my_fill_opacity="1" my_font_size="12px" clip-path="none" content="99">99</text><text xml:space="preserve" fill="rgb(51, 51, 51)" fill-opacity="1" stroke="rgb(255, 255, 255)" stroke-width="2px" paint-order="stroke" stroke-opacity="1" stroke-dasharray="" stroke-linecap="butt" stroke-miterlimit="2" transform="matrix(1,0,0,1,783.5363,317.1667)" dominant-baseline="central" text-anchor="middle" x="0" y="-6" style="font: 12px &quot;Microsoft YaHei&quot;; fill: rgb(51, 51, 51);" transform_matrix="{&quot;a&quot;:1,&quot;b&quot;:0,&quot;c&quot;:0,&quot;d&quot;:1,&quot;e&quot;:783.5363159179688,&quot;f&quot;:317.16668701171875}" text_bbox="{&quot;x&quot;:-7.046875,&quot;y&quot;:-14,&quot;w&quot;:14.09375,&quot;h&quot;:16}" opacity="1" font-family="&quot;Microsoft YaHei&quot;" my_stoke="rgb(255, 255, 255)" my_stoke_width="2px" my_stoke_opacity="1" my_fill="rgb(51, 51, 51)" my_fill_opacity="1" my_font_size="12px" clip-path="none" content="70">70</text><path d="M -5 -5 L 309.8516 -5 L 309.8516 19 L -5 19 L -5 -5 Z" fill="rgb(0, 0, 0)" fill-opacity="0" stroke="#ccc" stroke-width="0" paint-order="fill" stroke-opacity="1" stroke-dasharray="" stroke-linecap="butt" stroke-miterlimit="10" transform="matrix(1,0,0,1,302.5742,5)" transform_matrix="{&quot;a&quot;:1,&quot;b&quot;:0,&quot;c&quot;:0,&quot;d&quot;:1,&quot;e&quot;:302.5741882324219,&quot;f&quot;:5}" my_stoke="rgb(204, 204, 204)" my_stoke_width="0px" my_stoke_opacity="1" my_fill="rgb(0, 0, 0)" my_fill_opacity="0" my_font_size="16px" opacity="1"/><path d="M 3.5 0 L 21.5 0 A 3.5 3.5 0 0 1 25 3.5 L 25 10.5 A 3.5 3.5 0 0 1 21.5 14 L 3.5 14 A 3.5 3.5 0 0 1 0 10.5 L 0 3.5 A 3.5 3.5 0 0 1 3.5 0" fill="rgb(103, 249, 216)" fill-opacity="1" stroke="none" transform="matrix(1,0,0,1,302.5742,5)" transform_matrix="{&quot;a&quot;:1,&quot;b&quot;:0,&quot;c&quot;:0,&quot;d&quot;:1,&quot;e&quot;:302.5741882324219,&quot;f&quot;:5}" my_stoke="none" my_stoke_width="1px" my_stoke_opacity="1" my_fill="rgb(103, 249, 216)" my_fill_opacity="1" my_font_size="16px" opacity="1"/><text xml:space="preserve" fill="rgb(51, 51, 51)" fill-opacity="1" stroke="none" transform="matrix(1,0,0,1,302.5742,5)" dominant-baseline="central" text-anchor="start" x="30" y="7" style="font: 12px &quot;Microsoft YaHei&quot;; fill: rgb(51, 51, 51);" transform_matrix="{&quot;a&quot;:1,&quot;b&quot;:0,&quot;c&quot;:0,&quot;d&quot;:1,&quot;e&quot;:302.5741882324219,&quot;f&quot;:5}" text_bbox="{&quot;x&quot;:30,&quot;y&quot;:-1,&quot;w&quot;:39.4375,&quot;h&quot;:16}" opacity="1" stroke-width="1px" stroke-opacity="1" font-family="&quot;Microsoft YaHei&quot;" my_stoke="none" my_stoke_width="1px" my_stoke_opacity="1" my_fill="rgb(51, 51, 51)" my_fill_opacity="1" my_font_size="12px" clip-path="none" content="Data A">Data A</text><path d="M 3.5 0 L 21.5 0 A 3.5 3.5 0 0 1 25 3.5 L 25 10.5 A 3.5 3.5 0 0 1 21.5 14 L 3.5 14 A 3.5 3.5 0 0 1 0 10.5 L 0 3.5 A 3.5 3.5 0 0 1 3.5 0" fill="rgb(255, 228, 52)" fill-opacity="1" stroke="none" transform="matrix(1,0,0,1,381.4453,5)" transform_matrix="{&quot;a&quot;:1,&quot;b&quot;:0,&quot;c&quot;:0,&quot;d&quot;:1,&quot;e&quot;:381.4453125,&quot;f&quot;:5}" my_stoke="none" my_stoke_width="1px" my_stoke_opacity="1" my_fill="rgb(255, 228, 52)" my_fill_opacity="1" my_font_size="16px" opacity="1"/><text xml:space="preserve" fill="rgb(51, 51, 51)" fill-opacity="1" stroke="none" transform="matrix(1,0,0,1,381.4453,5)" dominant-baseline="central" text-anchor="start" x="30" y="7" style="font: 12px &quot;Microsoft YaHei&quot;; fill: rgb(51, 51, 51);" transform_matrix="{&quot;a&quot;:1,&quot;b&quot;:0,&quot;c&quot;:0,&quot;d&quot;:1,&quot;e&quot;:381.4453125,&quot;f&quot;:5}" text_bbox="{&quot;x&quot;:30,&quot;y&quot;:-1,&quot;w&quot;:38.4375,&quot;h&quot;:16}" opacity="1" stroke-width="1px" stroke-opacity="1" font-family="&quot;Microsoft YaHei&quot;" my_stoke="none" my_stoke_width="1px" my_stoke_opacity="1" my_fill="rgb(51, 51, 51)" my_fill_opacity="1" my_font_size="12px" clip-path="none" content="Data B">Data B</text><path d="M 3.5 0 L 21.5 0 A 3.5 3.5 0 0 1 25 3.5 L 25 10.5 A 3.5 3.5 0 0 1 21.5 14 L 3.5 14 A 3.5 3.5 0 0 1 0 10.5 L 0 3.5 A 3.5 3.5 0 0 1 3.5 0" fill="rgb(86, 163, 241)" fill-opacity="1" stroke="none" transform="matrix(1,0,0,1,459.4023,5)" transform_matrix="{&quot;a&quot;:1,&quot;b&quot;:0,&quot;c&quot;:0,&quot;d&quot;:1,&quot;e&quot;:459.4023132324219,&quot;f&quot;:5}" my_stoke="none" my_stoke_width="1px" my_stoke_opacity="1" my_fill="rgb(86, 163, 241)" my_fill_opacity="1" my_font_size="16px" opacity="1"/><text xml:space="preserve" fill="rgb(51, 51, 51)" fill-opacity="1" stroke="none" transform="matrix(1,0,0,1,459.4023,5)" dominant-baseline="central" text-anchor="start" x="30" y="7" style="font: 12px &quot;Microsoft YaHei&quot;; fill: rgb(51, 51, 51);" transform_matrix="{&quot;a&quot;:1,&quot;b&quot;:0,&quot;c&quot;:0,&quot;d&quot;:1,&quot;e&quot;:459.4023132324219,&quot;f&quot;:5}" text_bbox="{&quot;x&quot;:30,&quot;y&quot;:-1,&quot;w&quot;:38.46875,&quot;h&quot;:16}" opacity="1" stroke-width="1px" stroke-opacity="1" font-family="&quot;Microsoft YaHei&quot;" my_stoke="none" my_stoke_width="1px" my_stoke_opacity="1" my_fill="rgb(51, 51, 51)" my_fill_opacity="1" my_font_size="12px" clip-path="none" content="Data C">Data C</text><path d="M 3.5 0 L 21.5 0 A 3.5 3.5 0 0 1 25 3.5 L 25 10.5 A 3.5 3.5 0 0 1 21.5 14 L 3.5 14 A 3.5 3.5 0 0 1 0 10.5 L 0 3.5 A 3.5 3.5 0 0 1 3.5 0" fill="rgb(255, 145, 124)" fill-opacity="1" stroke="none" transform="matrix(1,0,0,1,537.8574,5)" transform_matrix="{&quot;a&quot;:1,&quot;b&quot;:0,&quot;c&quot;:0,&quot;d&quot;:1,&quot;e&quot;:537.857421875,&quot;f&quot;:5}" my_stoke="none" my_stoke_width="1px" my_stoke_opacity="1" my_fill="rgb(255, 145, 124)" my_fill_opacity="1" my_font_size="16px" opacity="1"/><text xml:space="preserve" fill="rgb(51, 51, 51)" fill-opacity="1" stroke="none" transform="matrix(1,0,0,1,537.8574,5)" dominant-baseline="central" text-anchor="start" x="30" y="7" style="font: 12px &quot;Microsoft YaHei&quot;; fill: rgb(51, 51, 51);" transform_matrix="{&quot;a&quot;:1,&quot;b&quot;:0,&quot;c&quot;:0,&quot;d&quot;:1,&quot;e&quot;:537.857421875,&quot;f&quot;:5}" text_bbox="{&quot;x&quot;:30,&quot;y&quot;:-1,&quot;w&quot;:39.578125,&quot;h&quot;:16}" opacity="1" stroke-width="1px" stroke-opacity="1" font-family="&quot;Microsoft YaHei&quot;" my_stoke="none" my_stoke_width="1px" my_stoke_opacity="1" my_fill="rgb(51, 51, 51)" my_fill_opacity="1" my_font_size="12px" clip-path="none" content="Data D">Data D</text><path d="M -5 -5 L 113 -5 L 113 23 L -5 23 L -5 -5 Z" fill="rgb(0, 0, 0)" fill-opacity="0" stroke="#ccc" stroke-width="0" paint-order="fill" stroke-opacity="1" stroke-dasharray="" stroke-linecap="butt" stroke-miterlimit="10" transform="matrix(1,0,0,1,5,5)" transform_matrix="{&quot;a&quot;:1,&quot;b&quot;:0,&quot;c&quot;:0,&quot;d&quot;:1,&quot;e&quot;:5,&quot;f&quot;:5}" my_stoke="rgb(204, 204, 204)" my_stoke_width="0px" my_stoke_opacity="1" my_fill="rgb(0, 0, 0)" my_fill_opacity="0" my_font_size="16px" opacity="1"/><text xml:space="preserve" fill="rgb(70, 70, 70)" fill-opacity="1" stroke="none" transform="matrix(1,0,0,1,5,5)" dominant-baseline="central" text-anchor="start" x="0" y="9" style="font: bold 18px &quot;Microsoft YaHei&quot;; fill: rgb(70, 70, 70);" transform_matrix="{&quot;a&quot;:1,&quot;b&quot;:0,&quot;c&quot;:0,&quot;d&quot;:1,&quot;e&quot;:5,&quot;f&quot;:5}" text_bbox="{&quot;x&quot;:0,&quot;y&quot;:-3,&quot;w&quot;:108,&quot;h&quot;:24}" opacity="1" stroke-width="1px" stroke-opacity="1" font-family="&quot;Microsoft YaHei&quot;" my_stoke="none" my_stoke_width="1px" my_stoke_opacity="1" my_fill="rgb(70, 70, 70)" my_fill_opacity="1" my_font_size="18px" clip-path="none" content="自定义雷达图">自定义雷达图</text><defs><filter id="zr2498-shadow-0" x="-100%" y="-100%" width="300%" height="300%"><feDropShadow dx="0" dy="0" flood-color="rgb(0,0,0)" flood-opacity="0.2" stdDeviation="5 5"/></filter><radialGradient id="zr2498-gradient-0" cx="0.1" cy="0.6" r="1" gradientUnits="objectBoundingBox"><stop offset="0%" stop-color="#ff917c" stop-opacity="0.1"/><stop offset="100%" stop-color="#ff917c" stop-opacity="0.9"/></radialGradient></defs></g></svg>