<svg xmlns="http://www.w3.org/2000/svg" xmlns:xlink="http://www.w3.org/1999/xlink" version="1.1" baseProfile="full" width="910" height="773" style="user-select: none; position: absolute; left: 0px; top: 0px;" transform_matrix="{&quot;a&quot;:1,&quot;b&quot;:0,&quot;c&quot;:0,&quot;d&quot;:1,&quot;e&quot;:0,&quot;f&quot;:0}"><g><path d="M 455 328.525 L 404.7922 357.5125 L 404.7922 415.4875 L 455 444.475 L 505.2078 415.4875 L 505.2078 357.5125 L 455 328.525 L 455 386.5 Z M 455 212.575 L 304.3765 299.5375 L 304.3765 473.4625 L 455 560.425 L 605.6235 473.4625 L 605.6235 299.5375 L 455 212.575 L 455 270.55 L 555.4156 328.525 L 555.4156 444.475 L 455 502.45 L 354.5844 444.475 L 354.5844 328.525 L 455 270.55 Z M 455 96.625 L 203.9609 241.5625 L 203.9609 531.4375 L 455 676.375 L 706.0391 531.4375 L 706.0391 241.5625 L 455 96.625 L 455 154.6 L 655.8313 270.55 L 655.8313 502.45 L 455 618.4 L 254.1687 502.45 L 254.1687 270.55 L 455 154.6 Z" fill="rgb(250, 250, 250)" fill-opacity="0.2" stroke="none" transform_matrix="{&quot;a&quot;:1,&quot;b&quot;:0,&quot;c&quot;:0,&quot;d&quot;:1,&quot;e&quot;:0,&quot;f&quot;:0}" my_stoke="none" my_stoke_width="1px" my_stoke_opacity="1" my_fill="rgb(250, 250, 250)" my_fill_opacity="0.2" my_font_size="16px" opacity="1"/><path d="M 455 270.55 L 354.5844 328.525 L 354.5844 444.475 L 455 502.45 L 555.4156 444.475 L 555.4156 328.525 L 455 270.55 L 455 328.525 L 505.2078 357.5125 L 505.2078 415.4875 L 455 444.475 L 404.7922 415.4875 L 404.7922 357.5125 L 455 328.525 Z M 455 154.6 L 254.1687 270.55 L 254.1687 502.45 L 455 618.4 L 655.8313 502.45 L 655.8313 270.55 L 455 154.6 L 455 212.575 L 605.6235 299.5375 L 605.6235 473.4625 L 455 560.425 L 304.3765 473.4625 L 304.3765 299.5375 L 455 212.575 Z" fill="rgb(210, 219, 238)" fill-opacity="0.2" stroke="none" transform_matrix="{&quot;a&quot;:1,&quot;b&quot;:0,&quot;c&quot;:0,&quot;d&quot;:1,&quot;e&quot;:0,&quot;f&quot;:0}" my_stoke="none" my_stoke_width="1px" my_stoke_opacity="1" my_fill="rgb(210, 219, 238)" my_fill_opacity="0.2" my_font_size="16px" opacity="1"/><path d="M 455 386.5 M 455 328.525 L 404.7922 357.5125 L 404.7922 415.4875 L 455 444.475 L 505.2078 415.4875 L 505.2078 357.5125 L 455 328.525 M 455 270.55 L 354.5844 328.525 L 354.5844 444.475 L 455 502.45 L 555.4156 444.475 L 555.4156 328.525 L 455 270.55 M 455 212.575 L 304.3765 299.5375 L 304.3765 473.4625 L 455 560.425 L 605.6235 473.4625 L 605.6235 299.5375 L 455 212.575 M 455 154.6 L 254.1687 270.55 L 254.1687 502.45 L 455 618.4 L 655.8313 502.45 L 655.8313 270.55 L 455 154.6 M 455 96.625 L 203.9609 241.5625 L 203.9609 531.4375 L 455 676.375 L 706.0391 531.4375 L 706.0391 241.5625 L 455 96.625" fill="none" stroke="#E0E6F1" stroke-width="1" paint-order="fill" stroke-opacity="1" stroke-dasharray="" stroke-linecap="butt" stroke-miterlimit="10" transform_matrix="{&quot;a&quot;:1,&quot;b&quot;:0,&quot;c&quot;:0,&quot;d&quot;:1,&quot;e&quot;:0,&quot;f&quot;:0}" my_stoke="rgb(224, 230, 241)" my_stoke_width="1px" my_stoke_opacity="1" my_fill="none" my_fill_opacity="1" my_font_size="16px" opacity="1"/><path d="M 455.5 386.5 L 455.5 96.625" fill="none" stroke="#bbb" stroke-width="1" paint-order="fill" stroke-opacity="1" stroke-dasharray="" stroke-linecap="round" stroke-miterlimit="10" transform_matrix="{&quot;a&quot;:1,&quot;b&quot;:0,&quot;c&quot;:0,&quot;d&quot;:1,&quot;e&quot;:0,&quot;f&quot;:0}" my_stoke="rgb(187, 187, 187)" my_stoke_width="1px" my_stoke_opacity="1" my_fill="none" my_fill_opacity="1" my_font_size="16px" opacity="1"/><text xml:space="preserve" fill="rgb(187, 187, 187)" fill-opacity="1" stroke="none" transform="matrix(1,0,0,1,455,81.625)" dominant-baseline="central" text-anchor="middle" x="0" y="-6" style="font: 12px &quot;Microsoft YaHei&quot;; fill: rgb(187, 187, 187);" transform_matrix="{&quot;a&quot;:1,&quot;b&quot;:0,&quot;c&quot;:0,&quot;d&quot;:1,&quot;e&quot;:455,&quot;f&quot;:81.625}" text_bbox="{&quot;x&quot;:-39.5625,&quot;y&quot;:-14,&quot;w&quot;:78.125,&quot;h&quot;:16}" opacity="1" stroke-width="1px" stroke-opacity="1" font-family="&quot;Microsoft YaHei&quot;" my_stoke="none" my_stoke_width="1px" my_stoke_opacity="1" my_fill="rgb(187, 187, 187)" my_fill_opacity="1" my_font_size="12px" clip-path="none" content="销售（Sales）">销售（Sales）</text><path d="M 455 386.5 L 203.9609 241.5625" fill="none" stroke="#bbb" stroke-width="1" paint-order="fill" stroke-opacity="1" stroke-dasharray="" stroke-linecap="round" stroke-miterlimit="10" transform_matrix="{&quot;a&quot;:1,&quot;b&quot;:0,&quot;c&quot;:0,&quot;d&quot;:1,&quot;e&quot;:0,&quot;f&quot;:0}" my_stoke="rgb(187, 187, 187)" my_stoke_width="1px" my_stoke_opacity="1" my_fill="none" my_fill_opacity="1" my_font_size="16px" opacity="1"/><text xml:space="preserve" fill="rgb(187, 187, 187)" fill-opacity="1" stroke="none" transform="matrix(1,0,0,1,190.9705,234.0625)" dominant-baseline="central" text-anchor="end" x="0" y="0" style="font: 12px &quot;Microsoft YaHei&quot;; fill: rgb(187, 187, 187);" transform_matrix="{&quot;a&quot;:1,&quot;b&quot;:0,&quot;c&quot;:0,&quot;d&quot;:1,&quot;e&quot;:190.9705047607422,&quot;f&quot;:234.0625}" text_bbox="{&quot;x&quot;:-134.078125,&quot;y&quot;:-8,&quot;w&quot;:134.078125,&quot;h&quot;:16}" opacity="1" stroke-width="1px" stroke-opacity="1" font-family="&quot;Microsoft YaHei&quot;" my_stoke="none" my_stoke_width="1px" my_stoke_opacity="1" my_fill="rgb(187, 187, 187)" my_fill_opacity="1" my_font_size="12px" clip-path="none" content="管理（Administration）">管理（Administration）</text><path d="M 455 386.5 L 203.9609 531.4375" fill="none" stroke="#bbb" stroke-width="1" paint-order="fill" stroke-opacity="1" stroke-dasharray="" stroke-linecap="round" stroke-miterlimit="10" transform_matrix="{&quot;a&quot;:1,&quot;b&quot;:0,&quot;c&quot;:0,&quot;d&quot;:1,&quot;e&quot;:0,&quot;f&quot;:0}" my_stoke="rgb(187, 187, 187)" my_stoke_width="1px" my_stoke_opacity="1" my_fill="none" my_fill_opacity="1" my_font_size="16px" opacity="1"/><text xml:space="preserve" fill="rgb(187, 187, 187)" fill-opacity="1" stroke="none" transform="matrix(1,0,0,1,190.9705,538.9375)" dominant-baseline="central" text-anchor="end" x="0" y="0" style="font: 12px &quot;Microsoft YaHei&quot;; fill: rgb(187, 187, 187);" transform_matrix="{&quot;a&quot;:1,&quot;b&quot;:0,&quot;c&quot;:0,&quot;d&quot;:1,&quot;e&quot;:190.9705047607422,&quot;f&quot;:538.9375}" text_bbox="{&quot;x&quot;:-211.375,&quot;y&quot;:-8,&quot;w&quot;:211.375,&quot;h&quot;:16}" opacity="1" stroke-width="1px" stroke-opacity="1" font-family="&quot;Microsoft YaHei&quot;" my_stoke="none" my_stoke_width="1px" my_stoke_opacity="1" my_fill="rgb(187, 187, 187)" my_fill_opacity="1" my_font_size="12px" clip-path="none" content="信息技术（Information Technology）">信息技术（Information Technology）</text><path d="M 455.5 386.5 L 455.5 676.375" fill="none" stroke="#bbb" stroke-width="1" paint-order="fill" stroke-opacity="1" stroke-dasharray="" stroke-linecap="round" stroke-miterlimit="10" transform_matrix="{&quot;a&quot;:1,&quot;b&quot;:0,&quot;c&quot;:0,&quot;d&quot;:1,&quot;e&quot;:0,&quot;f&quot;:0}" my_stoke="rgb(187, 187, 187)" my_stoke_width="1px" my_stoke_opacity="1" my_fill="none" my_fill_opacity="1" my_font_size="16px" opacity="1"/><text xml:space="preserve" fill="rgb(187, 187, 187)" fill-opacity="1" stroke="none" transform="matrix(1,0,0,1,455,691.375)" dominant-baseline="central" text-anchor="middle" x="0" y="6" style="font: 12px &quot;Microsoft YaHei&quot;; fill: rgb(187, 187, 187);" transform_matrix="{&quot;a&quot;:1,&quot;b&quot;:0,&quot;c&quot;:0,&quot;d&quot;:1,&quot;e&quot;:455,&quot;f&quot;:691.375}" text_bbox="{&quot;x&quot;:-77.796875,&quot;y&quot;:-2,&quot;w&quot;:154.59375,&quot;h&quot;:16}" opacity="1" stroke-width="1px" stroke-opacity="1" font-family="&quot;Microsoft YaHei&quot;" my_stoke="none" my_stoke_width="1px" my_stoke_opacity="1" my_fill="rgb(187, 187, 187)" my_fill_opacity="1" my_font_size="12px" clip-path="none" content="客服（Customer Support）">客服（Customer Support）</text><path d="M 455 386.5 L 706.0391 531.4375" fill="none" stroke="#bbb" stroke-width="1" paint-order="fill" stroke-opacity="1" stroke-dasharray="" stroke-linecap="round" stroke-miterlimit="10" transform_matrix="{&quot;a&quot;:1,&quot;b&quot;:0,&quot;c&quot;:0,&quot;d&quot;:1,&quot;e&quot;:0,&quot;f&quot;:0}" my_stoke="rgb(187, 187, 187)" my_stoke_width="1px" my_stoke_opacity="1" my_fill="none" my_fill_opacity="1" my_font_size="16px" opacity="1"/><text xml:space="preserve" fill="rgb(187, 187, 187)" fill-opacity="1" stroke="none" transform="matrix(1,0,0,1,719.0295,538.9375)" dominant-baseline="central" text-anchor="start" x="0" y="0" style="font: 12px &quot;Microsoft YaHei&quot;; fill: rgb(187, 187, 187);" transform_matrix="{&quot;a&quot;:1,&quot;b&quot;:0,&quot;c&quot;:0,&quot;d&quot;:1,&quot;e&quot;:719.0294799804688,&quot;f&quot;:538.9375}" text_bbox="{&quot;x&quot;:-1,&quot;y&quot;:-8,&quot;w&quot;:126.46875,&quot;h&quot;:16}" opacity="1" stroke-width="1px" stroke-opacity="1" font-family="&quot;Microsoft YaHei&quot;" my_stoke="none" my_stoke_width="1px" my_stoke_opacity="1" my_fill="rgb(187, 187, 187)" my_fill_opacity="1" my_font_size="12px" clip-path="none" content="研发（Development）">研发（Development）</text><path d="M 455 386.5 L 706.0391 241.5625" fill="none" stroke="#bbb" stroke-width="1" paint-order="fill" stroke-opacity="1" stroke-dasharray="" stroke-linecap="round" stroke-miterlimit="10" transform_matrix="{&quot;a&quot;:1,&quot;b&quot;:0,&quot;c&quot;:0,&quot;d&quot;:1,&quot;e&quot;:0,&quot;f&quot;:0}" my_stoke="rgb(187, 187, 187)" my_stoke_width="1px" my_stoke_opacity="1" my_fill="none" my_fill_opacity="1" my_font_size="16px" opacity="1"/><text xml:space="preserve" fill="rgb(187, 187, 187)" fill-opacity="1" stroke="none" transform="matrix(1,0,0,1,719.0295,234.0625)" dominant-baseline="central" text-anchor="start" x="0" y="0" style="font: 12px &quot;Microsoft YaHei&quot;; fill: rgb(187, 187, 187);" transform_matrix="{&quot;a&quot;:1,&quot;b&quot;:0,&quot;c&quot;:0,&quot;d&quot;:1,&quot;e&quot;:719.0294799804688,&quot;f&quot;:234.0625}" text_bbox="{&quot;x&quot;:0,&quot;y&quot;:-8,&quot;w&quot;:107.015625,&quot;h&quot;:16}" opacity="1" stroke-width="1px" stroke-opacity="1" font-family="&quot;Microsoft YaHei&quot;" my_stoke="none" my_stoke_width="1px" my_stoke_opacity="1" my_fill="rgb(187, 187, 187)" my_fill_opacity="1" my_font_size="12px" clip-path="none" content="市场（Marketing）">市场（Marketing）</text><path d="M 455 199.1962 L 407.9302 359.3242 L 287.6406 483.125 L 455 653.4901 L 696.3838 525.863 L 635.7482 282.145 L 455 199.1962" fill="none" stroke="#5470c6" stroke-width="2" paint-order="fill" stroke-opacity="1" stroke-dasharray="" stroke-linecap="butt" stroke-linejoin="round" stroke-miterlimit="10" transform_matrix="{&quot;a&quot;:1,&quot;b&quot;:0,&quot;c&quot;:0,&quot;d&quot;:1,&quot;e&quot;:0,&quot;f&quot;:0}" my_stoke="rgb(84, 112, 198)" my_stoke_width="2px" my_stoke_opacity="1" my_fill="none" my_fill_opacity="1" my_font_size="16px" opacity="1"/><path d="M 455 163.5192 L 235.3408 259.6797 L 220.6968 521.775 L 455 584.8355 L 657.7624 503.5649 L 665.8729 264.7525 L 455 163.5192" fill="none" stroke="#91cc75" stroke-width="2" paint-order="fill" stroke-opacity="1" stroke-dasharray="" stroke-linecap="butt" stroke-linejoin="round" stroke-miterlimit="10" transform_matrix="{&quot;a&quot;:1,&quot;b&quot;:0,&quot;c&quot;:0,&quot;d&quot;:1,&quot;e&quot;:0,&quot;f&quot;:0}" my_stoke="rgb(145, 204, 117)" my_stoke_width="2px" my_stoke_opacity="1" my_fill="none" my_fill_opacity="1" my_font_size="16px" opacity="1"/><path d="M 1 0 A 1 1 0 1 1 1 -0.0001" fill="rgb(84, 112, 198)" fill-opacity="1" stroke="none" transform="matrix(4,0,0,4,455,199.1962)" transform_matrix="{&quot;a&quot;:4,&quot;b&quot;:0,&quot;c&quot;:0,&quot;d&quot;:4,&quot;e&quot;:455,&quot;f&quot;:199.19619750976562}" my_stoke="none" my_stoke_width="1px" my_stoke_opacity="1" my_fill="rgb(84, 112, 198)" my_fill_opacity="1" my_font_size="16px" opacity="1"/><path d="M 1 0 A 1 1 0 1 1 1 -0.0001" fill="rgb(84, 112, 198)" fill-opacity="1" stroke="none" transform="matrix(4,0,0,4,407.9302,359.3242)" transform_matrix="{&quot;a&quot;:4,&quot;b&quot;:0,&quot;c&quot;:0,&quot;d&quot;:4,&quot;e&quot;:407.9302062988281,&quot;f&quot;:359.3241882324219}" my_stoke="none" my_stoke_width="1px" my_stoke_opacity="1" my_fill="rgb(84, 112, 198)" my_fill_opacity="1" my_font_size="16px" opacity="1"/><path d="M 1 0 A 1 1 0 1 1 1 -0.0001" fill="rgb(84, 112, 198)" fill-opacity="1" stroke="none" transform="matrix(4,0,0,4,287.6406,483.125)" transform_matrix="{&quot;a&quot;:4,&quot;b&quot;:0,&quot;c&quot;:0,&quot;d&quot;:4,&quot;e&quot;:287.6405944824219,&quot;f&quot;:483.125}" my_stoke="none" my_stoke_width="1px" my_stoke_opacity="1" my_fill="rgb(84, 112, 198)" my_fill_opacity="1" my_font_size="16px" opacity="1"/><path d="M 1 0 A 1 1 0 1 1 1 -0.0001" fill="rgb(84, 112, 198)" fill-opacity="1" stroke="none" transform="matrix(4,0,0,4,455,653.4901)" transform_matrix="{&quot;a&quot;:4,&quot;b&quot;:0,&quot;c&quot;:0,&quot;d&quot;:4,&quot;e&quot;:455,&quot;f&quot;:653.4901123046875}" my_stoke="none" my_stoke_width="1px" my_stoke_opacity="1" my_fill="rgb(84, 112, 198)" my_fill_opacity="1" my_font_size="16px" opacity="1"/><path d="M 1 0 A 1 1 0 1 1 1 -0.0001" fill="rgb(84, 112, 198)" fill-opacity="1" stroke="none" transform="matrix(4,0,0,4,696.3838,525.863)" transform_matrix="{&quot;a&quot;:4,&quot;b&quot;:0,&quot;c&quot;:0,&quot;d&quot;:4,&quot;e&quot;:696.3837890625,&quot;f&quot;:525.8629760742188}" my_stoke="none" my_stoke_width="1px" my_stoke_opacity="1" my_fill="rgb(84, 112, 198)" my_fill_opacity="1" my_font_size="16px" opacity="1"/><path d="M 1 0 A 1 1 0 1 1 1 -0.0001" fill="rgb(84, 112, 198)" fill-opacity="1" stroke="none" transform="matrix(4,0,0,4,635.7482,282.145)" transform_matrix="{&quot;a&quot;:4,&quot;b&quot;:0,&quot;c&quot;:0,&quot;d&quot;:4,&quot;e&quot;:635.7482299804688,&quot;f&quot;:282.1449890136719}" my_stoke="none" my_stoke_width="1px" my_stoke_opacity="1" my_fill="rgb(84, 112, 198)" my_fill_opacity="1" my_font_size="16px" opacity="1"/><path d="M 1 0 A 1 1 0 1 1 1 -0.0001" fill="rgb(145, 204, 117)" fill-opacity="1" stroke="none" transform="matrix(4,0,0,4,455,163.5192)" transform_matrix="{&quot;a&quot;:4,&quot;b&quot;:0,&quot;c&quot;:0,&quot;d&quot;:4,&quot;e&quot;:455,&quot;f&quot;:163.51919555664062}" my_stoke="none" my_stoke_width="1px" my_stoke_opacity="1" my_fill="rgb(145, 204, 117)" my_fill_opacity="1" my_font_size="16px" opacity="1"/><path d="M 1 0 A 1 1 0 1 1 1 -0.0001" fill="rgb(145, 204, 117)" fill-opacity="1" stroke="none" transform="matrix(4,0,0,4,235.3408,259.6797)" transform_matrix="{&quot;a&quot;:4,&quot;b&quot;:0,&quot;c&quot;:0,&quot;d&quot;:4,&quot;e&quot;:235.34080505371094,&quot;f&quot;:259.6796875}" my_stoke="none" my_stoke_width="1px" my_stoke_opacity="1" my_fill="rgb(145, 204, 117)" my_fill_opacity="1" my_font_size="16px" opacity="1"/><path d="M 1 0 A 1 1 0 1 1 1 -0.0001" fill="rgb(145, 204, 117)" fill-opacity="1" stroke="none" transform="matrix(4,0,0,4,220.6968,521.775)" transform_matrix="{&quot;a&quot;:4,&quot;b&quot;:0,&quot;c&quot;:0,&quot;d&quot;:4,&quot;e&quot;:220.69679260253906,&quot;f&quot;:521.7750244140625}" my_stoke="none" my_stoke_width="1px" my_stoke_opacity="1" my_fill="rgb(145, 204, 117)" my_fill_opacity="1" my_font_size="16px" opacity="1"/><path d="M 1 0 A 1 1 0 1 1 1 -0.0001" fill="rgb(145, 204, 117)" fill-opacity="1" stroke="none" transform="matrix(4,0,0,4,455,584.8355)" transform_matrix="{&quot;a&quot;:4,&quot;b&quot;:0,&quot;c&quot;:0,&quot;d&quot;:4,&quot;e&quot;:455,&quot;f&quot;:584.8355102539062}" my_stoke="none" my_stoke_width="1px" my_stoke_opacity="1" my_fill="rgb(145, 204, 117)" my_fill_opacity="1" my_font_size="16px" opacity="1"/><path d="M 1 0 A 1 1 0 1 1 1 -0.0001" fill="rgb(145, 204, 117)" fill-opacity="1" stroke="none" transform="matrix(4,0,0,4,657.7624,503.5649)" transform_matrix="{&quot;a&quot;:4,&quot;b&quot;:0,&quot;c&quot;:0,&quot;d&quot;:4,&quot;e&quot;:657.7623901367188,&quot;f&quot;:503.5649108886719}" my_stoke="none" my_stoke_width="1px" my_stoke_opacity="1" my_fill="rgb(145, 204, 117)" my_fill_opacity="1" my_font_size="16px" opacity="1"/><path d="M 1 0 A 1 1 0 1 1 1 -0.0001" fill="rgb(145, 204, 117)" fill-opacity="1" stroke="none" transform="matrix(4,0,0,4,665.8729,264.7525)" transform_matrix="{&quot;a&quot;:4,&quot;b&quot;:0,&quot;c&quot;:0,&quot;d&quot;:4,&quot;e&quot;:665.8729248046875,&quot;f&quot;:264.75250244140625}" my_stoke="none" my_stoke_width="1px" my_stoke_opacity="1" my_fill="rgb(145, 204, 117)" my_fill_opacity="1" my_font_size="16px" opacity="1"/><path d="M -5 -5 L 412.6055 -5 L 412.6055 19 L -5 19 L -5 -5 Z" fill="rgb(0, 0, 0)" fill-opacity="0" stroke="#ccc" stroke-width="0" paint-order="fill" stroke-opacity="1" stroke-dasharray="" stroke-linecap="butt" stroke-miterlimit="10" transform="matrix(1,0,0,1,251.1973,5)" transform_matrix="{&quot;a&quot;:1,&quot;b&quot;:0,&quot;c&quot;:0,&quot;d&quot;:1,&quot;e&quot;:251.19729614257812,&quot;f&quot;:5}" my_stoke="rgb(204, 204, 204)" my_stoke_width="0px" my_stoke_opacity="1" my_fill="rgb(0, 0, 0)" my_fill_opacity="0" my_font_size="16px" opacity="1"/><path d="M 3.5 0 L 21.5 0 A 3.5 3.5 0 0 1 25 3.5 L 25 10.5 A 3.5 3.5 0 0 1 21.5 14 L 3.5 14 A 3.5 3.5 0 0 1 0 10.5 L 0 3.5 A 3.5 3.5 0 0 1 3.5 0" fill="rgb(84, 112, 198)" fill-opacity="1" stroke="none" transform="matrix(1,0,0,1,251.1973,5)" transform_matrix="{&quot;a&quot;:1,&quot;b&quot;:0,&quot;c&quot;:0,&quot;d&quot;:1,&quot;e&quot;:251.19729614257812,&quot;f&quot;:5}" my_stoke="none" my_stoke_width="1px" my_stoke_opacity="1" my_fill="rgb(84, 112, 198)" my_fill_opacity="1" my_font_size="16px" opacity="1"/><text xml:space="preserve" fill="rgb(51, 51, 51)" fill-opacity="1" stroke="none" transform="matrix(1,0,0,1,251.1973,5)" dominant-baseline="central" text-anchor="start" x="30" y="7" style="font: 12px &quot;Microsoft YaHei&quot;; fill: rgb(51, 51, 51);" transform_matrix="{&quot;a&quot;:1,&quot;b&quot;:0,&quot;c&quot;:0,&quot;d&quot;:1,&quot;e&quot;:251.19729614257812,&quot;f&quot;:5}" text_bbox="{&quot;x&quot;:29,&quot;y&quot;:-1,&quot;w&quot;:172.171875,&quot;h&quot;:16}" opacity="1" stroke-width="1px" stroke-opacity="1" font-family="&quot;Microsoft YaHei&quot;" my_stoke="none" my_stoke_width="1px" my_stoke_opacity="1" my_fill="rgb(51, 51, 51)" my_fill_opacity="1" my_font_size="12px" clip-path="none" content="预算分配（Allocated Budget）">预算分配（Allocated Budget）</text><path d="M 3.5 0 L 21.5 0 A 3.5 3.5 0 0 1 25 3.5 L 25 10.5 A 3.5 3.5 0 0 1 21.5 14 L 3.5 14 A 3.5 3.5 0 0 1 0 10.5 L 0 3.5 A 3.5 3.5 0 0 1 3.5 0" fill="rgb(145, 204, 117)" fill-opacity="1" stroke="none" transform="matrix(1,0,0,1,462.3672,5)" transform_matrix="{&quot;a&quot;:1,&quot;b&quot;:0,&quot;c&quot;:0,&quot;d&quot;:1,&quot;e&quot;:462.3671875,&quot;f&quot;:5}" my_stoke="none" my_stoke_width="1px" my_stoke_opacity="1" my_fill="rgb(145, 204, 117)" my_fill_opacity="1" my_font_size="16px" opacity="1"/><text xml:space="preserve" fill="rgb(51, 51, 51)" fill-opacity="1" stroke="none" transform="matrix(1,0,0,1,462.3672,5)" dominant-baseline="central" text-anchor="start" x="30" y="7" style="font: 12px &quot;Microsoft YaHei&quot;; fill: rgb(51, 51, 51);" transform_matrix="{&quot;a&quot;:1,&quot;b&quot;:0,&quot;c&quot;:0,&quot;d&quot;:1,&quot;e&quot;:462.3671875,&quot;f&quot;:5}" text_bbox="{&quot;x&quot;:29,&quot;y&quot;:-1,&quot;w&quot;:167.4375,&quot;h&quot;:16}" opacity="1" stroke-width="1px" stroke-opacity="1" font-family="&quot;Microsoft YaHei&quot;" my_stoke="none" my_stoke_width="1px" my_stoke_opacity="1" my_fill="rgb(51, 51, 51)" my_fill_opacity="1" my_font_size="12px" clip-path="none" content="实际开销（Actual Spending）">实际开销（Actual Spending）</text><path d="M -5 -5 L 95 -5 L 95 23 L -5 23 L -5 -5 Z" fill="rgb(0, 0, 0)" fill-opacity="0" stroke="#ccc" stroke-width="0" paint-order="fill" stroke-opacity="1" stroke-dasharray="" stroke-linecap="butt" stroke-miterlimit="10" transform="matrix(1,0,0,1,5,5)" transform_matrix="{&quot;a&quot;:1,&quot;b&quot;:0,&quot;c&quot;:0,&quot;d&quot;:1,&quot;e&quot;:5,&quot;f&quot;:5}" my_stoke="rgb(204, 204, 204)" my_stoke_width="0px" my_stoke_opacity="1" my_fill="rgb(0, 0, 0)" my_fill_opacity="0" my_font_size="16px" opacity="1"/><text xml:space="preserve" fill="rgb(70, 70, 70)" fill-opacity="1" stroke="none" transform="matrix(1,0,0,1,5,5)" dominant-baseline="central" text-anchor="start" x="0" y="9" style="font: bold 18px &quot;Microsoft YaHei&quot;; fill: rgb(70, 70, 70);" transform_matrix="{&quot;a&quot;:1,&quot;b&quot;:0,&quot;c&quot;:0,&quot;d&quot;:1,&quot;e&quot;:5,&quot;f&quot;:5}" text_bbox="{&quot;x&quot;:-1,&quot;y&quot;:-3,&quot;w&quot;:91,&quot;h&quot;:24}" opacity="1" stroke-width="1px" stroke-opacity="1" font-family="&quot;Microsoft YaHei&quot;" my_stoke="none" my_stoke_width="1px" my_stoke_opacity="1" my_fill="rgb(70, 70, 70)" my_fill_opacity="1" my_font_size="18px" clip-path="none" content="基础雷达图">基础雷达图</text></g></svg>