<svg xmlns="http://www.w3.org/2000/svg" xmlns:xlink="http://www.w3.org/1999/xlink" version="1.1" baseProfile="full" width="910" height="773" style="user-select: none; position: absolute; left: 0px; top: 0px;" transform_matrix="{&quot;a&quot;:1,&quot;b&quot;:0,&quot;c&quot;:0,&quot;d&quot;:1,&quot;e&quot;:0,&quot;f&quot;:0}"><g><path d="M 71.1079 742.4753 C 71.1104 749.302 66.4783 755.2566 60.137 756.9566 C 58.2882 758.1672 39.709 760.4448 37.3747 759.9579 C 30.548 759.9604 24.5934 755.3283 22.8934 748.987 C 21.6828 747.1382 19.4052 728.559 19.8921 726.2247 C 19.8896 719.398 24.5217 713.4434 30.863 711.7434 C 32.7118 710.5328 51.291 708.2552 53.6253 708.7421 C 60.452 708.7396 66.4066 713.3717 68.1066 719.713 C 69.3172 721.5618 71.5948 740.141 71.1079 742.4753" fill="rgb(84, 112, 198)" fill-opacity="0.7999989275091797" stroke="none" transform_matrix="{&quot;a&quot;:1,&quot;b&quot;:0,&quot;c&quot;:0,&quot;d&quot;:1,&quot;e&quot;:0,&quot;f&quot;:0}" my_stoke="none" my_stoke_width="1px" my_stoke_opacity="1" my_fill="rgb(84, 112, 198)" my_fill_opacity="0.799999" my_font_size="16px" opacity="1"/><path d="M 162.1079 726.2247 C 162.5948 728.559 160.3172 747.1382 159.1066 748.987 C 157.4066 755.3283 151.452 759.9604 144.6253 759.9579 C 142.291 760.4448 123.7118 758.1672 121.863 756.9566 C 115.5217 755.2566 110.8896 749.302 110.8921 742.4753 C 110.4052 740.141 112.6828 721.5618 113.8934 719.713 C 115.5934 713.3717 121.548 708.7396 128.3747 708.7421 C 130.709 708.2552 149.2882 710.5328 151.137 711.7434 C 157.4783 713.4434 162.1104 719.398 162.1079 726.2247" fill="rgb(84, 112, 198)" fill-opacity="0.7999989275091797" stroke="none" transform_matrix="{&quot;a&quot;:1,&quot;b&quot;:0,&quot;c&quot;:0,&quot;d&quot;:1,&quot;e&quot;:0,&quot;f&quot;:0}" my_stoke="none" my_stoke_width="1px" my_stoke_opacity="1" my_fill="rgb(84, 112, 198)" my_fill_opacity="0.799999" my_font_size="16px" opacity="1"/><path d="M 253.1079 742.4753 C 253.1104 749.302 248.4783 755.2566 242.137 756.9566 C 240.2882 758.1672 221.709 760.4448 219.3747 759.9579 C 212.548 759.9604 206.5934 755.3283 204.8934 748.987 C 203.6828 747.1382 201.4052 728.559 201.8921 726.2247 C 201.8896 719.398 206.5217 713.4434 212.863 711.7434 C 214.7118 710.5328 233.291 708.2552 235.6253 708.7421 C 242.452 708.7396 248.4066 713.3717 250.1066 719.713 C 251.3172 721.5618 253.5948 740.141 253.1079 742.4753" fill="rgb(84, 112, 198)" fill-opacity="0.7999989275091797" stroke="none" transform_matrix="{&quot;a&quot;:1,&quot;b&quot;:0,&quot;c&quot;:0,&quot;d&quot;:1,&quot;e&quot;:0,&quot;f&quot;:0}" my_stoke="none" my_stoke_width="1px" my_stoke_opacity="1" my_fill="rgb(84, 112, 198)" my_fill_opacity="0.799999" my_font_size="16px" opacity="1"/><path d="M 344.1079 726.2247 C 344.5948 728.559 342.3172 747.1382 341.1066 748.987 C 339.4066 755.3283 333.452 759.9604 326.6253 759.9579 C 324.291 760.4448 305.7118 758.1672 303.863 756.9566 C 297.5217 755.2566 292.8896 749.302 292.8921 742.4753 C 292.4052 740.141 294.6828 721.5618 295.8934 719.713 C 297.5934 713.3717 303.548 708.7396 310.3747 708.7421 C 312.709 708.2552 331.2882 710.5328 333.137 711.7434 C 339.4783 713.4434 344.1104 719.398 344.1079 726.2247" fill="rgb(84, 112, 198)" fill-opacity="0.7999989275091797" stroke="none" transform_matrix="{&quot;a&quot;:1,&quot;b&quot;:0,&quot;c&quot;:0,&quot;d&quot;:1,&quot;e&quot;:0,&quot;f&quot;:0}" my_stoke="none" my_stoke_width="1px" my_stoke_opacity="1" my_fill="rgb(84, 112, 198)" my_fill_opacity="0.799999" my_font_size="16px" opacity="1"/><path d="M 435.1079 726.2247 C 435.5948 728.559 433.3172 747.1382 432.1066 748.987 C 430.4066 755.3283 424.452 759.9604 417.6253 759.9579 C 415.291 760.4448 396.7118 758.1672 394.863 756.9566 C 388.5217 755.2566 383.8896 749.302 383.8921 742.4753 C 383.4052 740.141 385.6828 721.5618 386.8934 719.713 C 388.5934 713.3717 394.548 708.7396 401.3747 708.7421 C 403.709 708.2552 422.2882 710.5328 424.137 711.7434 C 430.4783 713.4434 435.1104 719.398 435.1079 726.2247" fill="rgb(84, 112, 198)" fill-opacity="0.7999989275091797" stroke="none" transform_matrix="{&quot;a&quot;:1,&quot;b&quot;:0,&quot;c&quot;:0,&quot;d&quot;:1,&quot;e&quot;:0,&quot;f&quot;:0}" my_stoke="none" my_stoke_width="1px" my_stoke_opacity="1" my_fill="rgb(84, 112, 198)" my_fill_opacity="0.799999" my_font_size="16px" opacity="1"/><path d="M 526.1079 726.2247 C 526.5948 728.559 524.3172 747.1382 523.1066 748.987 C 521.4066 755.3283 515.452 759.9604 508.6253 759.9579 C 506.291 760.4448 487.7118 758.1672 485.863 756.9566 C 479.5217 755.2566 474.8896 749.302 474.8921 742.4753 C 474.4052 740.141 476.6828 721.5618 477.8934 719.713 C 479.5934 713.3717 485.548 708.7396 492.3747 708.7421 C 494.709 708.2552 513.2882 710.5328 515.137 711.7434 C 521.4783 713.4434 526.1104 719.398 526.1079 726.2247" fill="rgb(84, 112, 198)" fill-opacity="0.7999989275091797" stroke="none" transform_matrix="{&quot;a&quot;:1,&quot;b&quot;:0,&quot;c&quot;:0,&quot;d&quot;:1,&quot;e&quot;:0,&quot;f&quot;:0}" my_stoke="none" my_stoke_width="1px" my_stoke_opacity="1" my_fill="rgb(84, 112, 198)" my_fill_opacity="0.799999" my_font_size="16px" opacity="1"/><path d="M 617.1079 742.4753 C 617.1104 749.302 612.4783 755.2566 606.137 756.9566 C 604.2882 758.1672 585.709 760.4448 583.3747 759.9579 C 576.548 759.9604 570.5934 755.3283 568.8934 748.987 C 567.6828 747.1382 565.4052 728.559 565.8921 726.2247 C 565.8896 719.398 570.5217 713.4434 576.863 711.7434 C 578.7118 710.5328 597.291 708.2552 599.6253 708.7421 C 606.452 708.7396 612.4066 713.3717 614.1066 719.713 C 615.3172 721.5618 617.5948 740.141 617.1079 742.4753" fill="rgb(84, 112, 198)" fill-opacity="0.7999989275091797" stroke="none" transform_matrix="{&quot;a&quot;:1,&quot;b&quot;:0,&quot;c&quot;:0,&quot;d&quot;:1,&quot;e&quot;:0,&quot;f&quot;:0}" my_stoke="none" my_stoke_width="1px" my_stoke_opacity="1" my_fill="rgb(84, 112, 198)" my_fill_opacity="0.799999" my_font_size="16px" opacity="1"/><path d="M 708.1079 726.2247 C 708.5948 728.559 706.3172 747.1382 705.1066 748.987 C 703.4066 755.3283 697.452 759.9604 690.6253 759.9579 C 688.291 760.4448 669.7118 758.1672 667.863 756.9566 C 661.5217 755.2566 656.8896 749.302 656.8921 742.4753 C 656.4052 740.141 658.6828 721.5618 659.8934 719.713 C 661.5934 713.3717 667.548 708.7396 674.3747 708.7421 C 676.709 708.2552 695.2882 710.5328 697.137 711.7434 C 703.4783 713.4434 708.1104 719.398 708.1079 726.2247" fill="rgb(84, 112, 198)" fill-opacity="0.7999989275091797" stroke="none" transform_matrix="{&quot;a&quot;:1,&quot;b&quot;:0,&quot;c&quot;:0,&quot;d&quot;:1,&quot;e&quot;:0,&quot;f&quot;:0}" my_stoke="none" my_stoke_width="1px" my_stoke_opacity="1" my_fill="rgb(84, 112, 198)" my_fill_opacity="0.799999" my_font_size="16px" opacity="1"/><path d="M 799.1079 742.4753 C 799.1104 749.302 794.4783 755.2566 788.137 756.9566 C 786.2882 758.1672 767.709 760.4448 765.3747 759.9579 C 758.548 759.9604 752.5934 755.3283 750.8934 748.987 C 749.6828 747.1382 747.4052 728.559 747.8921 726.2247 C 747.8896 719.398 752.5217 713.4434 758.863 711.7434 C 760.7118 710.5328 779.291 708.2552 781.6253 708.7421 C 788.452 708.7396 794.4066 713.3717 796.1066 719.713 C 797.3172 721.5618 799.5948 740.141 799.1079 742.4753" fill="rgb(84, 112, 198)" fill-opacity="0.7999989275091797" stroke="none" transform_matrix="{&quot;a&quot;:1,&quot;b&quot;:0,&quot;c&quot;:0,&quot;d&quot;:1,&quot;e&quot;:0,&quot;f&quot;:0}" my_stoke="none" my_stoke_width="1px" my_stoke_opacity="1" my_fill="rgb(84, 112, 198)" my_fill_opacity="0.799999" my_font_size="16px" opacity="1"/><path d="M 890.1079 726.2247 C 890.5948 728.559 888.3172 747.1382 887.1066 748.987 C 885.4066 755.3283 879.452 759.9604 872.6253 759.9579 C 870.291 760.4448 851.7118 758.1672 849.863 756.9566 C 843.5217 755.2566 838.8896 749.302 838.8921 742.4753 C 838.4052 740.141 840.6828 721.5618 841.8934 719.713 C 843.5934 713.3717 849.548 708.7396 856.3747 708.7421 C 858.709 708.2552 877.2882 710.5328 879.137 711.7434 C 885.4783 713.4434 890.1104 719.398 890.1079 726.2247" fill="rgb(84, 112, 198)" fill-opacity="0.7999989275091797" stroke="none" transform_matrix="{&quot;a&quot;:1,&quot;b&quot;:0,&quot;c&quot;:0,&quot;d&quot;:1,&quot;e&quot;:0,&quot;f&quot;:0}" my_stoke="none" my_stoke_width="1px" my_stoke_opacity="1" my_fill="rgb(84, 112, 198)" my_fill_opacity="0.799999" my_font_size="16px" opacity="1"/><path d="M 71.1079 648.9247 C 71.5948 651.259 69.3172 669.8382 68.1066 671.687 C 66.4066 678.0283 60.452 682.6604 53.6253 682.6579 C 51.291 683.1448 32.7118 680.8672 30.863 679.6566 C 24.5217 677.9566 19.8896 672.002 19.8921 665.1753 C 19.4052 662.841 21.6828 644.2618 22.8934 642.413 C 24.5934 636.0717 30.548 631.4396 37.3747 631.4421 C 39.709 630.9552 58.2882 633.2328 60.137 634.4434 C 66.4783 636.1434 71.1104 642.098 71.1079 648.9247" fill="rgb(84, 112, 198)" fill-opacity="0.7999989275091797" stroke="none" transform_matrix="{&quot;a&quot;:1,&quot;b&quot;:0,&quot;c&quot;:0,&quot;d&quot;:1,&quot;e&quot;:0,&quot;f&quot;:0}" my_stoke="none" my_stoke_width="1px" my_stoke_opacity="1" my_fill="rgb(84, 112, 198)" my_fill_opacity="0.799999" my_font_size="16px" opacity="1"/><path d="M 162.1079 665.1753 C 162.1104 672.002 157.4783 677.9566 151.137 679.6566 C 149.2882 680.8672 130.709 683.1448 128.3747 682.6579 C 121.548 682.6604 115.5934 678.0283 113.8934 671.687 C 112.6828 669.8382 110.4052 651.259 110.8921 648.9247 C 110.8896 642.098 115.5217 636.1434 121.863 634.4434 C 123.7118 633.2328 142.291 630.9552 144.6253 631.4421 C 151.452 631.4396 157.4066 636.0717 159.1066 642.413 C 160.3172 644.2618 162.5948 662.841 162.1079 665.1753" fill="rgb(84, 112, 198)" fill-opacity="0.7999989275091797" stroke="none" transform_matrix="{&quot;a&quot;:1,&quot;b&quot;:0,&quot;c&quot;:0,&quot;d&quot;:1,&quot;e&quot;:0,&quot;f&quot;:0}" my_stoke="none" my_stoke_width="1px" my_stoke_opacity="1" my_fill="rgb(84, 112, 198)" my_fill_opacity="0.799999" my_font_size="16px" opacity="1"/><path d="M 253.1079 648.9247 C 253.5948 651.259 251.3172 669.8382 250.1066 671.687 C 248.4066 678.0283 242.452 682.6604 235.6253 682.6579 C 233.291 683.1448 214.7118 680.8672 212.863 679.6566 C 206.5217 677.9566 201.8896 672.002 201.8921 665.1753 C 201.4052 662.841 203.6828 644.2618 204.8934 642.413 C 206.5934 636.0717 212.548 631.4396 219.3747 631.4421 C 221.709 630.9552 240.2882 633.2328 242.137 634.4434 C 248.4783 636.1434 253.1104 642.098 253.1079 648.9247" fill="rgb(84, 112, 198)" fill-opacity="0.7999989275091797" stroke="none" transform_matrix="{&quot;a&quot;:1,&quot;b&quot;:0,&quot;c&quot;:0,&quot;d&quot;:1,&quot;e&quot;:0,&quot;f&quot;:0}" my_stoke="none" my_stoke_width="1px" my_stoke_opacity="1" my_fill="rgb(84, 112, 198)" my_fill_opacity="0.799999" my_font_size="16px" opacity="1"/><path d="M 344.1079 665.1753 C 344.1104 672.002 339.4783 677.9566 333.137 679.6566 C 331.2882 680.8672 312.709 683.1448 310.3747 682.6579 C 303.548 682.6604 297.5934 678.0283 295.8934 671.687 C 294.6828 669.8382 292.4052 651.259 292.8921 648.9247 C 292.8896 642.098 297.5217 636.1434 303.863 634.4434 C 305.7118 633.2328 324.291 630.9552 326.6253 631.4421 C 333.452 631.4396 339.4066 636.0717 341.1066 642.413 C 342.3172 644.2618 344.5948 662.841 344.1079 665.1753" fill="rgb(84, 112, 198)" fill-opacity="0.7999989275091797" stroke="none" transform_matrix="{&quot;a&quot;:1,&quot;b&quot;:0,&quot;c&quot;:0,&quot;d&quot;:1,&quot;e&quot;:0,&quot;f&quot;:0}" my_stoke="none" my_stoke_width="1px" my_stoke_opacity="1" my_fill="rgb(84, 112, 198)" my_fill_opacity="0.799999" my_font_size="16px" opacity="1"/><path d="M 435.1079 648.9247 C 435.5948 651.259 433.3172 669.8382 432.1066 671.687 C 430.4066 678.0283 424.452 682.6604 417.6253 682.6579 C 415.291 683.1448 396.7118 680.8672 394.863 679.6566 C 388.5217 677.9566 383.8896 672.002 383.8921 665.1753 C 383.4052 662.841 385.6828 644.2618 386.8934 642.413 C 388.5934 636.0717 394.548 631.4396 401.3747 631.4421 C 403.709 630.9552 422.2882 633.2328 424.137 634.4434 C 430.4783 636.1434 435.1104 642.098 435.1079 648.9247" fill="rgb(84, 112, 198)" fill-opacity="0.7999989275091797" stroke="none" transform_matrix="{&quot;a&quot;:1,&quot;b&quot;:0,&quot;c&quot;:0,&quot;d&quot;:1,&quot;e&quot;:0,&quot;f&quot;:0}" my_stoke="none" my_stoke_width="1px" my_stoke_opacity="1" my_fill="rgb(84, 112, 198)" my_fill_opacity="0.799999" my_font_size="16px" opacity="1"/><path d="M 526.1079 665.1753 C 526.1104 672.002 521.4783 677.9566 515.137 679.6566 C 513.2882 680.8672 494.709 683.1448 492.3747 682.6579 C 485.548 682.6604 479.5934 678.0283 477.8934 671.687 C 476.6828 669.8382 474.4052 651.259 474.8921 648.9247 C 474.8896 642.098 479.5217 636.1434 485.863 634.4434 C 487.7118 633.2328 506.291 630.9552 508.6253 631.4421 C 515.452 631.4396 521.4066 636.0717 523.1066 642.413 C 524.3172 644.2618 526.5948 662.841 526.1079 665.1753" fill="rgb(84, 112, 198)" fill-opacity="0.7999989275091797" stroke="none" transform_matrix="{&quot;a&quot;:1,&quot;b&quot;:0,&quot;c&quot;:0,&quot;d&quot;:1,&quot;e&quot;:0,&quot;f&quot;:0}" my_stoke="none" my_stoke_width="1px" my_stoke_opacity="1" my_fill="rgb(84, 112, 198)" my_fill_opacity="0.799999" my_font_size="16px" opacity="1"/><path d="M 617.1079 665.1753 C 617.1104 672.002 612.4783 677.9566 606.137 679.6566 C 604.2882 680.8672 585.709 683.1448 583.3747 682.6579 C 576.548 682.6604 570.5934 678.0283 568.8934 671.687 C 567.6828 669.8382 565.4052 651.259 565.8921 648.9247 C 565.8896 642.098 570.5217 636.1434 576.863 634.4434 C 578.7118 633.2328 597.291 630.9552 599.6253 631.4421 C 606.452 631.4396 612.4066 636.0717 614.1066 642.413 C 615.3172 644.2618 617.5948 662.841 617.1079 665.1753" fill="rgb(84, 112, 198)" fill-opacity="0.7999989275091797" stroke="none" transform_matrix="{&quot;a&quot;:1,&quot;b&quot;:0,&quot;c&quot;:0,&quot;d&quot;:1,&quot;e&quot;:0,&quot;f&quot;:0}" my_stoke="none" my_stoke_width="1px" my_stoke_opacity="1" my_fill="rgb(84, 112, 198)" my_fill_opacity="0.799999" my_font_size="16px" opacity="1"/><path d="M 708.1079 665.1753 C 708.1104 672.002 703.4783 677.9566 697.137 679.6566 C 695.2882 680.8672 676.709 683.1448 674.3747 682.6579 C 667.548 682.6604 661.5934 678.0283 659.8934 671.687 C 658.6828 669.8382 656.4052 651.259 656.8921 648.9247 C 656.8896 642.098 661.5217 636.1434 667.863 634.4434 C 669.7118 633.2328 688.291 630.9552 690.6253 631.4421 C 697.452 631.4396 703.4066 636.0717 705.1066 642.413 C 706.3172 644.2618 708.5948 662.841 708.1079 665.1753" fill="rgb(84, 112, 198)" fill-opacity="0.7999989275091797" stroke="none" transform_matrix="{&quot;a&quot;:1,&quot;b&quot;:0,&quot;c&quot;:0,&quot;d&quot;:1,&quot;e&quot;:0,&quot;f&quot;:0}" my_stoke="none" my_stoke_width="1px" my_stoke_opacity="1" my_fill="rgb(84, 112, 198)" my_fill_opacity="0.799999" my_font_size="16px" opacity="1"/><path d="M 799.1079 665.1753 C 799.1104 672.002 794.4783 677.9566 788.137 679.6566 C 786.2882 680.8672 767.709 683.1448 765.3747 682.6579 C 758.548 682.6604 752.5934 678.0283 750.8934 671.687 C 749.6828 669.8382 747.4052 651.259 747.8921 648.9247 C 747.8896 642.098 752.5217 636.1434 758.863 634.4434 C 760.7118 633.2328 779.291 630.9552 781.6253 631.4421 C 788.452 631.4396 794.4066 636.0717 796.1066 642.413 C 797.3172 644.2618 799.5948 662.841 799.1079 665.1753" fill="rgb(84, 112, 198)" fill-opacity="0.7999989275091797" stroke="none" transform_matrix="{&quot;a&quot;:1,&quot;b&quot;:0,&quot;c&quot;:0,&quot;d&quot;:1,&quot;e&quot;:0,&quot;f&quot;:0}" my_stoke="none" my_stoke_width="1px" my_stoke_opacity="1" my_fill="rgb(84, 112, 198)" my_fill_opacity="0.799999" my_font_size="16px" opacity="1"/><path d="M 890.1079 665.1753 C 890.1104 672.002 885.4783 677.9566 879.137 679.6566 C 877.2882 680.8672 858.709 683.1448 856.3747 682.6579 C 849.548 682.6604 843.5934 678.0283 841.8934 671.687 C 840.6828 669.8382 838.4052 651.259 838.8921 648.9247 C 838.8896 642.098 843.5217 636.1434 849.863 634.4434 C 851.7118 633.2328 870.291 630.9552 872.6253 631.4421 C 879.452 631.4396 885.4066 636.0717 887.1066 642.413 C 888.3172 644.2618 890.5948 662.841 890.1079 665.1753" fill="rgb(84, 112, 198)" fill-opacity="0.7999989275091797" stroke="none" transform_matrix="{&quot;a&quot;:1,&quot;b&quot;:0,&quot;c&quot;:0,&quot;d&quot;:1,&quot;e&quot;:0,&quot;f&quot;:0}" my_stoke="none" my_stoke_width="1px" my_stoke_opacity="1" my_fill="rgb(84, 112, 198)" my_fill_opacity="0.799999" my_font_size="16px" opacity="1"/><path d="M 71.1079 571.6247 C 71.5948 573.959 69.3172 592.5382 68.1066 594.387 C 66.4066 600.7283 60.452 605.3604 53.6253 605.3579 C 51.291 605.8448 32.7118 603.5672 30.863 602.3566 C 24.5217 600.6566 19.8896 594.702 19.8921 587.8753 C 19.4052 585.541 21.6828 566.9618 22.8934 565.113 C 24.5934 558.7717 30.548 554.1396 37.3747 554.1421 C 39.709 553.6552 58.2882 555.9328 60.137 557.1434 C 66.4783 558.8434 71.1104 564.798 71.1079 571.6247" fill="rgb(84, 112, 198)" fill-opacity="0.7999989275091797" stroke="none" transform_matrix="{&quot;a&quot;:1,&quot;b&quot;:0,&quot;c&quot;:0,&quot;d&quot;:1,&quot;e&quot;:0,&quot;f&quot;:0}" my_stoke="none" my_stoke_width="1px" my_stoke_opacity="1" my_fill="rgb(84, 112, 198)" my_fill_opacity="0.799999" my_font_size="16px" opacity="1"/><path d="M 162.1079 587.8753 C 162.1104 594.702 157.4783 600.6566 151.137 602.3566 C 149.2882 603.5672 130.709 605.8448 128.3747 605.3579 C 121.548 605.3604 115.5934 600.7283 113.8934 594.387 C 112.6828 592.5382 110.4052 573.959 110.8921 571.6247 C 110.8896 564.798 115.5217 558.8434 121.863 557.1434 C 123.7118 555.9328 142.291 553.6552 144.6253 554.1421 C 151.452 554.1396 157.4066 558.7717 159.1066 565.113 C 160.3172 566.9618 162.5948 585.541 162.1079 587.8753" fill="rgb(84, 112, 198)" fill-opacity="0.7999989275091797" stroke="none" transform_matrix="{&quot;a&quot;:1,&quot;b&quot;:0,&quot;c&quot;:0,&quot;d&quot;:1,&quot;e&quot;:0,&quot;f&quot;:0}" my_stoke="none" my_stoke_width="1px" my_stoke_opacity="1" my_fill="rgb(84, 112, 198)" my_fill_opacity="0.799999" my_font_size="16px" opacity="1"/><path d="M 253.1079 571.6247 C 253.5948 573.959 251.3172 592.5382 250.1066 594.387 C 248.4066 600.7283 242.452 605.3604 235.6253 605.3579 C 233.291 605.8448 214.7118 603.5672 212.863 602.3566 C 206.5217 600.6566 201.8896 594.702 201.8921 587.8753 C 201.4052 585.541 203.6828 566.9618 204.8934 565.113 C 206.5934 558.7717 212.548 554.1396 219.3747 554.1421 C 221.709 553.6552 240.2882 555.9328 242.137 557.1434 C 248.4783 558.8434 253.1104 564.798 253.1079 571.6247" fill="rgb(84, 112, 198)" fill-opacity="0.7999989275091797" stroke="none" transform_matrix="{&quot;a&quot;:1,&quot;b&quot;:0,&quot;c&quot;:0,&quot;d&quot;:1,&quot;e&quot;:0,&quot;f&quot;:0}" my_stoke="none" my_stoke_width="1px" my_stoke_opacity="1" my_fill="rgb(84, 112, 198)" my_fill_opacity="0.799999" my_font_size="16px" opacity="1"/><path d="M 344.1079 571.6247 C 344.5948 573.959 342.3172 592.5382 341.1066 594.387 C 339.4066 600.7283 333.452 605.3604 326.6253 605.3579 C 324.291 605.8448 305.7118 603.5672 303.863 602.3566 C 297.5217 600.6566 292.8896 594.702 292.8921 587.8753 C 292.4052 585.541 294.6828 566.9618 295.8934 565.113 C 297.5934 558.7717 303.548 554.1396 310.3747 554.1421 C 312.709 553.6552 331.2882 555.9328 333.137 557.1434 C 339.4783 558.8434 344.1104 564.798 344.1079 571.6247" fill="rgb(84, 112, 198)" fill-opacity="0.7999989275091797" stroke="none" transform_matrix="{&quot;a&quot;:1,&quot;b&quot;:0,&quot;c&quot;:0,&quot;d&quot;:1,&quot;e&quot;:0,&quot;f&quot;:0}" my_stoke="none" my_stoke_width="1px" my_stoke_opacity="1" my_fill="rgb(84, 112, 198)" my_fill_opacity="0.799999" my_font_size="16px" opacity="1"/><path d="M 435.1079 587.8753 C 435.1104 594.702 430.4783 600.6566 424.137 602.3566 C 422.2882 603.5672 403.709 605.8448 401.3747 605.3579 C 394.548 605.3604 388.5934 600.7283 386.8934 594.387 C 385.6828 592.5382 383.4052 573.959 383.8921 571.6247 C 383.8896 564.798 388.5217 558.8434 394.863 557.1434 C 396.7118 555.9328 415.291 553.6552 417.6253 554.1421 C 424.452 554.1396 430.4066 558.7717 432.1066 565.113 C 433.3172 566.9618 435.5948 585.541 435.1079 587.8753" fill="rgb(84, 112, 198)" fill-opacity="0.7999989275091797" stroke="none" transform_matrix="{&quot;a&quot;:1,&quot;b&quot;:0,&quot;c&quot;:0,&quot;d&quot;:1,&quot;e&quot;:0,&quot;f&quot;:0}" my_stoke="none" my_stoke_width="1px" my_stoke_opacity="1" my_fill="rgb(84, 112, 198)" my_fill_opacity="0.799999" my_font_size="16px" opacity="1"/><path d="M 526.1079 571.6247 C 526.5948 573.959 524.3172 592.5382 523.1066 594.387 C 521.4066 600.7283 515.452 605.3604 508.6253 605.3579 C 506.291 605.8448 487.7118 603.5672 485.863 602.3566 C 479.5217 600.6566 474.8896 594.702 474.8921 587.8753 C 474.4052 585.541 476.6828 566.9618 477.8934 565.113 C 479.5934 558.7717 485.548 554.1396 492.3747 554.1421 C 494.709 553.6552 513.2882 555.9328 515.137 557.1434 C 521.4783 558.8434 526.1104 564.798 526.1079 571.6247" fill="rgb(84, 112, 198)" fill-opacity="0.7999989275091797" stroke="none" transform_matrix="{&quot;a&quot;:1,&quot;b&quot;:0,&quot;c&quot;:0,&quot;d&quot;:1,&quot;e&quot;:0,&quot;f&quot;:0}" my_stoke="none" my_stoke_width="1px" my_stoke_opacity="1" my_fill="rgb(84, 112, 198)" my_fill_opacity="0.799999" my_font_size="16px" opacity="1"/><path d="M 617.1079 587.8753 C 617.1104 594.702 612.4783 600.6566 606.137 602.3566 C 604.2882 603.5672 585.709 605.8448 583.3747 605.3579 C 576.548 605.3604 570.5934 600.7283 568.8934 594.387 C 567.6828 592.5382 565.4052 573.959 565.8921 571.6247 C 565.8896 564.798 570.5217 558.8434 576.863 557.1434 C 578.7118 555.9328 597.291 553.6552 599.6253 554.1421 C 606.452 554.1396 612.4066 558.7717 614.1066 565.113 C 615.3172 566.9618 617.5948 585.541 617.1079 587.8753" fill="rgb(84, 112, 198)" fill-opacity="0.7999989275091797" stroke="none" transform_matrix="{&quot;a&quot;:1,&quot;b&quot;:0,&quot;c&quot;:0,&quot;d&quot;:1,&quot;e&quot;:0,&quot;f&quot;:0}" my_stoke="none" my_stoke_width="1px" my_stoke_opacity="1" my_fill="rgb(84, 112, 198)" my_fill_opacity="0.799999" my_font_size="16px" opacity="1"/><path d="M 708.1079 571.6247 C 708.5948 573.959 706.3172 592.5382 705.1066 594.387 C 703.4066 600.7283 697.452 605.3604 690.6253 605.3579 C 688.291 605.8448 669.7118 603.5672 667.863 602.3566 C 661.5217 600.6566 656.8896 594.702 656.8921 587.8753 C 656.4052 585.541 658.6828 566.9618 659.8934 565.113 C 661.5934 558.7717 667.548 554.1396 674.3747 554.1421 C 676.709 553.6552 695.2882 555.9328 697.137 557.1434 C 703.4783 558.8434 708.1104 564.798 708.1079 571.6247" fill="rgb(84, 112, 198)" fill-opacity="0.7999989275091797" stroke="none" transform_matrix="{&quot;a&quot;:1,&quot;b&quot;:0,&quot;c&quot;:0,&quot;d&quot;:1,&quot;e&quot;:0,&quot;f&quot;:0}" my_stoke="none" my_stoke_width="1px" my_stoke_opacity="1" my_fill="rgb(84, 112, 198)" my_fill_opacity="0.799999" my_font_size="16px" opacity="1"/><path d="M 799.1079 587.8753 C 799.1104 594.702 794.4783 600.6566 788.137 602.3566 C 786.2882 603.5672 767.709 605.8448 765.3747 605.3579 C 758.548 605.3604 752.5934 600.7283 750.8934 594.387 C 749.6828 592.5382 747.4052 573.959 747.8921 571.6247 C 747.8896 564.798 752.5217 558.8434 758.863 557.1434 C 760.7118 555.9328 779.291 553.6552 781.6253 554.1421 C 788.452 554.1396 794.4066 558.7717 796.1066 565.113 C 797.3172 566.9618 799.5948 585.541 799.1079 587.8753" fill="rgb(84, 112, 198)" fill-opacity="0.7999989275091797" stroke="none" transform_matrix="{&quot;a&quot;:1,&quot;b&quot;:0,&quot;c&quot;:0,&quot;d&quot;:1,&quot;e&quot;:0,&quot;f&quot;:0}" my_stoke="none" my_stoke_width="1px" my_stoke_opacity="1" my_fill="rgb(84, 112, 198)" my_fill_opacity="0.799999" my_font_size="16px" opacity="1"/><path d="M 890.1079 571.6247 C 890.5948 573.959 888.3172 592.5382 887.1066 594.387 C 885.4066 600.7283 879.452 605.3604 872.6253 605.3579 C 870.291 605.8448 851.7118 603.5672 849.863 602.3566 C 843.5217 600.6566 838.8896 594.702 838.8921 587.8753 C 838.4052 585.541 840.6828 566.9618 841.8934 565.113 C 843.5934 558.7717 849.548 554.1396 856.3747 554.1421 C 858.709 553.6552 877.2882 555.9328 879.137 557.1434 C 885.4783 558.8434 890.1104 564.798 890.1079 571.6247" fill="rgb(84, 112, 198)" fill-opacity="0.7999989275091797" stroke="none" transform_matrix="{&quot;a&quot;:1,&quot;b&quot;:0,&quot;c&quot;:0,&quot;d&quot;:1,&quot;e&quot;:0,&quot;f&quot;:0}" my_stoke="none" my_stoke_width="1px" my_stoke_opacity="1" my_fill="rgb(84, 112, 198)" my_fill_opacity="0.799999" my_font_size="16px" opacity="1"/><path d="M 71.1079 494.3247 C 71.5948 496.659 69.3172 515.2382 68.1066 517.087 C 66.4066 523.4283 60.452 528.0604 53.6253 528.0579 C 51.291 528.5448 32.7118 526.2672 30.863 525.0566 C 24.5217 523.3566 19.8896 517.402 19.8921 510.5753 C 19.4052 508.241 21.6828 489.6618 22.8934 487.813 C 24.5934 481.4717 30.548 476.8396 37.3747 476.8421 C 39.709 476.3552 58.2882 478.6328 60.137 479.8434 C 66.4783 481.5434 71.1104 487.498 71.1079 494.3247" fill="rgb(84, 112, 198)" fill-opacity="0.7999989275091797" stroke="none" transform_matrix="{&quot;a&quot;:1,&quot;b&quot;:0,&quot;c&quot;:0,&quot;d&quot;:1,&quot;e&quot;:0,&quot;f&quot;:0}" my_stoke="none" my_stoke_width="1px" my_stoke_opacity="1" my_fill="rgb(84, 112, 198)" my_fill_opacity="0.799999" my_font_size="16px" opacity="1"/><path d="M 162.1079 510.5753 C 162.1104 517.402 157.4783 523.3566 151.137 525.0566 C 149.2882 526.2672 130.709 528.5448 128.3747 528.0579 C 121.548 528.0604 115.5934 523.4283 113.8934 517.087 C 112.6828 515.2382 110.4052 496.659 110.8921 494.3247 C 110.8896 487.498 115.5217 481.5434 121.863 479.8434 C 123.7118 478.6328 142.291 476.3552 144.6253 476.8421 C 151.452 476.8396 157.4066 481.4717 159.1066 487.813 C 160.3172 489.6618 162.5948 508.241 162.1079 510.5753" fill="rgb(84, 112, 198)" fill-opacity="0.7999989275091797" stroke="none" transform_matrix="{&quot;a&quot;:1,&quot;b&quot;:0,&quot;c&quot;:0,&quot;d&quot;:1,&quot;e&quot;:0,&quot;f&quot;:0}" my_stoke="none" my_stoke_width="1px" my_stoke_opacity="1" my_fill="rgb(84, 112, 198)" my_fill_opacity="0.799999" my_font_size="16px" opacity="1"/><path d="M 253.1079 494.3247 C 253.5948 496.659 251.3172 515.2382 250.1066 517.087 C 248.4066 523.4283 242.452 528.0604 235.6253 528.0579 C 233.291 528.5448 214.7118 526.2672 212.863 525.0566 C 206.5217 523.3566 201.8896 517.402 201.8921 510.5753 C 201.4052 508.241 203.6828 489.6618 204.8934 487.813 C 206.5934 481.4717 212.548 476.8396 219.3747 476.8421 C 221.709 476.3552 240.2882 478.6328 242.137 479.8434 C 248.4783 481.5434 253.1104 487.498 253.1079 494.3247" fill="rgb(84, 112, 198)" fill-opacity="0.7999989275091797" stroke="none" transform_matrix="{&quot;a&quot;:1,&quot;b&quot;:0,&quot;c&quot;:0,&quot;d&quot;:1,&quot;e&quot;:0,&quot;f&quot;:0}" my_stoke="none" my_stoke_width="1px" my_stoke_opacity="1" my_fill="rgb(84, 112, 198)" my_fill_opacity="0.799999" my_font_size="16px" opacity="1"/><path d="M 344.1079 494.3247 C 344.5948 496.659 342.3172 515.2382 341.1066 517.087 C 339.4066 523.4283 333.452 528.0604 326.6253 528.0579 C 324.291 528.5448 305.7118 526.2672 303.863 525.0566 C 297.5217 523.3566 292.8896 517.402 292.8921 510.5753 C 292.4052 508.241 294.6828 489.6618 295.8934 487.813 C 297.5934 481.4717 303.548 476.8396 310.3747 476.8421 C 312.709 476.3552 331.2882 478.6328 333.137 479.8434 C 339.4783 481.5434 344.1104 487.498 344.1079 494.3247" fill="rgb(84, 112, 198)" fill-opacity="0.7999989275091797" stroke="none" transform_matrix="{&quot;a&quot;:1,&quot;b&quot;:0,&quot;c&quot;:0,&quot;d&quot;:1,&quot;e&quot;:0,&quot;f&quot;:0}" my_stoke="none" my_stoke_width="1px" my_stoke_opacity="1" my_fill="rgb(84, 112, 198)" my_fill_opacity="0.799999" my_font_size="16px" opacity="1"/><path d="M 435.1079 510.5753 C 435.1104 517.402 430.4783 523.3566 424.137 525.0566 C 422.2882 526.2672 403.709 528.5448 401.3747 528.0579 C 394.548 528.0604 388.5934 523.4283 386.8934 517.087 C 385.6828 515.2382 383.4052 496.659 383.8921 494.3247 C 383.8896 487.498 388.5217 481.5434 394.863 479.8434 C 396.7118 478.6328 415.291 476.3552 417.6253 476.8421 C 424.452 476.8396 430.4066 481.4717 432.1066 487.813 C 433.3172 489.6618 435.5948 508.241 435.1079 510.5753" fill="rgb(84, 112, 198)" fill-opacity="0.7999989275091797" stroke="none" transform_matrix="{&quot;a&quot;:1,&quot;b&quot;:0,&quot;c&quot;:0,&quot;d&quot;:1,&quot;e&quot;:0,&quot;f&quot;:0}" my_stoke="none" my_stoke_width="1px" my_stoke_opacity="1" my_fill="rgb(84, 112, 198)" my_fill_opacity="0.799999" my_font_size="16px" opacity="1"/><path d="M 526.1079 494.3247 C 526.5948 496.659 524.3172 515.2382 523.1066 517.087 C 521.4066 523.4283 515.452 528.0604 508.6253 528.0579 C 506.291 528.5448 487.7118 526.2672 485.863 525.0566 C 479.5217 523.3566 474.8896 517.402 474.8921 510.5753 C 474.4052 508.241 476.6828 489.6618 477.8934 487.813 C 479.5934 481.4717 485.548 476.8396 492.3747 476.8421 C 494.709 476.3552 513.2882 478.6328 515.137 479.8434 C 521.4783 481.5434 526.1104 487.498 526.1079 494.3247" fill="rgb(84, 112, 198)" fill-opacity="0.7999989275091797" stroke="none" transform_matrix="{&quot;a&quot;:1,&quot;b&quot;:0,&quot;c&quot;:0,&quot;d&quot;:1,&quot;e&quot;:0,&quot;f&quot;:0}" my_stoke="none" my_stoke_width="1px" my_stoke_opacity="1" my_fill="rgb(84, 112, 198)" my_fill_opacity="0.799999" my_font_size="16px" opacity="1"/><path d="M 617.1079 494.3247 C 617.5948 496.659 615.3172 515.2382 614.1066 517.087 C 612.4066 523.4283 606.452 528.0604 599.6253 528.0579 C 597.291 528.5448 578.7118 526.2672 576.863 525.0566 C 570.5217 523.3566 565.8896 517.402 565.8921 510.5753 C 565.4052 508.241 567.6828 489.6618 568.8934 487.813 C 570.5934 481.4717 576.548 476.8396 583.3747 476.8421 C 585.709 476.3552 604.2882 478.6328 606.137 479.8434 C 612.4783 481.5434 617.1104 487.498 617.1079 494.3247" fill="rgb(84, 112, 198)" fill-opacity="0.7999989275091797" stroke="none" transform_matrix="{&quot;a&quot;:1,&quot;b&quot;:0,&quot;c&quot;:0,&quot;d&quot;:1,&quot;e&quot;:0,&quot;f&quot;:0}" my_stoke="none" my_stoke_width="1px" my_stoke_opacity="1" my_fill="rgb(84, 112, 198)" my_fill_opacity="0.799999" my_font_size="16px" opacity="1"/><path d="M 708.1079 510.5753 C 708.1104 517.402 703.4783 523.3566 697.137 525.0566 C 695.2882 526.2672 676.709 528.5448 674.3747 528.0579 C 667.548 528.0604 661.5934 523.4283 659.8934 517.087 C 658.6828 515.2382 656.4052 496.659 656.8921 494.3247 C 656.8896 487.498 661.5217 481.5434 667.863 479.8434 C 669.7118 478.6328 688.291 476.3552 690.6253 476.8421 C 697.452 476.8396 703.4066 481.4717 705.1066 487.813 C 706.3172 489.6618 708.5948 508.241 708.1079 510.5753" fill="rgb(84, 112, 198)" fill-opacity="0.7999989275091797" stroke="none" transform_matrix="{&quot;a&quot;:1,&quot;b&quot;:0,&quot;c&quot;:0,&quot;d&quot;:1,&quot;e&quot;:0,&quot;f&quot;:0}" my_stoke="none" my_stoke_width="1px" my_stoke_opacity="1" my_fill="rgb(84, 112, 198)" my_fill_opacity="0.799999" my_font_size="16px" opacity="1"/><path d="M 799.1079 494.3247 C 799.5948 496.659 797.3172 515.2382 796.1066 517.087 C 794.4066 523.4283 788.452 528.0604 781.6253 528.0579 C 779.291 528.5448 760.7118 526.2672 758.863 525.0566 C 752.5217 523.3566 747.8896 517.402 747.8921 510.5753 C 747.4052 508.241 749.6828 489.6618 750.8934 487.813 C 752.5934 481.4717 758.548 476.8396 765.3747 476.8421 C 767.709 476.3552 786.2882 478.6328 788.137 479.8434 C 794.4783 481.5434 799.1104 487.498 799.1079 494.3247" fill="rgb(84, 112, 198)" fill-opacity="0.7999989275091797" stroke="none" transform_matrix="{&quot;a&quot;:1,&quot;b&quot;:0,&quot;c&quot;:0,&quot;d&quot;:1,&quot;e&quot;:0,&quot;f&quot;:0}" my_stoke="none" my_stoke_width="1px" my_stoke_opacity="1" my_fill="rgb(84, 112, 198)" my_fill_opacity="0.799999" my_font_size="16px" opacity="1"/><path d="M 890.1079 494.3247 C 890.5948 496.659 888.3172 515.2382 887.1066 517.087 C 885.4066 523.4283 879.452 528.0604 872.6253 528.0579 C 870.291 528.5448 851.7118 526.2672 849.863 525.0566 C 843.5217 523.3566 838.8896 517.402 838.8921 510.5753 C 838.4052 508.241 840.6828 489.6618 841.8934 487.813 C 843.5934 481.4717 849.548 476.8396 856.3747 476.8421 C 858.709 476.3552 877.2882 478.6328 879.137 479.8434 C 885.4783 481.5434 890.1104 487.498 890.1079 494.3247" fill="rgb(84, 112, 198)" fill-opacity="0.7999989275091797" stroke="none" transform_matrix="{&quot;a&quot;:1,&quot;b&quot;:0,&quot;c&quot;:0,&quot;d&quot;:1,&quot;e&quot;:0,&quot;f&quot;:0}" my_stoke="none" my_stoke_width="1px" my_stoke_opacity="1" my_fill="rgb(84, 112, 198)" my_fill_opacity="0.799999" my_font_size="16px" opacity="1"/><path d="M 71.1079 417.0247 C 71.5948 419.359 69.3172 437.9382 68.1066 439.787 C 66.4066 446.1283 60.452 450.7604 53.6253 450.7579 C 51.291 451.2448 32.7118 448.9672 30.863 447.7566 C 24.5217 446.0566 19.8896 440.102 19.8921 433.2753 C 19.4052 430.941 21.6828 412.3618 22.8934 410.513 C 24.5934 404.1717 30.548 399.5396 37.3747 399.5421 C 39.709 399.0552 58.2882 401.3328 60.137 402.5434 C 66.4783 404.2434 71.1104 410.198 71.1079 417.0247" fill="rgb(84, 112, 198)" fill-opacity="0.7999989275091797" stroke="none" transform_matrix="{&quot;a&quot;:1,&quot;b&quot;:0,&quot;c&quot;:0,&quot;d&quot;:1,&quot;e&quot;:0,&quot;f&quot;:0}" my_stoke="none" my_stoke_width="1px" my_stoke_opacity="1" my_fill="rgb(84, 112, 198)" my_fill_opacity="0.799999" my_font_size="16px" opacity="1"/><path d="M 162.1079 417.0247 C 162.5948 419.359 160.3172 437.9382 159.1066 439.787 C 157.4066 446.1283 151.452 450.7604 144.6253 450.7579 C 142.291 451.2448 123.7118 448.9672 121.863 447.7566 C 115.5217 446.0566 110.8896 440.102 110.8921 433.2753 C 110.4052 430.941 112.6828 412.3618 113.8934 410.513 C 115.5934 404.1717 121.548 399.5396 128.3747 399.5421 C 130.709 399.0552 149.2882 401.3328 151.137 402.5434 C 157.4783 404.2434 162.1104 410.198 162.1079 417.0247" fill="rgb(84, 112, 198)" fill-opacity="0.7999989275091797" stroke="none" transform_matrix="{&quot;a&quot;:1,&quot;b&quot;:0,&quot;c&quot;:0,&quot;d&quot;:1,&quot;e&quot;:0,&quot;f&quot;:0}" my_stoke="none" my_stoke_width="1px" my_stoke_opacity="1" my_fill="rgb(84, 112, 198)" my_fill_opacity="0.799999" my_font_size="16px" opacity="1"/><path d="M 253.1079 417.0247 C 253.5948 419.359 251.3172 437.9382 250.1066 439.787 C 248.4066 446.1283 242.452 450.7604 235.6253 450.7579 C 233.291 451.2448 214.7118 448.9672 212.863 447.7566 C 206.5217 446.0566 201.8896 440.102 201.8921 433.2753 C 201.4052 430.941 203.6828 412.3618 204.8934 410.513 C 206.5934 404.1717 212.548 399.5396 219.3747 399.5421 C 221.709 399.0552 240.2882 401.3328 242.137 402.5434 C 248.4783 404.2434 253.1104 410.198 253.1079 417.0247" fill="rgb(84, 112, 198)" fill-opacity="0.7999989275091797" stroke="none" transform_matrix="{&quot;a&quot;:1,&quot;b&quot;:0,&quot;c&quot;:0,&quot;d&quot;:1,&quot;e&quot;:0,&quot;f&quot;:0}" my_stoke="none" my_stoke_width="1px" my_stoke_opacity="1" my_fill="rgb(84, 112, 198)" my_fill_opacity="0.799999" my_font_size="16px" opacity="1"/><path d="M 344.1079 433.2753 C 344.1104 440.102 339.4783 446.0566 333.137 447.7566 C 331.2882 448.9672 312.709 451.2448 310.3747 450.7579 C 303.548 450.7604 297.5934 446.1283 295.8934 439.787 C 294.6828 437.9382 292.4052 419.359 292.8921 417.0247 C 292.8896 410.198 297.5217 404.2434 303.863 402.5434 C 305.7118 401.3328 324.291 399.0552 326.6253 399.5421 C 333.452 399.5396 339.4066 404.1717 341.1066 410.513 C 342.3172 412.3618 344.5948 430.941 344.1079 433.2753" fill="rgb(84, 112, 198)" fill-opacity="0.7999989275091797" stroke="none" transform_matrix="{&quot;a&quot;:1,&quot;b&quot;:0,&quot;c&quot;:0,&quot;d&quot;:1,&quot;e&quot;:0,&quot;f&quot;:0}" my_stoke="none" my_stoke_width="1px" my_stoke_opacity="1" my_fill="rgb(84, 112, 198)" my_fill_opacity="0.799999" my_font_size="16px" opacity="1"/><path d="M 435.1079 417.0247 C 435.5948 419.359 433.3172 437.9382 432.1066 439.787 C 430.4066 446.1283 424.452 450.7604 417.6253 450.7579 C 415.291 451.2448 396.7118 448.9672 394.863 447.7566 C 388.5217 446.0566 383.8896 440.102 383.8921 433.2753 C 383.4052 430.941 385.6828 412.3618 386.8934 410.513 C 388.5934 404.1717 394.548 399.5396 401.3747 399.5421 C 403.709 399.0552 422.2882 401.3328 424.137 402.5434 C 430.4783 404.2434 435.1104 410.198 435.1079 417.0247" fill="rgb(84, 112, 198)" fill-opacity="0.7999989275091797" stroke="none" transform_matrix="{&quot;a&quot;:1,&quot;b&quot;:0,&quot;c&quot;:0,&quot;d&quot;:1,&quot;e&quot;:0,&quot;f&quot;:0}" my_stoke="none" my_stoke_width="1px" my_stoke_opacity="1" my_fill="rgb(84, 112, 198)" my_fill_opacity="0.799999" my_font_size="16px" opacity="1"/><path d="M 526.1079 417.0247 C 526.5948 419.359 524.3172 437.9382 523.1066 439.787 C 521.4066 446.1283 515.452 450.7604 508.6253 450.7579 C 506.291 451.2448 487.7118 448.9672 485.863 447.7566 C 479.5217 446.0566 474.8896 440.102 474.8921 433.2753 C 474.4052 430.941 476.6828 412.3618 477.8934 410.513 C 479.5934 404.1717 485.548 399.5396 492.3747 399.5421 C 494.709 399.0552 513.2882 401.3328 515.137 402.5434 C 521.4783 404.2434 526.1104 410.198 526.1079 417.0247" fill="rgb(84, 112, 198)" fill-opacity="0.7999989275091797" stroke="none" transform_matrix="{&quot;a&quot;:1,&quot;b&quot;:0,&quot;c&quot;:0,&quot;d&quot;:1,&quot;e&quot;:0,&quot;f&quot;:0}" my_stoke="none" my_stoke_width="1px" my_stoke_opacity="1" my_fill="rgb(84, 112, 198)" my_fill_opacity="0.799999" my_font_size="16px" opacity="1"/><path d="M 617.1079 433.2753 C 617.1104 440.102 612.4783 446.0566 606.137 447.7566 C 604.2882 448.9672 585.709 451.2448 583.3747 450.7579 C 576.548 450.7604 570.5934 446.1283 568.8934 439.787 C 567.6828 437.9382 565.4052 419.359 565.8921 417.0247 C 565.8896 410.198 570.5217 404.2434 576.863 402.5434 C 578.7118 401.3328 597.291 399.0552 599.6253 399.5421 C 606.452 399.5396 612.4066 404.1717 614.1066 410.513 C 615.3172 412.3618 617.5948 430.941 617.1079 433.2753" fill="rgb(84, 112, 198)" fill-opacity="0.7999989275091797" stroke="none" transform_matrix="{&quot;a&quot;:1,&quot;b&quot;:0,&quot;c&quot;:0,&quot;d&quot;:1,&quot;e&quot;:0,&quot;f&quot;:0}" my_stoke="none" my_stoke_width="1px" my_stoke_opacity="1" my_fill="rgb(84, 112, 198)" my_fill_opacity="0.799999" my_font_size="16px" opacity="1"/><path d="M 708.1079 433.2753 C 708.1104 440.102 703.4783 446.0566 697.137 447.7566 C 695.2882 448.9672 676.709 451.2448 674.3747 450.7579 C 667.548 450.7604 661.5934 446.1283 659.8934 439.787 C 658.6828 437.9382 656.4052 419.359 656.8921 417.0247 C 656.8896 410.198 661.5217 404.2434 667.863 402.5434 C 669.7118 401.3328 688.291 399.0552 690.6253 399.5421 C 697.452 399.5396 703.4066 404.1717 705.1066 410.513 C 706.3172 412.3618 708.5948 430.941 708.1079 433.2753" fill="rgb(84, 112, 198)" fill-opacity="0.7999989275091797" stroke="none" transform_matrix="{&quot;a&quot;:1,&quot;b&quot;:0,&quot;c&quot;:0,&quot;d&quot;:1,&quot;e&quot;:0,&quot;f&quot;:0}" my_stoke="none" my_stoke_width="1px" my_stoke_opacity="1" my_fill="rgb(84, 112, 198)" my_fill_opacity="0.799999" my_font_size="16px" opacity="1"/><path d="M 799.1079 417.0247 C 799.5948 419.359 797.3172 437.9382 796.1066 439.787 C 794.4066 446.1283 788.452 450.7604 781.6253 450.7579 C 779.291 451.2448 760.7118 448.9672 758.863 447.7566 C 752.5217 446.0566 747.8896 440.102 747.8921 433.2753 C 747.4052 430.941 749.6828 412.3618 750.8934 410.513 C 752.5934 404.1717 758.548 399.5396 765.3747 399.5421 C 767.709 399.0552 786.2882 401.3328 788.137 402.5434 C 794.4783 404.2434 799.1104 410.198 799.1079 417.0247" fill="rgb(84, 112, 198)" fill-opacity="0.7999989275091797" stroke="none" transform_matrix="{&quot;a&quot;:1,&quot;b&quot;:0,&quot;c&quot;:0,&quot;d&quot;:1,&quot;e&quot;:0,&quot;f&quot;:0}" my_stoke="none" my_stoke_width="1px" my_stoke_opacity="1" my_fill="rgb(84, 112, 198)" my_fill_opacity="0.799999" my_font_size="16px" opacity="1"/><path d="M 890.1079 433.2753 C 890.1104 440.102 885.4783 446.0566 879.137 447.7566 C 877.2882 448.9672 858.709 451.2448 856.3747 450.7579 C 849.548 450.7604 843.5934 446.1283 841.8934 439.787 C 840.6828 437.9382 838.4052 419.359 838.8921 417.0247 C 838.8896 410.198 843.5217 404.2434 849.863 402.5434 C 851.7118 401.3328 870.291 399.0552 872.6253 399.5421 C 879.452 399.5396 885.4066 404.1717 887.1066 410.513 C 888.3172 412.3618 890.5948 430.941 890.1079 433.2753" fill="rgb(84, 112, 198)" fill-opacity="0.7999989275091797" stroke="none" transform_matrix="{&quot;a&quot;:1,&quot;b&quot;:0,&quot;c&quot;:0,&quot;d&quot;:1,&quot;e&quot;:0,&quot;f&quot;:0}" my_stoke="none" my_stoke_width="1px" my_stoke_opacity="1" my_fill="rgb(84, 112, 198)" my_fill_opacity="0.799999" my_font_size="16px" opacity="1"/><path d="M 71.1079 339.7247 C 71.5948 342.059 69.3172 360.6382 68.1066 362.487 C 66.4066 368.8283 60.452 373.4604 53.6253 373.4579 C 51.291 373.9448 32.7118 371.6672 30.863 370.4566 C 24.5217 368.7566 19.8896 362.802 19.8921 355.9753 C 19.4052 353.641 21.6828 335.0618 22.8934 333.213 C 24.5934 326.8717 30.548 322.2396 37.3747 322.2421 C 39.709 321.7552 58.2882 324.0328 60.137 325.2434 C 66.4783 326.9434 71.1104 332.898 71.1079 339.7247" fill="rgb(84, 112, 198)" fill-opacity="0.7999989275091797" stroke="none" transform_matrix="{&quot;a&quot;:1,&quot;b&quot;:0,&quot;c&quot;:0,&quot;d&quot;:1,&quot;e&quot;:0,&quot;f&quot;:0}" my_stoke="none" my_stoke_width="1px" my_stoke_opacity="1" my_fill="rgb(84, 112, 198)" my_fill_opacity="0.799999" my_font_size="16px" opacity="1"/><path d="M 162.1079 339.7247 C 162.5948 342.059 160.3172 360.6382 159.1066 362.487 C 157.4066 368.8283 151.452 373.4604 144.6253 373.4579 C 142.291 373.9448 123.7118 371.6672 121.863 370.4566 C 115.5217 368.7566 110.8896 362.802 110.8921 355.9753 C 110.4052 353.641 112.6828 335.0618 113.8934 333.213 C 115.5934 326.8717 121.548 322.2396 128.3747 322.2421 C 130.709 321.7552 149.2882 324.0328 151.137 325.2434 C 157.4783 326.9434 162.1104 332.898 162.1079 339.7247" fill="rgb(84, 112, 198)" fill-opacity="0.7999989275091797" stroke="none" transform_matrix="{&quot;a&quot;:1,&quot;b&quot;:0,&quot;c&quot;:0,&quot;d&quot;:1,&quot;e&quot;:0,&quot;f&quot;:0}" my_stoke="none" my_stoke_width="1px" my_stoke_opacity="1" my_fill="rgb(84, 112, 198)" my_fill_opacity="0.799999" my_font_size="16px" opacity="1"/><path d="M 253.1079 339.7247 C 253.5948 342.059 251.3172 360.6382 250.1066 362.487 C 248.4066 368.8283 242.452 373.4604 235.6253 373.4579 C 233.291 373.9448 214.7118 371.6672 212.863 370.4566 C 206.5217 368.7566 201.8896 362.802 201.8921 355.9753 C 201.4052 353.641 203.6828 335.0618 204.8934 333.213 C 206.5934 326.8717 212.548 322.2396 219.3747 322.2421 C 221.709 321.7552 240.2882 324.0328 242.137 325.2434 C 248.4783 326.9434 253.1104 332.898 253.1079 339.7247" fill="rgb(84, 112, 198)" fill-opacity="0.7999989275091797" stroke="none" transform_matrix="{&quot;a&quot;:1,&quot;b&quot;:0,&quot;c&quot;:0,&quot;d&quot;:1,&quot;e&quot;:0,&quot;f&quot;:0}" my_stoke="none" my_stoke_width="1px" my_stoke_opacity="1" my_fill="rgb(84, 112, 198)" my_fill_opacity="0.799999" my_font_size="16px" opacity="1"/><path d="M 344.1079 355.9753 C 344.1104 362.802 339.4783 368.7566 333.137 370.4566 C 331.2882 371.6672 312.709 373.9448 310.3747 373.4579 C 303.548 373.4604 297.5934 368.8283 295.8934 362.487 C 294.6828 360.6382 292.4052 342.059 292.8921 339.7247 C 292.8896 332.898 297.5217 326.9434 303.863 325.2434 C 305.7118 324.0328 324.291 321.7552 326.6253 322.2421 C 333.452 322.2396 339.4066 326.8717 341.1066 333.213 C 342.3172 335.0618 344.5948 353.641 344.1079 355.9753" fill="rgb(84, 112, 198)" fill-opacity="0.7999989275091797" stroke="none" transform_matrix="{&quot;a&quot;:1,&quot;b&quot;:0,&quot;c&quot;:0,&quot;d&quot;:1,&quot;e&quot;:0,&quot;f&quot;:0}" my_stoke="none" my_stoke_width="1px" my_stoke_opacity="1" my_fill="rgb(84, 112, 198)" my_fill_opacity="0.799999" my_font_size="16px" opacity="1"/><path d="M 435.1079 339.7247 C 435.5948 342.059 433.3172 360.6382 432.1066 362.487 C 430.4066 368.8283 424.452 373.4604 417.6253 373.4579 C 415.291 373.9448 396.7118 371.6672 394.863 370.4566 C 388.5217 368.7566 383.8896 362.802 383.8921 355.9753 C 383.4052 353.641 385.6828 335.0618 386.8934 333.213 C 388.5934 326.8717 394.548 322.2396 401.3747 322.2421 C 403.709 321.7552 422.2882 324.0328 424.137 325.2434 C 430.4783 326.9434 435.1104 332.898 435.1079 339.7247" fill="rgb(84, 112, 198)" fill-opacity="0.7999989275091797" stroke="none" transform_matrix="{&quot;a&quot;:1,&quot;b&quot;:0,&quot;c&quot;:0,&quot;d&quot;:1,&quot;e&quot;:0,&quot;f&quot;:0}" my_stoke="none" my_stoke_width="1px" my_stoke_opacity="1" my_fill="rgb(84, 112, 198)" my_fill_opacity="0.799999" my_font_size="16px" opacity="1"/><path d="M 526.1079 355.9753 C 526.1104 362.802 521.4783 368.7566 515.137 370.4566 C 513.2882 371.6672 494.709 373.9448 492.3747 373.4579 C 485.548 373.4604 479.5934 368.8283 477.8934 362.487 C 476.6828 360.6382 474.4052 342.059 474.8921 339.7247 C 474.8896 332.898 479.5217 326.9434 485.863 325.2434 C 487.7118 324.0328 506.291 321.7552 508.6253 322.2421 C 515.452 322.2396 521.4066 326.8717 523.1066 333.213 C 524.3172 335.0618 526.5948 353.641 526.1079 355.9753" fill="rgb(84, 112, 198)" fill-opacity="0.7999989275091797" stroke="none" transform_matrix="{&quot;a&quot;:1,&quot;b&quot;:0,&quot;c&quot;:0,&quot;d&quot;:1,&quot;e&quot;:0,&quot;f&quot;:0}" my_stoke="none" my_stoke_width="1px" my_stoke_opacity="1" my_fill="rgb(84, 112, 198)" my_fill_opacity="0.799999" my_font_size="16px" opacity="1"/><path d="M 617.1079 355.9753 C 617.1104 362.802 612.4783 368.7566 606.137 370.4566 C 604.2882 371.6672 585.709 373.9448 583.3747 373.4579 C 576.548 373.4604 570.5934 368.8283 568.8934 362.487 C 567.6828 360.6382 565.4052 342.059 565.8921 339.7247 C 565.8896 332.898 570.5217 326.9434 576.863 325.2434 C 578.7118 324.0328 597.291 321.7552 599.6253 322.2421 C 606.452 322.2396 612.4066 326.8717 614.1066 333.213 C 615.3172 335.0618 617.5948 353.641 617.1079 355.9753" fill="rgb(84, 112, 198)" fill-opacity="0.7999989275091797" stroke="none" transform_matrix="{&quot;a&quot;:1,&quot;b&quot;:0,&quot;c&quot;:0,&quot;d&quot;:1,&quot;e&quot;:0,&quot;f&quot;:0}" my_stoke="none" my_stoke_width="1px" my_stoke_opacity="1" my_fill="rgb(84, 112, 198)" my_fill_opacity="0.799999" my_font_size="16px" opacity="1"/><path d="M 708.1079 339.7247 C 708.5948 342.059 706.3172 360.6382 705.1066 362.487 C 703.4066 368.8283 697.452 373.4604 690.6253 373.4579 C 688.291 373.9448 669.7118 371.6672 667.863 370.4566 C 661.5217 368.7566 656.8896 362.802 656.8921 355.9753 C 656.4052 353.641 658.6828 335.0618 659.8934 333.213 C 661.5934 326.8717 667.548 322.2396 674.3747 322.2421 C 676.709 321.7552 695.2882 324.0328 697.137 325.2434 C 703.4783 326.9434 708.1104 332.898 708.1079 339.7247" fill="rgb(84, 112, 198)" fill-opacity="0.7999989275091797" stroke="none" transform_matrix="{&quot;a&quot;:1,&quot;b&quot;:0,&quot;c&quot;:0,&quot;d&quot;:1,&quot;e&quot;:0,&quot;f&quot;:0}" my_stoke="none" my_stoke_width="1px" my_stoke_opacity="1" my_fill="rgb(84, 112, 198)" my_fill_opacity="0.799999" my_font_size="16px" opacity="1"/><path d="M 799.1079 355.9753 C 799.1104 362.802 794.4783 368.7566 788.137 370.4566 C 786.2882 371.6672 767.709 373.9448 765.3747 373.4579 C 758.548 373.4604 752.5934 368.8283 750.8934 362.487 C 749.6828 360.6382 747.4052 342.059 747.8921 339.7247 C 747.8896 332.898 752.5217 326.9434 758.863 325.2434 C 760.7118 324.0328 779.291 321.7552 781.6253 322.2421 C 788.452 322.2396 794.4066 326.8717 796.1066 333.213 C 797.3172 335.0618 799.5948 353.641 799.1079 355.9753" fill="rgb(84, 112, 198)" fill-opacity="0.7999989275091797" stroke="none" transform_matrix="{&quot;a&quot;:1,&quot;b&quot;:0,&quot;c&quot;:0,&quot;d&quot;:1,&quot;e&quot;:0,&quot;f&quot;:0}" my_stoke="none" my_stoke_width="1px" my_stoke_opacity="1" my_fill="rgb(84, 112, 198)" my_fill_opacity="0.799999" my_font_size="16px" opacity="1"/><path d="M 890.1079 339.7247 C 890.5948 342.059 888.3172 360.6382 887.1066 362.487 C 885.4066 368.8283 879.452 373.4604 872.6253 373.4579 C 870.291 373.9448 851.7118 371.6672 849.863 370.4566 C 843.5217 368.7566 838.8896 362.802 838.8921 355.9753 C 838.4052 353.641 840.6828 335.0618 841.8934 333.213 C 843.5934 326.8717 849.548 322.2396 856.3747 322.2421 C 858.709 321.7552 877.2882 324.0328 879.137 325.2434 C 885.4783 326.9434 890.1104 332.898 890.1079 339.7247" fill="rgb(84, 112, 198)" fill-opacity="0.7999989275091797" stroke="none" transform_matrix="{&quot;a&quot;:1,&quot;b&quot;:0,&quot;c&quot;:0,&quot;d&quot;:1,&quot;e&quot;:0,&quot;f&quot;:0}" my_stoke="none" my_stoke_width="1px" my_stoke_opacity="1" my_fill="rgb(84, 112, 198)" my_fill_opacity="0.799999" my_font_size="16px" opacity="1"/><path d="M 71.1079 262.4247 C 71.5948 264.759 69.3172 283.3382 68.1066 285.187 C 66.4066 291.5283 60.452 296.1604 53.6253 296.1579 C 51.291 296.6448 32.7118 294.3672 30.863 293.1566 C 24.5217 291.4566 19.8896 285.502 19.8921 278.6753 C 19.4052 276.341 21.6828 257.7618 22.8934 255.913 C 24.5934 249.5717 30.548 244.9396 37.3747 244.9421 C 39.709 244.4552 58.2882 246.7328 60.137 247.9434 C 66.4783 249.6434 71.1104 255.598 71.1079 262.4247" fill="rgb(84, 112, 198)" fill-opacity="0.7999989275091797" stroke="none" transform_matrix="{&quot;a&quot;:1,&quot;b&quot;:0,&quot;c&quot;:0,&quot;d&quot;:1,&quot;e&quot;:0,&quot;f&quot;:0}" my_stoke="none" my_stoke_width="1px" my_stoke_opacity="1" my_fill="rgb(84, 112, 198)" my_fill_opacity="0.799999" my_font_size="16px" opacity="1"/><path d="M 162.1079 278.6753 C 162.1104 285.502 157.4783 291.4566 151.137 293.1566 C 149.2882 294.3672 130.709 296.6448 128.3747 296.1579 C 121.548 296.1604 115.5934 291.5283 113.8934 285.187 C 112.6828 283.3382 110.4052 264.759 110.8921 262.4247 C 110.8896 255.598 115.5217 249.6434 121.863 247.9434 C 123.7118 246.7328 142.291 244.4552 144.6253 244.9421 C 151.452 244.9396 157.4066 249.5717 159.1066 255.913 C 160.3172 257.7618 162.5948 276.341 162.1079 278.6753" fill="rgb(84, 112, 198)" fill-opacity="0.7999989275091797" stroke="none" transform_matrix="{&quot;a&quot;:1,&quot;b&quot;:0,&quot;c&quot;:0,&quot;d&quot;:1,&quot;e&quot;:0,&quot;f&quot;:0}" my_stoke="none" my_stoke_width="1px" my_stoke_opacity="1" my_fill="rgb(84, 112, 198)" my_fill_opacity="0.799999" my_font_size="16px" opacity="1"/><path d="M 253.1079 262.4247 C 253.5948 264.759 251.3172 283.3382 250.1066 285.187 C 248.4066 291.5283 242.452 296.1604 235.6253 296.1579 C 233.291 296.6448 214.7118 294.3672 212.863 293.1566 C 206.5217 291.4566 201.8896 285.502 201.8921 278.6753 C 201.4052 276.341 203.6828 257.7618 204.8934 255.913 C 206.5934 249.5717 212.548 244.9396 219.3747 244.9421 C 221.709 244.4552 240.2882 246.7328 242.137 247.9434 C 248.4783 249.6434 253.1104 255.598 253.1079 262.4247" fill="rgb(84, 112, 198)" fill-opacity="0.7999989275091797" stroke="none" transform_matrix="{&quot;a&quot;:1,&quot;b&quot;:0,&quot;c&quot;:0,&quot;d&quot;:1,&quot;e&quot;:0,&quot;f&quot;:0}" my_stoke="none" my_stoke_width="1px" my_stoke_opacity="1" my_fill="rgb(84, 112, 198)" my_fill_opacity="0.799999" my_font_size="16px" opacity="1"/><path d="M 344.1079 262.4247 C 344.5948 264.759 342.3172 283.3382 341.1066 285.187 C 339.4066 291.5283 333.452 296.1604 326.6253 296.1579 C 324.291 296.6448 305.7118 294.3672 303.863 293.1566 C 297.5217 291.4566 292.8896 285.502 292.8921 278.6753 C 292.4052 276.341 294.6828 257.7618 295.8934 255.913 C 297.5934 249.5717 303.548 244.9396 310.3747 244.9421 C 312.709 244.4552 331.2882 246.7328 333.137 247.9434 C 339.4783 249.6434 344.1104 255.598 344.1079 262.4247" fill="rgb(84, 112, 198)" fill-opacity="0.7999989275091797" stroke="none" transform_matrix="{&quot;a&quot;:1,&quot;b&quot;:0,&quot;c&quot;:0,&quot;d&quot;:1,&quot;e&quot;:0,&quot;f&quot;:0}" my_stoke="none" my_stoke_width="1px" my_stoke_opacity="1" my_fill="rgb(84, 112, 198)" my_fill_opacity="0.799999" my_font_size="16px" opacity="1"/><path d="M 435.1079 262.4247 C 435.5948 264.759 433.3172 283.3382 432.1066 285.187 C 430.4066 291.5283 424.452 296.1604 417.6253 296.1579 C 415.291 296.6448 396.7118 294.3672 394.863 293.1566 C 388.5217 291.4566 383.8896 285.502 383.8921 278.6753 C 383.4052 276.341 385.6828 257.7618 386.8934 255.913 C 388.5934 249.5717 394.548 244.9396 401.3747 244.9421 C 403.709 244.4552 422.2882 246.7328 424.137 247.9434 C 430.4783 249.6434 435.1104 255.598 435.1079 262.4247" fill="rgb(84, 112, 198)" fill-opacity="0.7999989275091797" stroke="none" transform_matrix="{&quot;a&quot;:1,&quot;b&quot;:0,&quot;c&quot;:0,&quot;d&quot;:1,&quot;e&quot;:0,&quot;f&quot;:0}" my_stoke="none" my_stoke_width="1px" my_stoke_opacity="1" my_fill="rgb(84, 112, 198)" my_fill_opacity="0.799999" my_font_size="16px" opacity="1"/><path d="M 526.1079 278.6753 C 526.1104 285.502 521.4783 291.4566 515.137 293.1566 C 513.2882 294.3672 494.709 296.6448 492.3747 296.1579 C 485.548 296.1604 479.5934 291.5283 477.8934 285.187 C 476.6828 283.3382 474.4052 264.759 474.8921 262.4247 C 474.8896 255.598 479.5217 249.6434 485.863 247.9434 C 487.7118 246.7328 506.291 244.4552 508.6253 244.9421 C 515.452 244.9396 521.4066 249.5717 523.1066 255.913 C 524.3172 257.7618 526.5948 276.341 526.1079 278.6753" fill="rgb(84, 112, 198)" fill-opacity="0.7999989275091797" stroke="none" transform_matrix="{&quot;a&quot;:1,&quot;b&quot;:0,&quot;c&quot;:0,&quot;d&quot;:1,&quot;e&quot;:0,&quot;f&quot;:0}" my_stoke="none" my_stoke_width="1px" my_stoke_opacity="1" my_fill="rgb(84, 112, 198)" my_fill_opacity="0.799999" my_font_size="16px" opacity="1"/><path d="M 617.1079 262.4247 C 617.5948 264.759 615.3172 283.3382 614.1066 285.187 C 612.4066 291.5283 606.452 296.1604 599.6253 296.1579 C 597.291 296.6448 578.7118 294.3672 576.863 293.1566 C 570.5217 291.4566 565.8896 285.502 565.8921 278.6753 C 565.4052 276.341 567.6828 257.7618 568.8934 255.913 C 570.5934 249.5717 576.548 244.9396 583.3747 244.9421 C 585.709 244.4552 604.2882 246.7328 606.137 247.9434 C 612.4783 249.6434 617.1104 255.598 617.1079 262.4247" fill="rgb(84, 112, 198)" fill-opacity="0.7999989275091797" stroke="none" transform_matrix="{&quot;a&quot;:1,&quot;b&quot;:0,&quot;c&quot;:0,&quot;d&quot;:1,&quot;e&quot;:0,&quot;f&quot;:0}" my_stoke="none" my_stoke_width="1px" my_stoke_opacity="1" my_fill="rgb(84, 112, 198)" my_fill_opacity="0.799999" my_font_size="16px" opacity="1"/><path d="M 708.1079 278.6753 C 708.1104 285.502 703.4783 291.4566 697.137 293.1566 C 695.2882 294.3672 676.709 296.6448 674.3747 296.1579 C 667.548 296.1604 661.5934 291.5283 659.8934 285.187 C 658.6828 283.3382 656.4052 264.759 656.8921 262.4247 C 656.8896 255.598 661.5217 249.6434 667.863 247.9434 C 669.7118 246.7328 688.291 244.4552 690.6253 244.9421 C 697.452 244.9396 703.4066 249.5717 705.1066 255.913 C 706.3172 257.7618 708.5948 276.341 708.1079 278.6753" fill="rgb(84, 112, 198)" fill-opacity="0.7999989275091797" stroke="none" transform_matrix="{&quot;a&quot;:1,&quot;b&quot;:0,&quot;c&quot;:0,&quot;d&quot;:1,&quot;e&quot;:0,&quot;f&quot;:0}" my_stoke="none" my_stoke_width="1px" my_stoke_opacity="1" my_fill="rgb(84, 112, 198)" my_fill_opacity="0.799999" my_font_size="16px" opacity="1"/><path d="M 799.1079 262.4247 C 799.5948 264.759 797.3172 283.3382 796.1066 285.187 C 794.4066 291.5283 788.452 296.1604 781.6253 296.1579 C 779.291 296.6448 760.7118 294.3672 758.863 293.1566 C 752.5217 291.4566 747.8896 285.502 747.8921 278.6753 C 747.4052 276.341 749.6828 257.7618 750.8934 255.913 C 752.5934 249.5717 758.548 244.9396 765.3747 244.9421 C 767.709 244.4552 786.2882 246.7328 788.137 247.9434 C 794.4783 249.6434 799.1104 255.598 799.1079 262.4247" fill="rgb(84, 112, 198)" fill-opacity="0.7999989275091797" stroke="none" transform_matrix="{&quot;a&quot;:1,&quot;b&quot;:0,&quot;c&quot;:0,&quot;d&quot;:1,&quot;e&quot;:0,&quot;f&quot;:0}" my_stoke="none" my_stoke_width="1px" my_stoke_opacity="1" my_fill="rgb(84, 112, 198)" my_fill_opacity="0.799999" my_font_size="16px" opacity="1"/><path d="M 890.1079 278.6753 C 890.1104 285.502 885.4783 291.4566 879.137 293.1566 C 877.2882 294.3672 858.709 296.6448 856.3747 296.1579 C 849.548 296.1604 843.5934 291.5283 841.8934 285.187 C 840.6828 283.3382 838.4052 264.759 838.8921 262.4247 C 838.8896 255.598 843.5217 249.6434 849.863 247.9434 C 851.7118 246.7328 870.291 244.4552 872.6253 244.9421 C 879.452 244.9396 885.4066 249.5717 887.1066 255.913 C 888.3172 257.7618 890.5948 276.341 890.1079 278.6753" fill="rgb(84, 112, 198)" fill-opacity="0.7999989275091797" stroke="none" transform_matrix="{&quot;a&quot;:1,&quot;b&quot;:0,&quot;c&quot;:0,&quot;d&quot;:1,&quot;e&quot;:0,&quot;f&quot;:0}" my_stoke="none" my_stoke_width="1px" my_stoke_opacity="1" my_fill="rgb(84, 112, 198)" my_fill_opacity="0.799999" my_font_size="16px" opacity="1"/><path d="M 71.1079 185.1247 C 71.5948 187.459 69.3172 206.0382 68.1066 207.887 C 66.4066 214.2283 60.452 218.8604 53.6253 218.8579 C 51.291 219.3448 32.7118 217.0672 30.863 215.8566 C 24.5217 214.1566 19.8896 208.202 19.8921 201.3753 C 19.4052 199.041 21.6828 180.4618 22.8934 178.613 C 24.5934 172.2717 30.548 167.6396 37.3747 167.6421 C 39.709 167.1552 58.2882 169.4328 60.137 170.6434 C 66.4783 172.3434 71.1104 178.298 71.1079 185.1247" fill="rgb(84, 112, 198)" fill-opacity="0.7999989275091797" stroke="none" transform_matrix="{&quot;a&quot;:1,&quot;b&quot;:0,&quot;c&quot;:0,&quot;d&quot;:1,&quot;e&quot;:0,&quot;f&quot;:0}" my_stoke="none" my_stoke_width="1px" my_stoke_opacity="1" my_fill="rgb(84, 112, 198)" my_fill_opacity="0.799999" my_font_size="16px" opacity="1"/><path d="M 162.1079 201.3753 C 162.1104 208.202 157.4783 214.1566 151.137 215.8566 C 149.2882 217.0672 130.709 219.3448 128.3747 218.8579 C 121.548 218.8604 115.5934 214.2283 113.8934 207.887 C 112.6828 206.0382 110.4052 187.459 110.8921 185.1247 C 110.8896 178.298 115.5217 172.3434 121.863 170.6434 C 123.7118 169.4328 142.291 167.1552 144.6253 167.6421 C 151.452 167.6396 157.4066 172.2717 159.1066 178.613 C 160.3172 180.4618 162.5948 199.041 162.1079 201.3753" fill="rgb(84, 112, 198)" fill-opacity="0.7999989275091797" stroke="none" transform_matrix="{&quot;a&quot;:1,&quot;b&quot;:0,&quot;c&quot;:0,&quot;d&quot;:1,&quot;e&quot;:0,&quot;f&quot;:0}" my_stoke="none" my_stoke_width="1px" my_stoke_opacity="1" my_fill="rgb(84, 112, 198)" my_fill_opacity="0.799999" my_font_size="16px" opacity="1"/><path d="M 253.1079 185.1247 C 253.5948 187.459 251.3172 206.0382 250.1066 207.887 C 248.4066 214.2283 242.452 218.8604 235.6253 218.8579 C 233.291 219.3448 214.7118 217.0672 212.863 215.8566 C 206.5217 214.1566 201.8896 208.202 201.8921 201.3753 C 201.4052 199.041 203.6828 180.4618 204.8934 178.613 C 206.5934 172.2717 212.548 167.6396 219.3747 167.6421 C 221.709 167.1552 240.2882 169.4328 242.137 170.6434 C 248.4783 172.3434 253.1104 178.298 253.1079 185.1247" fill="rgb(84, 112, 198)" fill-opacity="0.7999989275091797" stroke="none" transform_matrix="{&quot;a&quot;:1,&quot;b&quot;:0,&quot;c&quot;:0,&quot;d&quot;:1,&quot;e&quot;:0,&quot;f&quot;:0}" my_stoke="none" my_stoke_width="1px" my_stoke_opacity="1" my_fill="rgb(84, 112, 198)" my_fill_opacity="0.799999" my_font_size="16px" opacity="1"/><path d="M 344.1079 201.3753 C 344.1104 208.202 339.4783 214.1566 333.137 215.8566 C 331.2882 217.0672 312.709 219.3448 310.3747 218.8579 C 303.548 218.8604 297.5934 214.2283 295.8934 207.887 C 294.6828 206.0382 292.4052 187.459 292.8921 185.1247 C 292.8896 178.298 297.5217 172.3434 303.863 170.6434 C 305.7118 169.4328 324.291 167.1552 326.6253 167.6421 C 333.452 167.6396 339.4066 172.2717 341.1066 178.613 C 342.3172 180.4618 344.5948 199.041 344.1079 201.3753" fill="rgb(84, 112, 198)" fill-opacity="0.7999989275091797" stroke="none" transform_matrix="{&quot;a&quot;:1,&quot;b&quot;:0,&quot;c&quot;:0,&quot;d&quot;:1,&quot;e&quot;:0,&quot;f&quot;:0}" my_stoke="none" my_stoke_width="1px" my_stoke_opacity="1" my_fill="rgb(84, 112, 198)" my_fill_opacity="0.799999" my_font_size="16px" opacity="1"/><path d="M 435.1079 201.3753 C 435.1104 208.202 430.4783 214.1566 424.137 215.8566 C 422.2882 217.0672 403.709 219.3448 401.3747 218.8579 C 394.548 218.8604 388.5934 214.2283 386.8934 207.887 C 385.6828 206.0382 383.4052 187.459 383.8921 185.1247 C 383.8896 178.298 388.5217 172.3434 394.863 170.6434 C 396.7118 169.4328 415.291 167.1552 417.6253 167.6421 C 424.452 167.6396 430.4066 172.2717 432.1066 178.613 C 433.3172 180.4618 435.5948 199.041 435.1079 201.3753" fill="rgb(84, 112, 198)" fill-opacity="0.7999989275091797" stroke="none" transform_matrix="{&quot;a&quot;:1,&quot;b&quot;:0,&quot;c&quot;:0,&quot;d&quot;:1,&quot;e&quot;:0,&quot;f&quot;:0}" my_stoke="none" my_stoke_width="1px" my_stoke_opacity="1" my_fill="rgb(84, 112, 198)" my_fill_opacity="0.799999" my_font_size="16px" opacity="1"/><path d="M 526.1079 201.3753 C 526.1104 208.202 521.4783 214.1566 515.137 215.8566 C 513.2882 217.0672 494.709 219.3448 492.3747 218.8579 C 485.548 218.8604 479.5934 214.2283 477.8934 207.887 C 476.6828 206.0382 474.4052 187.459 474.8921 185.1247 C 474.8896 178.298 479.5217 172.3434 485.863 170.6434 C 487.7118 169.4328 506.291 167.1552 508.6253 167.6421 C 515.452 167.6396 521.4066 172.2717 523.1066 178.613 C 524.3172 180.4618 526.5948 199.041 526.1079 201.3753" fill="rgb(84, 112, 198)" fill-opacity="0.7999989275091797" stroke="none" transform_matrix="{&quot;a&quot;:1,&quot;b&quot;:0,&quot;c&quot;:0,&quot;d&quot;:1,&quot;e&quot;:0,&quot;f&quot;:0}" my_stoke="none" my_stoke_width="1px" my_stoke_opacity="1" my_fill="rgb(84, 112, 198)" my_fill_opacity="0.799999" my_font_size="16px" opacity="1"/><path d="M 617.1079 185.1247 C 617.5948 187.459 615.3172 206.0382 614.1066 207.887 C 612.4066 214.2283 606.452 218.8604 599.6253 218.8579 C 597.291 219.3448 578.7118 217.0672 576.863 215.8566 C 570.5217 214.1566 565.8896 208.202 565.8921 201.3753 C 565.4052 199.041 567.6828 180.4618 568.8934 178.613 C 570.5934 172.2717 576.548 167.6396 583.3747 167.6421 C 585.709 167.1552 604.2882 169.4328 606.137 170.6434 C 612.4783 172.3434 617.1104 178.298 617.1079 185.1247" fill="rgb(84, 112, 198)" fill-opacity="0.7999989275091797" stroke="none" transform_matrix="{&quot;a&quot;:1,&quot;b&quot;:0,&quot;c&quot;:0,&quot;d&quot;:1,&quot;e&quot;:0,&quot;f&quot;:0}" my_stoke="none" my_stoke_width="1px" my_stoke_opacity="1" my_fill="rgb(84, 112, 198)" my_fill_opacity="0.799999" my_font_size="16px" opacity="1"/><path d="M 708.1079 185.1247 C 708.5948 187.459 706.3172 206.0382 705.1066 207.887 C 703.4066 214.2283 697.452 218.8604 690.6253 218.8579 C 688.291 219.3448 669.7118 217.0672 667.863 215.8566 C 661.5217 214.1566 656.8896 208.202 656.8921 201.3753 C 656.4052 199.041 658.6828 180.4618 659.8934 178.613 C 661.5934 172.2717 667.548 167.6396 674.3747 167.6421 C 676.709 167.1552 695.2882 169.4328 697.137 170.6434 C 703.4783 172.3434 708.1104 178.298 708.1079 185.1247" fill="rgb(84, 112, 198)" fill-opacity="0.7999989275091797" stroke="none" transform_matrix="{&quot;a&quot;:1,&quot;b&quot;:0,&quot;c&quot;:0,&quot;d&quot;:1,&quot;e&quot;:0,&quot;f&quot;:0}" my_stoke="none" my_stoke_width="1px" my_stoke_opacity="1" my_fill="rgb(84, 112, 198)" my_fill_opacity="0.799999" my_font_size="16px" opacity="1"/><path d="M 799.1079 185.1247 C 799.5948 187.459 797.3172 206.0382 796.1066 207.887 C 794.4066 214.2283 788.452 218.8604 781.6253 218.8579 C 779.291 219.3448 760.7118 217.0672 758.863 215.8566 C 752.5217 214.1566 747.8896 208.202 747.8921 201.3753 C 747.4052 199.041 749.6828 180.4618 750.8934 178.613 C 752.5934 172.2717 758.548 167.6396 765.3747 167.6421 C 767.709 167.1552 786.2882 169.4328 788.137 170.6434 C 794.4783 172.3434 799.1104 178.298 799.1079 185.1247" fill="rgb(84, 112, 198)" fill-opacity="0.7999989275091797" stroke="none" transform_matrix="{&quot;a&quot;:1,&quot;b&quot;:0,&quot;c&quot;:0,&quot;d&quot;:1,&quot;e&quot;:0,&quot;f&quot;:0}" my_stoke="none" my_stoke_width="1px" my_stoke_opacity="1" my_fill="rgb(84, 112, 198)" my_fill_opacity="0.799999" my_font_size="16px" opacity="1"/><path d="M 890.1079 201.3753 C 890.1104 208.202 885.4783 214.1566 879.137 215.8566 C 877.2882 217.0672 858.709 219.3448 856.3747 218.8579 C 849.548 218.8604 843.5934 214.2283 841.8934 207.887 C 840.6828 206.0382 838.4052 187.459 838.8921 185.1247 C 838.8896 178.298 843.5217 172.3434 849.863 170.6434 C 851.7118 169.4328 870.291 167.1552 872.6253 167.6421 C 879.452 167.6396 885.4066 172.2717 887.1066 178.613 C 888.3172 180.4618 890.5948 199.041 890.1079 201.3753" fill="rgb(84, 112, 198)" fill-opacity="0.7999989275091797" stroke="none" transform_matrix="{&quot;a&quot;:1,&quot;b&quot;:0,&quot;c&quot;:0,&quot;d&quot;:1,&quot;e&quot;:0,&quot;f&quot;:0}" my_stoke="none" my_stoke_width="1px" my_stoke_opacity="1" my_fill="rgb(84, 112, 198)" my_fill_opacity="0.799999" my_font_size="16px" opacity="1"/><path d="M 71.1079 107.8247 C 71.5948 110.159 69.3172 128.7382 68.1066 130.587 C 66.4066 136.9283 60.452 141.5604 53.6253 141.5579 C 51.291 142.0448 32.7118 139.7672 30.863 138.5566 C 24.5217 136.8566 19.8896 130.902 19.8921 124.0753 C 19.4052 121.741 21.6828 103.1618 22.8934 101.313 C 24.5934 94.9717 30.548 90.3396 37.3747 90.3421 C 39.709 89.8552 58.2882 92.1328 60.137 93.3434 C 66.4783 95.0434 71.1104 100.998 71.1079 107.8247" fill="rgb(84, 112, 198)" fill-opacity="0.7999989275091797" stroke="none" transform_matrix="{&quot;a&quot;:1,&quot;b&quot;:0,&quot;c&quot;:0,&quot;d&quot;:1,&quot;e&quot;:0,&quot;f&quot;:0}" my_stoke="none" my_stoke_width="1px" my_stoke_opacity="1" my_fill="rgb(84, 112, 198)" my_fill_opacity="0.799999" my_font_size="16px" opacity="1"/><path d="M 162.1079 107.8247 C 162.5948 110.159 160.3172 128.7382 159.1066 130.587 C 157.4066 136.9283 151.452 141.5604 144.6253 141.5579 C 142.291 142.0448 123.7118 139.7672 121.863 138.5566 C 115.5217 136.8566 110.8896 130.902 110.8921 124.0753 C 110.4052 121.741 112.6828 103.1618 113.8934 101.313 C 115.5934 94.9717 121.548 90.3396 128.3747 90.3421 C 130.709 89.8552 149.2882 92.1328 151.137 93.3434 C 157.4783 95.0434 162.1104 100.998 162.1079 107.8247" fill="rgb(84, 112, 198)" fill-opacity="0.7999989275091797" stroke="none" transform_matrix="{&quot;a&quot;:1,&quot;b&quot;:0,&quot;c&quot;:0,&quot;d&quot;:1,&quot;e&quot;:0,&quot;f&quot;:0}" my_stoke="none" my_stoke_width="1px" my_stoke_opacity="1" my_fill="rgb(84, 112, 198)" my_fill_opacity="0.799999" my_font_size="16px" opacity="1"/><path d="M 253.1079 124.0753 C 253.1104 130.902 248.4783 136.8566 242.137 138.5566 C 240.2882 139.7672 221.709 142.0448 219.3747 141.5579 C 212.548 141.5604 206.5934 136.9283 204.8934 130.587 C 203.6828 128.7382 201.4052 110.159 201.8921 107.8247 C 201.8896 100.998 206.5217 95.0434 212.863 93.3434 C 214.7118 92.1328 233.291 89.8552 235.6253 90.3421 C 242.452 90.3396 248.4066 94.9717 250.1066 101.313 C 251.3172 103.1618 253.5948 121.741 253.1079 124.0753" fill="rgb(84, 112, 198)" fill-opacity="0.7999989275091797" stroke="none" transform_matrix="{&quot;a&quot;:1,&quot;b&quot;:0,&quot;c&quot;:0,&quot;d&quot;:1,&quot;e&quot;:0,&quot;f&quot;:0}" my_stoke="none" my_stoke_width="1px" my_stoke_opacity="1" my_fill="rgb(84, 112, 198)" my_fill_opacity="0.799999" my_font_size="16px" opacity="1"/><path d="M 344.1079 124.0753 C 344.1104 130.902 339.4783 136.8566 333.137 138.5566 C 331.2882 139.7672 312.709 142.0448 310.3747 141.5579 C 303.548 141.5604 297.5934 136.9283 295.8934 130.587 C 294.6828 128.7382 292.4052 110.159 292.8921 107.8247 C 292.8896 100.998 297.5217 95.0434 303.863 93.3434 C 305.7118 92.1328 324.291 89.8552 326.6253 90.3421 C 333.452 90.3396 339.4066 94.9717 341.1066 101.313 C 342.3172 103.1618 344.5948 121.741 344.1079 124.0753" fill="rgb(84, 112, 198)" fill-opacity="0.7999989275091797" stroke="none" transform_matrix="{&quot;a&quot;:1,&quot;b&quot;:0,&quot;c&quot;:0,&quot;d&quot;:1,&quot;e&quot;:0,&quot;f&quot;:0}" my_stoke="none" my_stoke_width="1px" my_stoke_opacity="1" my_fill="rgb(84, 112, 198)" my_fill_opacity="0.799999" my_font_size="16px" opacity="1"/><path d="M 435.1079 124.0753 C 435.1104 130.902 430.4783 136.8566 424.137 138.5566 C 422.2882 139.7672 403.709 142.0448 401.3747 141.5579 C 394.548 141.5604 388.5934 136.9283 386.8934 130.587 C 385.6828 128.7382 383.4052 110.159 383.8921 107.8247 C 383.8896 100.998 388.5217 95.0434 394.863 93.3434 C 396.7118 92.1328 415.291 89.8552 417.6253 90.3421 C 424.452 90.3396 430.4066 94.9717 432.1066 101.313 C 433.3172 103.1618 435.5948 121.741 435.1079 124.0753" fill="rgb(84, 112, 198)" fill-opacity="0.7999989275091797" stroke="none" transform_matrix="{&quot;a&quot;:1,&quot;b&quot;:0,&quot;c&quot;:0,&quot;d&quot;:1,&quot;e&quot;:0,&quot;f&quot;:0}" my_stoke="none" my_stoke_width="1px" my_stoke_opacity="1" my_fill="rgb(84, 112, 198)" my_fill_opacity="0.799999" my_font_size="16px" opacity="1"/><path d="M 526.1079 124.0753 C 526.1104 130.902 521.4783 136.8566 515.137 138.5566 C 513.2882 139.7672 494.709 142.0448 492.3747 141.5579 C 485.548 141.5604 479.5934 136.9283 477.8934 130.587 C 476.6828 128.7382 474.4052 110.159 474.8921 107.8247 C 474.8896 100.998 479.5217 95.0434 485.863 93.3434 C 487.7118 92.1328 506.291 89.8552 508.6253 90.3421 C 515.452 90.3396 521.4066 94.9717 523.1066 101.313 C 524.3172 103.1618 526.5948 121.741 526.1079 124.0753" fill="rgb(84, 112, 198)" fill-opacity="0.7999989275091797" stroke="none" transform_matrix="{&quot;a&quot;:1,&quot;b&quot;:0,&quot;c&quot;:0,&quot;d&quot;:1,&quot;e&quot;:0,&quot;f&quot;:0}" my_stoke="none" my_stoke_width="1px" my_stoke_opacity="1" my_fill="rgb(84, 112, 198)" my_fill_opacity="0.799999" my_font_size="16px" opacity="1"/><path d="M 617.1079 107.8247 C 617.5948 110.159 615.3172 128.7382 614.1066 130.587 C 612.4066 136.9283 606.452 141.5604 599.6253 141.5579 C 597.291 142.0448 578.7118 139.7672 576.863 138.5566 C 570.5217 136.8566 565.8896 130.902 565.8921 124.0753 C 565.4052 121.741 567.6828 103.1618 568.8934 101.313 C 570.5934 94.9717 576.548 90.3396 583.3747 90.3421 C 585.709 89.8552 604.2882 92.1328 606.137 93.3434 C 612.4783 95.0434 617.1104 100.998 617.1079 107.8247" fill="rgb(84, 112, 198)" fill-opacity="0.7999989275091797" stroke="none" transform_matrix="{&quot;a&quot;:1,&quot;b&quot;:0,&quot;c&quot;:0,&quot;d&quot;:1,&quot;e&quot;:0,&quot;f&quot;:0}" my_stoke="none" my_stoke_width="1px" my_stoke_opacity="1" my_fill="rgb(84, 112, 198)" my_fill_opacity="0.799999" my_font_size="16px" opacity="1"/><path d="M 708.1079 107.8247 C 708.5948 110.159 706.3172 128.7382 705.1066 130.587 C 703.4066 136.9283 697.452 141.5604 690.6253 141.5579 C 688.291 142.0448 669.7118 139.7672 667.863 138.5566 C 661.5217 136.8566 656.8896 130.902 656.8921 124.0753 C 656.4052 121.741 658.6828 103.1618 659.8934 101.313 C 661.5934 94.9717 667.548 90.3396 674.3747 90.3421 C 676.709 89.8552 695.2882 92.1328 697.137 93.3434 C 703.4783 95.0434 708.1104 100.998 708.1079 107.8247" fill="rgb(84, 112, 198)" fill-opacity="0.7999989275091797" stroke="none" transform_matrix="{&quot;a&quot;:1,&quot;b&quot;:0,&quot;c&quot;:0,&quot;d&quot;:1,&quot;e&quot;:0,&quot;f&quot;:0}" my_stoke="none" my_stoke_width="1px" my_stoke_opacity="1" my_fill="rgb(84, 112, 198)" my_fill_opacity="0.799999" my_font_size="16px" opacity="1"/><path d="M 799.1079 124.0753 C 799.1104 130.902 794.4783 136.8566 788.137 138.5566 C 786.2882 139.7672 767.709 142.0448 765.3747 141.5579 C 758.548 141.5604 752.5934 136.9283 750.8934 130.587 C 749.6828 128.7382 747.4052 110.159 747.8921 107.8247 C 747.8896 100.998 752.5217 95.0434 758.863 93.3434 C 760.7118 92.1328 779.291 89.8552 781.6253 90.3421 C 788.452 90.3396 794.4066 94.9717 796.1066 101.313 C 797.3172 103.1618 799.5948 121.741 799.1079 124.0753" fill="rgb(84, 112, 198)" fill-opacity="0.7999989275091797" stroke="none" transform_matrix="{&quot;a&quot;:1,&quot;b&quot;:0,&quot;c&quot;:0,&quot;d&quot;:1,&quot;e&quot;:0,&quot;f&quot;:0}" my_stoke="none" my_stoke_width="1px" my_stoke_opacity="1" my_fill="rgb(84, 112, 198)" my_fill_opacity="0.799999" my_font_size="16px" opacity="1"/><path d="M 890.1079 107.8247 C 890.5948 110.159 888.3172 128.7382 887.1066 130.587 C 885.4066 136.9283 879.452 141.5604 872.6253 141.5579 C 870.291 142.0448 851.7118 139.7672 849.863 138.5566 C 843.5217 136.8566 838.8896 130.902 838.8921 124.0753 C 838.4052 121.741 840.6828 103.1618 841.8934 101.313 C 843.5934 94.9717 849.548 90.3396 856.3747 90.3421 C 858.709 89.8552 877.2882 92.1328 879.137 93.3434 C 885.4783 95.0434 890.1104 100.998 890.1079 107.8247" fill="rgb(84, 112, 198)" fill-opacity="0.7999989275091797" stroke="none" transform_matrix="{&quot;a&quot;:1,&quot;b&quot;:0,&quot;c&quot;:0,&quot;d&quot;:1,&quot;e&quot;:0,&quot;f&quot;:0}" my_stoke="none" my_stoke_width="1px" my_stoke_opacity="1" my_fill="rgb(84, 112, 198)" my_fill_opacity="0.799999" my_font_size="16px" opacity="1"/><path d="M 71.1079 30.5247 C 71.5948 32.859 69.3172 51.4382 68.1066 53.287 C 66.4066 59.6283 60.452 64.2604 53.6253 64.2579 C 51.291 64.7448 32.7118 62.4672 30.863 61.2566 C 24.5217 59.5566 19.8896 53.602 19.8921 46.7753 C 19.4052 44.441 21.6828 25.8618 22.8934 24.013 C 24.5934 17.6717 30.548 13.0396 37.3747 13.0421 C 39.709 12.5552 58.2882 14.8328 60.137 16.0434 C 66.4783 17.7434 71.1104 23.698 71.1079 30.5247" fill="rgb(84, 112, 198)" fill-opacity="0.7999989275091797" stroke="none" transform_matrix="{&quot;a&quot;:1,&quot;b&quot;:0,&quot;c&quot;:0,&quot;d&quot;:1,&quot;e&quot;:0,&quot;f&quot;:0}" my_stoke="none" my_stoke_width="1px" my_stoke_opacity="1" my_fill="rgb(84, 112, 198)" my_fill_opacity="0.799999" my_font_size="16px" opacity="1"/><path d="M 162.1079 30.5247 C 162.5948 32.859 160.3172 51.4382 159.1066 53.287 C 157.4066 59.6283 151.452 64.2604 144.6253 64.2579 C 142.291 64.7448 123.7118 62.4672 121.863 61.2566 C 115.5217 59.5566 110.8896 53.602 110.8921 46.7753 C 110.4052 44.441 112.6828 25.8618 113.8934 24.013 C 115.5934 17.6717 121.548 13.0396 128.3747 13.0421 C 130.709 12.5552 149.2882 14.8328 151.137 16.0434 C 157.4783 17.7434 162.1104 23.698 162.1079 30.5247" fill="rgb(84, 112, 198)" fill-opacity="0.7999989275091797" stroke="none" transform_matrix="{&quot;a&quot;:1,&quot;b&quot;:0,&quot;c&quot;:0,&quot;d&quot;:1,&quot;e&quot;:0,&quot;f&quot;:0}" my_stoke="none" my_stoke_width="1px" my_stoke_opacity="1" my_fill="rgb(84, 112, 198)" my_fill_opacity="0.799999" my_font_size="16px" opacity="1"/><path d="M 253.1079 30.5247 C 253.5948 32.859 251.3172 51.4382 250.1066 53.287 C 248.4066 59.6283 242.452 64.2604 235.6253 64.2579 C 233.291 64.7448 214.7118 62.4672 212.863 61.2566 C 206.5217 59.5566 201.8896 53.602 201.8921 46.7753 C 201.4052 44.441 203.6828 25.8618 204.8934 24.013 C 206.5934 17.6717 212.548 13.0396 219.3747 13.0421 C 221.709 12.5552 240.2882 14.8328 242.137 16.0434 C 248.4783 17.7434 253.1104 23.698 253.1079 30.5247" fill="rgb(84, 112, 198)" fill-opacity="0.7999989275091797" stroke="none" transform_matrix="{&quot;a&quot;:1,&quot;b&quot;:0,&quot;c&quot;:0,&quot;d&quot;:1,&quot;e&quot;:0,&quot;f&quot;:0}" my_stoke="none" my_stoke_width="1px" my_stoke_opacity="1" my_fill="rgb(84, 112, 198)" my_fill_opacity="0.799999" my_font_size="16px" opacity="1"/><path d="M 344.1079 30.5247 C 344.5948 32.859 342.3172 51.4382 341.1066 53.287 C 339.4066 59.6283 333.452 64.2604 326.6253 64.2579 C 324.291 64.7448 305.7118 62.4672 303.863 61.2566 C 297.5217 59.5566 292.8896 53.602 292.8921 46.7753 C 292.4052 44.441 294.6828 25.8618 295.8934 24.013 C 297.5934 17.6717 303.548 13.0396 310.3747 13.0421 C 312.709 12.5552 331.2882 14.8328 333.137 16.0434 C 339.4783 17.7434 344.1104 23.698 344.1079 30.5247" fill="rgb(84, 112, 198)" fill-opacity="0.7999989275091797" stroke="none" transform_matrix="{&quot;a&quot;:1,&quot;b&quot;:0,&quot;c&quot;:0,&quot;d&quot;:1,&quot;e&quot;:0,&quot;f&quot;:0}" my_stoke="none" my_stoke_width="1px" my_stoke_opacity="1" my_fill="rgb(84, 112, 198)" my_fill_opacity="0.799999" my_font_size="16px" opacity="1"/><path d="M 435.1079 30.5247 C 435.5948 32.859 433.3172 51.4382 432.1066 53.287 C 430.4066 59.6283 424.452 64.2604 417.6253 64.2579 C 415.291 64.7448 396.7118 62.4672 394.863 61.2566 C 388.5217 59.5566 383.8896 53.602 383.8921 46.7753 C 383.4052 44.441 385.6828 25.8618 386.8934 24.013 C 388.5934 17.6717 394.548 13.0396 401.3747 13.0421 C 403.709 12.5552 422.2882 14.8328 424.137 16.0434 C 430.4783 17.7434 435.1104 23.698 435.1079 30.5247" fill="rgb(84, 112, 198)" fill-opacity="0.7999989275091797" stroke="none" transform_matrix="{&quot;a&quot;:1,&quot;b&quot;:0,&quot;c&quot;:0,&quot;d&quot;:1,&quot;e&quot;:0,&quot;f&quot;:0}" my_stoke="none" my_stoke_width="1px" my_stoke_opacity="1" my_fill="rgb(84, 112, 198)" my_fill_opacity="0.799999" my_font_size="16px" opacity="1"/><path d="M 526.1079 30.5247 C 526.5948 32.859 524.3172 51.4382 523.1066 53.287 C 521.4066 59.6283 515.452 64.2604 508.6253 64.2579 C 506.291 64.7448 487.7118 62.4672 485.863 61.2566 C 479.5217 59.5566 474.8896 53.602 474.8921 46.7753 C 474.4052 44.441 476.6828 25.8618 477.8934 24.013 C 479.5934 17.6717 485.548 13.0396 492.3747 13.0421 C 494.709 12.5552 513.2882 14.8328 515.137 16.0434 C 521.4783 17.7434 526.1104 23.698 526.1079 30.5247" fill="rgb(84, 112, 198)" fill-opacity="0.7999989275091797" stroke="none" transform_matrix="{&quot;a&quot;:1,&quot;b&quot;:0,&quot;c&quot;:0,&quot;d&quot;:1,&quot;e&quot;:0,&quot;f&quot;:0}" my_stoke="none" my_stoke_width="1px" my_stoke_opacity="1" my_fill="rgb(84, 112, 198)" my_fill_opacity="0.799999" my_font_size="16px" opacity="1"/><path d="M 617.1079 46.7753 C 617.1104 53.602 612.4783 59.5566 606.137 61.2566 C 604.2882 62.4672 585.709 64.7448 583.3747 64.2579 C 576.548 64.2604 570.5934 59.6283 568.8934 53.287 C 567.6828 51.4382 565.4052 32.859 565.8921 30.5247 C 565.8896 23.698 570.5217 17.7434 576.863 16.0434 C 578.7118 14.8328 597.291 12.5552 599.6253 13.0421 C 606.452 13.0396 612.4066 17.6717 614.1066 24.013 C 615.3172 25.8618 617.5948 44.441 617.1079 46.7753" fill="rgb(84, 112, 198)" fill-opacity="0.7999989275091797" stroke="none" transform_matrix="{&quot;a&quot;:1,&quot;b&quot;:0,&quot;c&quot;:0,&quot;d&quot;:1,&quot;e&quot;:0,&quot;f&quot;:0}" my_stoke="none" my_stoke_width="1px" my_stoke_opacity="1" my_fill="rgb(84, 112, 198)" my_fill_opacity="0.799999" my_font_size="16px" opacity="1"/><path d="M 708.1079 30.5247 C 708.5948 32.859 706.3172 51.4382 705.1066 53.287 C 703.4066 59.6283 697.452 64.2604 690.6253 64.2579 C 688.291 64.7448 669.7118 62.4672 667.863 61.2566 C 661.5217 59.5566 656.8896 53.602 656.8921 46.7753 C 656.4052 44.441 658.6828 25.8618 659.8934 24.013 C 661.5934 17.6717 667.548 13.0396 674.3747 13.0421 C 676.709 12.5552 695.2882 14.8328 697.137 16.0434 C 703.4783 17.7434 708.1104 23.698 708.1079 30.5247" fill="rgb(84, 112, 198)" fill-opacity="0.7999989275091797" stroke="none" transform_matrix="{&quot;a&quot;:1,&quot;b&quot;:0,&quot;c&quot;:0,&quot;d&quot;:1,&quot;e&quot;:0,&quot;f&quot;:0}" my_stoke="none" my_stoke_width="1px" my_stoke_opacity="1" my_fill="rgb(84, 112, 198)" my_fill_opacity="0.799999" my_font_size="16px" opacity="1"/><path d="M 799.1079 46.7753 C 799.1104 53.602 794.4783 59.5566 788.137 61.2566 C 786.2882 62.4672 767.709 64.7448 765.3747 64.2579 C 758.548 64.2604 752.5934 59.6283 750.8934 53.287 C 749.6828 51.4382 747.4052 32.859 747.8921 30.5247 C 747.8896 23.698 752.5217 17.7434 758.863 16.0434 C 760.7118 14.8328 779.291 12.5552 781.6253 13.0421 C 788.452 13.0396 794.4066 17.6717 796.1066 24.013 C 797.3172 25.8618 799.5948 44.441 799.1079 46.7753" fill="rgb(84, 112, 198)" fill-opacity="0.7999989275091797" stroke="none" transform_matrix="{&quot;a&quot;:1,&quot;b&quot;:0,&quot;c&quot;:0,&quot;d&quot;:1,&quot;e&quot;:0,&quot;f&quot;:0}" my_stoke="none" my_stoke_width="1px" my_stoke_opacity="1" my_fill="rgb(84, 112, 198)" my_fill_opacity="0.799999" my_font_size="16px" opacity="1"/><path d="M 890.1079 30.5247 C 890.5948 32.859 888.3172 51.4382 887.1066 53.287 C 885.4066 59.6283 879.452 64.2604 872.6253 64.2579 C 870.291 64.7448 851.7118 62.4672 849.863 61.2566 C 843.5217 59.5566 838.8896 53.602 838.8921 46.7753 C 838.4052 44.441 840.6828 25.8618 841.8934 24.013 C 843.5934 17.6717 849.548 13.0396 856.3747 13.0421 C 858.709 12.5552 877.2882 14.8328 879.137 16.0434 C 885.4783 17.7434 890.1104 23.698 890.1079 30.5247" fill="rgb(84, 112, 198)" fill-opacity="0.7999989275091797" stroke="none" transform_matrix="{&quot;a&quot;:1,&quot;b&quot;:0,&quot;c&quot;:0,&quot;d&quot;:1,&quot;e&quot;:0,&quot;f&quot;:0}" my_stoke="none" my_stoke_width="1px" my_stoke_opacity="1" my_fill="rgb(84, 112, 198)" my_fill_opacity="0.799999" my_font_size="16px" opacity="1"/></g></svg>