<svg xmlns="http://www.w3.org/2000/svg" xmlns:xlink="http://www.w3.org/1999/xlink" version="1.1" baseProfile="full" width="910" height="773" style="user-select: none; position: absolute; left: 0px; top: 0px;" transform_matrix="{&quot;a&quot;:1,&quot;b&quot;:0,&quot;c&quot;:0,&quot;d&quot;:1,&quot;e&quot;:0,&quot;f&quot;:0}"><g><path d="M 455 265.7188 A 120.7813 120.7813 0 0 1 540.4052 471.9052 L 495.9945 427.4945 A 57.975 57.975 0 0 0 455 328.525 Z" fill="rgb(245, 79, 74)" fill-opacity="1" stroke="white" stroke-width="2" paint-order="fill" stroke-opacity="1" stroke-dasharray="" stroke-linecap="butt" stroke-linejoin="bevel" stroke-miterlimit="10" transform_matrix="{&quot;a&quot;:1,&quot;b&quot;:0,&quot;c&quot;:0,&quot;d&quot;:1,&quot;e&quot;:0,&quot;f&quot;:0}" my_stoke="rgb(255, 255, 255)" my_stoke_width="2px" my_stoke_opacity="1" my_fill="rgb(245, 79, 74)" my_fill_opacity="1" my_font_size="16px" opacity="1"/><path d="M 455 202.9125 A 183.5875 183.5875 0 0 1 584.816 256.684 L 540.4052 301.0948 A 120.7813 120.7813 0 0 0 455 265.7188 Z" fill="rgb(245, 79, 74)" fill-opacity="1" stroke="white" stroke-width="2" paint-order="fill" stroke-opacity="1" stroke-dasharray="" stroke-linecap="butt" stroke-linejoin="bevel" stroke-miterlimit="10" transform_matrix="{&quot;a&quot;:1,&quot;b&quot;:0,&quot;c&quot;:0,&quot;d&quot;:1,&quot;e&quot;:0,&quot;f&quot;:0}" my_stoke="rgb(255, 255, 255)" my_stoke_width="2px" my_stoke_opacity="1" my_fill="rgb(245, 79, 74)" my_fill_opacity="1" my_font_size="16px" opacity="1"/><path d="M 455 140.1062 A 246.3938 246.3938 0 0 1 493.5445 143.1398 L 483.7194 205.1728 A 183.5875 183.5875 0 0 0 455 202.9125 Z" fill="rgb(245, 79, 74)" fill-opacity="1" stroke="white" stroke-width="2" paint-order="fill" stroke-opacity="1" stroke-dasharray="" stroke-linecap="butt" stroke-linejoin="bevel" stroke-miterlimit="10" transform_matrix="{&quot;a&quot;:1,&quot;b&quot;:0,&quot;c&quot;:0,&quot;d&quot;:1,&quot;e&quot;:0,&quot;f&quot;:0}" my_stoke="rgb(255, 255, 255)" my_stoke_width="2px" my_stoke_opacity="1" my_fill="rgb(245, 79, 74)" my_fill_opacity="1" my_font_size="16px" opacity="1"/><path d="M 493.5445 143.1398 A 246.3938 246.3938 0 0 1 566.8604 166.9616 L 538.347 222.9223 A 183.5875 183.5875 0 0 0 483.7194 205.1728 Z" fill="rgb(221, 221, 221)" fill-opacity="1" stroke="white" stroke-width="2" paint-order="fill" stroke-opacity="1" stroke-dasharray="" stroke-linecap="butt" stroke-linejoin="bevel" stroke-miterlimit="10" transform_matrix="{&quot;a&quot;:1,&quot;b&quot;:0,&quot;c&quot;:0,&quot;d&quot;:1,&quot;e&quot;:0,&quot;f&quot;:0}" my_stoke="rgb(255, 255, 255)" my_stoke_width="2px" my_stoke_opacity="1" my_fill="rgb(221, 221, 221)" my_fill_opacity="1" my_font_size="16px" opacity="1"/><path d="M 503.3695 81.1068 A 309.2 309.2 0 0 1 550.5481 92.4333 L 531.1399 152.1656 A 246.3938 246.3938 0 0 0 493.5445 143.1398 Z" fill="rgb(255, 140, 117)" fill-opacity="1" stroke="white" stroke-width="2" paint-order="fill" stroke-opacity="1" stroke-dasharray="" stroke-linecap="butt" stroke-linejoin="bevel" stroke-miterlimit="10" transform_matrix="{&quot;a&quot;:1,&quot;b&quot;:0,&quot;c&quot;:0,&quot;d&quot;:1,&quot;e&quot;:0,&quot;f&quot;:0}" my_stoke="rgb(255, 255, 255)" my_stoke_width="2px" my_stoke_opacity="1" my_fill="rgb(255, 140, 117)" my_fill_opacity="1" my_font_size="16px" opacity="1"/><path d="M 566.8604 166.9616 A 246.3938 246.3938 0 0 1 599.8266 187.1633 L 562.91 237.9746 A 183.5875 183.5875 0 0 0 538.347 222.9223 Z" fill="rgb(221, 221, 221)" fill-opacity="1" stroke="white" stroke-width="2" paint-order="fill" stroke-opacity="1" stroke-dasharray="" stroke-linecap="butt" stroke-linejoin="bevel" stroke-miterlimit="10" transform_matrix="{&quot;a&quot;:1,&quot;b&quot;:0,&quot;c&quot;:0,&quot;d&quot;:1,&quot;e&quot;:0,&quot;f&quot;:0}" my_stoke="rgb(255, 255, 255)" my_stoke_width="2px" my_stoke_opacity="1" my_fill="rgb(221, 221, 221)" my_fill_opacity="1" my_font_size="16px" opacity="1"/><path d="M 595.3739 111.0008 A 309.2 309.2 0 0 1 636.7432 136.3519 L 599.8266 187.1633 A 246.3938 246.3938 0 0 0 566.8604 166.9616 Z" fill="rgb(221, 221, 221)" fill-opacity="1" stroke="white" stroke-width="2" paint-order="fill" stroke-opacity="1" stroke-dasharray="" stroke-linecap="butt" stroke-linejoin="bevel" stroke-miterlimit="10" transform_matrix="{&quot;a&quot;:1,&quot;b&quot;:0,&quot;c&quot;:0,&quot;d&quot;:1,&quot;e&quot;:0,&quot;f&quot;:0}" my_stoke="rgb(255, 255, 255)" my_stoke_width="2px" my_stoke_opacity="1" my_fill="rgb(221, 221, 221)" my_fill_opacity="1" my_font_size="16px" opacity="1"/><path d="M 584.816 256.684 A 183.5875 183.5875 0 0 1 584.816 516.316 L 540.4052 471.9052 A 120.7813 120.7813 0 0 0 540.4052 301.0948 Z" fill="rgb(245, 79, 74)" fill-opacity="1" stroke="white" stroke-width="2" paint-order="fill" stroke-opacity="1" stroke-dasharray="" stroke-linecap="butt" stroke-linejoin="bevel" stroke-miterlimit="10" transform_matrix="{&quot;a&quot;:1,&quot;b&quot;:0,&quot;c&quot;:0,&quot;d&quot;:1,&quot;e&quot;:0,&quot;f&quot;:0}" my_stoke="rgb(255, 255, 255)" my_stoke_width="2px" my_stoke_opacity="1" my_fill="rgb(245, 79, 74)" my_fill_opacity="1" my_font_size="16px" opacity="1"/><path d="M 629.2267 212.2733 A 246.3938 246.3938 0 0 1 698.3602 425.0445 L 636.3272 415.2194 A 183.5875 183.5875 0 0 0 584.816 256.684 Z" fill="rgb(255, 180, 153)" fill-opacity="1" stroke="white" stroke-width="2" paint-order="fill" stroke-opacity="1" stroke-dasharray="" stroke-linecap="butt" stroke-linejoin="bevel" stroke-miterlimit="10" transform_matrix="{&quot;a&quot;:1,&quot;b&quot;:0,&quot;c&quot;:0,&quot;d&quot;:1,&quot;e&quot;:0,&quot;f&quot;:0}" my_stoke="rgb(255, 255, 255)" my_stoke_width="2px" my_stoke_opacity="1" my_fill="rgb(255, 180, 153)" my_fill_opacity="1" my_font_size="16px" opacity="1"/><path d="M 673.6374 167.8626 A 309.2 309.2 0 0 1 705.1481 204.7568 L 654.3367 241.6734 A 246.3938 246.3938 0 0 0 629.2267 212.2733 Z" fill="rgb(245, 79, 74)" fill-opacity="1" stroke="white" stroke-width="2" paint-order="fill" stroke-opacity="1" stroke-dasharray="" stroke-linecap="butt" stroke-linejoin="bevel" stroke-miterlimit="10" transform_matrix="{&quot;a&quot;:1,&quot;b&quot;:0,&quot;c&quot;:0,&quot;d&quot;:1,&quot;e&quot;:0,&quot;f&quot;:0}" my_stoke="rgb(255, 255, 255)" my_stoke_width="2px" my_stoke_opacity="1" my_fill="rgb(245, 79, 74)" my_fill_opacity="1" my_font_size="16px" opacity="1"/><path d="M 705.1481 204.7568 A 309.2 309.2 0 0 1 730.4992 246.1261 L 674.5384 274.6396 A 246.3938 246.3938 0 0 0 654.3367 241.6734 Z" fill="rgb(221, 221, 221)" fill-opacity="1" stroke="white" stroke-width="2" paint-order="fill" stroke-opacity="1" stroke-dasharray="" stroke-linecap="butt" stroke-linejoin="bevel" stroke-miterlimit="10" transform_matrix="{&quot;a&quot;:1,&quot;b&quot;:0,&quot;c&quot;:0,&quot;d&quot;:1,&quot;e&quot;:0,&quot;f&quot;:0}" my_stoke="rgb(255, 255, 255)" my_stoke_width="2px" my_stoke_opacity="1" my_fill="rgb(221, 221, 221)" my_fill_opacity="1" my_font_size="16px" opacity="1"/><path d="M 730.4992 246.1261 A 309.2 309.2 0 0 1 749.0667 290.9519 L 689.3344 310.3601 A 246.3938 246.3938 0 0 0 674.5384 274.6396 Z" fill="rgb(255, 140, 117)" fill-opacity="1" stroke="white" stroke-width="2" paint-order="fill" stroke-opacity="1" stroke-dasharray="" stroke-linecap="butt" stroke-linejoin="bevel" stroke-miterlimit="10" transform_matrix="{&quot;a&quot;:1,&quot;b&quot;:0,&quot;c&quot;:0,&quot;d&quot;:1,&quot;e&quot;:0,&quot;f&quot;:0}" my_stoke="rgb(255, 255, 255)" my_stoke_width="2px" my_stoke_opacity="1" my_fill="rgb(255, 140, 117)" my_fill_opacity="1" my_font_size="16px" opacity="1"/><path d="M 749.0667 290.9519 A 309.2 309.2 0 0 1 760.3932 338.1305 L 698.3602 347.9555 A 246.3938 246.3938 0 0 0 689.3344 310.3601 Z" fill="rgb(221, 221, 221)" fill-opacity="1" stroke="white" stroke-width="2" paint-order="fill" stroke-opacity="1" stroke-dasharray="" stroke-linecap="butt" stroke-linejoin="bevel" stroke-miterlimit="10" transform_matrix="{&quot;a&quot;:1,&quot;b&quot;:0,&quot;c&quot;:0,&quot;d&quot;:1,&quot;e&quot;:0,&quot;f&quot;:0}" my_stoke="rgb(255, 255, 255)" my_stoke_width="2px" my_stoke_opacity="1" my_fill="rgb(221, 221, 221)" my_fill_opacity="1" my_font_size="16px" opacity="1"/><path d="M 698.3602 425.0445 A 246.3938 246.3938 0 0 1 674.5384 498.3604 L 618.5777 469.847 A 183.5875 183.5875 0 0 0 636.3272 415.2194 Z" fill="rgb(255, 180, 153)" fill-opacity="1" stroke="white" stroke-width="2" paint-order="fill" stroke-opacity="1" stroke-dasharray="" stroke-linecap="butt" stroke-linejoin="bevel" stroke-miterlimit="10" transform_matrix="{&quot;a&quot;:1,&quot;b&quot;:0,&quot;c&quot;:0,&quot;d&quot;:1,&quot;e&quot;:0,&quot;f&quot;:0}" my_stoke="rgb(255, 255, 255)" my_stoke_width="2px" my_stoke_opacity="1" my_fill="rgb(255, 180, 153)" my_fill_opacity="1" my_font_size="16px" opacity="1"/><path d="M 760.3932 434.8695 A 309.2 309.2 0 0 1 749.0667 482.0481 L 689.3344 462.6399 A 246.3938 246.3938 0 0 0 698.3602 425.0445 Z" fill="rgb(221, 221, 221)" fill-opacity="1" stroke="white" stroke-width="2" paint-order="fill" stroke-opacity="1" stroke-dasharray="" stroke-linecap="butt" stroke-linejoin="bevel" stroke-miterlimit="10" transform_matrix="{&quot;a&quot;:1,&quot;b&quot;:0,&quot;c&quot;:0,&quot;d&quot;:1,&quot;e&quot;:0,&quot;f&quot;:0}" my_stoke="rgb(255, 255, 255)" my_stoke_width="2px" my_stoke_opacity="1" my_fill="rgb(221, 221, 221)" my_fill_opacity="1" my_font_size="16px" opacity="1"/><path d="M 674.5384 498.3604 A 246.3938 246.3938 0 0 1 654.3367 531.3266 L 603.5254 494.41 A 183.5875 183.5875 0 0 0 618.5777 469.847 Z" fill="rgb(221, 221, 221)" fill-opacity="1" stroke="white" stroke-width="2" paint-order="fill" stroke-opacity="1" stroke-dasharray="" stroke-linecap="butt" stroke-linejoin="bevel" stroke-miterlimit="10" transform_matrix="{&quot;a&quot;:1,&quot;b&quot;:0,&quot;c&quot;:0,&quot;d&quot;:1,&quot;e&quot;:0,&quot;f&quot;:0}" my_stoke="rgb(255, 255, 255)" my_stoke_width="2px" my_stoke_opacity="1" my_fill="rgb(221, 221, 221)" my_fill_opacity="1" my_font_size="16px" opacity="1"/><path d="M 730.4992 526.8739 A 309.2 309.2 0 0 1 705.1481 568.2432 L 654.3367 531.3266 A 246.3938 246.3938 0 0 0 674.5384 498.3604 Z" fill="rgb(255, 140, 117)" fill-opacity="1" stroke="white" stroke-width="2" paint-order="fill" stroke-opacity="1" stroke-dasharray="" stroke-linecap="butt" stroke-linejoin="bevel" stroke-miterlimit="10" transform_matrix="{&quot;a&quot;:1,&quot;b&quot;:0,&quot;c&quot;:0,&quot;d&quot;:1,&quot;e&quot;:0,&quot;f&quot;:0}" my_stoke="rgb(255, 255, 255)" my_stoke_width="2px" my_stoke_opacity="1" my_fill="rgb(255, 140, 117)" my_fill_opacity="1" my_font_size="16px" opacity="1"/><path d="M 540.4052 471.9052 A 120.7813 120.7813 0 0 1 384.0066 484.2141 L 420.9231 433.4028 A 57.975 57.975 0 0 0 495.9945 427.4945 Z" fill="rgb(255, 140, 117)" fill-opacity="1" stroke="white" stroke-width="2" paint-order="fill" stroke-opacity="1" stroke-dasharray="" stroke-linecap="butt" stroke-linejoin="bevel" stroke-miterlimit="10" transform_matrix="{&quot;a&quot;:1,&quot;b&quot;:0,&quot;c&quot;:0,&quot;d&quot;:1,&quot;e&quot;:0,&quot;f&quot;:0}" my_stoke="rgb(255, 255, 255)" my_stoke_width="2px" my_stoke_opacity="1" my_fill="rgb(255, 140, 117)" my_fill_opacity="1" my_font_size="16px" opacity="1"/><path d="M 584.816 516.316 A 183.5875 183.5875 0 0 1 483.7194 567.8272 L 473.8944 505.7942 A 120.7813 120.7813 0 0 0 540.4052 471.9052 Z" fill="rgb(245, 79, 74)" fill-opacity="1" stroke="white" stroke-width="2" paint-order="fill" stroke-opacity="1" stroke-dasharray="" stroke-linecap="butt" stroke-linejoin="bevel" stroke-miterlimit="10" transform_matrix="{&quot;a&quot;:1,&quot;b&quot;:0,&quot;c&quot;:0,&quot;d&quot;:1,&quot;e&quot;:0,&quot;f&quot;:0}" my_stoke="rgb(255, 255, 255)" my_stoke_width="2px" my_stoke_opacity="1" my_fill="rgb(245, 79, 74)" my_fill_opacity="1" my_font_size="16px" opacity="1"/><path d="M 629.2267 560.7267 A 246.3938 246.3938 0 0 1 566.8604 606.0384 L 538.347 550.0777 A 183.5875 183.5875 0 0 0 584.816 516.316 Z" fill="rgb(255, 140, 117)" fill-opacity="1" stroke="white" stroke-width="2" paint-order="fill" stroke-opacity="1" stroke-dasharray="" stroke-linecap="butt" stroke-linejoin="bevel" stroke-miterlimit="10" transform_matrix="{&quot;a&quot;:1,&quot;b&quot;:0,&quot;c&quot;:0,&quot;d&quot;:1,&quot;e&quot;:0,&quot;f&quot;:0}" my_stoke="rgb(255, 255, 255)" my_stoke_width="2px" my_stoke_opacity="1" my_fill="rgb(255, 140, 117)" my_fill_opacity="1" my_font_size="16px" opacity="1"/><path d="M 566.8604 606.0384 A 246.3938 246.3938 0 0 1 531.1399 620.8344 L 511.7317 561.1021 A 183.5875 183.5875 0 0 0 538.347 550.0777 Z" fill="rgb(221, 221, 221)" fill-opacity="1" stroke="white" stroke-width="2" paint-order="fill" stroke-opacity="1" stroke-dasharray="" stroke-linecap="butt" stroke-linejoin="bevel" stroke-miterlimit="10" transform_matrix="{&quot;a&quot;:1,&quot;b&quot;:0,&quot;c&quot;:0,&quot;d&quot;:1,&quot;e&quot;:0,&quot;f&quot;:0}" my_stoke="rgb(255, 255, 255)" my_stoke_width="2px" my_stoke_opacity="1" my_fill="rgb(221, 221, 221)" my_fill_opacity="1" my_font_size="16px" opacity="1"/><path d="M 595.3739 661.9992 A 309.2 309.2 0 0 1 550.5481 680.5667 L 531.1399 620.8344 A 246.3938 246.3938 0 0 0 566.8604 606.0384 Z" fill="rgb(245, 79, 74)" fill-opacity="1" stroke="white" stroke-width="2" paint-order="fill" stroke-opacity="1" stroke-dasharray="" stroke-linecap="butt" stroke-linejoin="bevel" stroke-miterlimit="10" transform_matrix="{&quot;a&quot;:1,&quot;b&quot;:0,&quot;c&quot;:0,&quot;d&quot;:1,&quot;e&quot;:0,&quot;f&quot;:0}" my_stoke="rgb(255, 255, 255)" my_stoke_width="2px" my_stoke_opacity="1" my_fill="rgb(245, 79, 74)" my_fill_opacity="1" my_font_size="16px" opacity="1"/><path d="M 483.7194 567.8272 A 183.5875 183.5875 0 0 1 398.2683 561.1021 L 417.6765 501.3698 A 120.7813 120.7813 0 0 0 473.8944 505.7942 Z" fill="rgb(255, 180, 153)" fill-opacity="1" stroke="white" stroke-width="2" paint-order="fill" stroke-opacity="1" stroke-dasharray="" stroke-linecap="butt" stroke-linejoin="bevel" stroke-miterlimit="10" transform_matrix="{&quot;a&quot;:1,&quot;b&quot;:0,&quot;c&quot;:0,&quot;d&quot;:1,&quot;e&quot;:0,&quot;f&quot;:0}" my_stoke="rgb(255, 255, 255)" my_stoke_width="2px" my_stoke_opacity="1" my_fill="rgb(255, 180, 153)" my_fill_opacity="1" my_font_size="16px" opacity="1"/><path d="M 493.5445 629.8602 A 246.3938 246.3938 0 0 1 378.8601 620.8344 L 398.2683 561.1021 A 183.5875 183.5875 0 0 0 483.7194 567.8272 Z" fill="rgb(221, 221, 221)" fill-opacity="1" stroke="white" stroke-width="2" paint-order="fill" stroke-opacity="1" stroke-dasharray="" stroke-linecap="butt" stroke-linejoin="bevel" stroke-miterlimit="10" transform_matrix="{&quot;a&quot;:1,&quot;b&quot;:0,&quot;c&quot;:0,&quot;d&quot;:1,&quot;e&quot;:0,&quot;f&quot;:0}" my_stoke="rgb(255, 255, 255)" my_stoke_width="2px" my_stoke_opacity="1" my_fill="rgb(221, 221, 221)" my_fill_opacity="1" my_font_size="16px" opacity="1"/><path d="M 503.3695 691.8932 A 309.2 309.2 0 0 1 455 695.7 L 455 632.8938 A 246.3938 246.3938 0 0 0 493.5445 629.8602 Z" fill="rgb(221, 221, 221)" fill-opacity="1" stroke="white" stroke-width="2" paint-order="fill" stroke-opacity="1" stroke-dasharray="" stroke-linecap="butt" stroke-linejoin="bevel" stroke-miterlimit="10" transform_matrix="{&quot;a&quot;:1,&quot;b&quot;:0,&quot;c&quot;:0,&quot;d&quot;:1,&quot;e&quot;:0,&quot;f&quot;:0}" my_stoke="rgb(255, 255, 255)" my_stoke_width="2px" my_stoke_opacity="1" my_fill="rgb(221, 221, 221)" my_fill_opacity="1" my_font_size="16px" opacity="1"/><path d="M 455 695.7 A 309.2 309.2 0 0 1 406.6305 691.8932 L 416.4555 629.8602 A 246.3938 246.3938 0 0 0 455 632.8938 Z" fill="rgb(255, 140, 117)" fill-opacity="1" stroke="white" stroke-width="2" paint-order="fill" stroke-opacity="1" stroke-dasharray="" stroke-linecap="butt" stroke-linejoin="bevel" stroke-miterlimit="10" transform_matrix="{&quot;a&quot;:1,&quot;b&quot;:0,&quot;c&quot;:0,&quot;d&quot;:1,&quot;e&quot;:0,&quot;f&quot;:0}" my_stoke="rgb(255, 255, 255)" my_stoke_width="2px" my_stoke_opacity="1" my_fill="rgb(255, 140, 117)" my_fill_opacity="1" my_font_size="16px" opacity="1"/><path d="M 384.0066 484.2141 A 120.7813 120.7813 0 0 1 335.7058 367.6056 L 397.7388 377.4307 A 57.975 57.975 0 0 0 420.9231 433.4028 Z" fill="rgb(245, 79, 74)" fill-opacity="1" stroke="white" stroke-width="2" paint-order="fill" stroke-opacity="1" stroke-dasharray="" stroke-linecap="butt" stroke-linejoin="bevel" stroke-miterlimit="10" transform_matrix="{&quot;a&quot;:1,&quot;b&quot;:0,&quot;c&quot;:0,&quot;d&quot;:1,&quot;e&quot;:0,&quot;f&quot;:0}" my_stoke="rgb(255, 255, 255)" my_stoke_width="2px" my_stoke_opacity="1" my_fill="rgb(245, 79, 74)" my_fill_opacity="1" my_font_size="16px" opacity="1"/><path d="M 347.09 535.0254 A 183.5875 183.5875 0 0 1 271.4125 386.5 L 334.2188 386.5 A 120.7813 120.7813 0 0 0 384.0066 484.2141 Z" fill="rgb(255, 180, 153)" fill-opacity="1" stroke="white" stroke-width="2" paint-order="fill" stroke-opacity="1" stroke-dasharray="" stroke-linecap="butt" stroke-linejoin="bevel" stroke-miterlimit="10" transform_matrix="{&quot;a&quot;:1,&quot;b&quot;:0,&quot;c&quot;:0,&quot;d&quot;:1,&quot;e&quot;:0,&quot;f&quot;:0}" my_stoke="rgb(255, 255, 255)" my_stoke_width="2px" my_stoke_opacity="1" my_fill="rgb(255, 180, 153)" my_fill_opacity="1" my_font_size="16px" opacity="1"/><path d="M 310.1734 585.8367 A 246.3938 246.3938 0 0 1 280.7733 560.7267 L 325.184 516.316 A 183.5875 183.5875 0 0 0 347.09 535.0254 Z" fill="rgb(255, 180, 153)" fill-opacity="1" stroke="white" stroke-width="2" paint-order="fill" stroke-opacity="1" stroke-dasharray="" stroke-linecap="butt" stroke-linejoin="bevel" stroke-miterlimit="10" transform_matrix="{&quot;a&quot;:1,&quot;b&quot;:0,&quot;c&quot;:0,&quot;d&quot;:1,&quot;e&quot;:0,&quot;f&quot;:0}" my_stoke="rgb(255, 255, 255)" my_stoke_width="2px" my_stoke_opacity="1" my_fill="rgb(255, 180, 153)" my_fill_opacity="1" my_font_size="16px" opacity="1"/><path d="M 280.7733 560.7267 A 246.3938 246.3938 0 0 1 220.6656 462.6399 L 280.3979 443.2317 A 183.5875 183.5875 0 0 0 325.184 516.316 Z" fill="rgb(255, 140, 117)" fill-opacity="1" stroke="white" stroke-width="2" paint-order="fill" stroke-opacity="1" stroke-dasharray="" stroke-linecap="butt" stroke-linejoin="bevel" stroke-miterlimit="10" transform_matrix="{&quot;a&quot;:1,&quot;b&quot;:0,&quot;c&quot;:0,&quot;d&quot;:1,&quot;e&quot;:0,&quot;f&quot;:0}" my_stoke="rgb(255, 255, 255)" my_stoke_width="2px" my_stoke_opacity="1" my_fill="rgb(255, 140, 117)" my_fill_opacity="1" my_font_size="16px" opacity="1"/><path d="M 236.3626 605.1374 A 309.2 309.2 0 0 1 204.8519 568.2432 L 255.6633 531.3266 A 246.3938 246.3938 0 0 0 280.7733 560.7267 Z" fill="rgb(255, 140, 117)" fill-opacity="1" stroke="white" stroke-width="2" paint-order="fill" stroke-opacity="1" stroke-dasharray="" stroke-linecap="butt" stroke-linejoin="bevel" stroke-miterlimit="10" transform_matrix="{&quot;a&quot;:1,&quot;b&quot;:0,&quot;c&quot;:0,&quot;d&quot;:1,&quot;e&quot;:0,&quot;f&quot;:0}" my_stoke="rgb(255, 255, 255)" my_stoke_width="2px" my_stoke_opacity="1" my_fill="rgb(255, 140, 117)" my_fill_opacity="1" my_font_size="16px" opacity="1"/><path d="M 204.8519 568.2432 A 309.2 309.2 0 0 1 179.5008 526.8739 L 235.4616 498.3604 A 246.3938 246.3938 0 0 0 255.6633 531.3266 Z" fill="rgb(221, 221, 221)" fill-opacity="1" stroke="white" stroke-width="2" paint-order="fill" stroke-opacity="1" stroke-dasharray="" stroke-linecap="butt" stroke-linejoin="bevel" stroke-miterlimit="10" transform_matrix="{&quot;a&quot;:1,&quot;b&quot;:0,&quot;c&quot;:0,&quot;d&quot;:1,&quot;e&quot;:0,&quot;f&quot;:0}" my_stoke="rgb(255, 255, 255)" my_stoke_width="2px" my_stoke_opacity="1" my_fill="rgb(221, 221, 221)" my_fill_opacity="1" my_font_size="16px" opacity="1"/><path d="M 220.6656 462.6399 A 246.3938 246.3938 0 0 1 208.6062 386.5 L 271.4125 386.5 A 183.5875 183.5875 0 0 0 280.3979 443.2317 Z" fill="rgb(245, 79, 74)" fill-opacity="1" stroke="white" stroke-width="2" paint-order="fill" stroke-opacity="1" stroke-dasharray="" stroke-linecap="butt" stroke-linejoin="bevel" stroke-miterlimit="10" transform_matrix="{&quot;a&quot;:1,&quot;b&quot;:0,&quot;c&quot;:0,&quot;d&quot;:1,&quot;e&quot;:0,&quot;f&quot;:0}" my_stoke="rgb(255, 255, 255)" my_stoke_width="2px" my_stoke_opacity="1" my_fill="rgb(245, 79, 74)" my_fill_opacity="1" my_font_size="16px" opacity="1"/><path d="M 160.9333 482.0481 A 309.2 309.2 0 0 1 149.6068 434.8695 L 211.6398 425.0445 A 246.3938 246.3938 0 0 0 220.6656 462.6399 Z" fill="rgb(221, 221, 221)" fill-opacity="1" stroke="white" stroke-width="2" paint-order="fill" stroke-opacity="1" stroke-dasharray="" stroke-linecap="butt" stroke-linejoin="bevel" stroke-miterlimit="10" transform_matrix="{&quot;a&quot;:1,&quot;b&quot;:0,&quot;c&quot;:0,&quot;d&quot;:1,&quot;e&quot;:0,&quot;f&quot;:0}" my_stoke="rgb(255, 255, 255)" my_stoke_width="2px" my_stoke_opacity="1" my_fill="rgb(221, 221, 221)" my_fill_opacity="1" my_font_size="16px" opacity="1"/><path d="M 149.6068 434.8695 A 309.2 309.2 0 0 1 145.8 386.5 L 208.6062 386.5 A 246.3938 246.3938 0 0 0 211.6398 425.0445 Z" fill="rgb(245, 79, 74)" fill-opacity="1" stroke="white" stroke-width="2" paint-order="fill" stroke-opacity="1" stroke-dasharray="" stroke-linecap="butt" stroke-linejoin="bevel" stroke-miterlimit="10" transform_matrix="{&quot;a&quot;:1,&quot;b&quot;:0,&quot;c&quot;:0,&quot;d&quot;:1,&quot;e&quot;:0,&quot;f&quot;:0}" my_stoke="rgb(255, 255, 255)" my_stoke_width="2px" my_stoke_opacity="1" my_fill="rgb(245, 79, 74)" my_fill_opacity="1" my_font_size="16px" opacity="1"/><path d="M 335.7058 367.6056 A 120.7813 120.7813 0 0 1 455 265.7188 L 455 328.525 A 57.975 57.975 0 0 0 397.7388 377.4307 Z" fill="rgb(245, 79, 74)" fill-opacity="1" stroke="white" stroke-width="2" paint-order="fill" stroke-opacity="1" stroke-dasharray="" stroke-linecap="butt" stroke-linejoin="bevel" stroke-miterlimit="10" transform_matrix="{&quot;a&quot;:1,&quot;b&quot;:0,&quot;c&quot;:0,&quot;d&quot;:1,&quot;e&quot;:0,&quot;f&quot;:0}" my_stoke="rgb(255, 255, 255)" my_stoke_width="2px" my_stoke_opacity="1" my_fill="rgb(245, 79, 74)" my_fill_opacity="1" my_font_size="16px" opacity="1"/><path d="M 273.6728 357.7806 A 183.5875 183.5875 0 0 1 371.653 222.9223 L 400.1665 278.8831 A 120.7813 120.7813 0 0 0 335.7058 367.6056 Z" fill="rgb(255, 180, 153)" fill-opacity="1" stroke="white" stroke-width="2" paint-order="fill" stroke-opacity="1" stroke-dasharray="" stroke-linecap="butt" stroke-linejoin="bevel" stroke-miterlimit="10" transform_matrix="{&quot;a&quot;:1,&quot;b&quot;:0,&quot;c&quot;:0,&quot;d&quot;:1,&quot;e&quot;:0,&quot;f&quot;:0}" my_stoke="rgb(255, 255, 255)" my_stoke_width="2px" my_stoke_opacity="1" my_fill="rgb(255, 180, 153)" my_fill_opacity="1" my_font_size="16px" opacity="1"/><path d="M 211.6398 347.9555 A 246.3938 246.3938 0 0 1 220.6656 310.3601 L 280.3979 329.7683 A 183.5875 183.5875 0 0 0 273.6728 357.7806 Z" fill="rgb(255, 140, 117)" fill-opacity="1" stroke="white" stroke-width="2" paint-order="fill" stroke-opacity="1" stroke-dasharray="" stroke-linecap="butt" stroke-linejoin="bevel" stroke-miterlimit="10" transform_matrix="{&quot;a&quot;:1,&quot;b&quot;:0,&quot;c&quot;:0,&quot;d&quot;:1,&quot;e&quot;:0,&quot;f&quot;:0}" my_stoke="rgb(255, 255, 255)" my_stoke_width="2px" my_stoke_opacity="1" my_fill="rgb(255, 140, 117)" my_fill_opacity="1" my_font_size="16px" opacity="1"/><path d="M 220.6656 310.3601 A 246.3938 246.3938 0 0 1 255.6633 241.6734 L 306.4746 278.59 A 183.5875 183.5875 0 0 0 280.3979 329.7683 Z" fill="rgb(245, 79, 74)" fill-opacity="1" stroke="white" stroke-width="2" paint-order="fill" stroke-opacity="1" stroke-dasharray="" stroke-linecap="butt" stroke-linejoin="bevel" stroke-miterlimit="10" transform_matrix="{&quot;a&quot;:1,&quot;b&quot;:0,&quot;c&quot;:0,&quot;d&quot;:1,&quot;e&quot;:0,&quot;f&quot;:0}" my_stoke="rgb(255, 255, 255)" my_stoke_width="2px" my_stoke_opacity="1" my_fill="rgb(245, 79, 74)" my_fill_opacity="1" my_font_size="16px" opacity="1"/><path d="M 160.9333 290.9519 A 309.2 309.2 0 0 1 204.8519 204.7568 L 255.6633 241.6734 A 246.3938 246.3938 0 0 0 220.6656 310.3601 Z" fill="rgb(255, 140, 117)" fill-opacity="1" stroke="white" stroke-width="2" paint-order="fill" stroke-opacity="1" stroke-dasharray="" stroke-linecap="butt" stroke-linejoin="bevel" stroke-miterlimit="10" transform_matrix="{&quot;a&quot;:1,&quot;b&quot;:0,&quot;c&quot;:0,&quot;d&quot;:1,&quot;e&quot;:0,&quot;f&quot;:0}" my_stoke="rgb(255, 255, 255)" my_stoke_width="2px" my_stoke_opacity="1" my_fill="rgb(255, 140, 117)" my_fill_opacity="1" my_font_size="16px" opacity="1"/><path d="M 255.6633 241.6734 A 246.3938 246.3938 0 0 1 280.7733 212.2733 L 325.184 256.684 A 183.5875 183.5875 0 0 0 306.4746 278.59 Z" fill="rgb(255, 180, 153)" fill-opacity="1" stroke="white" stroke-width="2" paint-order="fill" stroke-opacity="1" stroke-dasharray="" stroke-linecap="butt" stroke-linejoin="bevel" stroke-miterlimit="10" transform_matrix="{&quot;a&quot;:1,&quot;b&quot;:0,&quot;c&quot;:0,&quot;d&quot;:1,&quot;e&quot;:0,&quot;f&quot;:0}" my_stoke="rgb(255, 255, 255)" my_stoke_width="2px" my_stoke_opacity="1" my_fill="rgb(255, 180, 153)" my_fill_opacity="1" my_font_size="16px" opacity="1"/><path d="M 371.653 222.9223 A 183.5875 183.5875 0 0 1 455 202.9125 L 455 265.7188 A 120.7813 120.7813 0 0 0 400.1665 278.8831 Z" fill="rgb(255, 180, 153)" fill-opacity="1" stroke="white" stroke-width="2" paint-order="fill" stroke-opacity="1" stroke-dasharray="" stroke-linecap="butt" stroke-linejoin="bevel" stroke-miterlimit="10" transform_matrix="{&quot;a&quot;:1,&quot;b&quot;:0,&quot;c&quot;:0,&quot;d&quot;:1,&quot;e&quot;:0,&quot;f&quot;:0}" my_stoke="rgb(255, 255, 255)" my_stoke_width="2px" my_stoke_opacity="1" my_fill="rgb(255, 180, 153)" my_fill_opacity="1" my_font_size="16px" opacity="1"/><path d="M 343.1396 166.9616 A 246.3938 246.3938 0 0 1 378.8601 152.1656 L 398.2683 211.8979 A 183.5875 183.5875 0 0 0 371.653 222.9223 Z" fill="rgb(221, 221, 221)" fill-opacity="1" stroke="white" stroke-width="2" paint-order="fill" stroke-opacity="1" stroke-dasharray="" stroke-linecap="butt" stroke-linejoin="bevel" stroke-miterlimit="10" transform_matrix="{&quot;a&quot;:1,&quot;b&quot;:0,&quot;c&quot;:0,&quot;d&quot;:1,&quot;e&quot;:0,&quot;f&quot;:0}" my_stoke="rgb(255, 255, 255)" my_stoke_width="2px" my_stoke_opacity="1" my_fill="rgb(221, 221, 221)" my_fill_opacity="1" my_font_size="16px" opacity="1"/><path d="M 378.8601 152.1656 A 246.3938 246.3938 0 0 1 416.4555 143.1398 L 426.2806 205.1728 A 183.5875 183.5875 0 0 0 398.2683 211.8979 Z" fill="rgb(221, 221, 221)" fill-opacity="1" stroke="white" stroke-width="2" paint-order="fill" stroke-opacity="1" stroke-dasharray="" stroke-linecap="butt" stroke-linejoin="bevel" stroke-miterlimit="10" transform_matrix="{&quot;a&quot;:1,&quot;b&quot;:0,&quot;c&quot;:0,&quot;d&quot;:1,&quot;e&quot;:0,&quot;f&quot;:0}" my_stoke="rgb(255, 255, 255)" my_stoke_width="2px" my_stoke_opacity="1" my_fill="rgb(221, 221, 221)" my_fill_opacity="1" my_font_size="16px" opacity="1"/><path d="M 359.4519 92.4333 A 309.2 309.2 0 0 1 406.6305 81.1068 L 416.4555 143.1398 A 246.3938 246.3938 0 0 0 378.8601 152.1656 Z" fill="rgb(255, 140, 117)" fill-opacity="1" stroke="white" stroke-width="2" paint-order="fill" stroke-opacity="1" stroke-dasharray="" stroke-linecap="butt" stroke-linejoin="bevel" stroke-miterlimit="10" transform_matrix="{&quot;a&quot;:1,&quot;b&quot;:0,&quot;c&quot;:0,&quot;d&quot;:1,&quot;e&quot;:0,&quot;f&quot;:0}" my_stoke="rgb(255, 255, 255)" my_stoke_width="2px" my_stoke_opacity="1" my_fill="rgb(255, 140, 117)" my_fill_opacity="1" my_font_size="16px" opacity="1"/><path d="M 416.4555 143.1398 A 246.3938 246.3938 0 0 1 455 140.1062 L 455 202.9125 A 183.5875 183.5875 0 0 0 426.2806 205.1728 Z" fill="rgb(221, 221, 221)" fill-opacity="1" stroke="white" stroke-width="2" paint-order="fill" stroke-opacity="1" stroke-dasharray="" stroke-linecap="butt" stroke-linejoin="bevel" stroke-miterlimit="10" transform_matrix="{&quot;a&quot;:1,&quot;b&quot;:0,&quot;c&quot;:0,&quot;d&quot;:1,&quot;e&quot;:0,&quot;f&quot;:0}" my_stoke="rgb(255, 255, 255)" my_stoke_width="2px" my_stoke_opacity="1" my_fill="rgb(221, 221, 221)" my_fill_opacity="1" my_font_size="16px" opacity="1"/></g></svg>