<svg xmlns="http://www.w3.org/2000/svg" xmlns:xlink="http://www.w3.org/1999/xlink" version="1.1" baseProfile="full" width="910" height="773" style="user-select: none; position: absolute; left: 0px; top: 0px;" transform_matrix="{&quot;a&quot;:1,&quot;b&quot;:0,&quot;c&quot;:0,&quot;d&quot;:1,&quot;e&quot;:0,&quot;f&quot;:0}"><g><path d="M 455 261.7337 A 7 7 0 0 1 462.3921 254.7447 A 131.9625 131.9625 0 1 1 367.0725 288.0985 A 7 7 0 0 1 377.2095 288.9538 L 413.4548 334.404 A 7 7 0 0 1 412.8943 343.7553 A 60 60 0 1 0 461.2687 326.8284 A 7 7 0 0 1 455 319.8667 Z" fill="rgb(145, 204, 117)" fill-opacity="1" stroke="white" stroke-width="2" paint-order="fill" stroke-opacity="1" stroke-dasharray="" stroke-linecap="butt" stroke-linejoin="bevel" stroke-miterlimit="10" transform_matrix="{&quot;a&quot;:1,&quot;b&quot;:0,&quot;c&quot;:0,&quot;d&quot;:1,&quot;e&quot;:0,&quot;f&quot;:0}" my_stoke="rgb(255, 255, 255)" my_stoke_width="2px" my_stoke_opacity="1" my_fill="rgb(145, 204, 117)" my_fill_opacity="1" my_font_size="16px" opacity="1"/><path d="M 455 189.6995 A 7 7 0 0 1 462.2488 182.7039 A 203.925 203.925 0 1 1 416.7182 586.7995 A 7 7 0 0 1 411.2078 578.3663 L 424.1172 521.8064 A 7 7 0 0 1 432.1536 516.4698 A 131.9625 131.9625 0 1 0 461.6474 254.705 A 7 7 0 0 1 455 247.7139 Z" fill="rgb(158, 210, 134)" fill-opacity="1" stroke="white" stroke-width="2" paint-order="fill" stroke-opacity="1" stroke-dasharray="" stroke-linecap="butt" stroke-linejoin="bevel" stroke-miterlimit="10" transform_matrix="{&quot;a&quot;:1,&quot;b&quot;:0,&quot;c&quot;:0,&quot;d&quot;:1,&quot;e&quot;:0,&quot;f&quot;:0}" my_stoke="rgb(255, 255, 255)" my_stoke_width="2px" my_stoke_opacity="1" my_fill="rgb(158, 210, 134)" my_fill_opacity="1" my_font_size="16px" opacity="1"/><path d="M 455 117.7036 A 7 7 0 0 1 462.1822 110.706 A 275.8875 275.8875 0 0 1 700.3656 260.3665 A 7 7 0 0 1 697.1772 269.8736 L 644.9322 295.0335 A 7 7 0 0 1 635.6925 291.9715 A 203.925 203.925 0 0 0 461.7677 182.6873 A 7 7 0 0 1 455 175.6912 Z" fill="rgb(172, 216, 151)" fill-opacity="1" stroke="white" stroke-width="2" paint-order="fill" stroke-opacity="1" stroke-dasharray="" stroke-linecap="butt" stroke-linejoin="bevel" stroke-miterlimit="10" transform_matrix="{&quot;a&quot;:1,&quot;b&quot;:0,&quot;c&quot;:0,&quot;d&quot;:1,&quot;e&quot;:0,&quot;f&quot;:0}" my_stoke="rgb(255, 255, 255)" my_stoke_width="2px" my_stoke_opacity="1" my_fill="rgb(172, 216, 151)" my_fill_opacity="1" my_font_size="16px" opacity="1"/><path d="M 455 45.7219 A 7 7 0 0 1 462.1438 38.7234 A 347.85 347.85 0 0 1 599.4583 70.0645 A 7 7 0 0 1 602.8581 79.4695 L 577.7027 131.7052 A 7 7 0 0 1 568.5157 135.048 A 275.8875 275.8875 0 0 0 461.8268 110.697 A 7 7 0 0 1 455 103.6991 Z" fill="rgb(186, 223, 168)" fill-opacity="1" stroke="white" stroke-width="2" paint-order="fill" stroke-opacity="1" stroke-dasharray="" stroke-linecap="butt" stroke-linejoin="bevel" stroke-miterlimit="10" transform_matrix="{&quot;a&quot;:1,&quot;b&quot;:0,&quot;c&quot;:0,&quot;d&quot;:1,&quot;e&quot;:0,&quot;f&quot;:0}" my_stoke="rgb(255, 255, 255)" my_stoke_width="2px" my_stoke_opacity="1" my_fill="rgb(186, 223, 168)" my_fill_opacity="1" my_font_size="16px" opacity="1"/><path d="M 697.1772 269.8736 A 7 7 0 0 1 706.5981 273.3084 A 275.8875 275.8875 0 0 1 706.5981 499.6916 A 7 7 0 0 1 697.1772 503.1264 L 644.9322 477.9665 A 7 7 0 0 1 641.5653 468.8335 A 203.925 203.925 0 0 0 641.5653 304.1665 A 7 7 0 0 1 644.9322 295.0335 Z" fill="rgb(172, 216, 151)" fill-opacity="1" stroke="white" stroke-width="2" paint-order="fill" stroke-opacity="1" stroke-dasharray="" stroke-linecap="butt" stroke-linejoin="bevel" stroke-miterlimit="10" transform_matrix="{&quot;a&quot;:1,&quot;b&quot;:0,&quot;c&quot;:0,&quot;d&quot;:1,&quot;e&quot;:0,&quot;f&quot;:0}" my_stoke="rgb(255, 255, 255)" my_stoke_width="2px" my_stoke_opacity="1" my_fill="rgb(172, 216, 151)" my_fill_opacity="1" my_font_size="16px" opacity="1"/><path d="M 697.1772 503.1264 A 7 7 0 0 1 700.3656 512.6335 A 275.8875 275.8875 0 0 1 632.57 597.6464 A 7 7 0 0 1 622.5918 596.6535 L 586.4371 551.317 A 7 7 0 0 1 587.3663 541.6276 A 203.925 203.925 0 0 0 635.6925 481.0285 A 7 7 0 0 1 644.9322 477.9665 Z" fill="rgb(172, 216, 151)" fill-opacity="1" stroke="white" stroke-width="2" paint-order="fill" stroke-opacity="1" stroke-dasharray="" stroke-linecap="butt" stroke-linejoin="bevel" stroke-miterlimit="10" transform_matrix="{&quot;a&quot;:1,&quot;b&quot;:0,&quot;c&quot;:0,&quot;d&quot;:1,&quot;e&quot;:0,&quot;f&quot;:0}" my_stoke="rgb(255, 255, 255)" my_stoke_width="2px" my_stoke_opacity="1" my_fill="rgb(172, 216, 151)" my_fill_opacity="1" my_font_size="16px" opacity="1"/><path d="M 411.2078 578.3663 A 7 7 0 0 1 402.584 583.5735 A 203.925 203.925 0 0 1 322.2678 231.6853 A 7 7 0 0 1 332.2969 232.6351 L 368.4683 277.9927 A 7 7 0 0 1 367.63 287.6031 A 131.9625 131.9625 0 0 0 419.1921 513.5114 A 7 7 0 0 1 424.1172 521.8064 Z" fill="rgb(158, 210, 134)" fill-opacity="1" stroke="white" stroke-width="2" paint-order="fill" stroke-opacity="1" stroke-dasharray="" stroke-linecap="butt" stroke-linejoin="bevel" stroke-miterlimit="10" transform_matrix="{&quot;a&quot;:1,&quot;b&quot;:0,&quot;c&quot;:0,&quot;d&quot;:1,&quot;e&quot;:0,&quot;f&quot;:0}" my_stoke="rgb(255, 255, 255)" my_stoke_width="2px" my_stoke_opacity="1" my_fill="rgb(158, 210, 134)" my_fill_opacity="1" my_font_size="16px" opacity="1"/><path d="M 395.1872 648.5571 A 7 7 0 0 1 386.6279 653.7811 A 275.8875 275.8875 0 0 1 187.7189 454.8721 A 7 7 0 0 1 192.9429 446.3128 L 249.4766 433.4094 A 7 7 0 0 1 257.8033 438.4506 A 203.925 203.925 0 0 0 403.0494 583.6967 A 7 7 0 0 1 408.0906 592.0234 Z" fill="rgb(172, 216, 151)" fill-opacity="1" stroke="white" stroke-width="2" paint-order="fill" stroke-opacity="1" stroke-dasharray="" stroke-linecap="butt" stroke-linejoin="bevel" stroke-miterlimit="10" transform_matrix="{&quot;a&quot;:1,&quot;b&quot;:0,&quot;c&quot;:0,&quot;d&quot;:1,&quot;e&quot;:0,&quot;f&quot;:0}" my_stoke="rgb(255, 255, 255)" my_stoke_width="2px" my_stoke_opacity="1" my_fill="rgb(172, 216, 151)" my_fill_opacity="1" my_font_size="16px" opacity="1"/><path d="M 192.9429 446.3128 A 7 7 0 0 1 184.5225 440.8678 A 275.8875 275.8875 0 0 1 179.206 393.6822 A 7 7 0 0 1 186.2036 386.5 L 244.1912 386.5 A 7 7 0 0 1 251.1873 393.2677 A 203.925 203.925 0 0 0 254.7914 425.2546 A 7 7 0 0 1 249.4766 433.4094 Z" fill="rgb(172, 216, 151)" fill-opacity="1" stroke="white" stroke-width="2" paint-order="fill" stroke-opacity="1" stroke-dasharray="" stroke-linecap="butt" stroke-linejoin="bevel" stroke-miterlimit="10" transform_matrix="{&quot;a&quot;:1,&quot;b&quot;:0,&quot;c&quot;:0,&quot;d&quot;:1,&quot;e&quot;:0,&quot;f&quot;:0}" my_stoke="rgb(255, 255, 255)" my_stoke_width="2px" my_stoke_opacity="1" my_fill="rgb(172, 216, 151)" my_fill_opacity="1" my_font_size="16px" opacity="1"/><path d="M 377.2095 288.9538 A 7 7 0 0 1 378.6313 278.8807 A 131.9625 131.9625 0 0 1 447.6079 254.7447 A 7 7 0 0 1 455 261.7337 L 455 319.8667 A 7 7 0 0 1 448.7313 326.8284 A 60 60 0 0 0 422.6964 335.9384 A 7 7 0 0 1 413.4548 334.404 Z" fill="rgb(250, 200, 88)" fill-opacity="1" stroke="white" stroke-width="2" paint-order="fill" stroke-opacity="1" stroke-dasharray="" stroke-linecap="butt" stroke-linejoin="bevel" stroke-miterlimit="10" transform_matrix="{&quot;a&quot;:1,&quot;b&quot;:0,&quot;c&quot;:0,&quot;d&quot;:1,&quot;e&quot;:0,&quot;f&quot;:0}" my_stoke="rgb(255, 255, 255)" my_stoke_width="2px" my_stoke_opacity="1" my_fill="rgb(250, 200, 88)" my_fill_opacity="1" my_font_size="16px" opacity="1"/><path d="M 332.2969 232.6351 A 7 7 0 0 1 333.6026 222.6462 A 203.925 203.925 0 0 1 447.7512 182.7039 A 7 7 0 0 1 455 189.6995 L 455 247.7139 A 7 7 0 0 1 448.3526 254.705 A 131.9625 131.9625 0 0 0 378.0243 279.314 A 7 7 0 0 1 368.4683 277.9927 Z" fill="rgb(250, 206, 108)" fill-opacity="1" stroke="white" stroke-width="2" paint-order="fill" stroke-opacity="1" stroke-dasharray="" stroke-linecap="butt" stroke-linejoin="bevel" stroke-miterlimit="10" transform_matrix="{&quot;a&quot;:1,&quot;b&quot;:0,&quot;c&quot;:0,&quot;d&quot;:1,&quot;e&quot;:0,&quot;f&quot;:0}" my_stoke="rgb(255, 255, 255)" my_stoke_width="2px" my_stoke_opacity="1" my_fill="rgb(250, 206, 108)" my_fill_opacity="1" my_font_size="16px" opacity="1"/><path d="M 287.4082 176.3465 A 7 7 0 0 1 288.6606 166.3975 A 275.8875 275.8875 0 0 1 386.6279 119.2189 A 7 7 0 0 1 395.1872 124.4429 L 408.0906 180.9766 A 7 7 0 0 1 403.0494 189.3033 A 203.925 203.925 0 0 0 333.2161 222.9333 A 7 7 0 0 1 323.5629 221.683 Z" fill="rgb(251, 213, 129)" fill-opacity="1" stroke="white" stroke-width="2" paint-order="fill" stroke-opacity="1" stroke-dasharray="" stroke-linecap="butt" stroke-linejoin="bevel" stroke-miterlimit="10" transform_matrix="{&quot;a&quot;:1,&quot;b&quot;:0,&quot;c&quot;:0,&quot;d&quot;:1,&quot;e&quot;:0,&quot;f&quot;:0}" my_stoke="rgb(255, 255, 255)" my_stoke_width="2px" my_stoke_opacity="1" my_fill="rgb(251, 213, 129)" my_fill_opacity="1" my_font_size="16px" opacity="1"/><path d="M 395.1872 124.4429 A 7 7 0 0 1 400.6322 116.0225 A 275.8875 275.8875 0 0 1 447.8178 110.706 A 7 7 0 0 1 455 117.7036 L 455 175.6912 A 7 7 0 0 1 448.2323 182.6873 A 203.925 203.925 0 0 0 416.2454 186.2914 A 7 7 0 0 1 408.0906 180.9766 Z" fill="rgb(251, 213, 129)" fill-opacity="1" stroke="white" stroke-width="2" paint-order="fill" stroke-opacity="1" stroke-dasharray="" stroke-linecap="butt" stroke-linejoin="bevel" stroke-miterlimit="10" transform_matrix="{&quot;a&quot;:1,&quot;b&quot;:0,&quot;c&quot;:0,&quot;d&quot;:1,&quot;e&quot;:0,&quot;f&quot;:0}" my_stoke="rgb(255, 255, 255)" my_stoke_width="2px" my_stoke_opacity="1" my_fill="rgb(251, 213, 129)" my_fill_opacity="1" my_font_size="16px" opacity="1"/></g></svg>