<svg xmlns="http://www.w3.org/2000/svg" xmlns:xlink="http://www.w3.org/1999/xlink" version="1.1" baseProfile="full" width="910" height="773" style="user-select: none; position: absolute; left: 0px; top: 0px;" transform_matrix="{&quot;a&quot;:1,&quot;b&quot;:0,&quot;c&quot;:0,&quot;d&quot;:1,&quot;e&quot;:0,&quot;f&quot;:0}"><g><defs/><path d="M 45.5 38.65 L 45.5 734.35 M 175.5 38.65 L 175.5 734.35 M 304.5 38.65 L 304.5 734.35 M 433.5 38.65 L 433.5 734.35 M 563.5 38.65 L 563.5 734.35 M 692.5 38.65 L 692.5 734.35 M 821.5 38.65 L 821.5 734.35 M 864.5 38.65 L 864.5 734.35" fill="rgb(0, 0, 0)" fill-opacity="0.2" stroke="#E0E6F1" stroke-width="1" paint-order="fill" stroke-opacity="0.2" stroke-dasharray="4,2" stroke-dashoffset="0" stroke-linecap="butt" stroke-miterlimit="10" transform_matrix="{&quot;a&quot;:1,&quot;b&quot;:0,&quot;c&quot;:0,&quot;d&quot;:1,&quot;e&quot;:0,&quot;f&quot;:0}" my_stoke="rgb(224, 230, 241)" my_stoke_width="1px" my_stoke_opacity="0.2" my_fill="rgb(0, 0, 0)" my_fill_opacity="0.2" my_font_size="16px" opacity="1"/><path d="M 45.5 734.5 L 864.5 734.5" fill="none" stroke="#6E7079" stroke-width="1" paint-order="fill" stroke-opacity="1" stroke-dasharray="" stroke-linecap="round" stroke-miterlimit="10" transform_matrix="{&quot;a&quot;:1,&quot;b&quot;:0,&quot;c&quot;:0,&quot;d&quot;:1,&quot;e&quot;:0,&quot;f&quot;:0}" my_stoke="rgb(110, 112, 121)" my_stoke_width="1px" my_stoke_opacity="1" my_fill="none" my_fill_opacity="1" my_font_size="16px" opacity="1"/><path d="M 45.5 734.35 L 45.5 740.35" fill="none" stroke="#6E7079" stroke-width="1" paint-order="fill" stroke-opacity="1" stroke-dasharray="" stroke-linecap="butt" stroke-miterlimit="10" transform_matrix="{&quot;a&quot;:1,&quot;b&quot;:0,&quot;c&quot;:0,&quot;d&quot;:1,&quot;e&quot;:0,&quot;f&quot;:0}" my_stoke="rgb(110, 112, 121)" my_stoke_width="1px" my_stoke_opacity="1" my_fill="none" my_fill_opacity="1" my_font_size="16px" opacity="1"/><path d="M 175.5 734.35 L 175.5 740.35" fill="none" stroke="#6E7079" stroke-width="1" paint-order="fill" stroke-opacity="1" stroke-dasharray="" stroke-linecap="butt" stroke-miterlimit="10" transform_matrix="{&quot;a&quot;:1,&quot;b&quot;:0,&quot;c&quot;:0,&quot;d&quot;:1,&quot;e&quot;:0,&quot;f&quot;:0}" my_stoke="rgb(110, 112, 121)" my_stoke_width="1px" my_stoke_opacity="1" my_fill="none" my_fill_opacity="1" my_font_size="16px" opacity="1"/><path d="M 304.5 734.35 L 304.5 740.35" fill="none" stroke="#6E7079" stroke-width="1" paint-order="fill" stroke-opacity="1" stroke-dasharray="" stroke-linecap="butt" stroke-miterlimit="10" transform_matrix="{&quot;a&quot;:1,&quot;b&quot;:0,&quot;c&quot;:0,&quot;d&quot;:1,&quot;e&quot;:0,&quot;f&quot;:0}" my_stoke="rgb(110, 112, 121)" my_stoke_width="1px" my_stoke_opacity="1" my_fill="none" my_fill_opacity="1" my_font_size="16px" opacity="1"/><path d="M 433.5 734.35 L 433.5 740.35" fill="none" stroke="#6E7079" stroke-width="1" paint-order="fill" stroke-opacity="1" stroke-dasharray="" stroke-linecap="butt" stroke-miterlimit="10" transform_matrix="{&quot;a&quot;:1,&quot;b&quot;:0,&quot;c&quot;:0,&quot;d&quot;:1,&quot;e&quot;:0,&quot;f&quot;:0}" my_stoke="rgb(110, 112, 121)" my_stoke_width="1px" my_stoke_opacity="1" my_fill="none" my_fill_opacity="1" my_font_size="16px" opacity="1"/><path d="M 563.5 734.35 L 563.5 740.35" fill="none" stroke="#6E7079" stroke-width="1" paint-order="fill" stroke-opacity="1" stroke-dasharray="" stroke-linecap="butt" stroke-miterlimit="10" transform_matrix="{&quot;a&quot;:1,&quot;b&quot;:0,&quot;c&quot;:0,&quot;d&quot;:1,&quot;e&quot;:0,&quot;f&quot;:0}" my_stoke="rgb(110, 112, 121)" my_stoke_width="1px" my_stoke_opacity="1" my_fill="none" my_fill_opacity="1" my_font_size="16px" opacity="1"/><path d="M 692.5 734.35 L 692.5 740.35" fill="none" stroke="#6E7079" stroke-width="1" paint-order="fill" stroke-opacity="1" stroke-dasharray="" stroke-linecap="butt" stroke-miterlimit="10" transform_matrix="{&quot;a&quot;:1,&quot;b&quot;:0,&quot;c&quot;:0,&quot;d&quot;:1,&quot;e&quot;:0,&quot;f&quot;:0}" my_stoke="rgb(110, 112, 121)" my_stoke_width="1px" my_stoke_opacity="1" my_fill="none" my_fill_opacity="1" my_font_size="16px" opacity="1"/><path d="M 821.5 734.35 L 821.5 740.35" fill="none" stroke="#6E7079" stroke-width="1" paint-order="fill" stroke-opacity="1" stroke-dasharray="" stroke-linecap="butt" stroke-miterlimit="10" transform_matrix="{&quot;a&quot;:1,&quot;b&quot;:0,&quot;c&quot;:0,&quot;d&quot;:1,&quot;e&quot;:0,&quot;f&quot;:0}" my_stoke="rgb(110, 112, 121)" my_stoke_width="1px" my_stoke_opacity="1" my_fill="none" my_fill_opacity="1" my_font_size="16px" opacity="1"/><path d="M 864.5 734.35 L 864.5 740.35" fill="none" stroke="#6E7079" stroke-width="1" paint-order="fill" stroke-opacity="1" stroke-dasharray="" stroke-linecap="butt" stroke-miterlimit="10" transform_matrix="{&quot;a&quot;:1,&quot;b&quot;:0,&quot;c&quot;:0,&quot;d&quot;:1,&quot;e&quot;:0,&quot;f&quot;:0}" my_stoke="rgb(110, 112, 121)" my_stoke_width="1px" my_stoke_opacity="1" my_fill="none" my_fill_opacity="1" my_font_size="16px" opacity="1"/><text xml:space="preserve" fill="rgb(110, 112, 121)" fill-opacity="1" stroke="none" transform="matrix(1,0,0,1,45.5,742.35)" dominant-baseline="central" text-anchor="middle" x="0" y="6" style="font: 12px &quot;Microsoft YaHei&quot;; fill: rgb(110, 112, 121);" transform_matrix="{&quot;a&quot;:1,&quot;b&quot;:0,&quot;c&quot;:0,&quot;d&quot;:1,&quot;e&quot;:45.5,&quot;f&quot;:742.3499755859375}" text_bbox="{&quot;x&quot;:-3.53125,&quot;y&quot;:-2,&quot;w&quot;:7.0625,&quot;h&quot;:16}" opacity="1" stroke-width="1px" stroke-opacity="1" font-family="&quot;Microsoft YaHei&quot;" my_stoke="none" my_stoke_width="1px" my_stoke_opacity="1" my_fill="rgb(110, 112, 121)" my_fill_opacity="1" my_font_size="12px" clip-path="none" content="0">0</text><text xml:space="preserve" fill="rgb(110, 112, 121)" fill-opacity="1" stroke="none" transform="matrix(1,0,0,1,174.8158,742.35)" dominant-baseline="central" text-anchor="middle" x="0" y="6" style="font: 12px &quot;Microsoft YaHei&quot;; fill: rgb(110, 112, 121);" transform_matrix="{&quot;a&quot;:1,&quot;b&quot;:0,&quot;c&quot;:0,&quot;d&quot;:1,&quot;e&quot;:174.8157958984375,&quot;f&quot;:742.3499755859375}" text_bbox="{&quot;x&quot;:-3.53125,&quot;y&quot;:-2,&quot;w&quot;:7.0625,&quot;h&quot;:16}" opacity="1" stroke-width="1px" stroke-opacity="1" font-family="&quot;Microsoft YaHei&quot;" my_stoke="none" my_stoke_width="1px" my_stoke_opacity="1" my_fill="rgb(110, 112, 121)" my_fill_opacity="1" my_font_size="12px" clip-path="none" content="3">3</text><text xml:space="preserve" fill="rgb(110, 112, 121)" fill-opacity="1" stroke="none" transform="matrix(1,0,0,1,304.1316,742.35)" dominant-baseline="central" text-anchor="middle" x="0" y="6" style="font: 12px &quot;Microsoft YaHei&quot;; fill: rgb(110, 112, 121);" transform_matrix="{&quot;a&quot;:1,&quot;b&quot;:0,&quot;c&quot;:0,&quot;d&quot;:1,&quot;e&quot;:304.131591796875,&quot;f&quot;:742.3499755859375}" text_bbox="{&quot;x&quot;:-3.53125,&quot;y&quot;:-2,&quot;w&quot;:7.0625,&quot;h&quot;:16}" opacity="1" stroke-width="1px" stroke-opacity="1" font-family="&quot;Microsoft YaHei&quot;" my_stoke="none" my_stoke_width="1px" my_stoke_opacity="1" my_fill="rgb(110, 112, 121)" my_fill_opacity="1" my_font_size="12px" clip-path="none" content="6">6</text><text xml:space="preserve" fill="rgb(110, 112, 121)" fill-opacity="1" stroke="none" transform="matrix(1,0,0,1,433.4474,742.35)" dominant-baseline="central" text-anchor="middle" x="0" y="6" style="font: 12px &quot;Microsoft YaHei&quot;; fill: rgb(110, 112, 121);" transform_matrix="{&quot;a&quot;:1,&quot;b&quot;:0,&quot;c&quot;:0,&quot;d&quot;:1,&quot;e&quot;:433.4473876953125,&quot;f&quot;:742.3499755859375}" text_bbox="{&quot;x&quot;:-3.53125,&quot;y&quot;:-2,&quot;w&quot;:7.0625,&quot;h&quot;:16}" opacity="1" stroke-width="1px" stroke-opacity="1" font-family="&quot;Microsoft YaHei&quot;" my_stoke="none" my_stoke_width="1px" my_stoke_opacity="1" my_fill="rgb(110, 112, 121)" my_fill_opacity="1" my_font_size="12px" clip-path="none" content="9">9</text><text xml:space="preserve" fill="rgb(110, 112, 121)" fill-opacity="1" stroke="none" transform="matrix(1,0,0,1,562.7632,742.35)" dominant-baseline="central" text-anchor="middle" x="0" y="6" style="font: 12px &quot;Microsoft YaHei&quot;; fill: rgb(110, 112, 121);" transform_matrix="{&quot;a&quot;:1,&quot;b&quot;:0,&quot;c&quot;:0,&quot;d&quot;:1,&quot;e&quot;:562.76318359375,&quot;f&quot;:742.3499755859375}" text_bbox="{&quot;x&quot;:-7.046875,&quot;y&quot;:-2,&quot;w&quot;:14.09375,&quot;h&quot;:16}" opacity="1" stroke-width="1px" stroke-opacity="1" font-family="&quot;Microsoft YaHei&quot;" my_stoke="none" my_stoke_width="1px" my_stoke_opacity="1" my_fill="rgb(110, 112, 121)" my_fill_opacity="1" my_font_size="12px" clip-path="none" content="12">12</text><text xml:space="preserve" fill="rgb(110, 112, 121)" fill-opacity="1" stroke="none" transform="matrix(1,0,0,1,692.0789,742.35)" dominant-baseline="central" text-anchor="middle" x="0" y="6" style="font: 12px &quot;Microsoft YaHei&quot;; fill: rgb(110, 112, 121);" transform_matrix="{&quot;a&quot;:1,&quot;b&quot;:0,&quot;c&quot;:0,&quot;d&quot;:1,&quot;e&quot;:692.0789184570312,&quot;f&quot;:742.3499755859375}" text_bbox="{&quot;x&quot;:-7.046875,&quot;y&quot;:-2,&quot;w&quot;:14.09375,&quot;h&quot;:16}" opacity="1" stroke-width="1px" stroke-opacity="1" font-family="&quot;Microsoft YaHei&quot;" my_stoke="none" my_stoke_width="1px" my_stoke_opacity="1" my_fill="rgb(110, 112, 121)" my_fill_opacity="1" my_font_size="12px" clip-path="none" content="15">15</text><text xml:space="preserve" fill="rgb(110, 112, 121)" fill-opacity="1" stroke="none" transform="matrix(1,0,0,1,821.3947,742.35)" dominant-baseline="central" text-anchor="middle" x="0" y="6" style="font: 12px &quot;Microsoft YaHei&quot;; fill: rgb(110, 112, 121);" transform_matrix="{&quot;a&quot;:1,&quot;b&quot;:0,&quot;c&quot;:0,&quot;d&quot;:1,&quot;e&quot;:821.3947143554688,&quot;f&quot;:742.3499755859375}" text_bbox="{&quot;x&quot;:-7.046875,&quot;y&quot;:-2,&quot;w&quot;:14.09375,&quot;h&quot;:16}" opacity="1" stroke-width="1px" stroke-opacity="1" font-family="&quot;Microsoft YaHei&quot;" my_stoke="none" my_stoke_width="1px" my_stoke_opacity="1" my_fill="rgb(110, 112, 121)" my_fill_opacity="1" my_font_size="12px" clip-path="none" content="18">18</text><text xml:space="preserve" fill="rgb(110, 112, 121)" fill-opacity="1" stroke="none" transform="matrix(1,0,0,1,864.5,742.35)" dominant-baseline="central" text-anchor="middle" x="0" y="6" style="font: 12px &quot;Microsoft YaHei&quot;; fill: rgb(110, 112, 121);" transform_matrix="{&quot;a&quot;:1,&quot;b&quot;:0,&quot;c&quot;:0,&quot;d&quot;:1,&quot;e&quot;:864.5,&quot;f&quot;:742.3499755859375}" text_bbox="{&quot;x&quot;:-7.046875,&quot;y&quot;:-2,&quot;w&quot;:14.09375,&quot;h&quot;:16}" opacity="1" stroke-width="1px" stroke-opacity="1" font-family="&quot;Microsoft YaHei&quot;" my_stoke="none" my_stoke_width="1px" my_stoke_opacity="1" my_fill="rgb(110, 112, 121)" my_fill_opacity="1" my_font_size="12px" clip-path="none" content="19">19</text><path d="M 45.5 208.5471 C 45.5 208.5471 63.4246 0 88.6053 0 C 97.9088 0 116.9908 38.1155 131.7105 65.8227 C 151.475 103.0258 154.8751 162.2757 174.8158 162.2757 C 189.3594 162.2757 201.6708 98.4081 217.9211 98.4081 C 236.155 98.4081 238.8336 148.6931 261.0263 173.3548 C 273.3178 187.0136 292.5324 180.0924 304.1316 194.2095 C 327.0166 222.0625 333.792 278.28 347.2368 278.28 C 368.2762 278.28 363.7404 136.859 390.3421 136.859 C 398.2247 136.859 418.7011 136.859 433.4474 144.6795 C 453.1853 155.1473 457.7799 170.6683 476.5526 184.4338 C 492.2642 195.9546 506.5794 207.8954 519.6579 207.8954 C 541.0636 207.8954 543.3409 140.1176 562.7632 140.1176 C 577.8251 140.1176 587.2174 168.7304 605.8684 185.0855 C 621.7016 198.9697 634.9975 215.7159 648.9737 215.7159 C 669.4817 215.7159 670.2928 151.1966 692.0789 151.1966 C 704.777 151.1966 725.5742 151.2249 735.1842 164.8825 C 760.0584 200.2335 753.1238 261.3979 778.2895 273.718 C 787.608 278.28 806.7381 278.28 821.3947 278.28 C 841.2223 278.28 864.5 238.5257 864.5 238.5257 C 864.5 238.5257 841.2223 278.28 821.3947 278.28 C 806.7381 278.28 787.608 278.28 778.2895 273.718 C 753.1238 261.3979 760.0584 200.2335 735.1842 164.8825 C 725.5742 151.2249 704.777 151.1966 692.0789 151.1966 C 670.2928 151.1966 669.4817 215.7159 648.9737 215.7159 C 634.9975 215.7159 621.7016 198.9697 605.8684 185.0855 C 587.2174 168.7304 577.8251 140.1176 562.7632 140.1176 C 543.3409 140.1176 541.0636 207.8954 519.6579 207.8954 C 506.5794 207.8954 492.2642 195.9546 476.5526 184.4338 C 457.7799 170.6683 453.1853 155.1473 433.4474 144.6795 C 418.7011 136.859 398.2247 136.859 390.3421 136.859 C 363.7404 136.859 368.2762 278.28 347.2368 278.28 C 333.792 278.28 327.0166 222.0625 304.1316 194.2095 C 292.5324 180.0924 273.3178 187.0136 261.0263 173.3548 C 238.8336 148.6931 236.155 98.4081 217.9211 98.4081 C 201.6708 98.4081 189.3594 162.2757 174.8158 162.2757 C 154.8751 162.2757 151.475 103.0258 131.7105 65.8227 C 116.9908 38.1155 97.9088 0 88.6053 0 C 63.4246 0 45.5 208.5471 45.5 208.5471 Z" fill="rgb(84, 112, 198)" fill-opacity="1" stroke="none" transform="matrix(1,0,0,1,0,108.22)" transform_matrix="{&quot;a&quot;:1,&quot;b&quot;:0,&quot;c&quot;:0,&quot;d&quot;:1,&quot;e&quot;:0,&quot;f&quot;:108.22000122070312}" my_stoke="none" my_stoke_width="1px" my_stoke_opacity="1" my_fill="rgb(84, 112, 198)" my_fill_opacity="1" my_font_size="16px" opacity="1"/><path d="M 45.5 208.5471 C 45.5 208.5471 63.4246 0 88.6053 0 C 97.9088 0 116.9908 38.1155 131.7105 65.8227 C 151.475 103.0258 154.8751 162.2757 174.8158 162.2757 C 189.3594 162.2757 201.6708 98.4081 217.9211 98.4081 C 236.155 98.4081 238.8336 148.6931 261.0263 173.3548 C 273.3178 187.0136 292.5324 180.0924 304.1316 194.2095 C 327.0166 222.0625 333.792 278.28 347.2368 278.28 C 368.2762 278.28 363.7404 136.859 390.3421 136.859 C 398.2247 136.859 418.7011 136.859 433.4474 144.6795 C 453.1853 155.1473 457.7799 170.6683 476.5526 184.4338 C 492.2642 195.9546 506.5794 207.8954 519.6579 207.8954 C 541.0636 207.8954 543.3409 140.1176 562.7632 140.1176 C 577.8251 140.1176 587.2174 168.7304 605.8684 185.0855 C 621.7016 198.9697 634.9975 215.7159 648.9737 215.7159 C 669.4817 215.7159 670.2928 151.1966 692.0789 151.1966 C 704.777 151.1966 725.5742 151.2249 735.1842 164.8825 C 760.0584 200.2335 753.1238 261.3979 778.2895 273.718 C 787.608 278.28 806.7381 278.28 821.3947 278.28 C 841.2223 278.28 864.5 238.5257 864.5 238.5257 C 864.5 238.5257 841.2223 278.28 821.3947 278.28 C 806.7381 278.28 789.7053 278.28 778.2895 273.718 C 755.2211 264.4995 755.2102 225.9286 735.1842 197.468 C 720.7259 176.9201 707.4449 151.1966 692.0789 151.1966 C 672.9607 151.1966 669.5972 217.0193 648.9737 217.0193 C 635.113 217.0193 622.3496 199.5955 605.8684 186.3889 C 587.8654 171.963 577.3037 147.9381 562.7632 147.9381 C 542.8195 147.9381 541.42 214.4125 519.6579 214.4125 C 506.9358 214.4125 490.6292 208.6412 476.5526 197.468 C 456.145 181.2694 454.269 159.8877 433.4474 145.983 C 419.7848 136.859 398.2595 136.859 390.3421 136.859 C 363.7753 136.859 370.2893 278.28 347.2368 278.28 C 335.8051 278.28 324.9915 238.3704 304.1316 218.9744 C 290.5073 206.3063 271.5766 212.8744 261.0263 198.1197 C 237.0924 164.6479 236.3121 98.4081 217.9211 98.4081 C 201.8279 98.4081 197.03 183.1304 174.8158 183.1304 C 162.5458 183.1304 143.6498 169.6685 131.7105 153.1518 C 109.1656 121.9633 102.275 63.8675 88.6053 63.8675 C 67.7908 63.8675 45.5 208.5471 45.5 208.5471 Z" fill="rgb(145, 204, 117)" fill-opacity="1" stroke="none" transform="matrix(1,0,0,1,0,108.22)" transform_matrix="{&quot;a&quot;:1,&quot;b&quot;:0,&quot;c&quot;:0,&quot;d&quot;:1,&quot;e&quot;:0,&quot;f&quot;:108.22000122070312}" my_stoke="none" my_stoke_width="1px" my_stoke_opacity="1" my_fill="rgb(145, 204, 117)" my_fill_opacity="1" my_font_size="16px" opacity="1"/><path d="M 45.5 208.5471 C 45.5 208.5471 67.7908 63.8675 88.6053 63.8675 C 102.275 63.8675 109.1656 121.9633 131.7105 153.1518 C 143.6498 169.6685 162.5458 183.1304 174.8158 183.1304 C 197.03 183.1304 201.8279 98.4081 217.9211 98.4081 C 236.3121 98.4081 237.0924 164.6479 261.0263 198.1197 C 271.5766 212.8744 290.5073 206.3063 304.1316 218.9744 C 324.9915 238.3704 335.8051 278.28 347.2368 278.28 C 370.2893 278.28 363.7753 136.859 390.3421 136.859 C 398.2595 136.859 419.7848 136.859 433.4474 145.983 C 454.269 159.8877 456.145 181.2694 476.5526 197.468 C 490.6292 208.6412 506.9358 214.4125 519.6579 214.4125 C 541.42 214.4125 542.8195 147.9381 562.7632 147.9381 C 577.3037 147.9381 587.8654 171.963 605.8684 186.3889 C 622.3496 199.5955 635.113 217.0193 648.9737 217.0193 C 669.5972 217.0193 672.9607 151.1966 692.0789 151.1966 C 707.4449 151.1966 720.7259 176.9201 735.1842 197.468 C 755.2102 225.9286 755.2211 264.4995 778.2895 273.718 C 789.7053 278.28 806.7381 278.28 821.3947 278.28 C 841.2223 278.28 864.5 238.5257 864.5 238.5257 C 864.5 238.5257 841.2605 278.28 821.3947 278.28 C 806.7763 278.28 789.4757 278.28 778.2895 276.3249 C 754.9915 272.2529 755.6772 226.5924 735.1842 197.468 C 721.193 177.5838 707.4256 153.8035 692.0789 153.8035 C 672.9413 153.8035 668.2399 193.4251 648.9737 217.0193 C 633.7557 235.6558 617.5303 259.3804 605.8684 259.3804 C 583.0461 259.3804 583.5287 149.2415 562.7632 149.2415 C 549.0445 149.2415 541.7082 214.4125 519.6579 214.4125 C 507.224 214.4125 489.6141 214.4125 476.5526 205.2885 C 455.1299 190.3239 454.8172 164.2486 433.4474 147.2864 C 420.333 136.8768 398.2993 136.859 390.3421 136.859 C 363.8151 136.859 370.3993 278.28 347.2368 278.28 C 335.9151 278.28 325.728 222.462 304.1316 220.2778 C 291.2438 218.9744 269.7146 220.2778 261.0263 218.9744 C 235.2304 215.1045 234.6403 98.4081 217.9211 98.4081 C 200.1561 98.4081 196.279 227.4467 174.8158 227.4467 C 161.7948 227.4467 147.6846 185.9227 131.7105 157.062 C 113.2004 123.6193 102.3973 71.6881 88.6053 71.6881 C 67.9131 71.6881 45.5 208.5471 45.5 208.5471 Z" fill="rgb(250, 200, 88)" fill-opacity="1" stroke="none" transform="matrix(1,0,0,1,0,108.22)" transform_matrix="{&quot;a&quot;:1,&quot;b&quot;:0,&quot;c&quot;:0,&quot;d&quot;:1,&quot;e&quot;:0,&quot;f&quot;:108.22000122070312}" my_stoke="none" my_stoke_width="1px" my_stoke_opacity="1" my_fill="rgb(250, 200, 88)" my_fill_opacity="1" my_font_size="16px" opacity="1"/><path d="M 45.5 208.5471 C 45.5 208.5471 67.9131 71.6881 88.6053 71.6881 C 102.3973 71.6881 113.2004 123.6193 131.7105 157.062 C 147.6846 185.9227 161.7948 227.4467 174.8158 227.4467 C 196.279 227.4467 200.1561 98.4081 217.9211 98.4081 C 234.6403 98.4081 235.2304 215.1045 261.0263 218.9744 C 269.7146 220.2778 291.2438 218.9744 304.1316 220.2778 C 325.728 222.462 335.9151 278.28 347.2368 278.28 C 370.3993 278.28 363.8151 136.859 390.3421 136.859 C 398.2993 136.859 420.333 136.8768 433.4474 147.2864 C 454.8172 164.2486 455.1299 190.3239 476.5526 205.2885 C 489.6141 214.4125 507.224 214.4125 519.6579 214.4125 C 541.7082 214.4125 549.0445 149.2415 562.7632 149.2415 C 583.5287 149.2415 583.0461 259.3804 605.8684 259.3804 C 617.5303 259.3804 633.7557 235.6558 648.9737 217.0193 C 668.2399 193.4251 672.9413 153.8035 692.0789 153.8035 C 707.4256 153.8035 721.193 177.5838 735.1842 197.468 C 755.6772 226.5924 754.9915 272.2529 778.2895 276.3249 C 789.4757 278.28 806.7763 278.28 821.3947 278.28 C 841.2605 278.28 864.5 238.5257 864.5 238.5257 L 864.5 239.8291 C 864.5 239.8291 841.1414 278.28 821.3947 278.28 C 806.6572 278.28 789.3733 278.28 778.2895 277.6283 C 754.8891 276.2524 755.7824 227.0533 735.1842 197.468 C 721.2982 177.5234 706.7267 153.8035 692.0789 153.8035 C 672.2425 153.8035 669.6878 199.4725 648.9737 224.8398 C 635.2036 241.7033 616.8464 259.3804 605.8684 259.3804 C 582.3622 259.3804 583.4141 149.2415 562.7632 149.2415 C 548.9299 149.2415 541.7665 215.7159 519.6579 215.7159 C 507.2823 215.7159 489.7853 215.5918 476.5526 205.2885 C 455.3011 188.7414 454.6395 165.411 433.4474 148.5898 C 420.1552 138.0392 398.344 136.859 390.3421 136.859 C 363.8598 136.859 372.8232 278.28 347.2368 278.28 C 338.339 278.28 322.359 259.4884 304.1316 250.2565 C 287.8748 242.0226 269.4053 249.3739 261.0263 234.6155 C 234.9211 188.6345 234.4765 98.4081 217.9211 98.4081 C 199.9923 98.4081 197.0938 246.9979 174.8158 246.9979 C 162.6096 246.9979 147.404 204.0212 131.7105 174.0065 C 112.9198 138.0682 103.4945 82.1154 88.6053 82.1154 C 69.0103 82.1154 45.5 208.5471 45.5 208.5471 Z" fill="rgb(238, 102, 102)" fill-opacity="1" stroke="none" transform="matrix(1,0,0,1,0,108.22)" transform_matrix="{&quot;a&quot;:1,&quot;b&quot;:0,&quot;c&quot;:0,&quot;d&quot;:1,&quot;e&quot;:0,&quot;f&quot;:108.22000122070312}" my_stoke="none" my_stoke_width="1px" my_stoke_opacity="1" my_fill="rgb(238, 102, 102)" my_fill_opacity="1" my_font_size="16px" opacity="1"/><path d="M 45.5 208.5471 C 45.5 208.5471 69.0103 82.1154 88.6053 82.1154 C 103.4945 82.1154 112.9198 138.0682 131.7105 174.0065 C 147.404 204.0212 162.6096 246.9979 174.8158 246.9979 C 197.0938 246.9979 199.9923 98.4081 217.9211 98.4081 C 234.4765 98.4081 234.9211 188.6345 261.0263 234.6155 C 269.4053 249.3739 287.8748 242.0226 304.1316 250.2565 C 322.359 259.4884 338.339 278.28 347.2368 278.28 C 372.8232 278.28 363.8598 136.859 390.3421 136.859 C 398.344 136.859 420.1552 138.0392 433.4474 148.5898 C 454.6395 165.411 455.3011 188.7414 476.5526 205.2885 C 489.7853 215.5918 507.2823 215.7159 519.6579 215.7159 C 541.7665 215.7159 548.9299 149.2415 562.7632 149.2415 C 583.4141 149.2415 582.3622 259.3804 605.8684 259.3804 C 616.8464 259.3804 635.2036 241.7033 648.9737 224.8398 C 669.6878 199.4725 672.2425 153.8035 692.0789 153.8035 C 706.7267 153.8035 721.2982 177.5234 735.1842 197.468 C 755.7824 227.0533 754.8891 276.2524 778.2895 277.6283 C 789.3733 278.28 806.6572 278.28 821.3947 278.28 C 841.1414 278.28 864.5 239.8291 864.5 239.8291 C 864.5 239.8291 841.1414 278.28 821.3947 278.28 C 806.6572 278.28 789.4688 278.28 778.2895 277.6283 C 754.9846 276.2697 755.5513 228.0249 735.1842 198.7714 C 721.0671 178.495 705.1937 153.8035 692.0789 153.8035 C 670.7095 153.8035 672.0707 214.2662 648.9737 245.6945 C 637.5865 261.1892 615.4921 271.1112 605.8684 271.1112 C 581.0079 271.1112 582.2291 149.2415 562.7632 149.2415 C 547.7449 149.2415 542.671 239.1774 519.6579 239.1774 C 508.1867 239.1774 489.9046 228.4423 476.5526 214.4125 C 455.4204 192.2073 455.443 168.3767 433.4474 148.5898 C 420.9588 137.3553 398.344 136.859 390.3421 136.859 C 363.8598 136.859 372.9133 278.28 347.2368 278.28 C 338.429 278.28 322.5844 259.2321 304.1316 251.5599 C 288.1002 244.8945 277.1726 248.9051 261.0263 242.436 C 242.6884 235.0888 234.7488 217.0193 217.9211 217.0193 C 200.2646 217.0193 191.429 246.9979 174.8158 246.9979 C 156.9448 246.9979 142.4804 229.6346 131.7105 210.5022 C 107.9961 168.3739 105.9753 93.8462 88.6053 93.8462 C 71.4911 93.8462 45.5 208.5471 45.5 208.5471 Z" fill="rgb(115, 192, 222)" fill-opacity="1" stroke="none" transform="matrix(1,0,0,1,0,108.22)" transform_matrix="{&quot;a&quot;:1,&quot;b&quot;:0,&quot;c&quot;:0,&quot;d&quot;:1,&quot;e&quot;:0,&quot;f&quot;:108.22000122070312}" my_stoke="none" my_stoke_width="1px" my_stoke_opacity="1" my_fill="rgb(115, 192, 222)" my_fill_opacity="1" my_font_size="16px" opacity="1"/><path d="M 45.5 208.5471 C 45.5 208.5471 71.4911 93.8462 88.6053 93.8462 C 105.9753 93.8462 107.9961 168.3739 131.7105 210.5022 C 142.4804 229.6346 156.9448 246.9979 174.8158 246.9979 C 191.429 246.9979 200.2646 217.0193 217.9211 217.0193 C 234.7488 217.0193 242.6884 235.0888 261.0263 242.436 C 277.1726 248.9051 288.1002 244.8945 304.1316 251.5599 C 322.5844 259.2321 338.429 278.28 347.2368 278.28 C 372.9133 278.28 363.8598 136.859 390.3421 136.859 C 398.344 136.859 420.9588 137.3553 433.4474 148.5898 C 455.443 168.3767 455.4204 192.2073 476.5526 214.4125 C 489.9046 228.4423 508.1867 239.1774 519.6579 239.1774 C 542.671 239.1774 547.7449 149.2415 562.7632 149.2415 C 582.2291 149.2415 581.0079 271.1112 605.8684 271.1112 C 615.4921 271.1112 637.5865 261.1892 648.9737 245.6945 C 672.0707 214.2662 670.7095 153.8035 692.0789 153.8035 C 705.1937 153.8035 721.0671 178.495 735.1842 198.7714 C 755.5513 228.0249 754.9846 276.2697 778.2895 277.6283 C 789.4688 278.28 806.6572 278.28 821.3947 278.28 C 841.1414 278.28 864.5 239.8291 864.5 239.8291 C 864.5 239.8291 841.1414 277.4068 821.3947 278.28 C 806.6572 278.9317 795.3692 278.9317 778.2895 278.9317 C 760.885 278.9317 750.3345 278.2474 735.1842 270.4595 C 715.8502 260.5209 711.0056 234.6155 692.0789 234.6155 C 676.5214 234.6155 665.8333 243.5161 648.9737 250.9082 C 631.3491 258.6357 617.5137 272.4146 605.8684 272.4146 C 583.0295 272.4146 581.0533 188.3441 562.7632 188.3441 C 546.5691 188.3441 539.3597 260.0321 519.6579 260.0321 C 504.8754 260.0321 491.8544 234.1926 476.5526 214.4125 C 457.3701 189.6157 455.443 168.3767 433.4474 148.5898 C 420.9588 137.3553 398.344 136.859 390.3421 136.859 C 363.8598 136.859 373.0008 278.28 347.2368 278.28 C 338.5166 278.28 322.4135 260.4644 304.1316 252.8633 C 287.9293 246.1268 278.5047 242.436 261.0263 242.436 C 244.0205 242.436 231.5961 242.436 217.9211 244.3911 C 197.1119 247.3662 194.0971 293.921 174.8158 293.921 C 159.6129 293.921 139.6552 283.3232 131.7105 265.2458 C 105.171 204.8573 109.0418 97.7564 88.6053 97.7564 C 74.5576 97.7564 45.5 208.5471 45.5 208.5471 Z" fill="rgb(59, 162, 114)" fill-opacity="1" stroke="none" transform="matrix(1,0,0,1,0,108.22)" transform_matrix="{&quot;a&quot;:1,&quot;b&quot;:0,&quot;c&quot;:0,&quot;d&quot;:1,&quot;e&quot;:0,&quot;f&quot;:108.22000122070312}" my_stoke="none" my_stoke_width="1px" my_stoke_opacity="1" my_fill="rgb(59, 162, 114)" my_fill_opacity="1" my_font_size="16px" opacity="1"/><path d="M 45.5 208.5471 C 45.5 208.5471 74.5576 97.7564 88.6053 97.7564 C 109.0418 97.7564 105.171 204.8573 131.7105 265.2458 C 139.6552 283.3232 159.6129 293.921 174.8158 293.921 C 194.0971 293.921 197.1119 247.3662 217.9211 244.3911 C 231.5961 242.436 244.0205 242.436 261.0263 242.436 C 278.5047 242.436 287.9293 246.1268 304.1316 252.8633 C 322.4135 260.4644 338.5166 278.28 347.2368 278.28 C 373.0008 278.28 363.8598 136.859 390.3421 136.859 C 398.344 136.859 420.9588 137.3553 433.4474 148.5898 C 455.443 168.3767 457.3701 189.6157 476.5526 214.4125 C 491.8544 234.1926 504.8754 260.0321 519.6579 260.0321 C 539.3597 260.0321 546.5691 188.3441 562.7632 188.3441 C 581.0533 188.3441 583.0295 272.4146 605.8684 272.4146 C 617.5137 272.4146 631.3491 258.6357 648.9737 250.9082 C 665.8333 243.5161 676.5214 234.6155 692.0789 234.6155 C 711.0056 234.6155 715.8502 260.5209 735.1842 270.4595 C 750.3345 278.2474 760.885 278.9317 778.2895 278.9317 C 795.3692 278.9317 806.6572 278.9317 821.3947 278.28 C 841.1414 277.4068 864.5 239.8291 864.5 239.8291 C 864.5 239.8291 841.1414 277.4068 821.3947 278.28 C 806.6572 278.9317 795.415 278.9317 778.2895 278.9317 C 760.9308 278.9317 750.6642 271.7629 735.1842 271.7629 C 716.18 271.7629 707.3938 303.6967 692.0789 303.6967 C 672.9096 303.6967 669.0528 252.2116 648.9737 252.2116 C 634.5686 252.2116 623.9048 267.4461 605.8684 273.718 C 589.4205 279.4376 579.4583 282.1903 562.7632 282.1903 C 544.974 282.1903 536.1508 272.6698 519.6579 263.9424 C 501.6665 254.422 489.1489 251.9012 476.5526 236.5706 C 454.6646 209.9311 455.7493 184.8117 433.4474 159.0171 C 421.2651 144.927 398.8559 136.859 390.3421 136.859 C 364.3716 136.859 373.0008 278.28 347.2368 278.28 C 338.5166 278.28 322.6224 257.3842 304.1316 252.8633 C 288.1381 248.9531 272.2358 248.9531 261.0263 248.9531 C 237.7516 248.9531 240.5953 327.8099 217.9211 327.8099 C 206.1111 327.8099 191.3086 318.2895 174.8158 309.5621 C 156.8244 300.0417 139.3136 300.0651 131.7105 282.1903 C 104.8294 218.9925 110.0017 106.8804 88.6053 106.8804 C 75.5175 106.8804 45.5 208.5471 45.5 208.5471 Z" fill="rgb(252, 132, 82)" fill-opacity="1" stroke="none" transform="matrix(1,0,0,1,0,108.22)" transform_matrix="{&quot;a&quot;:1,&quot;b&quot;:0,&quot;c&quot;:0,&quot;d&quot;:1,&quot;e&quot;:0,&quot;f&quot;:108.22000122070312}" my_stoke="none" my_stoke_width="1px" my_stoke_opacity="1" my_fill="rgb(252, 132, 82)" my_fill_opacity="1" my_font_size="16px" opacity="1"/><path d="M 45.5 208.5471 C 45.5 208.5471 75.5175 106.8804 88.6053 106.8804 C 110.0017 106.8804 104.8294 218.9925 131.7105 282.1903 C 139.3136 300.0651 156.8244 300.0417 174.8158 309.5621 C 191.3086 318.2895 206.1111 327.8099 217.9211 327.8099 C 240.5953 327.8099 237.7516 248.9531 261.0263 248.9531 C 272.2358 248.9531 288.1381 248.9531 304.1316 252.8633 C 322.6224 257.3842 338.5166 278.28 347.2368 278.28 C 373.0008 278.28 364.3716 136.859 390.3421 136.859 C 398.8559 136.859 421.2651 144.927 433.4474 159.0171 C 455.7493 184.8117 454.6646 209.9311 476.5526 236.5706 C 489.1489 251.9012 501.6665 254.422 519.6579 263.9424 C 536.1508 272.6698 544.974 282.1903 562.7632 282.1903 C 579.4583 282.1903 589.4205 279.4376 605.8684 273.718 C 623.9048 267.4461 634.5686 252.2116 648.9737 252.2116 C 669.0528 252.2116 672.9096 303.6967 692.0789 303.6967 C 707.3938 303.6967 716.18 271.7629 735.1842 271.7629 C 750.6642 271.7629 760.9308 278.9317 778.2895 278.9317 C 795.415 278.9317 806.6572 278.9317 821.3947 278.28 C 841.1414 277.4068 864.5 239.8291 864.5 239.8291 C 864.5 239.8291 841.1337 275.6627 821.3947 278.28 C 806.6495 280.2351 794.783 278.28 778.2895 280.2351 C 760.2988 282.3677 751.7829 290.3512 735.1842 299.1347 C 717.2987 308.5991 705.7091 325.8548 692.0789 325.8548 C 671.2249 325.8548 670.149 261.3356 648.9737 261.3356 C 635.6648 261.3356 620.0056 271.321 605.8684 284.1454 C 585.5214 302.6031 578.8445 339.5407 562.7632 339.5407 C 544.3602 339.5407 541.5302 293.2576 519.6579 271.7629 C 507.046 259.3687 487.1876 268.5661 476.5526 254.8185 C 452.7034 223.9891 456.9598 192.1365 433.4474 160.3206 C 422.4756 145.4741 398.9102 138.1624 390.3421 138.1624 C 364.426 138.1624 373.4737 278.28 347.2368 278.28 C 338.9895 278.28 321.9334 264.769 304.1316 261.9873 C 287.4492 259.3804 272.2186 259.3804 261.0263 259.3804 C 237.7344 259.3804 240.5088 338.2373 217.9211 338.2373 C 206.0246 338.2373 192.0579 326.5065 174.8158 318.686 C 157.5737 310.8655 138.9136 315.3069 131.7105 299.1347 C 104.4294 237.8838 111.1401 125.1282 88.6053 125.1282 C 76.6559 125.1282 45.5 209.8505 45.5 209.8505 Z" fill="rgb(154, 96, 180)" fill-opacity="1" stroke="none" transform="matrix(1,0,0,1,0,108.22)" transform_matrix="{&quot;a&quot;:1,&quot;b&quot;:0,&quot;c&quot;:0,&quot;d&quot;:1,&quot;e&quot;:0,&quot;f&quot;:108.22000122070312}" my_stoke="none" my_stoke_width="1px" my_stoke_opacity="1" my_fill="rgb(154, 96, 180)" my_fill_opacity="1" my_font_size="16px" opacity="1"/><path d="M 45.5 209.8505 C 45.5 209.8505 76.6559 125.1282 88.6053 125.1282 C 111.1401 125.1282 104.4294 237.8838 131.7105 299.1347 C 138.9136 315.3069 157.5737 310.8655 174.8158 318.686 C 192.0579 326.5065 206.0246 338.2373 217.9211 338.2373 C 240.5088 338.2373 237.7344 259.3804 261.0263 259.3804 C 272.2186 259.3804 287.4492 259.3804 304.1316 261.9873 C 321.9334 264.769 338.9895 278.28 347.2368 278.28 C 373.4737 278.28 364.426 138.1624 390.3421 138.1624 C 398.9102 138.1624 422.4756 145.4741 433.4474 160.3206 C 456.9598 192.1365 452.7034 223.9891 476.5526 254.8185 C 487.1876 268.5661 507.046 259.3687 519.6579 271.7629 C 541.5302 293.2576 544.3602 339.5407 562.7632 339.5407 C 578.8445 339.5407 585.5214 302.6031 605.8684 284.1454 C 620.0056 271.321 635.6648 261.3356 648.9737 261.3356 C 670.149 261.3356 671.2249 325.8548 692.0789 325.8548 C 705.7091 325.8548 717.2987 308.5991 735.1842 299.1347 C 751.7829 290.3512 760.2988 282.3677 778.2895 280.2351 C 794.783 278.28 806.6495 280.2351 821.3947 278.28 C 841.1337 275.6627 864.5 239.8291 864.5 239.8291 C 864.5 239.8291 841.1337 275.6627 821.3947 278.28 C 806.6495 280.2351 794.783 278.28 778.2895 280.2351 C 760.2988 282.3677 751.4234 289.8049 735.1842 299.1347 C 716.9392 309.6169 706.4087 329.7651 692.0789 329.7651 C 671.9245 329.7651 668.7616 269.1561 648.9737 269.1561 C 634.2774 269.1561 622.0756 288.7494 605.8684 303.6967 C 587.5914 320.5528 577.2589 348.6646 562.7632 348.6646 C 542.7747 348.6646 542.0615 298.0802 519.6579 274.3697 C 507.5773 261.5845 487.0219 271.2752 476.5526 257.4253 C 452.5377 225.6556 457.1284 193.0807 433.4474 160.3206 C 422.6442 145.3756 398.9102 138.1624 390.3421 138.1624 C 364.426 138.1624 373.4737 278.28 347.2368 278.28 C 338.9895 278.28 321.9452 263.38 304.1316 261.9873 C 287.4609 260.6838 271.0625 260.6838 261.0263 260.6838 C 236.5783 260.6838 240.4641 356.4852 217.9211 356.4852 C 205.9799 356.4852 194.2129 326.3201 174.8158 321.2928 C 159.7287 317.3826 138.125 321.2928 131.7105 317.3826 C 103.6408 300.2712 112.1367 132.9488 88.6053 132.9488 C 77.6525 132.9488 45.5 209.8505 45.5 209.8505 Z" fill="rgb(234, 124, 204)" fill-opacity="1" stroke="none" transform="matrix(1,0,0,1,0,108.22)" transform_matrix="{&quot;a&quot;:1,&quot;b&quot;:0,&quot;c&quot;:0,&quot;d&quot;:1,&quot;e&quot;:0,&quot;f&quot;:108.22000122070312}" my_stoke="none" my_stoke_width="1px" my_stoke_opacity="1" my_fill="rgb(234, 124, 204)" my_fill_opacity="1" my_font_size="16px" opacity="1"/><path d="M 45.5 209.8505 C 45.5 209.8505 77.6525 132.9488 88.6053 132.9488 C 112.1367 132.9488 103.6408 300.2712 131.7105 317.3826 C 138.125 321.2928 159.7287 317.3826 174.8158 321.2928 C 194.2129 326.3201 205.9799 356.4852 217.9211 356.4852 C 240.4641 356.4852 236.5783 260.6838 261.0263 260.6838 C 271.0625 260.6838 287.4609 260.6838 304.1316 261.9873 C 321.9452 263.38 338.9895 278.28 347.2368 278.28 C 373.4737 278.28 364.426 138.1624 390.3421 138.1624 C 398.9102 138.1624 422.6442 145.3756 433.4474 160.3206 C 457.1284 193.0807 452.5377 225.6556 476.5526 257.4253 C 487.0219 271.2752 507.5773 261.5845 519.6579 274.3697 C 542.0615 298.0802 542.7747 348.6646 562.7632 348.6646 C 577.2589 348.6646 587.5914 320.5528 605.8684 303.6967 C 622.0756 288.7494 634.2774 269.1561 648.9737 269.1561 C 668.7616 269.1561 671.9245 329.7651 692.0789 329.7651 C 706.4087 329.7651 716.9392 309.6169 735.1842 299.1347 C 751.4234 289.8049 760.2988 282.3677 778.2895 280.2351 C 794.783 278.28 806.6495 280.2351 821.3947 278.28 C 841.1337 275.6627 864.5 239.8291 864.5 239.8291 C 864.5 239.8291 841.1183 273.9258 821.3947 278.28 C 806.6341 281.5385 794.7008 278.28 778.2895 281.5385 C 760.2166 285.127 750.1221 290.4492 735.1842 301.7415 C 715.6379 316.5176 707.083 346.7095 692.0789 346.7095 C 672.5988 346.7095 670.1675 278.28 648.9737 278.28 C 635.6833 278.28 621.3443 292.1312 605.8684 305.0001 C 586.8601 320.8064 577.2589 349.9681 562.7632 349.9681 C 542.7747 349.9681 541.9784 299.6331 519.6579 275.6732 C 507.4942 262.616 487.2656 271.4357 476.5526 257.4253 C 452.7814 226.3373 457.7367 178.4543 433.4474 162.9274 C 423.2524 156.4103 399.0388 156.4103 390.3421 156.4103 C 364.5546 156.4103 372.6587 278.28 347.2368 278.28 C 338.1745 278.28 321.7603 261.9873 304.1316 261.9873 C 287.2761 261.9873 271.9024 261.9873 261.0263 271.1112 C 237.4182 290.9159 240.0705 356.4852 217.9211 356.4852 C 205.5863 356.4852 193.7784 325.2031 174.8158 325.2031 C 159.2942 325.2031 138.0931 331.7202 131.7105 331.7202 C 103.6089 331.7202 113.1129 144.6795 88.6053 144.6795 C 78.6287 144.6795 45.5 209.8505 45.5 209.8505 Z" fill="rgb(84, 112, 198)" fill-opacity="1" stroke="none" transform="matrix(1,0,0,1,0,108.22)" transform_matrix="{&quot;a&quot;:1,&quot;b&quot;:0,&quot;c&quot;:0,&quot;d&quot;:1,&quot;e&quot;:0,&quot;f&quot;:108.22000122070312}" my_stoke="none" my_stoke_width="1px" my_stoke_opacity="1" my_fill="rgb(84, 112, 198)" my_fill_opacity="1" my_font_size="16px" opacity="1"/><path d="M 45.5 209.8505 C 45.5 209.8505 78.6287 144.6795 88.6053 144.6795 C 113.1129 144.6795 103.6089 331.7202 131.7105 331.7202 C 138.0931 331.7202 159.2942 325.2031 174.8158 325.2031 C 193.7784 325.2031 205.5863 356.4852 217.9211 356.4852 C 240.0705 356.4852 237.4182 290.9159 261.0263 271.1112 C 271.9024 261.9873 287.2761 261.9873 304.1316 261.9873 C 321.7603 261.9873 338.1745 278.28 347.2368 278.28 C 372.6587 278.28 364.5546 156.4103 390.3421 156.4103 C 399.0388 156.4103 423.2524 156.4103 433.4474 162.9274 C 457.7367 178.4543 452.7814 226.3373 476.5526 257.4253 C 487.2656 271.4357 507.4942 262.616 519.6579 275.6732 C 541.9784 299.6331 542.7747 349.9681 562.7632 349.9681 C 577.2589 349.9681 586.8601 320.8064 605.8684 305.0001 C 621.3443 292.1312 635.6833 278.28 648.9737 278.28 C 670.1675 278.28 672.5988 346.7095 692.0789 346.7095 C 707.083 346.7095 715.6379 316.5176 735.1842 301.7415 C 750.1221 290.4492 760.2166 285.127 778.2895 281.5385 C 794.7008 278.28 806.6341 281.5385 821.3947 278.28 C 841.1183 273.9258 864.5 239.8291 864.5 239.8291 L 864.5 248.9531 C 864.5 248.9531 840.2241 272.793 821.3947 278.28 C 805.7399 282.842 794.4076 278.28 778.2895 282.842 C 759.9234 288.0402 750.8214 295.1343 735.1842 306.9552 C 716.3372 321.2026 707.1686 348.0129 692.0789 348.0129 C 672.6843 348.0129 670.1349 284.7971 648.9737 284.7971 C 635.6507 284.7971 620.2735 294.1072 605.8684 306.3035 C 585.7893 323.3038 579.3101 357.7886 562.7632 357.7886 C 544.8258 357.7886 538.8206 320.8639 519.6579 299.1347 C 504.3364 281.7613 488.8462 279.2693 476.5526 260.0321 C 454.362 225.3078 446.75 164.2308 433.4474 164.2308 C 412.2658 164.2308 415.2622 325.8548 390.3421 325.8548 C 380.778 325.8548 367.3115 293.1519 347.2368 278.28 C 332.8273 267.6049 319.6256 261.9873 304.1316 261.9873 C 285.1413 261.9873 275.2062 281.2249 261.0263 298.483 C 240.722 323.195 238.9461 366.9125 217.9211 366.9125 C 204.4618 366.9125 193.6329 338.2373 174.8158 338.2373 C 159.1487 338.2373 138.1036 338.2373 131.7105 338.2373 C 103.6194 338.2373 113.7156 153.8035 88.6053 153.8035 C 79.2314 153.8035 45.5 209.8505 45.5 209.8505 Z" fill="rgb(145, 204, 117)" fill-opacity="1" stroke="none" transform="matrix(1,0,0,1,0,108.22)" transform_matrix="{&quot;a&quot;:1,&quot;b&quot;:0,&quot;c&quot;:0,&quot;d&quot;:1,&quot;e&quot;:0,&quot;f&quot;:108.22000122070312}" my_stoke="none" my_stoke_width="1px" my_stoke_opacity="1" my_fill="rgb(145, 204, 117)" my_fill_opacity="1" my_font_size="16px" opacity="1"/><path d="M 45.5 209.8505 C 45.5 209.8505 79.2314 153.8035 88.6053 153.8035 C 113.7156 153.8035 103.6194 338.2373 131.7105 338.2373 C 138.1036 338.2373 159.1487 338.2373 174.8158 338.2373 C 193.6329 338.2373 204.4618 366.9125 217.9211 366.9125 C 238.9461 366.9125 240.722 323.195 261.0263 298.483 C 275.2062 281.2249 285.1413 261.9873 304.1316 261.9873 C 319.6256 261.9873 332.8273 267.6049 347.2368 278.28 C 367.3115 293.1519 380.778 325.8548 390.3421 325.8548 C 415.2622 325.8548 412.2658 164.2308 433.4474 164.2308 C 446.75 164.2308 454.362 225.3078 476.5526 260.0321 C 488.8462 279.2693 504.3364 281.7613 519.6579 299.1347 C 538.8206 320.8639 544.8258 357.7886 562.7632 357.7886 C 579.3101 357.7886 585.7893 323.3038 605.8684 306.3035 C 620.2735 294.1072 635.6507 284.7971 648.9737 284.7971 C 670.1349 284.7971 672.6843 348.0129 692.0789 348.0129 C 707.1686 348.0129 716.3372 321.2026 735.1842 306.9552 C 750.8214 295.1343 759.9234 288.0402 778.2895 282.842 C 794.4076 278.28 805.7399 282.842 821.3947 278.28 C 840.2241 272.793 864.5 248.9531 864.5 248.9531 L 864.5 260.6838 C 864.5 260.6838 839.2529 273.69 821.3947 278.28 C 804.7687 282.5533 792.3136 278.28 778.2895 282.842 C 757.8294 289.4975 754.8582 313.9433 735.1842 329.1133 C 720.374 340.5331 705.5371 349.3163 692.0789 349.3163 C 671.0529 349.3163 670.0929 288.7074 648.9737 288.7074 C 635.6087 288.7074 619.7103 295.6783 605.8684 307.6069 C 585.226 325.3962 579.2017 363.0022 562.7632 363.0022 C 544.7175 363.0022 539.3036 322.5996 519.6579 299.1347 C 504.8194 281.4115 488.8462 279.2693 476.5526 260.0321 C 454.362 225.3078 446.3903 164.2308 433.4474 164.2308 C 411.9061 164.2308 414.9482 333.6753 390.3421 333.6753 C 380.4639 333.6753 368.0541 295.5905 347.2368 278.28 C 333.5699 266.9153 318.9862 261.9873 304.1316 261.9873 C 284.5019 261.9873 275.8385 285.8528 261.0263 305.0001 C 241.3543 330.4297 238.472 373.4296 217.9211 373.4296 C 203.9878 373.4296 193.4189 339.5407 174.8158 339.5407 C 158.9347 339.5407 138.0969 357.7886 131.7105 357.7886 C 103.6127 357.7886 114.4674 156.4103 88.6053 156.4103 C 79.9831 156.4103 45.5 209.8505 45.5 209.8505 Z" fill="rgb(250, 200, 88)" fill-opacity="1" stroke="none" transform="matrix(1,0,0,1,0,108.22)" transform_matrix="{&quot;a&quot;:1,&quot;b&quot;:0,&quot;c&quot;:0,&quot;d&quot;:1,&quot;e&quot;:0,&quot;f&quot;:108.22000122070312}" my_stoke="none" my_stoke_width="1px" my_stoke_opacity="1" my_fill="rgb(250, 200, 88)" my_fill_opacity="1" my_font_size="16px" opacity="1"/><path d="M 45.5 209.8505 C 45.5 209.8505 79.9831 156.4103 88.6053 156.4103 C 114.4674 156.4103 103.6127 357.7886 131.7105 357.7886 C 138.0969 357.7886 158.9347 339.5407 174.8158 339.5407 C 193.4189 339.5407 203.9878 373.4296 217.9211 373.4296 C 238.472 373.4296 241.3543 330.4297 261.0263 305.0001 C 275.8385 285.8528 284.5019 261.9873 304.1316 261.9873 C 318.9862 261.9873 333.5699 266.9153 347.2368 278.28 C 368.0541 295.5905 380.4639 333.6753 390.3421 333.6753 C 414.9482 333.6753 411.9061 164.2308 433.4474 164.2308 C 446.3903 164.2308 454.362 225.3078 476.5526 260.0321 C 488.8462 279.2693 504.8194 281.4115 519.6579 299.1347 C 539.3036 322.5996 544.7175 363.0022 562.7632 363.0022 C 579.2017 363.0022 585.226 325.3962 605.8684 307.6069 C 619.7103 295.6783 635.6087 288.7074 648.9737 288.7074 C 670.0929 288.7074 671.0529 349.3163 692.0789 349.3163 C 705.5371 349.3163 720.374 340.5331 735.1842 329.1133 C 754.8582 313.9433 757.8294 289.4975 778.2895 282.842 C 792.3136 278.28 804.7687 282.5533 821.3947 278.28 C 839.2529 273.69 864.5 260.6838 864.5 260.6838 C 864.5 260.6838 839.2529 273.69 821.3947 278.28 C 804.7687 282.5533 792.3136 278.28 778.2895 282.842 C 757.8294 289.4975 754.8582 313.9433 735.1842 329.1133 C 720.374 340.5331 705.5371 349.3163 692.0789 349.3163 C 671.0529 349.3163 670.0929 288.7074 648.9737 288.7074 C 635.6087 288.7074 619.7103 295.6783 605.8684 307.6069 C 585.226 325.3962 579.2017 363.0022 562.7632 363.0022 C 544.7175 363.0022 539.3036 322.5996 519.6579 299.1347 C 504.8194 281.4115 488.8462 279.2693 476.5526 260.0321 C 454.362 225.3078 446.3903 164.2308 433.4474 164.2308 C 411.9061 164.2308 414.9482 333.6753 390.3421 333.6753 C 380.4639 333.6753 368.0541 295.5905 347.2368 278.28 C 333.5699 266.9153 318.9862 261.9873 304.1316 261.9873 C 284.5019 261.9873 275.8385 285.8528 261.0263 305.0001 C 241.3543 330.4297 238.472 373.4296 217.9211 373.4296 C 203.9878 373.4296 193.4189 339.5407 174.8158 339.5407 C 158.9347 339.5407 138.0969 357.7886 131.7105 357.7886 C 103.6127 357.7886 114.4674 156.4103 88.6053 156.4103 C 79.9831 156.4103 45.5 209.8505 45.5 209.8505 Z" fill="rgb(238, 102, 102)" fill-opacity="1" stroke="none" transform="matrix(1,0,0,1,0,108.22)" transform_matrix="{&quot;a&quot;:1,&quot;b&quot;:0,&quot;c&quot;:0,&quot;d&quot;:1,&quot;e&quot;:0,&quot;f&quot;:108.22000122070312}" my_stoke="none" my_stoke_width="1px" my_stoke_opacity="1" my_fill="rgb(238, 102, 102)" my_fill_opacity="1" my_font_size="16px" opacity="1"/><path d="M 45.5 209.8505 C 45.5 209.8505 79.9831 156.4103 88.6053 156.4103 C 114.4674 156.4103 103.6127 357.7886 131.7105 357.7886 C 138.0969 357.7886 158.9347 339.5407 174.8158 339.5407 C 193.4189 339.5407 203.9878 373.4296 217.9211 373.4296 C 238.472 373.4296 241.3543 330.4297 261.0263 305.0001 C 275.8385 285.8528 284.5019 261.9873 304.1316 261.9873 C 318.9862 261.9873 333.5699 266.9153 347.2368 278.28 C 368.0541 295.5905 380.4639 333.6753 390.3421 333.6753 C 414.9482 333.6753 411.9061 164.2308 433.4474 164.2308 C 446.3903 164.2308 454.362 225.3078 476.5526 260.0321 C 488.8462 279.2693 504.8194 281.4115 519.6579 299.1347 C 539.3036 322.5996 544.7175 363.0022 562.7632 363.0022 C 579.2017 363.0022 585.226 325.3962 605.8684 307.6069 C 619.7103 295.6783 635.6087 288.7074 648.9737 288.7074 C 670.0929 288.7074 671.0529 349.3163 692.0789 349.3163 C 705.5371 349.3163 720.374 340.5331 735.1842 329.1133 C 754.8582 313.9433 757.8294 289.4975 778.2895 282.842 C 792.3136 278.28 804.7687 282.5533 821.3947 278.28 C 839.2529 273.69 864.5 260.6838 864.5 260.6838 C 864.5 260.6838 839.2529 273.69 821.3947 278.28 C 804.7687 282.5533 792.1884 278.28 778.2895 282.842 C 757.7042 289.5985 754.0932 313.2637 735.1842 330.4168 C 719.609 344.5457 705.3807 361.0471 692.0789 361.0471 C 670.8965 361.0471 671.0942 288.7074 648.9737 288.7074 C 636.61 288.7074 619.4696 295.4744 605.8684 307.6069 C 584.9853 326.2351 579.3322 365.6091 562.7632 365.6091 C 544.848 365.6091 539.4215 324.3427 519.6579 300.4381 C 504.9373 282.6333 488.7572 280.6181 476.5526 261.3356 C 454.273 226.1351 446.4815 164.2308 433.4474 164.2308 C 411.9973 164.2308 414.9482 333.6753 390.3421 333.6753 C 380.4639 333.6753 368.134 295.341 347.2368 278.28 C 333.6498 267.1871 317.6585 263.2907 304.1316 263.2907 C 283.1743 263.2907 278.4582 297.0675 261.0263 319.3377 C 243.974 341.123 237.2807 373.4296 217.9211 373.4296 C 202.7965 373.4296 190.2559 340.8441 174.8158 340.8441 C 155.7717 340.8441 140.1816 391.6775 131.7105 391.6775 C 105.6974 391.6775 116.2783 191.6026 88.6053 191.6026 C 81.794 191.6026 45.5 217.671 45.5 217.671 Z" fill="rgb(115, 192, 222)" fill-opacity="1" stroke="none" transform="matrix(1,0,0,1,0,108.22)" transform_matrix="{&quot;a&quot;:1,&quot;b&quot;:0,&quot;c&quot;:0,&quot;d&quot;:1,&quot;e&quot;:0,&quot;f&quot;:108.22000122070312}" my_stoke="none" my_stoke_width="1px" my_stoke_opacity="1" my_fill="rgb(115, 192, 222)" my_fill_opacity="1" my_font_size="16px" opacity="1"/><path d="M 45.5 217.671 C 45.5 217.671 81.794 191.6026 88.6053 191.6026 C 116.2783 191.6026 105.6974 391.6775 131.7105 391.6775 C 140.1816 391.6775 155.7717 340.8441 174.8158 340.8441 C 190.2559 340.8441 202.7965 373.4296 217.9211 373.4296 C 237.2807 373.4296 243.974 341.123 261.0263 319.3377 C 278.4582 297.0675 283.1743 263.2907 304.1316 263.2907 C 317.6585 263.2907 333.6498 267.1871 347.2368 278.28 C 368.134 295.341 380.4639 333.6753 390.3421 333.6753 C 414.9482 333.6753 411.9973 164.2308 433.4474 164.2308 C 446.4815 164.2308 454.273 226.1351 476.5526 261.3356 C 488.7572 280.6181 504.9373 282.6333 519.6579 300.4381 C 539.4215 324.3427 544.848 365.6091 562.7632 365.6091 C 579.3322 365.6091 584.9853 326.2351 605.8684 307.6069 C 619.4696 295.4744 636.61 288.7074 648.9737 288.7074 C 671.0942 288.7074 670.8965 361.0471 692.0789 361.0471 C 705.3807 361.0471 719.609 344.5457 735.1842 330.4168 C 754.0932 313.2637 757.7042 289.5985 778.2895 282.842 C 792.1884 278.28 804.7687 282.5533 821.3947 278.28 C 839.2529 273.69 864.5 260.6838 864.5 260.6838 L 864.5 276.3249 C 864.5 276.3249 838.5977 276.9795 821.3947 278.28 C 804.1135 279.5864 790.5388 278.28 778.2895 282.842 C 756.0546 291.1228 756.9315 327.9504 735.1842 348.6646 C 722.4473 360.7965 703.9669 364.9574 692.0789 364.9574 C 669.4827 364.9574 671.222 288.7074 648.9737 288.7074 C 636.7377 288.7074 619.5421 297.3964 605.8684 310.2138 C 585.0579 329.7212 579.1015 369.5193 562.7632 369.5193 C 544.6173 369.5193 539.7684 325.6744 519.6579 300.4381 C 505.2842 282.4008 488.7572 280.6181 476.5526 261.3356 C 454.273 226.1351 446.4815 164.2308 433.4474 164.2308 C 411.9973 164.2308 414.9482 333.6753 390.3421 333.6753 C 380.4639 333.6753 368.134 295.341 347.2368 278.28 C 333.6498 267.1871 317.6585 263.2907 304.1316 263.2907 C 283.1743 263.2907 277.1118 296.1124 261.0263 319.3377 C 242.6276 345.9031 237.9745 387.7672 217.9211 387.7672 C 203.4903 387.7672 190.2606 348.6646 174.8158 348.6646 C 155.7764 348.6646 144.8141 406.0151 131.7105 406.0151 C 110.3299 406.0151 111.6383 336.7044 88.6053 297.1796 C 77.1541 277.5292 45.5 258.077 45.5 258.077 Z" fill="rgb(59, 162, 114)" fill-opacity="1" stroke="none" transform="matrix(1,0,0,1,0,108.22)" transform_matrix="{&quot;a&quot;:1,&quot;b&quot;:0,&quot;c&quot;:0,&quot;d&quot;:1,&quot;e&quot;:0,&quot;f&quot;:108.22000122070312}" my_stoke="none" my_stoke_width="1px" my_stoke_opacity="1" my_fill="rgb(59, 162, 114)" my_fill_opacity="1" my_font_size="16px" opacity="1"/><path d="M 45.5 258.077 C 45.5 258.077 77.1541 277.5292 88.6053 297.1796 C 111.6383 336.7044 110.3299 406.0151 131.7105 406.0151 C 144.8141 406.0151 155.7764 348.6646 174.8158 348.6646 C 190.2606 348.6646 203.4903 387.7672 217.9211 387.7672 C 237.9745 387.7672 242.6276 345.9031 261.0263 319.3377 C 277.1118 296.1124 283.1743 263.2907 304.1316 263.2907 C 317.6585 263.2907 333.6498 267.1871 347.2368 278.28 C 368.134 295.341 380.4639 333.6753 390.3421 333.6753 C 414.9482 333.6753 411.9973 164.2308 433.4474 164.2308 C 446.4815 164.2308 454.273 226.1351 476.5526 261.3356 C 488.7572 280.6181 505.2842 282.4008 519.6579 300.4381 C 539.7684 325.6744 544.6173 369.5193 562.7632 369.5193 C 579.1015 369.5193 585.0579 329.7212 605.8684 310.2138 C 619.5421 297.3964 636.7377 288.7074 648.9737 288.7074 C 671.222 288.7074 669.4827 364.9574 692.0789 364.9574 C 703.9669 364.9574 722.4473 360.7965 735.1842 348.6646 C 756.9315 327.9504 756.0546 291.1228 778.2895 282.842 C 790.5388 278.28 804.1135 279.5864 821.3947 278.28 C 838.5977 276.9795 864.5 276.3249 864.5 276.3249 L 864.5 282.842 C 864.5 282.842 838.6368 278.28 821.3947 278.28 C 804.1526 278.28 790.3225 278.28 778.2895 282.842 C 755.8383 291.3536 755.3007 326.3319 735.1842 351.2715 C 720.8165 369.084 705.5713 389.7223 692.0789 389.7223 C 671.0871 389.7223 672.1358 310.8655 648.9737 310.8655 C 637.6516 310.8655 619.0238 310.8655 605.8684 319.3377 C 584.5396 333.0737 579.0881 376.0364 562.7632 376.0364 C 544.6039 376.0364 541.8634 309.5621 519.6579 309.5621 C 507.3792 309.5621 491.1717 317.3826 476.5526 317.3826 C 456.6875 317.3826 445.8755 276.3249 433.4474 276.3249 C 411.3913 276.3249 407.7309 372.7779 390.3421 372.7779 C 373.2466 372.7779 369.8634 278.28 347.2368 278.28 C 335.3792 278.28 323.0029 301.3885 304.1316 311.5172 C 288.5187 319.897 273.8027 313.2511 261.0263 324.5514 C 239.3185 343.7512 239.6289 387.7672 217.9211 387.7672 C 205.1447 387.7672 189.8589 374.733 174.8158 374.733 C 155.3747 374.733 148.1074 413.8356 131.7105 413.8356 C 113.6232 413.8356 102.6083 387.5379 88.6053 366.2608 C 68.1241 335.1405 45.5 282.842 45.5 282.842 Z" fill="rgb(252, 132, 82)" fill-opacity="1" stroke="none" transform="matrix(1,0,0,1,0,108.22)" transform_matrix="{&quot;a&quot;:1,&quot;b&quot;:0,&quot;c&quot;:0,&quot;d&quot;:1,&quot;e&quot;:0,&quot;f&quot;:108.22000122070312}" my_stoke="none" my_stoke_width="1px" my_stoke_opacity="1" my_fill="rgb(252, 132, 82)" my_fill_opacity="1" my_font_size="16px" opacity="1"/><path d="M 45.5 282.842 C 45.5 282.842 68.1241 335.1405 88.6053 366.2608 C 102.6083 387.5379 113.6232 413.8356 131.7105 413.8356 C 148.1074 413.8356 155.3747 374.733 174.8158 374.733 C 189.8589 374.733 205.1447 387.7672 217.9211 387.7672 C 239.6289 387.7672 239.3185 343.7512 261.0263 324.5514 C 273.8027 313.2511 288.5187 319.897 304.1316 311.5172 C 323.0029 301.3885 335.3792 278.28 347.2368 278.28 C 369.8634 278.28 373.2466 372.7779 390.3421 372.7779 C 407.7309 372.7779 411.3913 276.3249 433.4474 276.3249 C 445.8755 276.3249 456.6875 317.3826 476.5526 317.3826 C 491.1717 317.3826 507.3792 309.5621 519.6579 309.5621 C 541.8634 309.5621 544.6039 376.0364 562.7632 376.0364 C 579.0881 376.0364 584.5396 333.0737 605.8684 319.3377 C 619.0238 310.8655 637.6516 310.8655 648.9737 310.8655 C 672.1358 310.8655 671.0871 389.7223 692.0789 389.7223 C 705.5713 389.7223 720.8165 369.084 735.1842 351.2715 C 755.3007 326.3319 755.8383 291.3536 778.2895 282.842 C 790.3225 278.28 804.1526 278.28 821.3947 278.28 C 838.6368 278.28 864.5 282.842 864.5 282.842 L 864.5 284.1454 C 864.5 284.1454 838.6679 278.28 821.3947 278.28 C 804.1837 278.28 789.5101 278.28 778.2895 282.842 C 755.0259 292.3003 757.0079 334.3128 735.1842 361.6988 C 722.5237 377.5863 705.374 391.0258 692.0789 391.0258 C 670.8898 391.0258 668.6827 319.9894 648.9737 319.9894 C 634.1985 319.9894 624.7599 348.9626 605.8684 364.9574 C 590.2757 378.1592 575.1612 392.9809 562.7632 392.9809 C 540.677 392.9809 542.8366 312.1689 519.6579 312.1689 C 508.3524 312.1689 493.2469 323.8997 476.5526 323.8997 C 458.7627 323.8997 444.8613 303.6967 433.4474 303.6967 C 410.3771 303.6967 405.7244 389.7223 390.3421 389.7223 C 371.2402 389.7223 368.8425 278.28 347.2368 278.28 C 334.3583 278.28 324.7522 316.4288 304.1316 334.9787 C 290.2679 347.4502 276.0139 344.3902 261.0263 355.8334 C 241.5297 370.7193 237.61 400.8014 217.9211 400.8014 C 203.1258 400.8014 189.1678 382.5535 174.8158 382.5535 C 154.6836 382.5535 150.1845 432.0835 131.7105 432.0835 C 115.7003 432.0835 99.6915 414.1278 88.6053 394.936 C 65.2073 354.4312 45.5 282.842 45.5 282.842 Z" fill="rgb(154, 96, 180)" fill-opacity="1" stroke="none" transform="matrix(1,0,0,1,0,108.22)" transform_matrix="{&quot;a&quot;:1,&quot;b&quot;:0,&quot;c&quot;:0,&quot;d&quot;:1,&quot;e&quot;:0,&quot;f&quot;:108.22000122070312}" my_stoke="none" my_stoke_width="1px" my_stoke_opacity="1" my_fill="rgb(154, 96, 180)" my_fill_opacity="1" my_font_size="16px" opacity="1"/><path d="M 45.5 282.842 C 45.5 282.842 65.2073 354.4312 88.6053 394.936 C 99.6915 414.1278 115.7003 432.0835 131.7105 432.0835 C 150.1845 432.0835 154.6836 382.5535 174.8158 382.5535 C 189.1678 382.5535 203.1258 400.8014 217.9211 400.8014 C 237.61 400.8014 241.5297 370.7193 261.0263 355.8334 C 276.0139 344.3902 290.2679 347.4502 304.1316 334.9787 C 324.7522 316.4288 334.3583 278.28 347.2368 278.28 C 368.8425 278.28 371.2402 389.7223 390.3421 389.7223 C 405.7244 389.7223 410.3771 303.6967 433.4474 303.6967 C 444.8613 303.6967 458.7627 323.8997 476.5526 323.8997 C 493.2469 323.8997 508.3524 312.1689 519.6579 312.1689 C 542.8366 312.1689 540.677 392.9809 562.7632 392.9809 C 575.1612 392.9809 590.2757 378.1592 605.8684 364.9574 C 624.7599 348.9626 634.1985 319.9894 648.9737 319.9894 C 668.6827 319.9894 670.8898 391.0258 692.0789 391.0258 C 705.374 391.0258 722.5237 377.5863 735.1842 361.6988 C 757.0079 334.3128 755.0259 292.3003 778.2895 282.842 C 789.5101 278.28 804.1837 278.28 821.3947 278.28 C 838.6679 278.28 864.5 284.1454 864.5 284.1454 L 864.5 294.5727 C 864.5 294.5727 839.1643 278.28 821.3947 278.28 C 804.6801 278.28 789.5101 278.28 778.2895 282.842 C 755.0259 292.3003 756.6607 333.7743 735.1842 361.6988 C 722.1765 378.612 705.4016 394.936 692.0789 394.936 C 670.9174 394.936 669.0171 319.9894 648.9737 319.9894 C 634.5329 319.9894 623.8899 347.792 605.8684 364.9574 C 589.4057 380.6381 577.0626 402.1048 562.7632 402.1048 C 542.5784 402.1048 541.8753 353.213 519.6579 334.327 C 507.3911 323.8997 493.7641 323.8997 476.5526 323.8997 C 459.2799 323.8997 446.073 324.0027 433.4474 334.9787 C 411.5888 353.9813 403.2977 398.8463 390.3421 398.8463 C 368.8135 398.8463 369.3952 278.28 347.2368 278.28 C 334.911 278.28 324.7522 316.4288 304.1316 334.9787 C 290.2679 347.4502 276.0139 344.3902 261.0263 355.8334 C 241.5297 370.7193 237.61 400.8014 217.9211 400.8014 C 203.1258 400.8014 188.5516 382.5535 174.8158 382.5535 C 154.0674 382.5535 151.5592 418.9445 131.7105 438.6006 C 117.0749 453.0941 96.0291 467.9275 88.6053 467.9275 C 61.5449 467.9275 45.5 282.842 45.5 282.842 Z" fill="rgb(234, 124, 204)" fill-opacity="1" stroke="none" transform="matrix(1,0,0,1,0,108.22)" transform_matrix="{&quot;a&quot;:1,&quot;b&quot;:0,&quot;c&quot;:0,&quot;d&quot;:1,&quot;e&quot;:0,&quot;f&quot;:108.22000122070312}" my_stoke="none" my_stoke_width="1px" my_stoke_opacity="1" my_fill="rgb(234, 124, 204)" my_fill_opacity="1" my_font_size="16px" opacity="1"/><path d="M 45.5 282.842 C 45.5 282.842 61.5449 467.9275 88.6053 467.9275 C 96.0291 467.9275 117.0749 453.0941 131.7105 438.6006 C 151.5592 418.9445 154.0674 382.5535 174.8158 382.5535 C 188.5516 382.5535 203.1258 400.8014 217.9211 400.8014 C 237.61 400.8014 241.5297 370.7193 261.0263 355.8334 C 276.0139 344.3902 290.2679 347.4502 304.1316 334.9787 C 324.7522 316.4288 334.911 278.28 347.2368 278.28 C 369.3952 278.28 368.8135 398.8463 390.3421 398.8463 C 403.2977 398.8463 411.5888 353.9813 433.4474 334.9787 C 446.073 324.0027 459.2799 323.8997 476.5526 323.8997 C 493.7641 323.8997 507.3911 323.8997 519.6579 334.327 C 541.8753 353.213 542.5784 402.1048 562.7632 402.1048 C 577.0626 402.1048 589.4057 380.6381 605.8684 364.9574 C 623.8899 347.792 634.5329 319.9894 648.9737 319.9894 C 669.0171 319.9894 670.9174 394.936 692.0789 394.936 C 705.4016 394.936 722.1765 378.612 735.1842 361.6988 C 756.6607 333.7743 755.0259 292.3003 778.2895 282.842 C 789.5101 278.28 804.6801 278.28 821.3947 278.28 C 839.1643 278.28 864.5 294.5727 864.5 294.5727 L 864.5 295.8762 C 864.5 295.8762 839.2529 278.28 821.3947 278.28 C 804.7687 278.28 789.5101 278.28 778.2895 282.842 C 755.0259 292.3003 755.6772 332.5745 735.1842 361.6988 C 721.193 381.583 706.955 405.3634 692.0789 405.3634 C 672.4708 405.3634 669.7059 336.9339 648.9737 336.9339 C 635.2217 336.9339 622.6024 355.4586 605.8684 368.8676 C 588.1182 383.0911 576.7242 406.0151 562.7632 406.0151 C 542.24 406.0151 540.1188 334.327 519.6579 334.327 C 505.6346 334.327 495.5826 359.8983 476.5526 372.1262 C 461.0984 382.0564 450.1245 381.5277 433.4474 389.7223 C 415.6403 398.4722 399.244 414.4873 390.3421 414.4873 C 364.7598 414.4873 368.6144 278.28 347.2368 278.28 C 334.1302 278.28 327.239 351.8827 304.1316 354.53 C 292.7547 355.8334 273.7979 354.53 261.0263 355.8334 C 239.3137 358.0494 238.471 415.139 217.9211 415.139 C 203.9868 415.139 189.4229 390.3741 174.8158 390.3741 C 154.9387 390.3741 147.8924 420.859 131.7105 442.5108 C 113.4081 467 98.0103 505.7267 88.6053 505.7267 C 63.5261 505.7267 45.5 306.3035 45.5 306.3035 Z" fill="rgb(84, 112, 198)" fill-opacity="1" stroke="none" transform="matrix(1,0,0,1,0,108.22)" transform_matrix="{&quot;a&quot;:1,&quot;b&quot;:0,&quot;c&quot;:0,&quot;d&quot;:1,&quot;e&quot;:0,&quot;f&quot;:108.22000122070312}" my_stoke="none" my_stoke_width="1px" my_stoke_opacity="1" my_fill="rgb(84, 112, 198)" my_fill_opacity="1" my_font_size="16px" opacity="1"/><path d="M 45.5 306.3035 C 45.5 306.3035 63.5261 505.7267 88.6053 505.7267 C 98.0103 505.7267 113.4081 467 131.7105 442.5108 C 147.8924 420.859 154.9387 390.3741 174.8158 390.3741 C 189.4229 390.3741 203.9868 415.139 217.9211 415.139 C 238.471 415.139 239.3137 358.0494 261.0263 355.8334 C 273.7979 354.53 292.7547 355.8334 304.1316 354.53 C 327.239 351.8827 334.1302 278.28 347.2368 278.28 C 368.6144 278.28 364.7598 414.4873 390.3421 414.4873 C 399.244 414.4873 415.6403 398.4722 433.4474 389.7223 C 450.1245 381.5277 461.0984 382.0564 476.5526 372.1262 C 495.5826 359.8983 505.6346 334.327 519.6579 334.327 C 540.1188 334.327 542.24 406.0151 562.7632 406.0151 C 576.7242 406.0151 588.1182 383.0911 605.8684 368.8676 C 622.6024 355.4586 635.2217 336.9339 648.9737 336.9339 C 669.7059 336.9339 672.4708 405.3634 692.0789 405.3634 C 706.955 405.3634 721.193 381.583 735.1842 361.6988 C 755.6772 332.5745 755.0259 292.3003 778.2895 282.842 C 789.5101 278.28 804.7687 278.28 821.3947 278.28 C 839.2529 278.28 864.5 295.8762 864.5 295.8762 L 864.5 318.0343 C 864.5 318.0343 841.2223 278.28 821.3947 278.28 C 806.7381 278.28 787.608 278.28 778.2895 282.842 C 753.1238 295.1621 760.0584 356.3265 735.1842 391.6775 C 725.5742 405.3351 704.777 405.3634 692.0789 405.3634 C 670.2928 405.3634 669.4817 340.8441 648.9737 340.8441 C 634.9975 340.8441 621.7016 357.5903 605.8684 371.4745 C 587.2174 387.8296 577.8251 416.4424 562.7632 416.4424 C 543.3409 416.4424 541.0636 348.6646 519.6579 348.6646 C 506.5794 348.6646 492.2642 360.6054 476.5526 372.1262 C 457.7799 385.8917 453.1853 401.4127 433.4474 411.8805 C 418.7011 419.701 398.2247 419.701 390.3421 419.701 C 363.7404 419.701 368.2762 278.28 347.2368 278.28 C 333.792 278.28 327.0166 334.4975 304.1316 362.3505 C 292.5324 376.4676 273.3178 369.5464 261.0263 383.2052 C 238.8336 407.8669 236.155 458.1519 217.9211 458.1519 C 201.6708 458.1519 189.3594 394.2843 174.8158 394.2843 C 154.8751 394.2843 151.475 453.5342 131.7105 490.7373 C 116.9908 518.4445 97.9088 556.56 88.6053 556.56 C 63.4246 556.56 45.5 348.0129 45.5 348.0129 Z" fill="rgb(145, 204, 117)" fill-opacity="1" stroke="none" transform="matrix(1,0,0,1,0,108.22)" transform_matrix="{&quot;a&quot;:1,&quot;b&quot;:0,&quot;c&quot;:0,&quot;d&quot;:1,&quot;e&quot;:0,&quot;f&quot;:108.22000122070312}" my_stoke="none" my_stoke_width="1px" my_stoke_opacity="1" my_fill="rgb(145, 204, 117)" my_fill_opacity="1" my_font_size="16px" opacity="1"/></g></svg>