<svg xmlns="http://www.w3.org/2000/svg" xmlns:xlink="http://www.w3.org/1999/xlink" version="1.1" baseProfile="full" width="910" height="773" style="user-select: none; position: absolute; left: 0px; top: 0px;" transform_matrix="{&quot;a&quot;:1,&quot;b&quot;:0,&quot;c&quot;:0,&quot;d&quot;:1,&quot;e&quot;:0,&quot;f&quot;:0}"><g><defs/><path d="M 45.5 50 L 45.5 723 M 86.5 50 L 86.5 723 M 168.5 50 L 168.5 723 M 250.5 50 L 250.5 723 M 332.5 50 L 332.5 723 M 414.5 50 L 414.5 723 M 496.5 50 L 496.5 723 M 578.5 50 L 578.5 723 M 660.5 50 L 660.5 723 M 741.5 50 L 741.5 723 M 823.5 50 L 823.5 723 M 864.5 50 L 864.5 723" fill="rgb(0, 0, 0)" fill-opacity="0.2" stroke="#E0E6F1" stroke-width="1" paint-order="fill" stroke-opacity="0.2" stroke-dasharray="4,2" stroke-dashoffset="0" stroke-linecap="butt" stroke-miterlimit="10" transform_matrix="{&quot;a&quot;:1,&quot;b&quot;:0,&quot;c&quot;:0,&quot;d&quot;:1,&quot;e&quot;:0,&quot;f&quot;:0}" my_stoke="rgb(224, 230, 241)" my_stoke_width="1px" my_stoke_opacity="0.2" my_fill="rgb(0, 0, 0)" my_fill_opacity="0.2" my_font_size="16px" opacity="1"/><path d="M 45.5 723.5 L 864.5 723.5" fill="none" stroke="#6E7079" stroke-width="1" paint-order="fill" stroke-opacity="1" stroke-dasharray="" stroke-linecap="round" stroke-miterlimit="10" transform_matrix="{&quot;a&quot;:1,&quot;b&quot;:0,&quot;c&quot;:0,&quot;d&quot;:1,&quot;e&quot;:0,&quot;f&quot;:0}" my_stoke="rgb(110, 112, 121)" my_stoke_width="1px" my_stoke_opacity="1" my_fill="none" my_fill_opacity="1" my_font_size="16px" opacity="1"/><path d="M 86.5 723 L 86.5 729" fill="none" stroke="#6E7079" stroke-width="1" paint-order="fill" stroke-opacity="1" stroke-dasharray="" stroke-linecap="butt" stroke-miterlimit="10" transform_matrix="{&quot;a&quot;:1,&quot;b&quot;:0,&quot;c&quot;:0,&quot;d&quot;:1,&quot;e&quot;:0,&quot;f&quot;:0}" my_stoke="rgb(110, 112, 121)" my_stoke_width="1px" my_stoke_opacity="1" my_fill="none" my_fill_opacity="1" my_font_size="16px" opacity="1"/><path d="M 168.5 723 L 168.5 729" fill="none" stroke="#6E7079" stroke-width="1" paint-order="fill" stroke-opacity="1" stroke-dasharray="" stroke-linecap="butt" stroke-miterlimit="10" transform_matrix="{&quot;a&quot;:1,&quot;b&quot;:0,&quot;c&quot;:0,&quot;d&quot;:1,&quot;e&quot;:0,&quot;f&quot;:0}" my_stoke="rgb(110, 112, 121)" my_stoke_width="1px" my_stoke_opacity="1" my_fill="none" my_fill_opacity="1" my_font_size="16px" opacity="1"/><path d="M 250.5 723 L 250.5 729" fill="none" stroke="#6E7079" stroke-width="1" paint-order="fill" stroke-opacity="1" stroke-dasharray="" stroke-linecap="butt" stroke-miterlimit="10" transform_matrix="{&quot;a&quot;:1,&quot;b&quot;:0,&quot;c&quot;:0,&quot;d&quot;:1,&quot;e&quot;:0,&quot;f&quot;:0}" my_stoke="rgb(110, 112, 121)" my_stoke_width="1px" my_stoke_opacity="1" my_fill="none" my_fill_opacity="1" my_font_size="16px" opacity="1"/><path d="M 332.5 723 L 332.5 729" fill="none" stroke="#6E7079" stroke-width="1" paint-order="fill" stroke-opacity="1" stroke-dasharray="" stroke-linecap="butt" stroke-miterlimit="10" transform_matrix="{&quot;a&quot;:1,&quot;b&quot;:0,&quot;c&quot;:0,&quot;d&quot;:1,&quot;e&quot;:0,&quot;f&quot;:0}" my_stoke="rgb(110, 112, 121)" my_stoke_width="1px" my_stoke_opacity="1" my_fill="none" my_fill_opacity="1" my_font_size="16px" opacity="1"/><path d="M 414.5 723 L 414.5 729" fill="none" stroke="#6E7079" stroke-width="1" paint-order="fill" stroke-opacity="1" stroke-dasharray="" stroke-linecap="butt" stroke-miterlimit="10" transform_matrix="{&quot;a&quot;:1,&quot;b&quot;:0,&quot;c&quot;:0,&quot;d&quot;:1,&quot;e&quot;:0,&quot;f&quot;:0}" my_stoke="rgb(110, 112, 121)" my_stoke_width="1px" my_stoke_opacity="1" my_fill="none" my_fill_opacity="1" my_font_size="16px" opacity="1"/><path d="M 496.5 723 L 496.5 729" fill="none" stroke="#6E7079" stroke-width="1" paint-order="fill" stroke-opacity="1" stroke-dasharray="" stroke-linecap="butt" stroke-miterlimit="10" transform_matrix="{&quot;a&quot;:1,&quot;b&quot;:0,&quot;c&quot;:0,&quot;d&quot;:1,&quot;e&quot;:0,&quot;f&quot;:0}" my_stoke="rgb(110, 112, 121)" my_stoke_width="1px" my_stoke_opacity="1" my_fill="none" my_fill_opacity="1" my_font_size="16px" opacity="1"/><path d="M 578.5 723 L 578.5 729" fill="none" stroke="#6E7079" stroke-width="1" paint-order="fill" stroke-opacity="1" stroke-dasharray="" stroke-linecap="butt" stroke-miterlimit="10" transform_matrix="{&quot;a&quot;:1,&quot;b&quot;:0,&quot;c&quot;:0,&quot;d&quot;:1,&quot;e&quot;:0,&quot;f&quot;:0}" my_stoke="rgb(110, 112, 121)" my_stoke_width="1px" my_stoke_opacity="1" my_fill="none" my_fill_opacity="1" my_font_size="16px" opacity="1"/><path d="M 660.5 723 L 660.5 729" fill="none" stroke="#6E7079" stroke-width="1" paint-order="fill" stroke-opacity="1" stroke-dasharray="" stroke-linecap="butt" stroke-miterlimit="10" transform_matrix="{&quot;a&quot;:1,&quot;b&quot;:0,&quot;c&quot;:0,&quot;d&quot;:1,&quot;e&quot;:0,&quot;f&quot;:0}" my_stoke="rgb(110, 112, 121)" my_stoke_width="1px" my_stoke_opacity="1" my_fill="none" my_fill_opacity="1" my_font_size="16px" opacity="1"/><path d="M 741.5 723 L 741.5 729" fill="none" stroke="#6E7079" stroke-width="1" paint-order="fill" stroke-opacity="1" stroke-dasharray="" stroke-linecap="butt" stroke-miterlimit="10" transform_matrix="{&quot;a&quot;:1,&quot;b&quot;:0,&quot;c&quot;:0,&quot;d&quot;:1,&quot;e&quot;:0,&quot;f&quot;:0}" my_stoke="rgb(110, 112, 121)" my_stoke_width="1px" my_stoke_opacity="1" my_fill="none" my_fill_opacity="1" my_font_size="16px" opacity="1"/><path d="M 823.5 723 L 823.5 729" fill="none" stroke="#6E7079" stroke-width="1" paint-order="fill" stroke-opacity="1" stroke-dasharray="" stroke-linecap="butt" stroke-miterlimit="10" transform_matrix="{&quot;a&quot;:1,&quot;b&quot;:0,&quot;c&quot;:0,&quot;d&quot;:1,&quot;e&quot;:0,&quot;f&quot;:0}" my_stoke="rgb(110, 112, 121)" my_stoke_width="1px" my_stoke_opacity="1" my_fill="none" my_fill_opacity="1" my_font_size="16px" opacity="1"/><text xml:space="preserve" fill="rgb(110, 112, 121)" fill-opacity="1" stroke="none" transform="matrix(1,0,0,1,86.45,731)" dominant-baseline="central" text-anchor="middle" x="0" y="6" style="font: 12px &quot;Microsoft YaHei&quot;; fill: rgb(110, 112, 121);" transform_matrix="{&quot;a&quot;:1,&quot;b&quot;:0,&quot;c&quot;:0,&quot;d&quot;:1,&quot;e&quot;:86.44999694824219,&quot;f&quot;:731}" text_bbox="{&quot;x&quot;:-3.53125,&quot;y&quot;:-2,&quot;w&quot;:7.0625,&quot;h&quot;:16}" opacity="1" stroke-width="1px" stroke-opacity="1" font-family="&quot;Microsoft YaHei&quot;" my_stoke="none" my_stoke_width="1px" my_stoke_opacity="1" my_fill="rgb(110, 112, 121)" my_fill_opacity="1" my_font_size="12px" clip-path="none" content="9">9</text><text xml:space="preserve" fill="rgb(110, 112, 121)" fill-opacity="1" stroke="none" transform="matrix(1,0,0,1,168.35,731)" dominant-baseline="central" text-anchor="middle" x="0" y="6" style="font: 12px &quot;Microsoft YaHei&quot;; fill: rgb(110, 112, 121);" transform_matrix="{&quot;a&quot;:1,&quot;b&quot;:0,&quot;c&quot;:0,&quot;d&quot;:1,&quot;e&quot;:168.35000610351562,&quot;f&quot;:731}" text_bbox="{&quot;x&quot;:-7.046875,&quot;y&quot;:-2,&quot;w&quot;:14.09375,&quot;h&quot;:16}" opacity="1" stroke-width="1px" stroke-opacity="1" font-family="&quot;Microsoft YaHei&quot;" my_stoke="none" my_stoke_width="1px" my_stoke_opacity="1" my_fill="rgb(110, 112, 121)" my_fill_opacity="1" my_font_size="12px" clip-path="none" content="11">11</text><text xml:space="preserve" fill="rgb(110, 112, 121)" fill-opacity="1" stroke="none" transform="matrix(1,0,0,1,250.25,731)" dominant-baseline="central" text-anchor="middle" x="0" y="6" style="font: 12px &quot;Microsoft YaHei&quot;; fill: rgb(110, 112, 121);" transform_matrix="{&quot;a&quot;:1,&quot;b&quot;:0,&quot;c&quot;:0,&quot;d&quot;:1,&quot;e&quot;:250.25,&quot;f&quot;:731}" text_bbox="{&quot;x&quot;:-7.046875,&quot;y&quot;:-2,&quot;w&quot;:14.09375,&quot;h&quot;:16}" opacity="1" stroke-width="1px" stroke-opacity="1" font-family="&quot;Microsoft YaHei&quot;" my_stoke="none" my_stoke_width="1px" my_stoke_opacity="1" my_fill="rgb(110, 112, 121)" my_fill_opacity="1" my_font_size="12px" clip-path="none" content="13">13</text><text xml:space="preserve" fill="rgb(110, 112, 121)" fill-opacity="1" stroke="none" transform="matrix(1,0,0,1,332.15,731)" dominant-baseline="central" text-anchor="middle" x="0" y="6" style="font: 12px &quot;Microsoft YaHei&quot;; fill: rgb(110, 112, 121);" transform_matrix="{&quot;a&quot;:1,&quot;b&quot;:0,&quot;c&quot;:0,&quot;d&quot;:1,&quot;e&quot;:332.1499938964844,&quot;f&quot;:731}" text_bbox="{&quot;x&quot;:-7.046875,&quot;y&quot;:-2,&quot;w&quot;:14.09375,&quot;h&quot;:16}" opacity="1" stroke-width="1px" stroke-opacity="1" font-family="&quot;Microsoft YaHei&quot;" my_stoke="none" my_stoke_width="1px" my_stoke_opacity="1" my_fill="rgb(110, 112, 121)" my_fill_opacity="1" my_font_size="12px" clip-path="none" content="15">15</text><text xml:space="preserve" fill="rgb(110, 112, 121)" fill-opacity="1" stroke="none" transform="matrix(1,0,0,1,414.05,731)" dominant-baseline="central" text-anchor="middle" x="0" y="6" style="font: 12px &quot;Microsoft YaHei&quot;; fill: rgb(110, 112, 121);" transform_matrix="{&quot;a&quot;:1,&quot;b&quot;:0,&quot;c&quot;:0,&quot;d&quot;:1,&quot;e&quot;:414.04998779296875,&quot;f&quot;:731}" text_bbox="{&quot;x&quot;:-7.046875,&quot;y&quot;:-2,&quot;w&quot;:14.09375,&quot;h&quot;:16}" opacity="1" stroke-width="1px" stroke-opacity="1" font-family="&quot;Microsoft YaHei&quot;" my_stoke="none" my_stoke_width="1px" my_stoke_opacity="1" my_fill="rgb(110, 112, 121)" my_fill_opacity="1" my_font_size="12px" clip-path="none" content="17">17</text><text xml:space="preserve" fill="rgb(110, 112, 121)" fill-opacity="1" stroke="none" transform="matrix(1,0,0,1,495.95,731)" dominant-baseline="central" text-anchor="middle" x="0" y="6" style="font: 12px &quot;Microsoft YaHei&quot;; fill: rgb(110, 112, 121);" transform_matrix="{&quot;a&quot;:1,&quot;b&quot;:0,&quot;c&quot;:0,&quot;d&quot;:1,&quot;e&quot;:495.95001220703125,&quot;f&quot;:731}" text_bbox="{&quot;x&quot;:-7.046875,&quot;y&quot;:-2,&quot;w&quot;:14.09375,&quot;h&quot;:16}" opacity="1" stroke-width="1px" stroke-opacity="1" font-family="&quot;Microsoft YaHei&quot;" my_stoke="none" my_stoke_width="1px" my_stoke_opacity="1" my_fill="rgb(110, 112, 121)" my_fill_opacity="1" my_font_size="12px" clip-path="none" content="19">19</text><text xml:space="preserve" fill="rgb(110, 112, 121)" fill-opacity="1" stroke="none" transform="matrix(1,0,0,1,577.85,731)" dominant-baseline="central" text-anchor="middle" x="0" y="6" style="font: 12px &quot;Microsoft YaHei&quot;; fill: rgb(110, 112, 121);" transform_matrix="{&quot;a&quot;:1,&quot;b&quot;:0,&quot;c&quot;:0,&quot;d&quot;:1,&quot;e&quot;:577.8499755859375,&quot;f&quot;:731}" text_bbox="{&quot;x&quot;:-7.046875,&quot;y&quot;:-2,&quot;w&quot;:14.09375,&quot;h&quot;:16}" opacity="1" stroke-width="1px" stroke-opacity="1" font-family="&quot;Microsoft YaHei&quot;" my_stoke="none" my_stoke_width="1px" my_stoke_opacity="1" my_fill="rgb(110, 112, 121)" my_fill_opacity="1" my_font_size="12px" clip-path="none" content="21">21</text><text xml:space="preserve" fill="rgb(110, 112, 121)" fill-opacity="1" stroke="none" transform="matrix(1,0,0,1,659.75,731)" dominant-baseline="central" text-anchor="middle" x="0" y="6" style="font: 12px &quot;Microsoft YaHei&quot;; fill: rgb(110, 112, 121);" transform_matrix="{&quot;a&quot;:1,&quot;b&quot;:0,&quot;c&quot;:0,&quot;d&quot;:1,&quot;e&quot;:659.75,&quot;f&quot;:731}" text_bbox="{&quot;x&quot;:-7.046875,&quot;y&quot;:-2,&quot;w&quot;:14.09375,&quot;h&quot;:16}" opacity="1" stroke-width="1px" stroke-opacity="1" font-family="&quot;Microsoft YaHei&quot;" my_stoke="none" my_stoke_width="1px" my_stoke_opacity="1" my_fill="rgb(110, 112, 121)" my_fill_opacity="1" my_font_size="12px" clip-path="none" content="23">23</text><text xml:space="preserve" fill="rgb(110, 112, 121)" fill-opacity="1" stroke="none" transform="matrix(1,0,0,1,741.65,731)" dominant-baseline="central" text-anchor="middle" x="0" y="6" style="font: 12px &quot;Microsoft YaHei&quot;; fill: rgb(110, 112, 121);" transform_matrix="{&quot;a&quot;:1,&quot;b&quot;:0,&quot;c&quot;:0,&quot;d&quot;:1,&quot;e&quot;:741.6500244140625,&quot;f&quot;:731}" text_bbox="{&quot;x&quot;:-7.046875,&quot;y&quot;:-2,&quot;w&quot;:14.09375,&quot;h&quot;:16}" opacity="1" stroke-width="1px" stroke-opacity="1" font-family="&quot;Microsoft YaHei&quot;" my_stoke="none" my_stoke_width="1px" my_stoke_opacity="1" my_fill="rgb(110, 112, 121)" my_fill_opacity="1" my_font_size="12px" clip-path="none" content="25">25</text><text xml:space="preserve" fill="rgb(110, 112, 121)" fill-opacity="1" stroke="none" transform="matrix(1,0,0,1,823.55,731)" dominant-baseline="central" text-anchor="middle" x="0" y="6" style="font: 12px &quot;Microsoft YaHei&quot;; fill: rgb(110, 112, 121);" transform_matrix="{&quot;a&quot;:1,&quot;b&quot;:0,&quot;c&quot;:0,&quot;d&quot;:1,&quot;e&quot;:823.5499877929688,&quot;f&quot;:731}" text_bbox="{&quot;x&quot;:-7.046875,&quot;y&quot;:-2,&quot;w&quot;:14.09375,&quot;h&quot;:16}" opacity="1" stroke-width="1px" stroke-opacity="1" font-family="&quot;Microsoft YaHei&quot;" my_stoke="none" my_stoke_width="1px" my_stoke_opacity="1" my_fill="rgb(110, 112, 121)" my_fill_opacity="1" my_font_size="12px" clip-path="none" content="27">27</text><path d="M 45.5 147.8704 C 45.5 147.8704 76.139 133.4587 86.45 116.2742 C 108.899 78.8604 103.5231 11.3746 127.4 11.3746 C 136.2831 11.3746 157.7264 11.3746 168.35 20.2216 C 190.4864 38.6559 188.7286 70.0157 209.3 97.3164 C 221.4886 113.4921 232.6605 118.3267 250.25 128.9127 C 265.4205 138.0428 276.5223 136.8671 291.2 146.6066 C 309.2823 158.6053 319.1904 183.2582 332.15 183.2582 C 351.9504 183.2582 359.4351 140.5313 373.1 109.9549 C 392.1951 67.228 391.21 0 414.05 0 C 423.97 0 437.8253 30.3324 455 30.3324 C 470.5853 30.3324 481.3549 8.8469 495.95 8.8469 C 514.1149 8.8469 520.0165 49.2901 536.9 49.2901 C 552.7765 49.2901 560.8572 13.9023 577.85 13.9023 C 593.6172 13.9023 600.7586 42.9709 618.8 42.9709 C 633.5186 42.9709 645.1502 41.707 659.75 41.707 C 677.9102 41.707 682.5705 72.0394 700.7 72.0394 C 715.3305 72.0394 725.9356 68.2479 741.65 68.2479 C 758.6956 68.2479 768.2956 85.9418 782.6 85.9418 C 801.0556 85.9418 809.8019 45.4986 823.55 45.4986 C 842.5619 45.4986 864.5 113.7465 864.5 113.7465 L 864.5 139.0235 C 864.5 139.0235 841.1411 101.108 823.55 101.108 C 808.3811 101.108 800.2836 126.385 782.6 126.385 C 767.5236 126.385 757.599 123.8573 741.65 123.8573 C 724.839 123.8573 717.0003 137.7596 700.7 137.7596 C 684.2403 137.7596 675.6607 122.5934 659.75 122.5934 C 642.9007 122.5934 633.2704 144.0789 618.8 144.0789 C 600.5104 144.0789 596.7513 102.3718 577.85 102.3718 C 563.9913 102.3718 552.3317 115.0103 536.9 115.0103 C 519.5717 115.0103 510.7428 89.7333 495.95 89.7333 C 477.9828 89.7333 470.7515 131.4404 455 131.4404 C 437.9915 131.4404 428.4294 83.4141 414.05 83.4141 C 395.6694 83.4141 392.7068 127.8129 373.1 152.9258 C 359.9468 169.7728 349.6023 188.3136 332.15 188.3136 C 316.8423 188.3136 308.7265 164.3005 291.2 164.3005 C 275.9665 164.3005 266.0809 169.3559 250.25 169.3559 C 233.3209 169.3559 223.889 162.3813 209.3 152.9258 C 191.129 141.1487 186.521 128.0513 168.35 116.2742 C 153.761 106.8187 140.2865 99.8441 127.4 99.8441 C 107.5265 99.8441 106.1475 136.5597 86.45 154.1897 C 73.3875 165.881 45.5 173.1474 45.5 173.1474 Z" fill="rgb(84, 112, 198)" fill-opacity="1" stroke="none" transform="matrix(1,0,0,1,0,117.3)" transform_matrix="{&quot;a&quot;:1,&quot;b&quot;:0,&quot;c&quot;:0,&quot;d&quot;:1,&quot;e&quot;:0,&quot;f&quot;:117.30000305175781}" my_stoke="none" my_stoke_width="1px" my_stoke_opacity="1" my_fill="rgb(84, 112, 198)" my_fill_opacity="1" my_font_size="16px" opacity="1"/><path d="M 45.5 173.1474 C 45.5 173.1474 73.3875 165.881 86.45 154.1897 C 106.1475 136.5597 107.5265 99.8441 127.4 99.8441 C 140.2865 99.8441 153.761 106.8187 168.35 116.2742 C 186.521 128.0513 191.129 141.1487 209.3 152.9258 C 223.889 162.3813 233.3209 169.3559 250.25 169.3559 C 266.0809 169.3559 275.9665 164.3005 291.2 164.3005 C 308.7265 164.3005 316.8423 188.3136 332.15 188.3136 C 349.6023 188.3136 359.9468 169.7728 373.1 152.9258 C 392.7068 127.8129 395.6694 83.4141 414.05 83.4141 C 428.4294 83.4141 437.9915 131.4404 455 131.4404 C 470.7515 131.4404 477.9828 89.7333 495.95 89.7333 C 510.7428 89.7333 519.5717 115.0103 536.9 115.0103 C 552.3317 115.0103 563.9913 102.3718 577.85 102.3718 C 596.7513 102.3718 600.5104 144.0789 618.8 144.0789 C 633.2704 144.0789 642.9007 122.5934 659.75 122.5934 C 675.6607 122.5934 684.2403 137.7596 700.7 137.7596 C 717.0003 137.7596 724.839 123.8573 741.65 123.8573 C 757.599 123.8573 767.5236 126.385 782.6 126.385 C 800.2836 126.385 808.3811 101.108 823.55 101.108 C 841.1411 101.108 864.5 139.0235 864.5 139.0235 L 864.5 245.1869 C 864.5 245.1869 842.3102 207.2714 823.55 207.2714 C 809.5502 207.2714 798.5918 214.8545 782.6 214.8545 C 765.8318 214.8545 757.3465 207.1972 741.65 199.6883 C 724.5865 191.5254 717.917 175.6751 700.7 175.6751 C 685.157 175.6751 675.293 181.3578 659.75 188.3136 C 642.533 196.0185 633.7326 212.3268 618.8 212.3268 C 600.9726 212.3268 596.1812 173.1474 577.85 173.1474 C 563.4212 173.1474 553.6083 190.8413 536.9 190.8413 C 520.8483 190.8413 510.5502 178.2028 495.95 178.2028 C 477.7902 178.2028 473.0077 212.3268 455 212.3268 C 440.2477 212.3268 430.9523 197.1606 414.05 197.1606 C 398.1923 197.1606 386.4778 197.1606 373.1 198.4244 C 353.7178 200.2555 351.3551 229.2443 332.15 241.3953 C 318.5951 249.9714 307.2405 250.2423 291.2 250.2423 C 274.4805 250.2423 266.1607 242.1964 250.25 235.0761 C 233.4007 227.5357 223.7704 224.7557 209.3 213.5906 C 191.0104 199.4787 186.6396 171.8836 168.35 171.8836 C 153.8796 171.8836 140.8915 181.2936 127.4 193.369 C 108.1315 210.6149 106.0894 228.8212 86.45 245.1869 C 73.3294 256.1203 45.5 261.6169 45.5 261.6169 Z" fill="rgb(145, 204, 117)" fill-opacity="1" stroke="none" transform="matrix(1,0,0,1,0,117.3)" transform_matrix="{&quot;a&quot;:1,&quot;b&quot;:0,&quot;c&quot;:0,&quot;d&quot;:1,&quot;e&quot;:0,&quot;f&quot;:117.30000305175781}" my_stoke="none" my_stoke_width="1px" my_stoke_opacity="1" my_fill="rgb(145, 204, 117)" my_fill_opacity="1" my_font_size="16px" opacity="1"/><path d="M 45.5 261.6169 C 45.5 261.6169 73.3294 256.1203 86.45 245.1869 C 106.0894 228.8212 108.1315 210.6149 127.4 193.369 C 140.8915 181.2936 153.8796 171.8836 168.35 171.8836 C 186.6396 171.8836 191.0104 199.4787 209.3 213.5906 C 223.7704 224.7557 233.4007 227.5357 250.25 235.0761 C 266.1607 242.1964 274.4805 250.2423 291.2 250.2423 C 307.2405 250.2423 318.5951 249.9714 332.15 241.3953 C 351.3551 229.2443 353.7178 200.2555 373.1 198.4244 C 386.4778 197.1606 398.1923 197.1606 414.05 197.1606 C 430.9523 197.1606 440.2477 212.3268 455 212.3268 C 473.0077 212.3268 477.7902 178.2028 495.95 178.2028 C 510.5502 178.2028 520.8483 190.8413 536.9 190.8413 C 553.6083 190.8413 563.4212 173.1474 577.85 173.1474 C 596.1812 173.1474 600.9726 212.3268 618.8 212.3268 C 633.7326 212.3268 642.533 196.0185 659.75 188.3136 C 675.293 181.3578 685.157 175.6751 700.7 175.6751 C 717.917 175.6751 724.5865 191.5254 741.65 199.6883 C 757.3465 207.1972 765.8318 214.8545 782.6 214.8545 C 798.5918 214.8545 809.5502 207.2714 823.55 207.2714 C 842.3102 207.2714 864.5 245.1869 864.5 245.1869 L 864.5 348.8225 C 864.5 348.8225 840.9681 326.0732 823.55 326.0732 C 808.2081 326.0732 797.4935 331.1286 782.6 331.1286 C 764.7335 331.1286 757.4234 315.251 741.65 303.3239 C 724.6634 290.4796 718.7077 280.0376 700.7 269.2 C 685.9477 260.3216 674.9872 254.0338 659.75 254.0338 C 642.2272 254.0338 635.6406 283.1023 618.8 283.1023 C 602.8806 283.1023 593.4054 259.0892 577.85 259.0892 C 560.6454 259.0892 555.2441 291.9493 536.9 291.9493 C 522.4841 291.9493 512.2051 286.8939 495.95 286.8939 C 479.4451 286.8939 471.4287 295.7408 455 295.7408 C 438.6687 295.7408 430.2637 288.1577 414.05 288.1577 C 397.5037 288.1577 387.0155 290.7281 373.1 299.5324 C 354.2555 311.4553 351.2874 339.9756 332.15 339.9756 C 318.5274 339.9756 303.8586 339.9756 291.2 338.7117 C 271.0986 336.7048 269.929 303.6454 250.25 288.1577 C 237.169 277.8628 222.9848 283.9697 209.3 274.2554 C 190.2248 260.7148 185.9814 230.0207 168.35 230.0207 C 153.2214 230.0207 142.279 247.3813 127.4 261.6169 C 109.519 278.7247 106.1068 298.8996 86.45 308.3793 C 73.3468 314.6986 45.5 314.6986 45.5 314.6986 Z" fill="rgb(250, 200, 88)" fill-opacity="1" stroke="none" transform="matrix(1,0,0,1,0,117.3)" transform_matrix="{&quot;a&quot;:1,&quot;b&quot;:0,&quot;c&quot;:0,&quot;d&quot;:1,&quot;e&quot;:0,&quot;f&quot;:117.30000305175781}" my_stoke="none" my_stoke_width="1px" my_stoke_opacity="1" my_fill="rgb(250, 200, 88)" my_fill_opacity="1" my_font_size="16px" opacity="1"/><path d="M 45.5 314.6986 C 45.5 314.6986 73.3468 314.6986 86.45 308.3793 C 106.1068 298.8996 109.519 278.7247 127.4 261.6169 C 142.279 247.3813 153.2214 230.0207 168.35 230.0207 C 185.9814 230.0207 190.2248 260.7148 209.3 274.2554 C 222.9848 283.9697 237.169 277.8628 250.25 288.1577 C 269.929 303.6454 271.0986 336.7048 291.2 338.7117 C 303.8586 339.9756 318.5274 339.9756 332.15 339.9756 C 351.2874 339.9756 354.2555 311.4553 373.1 299.5324 C 387.0155 290.7281 397.5037 288.1577 414.05 288.1577 C 430.2637 288.1577 438.6687 295.7408 455 295.7408 C 471.4287 295.7408 479.4451 286.8939 495.95 286.8939 C 512.2051 286.8939 522.4841 291.9493 536.9 291.9493 C 555.2441 291.9493 560.6454 259.0892 577.85 259.0892 C 593.4054 259.0892 602.8806 283.1023 618.8 283.1023 C 635.6406 283.1023 642.2272 254.0338 659.75 254.0338 C 674.9872 254.0338 685.9477 260.3216 700.7 269.2 C 718.7077 280.0376 724.6634 290.4796 741.65 303.3239 C 757.4234 315.251 764.7335 331.1286 782.6 331.1286 C 797.4935 331.1286 808.2081 326.0732 823.55 326.0732 C 840.9681 326.0732 864.5 348.8225 864.5 348.8225 L 864.5 374.0995 C 864.5 374.0995 839.8257 381.6826 823.55 381.6826 C 807.0657 381.6826 798.8497 376.0855 782.6 371.5718 C 766.0897 366.9858 757.193 365.8891 741.65 358.9333 C 724.433 351.2284 718.2881 334.9202 700.7 334.9202 C 685.5281 334.9202 672.5226 334.9202 659.75 334.9202 C 639.7626 334.9202 636.4356 384.2103 618.8 384.2103 C 603.6756 384.2103 596.3846 347.5587 577.85 347.5587 C 563.6246 347.5587 553.28 353.6252 536.9 357.6695 C 520.52 361.7138 510.9049 360.6261 495.95 367.7803 C 478.1449 376.2979 471.729 396.8488 455 396.8488 C 438.969 396.8488 430.081 382.2094 414.05 371.5718 C 397.321 360.4711 391.1298 342.5033 373.1 342.5033 C 358.3698 342.5033 348.2412 342.5033 332.15 345.031 C 315.4812 347.6494 306.3342 356.4056 291.2 356.4056 C 273.5742 356.4056 268.1741 328.6009 250.25 328.6009 C 235.4141 328.6009 225.6489 329.8648 209.3 329.8648 C 192.8889 329.8648 183.5567 326.0732 168.35 326.0732 C 150.7967 326.0732 144.9533 350.0864 127.4 350.0864 C 112.1933 350.0864 102.7686 348.3094 86.45 346.2948 C 70.0086 344.2651 45.5 339.9756 45.5 339.9756 Z" fill="rgb(238, 102, 102)" fill-opacity="1" stroke="none" transform="matrix(1,0,0,1,0,117.3)" transform_matrix="{&quot;a&quot;:1,&quot;b&quot;:0,&quot;c&quot;:0,&quot;d&quot;:1,&quot;e&quot;:0,&quot;f&quot;:117.30000305175781}" my_stoke="none" my_stoke_width="1px" my_stoke_opacity="1" my_fill="rgb(238, 102, 102)" my_fill_opacity="1" my_font_size="16px" opacity="1"/><path d="M 45.5 339.9756 C 45.5 339.9756 70.0086 344.2651 86.45 346.2948 C 102.7686 348.3094 112.1933 350.0864 127.4 350.0864 C 144.9533 350.0864 150.7967 326.0732 168.35 326.0732 C 183.5567 326.0732 192.8889 329.8648 209.3 329.8648 C 225.6489 329.8648 235.4141 328.6009 250.25 328.6009 C 268.1741 328.6009 273.5742 356.4056 291.2 356.4056 C 306.3342 356.4056 315.4812 347.6494 332.15 345.031 C 348.2412 342.5033 358.3698 342.5033 373.1 342.5033 C 391.1298 342.5033 397.321 360.4711 414.05 371.5718 C 430.081 382.2094 438.969 396.8488 455 396.8488 C 471.729 396.8488 478.1449 376.2979 495.95 367.7803 C 510.9049 360.6261 520.52 361.7138 536.9 357.6695 C 553.28 353.6252 563.6246 347.5587 577.85 347.5587 C 596.3846 347.5587 603.6756 384.2103 618.8 384.2103 C 636.4356 384.2103 639.7626 334.9202 659.75 334.9202 C 672.5226 334.9202 685.5281 334.9202 700.7 334.9202 C 718.2881 334.9202 724.433 351.2284 741.65 358.9333 C 757.193 365.8891 766.0897 366.9858 782.6 371.5718 C 798.8497 376.0855 807.0657 381.6826 823.55 381.6826 C 839.8257 381.6826 864.5 374.0995 864.5 374.0995 L 864.5 399.3765 C 864.5 399.3765 841.1411 437.292 823.55 437.292 C 808.3811 437.292 800.2836 412.015 782.6 412.015 C 767.5236 412.015 757.599 414.5427 741.65 414.5427 C 724.839 414.5427 717.0003 400.6404 700.7 400.6404 C 684.2403 400.6404 675.6607 415.8066 659.75 415.8066 C 642.9007 415.8066 633.2704 394.3211 618.8 394.3211 C 600.5104 394.3211 596.7513 436.0282 577.85 436.0282 C 563.9913 436.0282 552.3317 423.3897 536.9 423.3897 C 519.5717 423.3897 510.0004 435.8743 495.95 448.6667 C 477.2404 465.7012 472.0067 497.9568 455 497.9568 C 439.2467 497.9568 427.9363 474.0576 414.05 454.9859 C 395.1763 429.0645 392.7068 410.5871 373.1 385.4742 C 359.9468 368.6272 349.6023 350.0864 332.15 350.0864 C 316.8423 350.0864 308.7265 374.0995 291.2 374.0995 C 275.9665 374.0995 266.0809 369.0441 250.25 369.0441 C 233.3209 369.0441 223.889 376.0187 209.3 385.4742 C 191.129 397.2513 186.521 410.3487 168.35 422.1258 C 153.761 431.5813 140.2865 438.5559 127.4 438.5559 C 107.5265 438.5559 106.1475 401.8403 86.45 384.2103 C 73.3875 372.519 45.5 365.2526 45.5 365.2526 Z" fill="rgb(115, 192, 222)" fill-opacity="1" stroke="none" transform="matrix(1,0,0,1,0,117.3)" transform_matrix="{&quot;a&quot;:1,&quot;b&quot;:0,&quot;c&quot;:0,&quot;d&quot;:1,&quot;e&quot;:0,&quot;f&quot;:117.30000305175781}" my_stoke="none" my_stoke_width="1px" my_stoke_opacity="1" my_fill="rgb(115, 192, 222)" my_fill_opacity="1" my_font_size="16px" opacity="1"/><path d="M 45.5 365.2526 C 45.5 365.2526 73.3875 372.519 86.45 384.2103 C 106.1475 401.8403 107.5265 438.5559 127.4 438.5559 C 140.2865 438.5559 153.761 431.5813 168.35 422.1258 C 186.521 410.3487 191.129 397.2513 209.3 385.4742 C 223.889 376.0187 233.3209 369.0441 250.25 369.0441 C 266.0809 369.0441 275.9665 374.0995 291.2 374.0995 C 308.7265 374.0995 316.8423 350.0864 332.15 350.0864 C 349.6023 350.0864 359.9468 368.6272 373.1 385.4742 C 392.7068 410.5871 395.1763 429.0645 414.05 454.9859 C 427.9363 474.0576 439.2467 497.9568 455 497.9568 C 472.0067 497.9568 477.2404 465.7012 495.95 448.6667 C 510.0004 435.8743 519.5717 423.3897 536.9 423.3897 C 552.3317 423.3897 563.9913 436.0282 577.85 436.0282 C 596.7513 436.0282 600.5104 394.3211 618.8 394.3211 C 633.2704 394.3211 642.9007 415.8066 659.75 415.8066 C 675.6607 415.8066 684.2403 400.6404 700.7 400.6404 C 717.0003 400.6404 724.839 414.5427 741.65 414.5427 C 757.599 414.5427 767.5236 412.015 782.6 412.015 C 800.2836 412.015 808.3811 437.292 823.55 437.292 C 841.1411 437.292 864.5 399.3765 864.5 399.3765 L 864.5 424.6535 C 864.5 424.6535 842.5619 492.9014 823.55 492.9014 C 809.8019 492.9014 801.0556 452.4582 782.6 452.4582 C 768.2956 452.4582 758.6956 470.1521 741.65 470.1521 C 725.9356 470.1521 715.3305 466.3606 700.7 466.3606 C 682.5705 466.3606 677.9102 496.693 659.75 496.693 C 645.1502 496.693 633.5186 495.4291 618.8 495.4291 C 600.7586 495.4291 593.6172 524.4977 577.85 524.4977 C 560.8572 524.4977 552.7765 489.1099 536.9 489.1099 C 520.0165 489.1099 514.1149 529.5531 495.95 529.5531 C 481.3549 529.5531 470.5853 508.0676 455 508.0676 C 437.8253 508.0676 423.97 538.4 414.05 538.4 C 391.21 538.4 392.1951 471.172 373.1 428.4451 C 359.4351 397.8687 351.9504 355.1418 332.15 355.1418 C 319.1904 355.1418 309.2823 379.7947 291.2 391.7934 C 276.5223 401.5329 265.4205 400.3572 250.25 409.4873 C 232.6605 420.0733 221.4886 424.9079 209.3 441.0836 C 188.7286 468.3843 190.4864 499.7441 168.35 518.1784 C 157.7264 527.0254 136.2831 527.0254 127.4 527.0254 C 103.5231 527.0254 108.899 459.5396 86.45 422.1258 C 76.139 404.9413 45.5 390.5296 45.5 390.5296 Z" fill="rgb(59, 162, 114)" fill-opacity="1" stroke="none" transform="matrix(1,0,0,1,0,117.3)" transform_matrix="{&quot;a&quot;:1,&quot;b&quot;:0,&quot;c&quot;:0,&quot;d&quot;:1,&quot;e&quot;:0,&quot;f&quot;:117.30000305175781}" my_stoke="none" my_stoke_width="1px" my_stoke_opacity="1" my_fill="rgb(59, 162, 114)" my_fill_opacity="1" my_font_size="16px" opacity="1"/><text xml:space="preserve" fill="rgb(51, 51, 51)" fill-opacity="1" stroke="rgb(255, 255, 255)" stroke-width="2px" paint-order="stroke" stroke-opacity="1" stroke-dasharray="" stroke-linecap="butt" stroke-miterlimit="2" transform="matrix(1,0,0,1,41.5,277.8089)" dominant-baseline="central" text-anchor="start" x="0" y="0" style="font: 11px &quot;Microsoft YaHei&quot;; fill: rgb(51, 51, 51);" transform_matrix="{&quot;a&quot;:1,&quot;b&quot;:0,&quot;c&quot;:0,&quot;d&quot;:1,&quot;e&quot;:41.5,&quot;f&quot;:277.80889892578125}" text_bbox="{&quot;x&quot;:0,&quot;y&quot;:-7.5,&quot;w&quot;:18.390625,&quot;h&quot;:15}" opacity="1" font-family="&quot;Microsoft YaHei&quot;" my_stoke="rgb(255, 255, 255)" my_stoke_width="2px" my_stoke_opacity="1" my_fill="rgb(51, 51, 51)" my_fill_opacity="1" my_font_size="11px" clip-path="none" content="DQ">DQ</text><text xml:space="preserve" fill="rgb(51, 51, 51)" fill-opacity="1" stroke="rgb(255, 255, 255)" stroke-width="2px" paint-order="stroke" stroke-opacity="1" stroke-dasharray="" stroke-linecap="butt" stroke-miterlimit="2" transform="matrix(1,0,0,1,41.5,334.6822)" dominant-baseline="central" text-anchor="start" x="0" y="0" style="font: 11px &quot;Microsoft YaHei&quot;; fill: rgb(51, 51, 51);" transform_matrix="{&quot;a&quot;:1,&quot;b&quot;:0,&quot;c&quot;:0,&quot;d&quot;:1,&quot;e&quot;:41.5,&quot;f&quot;:334.68218994140625}" text_bbox="{&quot;x&quot;:-1,&quot;y&quot;:-7.5,&quot;w&quot;:14.3125,&quot;h&quot;:15}" opacity="1" font-family="&quot;Microsoft YaHei&quot;" my_stoke="rgb(255, 255, 255)" my_stoke_width="2px" my_stoke_opacity="1" my_fill="rgb(51, 51, 51)" my_fill_opacity="1" my_font_size="11px" clip-path="none" content="TY">TY</text><text xml:space="preserve" fill="rgb(51, 51, 51)" fill-opacity="1" stroke="rgb(255, 255, 255)" stroke-width="2px" paint-order="stroke" stroke-opacity="1" stroke-dasharray="" stroke-linecap="butt" stroke-miterlimit="2" transform="matrix(1,0,0,1,41.5,405.4577)" dominant-baseline="central" text-anchor="start" x="0" y="0" style="font: 11px &quot;Microsoft YaHei&quot;; fill: rgb(51, 51, 51);" transform_matrix="{&quot;a&quot;:1,&quot;b&quot;:0,&quot;c&quot;:0,&quot;d&quot;:1,&quot;e&quot;:41.5,&quot;f&quot;:405.45770263671875}" text_bbox="{&quot;x&quot;:0,&quot;y&quot;:-7.5,&quot;w&quot;:13.359375,&quot;h&quot;:15}" opacity="1" font-family="&quot;Microsoft YaHei&quot;" my_stoke="rgb(255, 255, 255)" my_stoke_width="2px" my_stoke_opacity="1" my_fill="rgb(51, 51, 51)" my_fill_opacity="1" my_font_size="11px" clip-path="none" content="SS">SS</text><text xml:space="preserve" fill="rgb(51, 51, 51)" fill-opacity="1" stroke="rgb(255, 255, 255)" stroke-width="2px" paint-order="stroke" stroke-opacity="1" stroke-dasharray="" stroke-linecap="butt" stroke-miterlimit="2" transform="matrix(1,0,0,1,41.5,444.6371)" dominant-baseline="central" text-anchor="start" x="0" y="0" style="font: 11px &quot;Microsoft YaHei&quot;; fill: rgb(51, 51, 51);" transform_matrix="{&quot;a&quot;:1,&quot;b&quot;:0,&quot;c&quot;:0,&quot;d&quot;:1,&quot;e&quot;:41.5,&quot;f&quot;:444.6370849609375}" text_bbox="{&quot;x&quot;:0,&quot;y&quot;:-7.5,&quot;w&quot;:17.15625,&quot;h&quot;:15}" opacity="1" font-family="&quot;Microsoft YaHei&quot;" my_stoke="rgb(255, 255, 255)" my_stoke_width="2px" my_stoke_opacity="1" my_fill="rgb(51, 51, 51)" my_fill_opacity="1" my_font_size="11px" clip-path="none" content="QG">QG</text><text xml:space="preserve" fill="rgb(51, 51, 51)" fill-opacity="1" stroke="rgb(255, 255, 255)" stroke-width="2px" paint-order="stroke" stroke-opacity="1" stroke-dasharray="" stroke-linecap="butt" stroke-miterlimit="2" transform="matrix(1,0,0,1,41.5,469.9141)" dominant-baseline="central" text-anchor="start" x="0" y="0" style="font: 11px &quot;Microsoft YaHei&quot;; fill: rgb(51, 51, 51);" transform_matrix="{&quot;a&quot;:1,&quot;b&quot;:0,&quot;c&quot;:0,&quot;d&quot;:1,&quot;e&quot;:41.5,&quot;f&quot;:469.9140930175781}" text_bbox="{&quot;x&quot;:0,&quot;y&quot;:-7.5,&quot;w&quot;:13.359375,&quot;h&quot;:15}" opacity="1" font-family="&quot;Microsoft YaHei&quot;" my_stoke="rgb(255, 255, 255)" my_stoke_width="2px" my_stoke_opacity="1" my_fill="rgb(51, 51, 51)" my_fill_opacity="1" my_font_size="11px" clip-path="none" content="SY">SY</text><text xml:space="preserve" fill="rgb(51, 51, 51)" fill-opacity="1" stroke="rgb(255, 255, 255)" stroke-width="2px" paint-order="stroke" stroke-opacity="1" stroke-dasharray="" stroke-linecap="butt" stroke-miterlimit="2" transform="matrix(1,0,0,1,41.5,495.1911)" dominant-baseline="central" text-anchor="start" x="0" y="0" style="font: 11px &quot;Microsoft YaHei&quot;; fill: rgb(51, 51, 51);" transform_matrix="{&quot;a&quot;:1,&quot;b&quot;:0,&quot;c&quot;:0,&quot;d&quot;:1,&quot;e&quot;:41.5,&quot;f&quot;:495.19110107421875}" text_bbox="{&quot;x&quot;:0,&quot;y&quot;:-7.5,&quot;w&quot;:17.390625,&quot;h&quot;:15}" opacity="1" font-family="&quot;Microsoft YaHei&quot;" my_stoke="rgb(255, 255, 255)" my_stoke_width="2px" my_stoke_opacity="1" my_fill="rgb(51, 51, 51)" my_fill_opacity="1" my_font_size="11px" clip-path="none" content="DD">DD</text><path d="M -5 -5 L 333.0449 -5 L 333.0449 19 L -5 19 L -5 -5 Z" fill="rgb(0, 0, 0)" fill-opacity="0" stroke="#ccc" stroke-width="0" paint-order="fill" stroke-opacity="1" stroke-dasharray="" stroke-linecap="butt" stroke-miterlimit="10" transform="matrix(1,0,0,1,290.9775,5)" transform_matrix="{&quot;a&quot;:1,&quot;b&quot;:0,&quot;c&quot;:0,&quot;d&quot;:1,&quot;e&quot;:290.9775085449219,&quot;f&quot;:5}" my_stoke="rgb(204, 204, 204)" my_stoke_width="0px" my_stoke_opacity="1" my_fill="rgb(0, 0, 0)" my_fill_opacity="0" my_font_size="16px" opacity="1"/><path d="M 3.5 0 L 21.5 0 A 3.5 3.5 0 0 1 25 3.5 L 25 10.5 A 3.5 3.5 0 0 1 21.5 14 L 3.5 14 A 3.5 3.5 0 0 1 0 10.5 L 0 3.5 A 3.5 3.5 0 0 1 3.5 0" fill="rgb(84, 112, 198)" fill-opacity="1" stroke="none" transform="matrix(1,0,0,1,290.9775,5)" transform_matrix="{&quot;a&quot;:1,&quot;b&quot;:0,&quot;c&quot;:0,&quot;d&quot;:1,&quot;e&quot;:290.9775085449219,&quot;f&quot;:5}" my_stoke="none" my_stoke_width="1px" my_stoke_opacity="1" my_fill="rgb(84, 112, 198)" my_fill_opacity="1" my_font_size="16px" opacity="1"/><text xml:space="preserve" fill="rgb(51, 51, 51)" fill-opacity="1" stroke="none" transform="matrix(1,0,0,1,290.9775,5)" dominant-baseline="central" text-anchor="start" x="30" y="7" style="font: 12px &quot;Microsoft YaHei&quot;; fill: rgb(51, 51, 51);" transform_matrix="{&quot;a&quot;:1,&quot;b&quot;:0,&quot;c&quot;:0,&quot;d&quot;:1,&quot;e&quot;:290.9775085449219,&quot;f&quot;:5}" text_bbox="{&quot;x&quot;:30,&quot;y&quot;:-1,&quot;w&quot;:20.140625,&quot;h&quot;:16}" opacity="1" stroke-width="1px" stroke-opacity="1" font-family="&quot;Microsoft YaHei&quot;" my_stoke="none" my_stoke_width="1px" my_stoke_opacity="1" my_fill="rgb(51, 51, 51)" my_fill_opacity="1" my_font_size="12px" clip-path="none" content="DQ">DQ</text><path d="M 3.5 0 L 21.5 0 A 3.5 3.5 0 0 1 25 3.5 L 25 10.5 A 3.5 3.5 0 0 1 21.5 14 L 3.5 14 A 3.5 3.5 0 0 1 0 10.5 L 0 3.5 A 3.5 3.5 0 0 1 3.5 0" fill="rgb(145, 204, 117)" fill-opacity="1" stroke="none" transform="matrix(1,0,0,1,349.8975,5)" transform_matrix="{&quot;a&quot;:1,&quot;b&quot;:0,&quot;c&quot;:0,&quot;d&quot;:1,&quot;e&quot;:349.8974914550781,&quot;f&quot;:5}" my_stoke="none" my_stoke_width="1px" my_stoke_opacity="1" my_fill="rgb(145, 204, 117)" my_fill_opacity="1" my_font_size="16px" opacity="1"/><text xml:space="preserve" fill="rgb(51, 51, 51)" fill-opacity="1" stroke="none" transform="matrix(1,0,0,1,349.8975,5)" dominant-baseline="central" text-anchor="start" x="30" y="7" style="font: 12px &quot;Microsoft YaHei&quot;; fill: rgb(51, 51, 51);" transform_matrix="{&quot;a&quot;:1,&quot;b&quot;:0,&quot;c&quot;:0,&quot;d&quot;:1,&quot;e&quot;:349.8974914550781,&quot;f&quot;:5}" text_bbox="{&quot;x&quot;:29,&quot;y&quot;:-1,&quot;w&quot;:15.890625,&quot;h&quot;:16}" opacity="1" stroke-width="1px" stroke-opacity="1" font-family="&quot;Microsoft YaHei&quot;" my_stoke="none" my_stoke_width="1px" my_stoke_opacity="1" my_fill="rgb(51, 51, 51)" my_fill_opacity="1" my_font_size="12px" clip-path="none" content="TY">TY</text><path d="M 3.5 0 L 21.5 0 A 3.5 3.5 0 0 1 25 3.5 L 25 10.5 A 3.5 3.5 0 0 1 21.5 14 L 3.5 14 A 3.5 3.5 0 0 1 0 10.5 L 0 3.5 A 3.5 3.5 0 0 1 3.5 0" fill="rgb(250, 200, 88)" fill-opacity="1" stroke="none" transform="matrix(1,0,0,1,404.0186,5)" transform_matrix="{&quot;a&quot;:1,&quot;b&quot;:0,&quot;c&quot;:0,&quot;d&quot;:1,&quot;e&quot;:404.0185852050781,&quot;f&quot;:5}" my_stoke="none" my_stoke_width="1px" my_stoke_opacity="1" my_fill="rgb(250, 200, 88)" my_fill_opacity="1" my_font_size="16px" opacity="1"/><text xml:space="preserve" fill="rgb(51, 51, 51)" fill-opacity="1" stroke="none" transform="matrix(1,0,0,1,404.0186,5)" dominant-baseline="central" text-anchor="start" x="30" y="7" style="font: 12px &quot;Microsoft YaHei&quot;; fill: rgb(51, 51, 51);" transform_matrix="{&quot;a&quot;:1,&quot;b&quot;:0,&quot;c&quot;:0,&quot;d&quot;:1,&quot;e&quot;:404.0185852050781,&quot;f&quot;:5}" text_bbox="{&quot;x&quot;:30,&quot;y&quot;:-1,&quot;w&quot;:13.9375,&quot;h&quot;:16}" opacity="1" stroke-width="1px" stroke-opacity="1" font-family="&quot;Microsoft YaHei&quot;" my_stoke="none" my_stoke_width="1px" my_stoke_opacity="1" my_fill="rgb(51, 51, 51)" my_fill_opacity="1" my_font_size="12px" clip-path="none" content="SS">SS</text><path d="M 3.5 0 L 21.5 0 A 3.5 3.5 0 0 1 25 3.5 L 25 10.5 A 3.5 3.5 0 0 1 21.5 14 L 3.5 14 A 3.5 3.5 0 0 1 0 10.5 L 0 3.5 A 3.5 3.5 0 0 1 3.5 0" fill="rgb(238, 102, 102)" fill-opacity="1" stroke="none" transform="matrix(1,0,0,1,457.8701,5)" transform_matrix="{&quot;a&quot;:1,&quot;b&quot;:0,&quot;c&quot;:0,&quot;d&quot;:1,&quot;e&quot;:457.8700866699219,&quot;f&quot;:5}" my_stoke="none" my_stoke_width="1px" my_stoke_opacity="1" my_fill="rgb(238, 102, 102)" my_fill_opacity="1" my_font_size="16px" opacity="1"/><text xml:space="preserve" fill="rgb(51, 51, 51)" fill-opacity="1" stroke="none" transform="matrix(1,0,0,1,457.8701,5)" dominant-baseline="central" text-anchor="start" x="30" y="7" style="font: 12px &quot;Microsoft YaHei&quot;; fill: rgb(51, 51, 51);" transform_matrix="{&quot;a&quot;:1,&quot;b&quot;:0,&quot;c&quot;:0,&quot;d&quot;:1,&quot;e&quot;:457.8700866699219,&quot;f&quot;:5}" text_bbox="{&quot;x&quot;:30,&quot;y&quot;:-1,&quot;w&quot;:18.78125,&quot;h&quot;:16}" opacity="1" stroke-width="1px" stroke-opacity="1" font-family="&quot;Microsoft YaHei&quot;" my_stoke="none" my_stoke_width="1px" my_stoke_opacity="1" my_fill="rgb(51, 51, 51)" my_fill_opacity="1" my_font_size="12px" clip-path="none" content="QG">QG</text><path d="M 3.5 0 L 21.5 0 A 3.5 3.5 0 0 1 25 3.5 L 25 10.5 A 3.5 3.5 0 0 1 21.5 14 L 3.5 14 A 3.5 3.5 0 0 1 0 10.5 L 0 3.5 A 3.5 3.5 0 0 1 3.5 0" fill="rgb(115, 192, 222)" fill-opacity="1" stroke="none" transform="matrix(1,0,0,1,516.5732,5)" transform_matrix="{&quot;a&quot;:1,&quot;b&quot;:0,&quot;c&quot;:0,&quot;d&quot;:1,&quot;e&quot;:516.5731811523438,&quot;f&quot;:5}" my_stoke="none" my_stoke_width="1px" my_stoke_opacity="1" my_fill="rgb(115, 192, 222)" my_fill_opacity="1" my_font_size="16px" opacity="1"/><text xml:space="preserve" fill="rgb(51, 51, 51)" fill-opacity="1" stroke="none" transform="matrix(1,0,0,1,516.5732,5)" dominant-baseline="central" text-anchor="start" x="30" y="7" style="font: 12px &quot;Microsoft YaHei&quot;; fill: rgb(51, 51, 51);" transform_matrix="{&quot;a&quot;:1,&quot;b&quot;:0,&quot;c&quot;:0,&quot;d&quot;:1,&quot;e&quot;:516.5731811523438,&quot;f&quot;:5}" text_bbox="{&quot;x&quot;:30,&quot;y&quot;:-1,&quot;w&quot;:14.9375,&quot;h&quot;:16}" opacity="1" stroke-width="1px" stroke-opacity="1" font-family="&quot;Microsoft YaHei&quot;" my_stoke="none" my_stoke_width="1px" my_stoke_opacity="1" my_fill="rgb(51, 51, 51)" my_fill_opacity="1" my_font_size="12px" clip-path="none" content="SY">SY</text><path d="M 3.5 0 L 21.5 0 A 3.5 3.5 0 0 1 25 3.5 L 25 10.5 A 3.5 3.5 0 0 1 21.5 14 L 3.5 14 A 3.5 3.5 0 0 1 0 10.5 L 0 3.5 A 3.5 3.5 0 0 1 3.5 0" fill="rgb(59, 162, 114)" fill-opacity="1" stroke="none" transform="matrix(1,0,0,1,570.7412,5)" transform_matrix="{&quot;a&quot;:1,&quot;b&quot;:0,&quot;c&quot;:0,&quot;d&quot;:1,&quot;e&quot;:570.7412109375,&quot;f&quot;:5}" my_stoke="none" my_stoke_width="1px" my_stoke_opacity="1" my_fill="rgb(59, 162, 114)" my_fill_opacity="1" my_font_size="16px" opacity="1"/><text xml:space="preserve" fill="rgb(51, 51, 51)" fill-opacity="1" stroke="none" transform="matrix(1,0,0,1,570.7412,5)" dominant-baseline="central" text-anchor="start" x="30" y="7" style="font: 12px &quot;Microsoft YaHei&quot;; fill: rgb(51, 51, 51);" transform_matrix="{&quot;a&quot;:1,&quot;b&quot;:0,&quot;c&quot;:0,&quot;d&quot;:1,&quot;e&quot;:570.7412109375,&quot;f&quot;:5}" text_bbox="{&quot;x&quot;:30,&quot;y&quot;:-1,&quot;w&quot;:18.28125,&quot;h&quot;:16}" opacity="1" stroke-width="1px" stroke-opacity="1" font-family="&quot;Microsoft YaHei&quot;" my_stoke="none" my_stoke_width="1px" my_stoke_opacity="1" my_fill="rgb(51, 51, 51)" my_fill_opacity="1" my_font_size="12px" clip-path="none" content="DD">DD</text></g></svg>