<svg xmlns="http://www.w3.org/2000/svg" xmlns:xlink="http://www.w3.org/1999/xlink" version="1.1" baseProfile="full" width="910" height="773" style="user-select: none; position: absolute; left: 0px; top: 0px;" transform_matrix="{&quot;a&quot;:1,&quot;b&quot;:0,&quot;c&quot;:0,&quot;d&quot;:1,&quot;e&quot;:0,&quot;f&quot;:0}"><g><path d="M 0 0 L 728 0 L 728 618.4 L 0 618.4 L 0 0 Z" fill="rgb(255, 255, 255)" fill-opacity="1" stroke="none" transform="matrix(1,0,0,1,91,77.3)" transform_matrix="{&quot;a&quot;:1,&quot;b&quot;:0,&quot;c&quot;:0,&quot;d&quot;:1,&quot;e&quot;:91,&quot;f&quot;:77.30000305175781}" my_stoke="none" my_stoke_width="1px" my_stoke_opacity="1" my_fill="rgb(255, 255, 255)" my_fill_opacity="1" my_font_size="16px" opacity="1"/><path d="M 0 0 L 485.3333 0 L 485.3333 618.4 L 0 618.4 L 0 0 Z" fill="rgb(255, 255, 255)" fill-opacity="1" stroke="none" transform="matrix(1,0,0,1,91,77.3)" transform_matrix="{&quot;a&quot;:1,&quot;b&quot;:0,&quot;c&quot;:0,&quot;d&quot;:1,&quot;e&quot;:91,&quot;f&quot;:77.30000305175781}" my_stoke="none" my_stoke_width="1px" my_stoke_opacity="1" my_fill="rgb(255, 255, 255)" my_fill_opacity="1" my_font_size="16px" opacity="1"/><path d="M 0 0 L 242.6667 0 L 242.6667 618.4 L 0 618.4 L 0 0 Z" fill="rgb(255, 255, 255)" fill-opacity="1" stroke="none" transform="matrix(1,0,0,1,576.3333,77.3)" transform_matrix="{&quot;a&quot;:1,&quot;b&quot;:0,&quot;c&quot;:0,&quot;d&quot;:1,&quot;e&quot;:576.3333129882812,&quot;f&quot;:77.30000305175781}" my_stoke="none" my_stoke_width="1px" my_stoke_opacity="1" my_fill="rgb(255, 255, 255)" my_fill_opacity="1" my_font_size="16px" opacity="1"/><path d="M 0 0 L 485.3333 0 L 485.3333 618.4 L 0 618.4 L 0 0 Z" fill="rgb(255, 255, 255)" fill-opacity="1" stroke="none" transform="matrix(1,0,0,1,91,77.3)" transform_matrix="{&quot;a&quot;:1,&quot;b&quot;:0,&quot;c&quot;:0,&quot;d&quot;:1,&quot;e&quot;:91,&quot;f&quot;:77.30000305175781}" my_stoke="none" my_stoke_width="1px" my_stoke_opacity="1" my_fill="rgb(255, 255, 255)" my_fill_opacity="1" my_font_size="16px" opacity="1"/><path d="M 0 0 L 242.6667 0 L 242.6667 371.04 L 0 371.04 L 0 0 Z" fill="rgb(255, 255, 255)" fill-opacity="1" stroke="none" transform="matrix(1,0,0,1,576.3333,77.3)" transform_matrix="{&quot;a&quot;:1,&quot;b&quot;:0,&quot;c&quot;:0,&quot;d&quot;:1,&quot;e&quot;:576.3333129882812,&quot;f&quot;:77.30000305175781}" my_stoke="none" my_stoke_width="1px" my_stoke_opacity="1" my_fill="rgb(255, 255, 255)" my_fill_opacity="1" my_font_size="16px" opacity="1"/><path d="M 0 0 L 242.6667 0 L 242.6667 247.36 L 0 247.36 L 0 0 Z" fill="rgb(255, 255, 255)" fill-opacity="1" stroke="none" transform="matrix(1,0,0,1,576.3333,448.34)" transform_matrix="{&quot;a&quot;:1,&quot;b&quot;:0,&quot;c&quot;:0,&quot;d&quot;:1,&quot;e&quot;:576.3333129882812,&quot;f&quot;:448.3399963378906}" my_stoke="none" my_stoke_width="1px" my_stoke_opacity="1" my_fill="rgb(255, 255, 255)" my_fill_opacity="1" my_font_size="16px" opacity="1"/><path d="M 0 0 L 242.6667 0 L 242.6667 371.04 L 0 371.04 L 0 0 Z" fill="rgb(145, 204, 117)" fill-opacity="1" stroke="none" transform="matrix(1,0,0,1,576.3333,77.3)" transform_matrix="{&quot;a&quot;:1,&quot;b&quot;:0,&quot;c&quot;:0,&quot;d&quot;:1,&quot;e&quot;:576.3333129882812,&quot;f&quot;:77.30000305175781}" my_stoke="none" my_stoke_width="1px" my_stoke_opacity="1" my_fill="rgb(145, 204, 117)" my_fill_opacity="1" my_font_size="16px" opacity="1"/><path d="M 0 0 L 242.6667 0 L 242.6667 247.36 L 0 247.36 L 0 0 Z" fill="rgb(145, 204, 117)" fill-opacity="1" stroke="none" transform="matrix(1,0,0,1,576.3333,448.34)" transform_matrix="{&quot;a&quot;:1,&quot;b&quot;:0,&quot;c&quot;:0,&quot;d&quot;:1,&quot;e&quot;:576.3333129882812,&quot;f&quot;:448.3399963378906}" my_stoke="none" my_stoke_width="1px" my_stoke_opacity="1" my_fill="rgb(145, 204, 117)" my_fill_opacity="1" my_font_size="16px" opacity="1"/><path d="M 0 0 L 485.3333 0 L 485.3333 618.4 L 0 618.4 L 0 0 Z" fill="rgb(255, 255, 255)" fill-opacity="1" stroke="none" transform="matrix(1,0,0,1,91,77.3)" transform_matrix="{&quot;a&quot;:1,&quot;b&quot;:0,&quot;c&quot;:0,&quot;d&quot;:1,&quot;e&quot;:91,&quot;f&quot;:77.30000305175781}" my_stoke="none" my_stoke_width="1px" my_stoke_opacity="1" my_fill="rgb(255, 255, 255)" my_fill_opacity="1" my_font_size="16px" opacity="1"/><path d="M 0 0 L 485.3333 0 L 485.3333 618.4 L 0 618.4 L 0 0 Z" fill="rgb(84, 112, 198)" fill-opacity="1" stroke="none" transform="matrix(1,0,0,1,91,77.3)" transform_matrix="{&quot;a&quot;:1,&quot;b&quot;:0,&quot;c&quot;:0,&quot;d&quot;:1,&quot;e&quot;:91,&quot;f&quot;:77.30000305175781}" my_stoke="none" my_stoke_width="1px" my_stoke_opacity="1" my_fill="rgb(84, 112, 198)" my_fill_opacity="1" my_font_size="16px" opacity="1"/><text xml:space="preserve" fill="rgb(255, 255, 255)" fill-opacity="1" stroke="none" transform="matrix(1,0,0,1,333.6667,386.5)" dominant-baseline="central" text-anchor="middle" x="0" y="0" style="font: 12px &quot;Microsoft YaHei&quot;; fill: rgb(255, 255, 255);" transform_matrix="{&quot;a&quot;:1,&quot;b&quot;:0,&quot;c&quot;:0,&quot;d&quot;:1,&quot;e&quot;:333.66668701171875,&quot;f&quot;:386.5}" text_bbox="{&quot;x&quot;:-25.359375,&quot;y&quot;:-8,&quot;w&quot;:50.71875,&quot;h&quot;:16}" opacity="1" stroke-width="1px" stroke-opacity="1" font-family="&quot;Microsoft YaHei&quot;" my_stoke="none" my_stoke_width="1px" my_stoke_opacity="1" my_fill="rgb(255, 255, 255)" my_fill_opacity="1" my_font_size="12px" clip-path="none" content="nodeBa1">nodeBa1</text><text xml:space="preserve" fill="rgb(255, 255, 255)" fill-opacity="1" stroke="none" transform="matrix(1,0,0,1,697.6667,262.82)" dominant-baseline="central" text-anchor="middle" x="0" y="0" style="font: 12px &quot;Microsoft YaHei&quot;; fill: rgb(255, 255, 255);" transform_matrix="{&quot;a&quot;:1,&quot;b&quot;:0,&quot;c&quot;:0,&quot;d&quot;:1,&quot;e&quot;:697.6666870117188,&quot;f&quot;:262.82000732421875}" text_bbox="{&quot;x&quot;:-22.8125,&quot;y&quot;:-8,&quot;w&quot;:45.96875,&quot;h&quot;:16}" opacity="1" stroke-width="1px" stroke-opacity="1" font-family="&quot;Microsoft YaHei&quot;" my_stoke="none" my_stoke_width="1px" my_stoke_opacity="1" my_fill="rgb(255, 255, 255)" my_fill_opacity="1" my_font_size="12px" clip-path="none" content="nodeAb">nodeAb</text><text xml:space="preserve" fill="rgb(255, 255, 255)" fill-opacity="1" stroke="none" transform="matrix(1,0,0,1,697.6667,572.02)" dominant-baseline="central" text-anchor="middle" x="0" y="0" style="font: 12px &quot;Microsoft YaHei&quot;; fill: rgb(255, 255, 255);" transform_matrix="{&quot;a&quot;:1,&quot;b&quot;:0,&quot;c&quot;:0,&quot;d&quot;:1,&quot;e&quot;:697.6666870117188,&quot;f&quot;:572.02001953125}" text_bbox="{&quot;x&quot;:-22.296875,&quot;y&quot;:-8,&quot;w&quot;:44.96875,&quot;h&quot;:16}" opacity="1" stroke-width="1px" stroke-opacity="1" font-family="&quot;Microsoft YaHei&quot;" my_stoke="none" my_stoke_width="1px" my_stoke_opacity="1" my_fill="rgb(255, 255, 255)" my_fill_opacity="1" my_font_size="12px" clip-path="none" content="nodeAa">nodeAa</text><path d="M 0 0 L 25 0 L 30 11 L 25 22 L 0 22 Z" fill="rgb(0, 0, 0)" fill-opacity="0.7" stroke="none" transform="matrix(1,0,0,1,344.4404,751)" transform_matrix="{&quot;a&quot;:1,&quot;b&quot;:0,&quot;c&quot;:0,&quot;d&quot;:1,&quot;e&quot;:344.4403991699219,&quot;f&quot;:751}" my_stoke="none" my_stoke_width="1px" my_stoke_opacity="1" my_fill="rgb(0, 0, 0)" my_fill_opacity="0.7" my_font_size="16px" opacity="1"/><path d="M 28 0 L 83.6992 0 L 88.6992 11 L 83.6992 22 L 28 22 L 33 11 Z" fill="rgb(0, 0, 0)" fill-opacity="0.7" stroke="none" transform="matrix(1,0,0,1,344.4404,751)" transform_matrix="{&quot;a&quot;:1,&quot;b&quot;:0,&quot;c&quot;:0,&quot;d&quot;:1,&quot;e&quot;:344.4403991699219,&quot;f&quot;:751}" my_stoke="none" my_stoke_width="1px" my_stoke_opacity="1" my_fill="rgb(0, 0, 0)" my_fill_opacity="0.7" my_font_size="16px" opacity="1"/><path d="M 86.6992 0 L 149.0723 0 L 154.0723 11 L 149.0723 22 L 86.6992 22 L 91.6992 11 Z" fill="rgb(0, 0, 0)" fill-opacity="0.7" stroke="none" transform="matrix(1,0,0,1,344.4404,751)" transform_matrix="{&quot;a&quot;:1,&quot;b&quot;:0,&quot;c&quot;:0,&quot;d&quot;:1,&quot;e&quot;:344.4403991699219,&quot;f&quot;:751}" my_stoke="none" my_stoke_width="1px" my_stoke_opacity="1" my_fill="rgb(0, 0, 0)" my_fill_opacity="0.7" my_font_size="16px" opacity="1"/><path d="M 152.0723 0 L 221.1191 0 L 221.1191 22 L 152.0723 22 L 157.0723 11 Z" fill="rgb(0, 0, 0)" fill-opacity="0.7" stroke="none" transform="matrix(1,0,0,1,344.4404,751)" transform_matrix="{&quot;a&quot;:1,&quot;b&quot;:0,&quot;c&quot;:0,&quot;d&quot;:1,&quot;e&quot;:344.4403991699219,&quot;f&quot;:751}" my_stoke="none" my_stoke_width="1px" my_stoke_opacity="1" my_fill="rgb(0, 0, 0)" my_fill_opacity="0.7" my_font_size="16px" opacity="1"/><text xml:space="preserve" fill="rgb(255, 255, 255)" fill-opacity="1" stroke="none" transform="matrix(1,0,0,1,402.79,762)" dominant-baseline="central" text-anchor="middle" x="0" y="0" style="font: 12px &quot;Microsoft YaHei&quot;; fill: rgb(255, 255, 255);" transform_matrix="{&quot;a&quot;:1,&quot;b&quot;:0,&quot;c&quot;:0,&quot;d&quot;:1,&quot;e&quot;:402.7900085449219,&quot;f&quot;:762}" text_bbox="{&quot;x&quot;:-18.53125,&quot;y&quot;:-8,&quot;w&quot;:37.53125,&quot;h&quot;:16}" opacity="1" stroke-width="1px" stroke-opacity="1" font-family="&quot;Microsoft YaHei&quot;" my_stoke="none" my_stoke_width="1px" my_stoke_opacity="1" my_fill="rgb(255, 255, 255)" my_fill_opacity="1" my_font_size="12px" clip-path="none" content="nodeB">nodeB</text><text xml:space="preserve" fill="rgb(255, 255, 255)" fill-opacity="1" stroke="none" transform="matrix(1,0,0,1,464.8262,762)" dominant-baseline="central" text-anchor="middle" x="0" y="0" style="font: 12px &quot;Microsoft YaHei&quot;; fill: rgb(255, 255, 255);" transform_matrix="{&quot;a&quot;:1,&quot;b&quot;:0,&quot;c&quot;:0,&quot;d&quot;:1,&quot;e&quot;:464.8262023925781,&quot;f&quot;:762}" text_bbox="{&quot;x&quot;:-21.84375,&quot;y&quot;:-8,&quot;w&quot;:44.046875,&quot;h&quot;:16}" opacity="1" stroke-width="1px" stroke-opacity="1" font-family="&quot;Microsoft YaHei&quot;" my_stoke="none" my_stoke_width="1px" my_stoke_opacity="1" my_fill="rgb(255, 255, 255)" my_fill_opacity="1" my_font_size="12px" clip-path="none" content="nodeBa">nodeBa</text><text xml:space="preserve" fill="rgb(255, 255, 255)" fill-opacity="1" stroke="none" transform="matrix(1,0,0,1,531.0361,762)" dominant-baseline="central" text-anchor="middle" x="0" y="0" style="font: 12px &quot;Microsoft YaHei&quot;; fill: rgb(255, 255, 255);" transform_matrix="{&quot;a&quot;:1,&quot;b&quot;:0,&quot;c&quot;:0,&quot;d&quot;:1,&quot;e&quot;:531.0360717773438,&quot;f&quot;:762}" text_bbox="{&quot;x&quot;:-25.359375,&quot;y&quot;:-8,&quot;w&quot;:50.71875,&quot;h&quot;:16}" opacity="1" stroke-width="1px" stroke-opacity="1" font-family="&quot;Microsoft YaHei&quot;" my_stoke="none" my_stoke_width="1px" my_stoke_opacity="1" my_fill="rgb(255, 255, 255)" my_fill_opacity="1" my_font_size="12px" clip-path="none" content="nodeBa1">nodeBa1</text></g></svg>