<?xml version="1.0" encoding="UTF-8"?>
<svg id="_레이어_1" data-name="레이어 1" xmlns="http://www.w3.org/2000/svg" version="1.1" viewBox="0 0 137.9 77">
  <defs>
    <style>
      .cls-1 {
        fill: #000;
      }

      .cls-1, .cls-2 {
        stroke-width: 0px;
      }

      .cls-2 {
        fill: #fff;
      }
    </style>
  </defs>
  <path class="cls-2" d="M122.9,10.6c-11.2-7.3-28.9-9.6-59.1-7.9h-.3C30.4,4.7,16.4,13.7,15.4,33.7c-.4,3.8-.3,7.7.2,12,1.1,8.4,1.3,15.4-6.5,22-1.2.9-2.9,2-5,3.1-1.6.9-2.7,1.5-2.4,2.3,0,.3.4.8,1.4,1,0,0,.1,0,.2,0,1.2.1,2.8.2,4.4.2,3.4,0,7.2-.2,10.1-.5,2.6-.2,5.2-.7,7.7-1.1,3.2-.5,6.3-1.1,9.2-1.1,2.8-.1,5.3.3,8,.8,1.5.3,3,.5,4.7.7,10.5,1.2,21.3,1.1,31,.9h1.3c14-.4,29.9-.7,42-6.8,13.2-7,14.5-19.3,14.3-27.9.6-13.3-3.7-22.7-13-28.7h0Z"/>
  <path class="cls-1" d="M122.9,10.6c-11.2-7.3-28.9-9.6-59.1-7.9h-.3C30.4,4.7,16.4,13.7,15.4,33.7c-.4,3.8-.3,7.7.2,12,1.1,8.4,1.3,15.4-6.5,22-1.2.9-2.9,2-5,3.1-1.6.9-2.7,1.5-2.4,2.3,0,.3.4.8,1.4,1,0,0,.1,0,.2,0,1.2.1,2.8.2,4.4.2,3.4,0,7.2-.2,10.1-.5,2.6-.2,5.2-.7,7.7-1.1,3.2-.5,6.3-1.1,9.2-1.1,2.8-.1,5.3.3,8,.8,1.5.3,3,.5,4.7.7,10.5,1.2,21.3,1.1,31,.9h1.3c14-.4,29.9-.7,42-6.8,13.2-7,14.5-19.3,14.3-27.9.6-13.3-3.7-22.7-13-28.7h0ZM119.9,65.7c-11.4,5.6-26.8,6-40.4,6.3h-1.2c-9.5.1-20.2.3-30.4-.9-1.5-.2-3-.4-4.4-.7-2.8-.5-5.7-1-8.9-.8-3.2,0-6.5.7-9.7,1.2-2.4.4-4.9.8-7.4,1.1-3.4.3-8,.6-11.4.5,2.2-1.2,3.9-2.3,5.2-3.3,8.5-7.2,8.3-14.6,7.2-23.4-.5-4.2-.6-8.1-.2-11.8,1-19,13.8-27.2,45.4-29.1h.3c29.3-1.7,46.3.5,56.9,7.3,8.7,5.6,12.6,14.5,12.1,27.3.2,8.2-.9,19.9-13.1,26.3h0Z"/>
</svg>