<?xml version="1.0" encoding="UTF-8"?>
<svg id="_레이어_1" data-name="레이어 1" xmlns="http://www.w3.org/2000/svg" version="1.1" viewBox="0 0 96.3 77">
  <defs>
    <style>
      .cls-1 {
        fill: #000;
      }

      .cls-1, .cls-2 {
        stroke-width: 0px;
      }

      .cls-2 {
        fill: #fff;
      }
    </style>
  </defs>
  <path class="cls-2" d="M84.6,10.6c-7.7-7.3-19.8-9.6-40.5-7.9h-.2C21.3,4.7,11.8,13.7,11,33.7c-.3,3.8-.2,7.7.1,12,.7,8.4.9,15.4-4.5,22-.8.9-2,2-3.4,3.1-1.1.9-1.8,1.5-1.7,2.3,0,.3.3.8,1,1,0,0,0,0,.1,0,.9.1,1.9.2,3,.2,2.3,0,4.9-.2,6.9-.5,1.8-.2,3.6-.7,5.3-1.1,2.2-.5,4.3-1.1,6.3-1.1,1.9-.1,3.6.3,5.5.8,1,.3,2.1.5,3.2.7,7.2,1.2,14.6,1.1,21.2.9h.9c9.6-.4,20.5-.7,28.8-6.8,9.1-7,9.9-19.3,9.8-27.9.4-13.3-2.5-22.7-8.9-28.7h0Z"/>
  <path class="cls-1" d="M84.6,10.6c-7.7-7.3-19.8-9.6-40.5-7.9h-.2C21.3,4.7,11.8,13.7,11,33.7c-.3,3.8-.2,7.7.1,12,.7,8.4.9,15.4-4.5,22-.8.9-2,2-3.4,3.1-1.1.9-1.8,1.5-1.7,2.3,0,.3.3.8,1,1,0,0,0,0,.1,0,.9.1,1.9.2,3,.2,2.3,0,4.9-.2,6.9-.5,1.8-.2,3.6-.7,5.3-1.1,2.2-.5,4.3-1.1,6.3-1.1,1.9-.1,3.6.3,5.5.8,1,.3,2.1.5,3.2.7,7.2,1.2,14.6,1.1,21.2.9h.9c9.6-.4,20.5-.7,28.8-6.8,9.1-7,9.9-19.3,9.8-27.9.4-13.3-2.5-22.7-8.9-28.7h0ZM82.6,65.7c-7.8,5.6-18.3,6-27.6,6.3h-.8c-6.5.1-13.8.3-20.8-.9-1-.2-2.1-.4-3-.7-1.9-.5-3.9-1-6.1-.8-2.2,0-4.5.7-6.7,1.2-1.7.4-3.4.8-5.1,1.1-2.3.3-5.5.6-7.8.5,1.5-1.2,2.7-2.3,3.6-3.3,5.8-7.2,5.7-14.6,4.9-23.4-.3-4.2-.4-8.1-.1-11.8.7-19,9.4-27.2,31.1-29.1h.2c20.1-1.7,31.7.5,39,7.3,5.9,5.6,8.7,14.5,8.3,27.3.1,8.2-.6,19.9-9,26.3h0Z"/>
</svg>