<svg width="1049" height="542" xmlns="http://www.w3.org/2000/svg" viewBox="0 0 1160 600" transform_matrix="{&quot;a&quot;:0.9033333333333333,&quot;b&quot;:0,&quot;c&quot;:0,&quot;d&quot;:0.9033333333333333,&quot;e&quot;:499.5588541666666,&quot;f&quot;:391.3515625}">
  <g class="main" transform="translate(65, 10)">
    <g class="axis x" transform="translate(0, 530)" fill="none" font-size="10" font-family="sans-serif" text-anchor="middle">
      <path class="domain" stroke="currentColor" d="M0.5,6V0.5H1085.5V6" transform_matrix="{&quot;a&quot;:0.9033333333333333,&quot;b&quot;:0,&quot;c&quot;:0,&quot;d&quot;:0.9033333333333333,&quot;e&quot;:558.2755208333333,&quot;f&quot;:879.1515625}" my_stoke="rgb(0, 0, 0)" my_stoke_width="1px" my_stoke_opacity="1" my_fill="none" my_fill_opacity="1" my_font_size="16px" opacity="1" style="font-family: sans-serif; stroke: rgb(0, 0, 0); stroke-opacity: 1; stroke-width: 1px; fill: none; fill-opacity: 1;" fill="none" vivisfy_selected="yes"></path>
      <g class="tick" opacity="1" transform="translate(47.67391304347826,0)">
        <line stroke="currentColor" y2="6" transform_matrix="{&quot;a&quot;:0.9033333333333333,&quot;b&quot;:0,&quot;c&quot;:0,&quot;d&quot;:0.9033333333333333,&quot;e&quot;:601.3409547170003,&quot;f&quot;:879.1515625}" vivisfy_selected="yes" style="stroke: rgb(0, 0, 0); opacity: 1;"></line>
        <text fill="rgb(0, 0, 0)" y="9" dy="0.71em" transform_matrix="{&quot;a&quot;:0.9033333333333333,&quot;b&quot;:0,&quot;c&quot;:0,&quot;d&quot;:0.9033333333333333,&quot;e&quot;:601.3409547170003,&quot;f&quot;:879.1515625}" text_bbox="{&quot;x&quot;:-11.005247116088867,&quot;y&quot;:5.583395004272461,&quot;w&quot;:22.010494232177734,&quot;h&quot;:13.837638854980469}" my_fill="rgb(0, 0, 0)" my_fill_opacity="1" my_font_size="16px" opacity="1" style="font-family: sans-serif; font-size: 16px;" content="1950" vivisfy_selected="yes">1950</text>
      </g>
      <g class="tick" opacity="1" transform="translate(126.29710144927536,0)">
        <line stroke="currentColor" y2="6" transform_matrix="{&quot;a&quot;:0.9033333333333333,&quot;b&quot;:0,&quot;c&quot;:0,&quot;d&quot;:0.9033333333333333,&quot;e&quot;:672.3639046732584,&quot;f&quot;:879.1515625}" vivisfy_selected="yes" style="stroke: rgb(0, 0, 0); opacity: 1;"></line>
        <text fill="rgb(0, 0, 0)" y="9" dy="0.71em" transform_matrix="{&quot;a&quot;:0.9033333333333333,&quot;b&quot;:0,&quot;c&quot;:0,&quot;d&quot;:0.9033333333333333,&quot;e&quot;:672.3639046732584,&quot;f&quot;:879.1515625}" text_bbox="{&quot;x&quot;:-11.005247116088867,&quot;y&quot;:5.583395004272461,&quot;w&quot;:22.010494232177734,&quot;h&quot;:13.837638854980469}" my_fill="rgb(0, 0, 0)" my_fill_opacity="1" my_font_size="16px" opacity="1" style="font-family: sans-serif; font-size: 16px;" content="1955" vivisfy_selected="yes">1955</text>
      </g>
      <g class="tick" opacity="1" transform="translate(204.92028985507247,0)">
        <line stroke="currentColor" y2="6" transform_matrix="{&quot;a&quot;:0.9033333333333333,&quot;b&quot;:0,&quot;c&quot;:0,&quot;d&quot;:0.9033333333333333,&quot;e&quot;:743.3868477376302,&quot;f&quot;:879.1515625}" vivisfy_selected="yes" style="stroke: rgb(0, 0, 0); opacity: 1;"></line>
        <text fill="rgb(0, 0, 0)" y="9" dy="0.71em" transform_matrix="{&quot;a&quot;:0.9033333333333333,&quot;b&quot;:0,&quot;c&quot;:0,&quot;d&quot;:0.9033333333333333,&quot;e&quot;:743.3868477376302,&quot;f&quot;:879.1515625}" text_bbox="{&quot;x&quot;:-11.005247116088867,&quot;y&quot;:5.583395004272461,&quot;w&quot;:22.010494232177734,&quot;h&quot;:13.837638854980469}" my_fill="rgb(0, 0, 0)" my_fill_opacity="1" my_font_size="16px" opacity="1" style="font-family: sans-serif; font-size: 16px;" content="1960" vivisfy_selected="yes">1960</text>
      </g>
      <g class="tick" opacity="1" transform="translate(283.54347826086956,0)">
        <line stroke="currentColor" y2="6" transform_matrix="{&quot;a&quot;:0.9033333333333333,&quot;b&quot;:0,&quot;c&quot;:0,&quot;d&quot;:0.9033333333333333,&quot;e&quot;:814.4098045857747,&quot;f&quot;:879.1515625}" vivisfy_selected="yes" style="stroke: rgb(0, 0, 0); opacity: 1;"></line>
        <text fill="rgb(0, 0, 0)" y="9" dy="0.71em" transform_matrix="{&quot;a&quot;:0.9033333333333333,&quot;b&quot;:0,&quot;c&quot;:0,&quot;d&quot;:0.9033333333333333,&quot;e&quot;:814.4098045857747,&quot;f&quot;:879.1515625}" text_bbox="{&quot;x&quot;:-11.005247116088867,&quot;y&quot;:5.583395004272461,&quot;w&quot;:22.010494232177734,&quot;h&quot;:13.837638854980469}" my_fill="rgb(0, 0, 0)" my_fill_opacity="1" my_font_size="16px" opacity="1" style="font-family: sans-serif; font-size: 16px;" content="1965" vivisfy_selected="yes">1965</text>
      </g>
      <g class="tick" opacity="1" transform="translate(362.16666666666663,0)">
        <line stroke="currentColor" y2="6" transform_matrix="{&quot;a&quot;:0.9033333333333333,&quot;b&quot;:0,&quot;c&quot;:0,&quot;d&quot;:0.9033333333333333,&quot;e&quot;:885.4327338663736,&quot;f&quot;:879.1515625}" vivisfy_selected="yes" style="stroke: rgb(0, 0, 0); opacity: 1;"></line>
        <text fill="rgb(0, 0, 0)" y="9" dy="0.71em" transform_matrix="{&quot;a&quot;:0.9033333333333333,&quot;b&quot;:0,&quot;c&quot;:0,&quot;d&quot;:0.9033333333333333,&quot;e&quot;:885.4327338663736,&quot;f&quot;:879.1515625}" text_bbox="{&quot;x&quot;:-10.737142562866211,&quot;y&quot;:5.583395004272461,&quot;w&quot;:21.474285125732422,&quot;h&quot;:13.837638854980469}" my_fill="rgb(0, 0, 0)" my_fill_opacity="1" my_font_size="16px" opacity="1" style="font-family: sans-serif; font-size: 16px;" content="1970" vivisfy_selected="yes">1970</text>
      </g>
      <g class="tick" opacity="1" transform="translate(440.7898550724638,0)">
        <line stroke="currentColor" y2="6" transform_matrix="{&quot;a&quot;:0.9033333333333333,&quot;b&quot;:0,&quot;c&quot;:0,&quot;d&quot;:0.9033333333333333,&quot;e&quot;:956.4556907145181,&quot;f&quot;:879.1515625}" vivisfy_selected="yes" style="stroke: rgb(0, 0, 0); opacity: 1;"></line>
        <text fill="rgb(0, 0, 0)" y="9" dy="0.71em" transform_matrix="{&quot;a&quot;:0.9033333333333333,&quot;b&quot;:0,&quot;c&quot;:0,&quot;d&quot;:0.9033333333333333,&quot;e&quot;:956.4556907145181,&quot;f&quot;:879.1515625}" text_bbox="{&quot;x&quot;:-10.737142562866211,&quot;y&quot;:5.583395004272461,&quot;w&quot;:21.474285125732422,&quot;h&quot;:13.837638854980469}" my_fill="rgb(0, 0, 0)" my_fill_opacity="1" my_font_size="16px" opacity="1" style="font-family: sans-serif; font-size: 16px;" content="1975" vivisfy_selected="yes">1975</text>
      </g>
      <g class="tick" opacity="1" transform="translate(519.4130434782609,0)">
        <line stroke="currentColor" y2="6" transform_matrix="{&quot;a&quot;:0.9033333333333333,&quot;b&quot;:0,&quot;c&quot;:0,&quot;d&quot;:0.9033333333333333,&quot;e&quot;:1027.4786199951172,&quot;f&quot;:879.1515625}" vivisfy_selected="yes" style="stroke: rgb(0, 0, 0); opacity: 1;"></line>
        <text fill="rgb(0, 0, 0)" y="9" dy="0.71em" transform_matrix="{&quot;a&quot;:0.9033333333333333,&quot;b&quot;:0,&quot;c&quot;:0,&quot;d&quot;:0.9033333333333333,&quot;e&quot;:1027.4786199951172,&quot;f&quot;:879.1515625}" text_bbox="{&quot;x&quot;:-11.005247116088867,&quot;y&quot;:5.583395004272461,&quot;w&quot;:22.010494232177734,&quot;h&quot;:13.837638854980469}" my_fill="rgb(0, 0, 0)" my_fill_opacity="1" my_font_size="16px" opacity="1" style="font-family: sans-serif; font-size: 16px;" content="1980" vivisfy_selected="yes">1980</text>
      </g>
      <g class="tick" opacity="1" transform="translate(598.036231884058,0)">
        <line stroke="currentColor" y2="6" transform_matrix="{&quot;a&quot;:0.9033333333333333,&quot;b&quot;:0,&quot;c&quot;:0,&quot;d&quot;:0.9033333333333333,&quot;e&quot;:1098.5016044108072,&quot;f&quot;:879.1515625}" vivisfy_selected="yes" style="stroke: rgb(0, 0, 0); opacity: 1;"></line>
        <text fill="rgb(0, 0, 0)" y="9" dy="0.71em" transform_matrix="{&quot;a&quot;:0.9033333333333333,&quot;b&quot;:0,&quot;c&quot;:0,&quot;d&quot;:0.9033333333333333,&quot;e&quot;:1098.5016044108072,&quot;f&quot;:879.1515625}" text_bbox="{&quot;x&quot;:-11.005247116088867,&quot;y&quot;:5.583395004272461,&quot;w&quot;:22.010494232177734,&quot;h&quot;:13.837638854980469}" my_fill="rgb(0, 0, 0)" my_fill_opacity="1" my_font_size="16px" opacity="1" style="font-family: sans-serif; font-size: 16px;" content="1985" vivisfy_selected="yes">1985</text>
      </g>
      <g class="tick" opacity="1" transform="translate(676.6594202898551,0)">
        <line stroke="currentColor" y2="6" transform_matrix="{&quot;a&quot;:0.9033333333333333,&quot;b&quot;:0,&quot;c&quot;:0,&quot;d&quot;:0.9033333333333333,&quot;e&quot;:1169.5245336914063,&quot;f&quot;:879.1515625}" vivisfy_selected="yes" style="stroke: rgb(0, 0, 0); opacity: 1;"></line>
        <text fill="rgb(0, 0, 0)" y="9" dy="0.71em" transform_matrix="{&quot;a&quot;:0.9033333333333333,&quot;b&quot;:0,&quot;c&quot;:0,&quot;d&quot;:0.9033333333333333,&quot;e&quot;:1169.5245336914063,&quot;f&quot;:879.1515625}" text_bbox="{&quot;x&quot;:-11.005247116088867,&quot;y&quot;:5.583395004272461,&quot;w&quot;:22.010494232177734,&quot;h&quot;:13.837638854980469}" my_fill="rgb(0, 0, 0)" my_fill_opacity="1" my_font_size="16px" opacity="1" style="font-family: sans-serif; font-size: 16px;" content="1990" vivisfy_selected="yes">1990</text>
      </g>
      <g class="tick" opacity="1" transform="translate(755.2826086956521,0)">
        <line stroke="currentColor" y2="6" transform_matrix="{&quot;a&quot;:0.9033333333333333,&quot;b&quot;:0,&quot;c&quot;:0,&quot;d&quot;:0.9033333333333333,&quot;e&quot;:1240.5474629720052,&quot;f&quot;:879.1515625}" vivisfy_selected="yes" style="stroke: rgb(0, 0, 0); opacity: 1;"></line>
        <text fill="rgb(0, 0, 0)" y="9" dy="0.71em" transform_matrix="{&quot;a&quot;:0.9033333333333333,&quot;b&quot;:0,&quot;c&quot;:0,&quot;d&quot;:0.9033333333333333,&quot;e&quot;:1240.5474629720052,&quot;f&quot;:879.1515625}" text_bbox="{&quot;x&quot;:-11.005247116088867,&quot;y&quot;:5.583395004272461,&quot;w&quot;:22.010494232177734,&quot;h&quot;:13.837638854980469}" my_fill="rgb(0, 0, 0)" my_fill_opacity="1" my_font_size="16px" opacity="1" style="font-family: sans-serif; font-size: 16px;" content="1995" vivisfy_selected="yes">1995</text>
      </g>
      <g class="tick" opacity="1" transform="translate(833.9057971014493,0)">
        <line stroke="currentColor" y2="6" transform_matrix="{&quot;a&quot;:0.9033333333333333,&quot;b&quot;:0,&quot;c&quot;:0,&quot;d&quot;:0.9033333333333333,&quot;e&quot;:1311.5704473876954,&quot;f&quot;:879.1515625}" vivisfy_selected="yes" style="stroke: rgb(0, 0, 0); opacity: 1;"></line>
        <text fill="rgb(0, 0, 0)" y="9" dy="0.71em" transform_matrix="{&quot;a&quot;:0.9033333333333333,&quot;b&quot;:0,&quot;c&quot;:0,&quot;d&quot;:0.9033333333333333,&quot;e&quot;:1311.5704473876954,&quot;f&quot;:879.1515625}" text_bbox="{&quot;x&quot;:-11.99982738494873,&quot;y&quot;:5.583395004272461,&quot;w&quot;:23.99965476989746,&quot;h&quot;:13.837638854980469}" my_fill="rgb(0, 0, 0)" my_fill_opacity="1" my_font_size="16px" opacity="1" style="font-family: sans-serif; font-size: 16px;" content="2000" vivisfy_selected="yes">2000</text>
      </g>
      <g class="tick" opacity="1" transform="translate(912.5289855072464,0)">
        <line stroke="currentColor" y2="6" transform_matrix="{&quot;a&quot;:0.9033333333333333,&quot;b&quot;:0,&quot;c&quot;:0,&quot;d&quot;:0.9033333333333333,&quot;e&quot;:1382.5933766682942,&quot;f&quot;:879.1515625}" vivisfy_selected="yes" style="stroke: rgb(0, 0, 0); opacity: 1;"></line>
        <text fill="rgb(0, 0, 0)" y="9" dy="0.71em" transform_matrix="{&quot;a&quot;:0.9033333333333333,&quot;b&quot;:0,&quot;c&quot;:0,&quot;d&quot;:0.9033333333333333,&quot;e&quot;:1382.5933766682942,&quot;f&quot;:879.1515625}" text_bbox="{&quot;x&quot;:-11.99982738494873,&quot;y&quot;:5.583395004272461,&quot;w&quot;:23.99965476989746,&quot;h&quot;:13.837638854980469}" my_fill="rgb(0, 0, 0)" my_fill_opacity="1" my_font_size="16px" opacity="1" style="font-family: sans-serif; font-size: 16px;" content="2005" vivisfy_selected="yes">2005</text>
      </g>
      <g class="tick" opacity="1" transform="translate(991.1521739130434,0)">
        <line stroke="currentColor" y2="6" transform_matrix="{&quot;a&quot;:0.9033333333333333,&quot;b&quot;:0,&quot;c&quot;:0,&quot;d&quot;:0.9033333333333333,&quot;e&quot;:1453.6163059488931,&quot;f&quot;:879.1515625}" vivisfy_selected="yes" style="stroke: rgb(0, 0, 0); opacity: 1;"></line>
        <text fill="rgb(0, 0, 0)" y="9" dy="0.71em" transform_matrix="{&quot;a&quot;:0.9033333333333333,&quot;b&quot;:0,&quot;c&quot;:0,&quot;d&quot;:0.9033333333333333,&quot;e&quot;:1453.6163059488931,&quot;f&quot;:879.1515625}" text_bbox="{&quot;x&quot;:-11.005247116088867,&quot;y&quot;:5.583395004272461,&quot;w&quot;:22.010494232177734,&quot;h&quot;:13.837638854980469}" my_fill="rgb(0, 0, 0)" my_fill_opacity="1" my_font_size="16px" opacity="1" style="font-family: sans-serif; font-size: 16px;" content="2010" vivisfy_selected="yes">2010</text>
      </g>
      <g class="tick" opacity="1" transform="translate(1069.7753623188407,0)">
        <line stroke="currentColor" y2="6" transform_matrix="{&quot;a&quot;:0.9033333333333333,&quot;b&quot;:0,&quot;c&quot;:0,&quot;d&quot;:0.9033333333333333,&quot;e&quot;:1524.6392903645833,&quot;f&quot;:879.1515625}" vivisfy_selected="yes" style="stroke: rgb(0, 0, 0); opacity: 1;"></line>
        <text fill="rgb(0, 0, 0)" y="9" dy="0.71em" transform_matrix="{&quot;a&quot;:0.9033333333333333,&quot;b&quot;:0,&quot;c&quot;:0,&quot;d&quot;:0.9033333333333333,&quot;e&quot;:1524.6392903645833,&quot;f&quot;:879.1515625}" text_bbox="{&quot;x&quot;:-11.005247116088867,&quot;y&quot;:5.583395004272461,&quot;w&quot;:22.010494232177734,&quot;h&quot;:13.837638854980469}" my_fill="rgb(0, 0, 0)" my_fill_opacity="1" my_font_size="16px" opacity="1" style="font-family: sans-serif; font-size: 16px;" content="2015" vivisfy_selected="yes">2015</text>
      </g>
      <text class="label" x="542.5" y="35" style="text-anchor: middle; font-family: sans-serif; font-size: 16px;" transform_matrix="{&quot;a&quot;:0.9033333333333333,&quot;b&quot;:0,&quot;c&quot;:0,&quot;d&quot;:0.9033333333333333,&quot;e&quot;:558.2755208333333,&quot;f&quot;:879.1515625}" text_bbox="{&quot;x&quot;:531.7974243164062,&quot;y&quot;:24.4833927154541,&quot;w&quot;:21.40509796142578,&quot;h&quot;:13.837638854980469}" my_fill="none" my_fill_opacity="1" my_font_size="16px" opacity="1" fill="none" content="
        Year
      " vivisfy_selected="yes">
        Year
      </text>
    </g>
    <g class="axis y" fill="none" font-size="10" font-family="sans-serif" text-anchor="end">
      <path class="domain" stroke="currentColor" d="M-6,530.5H0.5V0.5H-6" transform_matrix="{&quot;a&quot;:0.9033333333333333,&quot;b&quot;:0,&quot;c&quot;:0,&quot;d&quot;:0.9033333333333333,&quot;e&quot;:558.2755208333333,&quot;f&quot;:400.38489583333336}" my_stoke="rgb(0, 0, 0)" my_stoke_width="1px" my_stoke_opacity="1" my_fill="none" my_fill_opacity="1" my_font_size="16px" opacity="1" style="font-family: sans-serif; stroke: rgb(0, 0, 0); stroke-opacity: 1; stroke-width: 1px; fill: none; fill-opacity: 1;" fill="none" vivisfy_selected="yes"></path>
      <g class="tick" opacity="1" transform="translate(0,530.5)">
        <line stroke="currentColor" x2="-6" transform_matrix="{&quot;a&quot;:0.9033333333333333,&quot;b&quot;:0,&quot;c&quot;:0,&quot;d&quot;:0.9033333333333333,&quot;e&quot;:558.2755208333333,&quot;f&quot;:879.6032291666667}" vivisfy_selected="yes" style="stroke: rgb(0, 0, 0); opacity: 1;"></line>
        <text fill="rgb(0, 0, 0)" x="-9" dy="0.32em" transform_matrix="{&quot;a&quot;:0.9033333333333333,&quot;b&quot;:0,&quot;c&quot;:0,&quot;d&quot;:0.9033333333333333,&quot;e&quot;:558.2755208333333,&quot;f&quot;:879.6032291666667}" text_bbox="{&quot;x&quot;:-24.697072982788086,&quot;y&quot;:-7.316605567932129,&quot;w&quot;:15.697071075439453,&quot;h&quot;:13.837638854980469}" my_fill="rgb(0, 0, 0)" my_fill_opacity="1" my_font_size="16px" opacity="1" style="font-family: sans-serif; font-size: 16px;" content="0%" vivisfy_selected="yes">0%</text>
      </g>
      <g class="tick" opacity="1" transform="translate(0,398.1323676323676)">
        <line stroke="currentColor" x2="-6" transform_matrix="{&quot;a&quot;:0.9033333333333333,&quot;b&quot;:0,&quot;c&quot;:0,&quot;d&quot;:0.9033333333333333,&quot;e&quot;:558.2755208333333,&quot;f&quot;:760.0311229451497}" vivisfy_selected="yes" style="stroke: rgb(0, 0, 0); opacity: 1;"></line>
        <text fill="rgb(0, 0, 0)" x="-9" dy="0.32em" transform_matrix="{&quot;a&quot;:0.9033333333333333,&quot;b&quot;:0,&quot;c&quot;:0,&quot;d&quot;:0.9033333333333333,&quot;e&quot;:558.2755208333333,&quot;f&quot;:760.0311229451497}" text_bbox="{&quot;x&quot;:-30.699148178100586,&quot;y&quot;:-7.316605567932129,&quot;w&quot;:21.699146270751953,&quot;h&quot;:13.837638854980469}" my_fill="rgb(0, 0, 0)" my_fill_opacity="1" my_font_size="16px" opacity="1" style="font-family: sans-serif; font-size: 16px;" content="25%" vivisfy_selected="yes">25%</text>
      </g>
      <g class="tick" opacity="1" transform="translate(0,265.7647352647353)">
        <line stroke="currentColor" x2="-6" transform_matrix="{&quot;a&quot;:0.9033333333333333,&quot;b&quot;:0,&quot;c&quot;:0,&quot;d&quot;:0.9033333333333333,&quot;e&quot;:558.2755208333333,&quot;f&quot;:640.4590442911783}" vivisfy_selected="yes" style="stroke: rgb(0, 0, 0); opacity: 1;"></line>
        <text fill="rgb(0, 0, 0)" x="-9" dy="0.32em" transform_matrix="{&quot;a&quot;:0.9033333333333333,&quot;b&quot;:0,&quot;c&quot;:0,&quot;d&quot;:0.9033333333333333,&quot;e&quot;:558.2755208333333,&quot;f&quot;:640.4590442911783}" text_bbox="{&quot;x&quot;:-30.699148178100586,&quot;y&quot;:-7.316605567932129,&quot;w&quot;:21.699146270751953,&quot;h&quot;:13.837638854980469}" my_fill="rgb(0, 0, 0)" my_fill_opacity="1" my_font_size="16px" opacity="1" style="font-family: sans-serif; font-size: 16px;" content="50%" vivisfy_selected="yes">50%</text>
      </g>
      <g class="tick" opacity="1" transform="translate(0,133.39710289710294)">
        <line stroke="currentColor" x2="-6" transform_matrix="{&quot;a&quot;:0.9033333333333333,&quot;b&quot;:0,&quot;c&quot;:0,&quot;d&quot;:0.9033333333333333,&quot;e&quot;:558.2755208333333,&quot;f&quot;:520.8869518534343}" vivisfy_selected="yes" style="stroke: rgb(0, 0, 0); opacity: 1;"></line>
        <text fill="rgb(0, 0, 0)" x="-9" dy="0.32em" transform_matrix="{&quot;a&quot;:0.9033333333333333,&quot;b&quot;:0,&quot;c&quot;:0,&quot;d&quot;:0.9033333333333333,&quot;e&quot;:558.2755208333333,&quot;f&quot;:520.8869518534343}" text_bbox="{&quot;x&quot;:-30.162939071655273,&quot;y&quot;:-7.316605567932129,&quot;w&quot;:21.162939071655273,&quot;h&quot;:13.837638854980469}" my_fill="rgb(0, 0, 0)" my_fill_opacity="1" my_font_size="16px" opacity="1" style="font-family: sans-serif; font-size: 16px;" content="75%" vivisfy_selected="yes">75%</text>
      </g>
      <g class="tick" opacity="1" transform="translate(0,1.0294705294705704)">
        <line stroke="currentColor" x2="-6" transform_matrix="{&quot;a&quot;:0.9033333333333333,&quot;b&quot;:0,&quot;c&quot;:0,&quot;d&quot;:0.9033333333333333,&quot;e&quot;:558.2755208333333,&quot;f&quot;:401.3148509085178}" vivisfy_selected="yes" style="stroke: rgb(0, 0, 0); opacity: 1;"></line>
        <text fill="rgb(0, 0, 0)" x="-9" dy="0.32em" transform_matrix="{&quot;a&quot;:0.9033333333333333,&quot;b&quot;:0,&quot;c&quot;:0,&quot;d&quot;:0.9033333333333333,&quot;e&quot;:558.2755208333333,&quot;f&quot;:401.3148509085178}" text_bbox="{&quot;x&quot;:-34.70341491699219,&quot;y&quot;:-7.316605567932129,&quot;w&quot;:25.703413009643555,&quot;h&quot;:13.837638854980469}" my_fill="rgb(0, 0, 0)" my_fill_opacity="1" my_font_size="16px" opacity="1" style="font-family: sans-serif; font-size: 16px;" content="100%" vivisfy_selected="yes">100%</text>
      </g>
      <text class="label" x="-240" y="-50" transform="rotate(-90 0 0)" style="text-anchor: middle; font-family: sans-serif; font-size: 16px;" transform_matrix="{&quot;a&quot;:0,&quot;b&quot;:-0.9033333333333333,&quot;c&quot;:0.9033333333333333,&quot;d&quot;:0,&quot;e&quot;:558.2755208333333,&quot;f&quot;:400.38489583333336}" text_bbox="{&quot;x&quot;:-260.08184814453125,&quot;y&quot;:-60.5166015625,&quot;w&quot;:40.16374588012695,&quot;h&quot;:13.837638854980469}" my_fill="none" my_fill_opacity="1" my_font_size="16px" opacity="1" fill="none" content="
        Ethnicity
      " vivisfy_selected="yes">
        Ethnicity
      </text>
    </g>
    <path class="area" fill="rgb(179, 226, 205)" d="M0,1.0589410589411408L15.72463768115942,1.0589410589411408L31.44927536231884,0.5294705294705704L47.17391304347826,0.5294705294705704L62.89855072463768,0.5294705294705704L78.62318840579711,0.5294705294705704L94.34782608695652,0.5294705294705704L110.07246376811595,0.5294705294705704L125.79710144927536,0.5294705294705704L141.52173913043478,0.5294705294705704L157.24637681159422,0.5294705294705704L172.9710144927536,0.5294705294706292L188.69565217391303,0L204.42028985507247,1.176836406102666e-13L220.1449275362319,0.5294705294706292L235.8695652173913,0.5294705294706292L251.59420289855072,0.5294705294705704L267.3188405797102,1.0589410589411408L283.04347826086956,1.5884115884116523L298.768115942029,0.5294705294705704L314.49275362318843,1.0589410589411408L330.21739130434787,0.5294705294705704L345.9420289855072,0.5294705294705704L361.66666666666663,0.5294705294705704L377.39130434782606,0.5294705294705704L393.1159420289855,1.0589410589411408L408.84057971014494,0.5294705294705704L424.5652173913044,0.5294705294705704L440.2898550724638,0.5294705294705704L456.0144927536232,0.5294705294705704L471.7391304347826,0.5294705294705704L487.463768115942,0.5294705294705704L503.18840579710144,0.5294705294705704L518.9130434782609,1.176836406102666e-13L534.6376811594204,1.0589410589411996L550.3623188405797,0.5294705294705704L566.0869565217391,1.0589410589411996L581.8115942028986,0.5294705294705704L597.536231884058,1.0589410589411996L613.2608695652174,1.176836406102666e-13L628.9855072463769,1.0589410589411996L644.7101449275362,0.5294705294705704L660.4347826086957,0.5294705294705704L676.1594202898551,0.5294705294705704L691.8840579710144,1.058941058941082L707.6086956521739,0.5294705294705704L723.3333333333333,0.5294705294705704L739.0579710144928,0.5294705294705704L754.7826086956521,1.5884115884116523L770.5072463768116,2.6473526473527342L786.231884057971,3.7062937062937573L801.9565217391304,5.29470529470535L817.6811594202899,6.883116883116944L833.4057971014493,7.412587412587456L849.1304347826087,6.883116883116944L864.8550724637681,10.589410589410642L880.5797101449276,10.059940059940132L896.304347826087,10.589410589410642L912.0289855072464,12.177822177822236L927.7536231884059,10.059940059940132L943.4782608695652,12.707292707292748L959.2028985507246,13.236763236763318L974.927536231884,12.177822177822236L990.6521739130434,11.118881118881212L1006.3768115942029,9.53046953046962L1022.1014492753623,11.118881118881212L1037.8260869565217,11.118881118881212L1053.5507246376812,10.589410589410583L1069.2753623188407,9.53046953046962L1085,12.177822177822236L1085,47.652347652347686L1069.2753623188407,47.652347652347686L1053.5507246376812,46.06393606393609L1037.8260869565217,46.593406593406606L1022.1014492753623,49.24075924075928L1006.3768115942029,51.358641358641385L990.6521739130434,52.417582417582466L974.927536231884,49.77022977022979L959.2028985507246,56.653346653346674L943.4782608695652,57.71228771228776L927.7536231884059,57.71228771228776L912.0289855072464,60.35964035964044L896.304347826087,64.06593406593413L880.5797101449276,65.12487512487516L864.8550724637681,67.77222777222784L849.1304347826087,70.94905094905101L833.4057971014493,75.18481518481522L817.6811594202899,78.89110889110893L801.9565217391304,81.00899100899109L786.231884057971,83.12687312687319L770.5072463768116,87.3626373626374L754.7826086956521,86.8331668331669L739.0579710144928,91.59840159840161L723.3333333333333,89.4805194805195L707.6086956521739,88.95104895104895L691.8840579710144,91.06893106893111L676.1594202898551,88.42157842157843L660.4347826086957,87.89210789210797L644.7101449275362,92.12787212787212L628.9855072463769,94.77522477522486L613.2608695652174,96.89310689310696L597.536231884058,97.95204795204805L581.8115942028986,97.95204795204805L566.0869565217391,96.36363636363646L550.3623188405797,95.30469530469537L534.6376811594204,100.06993006993015L518.9130434782609,92.12787212787218L503.18840579710144,95.30469530469537L487.463768115942,92.65734265734275L471.7391304347826,95.30469530469537L456.0144927536232,95.83416583416589L440.2898550724638,98.48151848151856L424.5652173913044,92.65734265734275L408.84057971014494,92.65734265734275L393.1159420289855,86.30369630369638L377.39130434782606,82.59740259740268L361.66666666666663,77.8321678321679L345.9420289855072,77.3026973026974L330.21739130434787,82.06793206793212L314.49275362318843,73.06693306693312L298.768115942029,71.47852147852153L283.04347826086956,68.83116883116891L267.3188405797102,63.00699300699305L251.59420289855072,62.47752247752254L235.8695652173913,54.00599400599412L220.1449275362319,51.888111888112014L204.42028985507247,47.122877122877235L188.69565217391303,46.593406593406606L172.9710144927536,39.71028971028978L157.24637681159422,36.00399600399602L141.52173913043478,36.00399600399602L125.79710144927536,28.06193806193811L110.07246376811595,30.17982017982022L94.34782608695652,20.119880119880143L78.62318840579711,15.884115884115936L62.89855072463768,15.884115884115936L47.17391304347826,9.53046953046962L31.44927536231884,8.471528471528538L15.72463768115942,4.7652347652348395L0,5.824175824175862Z" transform_matrix="{&quot;a&quot;:0.9033333333333333,&quot;b&quot;:0,&quot;c&quot;:0,&quot;d&quot;:0.9033333333333333,&quot;e&quot;:558.2755208333333,&quot;f&quot;:400.38489583333336}" my_stoke="none" my_stoke_width="1px" my_stoke_opacity="1" my_fill="rgb(179, 226, 205)" my_fill_opacity="1" my_font_size="16px" opacity="1" style="font-family: PingFangSC-Light; stroke: none; stroke-opacity: 1; stroke-width: 1px; fill: rgb(179, 226, 205); fill-opacity: 1;" vivisfy_selected="yes"></path>
    <path class="area" fill="rgb(253, 205, 172)" d="M0,1.0589410589411408L15.72463768115942,1.0589410589411408L31.44927536231884,0.5294705294705704L47.17391304347826,0.5294705294705704L62.89855072463768,0.5294705294705704L78.62318840579711,0.5294705294705704L94.34782608695652,0.5294705294705704L110.07246376811595,0.5294705294705704L125.79710144927536,0.5294705294705704L141.52173913043478,0.5294705294705704L157.24637681159422,0.5294705294705704L172.9710144927536,0.5294705294706292L188.69565217391303,0L204.42028985507247,1.176836406102666e-13L220.1449275362319,0.5294705294706292L235.8695652173913,0.5294705294706292L251.59420289855072,0.5294705294705704L267.3188405797102,0.5294705294705704L283.04347826086956,1.0589410589411408L298.768115942029,0.5294705294705704L314.49275362318843,1.0589410589411408L330.21739130434787,0.5294705294705704L345.9420289855072,0.5294705294705704L361.66666666666663,0.5294705294705704L377.39130434782606,0.5294705294705704L393.1159420289855,1.0589410589411408L408.84057971014494,0.5294705294705704L424.5652173913044,0.5294705294705704L440.2898550724638,0.5294705294705704L456.0144927536232,0.5294705294705704L471.7391304347826,0.5294705294705704L487.463768115942,0.5294705294705704L503.18840579710144,0.5294705294705704L518.9130434782609,1.176836406102666e-13L534.6376811594204,1.0589410589411996L550.3623188405797,0.5294705294705704L566.0869565217391,1.0589410589411996L581.8115942028986,0.5294705294705704L597.536231884058,1.0589410589411996L613.2608695652174,1.176836406102666e-13L628.9855072463769,1.0589410589411996L644.7101449275362,0.5294705294705704L660.4347826086957,0.5294705294705704L676.1594202898551,0.5294705294705704L691.8840579710144,0.5294705294705704L707.6086956521739,0.5294705294705704L723.3333333333333,0.5294705294705704L739.0579710144928,1.176836406102666e-13L754.7826086956521,0.5294705294705704L770.5072463768116,0.5294705294705704L786.231884057971,1.0589410589411408L801.9565217391304,1.0589410589411408L817.6811594202899,0.5294705294705704L833.4057971014493,0.5294705294705704L849.1304347826087,0.5294705294705704L864.8550724637681,0.5294705294705704L880.5797101449276,0.5294705294705704L896.304347826087,1.0589410589411408L912.0289855072464,1.176836406102666e-13L927.7536231884059,1.176836406102666e-13L943.4782608695652,1.0589410589411408L959.2028985507246,1.0589410589411408L974.927536231884,1.0589410589411408L990.6521739130434,1.0589410589411408L1006.3768115942029,0.5294705294705704L1022.1014492753623,1.0589410589411408L1037.8260869565217,0.5294705294705704L1053.5507246376812,1.058941058941082L1069.2753623188407,0.5294705294705704L1085,1.0589410589411408L1085,12.177822177822236L1069.2753623188407,9.53046953046962L1053.5507246376812,10.589410589410583L1037.8260869565217,11.118881118881212L1022.1014492753623,11.118881118881212L1006.3768115942029,9.53046953046962L990.6521739130434,11.118881118881212L974.927536231884,12.177822177822236L959.2028985507246,13.236763236763318L943.4782608695652,12.707292707292748L927.7536231884059,10.059940059940132L912.0289855072464,12.177822177822236L896.304347826087,10.589410589410642L880.5797101449276,10.059940059940132L864.8550724637681,10.589410589410642L849.1304347826087,6.883116883116944L833.4057971014493,7.412587412587456L817.6811594202899,6.883116883116944L801.9565217391304,5.29470529470535L786.231884057971,3.7062937062937573L770.5072463768116,2.6473526473527342L754.7826086956521,1.5884115884116523L739.0579710144928,0.5294705294705704L723.3333333333333,0.5294705294705704L707.6086956521739,0.5294705294705704L691.8840579710144,1.058941058941082L676.1594202898551,0.5294705294705704L660.4347826086957,0.5294705294705704L644.7101449275362,0.5294705294705704L628.9855072463769,1.0589410589411996L613.2608695652174,1.176836406102666e-13L597.536231884058,1.0589410589411996L581.8115942028986,0.5294705294705704L566.0869565217391,1.0589410589411996L550.3623188405797,0.5294705294705704L534.6376811594204,1.0589410589411996L518.9130434782609,1.176836406102666e-13L503.18840579710144,0.5294705294705704L487.463768115942,0.5294705294705704L471.7391304347826,0.5294705294705704L456.0144927536232,0.5294705294705704L440.2898550724638,0.5294705294705704L424.5652173913044,0.5294705294705704L408.84057971014494,0.5294705294705704L393.1159420289855,1.0589410589411408L377.39130434782606,0.5294705294705704L361.66666666666663,0.5294705294705704L345.9420289855072,0.5294705294705704L330.21739130434787,0.5294705294705704L314.49275362318843,1.0589410589411408L298.768115942029,0.5294705294705704L283.04347826086956,1.5884115884116523L267.3188405797102,1.0589410589411408L251.59420289855072,0.5294705294705704L235.8695652173913,0.5294705294706292L220.1449275362319,0.5294705294706292L204.42028985507247,1.176836406102666e-13L188.69565217391303,0L172.9710144927536,0.5294705294706292L157.24637681159422,0.5294705294705704L141.52173913043478,0.5294705294705704L125.79710144927536,0.5294705294705704L110.07246376811595,0.5294705294705704L94.34782608695652,0.5294705294705704L78.62318840579711,0.5294705294705704L62.89855072463768,0.5294705294705704L47.17391304347826,0.5294705294705704L31.44927536231884,0.5294705294705704L15.72463768115942,1.0589410589411408L0,1.0589410589411408Z" transform_matrix="{&quot;a&quot;:0.9033333333333333,&quot;b&quot;:0,&quot;c&quot;:0,&quot;d&quot;:0.9033333333333333,&quot;e&quot;:558.2755208333333,&quot;f&quot;:400.38489583333336}" my_stoke="none" my_stoke_width="1px" my_stoke_opacity="1" my_fill="rgb(253, 205, 172)" my_fill_opacity="1" my_font_size="16px" opacity="1" style="font-family: PingFangSC-Light; stroke: none; stroke-opacity: 1; stroke-width: 1px; fill: rgb(253, 205, 172); fill-opacity: 1;" vivisfy_selected="yes"></path>
    <path class="area" fill="rgb(203, 213, 232)" d="M0,5.824175824175862L15.72463768115942,4.7652347652348395L31.44927536231884,8.471528471528538L47.17391304347826,9.53046953046962L62.89855072463768,15.884115884115936L78.62318840579711,15.884115884115936L94.34782608695652,20.119880119880143L110.07246376811595,30.17982017982022L125.79710144927536,28.06193806193811L141.52173913043478,36.00399600399602L157.24637681159422,36.00399600399602L172.9710144927536,39.71028971028978L188.69565217391303,46.593406593406606L204.42028985507247,47.122877122877235L220.1449275362319,51.888111888112014L235.8695652173913,54.00599400599412L251.59420289855072,62.47752247752254L267.3188405797102,63.00699300699305L283.04347826086956,68.83116883116891L298.768115942029,71.47852147852153L314.49275362318843,73.06693306693312L330.21739130434787,82.06793206793212L345.9420289855072,77.3026973026974L361.66666666666663,77.8321678321679L377.39130434782606,82.59740259740268L393.1159420289855,86.30369630369638L408.84057971014494,92.65734265734275L424.5652173913044,92.65734265734275L440.2898550724638,98.48151848151856L456.0144927536232,95.83416583416589L471.7391304347826,95.30469530469537L487.463768115942,92.65734265734275L503.18840579710144,95.30469530469537L518.9130434782609,92.12787212787218L534.6376811594204,100.06993006993015L550.3623188405797,95.30469530469537L566.0869565217391,96.36363636363646L581.8115942028986,97.95204795204805L597.536231884058,97.95204795204805L613.2608695652174,96.89310689310696L628.9855072463769,94.77522477522486L644.7101449275362,92.12787212787212L660.4347826086957,87.89210789210797L676.1594202898551,88.42157842157843L691.8840579710144,91.06893106893111L707.6086956521739,88.95104895104895L723.3333333333333,89.4805194805195L739.0579710144928,91.59840159840161L754.7826086956521,86.8331668331669L770.5072463768116,87.3626373626374L786.231884057971,83.12687312687319L801.9565217391304,81.00899100899109L817.6811594202899,78.89110889110893L833.4057971014493,75.18481518481522L849.1304347826087,70.94905094905101L864.8550724637681,67.77222777222784L880.5797101449276,65.12487512487516L896.304347826087,64.06593406593413L912.0289855072464,60.35964035964044L927.7536231884059,57.71228771228776L943.4782608695652,57.71228771228776L959.2028985507246,56.653346653346674L974.927536231884,49.77022977022979L990.6521739130434,52.417582417582466L1006.3768115942029,51.358641358641385L1022.1014492753623,49.24075924075928L1037.8260869565217,46.593406593406606L1053.5507246376812,46.06393606393609L1069.2753623188407,47.652347652347686L1085,47.652347652347686L1085,192.72727272727272L1069.2753623188407,194.31568431568434L1053.5507246376812,192.72727272727272L1037.8260869565217,193.2567432567433L1022.1014492753623,191.66833166833172L1006.3768115942029,193.7862137862138L990.6521739130434,196.43356643356648L974.927536231884,200.6693306693307L959.2028985507246,201.19880119880122L943.4782608695652,195.90409590409593L927.7536231884059,205.43456543456549L912.0289855072464,207.55244755244757L896.304347826087,210.72927072927078L880.5797101449276,207.02297702297707L864.8550724637681,208.0819180819181L849.1304347826087,208.61138861138866L833.4057971014493,205.964035964036L817.6811594202899,203.31668331668337L801.9565217391304,201.72827172827178L786.231884057971,207.55244755244757L770.5072463768116,195.3746253746254L754.7826086956521,188.4915084915085L739.0579710144928,185.84415584415584L723.3333333333333,178.96103896103895L707.6086956521739,171.54845154845157L691.8840579710144,176.31368631368633L676.1594202898551,166.78321678321677L660.4347826086957,157.78221778221786L644.7101449275362,168.9010989010989L628.9855072463769,159.90009990009995L613.2608695652174,159.37062937062944L597.536231884058,157.78221778221786L581.8115942028986,161.48851148851156L566.0869565217391,157.78221778221786L550.3623188405797,157.25274725274735L534.6376811594204,158.84115884115894L518.9130434782609,153.5464535464536L503.18840579710144,151.958041958042L487.463768115942,152.48751248751256L471.7391304347826,155.66433566433574L456.0144927536232,156.72327672327677L440.2898550724638,152.48751248751256L424.5652173913044,153.5464535464536L408.84057971014494,150.89910089910097L393.1159420289855,144.0159840159841L377.39130434782606,138.7212787212788L361.66666666666663,139.78021978021982L345.9420289855072,136.07392607392612L330.21739130434787,139.2507492507493L314.49275362318843,129.72027972027973L298.768115942029,122.83716283716285L283.04347826086956,115.42457542457547L267.3188405797102,110.12987012987017L251.59420289855072,105.89410589410589L235.8695652173913,96.36363636363646L220.1449275362319,92.65734265734275L204.42028985507247,94.24575424575428L188.69565217391303,81.00899100899109L172.9710144927536,70.94905094905101L157.24637681159422,63.536463536463565L141.52173913043478,63.00699300699305L125.79710144927536,54.53546453546457L110.07246376811595,49.77022977022979L94.34782608695652,36.00399600399602L78.62318840579711,30.179820179820275L62.89855072463768,30.709290709290787L47.17391304347826,25.414585414585495L31.44927536231884,18.53146853146861L15.72463768115942,8.471528471528538L0,9.53046953046962Z" transform_matrix="{&quot;a&quot;:0.9033333333333333,&quot;b&quot;:0,&quot;c&quot;:0,&quot;d&quot;:0.9033333333333333,&quot;e&quot;:558.2755208333333,&quot;f&quot;:400.38489583333336}" my_stoke="none" my_stoke_width="1px" my_stoke_opacity="1" my_fill="rgb(203, 213, 232)" my_fill_opacity="1" my_font_size="16px" opacity="1" style="font-family: PingFangSC-Light; stroke: none; stroke-opacity: 1; stroke-width: 1px; fill: rgb(203, 213, 232); fill-opacity: 1;" vivisfy_selected="yes"></path>
    <path class="area" fill="rgb(244, 202, 228)" d="M0,9.53046953046962L15.72463768115942,8.471528471528538L31.44927536231884,18.53146853146861L47.17391304347826,25.414585414585495L62.89855072463768,30.709290709290787L78.62318840579711,30.179820179820275L94.34782608695652,36.00399600399602L110.07246376811595,49.77022977022979L125.79710144927536,54.53546453546457L141.52173913043478,63.00699300699305L157.24637681159422,63.536463536463565L172.9710144927536,70.94905094905101L188.69565217391303,81.00899100899109L204.42028985507247,94.24575424575428L220.1449275362319,92.65734265734275L235.8695652173913,96.36363636363646L251.59420289855072,105.89410589410589L267.3188405797102,110.12987012987017L283.04347826086956,115.42457542457547L298.768115942029,122.83716283716285L314.49275362318843,129.72027972027973L330.21739130434787,139.2507492507493L345.9420289855072,136.07392607392612L361.66666666666663,139.78021978021982L377.39130434782606,138.7212787212788L393.1159420289855,144.0159840159841L408.84057971014494,150.89910089910097L424.5652173913044,153.5464535464536L440.2898550724638,152.48751248751256L456.0144927536232,156.72327672327677L471.7391304347826,155.66433566433574L487.463768115942,152.48751248751256L503.18840579710144,151.958041958042L518.9130434782609,153.5464535464536L534.6376811594204,158.84115884115894L550.3623188405797,157.25274725274735L566.0869565217391,157.78221778221786L581.8115942028986,161.48851148851156L597.536231884058,157.78221778221786L613.2608695652174,159.37062937062944L628.9855072463769,159.90009990009995L644.7101449275362,168.9010989010989L660.4347826086957,157.78221778221786L676.1594202898551,166.78321678321677L691.8840579710144,176.31368631368633L707.6086956521739,171.54845154845157L723.3333333333333,178.96103896103895L739.0579710144928,185.84415584415584L754.7826086956521,188.4915084915085L770.5072463768116,195.3746253746254L786.231884057971,207.55244755244757L801.9565217391304,201.72827172827178L817.6811594202899,203.31668331668337L833.4057971014493,205.964035964036L849.1304347826087,208.61138861138866L864.8550724637681,208.0819180819181L880.5797101449276,207.02297702297707L896.304347826087,210.72927072927078L912.0289855072464,207.55244755244757L927.7536231884059,205.43456543456549L943.4782608695652,195.90409590409593L959.2028985507246,201.19880119880122L974.927536231884,200.6693306693307L990.6521739130434,196.43356643356648L1006.3768115942029,193.7862137862138L1022.1014492753623,191.66833166833172L1037.8260869565217,193.2567432567433L1053.5507246376812,192.72727272727272L1069.2753623188407,194.31568431568434L1085,192.72727272727272L1085,530L1069.2753623188407,530L1053.5507246376812,530L1037.8260869565217,530L1022.1014492753623,530L1006.3768115942029,530L990.6521739130434,530L974.927536231884,530L959.2028985507246,530L943.4782608695652,530L927.7536231884059,530L912.0289855072464,530L896.304347826087,530L880.5797101449276,530L864.8550724637681,530L849.1304347826087,530L833.4057971014493,530L817.6811594202899,530L801.9565217391304,530L786.231884057971,530L770.5072463768116,530L754.7826086956521,530L739.0579710144928,530L723.3333333333333,530L707.6086956521739,530L691.8840579710144,530L676.1594202898551,530L660.4347826086957,530L644.7101449275362,530L628.9855072463769,530L613.2608695652174,530L597.536231884058,530L581.8115942028986,530L566.0869565217391,530L550.3623188405797,530L534.6376811594204,530L518.9130434782609,530L503.18840579710144,530L487.463768115942,530L471.7391304347826,530L456.0144927536232,530L440.2898550724638,530L424.5652173913044,530L408.84057971014494,530L393.1159420289855,530L377.39130434782606,530L361.66666666666663,530L345.9420289855072,530L330.21739130434787,530L314.49275362318843,530L298.768115942029,530L283.04347826086956,530L267.3188405797102,530L251.59420289855072,530L235.8695652173913,530L220.1449275362319,530L204.42028985507247,530L188.69565217391303,530L172.9710144927536,530L157.24637681159422,530L141.52173913043478,530L125.79710144927536,530L110.07246376811595,530L94.34782608695652,530L78.62318840579711,530L62.89855072463768,530L47.17391304347826,530L31.44927536231884,530L15.72463768115942,530L0,530Z" transform_matrix="{&quot;a&quot;:0.9033333333333333,&quot;b&quot;:0,&quot;c&quot;:0,&quot;d&quot;:0.9033333333333333,&quot;e&quot;:558.2755208333333,&quot;f&quot;:400.38489583333336}" my_stoke="none" my_stoke_width="1px" my_stoke_opacity="1" my_fill="rgb(244, 202, 228)" my_fill_opacity="1" my_font_size="16px" opacity="1" style="font-family: PingFangSC-Light; stroke: none; stroke-opacity: 1; stroke-width: 1px; fill: rgb(244, 202, 228); fill-opacity: 1;" vivisfy_selected="yes"></path>
    <text class="area-label" transform="translate(321.83354192740927,57.90431403913596) scale(3.520160445488288)" style="fill: gray; font-family: PingFangSC-Light; font-size: 16px;" transform_matrix="{&quot;a&quot;:3.179878261089325,&quot;b&quot;:0,&quot;c&quot;:0,&quot;d&quot;:3.179878261089325,&quot;e&quot;:848.9985007731119,&quot;f&quot;:452.691794573466}" text_bbox="{&quot;x&quot;:0,&quot;y&quot;:-14.465962409973145,&quot;w&quot;:104.6595687866211,&quot;h&quot;:19.0258846282959}" my_fill="rgb(128, 128, 128)" my_fill_opacity="1" my_font_size="16px" opacity="1" fill="rgb(128, 128, 128)" content="
      african american
    " vivisfy_selected="yes">
      african american
    </text>
    <text class="area-label" transform="translate(943.773466833542,9.658518471855606) scale(0.5548114459944816)" style="fill: gray; font-family: PingFangSC-Light; font-size: 16px;" transform_matrix="{&quot;a&quot;:0.5011797553300857,&quot;b&quot;:0,&quot;c&quot;:0,&quot;d&quot;:0.5011797553300857,&quot;e&quot;:1410.8175260416665,&quot;f&quot;:409.1097578080495}" text_bbox="{&quot;x&quot;:0,&quot;y&quot;:-13.967044830322266,&quot;w&quot;:32.56378936767578,&quot;h&quot;:18.95527458190918}" my_fill="rgb(128, 128, 128)" my_fill_opacity="1" my_font_size="16px" opacity="1" fill="rgb(128, 128, 128)" content="
      asian
    " vivisfy_selected="yes">
      asian
    </text>
    <text class="area-label" transform="translate(839.2115143929911,160.63752867682692) scale(5.6139746077490225)" style="fill: gray; font-family: PingFangSC-Light; font-size: 16px;" transform_matrix="{&quot;a&quot;:5.071290362675985,&quot;b&quot;:0,&quot;c&quot;:0,&quot;d&quot;:5.071290362675985,&quot;e&quot;:1316.3632305908202,&quot;f&quot;:545.4941289774576}" text_bbox="{&quot;x&quot;:0,&quot;y&quot;:-14.493351936340332,&quot;w&quot;:34.04119873046875,&quot;h&quot;:19.127281188964844}" my_fill="rgb(128, 128, 128)" my_fill_opacity="1" my_font_size="16px" opacity="1" fill="rgb(128, 128, 128)" content="
      latino
    " vivisfy_selected="yes">
      latino
    </text>
    <text class="area-label" transform="translate(0,437.3141534412812) scale(16.851822133874304)" style="fill: gray; font-family: PingFangSC-Light; font-size: 16px;" transform_matrix="{&quot;a&quot;:15.22281244913737,&quot;b&quot;:0,&quot;c&quot;:0,&quot;d&quot;:15.22281244913737,&quot;e&quot;:558.2755208333333,&quot;f&quot;:795.4253428141276}" text_bbox="{&quot;x&quot;:0,&quot;y&quot;:-14.451993942260742,&quot;w&quot;:33.15593338012695,&quot;h&quot;:19.083200454711914}" my_fill="rgb(128, 128, 128)" my_fill_opacity="1" my_font_size="16px" opacity="1" fill="rgb(128, 128, 128)" content="
      white
    " vivisfy_selected="yes">
      white
    </text>
  </g>
</svg>