<svg xmlns="http://www.w3.org/2000/svg" version="1.1" style="font-family:Lato, 'Helvetica Neue', Helvetica, Arial, 'Liberation Sans', sans-serif;font-size:18px;background-color:white;text-rendering:geometricPrecision;-webkit-font-smoothing:antialiased" width="850" height="600" viewBox="0 0 850 600"><defs><pattern id="noDataPattern" patternUnits="userSpaceOnUse" width="4" height="4" patternTransform="rotate(-45 2 2)"><path d="M -1,2 l 6,0" stroke="#ccc" stroke-width="0.7"/></pattern></defs><rect class="background-fill" fill="white" width="850" height="600"/><g class="HeaderView"><a href="https://ourworldindata.org/grapher/the-number-of-active-state-based-conflicts?time=1950..latest&amp;country=~OWID_WRL" style="font-family:'Playfair Display', Georgia, 'Times New Roman', 'Liberation Serif', serif" target="_blank" rel="noopener"><text font-size="25.20" x="15.0" y="36.9" fill="#555"><tspan x="15" y="36.924">State-based conflicts</tspan></text></a></g><g class="StackedArea"><defs><clipPath id="boundsClip-5"><rect x="38.144000000000005" y="94.76" width="820" height="871.04"/></clipPath></defs><rect x="15" y="94.76" width="820" height="435.52" fill="transparent"/><g class="DualAxisView"><g class="HorizontalAxis"><line x1="38.1" y1="509.08" x2="38.1" y2="514.0799999999999" stroke="#999"/><line x1="696.7" y1="509.08" x2="696.7" y2="514.0799999999999" stroke="#999"/><line x1="132.2" y1="509.08" x2="132.2" y2="514.0799999999999" stroke="#999"/><line x1="226.3" y1="509.08" x2="226.3" y2="514.0799999999999" stroke="#999"/><line x1="320.4" y1="509.08" x2="320.4" y2="514.0799999999999" stroke="#999"/><line x1="414.5" y1="509.08" x2="414.5" y2="514.0799999999999" stroke="#999"/><line x1="508.6" y1="509.08" x2="508.6" y2="514.0799999999999" stroke="#999"/><line x1="602.6" y1="509.08" x2="602.6" y2="514.0799999999999" stroke="#999"/><text x="38.144000000000005" y="530.28" fill="#666" text-anchor="middle" font-size="16.2">1950</text><text x="696.725" y="530.28" fill="#666" text-anchor="middle" font-size="16.2">2020</text><text x="132.2" y="530.28" fill="#666" text-anchor="middle" font-size="16.2">1960</text><text x="226.3" y="530.28" fill="#666" text-anchor="middle" font-size="16.2">1970</text><text x="320.4" y="530.28" fill="#666" text-anchor="middle" font-size="16.2">1980</text><text x="414.5" y="530.28" fill="#666" text-anchor="middle" font-size="16.2">1990</text><text x="508.6" y="530.28" fill="#666" text-anchor="middle" font-size="16.2">2000</text><text x="602.6" y="530.28" fill="#666" text-anchor="middle" font-size="16.2">2010</text></g><g class="VerticalAxis"><text x="33.14" y="509.1" dy=".32em" text-anchor="end" fill="#666" font-size="16.2">0</text><text x="33.14" y="435.1" dy=".32em" text-anchor="end" fill="#666" font-size="16.2">10</text><text x="33.14" y="361.1" dy=".32em" text-anchor="end" fill="#666" font-size="16.2">20</text><text x="33.14" y="287.1" dy=".32em" text-anchor="end" fill="#666" font-size="16.2">30</text><text x="33.14" y="213.1" dy=".32em" text-anchor="end" fill="#666" font-size="16.2">40</text><text x="33.14" y="139.2" dy=".32em" text-anchor="end" fill="#666" font-size="16.2">50</text></g><g class="AxisGridLines horizontalLines"><line x1="38.14" y1="509.1" x2="696.73" y2="509.1" stroke="#999"/><line x1="38.14" y1="435.1" x2="696.73" y2="435.1" stroke="#ddd" stroke-dasharray="3,2"/><line x1="38.14" y1="361.1" x2="696.73" y2="361.1" stroke="#ddd" stroke-dasharray="3,2"/><line x1="38.14" y1="287.1" x2="696.73" y2="287.1" stroke="#ddd" stroke-dasharray="3,2"/><line x1="38.14" y1="213.1" x2="696.73" y2="213.1" stroke="#ddd" stroke-dasharray="3,2"/><line x1="38.14" y1="139.2" x2="696.73" y2="139.2" stroke="#ddd" stroke-dasharray="3,2"/></g></g><g clip-path="url(#boundsClip-5)"><g class="LineLabels" style="cursor:default"><g class="legendMark"><g class="indicator"><path d="M700.725,187.2 H714.225 V187.2 H727.725" stroke="#999" stroke-width="0.5" fill="none"/></g><rect x="696.725" y="166.95" width="137.465" height="40.5" fill="#fff" opacity="0"/><text font-size="13.50" font-weight="400" x="731.7" y="178.7" fill="#18470f"><tspan x="731.725" y="178.695">Civil conflicts</tspan><tspan x="731.725" y="192.195">with foreign state</tspan><tspan x="731.725" y="205.695">intervention</tspan></text></g><g class="legendMark"><g class="indicator"><path d="M700.725,383.3 H714.225 V383.3 H727.725" stroke="#999" stroke-width="0.5" fill="none"/></g><rect x="696.725" y="363.05" width="138.275" height="40.5" fill="#fff" opacity="0"/><text font-size="13.50" font-weight="400" x="731.7" y="374.8" fill="#883039"><tspan x="731.725" y="374.795">Civil conflicts</tspan><tspan x="731.725" y="388.295">without foreign</tspan><tspan x="731.725" y="401.795">state intervention</tspan></text></g><g class="legendMark"><g class="indicator"><path d="M700.725,498 H709.725 V466.58000000000004 H727.725" stroke="#999" stroke-width="0.5" fill="none"/></g><rect x="696.725" y="453.08000000000004" width="126.26" height="27" fill="#fff" opacity="0"/><text font-size="13.50" font-weight="400" x="731.7" y="464.8" fill="#3c4e66"><tspan x="731.725" y="464.82500000000005">Conflicts</tspan><tspan x="731.725" y="478.32500000000005">between states</tspan></text></g><g class="legendMark"><g class="indicator"><path d="M700.725,509.1 H718.725 V495.58000000000004 H727.725" stroke="#999" stroke-width="0.5" fill="none"/></g><rect x="696.725" y="482.08000000000004" width="134.9" height="27" fill="#fff" opacity="0"/><text font-size="13.50" font-weight="400" x="731.7" y="493.8" fill="#b13507"><tspan x="731.725" y="493.82500000000005">Colonial or</tspan><tspan x="731.725" y="507.32500000000005">imperial conflicts</tspan></text></g></g><g class="Areas"><rect x="38.144000000000005" y="94.76" width="658.581" height="414.32" opacity="0" fill="rgba(255,255,255,0)"/><path class="Colonial-or-imperial-conflicts-area" stroke-linecap="round" d="M38.1 472.1L47.6 479.5L57 472.1L66.4 457.3L75.8 464.7L85.2 464.7L94.6 464.7L104 464.7L113.4 472.1L122.8 486.9L132.2 501.7L141.6 494.3L151 486.9L160.5 494.3L169.9 479.5L179.3 479.5L188.7 479.5L198.1 479.5L207.5 486.9L216.9 486.9L226.3 486.9L235.7 486.9L245.1 486.9L254.5 486.9L263.9 494.3L273.4 509.1L282.8 509.1L292.2 509.1L301.6 509.1L311 509.1L320.4 509.1L329.8 509.1L339.2 509.1L348.6 509.1L358 509.1L367.4 509.1L376.8 509.1L386.3 509.1L395.7 509.1L405.1 509.1L414.5 509.1L423.9 509.1L433.3 509.1L442.7 509.1L452.1 509.1L461.5 509.1L470.9 509.1L480.3 509.1L489.7 509.1L499.2 509.1L508.6 509.1L518 509.1L527.4 509.1L536.8 509.1L546.2 509.1L555.6 509.1L565 509.1L574.4 509.1L583.8 509.1L593.2 509.1L602.6 509.1L612.1 509.1L621.5 509.1L630.9 509.1L640.3 509.1L649.7 509.1L659.1 509.1L668.5 509.1L677.9 509.1L687.3 509.1L696.7 509.1L696.725 509.08L38.144000000000005 509.08" fill="#b13507" fill-opacity="0.7"/><path class="Conflicts-between-states-area" stroke-linecap="round" d="M38.1 457.3L47.6 464.7L57 457.3L66.4 449.9L75.8 457.3L85.2 464.7L94.6 449.9L104 457.3L113.4 464.7L122.8 486.9L132.2 501.7L141.6 486.9L151 472.1L160.5 479.5L169.9 457.3L179.3 457.3L188.7 464.7L198.1 442.5L207.5 479.5L216.9 449.9L226.3 472.1L235.7 472.1L245.1 472.1L254.5 464.7L263.9 464.7L273.4 494.3L282.8 501.7L292.2 486.9L301.6 479.5L311 486.9L320.4 486.9L329.8 494.3L339.2 494.3L348.6 479.5L358 486.9L367.4 494.3L376.8 486.9L386.3 472.1L395.7 486.9L405.1 494.3L414.5 494.3L423.9 494.3L433.3 501.7L442.7 509.1L452.1 501.7L461.5 501.7L470.9 494.3L480.3 501.7L489.7 494.3L499.2 494.3L508.6 494.3L518 494.3L527.4 501.7L536.8 494.3L546.2 509.1L555.6 509.1L565 509.1L574.4 509.1L583.8 501.7L593.2 509.1L602.6 509.1L612.1 501.7L621.5 501.7L630.9 501.7L640.3 501.7L649.7 501.7L659.1 494.3L668.5 501.7L677.9 494.3L687.3 494.3L696.7 486.9L696.7 509.1L687.3 509.1L677.9 509.1L668.5 509.1L659.1 509.1L649.7 509.1L640.3 509.1L630.9 509.1L621.5 509.1L612.1 509.1L602.6 509.1L593.2 509.1L583.8 509.1L574.4 509.1L565 509.1L555.6 509.1L546.2 509.1L536.8 509.1L527.4 509.1L518 509.1L508.6 509.1L499.2 509.1L489.7 509.1L480.3 509.1L470.9 509.1L461.5 509.1L452.1 509.1L442.7 509.1L433.3 509.1L423.9 509.1L414.5 509.1L405.1 509.1L395.7 509.1L386.3 509.1L376.8 509.1L367.4 509.1L358 509.1L348.6 509.1L339.2 509.1L329.8 509.1L320.4 509.1L311 509.1L301.6 509.1L292.2 509.1L282.8 509.1L273.4 509.1L263.9 494.3L254.5 486.9L245.1 486.9L235.7 486.9L226.3 486.9L216.9 486.9L207.5 486.9L198.1 479.5L188.7 479.5L179.3 479.5L169.9 479.5L160.5 494.3L151 486.9L141.6 494.3L132.2 501.7L122.8 486.9L113.4 472.1L104 464.7L94.6 464.7L85.2 464.7L75.8 464.7L66.4 457.3L57 472.1L47.6 479.5L38.1 472.1" fill="#3c4e66" fill-opacity="0.7"/><path class="Civil-conflicts-without-foreign-state-intervention-area" stroke-linecap="round" d="M38.1 375.9L47.6 405.5L57 405.5L66.4 390.7L75.8 398.1L85.2 412.9L94.6 383.3L104 390.7L113.4 383.3L122.8 398.1L132.2 420.3L141.6 368.5L151 375.9L160.5 383.3L169.9 353.7L179.3 331.5L188.7 324.1L198.1 279.7L207.5 331.5L216.9 324.1L226.3 353.7L235.7 324.1L245.1 346.3L254.5 338.9L263.9 316.7L273.4 316.7L282.8 287.1L292.2 272.3L301.6 264.9L311 235.3L320.4 264.9L329.8 250.1L339.2 220.5L348.6 235.3L358 235.3L367.4 257.5L376.8 220.5L386.3 198.3L395.7 250.1L405.1 250.1L414.5 168.7L423.9 131.8L433.3 176.1L442.7 235.3L452.1 161.3L461.5 213.1L470.9 227.9L480.3 250.1L489.7 257.5L499.2 257.5L508.6 257.5L518 257.5L527.4 287.1L536.8 287.1L546.2 294.5L555.6 301.9L565 301.9L574.4 279.7L583.8 279.7L593.2 287.1L602.6 338.9L612.1 301.9L621.5 331.5L630.9 301.9L640.3 294.5L649.7 272.3L659.1 242.7L668.5 287.1L677.9 264.9L687.3 287.1L696.7 279.7L696.7 486.9L687.3 494.3L677.9 494.3L668.5 501.7L659.1 494.3L649.7 501.7L640.3 501.7L630.9 501.7L621.5 501.7L612.1 501.7L602.6 509.1L593.2 509.1L583.8 501.7L574.4 509.1L565 509.1L555.6 509.1L546.2 509.1L536.8 494.3L527.4 501.7L518 494.3L508.6 494.3L499.2 494.3L489.7 494.3L480.3 501.7L470.9 494.3L461.5 501.7L452.1 501.7L442.7 509.1L433.3 501.7L423.9 494.3L414.5 494.3L405.1 494.3L395.7 486.9L386.3 472.1L376.8 486.9L367.4 494.3L358 486.9L348.6 479.5L339.2 494.3L329.8 494.3L320.4 486.9L311 486.9L301.6 479.5L292.2 486.9L282.8 501.7L273.4 494.3L263.9 464.7L254.5 464.7L245.1 472.1L235.7 472.1L226.3 472.1L216.9 449.9L207.5 479.5L198.1 442.5L188.7 464.7L179.3 457.3L169.9 457.3L160.5 479.5L151 472.1L141.6 486.9L132.2 501.7L122.8 486.9L113.4 464.7L104 457.3L94.6 449.9L85.2 464.7L75.8 457.3L66.4 449.9L57 457.3L47.6 464.7L38.1 457.3" fill="#883039" fill-opacity="0.7"/><path class="Civil-conflicts-with-foreign-state-intervention-area" stroke-linecap="round" d="M38.1 375.9L47.6 405.5L57 405.5L66.4 390.7L75.8 398.1L85.2 412.9L94.6 383.3L104 383.3L113.4 375.9L122.8 390.7L132.2 398.1L141.6 353.7L151 361.1L160.5 361.1L169.9 324.1L179.3 309.3L188.7 301.9L198.1 264.9L207.5 316.7L216.9 294.5L226.3 316.7L235.7 294.5L245.1 316.7L254.5 316.7L263.9 301.9L273.4 287.1L282.8 272.3L292.2 242.7L301.6 227.9L311 205.7L320.4 205.7L329.8 198.3L339.2 183.5L348.6 190.9L358 198.3L367.4 227.9L376.8 183.5L386.3 161.3L395.7 220.5L405.1 213.1L414.5 146.6L423.9 117L433.3 139.2L442.7 190.9L452.1 146.6L461.5 198.3L470.9 205.7L480.3 220.5L489.7 213.1L499.2 213.1L508.6 227.9L518 220.5L527.4 264.9L536.8 264.9L546.2 264.9L555.6 264.9L565 264.9L574.4 250.1L583.8 227.9L593.2 235.3L602.6 279.7L612.1 235.3L621.5 264.9L630.9 227.9L640.3 183.5L649.7 124.4L659.1 109.6L668.5 131.8L677.9 124.4L687.3 102.2L696.7 94.8L696.7 279.7L687.3 287.1L677.9 264.9L668.5 287.1L659.1 242.7L649.7 272.3L640.3 294.5L630.9 301.9L621.5 331.5L612.1 301.9L602.6 338.9L593.2 287.1L583.8 279.7L574.4 279.7L565 301.9L555.6 301.9L546.2 294.5L536.8 287.1L527.4 287.1L518 257.5L508.6 257.5L499.2 257.5L489.7 257.5L480.3 250.1L470.9 227.9L461.5 213.1L452.1 161.3L442.7 235.3L433.3 176.1L423.9 131.8L414.5 168.7L405.1 250.1L395.7 250.1L386.3 198.3L376.8 220.5L367.4 257.5L358 235.3L348.6 235.3L339.2 220.5L329.8 250.1L320.4 264.9L311 235.3L301.6 264.9L292.2 272.3L282.8 287.1L273.4 316.7L263.9 316.7L254.5 338.9L245.1 346.3L235.7 324.1L226.3 353.7L216.9 324.1L207.5 331.5L198.1 279.7L188.7 324.1L179.3 331.5L169.9 353.7L160.5 383.3L151 375.9L141.6 368.5L132.2 420.3L122.8 398.1L113.4 383.3L104 390.7L94.6 383.3L85.2 412.9L75.8 398.1L66.4 390.7L57 405.5L47.6 405.5L38.1 375.9" fill="#18470f" fill-opacity="0.7"/></g></g></g></svg>