<svg height="350" version="1.1" width="749" xmlns="http://www.w3.org/2000/svg" id="raphael-paper-512" style="overflow: hidden; -webkit-tap-highlight-color: rgba(0, 0, 0, 0); user-select: none; cursor: default; vertical-align: middle; position: relative; top: -0.5px; background-color: rgb(255, 255, 255);"><desc></desc><defs><clipPath id="rr-61250C32-158A-417C-8C82-204F2778007C"><rect x="66.8" y="69.6" width="667.2" height="160" transform="matrix(1,0,0,1,0,0)"></rect></clipPath><clipPath id="rr-F6C7D758-0CF0-4E9C-9864-96C807DF603E"><rect x="63.4" y="61" width="670.6" height="171.4" transform="matrix(1,0,0,1,0,0)"></rect></clipPath><clipPath id="rr-63F6A93A-7964-49CB-A7C2-A8A094DB1432"><rect x="63.4" y="61" width="670.6" height="171.4" transform="matrix(1,0,0,1,0,0)"></rect></clipPath><clipPath id="rr-47139E0B-F85E-4515-BE26-0A22B9D5895F"><rect x="61.4" y="59" width="674.6" height="175.4" transform="matrix(1,0,0,1,0,0)"></rect></clipPath><clipPath id="rr-6E5F9241-EA5F-4E78-80C3-2318E49F9FF3"><rect x="61.4" y="59" width="674.6" height="175.4" transform="matrix(1,0,0,1,0,0)"></rect></clipPath><clipPath id="rr-7D977F7B-9302-4160-BBF5-A6F37D07A6D9"><rect x="61.4" y="59" width="674.6" height="175.4" transform="matrix(1,0,0,1,0,0)"></rect></clipPath><clipPath id="rr-3010B576-EC09-49B1-B323-C08F3290BD0A"><rect x="63.4" y="0" width="670.6" height="232.4" transform="matrix(1,0,0,1,0,0)"></rect></clipPath><clipPath id="rr-8A626DF5-1D5C-458C-A0D0-C3DEAFE1876F"><rect x="63.4" y="61" width="670.6" height="171.4" transform="matrix(1,0,0,1,0,0)"></rect></clipPath><clipPath id="rr-5EBACF7E-F0EF-4F4F-BB00-73BE7844A1D6"><rect x="63.4" y="61" width="670.6" height="171.4" transform="matrix(1,0,0,1,0,0)"></rect></clipPath><clipPath id="rr-F282CD20-9B08-4878-B281-E4A312121843"><rect x="63.4" y="61" width="670.6" height="171.4" transform="matrix(1,0,0,1,0,0)"></rect></clipPath><clipPath id="rr-1EBFDF77-3123-4C91-914E-931363E5F429"><rect x="63.4" y="61" width="670.6" height="171.4" transform="matrix(1,0,0,1,0,0)"></rect></clipPath><clipPath id="rr-7DBCFF94-5DCF-4C9D-9256-0811BFE14945"><rect x="63.4" y="61" width="670.6" height="171.4" transform="matrix(1,0,0,1,0,0)"></rect></clipPath><clipPath id="rr-79769BAE-1690-41AF-BBB7-F043359A6986"><rect x="63.4" y="61" width="670.6" height="171.4" transform="matrix(1,0,0,1,0,0)"></rect></clipPath></defs><g class="raphael-group-513-parentgroup"><g class="raphael-group-514-background"><rect x="0" y="0" width="749" height="350" stroke="none" fill-opacity="1" fill="#ffffff" ry="0" rx="0"></rect><rect x="0" y="0" width="749" height="350" stroke="#767575" stroke-opacity="0.5" stroke-width="0" stroke-dasharray="none" fill="none" ry="0" rx="0"></rect></g><g class="raphael-group-537-canvas"><rect x="63.4" y="61" width="670.6" height="171.4" ry="0" rx="0" stroke-width="0" stroke="none" fill-opacity="0" fill="#ffffff"></rect></g><g class="raphael-group-515-axisbottom"><g class="raphael-group-630-dataset-Name-group"><g class="raphael-group-639-dataset-axis-name"><text font-family="Lucida Grande, Lucida Sans Unicode, Arial, Helvetica, sans-serif" font-size="12px" font-weight="normal" font-style="normal" transform="matrix(0,-1,1,0,-152.8,197.2)" fill-opacity="1" fill="#666666" x="22.2" stroke="none" text-anchor="middle" y="179" style="font-family: &quot;Lucida Grande&quot;, &quot;Lucida Sans Unicode&quot;, Arial, Helvetica, sans-serif; font-size: 12px; font-weight: normal; font-style: normal; text-anchor: middle;">Total number of apps in store</text></g></g><g class="raphael-group-633-dataset-Label-group"><g class="raphael-group-635-dataset-axis" transform="matrix(1,0,0,1,0,0)" font-family="Lucida Grande, Lucida Sans Unicode, Arial, Helvetica, sans-serif" font-size="11px" font-weight="normal" font-style="normal" style="font-family: &quot;Lucida Grande&quot;, &quot;Lucida Sans Unicode&quot;, Arial, Helvetica, sans-serif; font-size: 11px; font-weight: normal; font-style: normal;"><text transform="matrix(1,0,0,1,0,0)" opacity="1" fill-opacity="1" fill="#666666" font-size="11px" text-anchor="end" x="53.4" stroke="none" y="236" style="font-size: 11px; text-anchor: end;">0</text><text transform="matrix(1,0,0,1,0,0)" opacity="1" fill-opacity="1" fill="#666666" font-size="11px" text-anchor="end" x="53.4" stroke="none" y="201" style="font-size: 11px; text-anchor: end;">1M</text><text transform="matrix(1,0,0,1,0,0)" opacity="1" fill-opacity="1" fill="#666666" font-size="11px" text-anchor="end" x="53.4" stroke="none" y="167" style="font-size: 11px; text-anchor: end;">2M</text><text transform="matrix(1,0,0,1,0,0)" opacity="1" fill-opacity="1" fill="#666666" font-size="11px" text-anchor="end" x="53.4" stroke="none" y="133" style="font-size: 11px; text-anchor: end;">3M</text><text transform="matrix(1,0,0,1,0,0)" opacity="1" fill-opacity="1" fill="#666666" font-size="11px" text-anchor="end" x="53.4" stroke="none" y="99" style="font-size: 11px; text-anchor: end;">4M</text><text transform="matrix(1,0,0,1,0,0)" opacity="1" fill-opacity="1" fill="#666666" font-size="11px" text-anchor="end" x="53.4" stroke="none" y="64" style="font-size: 11px; text-anchor: end;">5M</text></g></g><g class="raphael-group-640-axis-line-tick-bottom"></g><g class="raphael-group-648-dataset-Name-group"><g class="raphael-group-657-dataset-axis-name"><text font-family="Lucida Grande, Lucida Sans Unicode, Arial, Helvetica, sans-serif" font-size="12px" font-weight="normal" font-style="normal" transform="matrix(1,0,0,1,0,0)" fill-opacity="1" fill="#666666" x="398.7" stroke="none" text-anchor="middle" y="274" style="font-family: &quot;Lucida Grande&quot;, &quot;Lucida Sans Unicode&quot;, Arial, Helvetica, sans-serif; font-size: 12px; font-weight: normal; font-style: normal; text-anchor: middle;">Years</text></g></g><g class="raphael-group-651-dataset-Label-group"><g class="raphael-group-653-dataset-axis" transform="matrix(1,0,0,1,0,0)" font-family="Lucida Grande, Lucida Sans Unicode, Arial, Helvetica, sans-serif" font-size="11px" font-weight="normal" font-style="normal" style="font-family: &quot;Lucida Grande&quot;, &quot;Lucida Sans Unicode&quot;, Arial, Helvetica, sans-serif; font-size: 11px; font-weight: normal; font-style: normal;"><text transform="matrix(1,0,0,1,0,0)" opacity="1" fill-opacity="1" fill="#666666" x="138.46" text-anchor="middle" stroke="none" y="252" style="text-anchor: middle;">2020</text><text transform="matrix(1,0,0,1,0,0)" opacity="1" fill-opacity="1" fill="#666666" x="268.58000000000004" text-anchor="middle" stroke="none" y="252" style="text-anchor: middle;">2021</text><text transform="matrix(1,0,0,1,0,0)" opacity="1" fill-opacity="1" fill="#666666" x="398.70000000000005" text-anchor="middle" stroke="none" y="252" style="text-anchor: middle;">2022</text><text transform="matrix(1,0,0,1,0,0)" opacity="1" fill-opacity="1" fill="#666666" x="528.8199999999999" text-anchor="middle" stroke="none" y="252" style="text-anchor: middle;">2023</text><text transform="matrix(1,0,0,1,0,0)" opacity="1" fill-opacity="1" fill="#666666" x="658.94" text-anchor="middle" stroke="none" y="252" style="text-anchor: middle;">2024</text></g></g><g class="raphael-group-658-axis-line-tick-bottom"></g></g><g class="raphael-group-539-axisReferenceVisualsFloor" clip-path="url('#rr-F6C7D758-0CF0-4E9C-9864-96C807DF603E')"></g><g class="raphael-group-538-axisReferenceVisualsBottom"><path stroke-dasharray="none" stroke="#e6e6e6" stroke-opacity="1" stroke-width="1" d="M63.4,232.5L734,232.5" stroke-linecap="butt" fill="none"></path><path stroke-dasharray="none" stroke="#e6e6e6" stroke-opacity="1" stroke-width="1" d="M63.4,198.5L734,198.5" stroke-linecap="butt" fill="none"></path><path stroke-dasharray="none" stroke="#e6e6e6" stroke-opacity="1" stroke-width="1" d="M63.4,163.5L734,163.5" stroke-linecap="butt" fill="none"></path><path stroke-dasharray="none" stroke="#e6e6e6" stroke-opacity="1" stroke-width="1" d="M63.4,129.5L734,129.5" stroke-linecap="butt" fill="none"></path><path stroke-dasharray="none" stroke="#e6e6e6" stroke-opacity="1" stroke-width="1" d="M63.4,95.5L734,95.5" stroke-linecap="butt" fill="none"></path><path stroke-dasharray="none" stroke="#e6e6e6" stroke-opacity="1" stroke-width="1" d="M63.4,61.5L734,61.5" stroke-linecap="butt" fill="none"></path></g><g class="raphael-group-516-belowplot"></g><g class="raphael-group-540-crossline"></g><g class="raphael-group-541-crosslineBottom"><g class="raphael-group-667-crosslineBottom"></g></g><g class="raphael-group-544-axisReferenceVisualsMiddle" clip-path="url('#rr-63F6A93A-7964-49CB-A7C2-A8A094DB1432')"></g><g class="raphael-group-546-quadrant" clip-path="url('#rr-7D977F7B-9302-4160-BBF5-A6F37D07A6D9')"></g><g class="raphael-group-517-plots" clip-path="url('#rr-47139E0B-F85E-4515-BE26-0A22B9D5895F')"><g class="raphael-group-548-column-shadow-group"><g class="raphael-group-563-vcanvas-column-shadow" transform="matrix(1,0,0,1,0,0)"><g class="raphael-group-574-manager-columnShadowVcanvasGroup"><g class="raphael-group-585-shadow-group"></g><g class="raphael-group-586-error-shadow-group"></g><g class="raphael-group-596-shadow-group"></g><g class="raphael-group-597-error-shadow-group"></g><g class="raphael-group-607-shadow-group"></g><g class="raphael-group-608-error-shadow-group"></g></g></g></g><g class="raphael-group-549-column"><g class="raphael-group-564-vcanvas-column-plot" transform="matrix(1,0,0,1,0,0)"><g class="raphael-group-572-columnTrendGroup"><g class="raphael-group-583-manager-columnTrendGroup"></g></g><g class="raphael-group-575-manager-columnVcanvasGroup"><g class="raphael-group-587-common-elems-group"></g><g class="raphael-group-588-plot-group"><rect y="165.5" height="67" x="86.5" width="35" ry="0" rx="0" fill-opacity="1" fill="#7cb5ec" stroke="#c0c0c0" stroke-opacity="0.000001" stroke-width="0" stroke-dasharray="none" stroke-linejoin="miter"></rect><rect y="171.5" height="61" x="216.5" width="35" ry="0" rx="0" fill-opacity="1" fill="#7cb5ec" stroke="#c0c0c0" stroke-opacity="0.000001" stroke-width="0" stroke-dasharray="none" stroke-linejoin="miter"></rect><rect y="165.5" height="67" x="346.5" width="35" ry="0" rx="0" fill-opacity="1" fill="#7cb5ec" stroke="#c0c0c0" stroke-opacity="0.000001" stroke-width="0" stroke-dasharray="none" stroke-linejoin="miter"></rect><rect y="167.5" height="65" x="476.5" width="35" ry="0" rx="0" fill-opacity="1" fill="#7cb5ec" stroke="#c0c0c0" stroke-opacity="0.000001" stroke-width="0" stroke-dasharray="none" stroke-linejoin="miter"></rect><rect y="176.5" height="56" x="606.5" width="35" ry="0" rx="0" fill-opacity="1" fill="#7cb5ec" stroke="#c0c0c0" stroke-opacity="0.000001" stroke-width="0" stroke-dasharray="none" stroke-linejoin="miter"></rect></g><g class="raphael-group-589-error-plot-group"></g><g class="raphael-group-598-common-elems-group"></g><g class="raphael-group-599-plot-group"><rect y="160.5" height="72" x="121.5" width="34" ry="0" rx="0" fill-opacity="1" fill="#434348" stroke="#c0c0c0" stroke-opacity="0.000001" stroke-width="0" stroke-dasharray="none" stroke-linejoin="miter"></rect><rect y="148.5" height="84" x="251.5" width="34" ry="0" rx="0" fill-opacity="1" fill="#434348" stroke="#c0c0c0" stroke-opacity="0.000001" stroke-width="0" stroke-dasharray="none" stroke-linejoin="miter"></rect><rect y="134.5" height="98" x="381.5" width="35" ry="0" rx="0" fill-opacity="1" fill="#434348" stroke="#c0c0c0" stroke-opacity="0.000001" stroke-width="0" stroke-dasharray="none" stroke-linejoin="miter"></rect><rect y="87.5" height="145" x="511.5" width="35" ry="0" rx="0" fill-opacity="1" fill="#434348" stroke="#c0c0c0" stroke-opacity="0.000001" stroke-width="0" stroke-dasharray="none" stroke-linejoin="miter"></rect><rect y="111.5" height="121" x="641.5" width="35" ry="0" rx="0" fill-opacity="1" fill="#434348" stroke="#c0c0c0" stroke-opacity="0.000001" stroke-width="0" stroke-dasharray="none" stroke-linejoin="miter"></rect></g><g class="raphael-group-600-error-plot-group"></g><g class="raphael-group-609-common-elems-group"></g><g class="raphael-group-610-plot-group"><rect y="217.5" height="15" x="155.5" width="35" ry="0" rx="0" fill-opacity="1" fill="#8eed7d" stroke="#c0c0c0" stroke-opacity="0.000001" stroke-width="0" stroke-dasharray="none" stroke-linejoin="miter"></rect><rect y="216.5" height="16" x="285.5" width="35" ry="0" rx="0" fill-opacity="1" fill="#8eed7d" stroke="#c0c0c0" stroke-opacity="0.000001" stroke-width="0" stroke-dasharray="none" stroke-linejoin="miter"></rect><rect y="217.5" height="15" x="416.5" width="34" ry="0" rx="0" fill-opacity="1" fill="#8eed7d" stroke="#c0c0c0" stroke-opacity="0.000001" stroke-width="0" stroke-dasharray="none" stroke-linejoin="miter"></rect><rect y="216.5" height="16" x="546.5" width="34" ry="0" rx="0" fill-opacity="1" fill="#8eed7d" stroke="#c0c0c0" stroke-opacity="0.000001" stroke-width="0" stroke-dasharray="none" stroke-linejoin="miter"></rect><rect y="216.5" height="16" x="676.5" width="34" ry="0" rx="0" fill-opacity="1" fill="#8eed7d" stroke="#c0c0c0" stroke-opacity="0.000001" stroke-width="0" stroke-dasharray="none" stroke-linejoin="miter"></rect></g><g class="raphael-group-611-error-plot-group"></g></g></g></g><g class="raphael-group-550-area-shadow-group"><g class="raphael-group-565-vcanvas-area-shadow" transform="matrix(1,0,0,1,0,0)"><g class="raphael-group-576-manager-areaShadowVcanvasGroup"></g></g></g><g class="raphael-group-551-area"><g class="raphael-group-566-vcanvas-area-plot" transform="matrix(1,0,0,1,0,0)"><g class="raphael-group-577-manager-areaVcanvasGroup"></g></g></g><g class="raphael-group-552-line-shadow-group"><g class="raphael-group-567-vcanvas-line-shadow" transform="matrix(1,0,0,1,0,0)"><g class="raphael-group-578-manager-lineShadowVcanvasGroup"></g></g></g><g class="raphael-group-553-line"><g class="raphael-group-568-vcanvas-line-plot" transform="matrix(1,0,0,1,0,0)"><g class="raphael-group-579-manager-lineVcanvasGroup"></g></g></g><g class="raphael-group-554-default-shadow-group"><g class="raphael-group-569-vcanvas-default-shadow" transform="matrix(1,0,0,1,0,0)"><g class="raphael-group-580-manager-defaultShadowVcanvasGroup"></g></g></g><g class="raphael-group-555-default"><g class="raphael-group-570-vcanvas-default-plot" transform="matrix(1,0,0,1,0,0)"><g class="raphael-group-581-manager-defaultVcanvasGroup"></g></g></g></g><g class="raphael-group-518-scrollbar-container"></g><g class="raphael-group-519-axistop"><g class="raphael-group-631-axis-Line-group"><g class="raphael-group-637-axis-line-tick"></g></g><g class="raphael-group-632-dataset-Trend-group-top"><g class="raphael-group-638-dataset-axis-trend-label"></g></g><g class="raphael-group-634-dataset-Label-group"><g class="raphael-group-636-dataset-top-label" transform="matrix(1,0,0,1,0,0)"></g></g><g class="raphael-group-649-axis-Line-group"><g class="raphael-group-655-axis-line-tick"></g></g><g class="raphael-group-650-dataset-Trend-group-top"><g class="raphael-group-656-dataset-axis-trend-label"></g></g><g class="raphael-group-652-dataset-Label-group"><g class="raphael-group-654-dataset-top-label" transform="matrix(1,0,0,1,0,0)"></g></g></g><g class="raphael-group-520-sumlabels fusioncharts-datalabels" clip-path="url('#rr-3010B576-EC09-49B1-B323-C08F3290BD0A')"><g class="raphael-group-573-vcanvas-sumLabelsLayer" transform="matrix(1,0,0,1,0,0)"><g class="raphael-group-584-manager-sumLabelsLayer"></g></g></g><g class="raphael-group-545-axisReferenceVisualsTop"></g><g class="raphael-group-547-axisReferenceVisualsCeil"></g><g class="raphael-group-521-datalabel" font-family="Lucida Grande, Lucida Sans Unicode, Arial, Helvetica, sans-serif" font-size="11px" font-weight="bold" font-style="normal" clip-path="url('#rr-6E5F9241-EA5F-4E78-80C3-2318E49F9FF3')" style="font-family: &quot;Lucida Grande&quot;, &quot;Lucida Sans Unicode&quot;, Arial, Helvetica, sans-serif; font-size: 11px; font-weight: bold; font-style: normal;"><g class="raphael-group-543-canvasdatalabel"><g class="raphael-group-571-vcanvas-label" transform="matrix(1,0,0,1,0,0)"><g class="raphael-group-582-manager-vcanvasLabelGroup"><g class="raphael-group-590-label-group fusioncharts-datalabels" font-family="Lucida Grande, Lucida Sans Unicode, Arial, Helvetica, sans-serif" font-size="11px" font-weight="bold" font-style="normal" style="font-family: &quot;Lucida Grande&quot;, &quot;Lucida Sans Unicode&quot;, Arial, Helvetica, sans-serif; font-size: 11px; font-weight: bold; font-style: normal;"></g><g class="raphael-group-601-label-group fusioncharts-datalabels" font-family="Lucida Grande, Lucida Sans Unicode, Arial, Helvetica, sans-serif" font-size="11px" font-weight="bold" font-style="normal" style="font-family: &quot;Lucida Grande&quot;, &quot;Lucida Sans Unicode&quot;, Arial, Helvetica, sans-serif; font-size: 11px; font-weight: bold; font-style: normal;"></g><g class="raphael-group-612-label-group fusioncharts-datalabels" font-family="Lucida Grande, Lucida Sans Unicode, Arial, Helvetica, sans-serif" font-size="11px" font-weight="bold" font-style="normal" style="font-family: &quot;Lucida Grande&quot;, &quot;Lucida Sans Unicode&quot;, Arial, Helvetica, sans-serif; font-size: 11px; font-weight: bold; font-style: normal;"></g></g></g></g></g><g class="raphael-group-542-crosslineTop"><g class="raphael-group-666-crosslineTop"></g></g><g class="raphael-group-522-aboveplot"></g><g class="raphael-group-523-caption"><text fill-opacity="1" fill="#333333" x="398.3" text-anchor="middle" stroke="none" y="31" font-family="Lucida Grande, Lucida Sans Unicode, Arial, Helvetica, sans-serif" font-size="18px" font-weight="normal" style="text-anchor: middle; font-family: &quot;Lucida Grande&quot;, &quot;Lucida Sans Unicode&quot;, Arial, Helvetica, sans-serif; font-size: 18px; font-weight: normal;">App Publishing Trend</text><text fill-opacity="1" fill="#666666" x="398.3" text-anchor="middle" stroke="none" y="49" font-family="Lucida Grande, Lucida Sans Unicode, Arial, Helvetica, sans-serif" font-size="12px" font-weight="normal" style="text-anchor: middle; font-family: &quot;Lucida Grande&quot;, &quot;Lucida Sans Unicode&quot;, Arial, Helvetica, sans-serif; font-size: 12px; font-weight: normal;">2020-2024</text></g><g class="raphael-group-524-chartdefault"></g><g class="raphael-group-525-chartdefault-shadow"></g><g class="raphael-group-526-tracker"></g><g class="raphael-group-527-logo"></g><g class="raphael-group-528-selectorGroup"></g><g class="raphael-group-529-legend"><g class="raphael-group-618-legendGroup" transform="matrix(1,0,0,1,187,286)"><rect x="0" y="0" width="424" height="27" ry="0" rx="0" stroke="#545454" stroke-opacity="0" stroke-width="0" fill-opacity="0" fill="#ffffff" style="cursor: default;"></rect><g class="raphael-group-620-item" transform="matrix(1,0,0,1,0,0)"><text fill-opacity="1" fill="#333333" font-family="Lucida Grande, Lucida Sans Unicode, Arial, Helvetica, sans-serif" font-size="12px" text-anchor="start" font-weight="bold" x="25" stroke="none" y="17" style="font-family: &quot;Lucida Grande&quot;, &quot;Lucida Sans Unicode&quot;, Arial, Helvetica, sans-serif; cursor: pointer; font-size: 12px; text-anchor: start; font-weight: bold;">Apple App Store</text><path opacity="1" d="M7,13.5A6.5,6.5,0,0,0,20,13.5A6.5,6.5,0,0,0,7,13.5Z" stroke="#7cb5ec" stroke-opacity="1" fill-opacity="1" fill="#7cb5ec" stroke-width="0" stroke-linecap="round" style="cursor: pointer;"></path><rect opacity="1" x="4" y="4" width="124.189453125" height="19" ry="0" rx="0" fill-opacity="0.000001" fill="#c0c0c0" stroke-width="1" stroke="none" style="cursor: pointer;"></rect><text fill-opacity="1" fill="#333333" font-family="Lucida Grande, Lucida Sans Unicode, Arial, Helvetica, sans-serif" font-size="12px" text-anchor="start" font-weight="bold" x="160.139453125" stroke="none" y="17" style="font-family: &quot;Lucida Grande&quot;, &quot;Lucida Sans Unicode&quot;, Arial, Helvetica, sans-serif; cursor: pointer; font-size: 12px; text-anchor: start; font-weight: bold;">Google Play Store</text><path opacity="1" d="M142.139453125,13.5A6.5,6.5,0,0,0,155.139453125,13.5A6.5,6.5,0,0,0,142.139453125,13.5Z" stroke="#434348" stroke-opacity="1" fill-opacity="1" fill="#434348" stroke-width="0" stroke-linecap="round" style="cursor: pointer;"></path><rect opacity="1" x="139.139453125" y="4" width="132.216796875" height="19" ry="0" rx="0" fill-opacity="0.000001" fill="#c0c0c0" stroke-width="1" stroke="none" style="cursor: pointer;"></rect><text fill-opacity="1" fill="#333333" font-family="Lucida Grande, Lucida Sans Unicode, Arial, Helvetica, sans-serif" font-size="12px" text-anchor="start" font-weight="bold" x="303.30625" stroke="none" y="17" style="font-family: &quot;Lucida Grande&quot;, &quot;Lucida Sans Unicode&quot;, Arial, Helvetica, sans-serif; cursor: pointer; font-size: 12px; text-anchor: start; font-weight: bold;">Amazon AppStore</text><path opacity="1" d="M285.30625,13.5A6.5,6.5,0,0,0,298.30625,13.5A6.5,6.5,0,0,0,285.30625,13.5Z" stroke="#8eed7d" stroke-opacity="1" fill-opacity="1" fill="#8eed7d" stroke-width="0" stroke-linecap="round" style="cursor: pointer;"></path><rect opacity="1" x="282.30625" y="4" width="134.724609375" height="19" ry="0" rx="0" fill-opacity="0.000001" fill="#c0c0c0" stroke-width="1" stroke="none" style="cursor: pointer;"></rect></g></g></g><g class="raphael-group-530-toolbar-master"><g class="raphael-group-535-toolbar"><rect fill-opacity="0" fill="#eeeeee" stroke="#eeeeee" stroke-opacity="0" stroke-width="1" width="0" height="0" x="739" y="6" ry="0" rx="0"></rect></g></g></g><rect x="0" y="0" width="10" height="30" ry="0" rx="0" fill="none" stroke="#000000" style="display: none;"></rect></svg>